999
dxflib 3.12.2.0
  0
SECTION
  2
HEADER
  9
$ACADVER
  1
AC1015
  9
$HANDSEED
  5
FFFF
  9
$ANGBASE
 50
0.0
  9
$ATTMODE
 70
1
  9
$AUNITS
 70
0
  9
$AUPREC
 70
0
  9
$CELTSCALE
 40
1.0
  9
$CHAMFERA
 40
0.0
  9
$CHAMFERB
 40
0.0
  9
$CHAMFERC
 40
0.0
  9
$CHAMFERD
 40
0.0
  9
$CMLJUST
 70
0
  9
$CMLSCALE
 40
1.0
  9
$DIMADEC
 70
0
  9
$DIMALTD
 70
3
  9
$DIMALTF
 40
0.03937007874016
  9
$DIMALTRND
 40
0.0
  9
$DIMALTTD
 70
2
  9
$DIMALTTZ
 70
0
  9
$DIMALTU
 70
2
  9
$DIMALTZ
 70
0
  9
$DIMAPOST
  1

  9
$DIMASZ
 40
2.5
  9
$DIMATFIT
 70
3
  9
$DIMAUNIT
 70
0
  9
$DIMAZIN
 70
0
  9
$DIMCEN
 40
2.5
  9
$DIMDEC
 70
2
  9
$DIMDLE
 40
0.0
  9
$DIMDLI
 40
3.75
  9
$DIMDSEP
 70
46
  9
$DIMEXE
 40
1.25
  9
$DIMEXO
 40
0.625
  9
$DIMFRAC
 70
0
  9
$DIMGAP
 40
0.625
  9
$DIMJUST
 70
0
  9
$DIMLFAC
 40
1.0
  9
$DIMLUNIT
 70
2
  9
$DIMLWD
 70
-2
  9
$DIMLWE
 70
-2
  9
$DIMPOST
  1

  9
$DIMRND
 40
0.0
  9
$DIMSCALE
 40
1.0
  9
$DIMTAD
 70
1
  9
$DIMTDEC
 70
4
  9
$DIMTFAC
 40
1.0
  9
$DIMTM
 40
0.0
  9
$DIMTOLJ
 70
1
  9
$DIMTP
 40
0.0
  9
$DIMTSZ
 40
0.0
  9
$DIMTVP
 40
0.0
  9
$DIMTXT
 40
2.5
  9
$DIMTZIN
 70
0
  9
$DIMZIN
 70
8
  9
$DWGCODEPAGE
  3
ANSI_1252
  9
$ELEVATION
 40
0.0
  9
$EXTMAX
 10
149.00159541124751
 20
159.0001151686746
 30
0.0
  9
$EXTMIN
 10
0.0
 20
0.0
 30
0.0
  9
$FILLETRAD
 40
5.0
  9
$INSBASE
 10
0.0
 20
0.0
 30
0.0
  9
$INSUNITS
 70
0
  9
$LIMMAX
 10
420.0
 20
297.0
  9
$LIMMIN
 10
0.0
 20
0.0
  9
$LTSCALE
 40
1.0
  9
$LUNITS
 70
2
  9
$LUPREC
 70
4
  9
$MAXACTVP
 70
2
  9
$MEASUREMENT
 70
0
  9
$PDMODE
 70
0
  9
$PDSIZE
 40
0
  9
$PELEVATION
 40
0.0
  9
$PEXTMAX
 10
9.9287257582933517
 20
7.5991666710079731
 30
0.0000000349246037
  9
$PEXTMIN
 10
1.049636599258094
 20
0.3333892899584683
 30
-0.0015258207003583
  9
$PINSBASE
 10
0.0
 20
0.0
 30
0.0
  9
$PLIMMAX
 10
10.75
 20
8.25
  9
$PLIMMIN
 10
-0.25
 20
-0.25
  9
$PLINEWID
 40
0.0
  9
$PROXYGRAPHICS
 70
1
  9
$PUCSORG
 10
0.0
 20
0.0
 30
0.0
  9
$PUCSXDIR
 10
1.0
 20
0.0
 30
0.0
  9
$PUCSYDIR
 10
0.0
 20
1.0
 30
0.0
  9
$SHADEDGE
 70
3
  9
$SHADEDIF
 70
70
  9
$SKETCHINC
 40
1.0
  9
$SPLINESEGS
 70
8
  9
$SPLINETYPE
 70
6
  9
$SURFTAB1
 70
6
  9
$SURFTAB2
 70
6
  9
$SURFTYPE
 70
6
  9
$SURFU
 70
6
  9
$SURFV
 70
6
  9
$TEXTSIZE
 40
2.5
  9
$THICKNESS
 40
0.0
  9
$TRACEWID
 40
1.0
  9
$TREEDEPTH
 70
3020
  9
$UCSORG
 10
0.0
 20
0.0
 30
0.0
  9
$UCSXDIR
 10
1.0
 20
0.0
 30
0.0
  9
$UCSYDIR
 10
0.0
 20
1.0
 30
0.0
  9
$UNITMODE
 70
0
  9
$USERI1
 70
0
  9
$USERI2
 70
0
  9
$USERI3
 70
0
  9
$USERI4
 70
0
  9
$USERI5
 70
0
  9
$USERR1
 40
0.0
  9
$USERR2
 40
0.0
  9
$USERR3
 40
0.0
  9
$USERR4
 40
0.0
  9
$USERR5
 40
0.0
  0
ENDSEC
  0
SECTION
  2
TABLES
  0
TABLE
  2
VPORT
  5
8
100
AcDbSymbolTable
 70
1
  0
VPORT
  5
30
100
AcDbSymbolTableRecord
100
AcDbViewportTableRecord
  2
*Active
 70
0
 10
0.0
 20
0.0
 11
1.0
 21
1.0
 12
286.30555555555549
 22
148.5
 13
0.0
 23
0.0
 14
10.0
 24
10.0
 15
10.0
 25
10.0
 16
0.0
 26
0.0
 36
1.0
 17
0.0
 27
0.0
 37
0.0
 40
297.0
 41
1.92798353909465
 42
50.0
 43
0.0
 44
0.0
 50
0.0
 51
0.0
 71
0
 72
100
 73
1
 74
3
 75
1
 76
1
 77
0
 78
0
281
0
 65
1
110
0.0
120
0.0
130
0.0
111
1.0
121
0.0
131
0.0
112
0.0
122
1.0
132
0.0
 79
0
146
0.0
  0
ENDTAB
  0
TABLE
  2
LTYPE
  5
5
100
AcDbSymbolTable
 70
50
  0
LTYPE
  5
16
100
AcDbSymbolTableRecord
100
AcDbLinetypeTableRecord
  2
Continuous
 70
0
  3
Solid line
 72
65
 73
0
 40
0.0
  0
LTYPE
  5
31
100
AcDbSymbolTableRecord
100
AcDbLinetypeTableRecord
  2
ACAD_ISO15W100
 70
0
  3
ISO double-dash triple-dot __ __ . . . __ __ . .
 72
65
 73
10
 40
39.000000000000007
 49
12.0
 74
0
 49
-3.0
 74
0
 49
12.0
 74
0
 49
-2.9500000000000002
 74
0
 49
0.1
 74
0
 49
-2.8999999999999999
 74
0
 49
0.1
 74
0
 49
-2.8999999999999999
 74
0
 49
0.1
 74
0
 49
-2.9500000000000002
 74
0
  0
LTYPE
  5
32
100
AcDbSymbolTableRecord
100
AcDbLinetypeTableRecord
  2
HOT_WATER_SUPPLY
 70
0
  3
Hot water supply ---- HW ---- HW ---- HW ----
 72
65
 73
3
 40
22.859999999999999
 49
12.699999999999999
 74
0
 49
-5.0800000000000001
 74
0
 49
-5.0800000000000001
 74
0
  0
LTYPE
  5
33
100
AcDbSymbolTableRecord
100
AcDbLinetypeTableRecord
  2
DIVIDE
 70
0
  3
Divide ____ . . ____ . . ____ . . ____ . . ____
 72
65
 73
6
 40
31.749999999999989
 49
12.699999999999999
 74
0
 49
-6.2999999999999972
 74
0
 49
0.1
 74
0
 49
-6.249999999999992
 74
0
 49
0.1
 74
0
 49
-6.2999999999999972
 74
0
  0
LTYPE
  5
34
100
AcDbSymbolTableRecord
100
AcDbLinetypeTableRecord
  2
ACAD_ISO10W100
 70
0
  3
ISO dash dot __ . __ . __ . __ . __ . __ . __ . 
 72
65
 73
4
 40
18.0
 49
12.0
 74
0
 49
-2.9500000000000002
 74
0
 49
0.1
 74
0
 49
-2.9500000000000002
 74
0
  0
LTYPE
  5
35
100
AcDbSymbolTableRecord
100
AcDbLinetypeTableRecord
  2
GAS_LINE
 70
0
  3
Gas line ----GAS----GAS----GAS----GAS----GAS----GAS--
 72
65
 73
3
 40
24.129999999999999
 49
12.699999999999999
 74
0
 49
-5.0800000000000001
 74
0
 49
-6.349999999999997
 74
0
  0
LTYPE
  5
36
100
AcDbSymbolTableRecord
100
AcDbLinetypeTableRecord
  2
ACAD_ISO04W100
 70
0
  3
ISO long-dash dot ____ . ____ . ____ . ____ . _
 72
65
 73
4
 40
30.0
 49
24.0
 74
0
 49
-2.9500000000000002
 74
0
 49
0.1
 74
0
 49
-2.9500000000000002
 74
0
  0
LTYPE
  5
14
100
AcDbSymbolTableRecord
100
AcDbLinetypeTableRecord
  2
ByBlock
 70
0
  3

 72
65
 73
0
 40
0.0
  0
LTYPE
  5
37
100
AcDbSymbolTableRecord
100
AcDbLinetypeTableRecord
  2
CENTER2
 70
0
  3
Center (.5x) ___ _ ___ _ ___ _ ___ _ ___ _ ___
 72
65
 73
4
 40
28.574999999999992
 49
19.050000000000001
 74
0
 49
-3.174999999999998
 74
0
 49
3.174999999999998
 74
0
 49
-3.174999999999998
 74
0
  0
LTYPE
  5
38
100
AcDbSymbolTableRecord
100
AcDbLinetypeTableRecord
  2
ACAD_ISO11W100
 70
0
  3
ISO double-dash dot __ __ . __ __ . __ __ . __ _
 72
65
 73
6
 40
33.0
 49
12.0
 74
0
 49
-3.0
 74
0
 49
12.0
 74
0
 49
-2.9500000000000002
 74
0
 49
0.1
 74
0
 49
-2.9500000000000002
 74
0
  0
LTYPE
  5
39
100
AcDbSymbolTableRecord
100
AcDbLinetypeTableRecord
  2
HIDDEN2
 70
0
  3
Hidden (.5x) _ _ _ _ _ _ _ _ _ _ _ _ _ _ _ _ _ 
 72
65
 73
2
 40
4.7624999999999975
 49
3.174999999999998
 74
0
 49
-1.587499999999999
 74
0
  0
LTYPE
  5
3A
100
AcDbSymbolTableRecord
100
AcDbLinetypeTableRecord
  2
BORDERX2
 70
0
  3
Border (2x) ____  ____  .  ____  ____  .  ___
 72
65
 73
6
 40
88.899999999999991
 49
25.399999999999999
 74
0
 49
-12.699999999999999
 74
0
 49
25.399999999999999
 74
0
 49
-12.65
 74
0
 49
0.1
 74
0
 49
-12.65
 74
0
  0
LTYPE
  5
3B
100
AcDbSymbolTableRecord
100
AcDbLinetypeTableRecord
  2
ACAD_ISO05W100
 70
0
  3
ISO long-dash double-dot ____ .. ____ .. ____ . 
 72
65
 73
6
 40
33.0
 49
24.0
 74
0
 49
-2.9500000000000002
 74
0
 49
0.1
 74
0
 49
-2.8999999999999999
 74
0
 49
0.1
 74
0
 49
-2.9500000000000002
 74
0
  0
LTYPE
  5
3C
100
AcDbSymbolTableRecord
100
AcDbLinetypeTableRecord
  2
DASHDOTX2
 70
0
  3
Dash dot (2x) ____  .  ____  .  ____  .  ___
 72
65
 73
4
 40
50.799999999999997
 49
25.399999999999999
 74
0
 49
-12.65
 74
0
 49
0.1
 74
0
 49
-12.65
 74
0
  0
LTYPE
  5
3D
100
AcDbSymbolTableRecord
100
AcDbLinetypeTableRecord
  2
HIDDENX2
 70
0
  3
Hidden (2x) ____ ____ ____ ____ ____ ____ ____ 
 72
65
 73
2
 40
19.049999999999997
 49
12.699999999999999
 74
0
 49
-6.349999999999997
 74
0
  0
LTYPE
  5
3E
100
AcDbSymbolTableRecord
100
AcDbLinetypeTableRecord
  2
CENTERX2
 70
0
  3
Center (2x) ________  __  ________  __  _____
 72
65
 73
4
 40
101.60000000000001
 49
63.5
 74
0
 49
-12.699999999999999
 74
0
 49
12.699999999999999
 74
0
 49
-12.699999999999999
 74
0
  0
LTYPE
  5
3F
100
AcDbSymbolTableRecord
100
AcDbLinetypeTableRecord
  2
BORDER2
 70
0
  3
Border (.5x) __.__.__.__.__.__.__.__.__.__.__.
 72
65
 73
6
 40
22.224999999999987
 49
6.349999999999997
 74
0
 49
-3.174999999999998
 74
0
 49
6.349999999999997
 74
0
 49
-3.124999999999996
 74
0
 49
0.1
 74
0
 49
-3.124999999999996
 74
0
  0
LTYPE
  5
40
100
AcDbSymbolTableRecord
100
AcDbLinetypeTableRecord
  2
DASHDOT2
 70
0
  3
Dash dot (.5x) _._._._._._._._._._._._._._._.
 72
65
 73
4
 40
12.699999999999989
 49
6.349999999999997
 74
0
 49
-3.124999999999996
 74
0
 49
0.1
 74
0
 49
-3.124999999999996
 74
0
  0
LTYPE
  5
41
100
AcDbSymbolTableRecord
100
AcDbLinetypeTableRecord
  2
ACAD_ISO12W100
 70
0
  3
ISO dash double-dot __ . . __ . . __ . . __ . . 
 72
65
 73
6
 40
21.0
 49
12.0
 74
0
 49
-2.9500000000000002
 74
0
 49
0.1
 74
0
 49
-2.8999999999999999
 74
0
 49
0.1
 74
0
 49
-2.9500000000000002
 74
0
  0
LTYPE
  5
42
100
AcDbSymbolTableRecord
100
AcDbLinetypeTableRecord
  2
ACAD_ISO07W100
 70
0
  3
ISO dot . . . . . . . . . . . . . . . . . . . . 
 72
65
 73
2
 40
3.0
 49
0.1
 74
0
 49
-2.8999999999999999
 74
0
  0
LTYPE
  5
43
100
AcDbSymbolTableRecord
100
AcDbLinetypeTableRecord
  2
ACAD_ISO06W100
 70
0
  3
ISO long-dash triple-dot ____ ... ____ ... ____
 72
65
 73
8
 40
36.000000000000007
 49
24.0
 74
0
 49
-2.9500000000000002
 74
0
 49
0.1
 74
0
 49
-2.8999999999999999
 74
0
 49
0.1
 74
0
 49
-2.8999999999999999
 74
0
 49
0.1
 74
0
 49
-2.9500000000000002
 74
0
  0
LTYPE
  5
44
100
AcDbSymbolTableRecord
100
AcDbLinetypeTableRecord
  2
CENTER
 70
0
  3
Center ____ _ ____ _ ____ _ ____ _ ____ _ ____
 72
65
 73
4
 40
50.799999999999983
 49
31.75
 74
0
 49
-6.349999999999997
 74
0
 49
6.349999999999997
 74
0
 49
-6.349999999999997
 74
0
  0
LTYPE
  5
45
100
AcDbSymbolTableRecord
100
AcDbLinetypeTableRecord
  2
HIDDEN
 70
0
  3
Hidden __ __ __ __ __ __ __ __ __ __ __ __ __ __
 72
65
 73
2
 40
9.524999999999995
 49
6.349999999999997
 74
0
 49
-3.174999999999998
 74
0
  0
LTYPE
  5
46
100
AcDbSymbolTableRecord
100
AcDbLinetypeTableRecord
  2
DOTX2
 70
0
  3
Dot (2x) .  .  .  .  .  .  .  .  .  .  .  .  .  .
 72
65
 73
2
 40
12.699999999999999
 49
0.1
 74
0
 49
-12.6
 74
0
  0
LTYPE
  5
47
100
AcDbSymbolTableRecord
100
AcDbLinetypeTableRecord
  2
PHANTOM
 70
0
  3
Phantom ______  __  __  ______  __  __  ______ 
 72
65
 73
6
 40
63.499999999999972
 49
31.75
 74
0
 49
-6.349999999999997
 74
0
 49
6.349999999999997
 74
0
 49
-6.349999999999997
 74
0
 49
6.349999999999997
 74
0
 49
-6.349999999999997
 74
0
  0
LTYPE
  5
48
100
AcDbSymbolTableRecord
100
AcDbLinetypeTableRecord
  2
ACAD_ISO08W100
 70
0
  3
ISO long-dash short-dash ____ __ ____ __ ____ _
 72
65
 73
4
 40
36.0
 49
24.0
 74
0
 49
-3.0
 74
0
 49
6.0
 74
0
 49
-3.0
 74
0
  0
LTYPE
  5
49
100
AcDbSymbolTableRecord
100
AcDbLinetypeTableRecord
  2
DASHEDX2
 70
0
  3
Dashed (2x) ____  ____  ____  ____  ____  ___
 72
65
 73
2
 40
38.099999999999994
 49
25.399999999999999
 74
0
 49
-12.699999999999999
 74
0
  0
LTYPE
  5
4A
100
AcDbSymbolTableRecord
100
AcDbLinetypeTableRecord
  2
DRAINAGE
 70
0
  3
Drainage ---->---->---->----
 72
65
 73
2
 40
10.16
 49
5.0800000000000001
 74
0
 49
5.0800000000000001
 74
0
  0
LTYPE
  5
4B
100
AcDbSymbolTableRecord
100
AcDbLinetypeTableRecord
  2
ACAD_ISO02W100
 70
0
  3
ISO dash __ __ __ __ __ __ __ __ __ __ __ __ __
 72
65
 73
2
 40
15.0
 49
12.0
 74
0
 49
-3.0
 74
0
  0
LTYPE
  5
4C
100
AcDbSymbolTableRecord
100
AcDbLinetypeTableRecord
  2
PHANTOM2
 70
0
  3
Phantom (.5x) ___ _ _ ___ _ _ ___ _ _ ___ _ _
 72
65
 73
6
 40
31.749999999999986
 49
15.875
 74
0
 49
-3.174999999999998
 74
0
 49
3.174999999999998
 74
0
 49
-3.174999999999998
 74
0
 49
3.174999999999998
 74
0
 49
-3.174999999999998
 74
0
  0
LTYPE
  5
4D
100
AcDbSymbolTableRecord
100
AcDbLinetypeTableRecord
  2
DASHED2
 70
0
  3
Dashed (.5x) _ _ _ _ _ _ _ _ _ _ _ _ _ _ _ _ _ 
 72
65
 73
2
 40
9.524999999999995
 49
6.349999999999997
 74
0
 49
-3.174999999999998
 74
0
  0
LTYPE
  5
4E
100
AcDbSymbolTableRecord
100
AcDbLinetypeTableRecord
  2
ACAD_ISO09W100
 70
0
  3
ISO long-dash double-short-dash ____ __ __ ____
 72
65
 73
6
 40
45.0
 49
24.0
 74
0
 49
-3.0
 74
0
 49
6.0
 74
0
 49
-3.0
 74
0
 49
6.0
 74
0
 49
-3.0
 74
0
  0
LTYPE
  5
4F
100
AcDbSymbolTableRecord
100
AcDbLinetypeTableRecord
  2
ACAD_ISO13W100
 70
0
  3
ISO double-dash double-dot __ __ . . __ __ . . _
 72
65
 73
8
 40
36.000000000000007
 49
12.0
 74
0
 49
-3.0
 74
0
 49
12.0
 74
0
 49
-2.9500000000000002
 74
0
 49
0.1
 74
0
 49
-2.8999999999999999
 74
0
 49
0.1
 74
0
 49
-2.9500000000000002
 74
0
  0
LTYPE
  5
50
100
AcDbSymbolTableRecord
100
AcDbLinetypeTableRecord
  2
TRACKS
 70
0
  3
Tracks -|-|-|-|-|-|-|-|-|-|-|-|-|-|-|-|-|-|-|-|-|-|-|-|-
 72
65
 73
2
 40
7.6200000000000001
 49
3.8100000000000001
 74
0
 49
3.8100000000000001
 74
0
  0
LTYPE
  5
51
100
AcDbSymbolTableRecord
100
AcDbLinetypeTableRecord
  2
DRAINAGE2
 70
0
  3
Drainage reversed----<----<----<----
 72
65
 73
2
 40
10.16
 49
5.0800000000000001
 74
0
 49
5.0800000000000001
 74
0
  0
LTYPE
  5
52
100
AcDbSymbolTableRecord
100
AcDbLinetypeTableRecord
  2
DOT2
 70
0
  3
Dot (.5x) ........................................
 72
65
 73
2
 40
3.174999999999998
 49
0.1
 74
0
 49
-3.074999999999998
 74
0
  0
LTYPE
  5
53
100
AcDbSymbolTableRecord
100
AcDbLinetypeTableRecord
  2
ZIGZAG
 70
0
  3
Zig zag /\/\/\/\/\/\/\/\/\/\/\/\/\/\/\/\/\/\/\/\/\/\/\/
 72
65
 73
4
 40
20.32254
 49
0.00254
 74
0
 49
-5.0800000000000001
 74
0
 49
-10.16
 74
0
 49
-5.0800000000000001
 74
0
  0
LTYPE
  5
54
100
AcDbSymbolTableRecord
100
AcDbLinetypeTableRecord
  2
DASHED
 70
0
  3
Dashed __ __ __ __ __ __ __ __ __ __ __ __ __ _
 72
65
 73
2
 40
19.049999999999997
 49
12.699999999999999
 74
0
 49
-6.349999999999997
 74
0
  0
LTYPE
  5
55
100
AcDbSymbolTableRecord
100
AcDbLinetypeTableRecord
  2
ACAD_ISO14W100
 70
0
  3
ISO dash triple-dot __ . . . __ . . . __ . . . _
 72
65
 73
8
 40
24.0
 49
12.0
 74
0
 49
-2.9500000000000002
 74
0
 49
0.1
 74
0
 49
-2.8999999999999999
 74
0
 49
0.1
 74
0
 49
-2.8999999999999999
 74
0
 49
0.1
 74
0
 49
-2.9500000000000002
 74
0
  0
LTYPE
  5
56
100
AcDbSymbolTableRecord
100
AcDbLinetypeTableRecord
  2
PHANTOMX2
 70
0
  3
Phantom (2x) ____________    ____    ____   _
 72
65
 73
6
 40
127.00000000000001
 49
63.5
 74
0
 49
-12.699999999999999
 74
0
 49
12.699999999999999
 74
0
 49
-12.699999999999999
 74
0
 49
12.699999999999999
 74
0
 49
-12.699999999999999
 74
0
  0
LTYPE
  5
57
100
AcDbSymbolTableRecord
100
AcDbLinetypeTableRecord
  2
DIVIDEX2
 70
0
  3
Divide (2x) ________  .  .  ________  .  .  _
 72
65
 73
6
 40
63.5
 49
25.399999999999999
 74
0
 49
-12.65
 74
0
 49
0.1
 74
0
 49
-12.6
 74
0
 49
0.1
 74
0
 49
-12.65
 74
0
  0
LTYPE
  5
58
100
AcDbSymbolTableRecord
100
AcDbLinetypeTableRecord
  2
BORDER
 70
0
  3
Border __ __ . __ __ . __ __ . __ __ . __ __ .
 72
65
 73
6
 40
44.449999999999996
 49
12.699999999999999
 74
0
 49
-6.349999999999997
 74
0
 49
12.699999999999999
 74
0
 49
-6.2999999999999972
 74
0
 49
0.1
 74
0
 49
-6.2999999999999972
 74
0
  0
LTYPE
  5
59
100
AcDbSymbolTableRecord
100
AcDbLinetypeTableRecord
  2
DIVIDE2
 70
0
  3
Divide (.5x) __..__..__..__..__..__..__..__.._
 72
65
 73
6
 40
15.874999999999986
 49
6.349999999999997
 74
0
 49
-3.124999999999996
 74
0
 49
0.1
 74
0
 49
-3.074999999999998
 74
0
 49
0.1
 74
0
 49
-3.124999999999996
 74
0
  0
LTYPE
  5
5A
100
AcDbSymbolTableRecord
100
AcDbLinetypeTableRecord
  2
DOT
 70
0
  3
Dot . . . . . . . . . . . . . . . . . . . . . . . .
 72
65
 73
2
 40
6.3499999999999917
 49
0.1
 74
0
 49
-6.249999999999992
 74
0
  0
LTYPE
  5
5B
100
AcDbSymbolTableRecord
100
AcDbLinetypeTableRecord
  2
DASHDOT
 70
0
  3
Dash dot __ . __ . __ . __ . __ . __ . __ . __
 72
65
 73
4
 40
25.399999999999995
 49
12.699999999999999
 74
0
 49
-6.2999999999999972
 74
0
 49
0.1
 74
0
 49
-6.2999999999999972
 74
0
  0
LTYPE
  5
5C
100
AcDbSymbolTableRecord
100
AcDbLinetypeTableRecord
  2
FENCELINE1
 70
0
  3
Fenceline circle ----0-----0----0-----0----0-----0--
 72
65
 73
4
 40
36.829999999999998
 49
6.349999999999997
 74
0
 49
-2.54
 74
0
 49
-2.54
 74
0
 49
25.399999999999999
 74
0
  0
LTYPE
  5
5D
100
AcDbSymbolTableRecord
100
AcDbLinetypeTableRecord
  2
BATTING
 70
0
  3
Batting SSSSSSSSSSSSSSSSSSSSSSSSSSSSSSSSSSSSSSSSSSSSSSS
 72
65
 73
4
 40
10.16254
 49
0.00254
 74
0
 49
-2.54
 74
0
 49
-5.0800000000000001
 74
0
 49
-2.54
 74
0
  0
LTYPE
  5
5E
100
AcDbSymbolTableRecord
100
AcDbLinetypeTableRecord
  2
ACAD_ISO03W100
 70
0
  3
ISO dash space __    __    __    __    __    __
 72
65
 73
2
 40
30.0
 49
12.0
 74
0
 49
-18.0
 74
0
  0
LTYPE
  5
15
100
AcDbSymbolTableRecord
100
AcDbLinetypeTableRecord
  2
ByLayer
 70
0
  3

 72
65
 73
0
 40
0.0
  0
LTYPE
  5
5F
100
AcDbSymbolTableRecord
100
AcDbLinetypeTableRecord
  2
FENCELINE2
 70
0
  3
Fenceline square ----[]-----[]----[]-----[]----[]---
 72
65
 73
4
 40
36.829999999999998
 49
6.349999999999997
 74
0
 49
-2.54
 74
0
 49
-2.54
 74
0
 49
25.399999999999999
 74
0
  0
ENDTAB
  0
TABLE
  2
LAYER
  5
2
100
AcDbSymbolTable
 70
4
  0
LAYER
  5
60
100
AcDbSymbolTableRecord
100
AcDbLayerTableRecord
  2
grabado linea medio
 70
0
 62
3
420
65280
  6
Continuous
370
-3
390
F
  0
LAYER
  5
61
100
AcDbSymbolTableRecord
100
AcDbLayerTableRecord
  2
mesa de trabajo y auxiliares
 70
0
 62
7
420
16777215
  6
Continuous
370
-3
390
F
  0
LAYER
  5
62
100
AcDbSymbolTableRecord
100
AcDbLayerTableRecord
  2
Corte exterior
 70
0
 62
1
420
16711680
  6
Continuous
370
-3
390
F
  0
LAYER
  5
10
100
AcDbSymbolTableRecord
100
AcDbLayerTableRecord
  2
0
 70
1
 62
-7
420
16777215
  6
Continuous
370
-3
390
F
  0
ENDTAB
  0
TABLE
  2
STYLE
  5
3
100
AcDbSymbolTable
 70
1
  0
STYLE
  5
63
100
AcDbSymbolTableRecord
100
AcDbTextStyleTableRecord
  2
Standard
 70
0
 40
0.0
 41
1.0
 50
0.0
 71
0
 42
2.5
  3

  4

1001
ACAD
1000
txt
1071
0
  0
ENDTAB
  0
TABLE
  2
VIEW
  5
6
100
AcDbSymbolTable
 70
0
  0
ENDTAB
  0
TABLE
  2
UCS
  5
7
100
AcDbSymbolTable
 70
0
  0
ENDTAB
  0
TABLE
  2
APPID
  5
9
100
AcDbSymbolTable
 70
1
  0
APPID
  5
12
100
AcDbSymbolTableRecord
100
AcDbRegAppTableRecord
  2
ACAD
 70
0
  0
APPID
  5
64
100
AcDbSymbolTableRecord
100
AcDbRegAppTableRecord
  2
QCAD
 70
0
  0
ENDTAB
  0
TABLE
  2
DIMSTYLE
  5
A
100
AcDbSymbolTable
 70
1
100
AcDbDimStyleTable
 71
0
  0
DIMSTYLE
105
27
100
AcDbSymbolTableRecord
100
AcDbDimStyleTableRecord
  2
Standard
 41
2.5
 42
0.625
 43
3.75
 44
1.25
 70
0
 73
0
 74
0
 77
1
 78
8
140
2.5
141
2.5
143
0.03937007874016
147
0.625
171
3
172
1
271
2
272
2
274
3
278
44
283
0
284
8
340
63
  0
ENDTAB
  0
TABLE
  2
BLOCK_RECORD
  5
1
100
AcDbSymbolTable
 70
1
  0
BLOCK_RECORD
  5
1F
100
AcDbSymbolTableRecord
100
AcDbBlockTableRecord
  2
*Model_Space
340
22
  0
BLOCK_RECORD
  5
1B
100
AcDbSymbolTableRecord
100
AcDbBlockTableRecord
  2
*Paper_Space
340
1E
  0
BLOCK_RECORD
  5
23
100
AcDbSymbolTableRecord
100
AcDbBlockTableRecord
  2
*Paper_Space0
340
26
  0
BLOCK_RECORD
  5
65
100
AcDbSymbolTableRecord
100
AcDbBlockTableRecord
  2
A$C32B96BB9
340
0
  0
BLOCK_RECORD
  5
66
100
AcDbSymbolTableRecord
100
AcDbBlockTableRecord
  2
$PAPER_SPACE
340
0
  0
BLOCK_RECORD
  5
67
100
AcDbSymbolTableRecord
100
AcDbBlockTableRecord
  2
$MODEL_SPACE
340
0
  0
ENDTAB
  0
ENDSEC
  0
SECTION
  2
BLOCKS
  0
BLOCK
  5
20
100
AcDbEntity
  8
0
100
AcDbBlockBegin
  2
*Model_Space
 70
0
 10
0.0
 20
0.0
 30
0.0
  3
*Model_Space
  1

  0
ENDBLK
  5
21
100
AcDbEntity
  8
0
100
AcDbBlockEnd
  0
BLOCK
  5
1C
100
AcDbEntity
 67
1
  8
0
100
AcDbBlockBegin
  2
*Paper_Space
 70
0
 10
0.0
 20
0.0
 30
0.0
  3
*Paper_Space
  1

  0
ENDBLK
  5
1D
100
AcDbEntity
 67
1
  8
0
100
AcDbBlockEnd
  0
BLOCK
  5
24
100
AcDbEntity
  8
0
100
AcDbBlockBegin
  2
*Paper_Space0
 70
0
 10
0.0
 20
0.0
 30
0.0
  3
*Paper_Space0
  1

  0
ENDBLK
  5
25
100
AcDbEntity
  8
0
100
AcDbBlockEnd
  0
BLOCK
  5
68
100
AcDbEntity
  8
0
100
AcDbBlockBegin
  2
A$C32B96BB9
 70
0
 10
0.0
 20
0.0
 30
0.0
  3
A$C32B96BB9
  1

  0
ENDBLK
  5
69
100
AcDbEntity
  8
0
100
AcDbBlockEnd
  0
BLOCK
  5
6A
100
AcDbEntity
  8
0
100
AcDbBlockBegin
  2
$PAPER_SPACE
 70
0
 10
0.0
 20
0.0
 30
0.0
  3
$PAPER_SPACE
  1

  0
ENDBLK
  5
6B
100
AcDbEntity
  8
0
100
AcDbBlockEnd
  0
BLOCK
  5
6C
100
AcDbEntity
  8
0
100
AcDbBlockBegin
  2
$MODEL_SPACE
 70
0
 10
0.0
 20
0.0
 30
0.0
  3
$MODEL_SPACE
  1

  0
ENDBLK
  5
6D
100
AcDbEntity
  8
0
100
AcDbBlockEnd
  0
ENDSEC
  0
SECTION
  2
ENTITIES
  0
CIRCLE
  5
6E
100
AcDbEntity
100
AcDbCircle
  8
mesa de trabajo y auxiliares
 62
256
370
-1
 48
1.0
  6
ByLayer
 10
75.576800134219482
 20
90.008726125152094
 30
0.0
 40
6.0
  0
CIRCLE
  5
6F
100
AcDbEntity
100
AcDbCircle
  8
Corte exterior
 62
256
370
-1
 48
1.0
  6
ByLayer
 10
20.501050772040831
 20
132.3466762220126
 30
0.0
 40
8.0
  0
CIRCLE
  5
70
100
AcDbEntity
100
AcDbCircle
  8
Corte exterior
 62
256
370
-1
 48
1.0
  6
ByLayer
 10
46.501050772040813
 20
132.3466762220126
 30
0.0
 40
8.0
  0
LWPOLYLINE
  5
71
  8
mesa de trabajo y auxiliares
 62
256
370
-1
 48
1.0
  6
ByLayer
100
AcDbEntity
100
AcDbPolyline
 90
9
 70
0
 10
85.326800134219482
 20
97.708726125152069
 30
0.0
 10
65.826800134219553
 20
97.708726125152126
 30
0.0
 10
65.826800134219553
 20
82.308726125152091
 30
0.0
 10
85.326800134219482
 20
82.308726125152091
 30
0.0
 10
85.326800134219482
 20
85.008726125152094
 30
0.0
 10
102.0268001342195
 20
85.008726125152094
 30
0.0
 10
102.0268001342195
 20
95.008726125152052
 30
0.0
 10
85.326800134219482
 20
95.008726125152137
 30
0.0
 10
85.326800134219482
 20
97.708726125152069
 30
0.0
  0
LWPOLYLINE
  5
72
  8
mesa de trabajo y auxiliares
 62
256
370
-1
 48
1.0
  6
ByLayer
100
AcDbEntity
100
AcDbPolyline
 90
4
 70
0
 10
83.601595411247487
 20
159.0
 30
0.0
 10
83.601595411247487
 20
112.3
 30
0.0
 10
101.6015954112475
 20
112.3
 30
0.0
 10
101.6015954112475
 20
159.0
 30
0.0
  0
LWPOLYLINE
  5
73
  8
mesa de trabajo y auxiliares
 62
256
370
-1
 48
1.0
  6
ByLayer
100
AcDbEntity
100
AcDbPolyline
 90
4
 70
0
 10
149.00159541124751
 20
159.0
 30
0.0
 10
124.00159541124749
 20
159.0
 30
0.0
 10
124.00159541124749
 20
62.000000000000021
 30
0.0
 10
149.00159541124751
 20
62.000000000000021
 30
0.0
  0
LWPOLYLINE
  5
74
  8
mesa de trabajo y auxiliares
 62
256
370
-1
 48
1.0
  6
ByLayer
100
AcDbEntity
100
AcDbPolyline
 90
4
 70
0
 10
66.001595411247536
 20
101.8
 30
0.0
 10
119.2015954112475
 20
101.8
 30
0.0
 10
119.2015954112475
 20
159.0
 30
0.0
 10
66.001582509334142
 20
159.00001961092411
 30
0.0
  0
LWPOLYLINE
  5
75
  8
mesa de trabajo y auxiliares
 62
256
370
-1
 48
1.0
  6
ByLayer
100
AcDbEntity
100
AcDbPolyline
 90
8
 70
0
 10
66.000000000000014
 20
65.299999999999969
 30
0.0
 10
82.300000000000026
 20
65.299999999999969
 30
0.0
 10
82.300000000000026
 20
61.799999999999969
 30
0.0
 10
120.0
 20
61.799999999999969
 30
0.0
 10
120.0
 20
78.799999999999983
 30
0.0
 10
82.300000000000026
 20
78.799999999999983
 30
0.0
 10
82.300000000000026
 20
75.299999999999983
 30
0.0
 10
66.000000000000014
 20
75.299999999999983
 30
0.0
  0
CIRCLE
  5
76
100
AcDbEntity
100
AcDbCircle
  8
Corte exterior
 62
256
370
-1
 48
1.0
  6
ByLayer
 10
112.337723507795
 20
89.27813953321305
 30
0.0
 40
5.0
  0
LWPOLYLINE
  5
77
  8
mesa de trabajo y auxiliares
 62
256
370
-1
 48
1.0
  6
ByLayer
100
AcDbEntity
100
AcDbPolyline
 90
4
 70
129
 10
0.0
 20
0.0
 30
0.0
 10
150.0
 20
0.0
 30
0.0
 10
150.0
 20
160.0
 30
0.0
 10
0.0
 20
160.0
 30
0.0
  0
LWPOLYLINE
  5
78
  8
mesa de trabajo y auxiliares
 62
256
370
-1
 48
1.0
  6
ACAD_ISO02W100
100
AcDbEntity
100
AcDbPolyline
 90
4
 70
129
 10
1.0
 20
1.0
 30
0.0
 10
149.0
 20
1.0
 30
0.0
 10
149.0
 20
159.0
 30
0.0
 10
1.0
 20
159.0
 30
0.0
  0
LWPOLYLINE
  5
79
  8
Corte exterior
 62
256
370
-1
 48
1.0
  6
ByLayer
100
AcDbEntity
100
AcDbPolyline
 90
6
 70
0
 10
34.001050772040813
 20
87.50266697697451
 30
0.0
 10
49.50105077204082
 20
87.50266697697451
 30
0.0
 10
49.50105077204082
 20
55.502666976974517
 30
0.0
 10
17.501050772040781
 20
55.502666976974517
 30
0.0
 10
17.501050772040799
 20
87.50266697697451
 30
0.0
 10
33.00105077204082
 20
87.50266697697451
 30
0.0
  0
LINE
  5
7A
100
AcDbEntity
100
AcDbLine
  8
grabado linea medio
 62
256
370
-1
 48
1.0
  6
ByLayer
 10
33.697526549383738
 20
158.99992636780769
 30
0.0
 11
33.50105077204082
 21
132.3466762220126
 31
0.0
  0
LINE
  5
7B
100
AcDbEntity
100
AcDbLine
  8
grabado linea medio
 62
256
370
-1
 48
1.0
  6
ByLayer
 10
45.017726337298313
 20
122.1256552383222
 30
0.0
 11
54.272052324895107
 21
113.91246389042421
 31
0.0
  0
LINE
  5
7C
100
AcDbEntity
100
AcDbLine
  8
grabado linea medio
 62
256
370
-1
 48
1.0
  6
ByLayer
 10
21.978619081000421
 20
122.1229953463009
 30
0.0
 11
12.721647832088911
 21
113.9094235532815
 31
0.0
  0
LINE
  5
7D
100
AcDbEntity
100
AcDbLine
  8
grabado linea medio
 62
256
370
-1
 48
1.0
  6
ByLayer
 10
9.4902523022645582
 20
134.54143306219041
 30
0.0
 11
6.4406528353187511
 21
134.82018802730619
 31
0.0
  0
ARC
  5
7E
100
AcDbEntity
  8
grabado linea medio
 62
256
370
-1
 48
1.0
  6
ByLayer
100
AcDbCircle
 10
-2.320880959027896
 20
152.90935541257619
 30
0.0
 40
19.765482003745849
100
AcDbArc
 50
296.35152348749682
 51
304.9921202578933
  0
ARC
  5
7F
100
AcDbEntity
  8
grabado linea medio
 62
256
370
-1
 48
1.0
  6
ByLayer
100
AcDbCircle
 10
66.408964483136813
 20
152.26919749756399
 30
0.0
 40
13.86547317879997
100
AcDbArc
 50
232.6190482702456
 51
243.45712499240679
  0
ARC
  5
80
100
AcDbEntity
  8
grabado linea medio
 62
256
370
-1
 48
1.0
  6
ByLayer
100
AcDbCircle
 10
96.645051456308977
 20
110.60191592289451
 30
0.0
 40
52.021360577666542
100
AcDbArc
 50
166.90400238784673
 51
167.95388099610199
  0
ARC
  5
81
100
AcDbEntity
  8
grabado linea medio
 62
256
370
-1
 48
1.0
  6
ByLayer
100
AcDbCircle
 10
43.671905453124758
 20
115.4839682236927
 30
0.0
 40
6.3319902151290401
100
AcDbArc
 50
70.653664782176236
 51
90.385433612213561
  0
ARC
  5
82
100
AcDbEntity
  8
grabado linea medio
 62
256
370
-1
 48
1.0
  6
ByLayer
100
AcDbCircle
 10
33.464963704349202
 20
119.88225387182131
 30
0.0
 40
4.2821235058400244
100
AcDbArc
 50
62.85484988556572
 51
116.14537369418979
  0
ARC
  5
83
100
AcDbEntity
  8
grabado linea medio
 62
256
370
-1
 48
1.0
  6
ByLayer
100
AcDbCircle
 10
30.592732475841348
 20
127.95699694207281
 30
0.0
 40
1.834489684205568
100
AcDbArc
 50
18.806253966049969
 51
68.376155628700616
  0
ARC
  5
84
100
AcDbEntity
  8
grabado linea medio
 62
256
370
-1
 48
1.0
  6
ByLayer
100
AcDbCircle
 10
36.344339043431532
 20
127.91459868429099
 30
0.0
 40
1.834489684205568
100
AcDbArc
 50
110.77914221685309
 51
160.34904387950371
  0
ARC
  5
85
100
AcDbEntity
  8
grabado linea medio
 62
256
370
-1
 48
1.0
  6
ByLayer
100
AcDbCircle
 10
33.55026653390513
 20
126.70795134750109
 30
0.0
 40
2.172028813393577
100
AcDbArc
 50
59.949831945046206
 51
123.85357354890991
  0
LINE
  5
86
100
AcDbEntity
100
AcDbLine
  8
grabado linea medio
 62
256
370
-1
 48
1.0
  6
ByLayer
 10
28.748675056150489
 20
99.758467477492573
 30
0.0
 11
27.346233635467971
 21
87.47043839111592
 31
0.0
  0
LINE
  5
87
100
AcDbEntity
100
AcDbLine
  8
grabado linea medio
 62
256
370
-1
 48
1.0
  6
ByLayer
 10
44.664956061483842
 20
96.216367466297569
 30
0.0
 11
47.408015190941093
 21
87.50266697697451
 31
0.0
  0
LINE
  5
88
100
AcDbEntity
100
AcDbLine
  8
grabado linea medio
 62
256
370
-1
 48
1.0
  6
ByLayer
 10
21.970410881321751
 20
95.519341162444917
 30
0.0
 11
19.493303603812031
 21
87.50266697697451
 31
0.0
  0
LINE
  5
89
100
AcDbEntity
100
AcDbLine
  8
grabado linea medio
 62
256
370
-1
 48
1.0
  6
ByLayer
 10
14.12684215310748
 20
92.780452447803953
 30
0.0
 11
10.37658082560322
 21
87.133069150303101
 31
0.0
  0
LINE
  5
8A
100
AcDbEntity
100
AcDbLine
  8
grabado linea medio
 62
256
370
-1
 48
1.0
  6
ByLayer
 10
52.723263652184741
 20
92.882530013882871
 30
0.0
 11
56.50334404791991
 21
87.255062525283336
 31
0.0
  0
LINE
  5
8B
100
AcDbEntity
100
AcDbLine
  8
grabado linea medio
 62
256
370
-1
 48
1.0
  6
ByLayer
 10
17.501050772040781
 20
55.502666976974517
 30
0.0
 11
13.92590501501811
 21
55.360380255423692
 31
0.0
  0
LINE
  5
8C
100
AcDbEntity
100
AcDbLine
  8
grabado linea medio
 62
256
370
-1
 48
1.0
  6
ByLayer
 10
49.50105077204082
 20
55.502666976974517
 30
0.0
 11
53.122129446843921
 21
55.464044145341042
 31
0.0
  0
ARC
  5
8D
100
AcDbEntity
  8
mesa de trabajo y auxiliares
 62
256
370
-1
 48
1.0
  6
ByLayer
100
AcDbCircle
 10
46.377477435469579
 20
90.785085855456771
 30
0.0
 40
13.490912614771821
100
AcDbArc
 50
182.7934652727634
 51
194.08174082736841
  0
ARC
  5
8E
100
AcDbEntity
  8
mesa de trabajo y auxiliares
 62
256
370
-1
 48
1.0
  6
ByLayer
100
AcDbCircle
 10
20.89078591908472
 20
90.785085855456771
 30
0.0
 40
13.490912614771821
100
AcDbArc
 50
345.91825917263151
 51
357.20653472723649
  0
LINE
  5
8F
100
AcDbEntity
100
AcDbLine
  8
mesa de trabajo y auxiliares
 62
256
370
-1
 48
1.0
  6
ByLayer
 10
31.56831612219948
 20
90.735687202338596
 30
0.0
 11
31.56831612219948
 21
90.735687202338596
 31
0.0
  0
LINE
  5
90
100
AcDbEntity
100
AcDbLine
  8
grabado linea medio
 62
256
370
-1
 48
1.0
  6
ByLayer
 10
33.497962862600133
 20
98.703212595756284
 30
0.0
 11
33.502526867703878
 21
91.065542616827145
 31
0.0
  0
LINE
  5
91
100
AcDbEntity
100
AcDbLine
  8
grabado linea medio
 62
256
370
-1
 48
1.0
  6
ByLayer
 10
49.515955278515719
 20
81.074260554066939
 30
0.0
 11
51.320454122756949
 21
67.6455213695114
 31
0.0
  0
LINE
  5
92
100
AcDbEntity
100
AcDbLine
  8
grabado linea medio
 62
256
370
-1
 48
1.0
  6
ByLayer
 10
17.501050772040799
 20
81.055129564122836
 30
0.0
 11
15.733883108856499
 21
67.784057907962946
 31
0.0
  0
ARC
  5
93
100
AcDbEntity
  8
grabado linea medio
 62
256
370
-1
 48
1.0
  6
ByLayer
100
AcDbCircle
 10
50.19349872030854
 20
82.773383823738826
 30
0.0
 40
6.5999519217955172
100
AcDbArc
 50
269.83510931364782
 51
296.34164939193352
  0
ARC
  5
94
100
AcDbEntity
  8
grabado linea medio
 62
256
370
-1
 48
1.0
  6
ByLayer
100
AcDbCircle
 10
16.79874071962017
 20
82.681225292605646
 30
0.0
 40
6.527869176764745
100
AcDbArc
 50
243.104196744642
 51
270.435506955628
  0
ARC
  5
95
100
AcDbEntity
  8
grabado linea medio
 62
256
370
-1
 48
1.0
  6
ByLayer
100
AcDbCircle
 10
51.504415409065238
 20
71.378457213896411
 30
0.0
 40
0.8054097080603005
100
AcDbArc
 50
220.12748496464869
 51
300.64161522759019
  0
ARC
  5
96
100
AcDbEntity
  8
grabado linea medio
 62
256
370
-1
 48
1.0
  6
ByLayer
100
AcDbCircle
 10
15.339855968749511
 20
72.437120088580116
 30
0.0
 40
1.7878629050875601
100
AcDbArc
 50
263.43126142242289
 51
296.60853358018011
  0
ARC
  5
97
100
AcDbEntity
  8
grabado linea medio
 62
256
370
-1
 48
1.0
  6
ByLayer
100
AcDbCircle
 10
39.901740636772502
 20
39.419183336990962
 30
0.0
 40
20.74499375274911
100
AcDbArc
 50
258.40799010010812
 51
296.52246535808632
  0
ARC
  5
98
100
AcDbEntity
  8
grabado linea medio
 62
256
370
-1
 48
1.0
  6
ByLayer
100
AcDbCircle
 10
27.230977313998611
 20
39.385672440640583
 30
0.0
 40
20.74499375274911
100
AcDbArc
 50
243.12840768262379
 51
281.26301320127891
  0
ARC
  5
99
100
AcDbEntity
  8
grabado linea medio
 62
256
370
-1
 48
1.0
  6
ByLayer
100
AcDbCircle
 10
11.29766239790492
 20
-0.3703024607035358
 30
0.0
 40
3.9386761067441269
100
AcDbArc
 50
20.80096513241606
 51
72.501433187960828
  0
ARC
  5
9A
100
AcDbEntity
  8
grabado linea medio
 62
256
370
-1
 48
1.0
  6
ByLayer
100
AcDbCircle
 10
54.591075027942459
 20
1.1362912967884851
 30
0.0
 40
2.2711334717313352
100
AcDbArc
 50
90.068124994561686
 51
182.58408932707181
  0
ARC
  5
9B
100
AcDbEntity
  8
grabado linea medio
 62
256
370
-1
 48
1.0
  6
ByLayer
100
AcDbCircle
 10
15.250519195494279
 20
0.5610306767866859
 30
0.0
 40
5.274321153681762
100
AcDbArc
 50
4.513064519179375
 51
67.501659858802924
  0
ARC
  5
9C
100
AcDbEntity
  8
grabado linea medio
 62
256
370
-1
 48
1.0
  6
ByLayer
100
AcDbCircle
 10
52.087392021055301
 20
0.6584546910850495
 30
0.0
 40
5.274321153681762
100
AcDbArc
 50
115.36966389776491
 51
176.49374361346938
  0
ARC
  5
9D
100
AcDbEntity
  8
grabado linea medio
 62
256
370
-1
 48
1.0
  6
ByLayer
100
AcDbCircle
 10
26.411871821800169
 20
36.485352976698969
 30
0.0
 40
30.038536715082689
100
AcDbArc
 50
254.20995083598066
 51
278.12041108536232
  0
ARC
  5
9E
100
AcDbEntity
  8
grabado linea medio
 62
256
370
-1
 48
1.0
  6
ByLayer
100
AcDbCircle
 10
40.559530724121217
 20
35.852971921120933
 30
0.0
 40
29.350593816146532
100
AcDbArc
 50
262.34631301018334
 51
286.2567732595648
  0
ARC
  5
9F
100
AcDbEntity
  8
grabado linea medio
 62
256
370
-1
 48
1.0
  6
ByLayer
100
AcDbCircle
 10
27.294329329638881
 20
35.999417916293353
 30
0.0
 40
25.949821632977802
100
AcDbArc
 50
249.11772477772729
 51
277.89214218498847
  0
ARC
  5
A0
100
AcDbEntity
  8
grabado linea medio
 62
256
370
-1
 48
1.0
  6
ByLayer
100
AcDbCircle
 10
39.856300919305447
 20
36.03264108660867
 30
0.0
 40
25.949821632977802
100
AcDbArc
 50
261.77737240369692
 51
290.54434513372053
  0
ARC
  5
A1
100
AcDbEntity
  8
grabado linea medio
 62
256
370
-1
 48
1.0
  6
ByLayer
100
AcDbCircle
 10
26.359400220673471
 20
38.567183459852131
 30
0.0
 40
23.851483705006991
100
AcDbArc
 50
249.34171077880961
 51
281.80140482766672
  0
ARC
  5
A2
100
AcDbEntity
  8
grabado linea medio
 62
256
370
-1
 48
1.0
  6
ByLayer
100
AcDbCircle
 10
40.777634891037223
 20
38.605315966575361
 30
0.0
 40
23.851483705006991
100
AcDbArc
 50
257.87495570404292
 51
290.41315055572937
  0
ARC
  5
A3
100
AcDbEntity
  8
grabado linea medio
 62
256
370
-1
 48
1.0
  6
ByLayer
100
AcDbCircle
 10
6.7090490633764164
 20
64.122504145293803
 30
0.0
 40
9.1254438050716136
100
AcDbArc
 50
234.83774395048607
 51
281.27246725852717
  0
ARC
  5
A4
100
AcDbEntity
  8
grabado linea medio
 62
256
370
-1
 48
1.0
  6
ByLayer
100
AcDbCircle
 10
60.292537655314248
 20
64.264218632933961
 30
0.0
 40
9.1254438050716136
100
AcDbArc
 50
259.03059711147591
 51
305.46532041951718
  0
ARC
  5
A5
100
AcDbEntity
  8
grabado linea medio
 62
256
370
-1
 48
1.0
  6
ByLayer
100
AcDbCircle
 10
-29.296156478116799
 20
51.157904217058359
 30
0.0
 40
33.325181031453532
100
AcDbArc
 50
346.96222874035618
 51
7.519935309276252
  0
ARC
  5
A6
100
AcDbEntity
  8
grabado linea medio
 62
256
370
-1
 48
1.0
  6
ByLayer
100
AcDbCircle
 10
96.760331564930553
 20
51.474854849816062
 30
0.0
 40
33.718523235734523
100
AcDbArc
 50
172.841396599294
 51
193.39910316821383
  0
ARC
  5
A7
100
AcDbEntity
  8
grabado linea medio
 62
256
370
-1
 48
1.0
  6
ByLayer
100
AcDbCircle
 10
37.559106654403017
 20
50.870203851546009
 30
0.0
 40
31.099764682794088
100
AcDbArc
 50
172.3372054663046
 51
193.61539324642837
  0
ARC
  5
A8
100
AcDbEntity
  8
grabado linea medio
 62
256
370
-1
 48
1.0
  6
ByLayer
100
AcDbCircle
 10
29.513008965088051
 20
50.848924001325202
 30
0.0
 40
31.099764682794088
100
AcDbArc
 50
346.4080653905059
 51
7.9658589036983738
  0
ARC
  5
A9
100
AcDbEntity
  8
grabado linea medio
 62
256
370
-1
 48
1.0
  6
ByLayer
100
AcDbCircle
 10
6.8735555822727443
 20
63.121623017991702
 30
0.0
 40
10.799824893765621
100
AcDbArc
 50
242.78186461555697
 51
274.60289897640013
  0
ARC
  5
AA
100
AcDbEntity
  8
grabado linea medio
 62
256
370
-1
 48
1.0
  6
ByLayer
100
AcDbCircle
 10
60.133327544848242
 20
63.262481358757512
 30
0.0
 40
10.799824893765621
100
AcDbArc
 50
265.70016539360319
 51
297.52119975444612
  0
ARC
  5
AB
100
AcDbEntity
  8
grabado linea medio
 62
256
370
-1
 48
1.0
  6
ByLayer
100
AcDbCircle
 10
6.808022570510694
 20
32.988054640540568
 30
0.0
 40
16.42745322333543
100
AcDbArc
 50
78.742208418070206
 51
107.31216690772568
  0
ARC
  5
AC
100
AcDbEntity
  8
grabado linea medio
 62
256
370
-1
 48
1.0
  6
ByLayer
100
AcDbCircle
 10
60.3582495357374
 20
33.129681159768907
 30
0.0
 40
16.42745322333543
100
AcDbArc
 50
72.990897462277275
 51
101.56085595193281
  0
ARC
  5
AD
100
AcDbEntity
  8
grabado linea medio
 62
256
370
-1
 48
1.0
  6
ByLayer
100
AcDbCircle
 10
6.8155191896471772
 20
31.090387656638299
 30
0.0
 40
15.18965299493815
100
AcDbArc
 50
78.894014245299331
 51
110.5628029039988
  0
ARC
  5
AE
100
AcDbEntity
  8
grabado linea medio
 62
256
370
-1
 48
1.0
  6
ByLayer
100
AcDbCircle
 10
60.31298052351957
 20
31.025425020245521
 30
0.0
 40
15.399495054443589
100
AcDbArc
 50
70.315896368675297
 51
101.98468502737478
  0
LWPOLYLINE
  5
AF
  8
Corte exterior
 62
256
370
-1
 48
1.0
  6
ByLayer
100
AcDbEntity
100
AcDbPolyline
 90
72
 70
1
 10
14.273441658009681
 20
92.879754563163289
 30
0.0
 10
20.974608722684138
 20
94.851737215315396
 30
0.0
 42
0.2561625457618229
 10
22.33126786723999
 20
96.214755337872603
 30
0.0
 10
24.396310636728451
 20
102.266361507116
 30
0.0
 42
-0.1082920915388551
 10
12.721647832089181
 20
113.9094235532811
 30
0.0
 42
-0.2431577045580831
 10
9.0158720544924122
 20
148.56138880015351
 30
0.0
 42
-0.1541164998640178
 10
12.78510039764328
 20
153.2574512804751
 30
0.0
 42
-0.1179638742748752
 10
26.164371158444592
 20
158.1986721714685
 30
0.0
 42
-0.1096992192057918
 10
41.225234653009942
 20
158.14901559822789
 30
0.0
 42
-0.1179638742748752
 10
54.202841391551068
 20
153.26048191032959
 30
0.0
 42
-0.1541164998640179
 10
57.972756937377767
 20
148.5649710862306
 30
0.0
 42
-0.2431577045580819
 10
54.272052324895057
 20
113.91246389042411
 30
0.0
 42
-0.1082924568736381
 10
42.599046666762902
 20
102.2676635020506
 30
0.0
 10
44.664956061483842
 20
96.216367466297569
 30
0.0
 42
0.2561625457618236
 10
46.021811967304991
 20
94.853545215318064
 30
0.0
 10
52.723263652184741
 20
92.882530013882871
 30
0.0
 42
0.1773802194741056
 10
54.096108640584681
 20
92.971969406758305
 30
0.0
 42
-0.5863759966207766
 10
63.59835458346992
 20
85.830178482604779
 30
0.0
 42
-0.0853978006579004
 10
64.313060833698202
 20
68.28700040817958
 30
0.0
 42
-0.1469757791117426
 10
64.589440104859776
 20
51.571093706417592
 30
0.0
 42
-0.019436022045181
 10
65.523173838593493
 20
45.316896652220493
 30
0.0
 42
-0.3663078514478518
 10
63.855792171211853
 20
43.649514984838838
 30
0.0
 42
-0.1694655833427369
 10
57.262055577475259
 20
44.33162566694952
 30
0.0
 42
-0.374533510634764
 10
57.262055577475259
 20
45.999007334331189
 30
0.0
 42
-0.2360679774997947
 10
56.276784592204272
 20
47.439018774342642
 30
0.0
 42
-0.141084625579952
 10
58.474696790116482
 20
50.925362260686143
 30
0.0
 42
0.0990195135927806
 10
59.308387623807313
 20
52.213793549117419
 30
0.0
 42
-0.1042362203540725
 10
57.863064815284517
 20
66.765856743740642
 30
0.0
 42
-0.0943667862522339
 10
54.87739294640096
 20
79.11655752920818
 30
0.0
 42
-0.0944589974463653
 10
51.293239085772761
 20
48.655811457591902
 30
0.0
 42
-0.1127293038878314
 10
49.55278309084936
 20
25.432066814726731
 30
0.0
 42
-0.1699316065209347
 10
49.152654982106377
 20
20.882924157721739
 30
0.0
 42
-0.0145352396529699
 10
48.662747197471461
 20
5.7114967161653531
 30
0.0
 42
-0.1064094429420522
 10
56.133330232943209
 20
2.3478410696110421
 30
0.0
 42
-0.3995468896111669
 10
56.253637459904397
 20
1.6693353288267441
 30
0.0
 42
-0.2607786779127082
 10
55.071933386713113
 20
1.060334598725025
 30
0.0
 10
45.501050772040813
 20
0.9683089175336302
 30
0.0
 10
45.501050772040813
 20
4.968308917533629
 30
0.0
 10
42.501050772040813
 20
4.968308917533629
 30
0.0
 10
42.501050772040799
 20
0.9683089175336295
 30
0.0
 10
38.669639856351843
 20
0.9683089175336302
 30
0.0
 42
-0.3425204418230419
 10
37.700928688443
 20
1.72011811760607
 30
0.0
 42
-0.0942683663187226
 10
36.302724330536812
 20
26.80058147771339
 30
0.0
 42
-0.0133490154819751
 10
35.207925620497242
 20
48.470698339645821
 30
0.0
 42
0.7183073256026316
 10
31.794366060709539
 20
48.435616506881402
 30
0.0
 42
-0.0143712066344572
 10
30.70350676841127
 20
26.799983326613528
 30
0.0
 42
-0.0942683663187228
 10
29.308524986840169
 20
1.7195123227887481
 30
0.0
 42
-0.3425204418230419
 10
28.33992236577707
 20
0.9675632802236394
 30
0.0
 10
24.501050959696141
 20
0.9670090722762683
 30
0.0
 10
24.50105077204077
 20
4.9683089175336574
 30
0.0
 10
21.501050772040792
 20
4.968308917533637
 30
0.0
 10
21.50103504046681
 20
0.9666478552780148
 30
0.0
 10
11.93761572083403
 20
1.057221003738245
 30
0.0
 42
-0.2607786779127085
 10
10.755823740096
 20
1.666051127931186
 30
0.0
 42
-0.3995468896111668
 10
10.876033011683569
 20
2.344574230088158
 30
0.0
 42
-0.0992296569385348
 10
18.346303965501381
 20
5.7117687145524574
 30
0.0
 42
-0.014535239652964
 10
17.8544001221054
 20
20.880763533891919
 30
0.0
 42
-0.1699316065209352
 10
17.453659835321169
 20
25.429749780989859
 30
0.0
 42
-0.1127293038878307
 10
15.73932853620135
 20
48.715587726169211
 30
0.0
 42
-0.0944589974463657
 10
11.826043717607449
 20
75.788093920762932
 30
0.0
 42
-0.0943667862522336
 10
9.1374109450811751
 20
66.762339545374445
 30
0.0
 42
-0.1042362203540726
 10
7.694188995367055
 20
52.210067844880207
 30
0.0
 42
0.0990195135927812
 10
8.5280658278645944
 20
50.921756927666252
 30
0.0
 42
-0.1410846255799516
 10
10.726481317269499
 20
47.435730784556341
 30
0.0
 42
-0.2360679774997946
 10
9.7414182329952261
 20
45.995577118525993
 30
0.0
 42
-0.3745335106347638
 10
9.7416589485764611
 20
44.328195468520079
 30
0.0
 42
-0.1694655833427363
 10
3.1480208981089781
 20
43.64513287281013
 30
0.0
 42
-0.3663078514478521
 10
1.4803985325218241
 20
45.312273807234838
 30
0.0
 42
-0.0194360220451812
 10
2.413229354263279
 20
51.566605596982598
 30
0.0
 42
-0.1469757791117422
 10
2.6871953903040322
 20
68.282552024709403
 30
0.0
 42
-0.0853978006579011
 10
3.3993689698141321
 20
85.825833096611547
 30
0.0
 42
-0.5863759966207776
 10
12.900583771782159
 20
92.968995761024402
 30
0.0
 42
0.1773802194741052
  0
LWPOLYLINE
  5
B0
  8
Corte exterior
 62
256
370
-1
 48
1.0
  6
ByLayer
100
AcDbEntity
100
AcDbPolyline
 90
21
 70
1
 10
65.999997389803141
 20
159.0000157033659
 30
0.0
 10
65.9999729059667
 20
48.315306403540099
 30
0.0
 10
65.999976674943213
 20
34.737702804303339
 30
0.0
 10
77.79997732436928
 20
34.73770280430336
 30
0.0
 10
77.799977324369252
 20
11.537701804303341
 30
0.0
 10
65.999976324369243
 20
11.53770180430346
 30
0.0
 10
65.999976324369243
 20
4.4529632176163361
 30
0.0
 10
93.807334904750505
 20
4.4388902553167426
 30
0.0
 10
93.807334904750647
 20
0.9453569073857366
 30
0.0
 10
102.00733490475061
 20
0.9453569073857366
 30
0.0
 10
102.00733490475061
 20
4.4453569073857331
 30
0.0
 10
112.8073349047506
 20
4.4453569073857331
 30
0.0
 10
112.8073349047506
 20
0.9453569073857369
 30
0.0
 10
121.00733490475061
 20
0.9453569073857366
 30
0.0
 10
121.00733490475061
 20
4.4453569073857331
 30
0.0
 10
148.9073484517674
 20
4.4377037056156601
 30
0.0
 10
148.9073484517674
 20
11.53770170561563
 30
0.0
 10
137.10734845176731
 20
11.53770170561563
 30
0.0
 10
137.10734845176739
 20
34.737702705615611
 30
0.0
 10
148.9073484517674
 20
34.737702705615611
 30
0.0
 10
149.0
 20
159.0
 30
0.0
  0
LWPOLYLINE
  5
B1
  8
grabado linea medio
 62
256
370
-1
 48
1.0
  6
ByLayer
100
AcDbEntity
100
AcDbPolyline
 90
3
 70
0
 10
33.524220508512109
 20
54.762150011253681
 30
0.0
 42
0.1406826288049128
 10
43.35589973097904
 20
55.502666976974488
 30
0.0
 10
43.734851499200992
 20
52.331319783179993
 30
0.0
  0
LWPOLYLINE
  5
B2
  8
grabado linea medio
 62
256
370
-1
 48
1.0
  6
ByLayer
100
AcDbEntity
100
AcDbPolyline
 90
3
 70
0
 10
23.32962201968288
 20
52.277353221523448
 30
0.0
 10
23.69179381555108
 20
55.4506604957257
 30
0.0
 42
0.0801893653467092
 10
33.527251177899679
 20
54.762423895122211
 30
0.0
  0
LWPOLYLINE
  5
B3
  8
grabado linea medio
 62
256
370
-1
 48
1.0
  6
ByLayer
100
AcDbEntity
100
AcDbPolyline
 90
4
 70
0
 10
21.16664293661584
 20
19.527821110801209
 30
0.0
 10
20.846518746730158
 20
7.0332916641066028
 30
0.0
 42
-0.3370633872094675
 10
19.268758581228809
 20
3.977493155887935
 30
0.0
 10
14.00131924430765
 20
2.4938569501423
 30
0.0
  0
LWPOLYLINE
  5
B4
  8
grabado linea medio
 62
256
370
-1
 48
1.0
  6
ByLayer
100
AcDbEntity
100
AcDbPolyline
 90
3
 70
0
 10
39.901740636772502
 20
18.674189584241851
 30
0.0
 10
40.559530724121217
 20
6.5023781049744027
 30
0.0
 42
0.2432502711408665
 10
42.501050772040799
 20
2.968308917533625
 30
0.0
  0
LWPOLYLINE
  5
B5
  8
grabado linea medio
 62
256
370
-1
 48
1.0
  6
ByLayer
100
AcDbEntity
100
AcDbPolyline
 90
3
 70
0
 10
24.47762673573914
 20
2.70882519464574
 30
0.0
 42
0.2679505581573866
 10
26.7473081067659
 20
6.4658483436090011
 30
0.0
 10
27.340706847285951
 20
18.640968894165798
 30
0.0
  0
LWPOLYLINE
  5
B6
  8
grabado linea medio
 62
256
370
-1
 48
1.0
  6
ByLayer
100
AcDbEntity
100
AcDbPolyline
 90
4
 70
0
 10
46.071027219809132
 20
19.593686774859808
 30
0.0
 10
46.457236075668789
 20
7.1010253966376391
 30
0.0
 42
0.3370633872094673
 10
48.051137652067567
 20
4.053615114541091
 30
0.0
 10
52.948405350989781
 20
2.7046291362984061
 30
0.0
  0
LWPOLYLINE
  5
B7
  8
grabado linea medio
 62
256
370
-1
 48
1.0
  6
ByLayer
100
AcDbEntity
100
AcDbPolyline
 90
3
 70
0
 10
12.36041569598485
 20
83.998660788043864
 30
0.0
 42
0.0446823844843972
 10
13.7845954127156
 20
83.73975202757039
 30
0.0
 42
0.1064724969208131
 10
17.50105077204082
 20
82.697608937593728
 30
0.0
  0
LWPOLYLINE
  5
B8
  8
grabado linea medio
 62
256
370
-1
 48
1.0
  6
ByLayer
100
AcDbEntity
100
AcDbPolyline
 90
3
 70
0
 10
49.513992302480567
 20
82.716738754531875
 30
0.0
 42
0.1042367020451499
 10
53.157377519982397
 20
83.725720291811243
 30
0.0
 42
0.0427587788135315
 10
54.566992280732471
 20
83.982439683218274
 30
0.0
  0
LWPOLYLINE
  5
B9
  8
grabado linea medio
 62
256
370
-1
 48
1.0
  6
ByLayer
100
AcDbEntity
100
AcDbPolyline
 90
3
 70
0
 10
3.704815168502646
 20
89.277284787299365
 30
0.0
 42
0.1889061805020966
 10
5.0440824482721851
 20
87.700385472581857
 30
0.0
 42
0.0418919725251893
 10
5.2659554045503549
 20
87.502962936459696
 30
0.0
  0
LWPOLYLINE
  5
BA
  8
grabado linea medio
 62
256
370
-1
 48
1.0
  6
ByLayer
100
AcDbEntity
100
AcDbPolyline
 90
3
 70
0
 10
61.778697016738043
 20
87.563996885363011
 30
0.0
 42
0.0323240740483942
 10
61.948908276658223
 20
87.717674051628421
 30
0.0
 42
0.1732440809918785
 10
63.225735727412022
 20
89.135204840463715
 30
0.0
  0
LWPOLYLINE
  5
BB
  8
grabado linea medio
 62
256
370
-1
 48
1.0
  6
ByLayer
100
AcDbEntity
100
AcDbPolyline
 90
7
 70
0
 10
19.296477359238441
 20
94.407553343013291
 30
0.0
 42
0.065129015020565
 10
21.382858231516401
 20
93.617841698507803
 30
0.0
 42
0.1150616018474195
 10
28.0474543458092
 20
93.614452934304154
 30
0.0
 42
0.0570756810657537
 10
33.50120596837214
 20
93.276011917781133
 30
0.0
 42
0.0570756810657533
 10
38.954549215098581
 20
93.620970633653201
 30
0.0
 42
0.1150616018474195
 10
45.6191365197379
 20
93.6323244528174
 30
0.0
 42
0.0624880813363517
 10
47.624652939192323
 20
94.382121400057073
 30
0.0
  0
LWPOLYLINE
  5
BC
  8
grabado linea medio
 62
256
370
-1
 48
1.0
  6
ByLayer
100
AcDbEntity
100
AcDbPolyline
 90
7
 70
0
 10
6.0556868076133981
 20
92.183056578124067
 30
0.0
 42
0.4205919830645252
 10
8.4070250840594092
 20
91.590002222738647
 30
0.0
 42
0.3332960957174078
 10
12.251711489355349
 20
89.956760799053555
 30
0.0
 42
0.3171276870697804
 10
15.796419572928119
 20
89.219190577723012
 30
0.0
 42
0.2343814550137254
 10
19.877703223786281
 20
88.746701314256185
 30
0.0
 42
0.0968916793892458
 10
27.46649768874525
 20
88.524178078865447
 30
0.0
 42
0.0482718116512804
 10
33.141115925317202
 20
88.176742098977144
 30
0.0
  0
LWPOLYLINE
  5
BD
  8
grabado linea medio
 62
256
370
-1
 48
1.0
  6
ByLayer
100
AcDbEntity
100
AcDbPolyline
 90
7
 70
0
 10
33.867390043549989
 20
88.177176095050754
 30
0.0
 42
0.0482718116512808
 10
39.541588996400947
 20
88.531393732135129
 30
0.0
 42
0.0968916793892443
 10
47.130112097538252
 20
88.762986402971976
 30
0.0
 42
0.2343814550137251
 10
51.210828147678768
 20
89.240352992690845
 30
0.0
 42
0.3171276870697808
 10
54.7546522075883
 20
89.982159073513785
 30
0.0
 42
0.3332960957174073
 10
58.597383931646611
 20
91.619994230061721
 30
0.0
 42
0.420591983064525
 10
60.948011751912837
 20
92.215858316336551
 30
0.0
  0
LINE
  5
BE
100
AcDbEntity
100
AcDbLine
  8
grabado linea medio
 62
256
370
-1
 48
1.0
  6
ByLayer
 10
33.526423182455297
 20
51.076068101523333
 30
0.0
 11
52.591143486308951
 21
53.230489270286341
 31
0.0
  0
LINE
  5
BF
100
AcDbEntity
100
AcDbLine
  8
grabado linea medio
 62
256
370
-1
 48
1.0
  6
ByLayer
 10
33.54454711501738
 20
51.07611603464386
 30
0.0
 11
33.523778001409823
 21
55.502666976974517
 31
0.0
  0
LINE
  5
C0
100
AcDbEntity
100
AcDbLine
  8
grabado linea medio
 62
256
370
-1
 48
1.0
  6
ByLayer
 10
14.468697816349151
 20
53.129665247855733
 30
0.0
 11
33.54454711501738
 21
51.07611603464386
 31
0.0
  0
LWPOLYLINE
  5
C1
  8
mesa de trabajo y auxiliares
 62
256
370
-1
 48
1.0
  6
ByLayer
100
AcDbEntity
100
AcDbPolyline
 90
5
 70
1
 10
32.902596041346499
 20
90.127594719603863
 30
0.0
 10
34.365667313207801
 20
90.127594719603863
 30
0.0
 42
0.6582224702299749
 10
34.70169538224372
 20
90.684002457406365
 30
0.0
 42
0.2397847162648939
 10
33.634131677277161
 20
91.054514452500797
 30
0.0
 42
0.2397847162648939
 10
32.56656797231058
 20
90.684002457406365
 30
0.0
 42
0.6582224702299752
  0
LWPOLYLINE
  5
C2
  8
mesa de trabajo y auxiliares
 62
256
370
-1
 48
1.0
  6
ByLayer
100
AcDbEntity
100
AcDbPolyline
 90
4
 70
0
 10
35.373922688993808
 20
87.502666976974481
 30
0.0
 42
0.0143434656941566
 10
35.389757587075962
 20
87.950466969243621
 30
0.0
 10
35.097042703311061
 20
88.747301930603697
 30
0.0
 10
34.303548253177233
 20
89.335075597369467
 30
0.0
  0
LWPOLYLINE
  5
C3
  8
mesa de trabajo y auxiliares
 62
256
370
-1
 48
1.0
  6
ByLayer
100
AcDbEntity
100
AcDbPolyline
 90
4
 70
0
 10
32.96471510137706
 20
89.335075597369467
 30
0.0
 10
32.171220651243232
 20
88.747301930603697
 30
0.0
 10
31.87850576747833
 20
87.950466969243621
 30
0.0
 42
0.0143434656941569
 10
31.89434066556046
 20
87.502666976974481
 30
0.0
  0
LWPOLYLINE
  5
C4
  8
mesa de trabajo y auxiliares
 62
256
370
-1
 48
1.0
  6
ByLayer
100
AcDbEntity
100
AcDbPolyline
 90
4
 70
0
 10
36.982461373723417
 20
87.502666976974652
 30
0.0
 42
0.0396347039819073
 10
36.88017070835415
 20
88.834138413658366
 30
0.0
 10
35.552112439420767
 20
89.660786927994423
 30
0.0
 10
34.344993091777802
 20
89.790584707310884
 30
0.0
  0
LWPOLYLINE
  5
C5
  8
mesa de trabajo y auxiliares
 62
256
370
-1
 48
1.0
  6
ByLayer
100
AcDbEntity
100
AcDbPolyline
 90
4
 70
0
 10
32.923270262776491
 20
89.790584707310884
 30
0.0
 10
31.716150915133522
 20
89.660786927994423
 30
0.0
 10
30.38809264620015
 20
88.834138413658366
 30
0.0
 42
0.0396347039819074
 10
30.285801980830868
 20
87.502666976974652
 30
0.0
  0
LWPOLYLINE
  5
C6
  8
mesa de trabajo y auxiliares
 62
256
370
-1
 48
1.0
  6
ByLayer
100
AcDbEntity
100
AcDbPolyline
 90
4
 70
0
 10
36.794299921480572
 20
93.088103924420153
 30
0.0
 42
-0.2673824519786377
 10
36.753835015948908
 20
89.810446576355645
 30
0.0
 10
35.3487879624169
 20
90.172871834927946
 30
0.0
 10
34.644743736805452
 20
90.209952566061077
 30
0.0
  0
LWPOLYLINE
  5
C7
  8
mesa de trabajo y auxiliares
 62
256
370
-1
 48
1.0
  6
ByLayer
100
AcDbEntity
100
AcDbPolyline
 90
4
 70
0
 10
30.473963433073731
 20
93.088103924420153
 30
0.0
 42
0.2673824519786375
 10
30.514428338605391
 20
89.810446576355645
 30
0.0
 10
31.919475392137389
 20
90.172871834927946
 30
0.0
 10
32.62351961774884
 20
90.209952566061077
 30
0.0
  0
LWPOLYLINE
  5
C8
  8
mesa de trabajo y auxiliares
 62
256
370
-1
 48
1.0
  6
ByLayer
100
AcDbEntity
100
AcDbPolyline
 90
5
 70
0
 10
34.767751726246473
 20
90.478130370281718
 30
0.0
 10
35.292849351944938
 20
90.745537630748956
 30
0.0
 10
35.292849351944938
 20
90.745537630748956
 30
0.0
 10
36.577542452913129
 20
90.582918250879544
 30
0.0
 42
0.1956142328325498
 10
36.268565631161302
 20
92.827065693077131
 30
0.0
  0
LWPOLYLINE
  5
C9
  8
mesa de trabajo y auxiliares
 62
256
370
-1
 48
1.0
  6
ByLayer
100
AcDbEntity
100
AcDbPolyline
 90
5
 70
0
 10
30.99969772339302
 20
92.827065693077131
 30
0.0
 42
0.1956142328325501
 10
30.690720901641161
 20
90.582918250879544
 30
0.0
 10
31.975414002609359
 20
90.745537630748956
 30
0.0
 10
31.975414002609359
 20
90.745537630748956
 30
0.0
 10
32.500511628307812
 20
90.478130370281718
 30
0.0
  0
LWPOLYLINE
  5
CA
  8
grabado linea medio
 62
256
370
-1
 48
1.0
  6
ByLayer
100
AcDbEntity
100
AcDbPolyline
 90
3
 70
0
 10
63.59835458346992
 20
85.830178482604779
 30
0.0
 42
0.6458414548498538
 10
54.649435646238537
 20
84.669699614581234
 30
0.0
 10
49.686608608948568
 20
59.290149897551132
 30
0.0
  0
LWPOLYLINE
  5
CB
  8
grabado linea medio
 62
256
370
-1
 48
1.0
  6
ByLayer
100
AcDbEntity
100
AcDbPolyline
 90
3
 70
0
 10
3.2892063915363918
 20
85.670676362443899
 30
0.0
 42
-0.6458414548498529
 10
12.24413843118861
 20
84.557548556000114
 30
0.0
 10
17.501050772040792
 20
59.290149897551132
 30
0.0
  0
LWPOLYLINE
  5
CC
  8
grabado linea medio
 62
256
370
-1
 48
1.0
  6
ByLayer
100
AcDbEntity
100
AcDbPolyline
 90
5
 70
0
 10
30.203501221289532
 20
121.45220512229881
 30
0.0
 10
24.396310636728408
 20
102.266361507116
 30
0.0
 42
0.033603239705699
 10
28.931042277170821
 20
99.782437692366244
 30
0.0
 42
0.2363907836705845
 10
38.064725460439078
 20
99.783106024637704
 30
0.0
 10
39.532144133727037
 20
87.50266697697451
 30
0.0
  0
LWPOLYLINE
  5
CD
  8
grabado linea medio
 62
256
370
-1
 48
1.0
  6
ByLayer
100
AcDbEntity
100
AcDbPolyline
 90
6
 70
0
 10
51.572593304991038
 20
125.44503856632269
 30
0.0
 42
0.0669682760990437
 10
49.644889331096671
 20
118.01905956437309
 30
0.0
 42
0.4466050274035342
 10
39.69769374100462
 20
111.8598673861616
 30
0.0
 42
0.3606380427243759
 10
27.663734508959159
 20
113.06130314443639
 30
0.0
 42
0.3300957016636699
 10
17.792523999287049
 20
118.40873594530071
 30
0.0
 42
0.0559666314185483
 10
16.408205904208611
 20
124.67808690375431
 30
0.0
  0
LWPOLYLINE
  5
CE
  8
grabado linea medio
 62
256
370
-1
 48
1.0
  6
ByLayer
100
AcDbEntity
100
AcDbPolyline
 90
6
 70
0
 10
60.335416684593781
 20
130.7887900689179
 30
0.0
 42
0.2478611588493885
 10
54.272052324895107
 20
113.91246389042421
 30
0.0
 42
0.2791670701785166
 10
41.411593053335451
 20
106.279922197372
 30
0.0
 42
0.2548525669441601
 10
25.59495529493736
 20
106.2264535047352
 30
0.0
 42
0.2786273373727642
 10
12.87733138882785
 20
114.04755923890529
 30
0.0
 42
0.255328291917381
 10
6.5995079452970282
 20
131.3515500672342
 30
0.0
  0
LWPOLYLINE
  5
CF
  8
grabado linea medio
 62
256
370
-1
 48
1.0
  6
ByLayer
100
AcDbEntity
100
AcDbPolyline
 90
5
 70
0
 10
26.15809212732513
 20
158.26008379897019
 30
0.0
 42
0.0804157748739206
 10
33.69752654938376
 20
158.99992636780769
 30
0.0
 42
0.0804157748739208
 10
41.225234653009892
 20
158.149015598228
 30
0.0
 10
33.50105077204082
 20
132.34667622201269
 30
0.0
 10
26.164371158444599
 20
158.19867217146859
 30
0.0
  0
LWPOLYLINE
  5
D0
  8
grabado linea medio
 62
256
370
-1
 48
1.0
  6
ByLayer
100
AcDbEntity
100
AcDbPolyline
 90
3
 70
0
 10
41.22523465300992
 20
158.149015598228
 30
0.0
 42
0.1786866080651321
 10
54.202841391551154
 20
153.26048191032959
 30
0.0
 42
0.1786621889202751
 10
59.441615874198838
 20
143.94684543321719
 30
0.0
  0
LWPOLYLINE
  5
D1
  8
grabado linea medio
 62
256
370
-1
 48
1.0
  6
ByLayer
100
AcDbEntity
100
AcDbPolyline
 90
3
 70
0
 10
7.6142016902052569
 20
144.1845913036087
 30
0.0
 42
0.2060201536780823
 10
13.16440081746449
 20
153.50661849752831
 30
0.0
 42
0.1779258303894429
 10
26.18700651485544
 20
158.21576900963109
 30
0.0
  0
LWPOLYLINE
  5
D2
  8
grabado linea medio
 62
256
370
-1
 48
1.0
  6
ByLayer
100
AcDbEntity
100
AcDbPolyline
 90
4
 70
0
 10
33.546028990885077
 20
138.44827171729881
 30
0.0
 42
0.3843483128315319
 10
35.20034789126786
 20
138.02311293649171
 30
0.0
 42
0.2648399663384095
 10
37.317909801558663
 20
136.20262518556771
 30
0.0
 42
0.1965771123460675
 10
37.455404844041126
 20
134.17011901623101
 30
0.0
  0
LWPOLYLINE
  5
D3
  8
grabado linea medio
 62
256
370
-1
 48
1.0
  6
ByLayer
100
AcDbEntity
100
AcDbPolyline
 90
4
 70
0
 10
29.57400817450668
 20
134.22821712912341
 30
0.0
 42
0.196577112346068
 10
29.741452090074009
 20
136.25847542555721
 30
0.0
 42
0.2648399663384101
 10
31.885622053369399
 20
138.04754760511861
 30
0.0
 42
0.3587625104869561
 10
33.54602899104794
 20
138.44827171751521
 30
0.0
  0
LWPOLYLINE
  5
D4
  8
grabado linea medio
 62
256
370
-1
 48
1.0
  6
ByLayer
100
AcDbEntity
100
AcDbPolyline
 90
4
 70
0
 10
41.7960645036176
 20
121.53172159305571
 30
0.0
 42
0.2138163160083855
 10
37.909647100301839
 20
118.10894036827111
 30
0.0
 42
0.2416196106146996
 10
29.265565600767118
 20
118.3534457696621
 30
0.0
 42
0.1701524580397235
 10
26.411264705714711
 20
121.4186173730815
 30
0.0
  0
LWPOLYLINE
  5
D5
  8
grabado linea medio
 62
256
370
-1
 48
1.0
  6
ByLayer
100
AcDbEntity
100
AcDbPolyline
 90
3
 70
0
 10
22.68482688423595
 20
121.9552197412459
 30
0.0
 42
0.0431051266994946
 10
21.60716663322577
 20
121.7934111588325
 30
0.0
 42
0.0022137126612962
 10
21.515683810631899
 20
122.2448746599878
 30
0.0
  0
LWPOLYLINE
  5
D6
  8
grabado linea medio
 62
256
370
-1
 48
1.0
  6
ByLayer
100
AcDbEntity
100
AcDbPolyline
 90
4
 70
0
 10
33.60174028652942
 20
146.0058806950388
 30
0.0
 42
0.200802035167324
 10
37.505854549001583
 20
145.72456931475509
 30
0.0
 42
0.2510672984055683
 10
43.851946081795852
 20
142.80357906617121
 30
0.0
 42
0.0601410690161925
 10
43.968872095334937
 20
140.59536809301039
 30
0.0
  0
LWPOLYLINE
  5
D7
  8
grabado linea medio
 62
256
370
-1
 48
1.0
  6
ByLayer
100
AcDbEntity
100
AcDbPolyline
 90
4
 70
0
 10
23.118136940952841
 20
140.56040170693521
 30
0.0
 42
0.0653688087918223
 10
23.305439127781451
 20
142.95503867804061
 30
0.0
 42
0.2510672984055685
 10
29.69390312170167
 20
145.7821555085431
 30
0.0
 42
0.2008020351673236
 10
33.601740286687388
 20
146.0058806950376
 30
0.0
  0
LWPOLYLINE
  5
D8
  8
grabado linea medio
 62
256
370
-1
 48
1.0
  6
ByLayer
100
AcDbEntity
100
AcDbPolyline
 90
7
 70
0
 10
14.95341831136176
 20
143.30347890090809
 30
0.0
 42
0.0822176015572312
 10
17.127503066331489
 20
149.3830772552904
 30
0.0
 42
0.2406820172668761
 10
27.68426355409968
 20
152.8742026948957
 30
0.0
 42
0.2832475980769984
 10
33.656431649041323
 20
153.42512893803999
 30
0.0
 42
0.2832475980769988
 10
39.619828807199937
 20
152.7862190738976
 30
0.0
 42
0.2406820172668755
 10
50.123974836088678
 20
149.1398421001133
 30
0.0
 42
0.0782285369462082
 10
52.06215128590987
 20
143.30610261377359
 30
0.0
  0
LWPOLYLINE
  5
D9
  8
grabado linea medio
 62
256
370
-1
 48
1.0
  6
ByLayer
100
AcDbEntity
100
AcDbPolyline
 90
3
 70
0
 10
57.930882142510562
 20
136.4420646520733
 30
0.0
 42
0.0390346050309037
 10
60.549987484857901
 20
134.81859374781919
 30
0.0
 10
57.498960077869377
 20
134.53976991828469
 30
0.0
  0
LWPOLYLINE
  5
DA
  8
grabado linea medio
 62
256
370
-1
 48
1.0
  6
ByLayer
100
AcDbEntity
100
AcDbPolyline
 90
3
 70
0
 10
36.687125011364522
 20
132.63784155815509
 30
0.0
 10
33.501050772051691
 20
132.3466762220236
 30
0.0
 10
30.303125417187481
 20
132.6389892225998
 30
0.0
  0
LWPOLYLINE
  5
DB
  8
mesa de trabajo y auxiliares
 62
256
370
-1
 48
1.0
  6
ByLayer
100
AcDbEntity
100
AcDbPolyline
 90
3
 70
0
 10
77.799977324369252
 20
11.537701804303341
 30
0.0
 10
77.799977324369252
 20
6.837701804303383
 30
0.0
 10
65.999976324369243
 20
6.837701804303526
 30
0.0
  0
LWPOLYLINE
  5
DC
  8
grabado linea medio
 62
256
370
-1
 48
1.0
  6
ByLayer
100
AcDbEntity
100
AcDbPolyline
 90
3
 70
0
 10
35.850664747058779
 20
130.26139965012621
 30
0.0
 10
33.501050772040401
 20
132.34667622201371
 30
0.0
 10
31.142541668885819
 20
130.2540064575345
 30
0.0
  0
LWPOLYLINE
  5
DD
  8
mesa de trabajo y auxiliares
 62
256
370
-1
 48
1.0
  6
ByLayer
100
AcDbEntity
100
AcDbPolyline
 90
3
 70
0
 10
77.79997732436928
 20
34.73770280430336
 30
0.0
 10
77.79997732436928
 20
39.437702804303441
 30
0.0
 10
65.999976324369271
 20
39.437702804303441
 30
0.0
  0
LWPOLYLINE
  5
DE
  8
mesa de trabajo y auxiliares
 62
256
370
-1
 48
1.0
  6
ByLayer
100
AcDbEntity
100
AcDbPolyline
 90
3
 70
0
 10
137.10734845176739
 20
34.737702705615611
 30
0.0
 10
137.10734845176731
 20
39.437702705615671
 30
0.0
 10
148.9073484517674
 20
39.437702705615671
 30
0.0
  0
LWPOLYLINE
  5
DF
  8
mesa de trabajo y auxiliares
 62
256
370
-1
 48
1.0
  6
ByLayer
100
AcDbEntity
100
AcDbPolyline
 90
3
 70
0
 10
137.10734845176731
 20
11.53770170561563
 30
0.0
 10
137.10734845176731
 20
6.8377017056156433
 30
0.0
 10
148.9073484517674
 20
6.8377017056156433
 30
0.0
  0
LWPOLYLINE
  5
E0
  8
grabado linea medio
 62
256
370
-1
 48
1.0
  6
ByLayer
100
AcDbEntity
100
AcDbPolyline
 90
3
 70
0
 10
38.064725460440037
 20
99.783106024638144
 30
0.0
 42
0.0336028781978727
 10
42.599046666762767
 20
102.2676635020506
 30
0.0
 10
36.796340815246488
 20
121.4520712702727
 30
0.0
  0
LWPOLYLINE
  5
E1
  8
grabado linea medio
 62
256
370
-1
 48
1.0
  6
ByLayer
100
AcDbEntity
100
AcDbPolyline
 90
3
 70
0
 10
35.282347682840779
 20
126.4575053476816
 30
0.0
 10
33.501050772041651
 20
132.34667622200999
 30
0.0
 10
31.710386436821281
 20
126.4306647871298
 30
0.0
  0
LWPOLYLINE
  5
E2
  8
grabado linea medio
 62
256
370
-1
 48
1.0
  6
ByLayer
100
AcDbEntity
100
AcDbPolyline
 90
3
 70
0
 10
13.164400817464481
 20
153.50661849752839
 30
0.0
 10
33.501050772040827
 20
132.34667622201269
 30
0.0
 10
54.202841391551111
 20
153.26048191032959
 30
0.0
  0
LWPOLYLINE
  5
E3
  8
grabado linea medio
 62
256
370
-1
 48
1.0
  6
ByLayer
100
AcDbEntity
100
AcDbPolyline
 90
5
 70
0
 10
31.1451020390647
 20
121.5461990762735
 30
0.0
 42
0.428238248249763
 10
18.52358667560198
 20
142.2785338092751
 30
0.0
 42
-0.0764120660480686
 10
9.8407491367414899
 20
145.63702130820809
 30
0.0
 42
0.3871254376229932
 10
19.423387173342469
 20
122.9178296021075
 30
0.0
 42
0.1200624986066961
 10
31.133976450549341
 20
121.5491869403666
 30
0.0
  0
LWPOLYLINE
  5
E4
  8
grabado linea medio
 62
256
370
-1
 48
1.0
  6
ByLayer
100
AcDbEntity
100
AcDbPolyline
 90
5
 70
0
 10
35.858605866048613
 20
121.5495326521948
 30
0.0
 42
0.1200624986066967
 10
47.568994724492597
 20
122.9198890799174
 30
0.0
 42
0.3871254376229922
 10
57.1483078291364
 20
145.64048290935489
 30
0.0
 42
-0.0764120660480686
 10
48.465961879516207
 20
142.28072476064119
 30
0.0
 42
0.4282382482497625
 10
35.847480714909921
 20
121.5465431599648
 30
0.0
  0
LWPOLYLINE
  5
E5
  8
Corte exterior
 62
256
370
-1
 48
1.0
  6
ByLayer
100
AcDbEntity
100
AcDbPolyline
 90
4
 70
1
 10
28.101257456827842
 20
25.899999999999999
 30
0.0
 10
19.901257456827839
 20
25.899999999999999
 30
0.0
 10
19.901257456827839
 20
28.899999999999999
 30
0.0
 10
28.101257456827842
 20
28.899999999999999
 30
0.0
  0
LWPOLYLINE
  5
E6
  8
Corte exterior
 62
256
370
-1
 48
1.0
  6
ByLayer
100
AcDbEntity
100
AcDbPolyline
 90
4
 70
1
 10
38.901257456827842
 20
25.899999999999999
 30
0.0
 10
38.901257456827842
 20
28.899999999999999
 30
0.0
 10
47.101257456827831
 20
28.899999999999999
 30
0.0
 10
47.101257456827831
 20
25.899999999999999
 30
0.0
  0
LWPOLYLINE
  5
E7
  8
Corte exterior
 62
256
370
-1
 48
1.0
  6
ByLayer
100
AcDbEntity
100
AcDbPolyline
 90
18
 70
0
 10
33.000404084154688
 20
68.523233041584703
 30
0.0
 10
26.500404084154681
 20
68.523233041584703
 30
0.0
 10
26.500404084154681
 20
70.923233041584723
 30
0.0
 10
30.500404084154681
 20
70.923233041584723
 30
0.0
 10
30.500404084154681
 20
74.340549747107175
 30
0.0
 10
21.500404084154681
 20
74.340549747107175
 30
0.0
 10
21.500404084154681
 20
60.340549747107211
 30
0.0
 10
24.500404084154649
 20
60.340549747107211
 30
0.0
 10
24.500404084154649
 20
64.340549747107218
 30
0.0
 10
42.50040408415461
 20
64.340549747107218
 30
0.0
 10
42.50040408415461
 20
60.340549747107211
 30
0.0
 10
45.500404084154653
 20
60.340549747107211
 30
0.0
 10
45.500404084154653
 20
74.340549747107175
 30
0.0
 10
36.486789486176967
 20
74.340549747107175
 30
0.0
 10
36.486789486176967
 20
70.923233041584723
 30
0.0
 10
40.500404084154653
 20
70.923233041584723
 30
0.0
 10
40.500404084154653
 20
68.523233041584703
 30
0.0
 10
34.000404084154688
 20
68.523233041584703
 30
0.0
  0
ENDSEC
  0
SECTION
  2
OBJECTS
  0
DICTIONARY
  5
C
100
AcDbDictionary
280
0
281
1
  3
ACAD_GROUP
350
D
  3
ACAD_LAYOUT
350
1A
  3
ACAD_MLINESTYLE
350
17
  3
ACAD_PLOTSETTINGS
350
19
  3
ACAD_PLOTSTYLENAME
350
E
  3
AcDbVariableDictionary
350
E8
  3
QCAD_OBJECTS
350
E9
  0
DICTIONARY
  5
D
100
AcDbDictionary
280
0
281
1
  0
ACDBDICTIONARYWDFLT
  5
E
100
AcDbDictionary
281
1
  3
Normal
350
F
100
AcDbDictionaryWithDefault
340
F
  0
ACDBPLACEHOLDER
  5
F
  0
DICTIONARY
  5
17
100
AcDbDictionary
280
0
281
1
  3
Standard
350
18
  0
MLINESTYLE
  5
18
100
AcDbMlineStyle
  2
STANDARD
 70
0
  3

 62
256
 51
90.0
 52
90.0
 71
2
 49
0.5
 62
256
  6
BYLAYER
 49
-0.5
 62
256
  6
BYLAYER
  0
DICTIONARY
  5
19
100
AcDbDictionary
280
0
281
1
  0
DICTIONARY
  5
1A
100
AcDbDictionary
281
1
  3
Layout1
350
1E
  3
Layout2
350
26
  3
Model
350
22
  0
LAYOUT
  5
1E
100
AcDbPlotSettings
  1

  2
none_device
  4

  6

 40
0.0
 41
0.0
 42
0.0
 43
0.0
 44
0.0
 45
0.0
 46
0.0
 47
0.0
 48
0.0
 49
0.0
140
0.0
141
0.0
142
1.0
143
1.0
 70
688
 72
0
 73
0
 74
5
  7

 75
16
147
1.0
148
0.0
149
0.0
100
AcDbLayout
  1
Layout1
 70
1
 71
1
 10
0.0
 20
0.0
 11
420.0
 21
297.0
 12
0.0
 22
0.0
 32
0.0
 14
100000000000000000000.0
 24
100000000000000000000.0
 34
100000000000000000000.0
 15
-100000000000000000000.0
 25
-100000000000000000000.0
 35
-100000000000000000000.0
146
0.0
 13
0.0
 23
0.0
 33
0.0
 16
1.0
 26
0.0
 36
0.0
 17
0.0
 27
1.0
 37
0.0
 76
0
330
1B
  0
LAYOUT
  5
22
100
AcDbPlotSettings
  1

  2
none_device
  4

  6

 40
0.0
 41
0.0
 42
0.0
 43
0.0
 44
0.0
 45
0.0
 46
0.0
 47
0.0
 48
0.0
 49
0.0
140
0.0
141
0.0
142
1.0
143
1.0
 70
1712
 72
0
 73
0
 74
0
  7

 75
0
147
1.0
148
0.0
149
0.0
100
AcDbLayout
  1
Model
 70
1
 71
0
 10
0.0
 20
0.0
 11
12.0
 21
9.0
 12
0.0
 22
0.0
 32
0.0
 14
0.0
 24
0.0
 34
0.0
 15
0.0
 25
0.0
 35
0.0
146
0.0
 13
0.0
 23
0.0
 33
0.0
 16
1.0
 26
0.0
 36
0.0
 17
0.0
 27
1.0
 37
0.0
 76
0
330
1F
  0
LAYOUT
  5
26
100
AcDbPlotSettings
  1

  2
none_device
  4

  6

 40
0.0
 41
0.0
 42
0.0
 43
0.0
 44
0.0
 45
0.0
 46
0.0
 47
0.0
 48
0.0
 49
0.0
140
0.0
141
0.0
142
1.0
143
1.0
 70
688
 72
0
 73
0
 74
5
  7

 75
16
147
1.0
148
0.0
149
0.0
100
AcDbLayout
  1
Layout2
 70
1
 71
2
 10
0.0
 20
0.0
 11
12.0
 21
9.0
 12
0.0
 22
0.0
 32
0.0
 14
0.0
 24
0.0
 34
0.0
 15
0.0
 25
0.0
 35
0.0
146
0.0
 13
0.0
 23
0.0
 33
0.0
 16
1.0
 26
0.0
 36
0.0
 17
0.0
 27
1.0
 37
0.0
 76
0
330
23
  0
DICTIONARY
  5
E8
100
AcDbDictionary
281
1
  3
DIMASSOC
350
EB
  3
HIDETEXT
350
EA
  0
DICTIONARYVAR
  5
EA
100
DictionaryVariables
280
0
  1
2
  0
DICTIONARYVAR
  5
EB
100
DictionaryVariables
280
0
  1
1
  0
DICTIONARY
  5
E9
100
AcDbDictionary
281
1
  3
ColorSettings/BackgroundColor
350
EC
  3
ColorSettings/ColorMode
350
ED
  3
DimensionSettings/AngularFormat
350
EE
  3
DimensionSettings/AngularPrecision
350
EF
  3
DimensionSettings/DimensionFont
350
F0
  3
DimensionSettings/KeepProportions
350
F1
  3
DimensionSettings/LinearFormat
350
F2
  3
DimensionSettings/LinearPrecision
350
F3
  3
Grid/DisplayGrid00
350
F4
  3
Grid/DisplayGrid01
350
F5
  3
Grid/DisplayGrid02
350
F6
  3
Grid/DisplayGrid03
350
F7
  3
Grid/GridSpacingX00
350
F8
  3
Grid/GridSpacingX01
350
F9
  3
Grid/GridSpacingX02
350
FA
  3
Grid/GridSpacingX03
350
FB
  3
Grid/GridSpacingY00
350
FC
  3
Grid/GridSpacingY01
350
FD
  3
Grid/GridSpacingY02
350
FE
  3
Grid/GridSpacingY03
350
FF
  3
Grid/IsometricGrid00
350
100
  3
Grid/IsometricGrid01
350
101
  3
Grid/IsometricGrid02
350
102
  3
Grid/IsometricGrid03
350
103
  3
Grid/IsometricProjection00
350
104
  3
Grid/IsometricProjection01
350
105
  3
Grid/IsometricProjection02
350
106
  3
Grid/IsometricProjection03
350
107
  3
Grid/MetaGridSpacingX00
350
108
  3
Grid/MetaGridSpacingX01
350
109
  3
Grid/MetaGridSpacingX02
350
10A
  3
Grid/MetaGridSpacingX03
350
10B
  3
Grid/MetaGridSpacingY00
350
10C
  3
Grid/MetaGridSpacingY01
350
10D
  3
Grid/MetaGridSpacingY02
350
10E
  3
Grid/MetaGridSpacingY03
350
10F
  3
MultiPageSettings/Columns
350
110
  3
MultiPageSettings/GlueMarginsBottom
350
111
  3
MultiPageSettings/GlueMarginsLeft
350
112
  3
MultiPageSettings/GlueMarginsRight
350
113
  3
MultiPageSettings/GlueMarginsTop
350
114
  3
MultiPageSettings/PrintCropMarks
350
115
  3
MultiPageSettings/Rows
350
116
  3
PageSettings/OffsetX
350
117
  3
PageSettings/OffsetY
350
118
  3
PageSettings/PageOrientation
350
119
  3
PageSettings/PaperHeight
350
11A
  3
PageSettings/PaperSizeName
350
11B
  3
PageSettings/PaperWidth
350
11C
  3
PageSettings/Scale
350
11D
  3
PageSettings/ShowPaperBorders
350
11E
  3
QCADVersion
350
11F
  3
UnitSettings/PaperUnit
350
120
  3
ViewportCenter
350
121
  3
ViewportHeight
350
122
  3
ViewportWidth
350
123
  0
XRECORD
  5
EC
330
E9
100
AcDbXrecord
280
1
1000
#ffffff
  0
XRECORD
  5
ED
330
E9
100
AcDbXrecord
280
1
1000
FullColor
  0
XRECORD
  5
EE
330
E9
100
AcDbXrecord
280
1
 40
0.0
  0
XRECORD
  5
EF
330
E9
100
AcDbXrecord
280
1
 40
0.0
  0
XRECORD
  5
F0
330
E9
100
AcDbXrecord
280
1
1000
Standard
  0
XRECORD
  5
F1
330
E9
100
AcDbXrecord
280
1
290
1
  0
XRECORD
  5
F2
330
E9
100
AcDbXrecord
280
1
 40
2.0
  0
XRECORD
  5
F3
330
E9
100
AcDbXrecord
280
1
 40
2.0
  0
XRECORD
  5
F4
330
E9
100
AcDbXrecord
280
1
290
0
  0
XRECORD
  5
F5
330
E9
100
AcDbXrecord
280
1
290
1
  0
XRECORD
  5
F6
330
E9
100
AcDbXrecord
280
1
290
1
  0
XRECORD
  5
F7
330
E9
100
AcDbXrecord
280
1
290
1
  0
XRECORD
  5
F8
330
E9
100
AcDbXrecord
280
1
1000
auto
  0
XRECORD
  5
F9
330
E9
100
AcDbXrecord
280
1
1000
auto
  0
XRECORD
  5
FA
330
E9
100
AcDbXrecord
280
1
1000
auto
  0
XRECORD
  5
FB
330
E9
100
AcDbXrecord
280
1
1000
auto
  0
XRECORD
  5
FC
330
E9
100
AcDbXrecord
280
1
1000
auto
  0
XRECORD
  5
FD
330
E9
100
AcDbXrecord
280
1
1000
auto
  0
XRECORD
  5
FE
330
E9
100
AcDbXrecord
280
1
1000
auto
  0
XRECORD
  5
FF
330
E9
100
AcDbXrecord
280
1
1000
auto
  0
XRECORD
  5
100
330
E9
100
AcDbXrecord
280
1
290
0
  0
XRECORD
  5
101
330
E9
100
AcDbXrecord
280
1
290
0
  0
XRECORD
  5
102
330
E9
100
AcDbXrecord
280
1
290
0
  0
XRECORD
  5
103
330
E9
100
AcDbXrecord
280
1
290
0
  0
XRECORD
  5
104
330
E9
100
AcDbXrecord
280
1
 90
0
  0
XRECORD
  5
105
330
E9
100
AcDbXrecord
280
1
 90
0
  0
XRECORD
  5
106
330
E9
100
AcDbXrecord
280
1
 90
0
  0
XRECORD
  5
107
330
E9
100
AcDbXrecord
280
1
 90
0
  0
XRECORD
  5
108
330
E9
100
AcDbXrecord
280
1
1000
auto
  0
XRECORD
  5
109
330
E9
100
AcDbXrecord
280
1
1000
auto
  0
XRECORD
  5
10A
330
E9
100
AcDbXrecord
280
1
1000
auto
  0
XRECORD
  5
10B
330
E9
100
AcDbXrecord
280
1
1000
auto
  0
XRECORD
  5
10C
330
E9
100
AcDbXrecord
280
1
1000
auto
  0
XRECORD
  5
10D
330
E9
100
AcDbXrecord
280
1
1000
auto
  0
XRECORD
  5
10E
330
E9
100
AcDbXrecord
280
1
1000
auto
  0
XRECORD
  5
10F
330
E9
100
AcDbXrecord
280
1
1000
auto
  0
XRECORD
  5
110
330
E9
100
AcDbXrecord
280
1
 90
1
  0
XRECORD
  5
111
330
E9
100
AcDbXrecord
280
1
 40
10.0
  0
XRECORD
  5
112
330
E9
100
AcDbXrecord
280
1
 40
10.0
  0
XRECORD
  5
113
330
E9
100
AcDbXrecord
280
1
 40
10.0
  0
XRECORD
  5
114
330
E9
100
AcDbXrecord
280
1
 40
10.0
  0
XRECORD
  5
115
330
E9
100
AcDbXrecord
280
1
290
0
  0
XRECORD
  5
116
330
E9
100
AcDbXrecord
280
1
 90
1
  0
XRECORD
  5
117
330
E9
100
AcDbXrecord
280
1
 40
0.0
  0
XRECORD
  5
118
330
E9
100
AcDbXrecord
280
1
 40
0.0
  0
XRECORD
  5
119
330
E9
100
AcDbXrecord
280
1
1000
Portrait
  0
XRECORD
  5
11A
330
E9
100
AcDbXrecord
280
1
 40
279.39999999999998
  0
XRECORD
  5
11B
330
E9
100
AcDbXrecord
280
1
1000
ANSI A (Letter)
  0
XRECORD
  5
11C
330
E9
100
AcDbXrecord
280
1
 40
215.90000000000001
  0
XRECORD
  5
11D
330
E9
100
AcDbXrecord
280
1
1000
1:1
  0
XRECORD
  5
11E
330
E9
100
AcDbXrecord
280
1
290
1
  0
XRECORD
  5
11F
330
E9
100
AcDbXrecord
280
1
1000
3.15.2
  0
XRECORD
  5
120
330
E9
100
AcDbXrecord
280
1
 90
4
  0
XRECORD
  5
122
330
E9
100
AcDbXrecord
280
1
 40
421.70778255626254
  0
XRECORD
  5
123
330
E9
100
AcDbXrecord
280
1
 40
848.53061907884103
  0
ENDSEC
  0
EOF
