999
dxflib 3.12.2.0
  0
SECTION
  2
HEADER
  9
$ACADVER
  1
AC1015
  9
$HANDSEED
  5
FFFF
  9
$ANGBASE
 50
0.0
  9
$ATTMODE
 70
1
  9
$AUNITS
 70
0
  9
$AUPREC
 70
0
  9
$CELTSCALE
 40
1.0
  9
$CHAMFERA
 40
0.0
  9
$CHAMFERB
 40
0.0
  9
$CHAMFERC
 40
0.0
  9
$CHAMFERD
 40
0.0
  9
$CMLJUST
 70
0
  9
$CMLSCALE
 40
1.0
  9
$DIMADEC
 70
0
  9
$DIMALTD
 70
2
  9
$DIMALTF
 40
25.399999999999999
  9
$DIMALTRND
 40
0.0
  9
$DIMALTTD
 70
2
  9
$DIMALTTZ
 70
0
  9
$DIMALTU
 70
2
  9
$DIMALTZ
 70
0
  9
$DIMAPOST
  1

  9
$DIMASZ
 40
2.5
  9
$DIMATFIT
 70
3
  9
$DIMAUNIT
 70
0
  9
$DIMAZIN
 70
2
  9
$DIMCEN
 40
0.09
  9
$DIMDEC
 70
4
  9
$DIMDLE
 40
0.0
  9
$DIMDLI
 40
0.38
  9
$DIMDSEP
 70
46
  9
$DIMEXE
 40
1.25
  9
$DIMEXO
 40
0.625
  9
$DIMFRAC
 70
0
  9
$DIMGAP
 40
0.625
  9
$DIMJUST
 70
0
  9
$DIMLFAC
 40
1.0
  9
$DIMLUNIT
 70
2
  9
$DIMLWD
 70
-2
  9
$DIMLWE
 70
-2
  9
$DIMPOST
  1

  9
$DIMRND
 40
0.0
  9
$DIMSCALE
 40
1.0
  9
$DIMTAD
 70
0
  9
$DIMTDEC
 70
4
  9
$DIMTFAC
 40
1.0
  9
$DIMTM
 40
0.0
  9
$DIMTOLJ
 70
1
  9
$DIMTP
 40
0.0
  9
$DIMTSZ
 40
0.0
  9
$DIMTVP
 40
0.0
  9
$DIMTXT
 40
2.5
  9
$DIMTZIN
 70
0
  9
$DIMZIN
 70
8
  9
$DWGCODEPAGE
  3
ANSI_1252
  9
$ELEVATION
 40
0.0
  9
$EXTMAX
 10
299.0
 20
159.0
 30
0.0
  9
$EXTMIN
 10
0.9999999999999982
 20
0.9994852517301565
 30
0.0
  9
$FILLETRAD
 40
0.0
  9
$INSBASE
 10
0.0
 20
0.0
 30
0.0
  9
$INSUNITS
 70
4
  9
$LIMMAX
 10
12.0
 20
9.0
  9
$LIMMIN
 10
0.0
 20
0.0
  9
$LTSCALE
 40
1.0
  9
$LUNITS
 70
2
  9
$LUPREC
 70
4
  9
$MAXACTVP
 70
2
  9
$MEASUREMENT
 70
1
  9
$PDMODE
 70
0
  9
$PDSIZE
 40
0.0
  9
$PELEVATION
 40
0.0
  9
$PEXTMAX
 10
0.0
 20
0.0
 30
0.0
  9
$PEXTMIN
 10
0.0
 20
0.0
 30
0.0
  9
$PINSBASE
 10
0.0
 20
0.0
 30
0.0
  9
$PLIMMAX
 10
277.0
 20
202.5
  9
$PLIMMIN
 10
-20.0
 20
-7.5
  9
$PLINEWID
 40
0.0
  9
$PROXYGRAPHICS
 70
1
  9
$PUCSORG
 10
0.0
 20
0.0
 30
0.0
  9
$PUCSXDIR
 10
1.0
 20
0.0
 30
0.0
  9
$PUCSYDIR
 10
0.0
 20
1.0
 30
0.0
  9
$SHADEDGE
 70
3
  9
$SHADEDIF
 70
70
  9
$SKETCHINC
 40
0.1
  9
$SPLINESEGS
 70
8
  9
$SPLINETYPE
 70
6
  9
$SURFTAB1
 70
6
  9
$SURFTAB2
 70
6
  9
$SURFTYPE
 70
6
  9
$SURFU
 70
6
  9
$SURFV
 70
6
  9
$TEXTSIZE
 40
2.5
  9
$THICKNESS
 40
0.0
  9
$TRACEWID
 40
0.05
  9
$TREEDEPTH
 70
3020
  9
$UCSORG
 10
0.0
 20
0.0
 30
0.0
  9
$UCSXDIR
 10
1.0
 20
0.0
 30
0.0
  9
$UCSYDIR
 10
0.0
 20
1.0
 30
0.0
  9
$UNITMODE
 70
0
  9
$USERI1
 70
0
  9
$USERI2
 70
0
  9
$USERI3
 70
0
  9
$USERI4
 70
0
  9
$USERI5
 70
0
  9
$USERR1
 40
0.0
  9
$USERR2
 40
0.0
  9
$USERR3
 40
0.0
  9
$USERR4
 40
0.0
  9
$USERR5
 40
0.0
  0
ENDSEC
  0
SECTION
  2
TABLES
  0
TABLE
  2
VPORT
  5
8
100
AcDbSymbolTable
 70
1
  0
VPORT
  5
30
100
AcDbSymbolTableRecord
100
AcDbViewportTableRecord
  2
*Active
 70
0
 10
0.0
 20
0.0
 11
1.0
 21
1.0
 12
286.30555555555549
 22
148.5
 13
0.0
 23
0.0
 14
10.0
 24
10.0
 15
10.0
 25
10.0
 16
0.0
 26
0.0
 36
1.0
 17
0.0
 27
0.0
 37
0.0
 40
297.0
 41
1.92798353909465
 42
50.0
 43
0.0
 44
0.0
 50
0.0
 51
0.0
 71
0
 72
100
 73
1
 74
3
 75
1
 76
1
 77
0
 78
0
281
0
 65
1
110
0.0
120
0.0
130
0.0
111
1.0
121
0.0
131
0.0
112
0.0
122
1.0
132
0.0
 79
0
146
0.0
  0
ENDTAB
  0
TABLE
  2
LTYPE
  5
5
100
AcDbSymbolTable
 70
50
  0
LTYPE
  5
16
100
AcDbSymbolTableRecord
100
AcDbLinetypeTableRecord
  2
Continuous
 70
0
  3
Solid line
 72
65
 73
0
 40
0.0
  0
LTYPE
  5
31
100
AcDbSymbolTableRecord
100
AcDbLinetypeTableRecord
  2
ACAD_ISO15W100
 70
0
  3
ISO double-dash triple-dot __ __ . . . __ __ . .
 72
65
 73
10
 40
39.000000000000007
 49
12.0
 74
0
 49
-3.0
 74
0
 49
12.0
 74
0
 49
-2.9500000000000002
 74
0
 49
0.1
 74
0
 49
-2.8999999999999999
 74
0
 49
0.1
 74
0
 49
-2.8999999999999999
 74
0
 49
0.1
 74
0
 49
-2.9500000000000002
 74
0
  0
LTYPE
  5
32
100
AcDbSymbolTableRecord
100
AcDbLinetypeTableRecord
  2
HOT_WATER_SUPPLY
 70
0
  3
Hot water supply ---- HW ---- HW ---- HW ----
 72
65
 73
3
 40
22.859999999999999
 49
12.699999999999999
 74
0
 49
-5.0800000000000001
 74
0
 49
-5.0800000000000001
 74
0
  0
LTYPE
  5
33
100
AcDbSymbolTableRecord
100
AcDbLinetypeTableRecord
  2
DIVIDE
 70
0
  3
Divide ____ . . ____ . . ____ . . ____ . . ____
 72
65
 73
6
 40
31.749999999999996
 49
12.699999999999999
 74
0
 49
-6.299999999999998
 74
0
 49
0.1
 74
0
 49
-6.2499999999999991
 74
0
 49
0.1
 74
0
 49
-6.299999999999998
 74
0
  0
LTYPE
  5
34
100
AcDbSymbolTableRecord
100
AcDbLinetypeTableRecord
  2
ACAD_ISO10W100
 70
0
  3
ISO dash dot __ . __ . __ . __ . __ . __ . __ . 
 72
65
 73
4
 40
18.0
 49
12.0
 74
0
 49
-2.9500000000000002
 74
0
 49
0.1
 74
0
 49
-2.9500000000000002
 74
0
  0
LTYPE
  5
35
100
AcDbSymbolTableRecord
100
AcDbLinetypeTableRecord
  2
GAS_LINE
 70
0
  3
Gas line ----GAS----GAS----GAS----GAS----GAS----GAS--
 72
65
 73
3
 40
24.129999999999999
 49
12.699999999999999
 74
0
 49
-5.0800000000000001
 74
0
 49
-6.349999999999997
 74
0
  0
LTYPE
  5
36
100
AcDbSymbolTableRecord
100
AcDbLinetypeTableRecord
  2
ACAD_ISO04W100
 70
0
  3
ISO long-dash dot ____ . ____ . ____ . ____ . _
 72
65
 73
4
 40
30.0
 49
24.0
 74
0
 49
-2.9500000000000002
 74
0
 49
0.1
 74
0
 49
-2.9500000000000002
 74
0
  0
LTYPE
  5
14
100
AcDbSymbolTableRecord
100
AcDbLinetypeTableRecord
  2
ByBlock
 70
0
  3

 72
65
 73
0
 40
0.0
  0
LTYPE
  5
37
100
AcDbSymbolTableRecord
100
AcDbLinetypeTableRecord
  2
CENTER2
 70
0
  3
Center (.5x) ___ _ ___ _ ___ _ ___ _ ___ _ ___
 72
65
 73
4
 40
28.574999999999992
 49
19.050000000000001
 74
0
 49
-3.174999999999998
 74
0
 49
3.174999999999998
 74
0
 49
-3.174999999999998
 74
0
  0
LTYPE
  5
38
100
AcDbSymbolTableRecord
100
AcDbLinetypeTableRecord
  2
ACAD_ISO11W100
 70
0
  3
ISO double-dash dot __ __ . __ __ . __ __ . __ _
 72
65
 73
6
 40
33.0
 49
12.0
 74
0
 49
-3.0
 74
0
 49
12.0
 74
0
 49
-2.9500000000000002
 74
0
 49
0.1
 74
0
 49
-2.9500000000000002
 74
0
  0
LTYPE
  5
39
100
AcDbSymbolTableRecord
100
AcDbLinetypeTableRecord
  2
HIDDEN2
 70
0
  3
Hidden (.5x) _ _ _ _ _ _ _ _ _ _ _ _ _ _ _ _ _ 
 72
65
 73
2
 40
4.7624999999999975
 49
3.174999999999998
 74
0
 49
-1.587499999999999
 74
0
  0
LTYPE
  5
3A
100
AcDbSymbolTableRecord
100
AcDbLinetypeTableRecord
  2
BORDERX2
 70
0
  3
Border (2x) ____  ____  .  ____  ____  .  ___
 72
65
 73
6
 40
88.899999999999991
 49
25.399999999999999
 74
0
 49
-12.699999999999999
 74
0
 49
25.399999999999999
 74
0
 49
-12.65
 74
0
 49
0.1
 74
0
 49
-12.65
 74
0
  0
LTYPE
  5
3B
100
AcDbSymbolTableRecord
100
AcDbLinetypeTableRecord
  2
ACAD_ISO05W100
 70
0
  3
ISO long-dash double-dot ____ .. ____ .. ____ . 
 72
65
 73
6
 40
33.0
 49
24.0
 74
0
 49
-2.9500000000000002
 74
0
 49
0.1
 74
0
 49
-2.8999999999999999
 74
0
 49
0.1
 74
0
 49
-2.9500000000000002
 74
0
  0
LTYPE
  5
3C
100
AcDbSymbolTableRecord
100
AcDbLinetypeTableRecord
  2
DASHDOTX2
 70
0
  3
Dash dot (2x) ____  .  ____  .  ____  .  ___
 72
65
 73
4
 40
50.799999999999997
 49
25.399999999999999
 74
0
 49
-12.65
 74
0
 49
0.1
 74
0
 49
-12.65
 74
0
  0
LTYPE
  5
3D
100
AcDbSymbolTableRecord
100
AcDbLinetypeTableRecord
  2
HIDDENX2
 70
0
  3
Hidden (2x) ____ ____ ____ ____ ____ ____ ____ 
 72
65
 73
2
 40
19.049999999999997
 49
12.699999999999999
 74
0
 49
-6.349999999999997
 74
0
  0
LTYPE
  5
3E
100
AcDbSymbolTableRecord
100
AcDbLinetypeTableRecord
  2
CENTERX2
 70
0
  3
Center (2x) ________  __  ________  __  _____
 72
65
 73
4
 40
101.60000000000001
 49
63.5
 74
0
 49
-12.699999999999999
 74
0
 49
12.699999999999999
 74
0
 49
-12.699999999999999
 74
0
  0
LTYPE
  5
3F
100
AcDbSymbolTableRecord
100
AcDbLinetypeTableRecord
  2
BORDER2
 70
0
  3
Border (.5x) __.__.__.__.__.__.__.__.__.__.__.
 72
65
 73
6
 40
22.224999999999994
 49
6.349999999999997
 74
0
 49
-3.174999999999998
 74
0
 49
6.349999999999997
 74
0
 49
-3.1249999999999991
 74
0
 49
0.1
 74
0
 49
-3.1249999999999991
 74
0
  0
LTYPE
  5
40
100
AcDbSymbolTableRecord
100
AcDbLinetypeTableRecord
  2
DASHDOT2
 70
0
  3
Dash dot (.5x) _._._._._._._._._._._._._._._.
 72
65
 73
4
 40
12.699999999999996
 49
6.349999999999997
 74
0
 49
-3.1249999999999991
 74
0
 49
0.1
 74
0
 49
-3.1249999999999991
 74
0
  0
LTYPE
  5
41
100
AcDbSymbolTableRecord
100
AcDbLinetypeTableRecord
  2
ACAD_ISO12W100
 70
0
  3
ISO dash double-dot __ . . __ . . __ . . __ . . 
 72
65
 73
6
 40
21.0
 49
12.0
 74
0
 49
-2.9500000000000002
 74
0
 49
0.1
 74
0
 49
-2.8999999999999999
 74
0
 49
0.1
 74
0
 49
-2.9500000000000002
 74
0
  0
LTYPE
  5
42
100
AcDbSymbolTableRecord
100
AcDbLinetypeTableRecord
  2
ACAD_ISO07W100
 70
0
  3
ISO dot . . . . . . . . . . . . . . . . . . . . 
 72
65
 73
2
 40
3.0
 49
0.1
 74
0
 49
-2.8999999999999999
 74
0
  0
LTYPE
  5
43
100
AcDbSymbolTableRecord
100
AcDbLinetypeTableRecord
  2
ACAD_ISO06W100
 70
0
  3
ISO long-dash triple-dot ____ ... ____ ... ____
 72
65
 73
8
 40
36.000000000000007
 49
24.0
 74
0
 49
-2.9500000000000002
 74
0
 49
0.1
 74
0
 49
-2.8999999999999999
 74
0
 49
0.1
 74
0
 49
-2.8999999999999999
 74
0
 49
0.1
 74
0
 49
-2.9500000000000002
 74
0
  0
LTYPE
  5
44
100
AcDbSymbolTableRecord
100
AcDbLinetypeTableRecord
  2
CENTER
 70
0
  3
Center ____ _ ____ _ ____ _ ____ _ ____ _ ____
 72
65
 73
4
 40
50.799999999999983
 49
31.75
 74
0
 49
-6.349999999999997
 74
0
 49
6.349999999999997
 74
0
 49
-6.349999999999997
 74
0
  0
LTYPE
  5
45
100
AcDbSymbolTableRecord
100
AcDbLinetypeTableRecord
  2
HIDDEN
 70
0
  3
Hidden __ __ __ __ __ __ __ __ __ __ __ __ __ __
 72
65
 73
2
 40
9.524999999999995
 49
6.349999999999997
 74
0
 49
-3.174999999999998
 74
0
  0
LTYPE
  5
46
100
AcDbSymbolTableRecord
100
AcDbLinetypeTableRecord
  2
DOTX2
 70
0
  3
Dot (2x) .  .  .  .  .  .  .  .  .  .  .  .  .  .
 72
65
 73
2
 40
12.699999999999999
 49
0.1
 74
0
 49
-12.6
 74
0
  0
LTYPE
  5
47
100
AcDbSymbolTableRecord
100
AcDbLinetypeTableRecord
  2
PHANTOM
 70
0
  3
Phantom ______  __  __  ______  __  __  ______ 
 72
65
 73
6
 40
63.499999999999972
 49
31.75
 74
0
 49
-6.349999999999997
 74
0
 49
6.349999999999997
 74
0
 49
-6.349999999999997
 74
0
 49
6.349999999999997
 74
0
 49
-6.349999999999997
 74
0
  0
LTYPE
  5
48
100
AcDbSymbolTableRecord
100
AcDbLinetypeTableRecord
  2
ACAD_ISO08W100
 70
0
  3
ISO long-dash short-dash ____ __ ____ __ ____ _
 72
65
 73
4
 40
36.0
 49
24.0
 74
0
 49
-3.0
 74
0
 49
6.0
 74
0
 49
-3.0
 74
0
  0
LTYPE
  5
49
100
AcDbSymbolTableRecord
100
AcDbLinetypeTableRecord
  2
DASHEDX2
 70
0
  3
Dashed (2x) ____  ____  ____  ____  ____  ___
 72
65
 73
2
 40
38.099999999999994
 49
25.399999999999999
 74
0
 49
-12.699999999999999
 74
0
  0
LTYPE
  5
4A
100
AcDbSymbolTableRecord
100
AcDbLinetypeTableRecord
  2
DRAINAGE
 70
0
  3
Drainage ---->---->---->----
 72
65
 73
2
 40
10.16
 49
5.0800000000000001
 74
0
 49
5.0800000000000001
 74
0
  0
LTYPE
  5
4B
100
AcDbSymbolTableRecord
100
AcDbLinetypeTableRecord
  2
ACAD_ISO02W100
 70
0
  3
ISO dash __ __ __ __ __ __ __ __ __ __ __ __ __
 72
65
 73
2
 40
15.0
 49
12.0
 74
0
 49
-3.0
 74
0
  0
LTYPE
  5
4C
100
AcDbSymbolTableRecord
100
AcDbLinetypeTableRecord
  2
PHANTOM2
 70
0
  3
Phantom (.5x) ___ _ _ ___ _ _ ___ _ _ ___ _ _
 72
65
 73
6
 40
31.749999999999986
 49
15.875
 74
0
 49
-3.174999999999998
 74
0
 49
3.174999999999998
 74
0
 49
-3.174999999999998
 74
0
 49
3.174999999999998
 74
0
 49
-3.174999999999998
 74
0
  0
LTYPE
  5
4D
100
AcDbSymbolTableRecord
100
AcDbLinetypeTableRecord
  2
DASHED2
 70
0
  3
Dashed (.5x) _ _ _ _ _ _ _ _ _ _ _ _ _ _ _ _ _ 
 72
65
 73
2
 40
9.524999999999995
 49
6.349999999999997
 74
0
 49
-3.174999999999998
 74
0
  0
LTYPE
  5
4E
100
AcDbSymbolTableRecord
100
AcDbLinetypeTableRecord
  2
ACAD_ISO09W100
 70
0
  3
ISO long-dash double-short-dash ____ __ __ ____
 72
65
 73
6
 40
45.0
 49
24.0
 74
0
 49
-3.0
 74
0
 49
6.0
 74
0
 49
-3.0
 74
0
 49
6.0
 74
0
 49
-3.0
 74
0
  0
LTYPE
  5
4F
100
AcDbSymbolTableRecord
100
AcDbLinetypeTableRecord
  2
ACAD_ISO13W100
 70
0
  3
ISO double-dash double-dot __ __ . . __ __ . . _
 72
65
 73
8
 40
36.000000000000007
 49
12.0
 74
0
 49
-3.0
 74
0
 49
12.0
 74
0
 49
-2.9500000000000002
 74
0
 49
0.1
 74
0
 49
-2.8999999999999999
 74
0
 49
0.1
 74
0
 49
-2.9500000000000002
 74
0
  0
LTYPE
  5
50
100
AcDbSymbolTableRecord
100
AcDbLinetypeTableRecord
  2
TRACKS
 70
0
  3
Tracks -|-|-|-|-|-|-|-|-|-|-|-|-|-|-|-|-|-|-|-|-|-|-|-|-
 72
65
 73
2
 40
7.6200000000000001
 49
3.8100000000000001
 74
0
 49
3.8100000000000001
 74
0
  0
LTYPE
  5
51
100
AcDbSymbolTableRecord
100
AcDbLinetypeTableRecord
  2
DRAINAGE2
 70
0
  3
Drainage reversed----<----<----<----
 72
65
 73
2
 40
10.16
 49
5.0800000000000001
 74
0
 49
5.0800000000000001
 74
0
  0
LTYPE
  5
52
100
AcDbSymbolTableRecord
100
AcDbLinetypeTableRecord
  2
DOT2
 70
0
  3
Dot (.5x) ........................................
 72
65
 73
2
 40
3.174999999999998
 49
0.1
 74
0
 49
-3.074999999999998
 74
0
  0
LTYPE
  5
53
100
AcDbSymbolTableRecord
100
AcDbLinetypeTableRecord
  2
ZIGZAG
 70
0
  3
Zig zag /\/\/\/\/\/\/\/\/\/\/\/\/\/\/\/\/\/\/\/\/\/\/\/
 72
65
 73
4
 40
20.32254
 49
0.00254
 74
0
 49
-5.0800000000000001
 74
0
 49
-10.16
 74
0
 49
-5.0800000000000001
 74
0
  0
LTYPE
  5
54
100
AcDbSymbolTableRecord
100
AcDbLinetypeTableRecord
  2
DASHED
 70
0
  3
Dashed __ __ __ __ __ __ __ __ __ __ __ __ __ _
 72
65
 73
2
 40
19.049999999999997
 49
12.699999999999999
 74
0
 49
-6.349999999999997
 74
0
  0
LTYPE
  5
55
100
AcDbSymbolTableRecord
100
AcDbLinetypeTableRecord
  2
ACAD_ISO14W100
 70
0
  3
ISO dash triple-dot __ . . . __ . . . __ . . . _
 72
65
 73
8
 40
24.0
 49
12.0
 74
0
 49
-2.9500000000000002
 74
0
 49
0.1
 74
0
 49
-2.8999999999999999
 74
0
 49
0.1
 74
0
 49
-2.8999999999999999
 74
0
 49
0.1
 74
0
 49
-2.9500000000000002
 74
0
  0
LTYPE
  5
56
100
AcDbSymbolTableRecord
100
AcDbLinetypeTableRecord
  2
PHANTOMX2
 70
0
  3
Phantom (2x) ____________    ____    ____   _
 72
65
 73
6
 40
127.00000000000001
 49
63.5
 74
0
 49
-12.699999999999999
 74
0
 49
12.699999999999999
 74
0
 49
-12.699999999999999
 74
0
 49
12.699999999999999
 74
0
 49
-12.699999999999999
 74
0
  0
LTYPE
  5
57
100
AcDbSymbolTableRecord
100
AcDbLinetypeTableRecord
  2
DIVIDEX2
 70
0
  3
Divide (2x) ________  .  .  ________  .  .  _
 72
65
 73
6
 40
63.5
 49
25.399999999999999
 74
0
 49
-12.65
 74
0
 49
0.1
 74
0
 49
-12.6
 74
0
 49
0.1
 74
0
 49
-12.65
 74
0
  0
LTYPE
  5
58
100
AcDbSymbolTableRecord
100
AcDbLinetypeTableRecord
  2
BORDER
 70
0
  3
Border __ __ . __ __ . __ __ . __ __ . __ __ .
 72
65
 73
6
 40
44.449999999999996
 49
12.699999999999999
 74
0
 49
-6.349999999999997
 74
0
 49
12.699999999999999
 74
0
 49
-6.299999999999998
 74
0
 49
0.1
 74
0
 49
-6.299999999999998
 74
0
  0
LTYPE
  5
59
100
AcDbSymbolTableRecord
100
AcDbLinetypeTableRecord
  2
DIVIDE2
 70
0
  3
Divide (.5x) __..__..__..__..__..__..__..__.._
 72
65
 73
6
 40
15.874999999999993
 49
6.349999999999997
 74
0
 49
-3.1249999999999991
 74
0
 49
0.1
 74
0
 49
-3.074999999999998
 74
0
 49
0.1
 74
0
 49
-3.1249999999999991
 74
0
  0
LTYPE
  5
5A
100
AcDbSymbolTableRecord
100
AcDbLinetypeTableRecord
  2
DOT
 70
0
  3
Dot . . . . . . . . . . . . . . . . . . . . . . . .
 72
65
 73
2
 40
6.3499999999999988
 49
0.1
 74
0
 49
-6.2499999999999991
 74
0
  0
LTYPE
  5
5B
100
AcDbSymbolTableRecord
100
AcDbLinetypeTableRecord
  2
DASHDOT
 70
0
  3
Dash dot __ . __ . __ . __ . __ . __ . __ . __
 72
65
 73
4
 40
25.399999999999995
 49
12.699999999999999
 74
0
 49
-6.299999999999998
 74
0
 49
0.1
 74
0
 49
-6.299999999999998
 74
0
  0
LTYPE
  5
5C
100
AcDbSymbolTableRecord
100
AcDbLinetypeTableRecord
  2
FENCELINE1
 70
0
  3
Fenceline circle ----0-----0----0-----0----0-----0--
 72
65
 73
4
 40
36.829999999999998
 49
6.349999999999997
 74
0
 49
-2.54
 74
0
 49
-2.54
 74
0
 49
25.399999999999999
 74
0
  0
LTYPE
  5
5D
100
AcDbSymbolTableRecord
100
AcDbLinetypeTableRecord
  2
BATTING
 70
0
  3
Batting SSSSSSSSSSSSSSSSSSSSSSSSSSSSSSSSSSSSSSSSSSSSSSS
 72
65
 73
4
 40
10.16254
 49
0.00254
 74
0
 49
-2.54
 74
0
 49
-5.0800000000000001
 74
0
 49
-2.54
 74
0
  0
LTYPE
  5
5E
100
AcDbSymbolTableRecord
100
AcDbLinetypeTableRecord
  2
ACAD_ISO03W100
 70
0
  3
ISO dash space __    __    __    __    __    __
 72
65
 73
2
 40
30.0
 49
12.0
 74
0
 49
-18.0
 74
0
  0
LTYPE
  5
15
100
AcDbSymbolTableRecord
100
AcDbLinetypeTableRecord
  2
ByLayer
 70
0
  3

 72
65
 73
0
 40
0.0
  0
LTYPE
  5
5F
100
AcDbSymbolTableRecord
100
AcDbLinetypeTableRecord
  2
FENCELINE2
 70
0
  3
Fenceline square ----[]-----[]----[]-----[]----[]---
 72
65
 73
4
 40
36.829999999999998
 49
6.349999999999997
 74
0
 49
-2.54
 74
0
 49
-2.54
 74
0
 49
25.399999999999999
 74
0
  0
ENDTAB
  0
TABLE
  2
LAYER
  5
2
100
AcDbSymbolTable
 70
5
  0
LAYER
  5
60
100
AcDbSymbolTableRecord
100
AcDbLayerTableRecord
  2
grabado linea medio
 70
0
 62
3
420
65280
  6
Continuous
370
-3
390
F
  0
LAYER
  5
61
100
AcDbSymbolTableRecord
100
AcDbLayerTableRecord
  2
Grabado Superficie
 70
0
 62
30
420
16744192
  6
Continuous
370
25
390
F
  0
LAYER
  5
62
100
AcDbSymbolTableRecord
100
AcDbLayerTableRecord
  2
mesa de trabajo y auxiliares
 70
1
 62
-7
420
16777215
  6
Continuous
370
-3
390
F
  0
LAYER
  5
63
100
AcDbSymbolTableRecord
100
AcDbLayerTableRecord
  2
Corte exterior
 70
0
 62
1
420
16711680
  6
Continuous
370
-3
390
F
  0
LAYER
  5
10
100
AcDbSymbolTableRecord
100
AcDbLayerTableRecord
  2
0
 70
0
 62
7
420
16777215
  6
Continuous
370
25
390
F
  0
ENDTAB
  0
TABLE
  2
STYLE
  5
3
100
AcDbSymbolTable
 70
1
  0
STYLE
  5
64
100
AcDbSymbolTableRecord
100
AcDbTextStyleTableRecord
  2
Standard
 70
0
 40
0.0
 41
1.0
 50
0.0
 71
0
 42
2.5
  3

  4

1001
ACAD
1000
txt
1071
0
  0
ENDTAB
  0
TABLE
  2
VIEW
  5
6
100
AcDbSymbolTable
 70
0
  0
ENDTAB
  0
TABLE
  2
UCS
  5
7
100
AcDbSymbolTable
 70
0
  0
ENDTAB
  0
TABLE
  2
APPID
  5
9
100
AcDbSymbolTable
 70
1
  0
APPID
  5
12
100
AcDbSymbolTableRecord
100
AcDbRegAppTableRecord
  2
ACAD
 70
0
  0
APPID
  5
65
100
AcDbSymbolTableRecord
100
AcDbRegAppTableRecord
  2
QCAD
 70
0
  0
ENDTAB
  0
TABLE
  2
DIMSTYLE
  5
A
100
AcDbSymbolTable
 70
1
100
AcDbDimStyleTable
 71
0
  0
DIMSTYLE
105
27
100
AcDbSymbolTableRecord
100
AcDbDimStyleTableRecord
  2
Standard
 41
2.5
 42
0.625
 43
3.75
 44
1.25
 70
0
 73
0
 74
0
 77
1
 78
8
140
2.5
141
2.5
143
0.03937007874016
147
0.625
171
3
172
1
271
2
272
2
274
3
278
44
283
0
284
8
340
64
  0
ENDTAB
  0
TABLE
  2
BLOCK_RECORD
  5
1
100
AcDbSymbolTable
 70
1
  0
BLOCK_RECORD
  5
1F
100
AcDbSymbolTableRecord
100
AcDbBlockTableRecord
  2
*Model_Space
340
22
  0
BLOCK_RECORD
  5
1B
100
AcDbSymbolTableRecord
100
AcDbBlockTableRecord
  2
*Paper_Space
340
1E
  0
BLOCK_RECORD
  5
23
100
AcDbSymbolTableRecord
100
AcDbBlockTableRecord
  2
*Paper_Space0
340
26
  0
ENDTAB
  0
ENDSEC
  0
SECTION
  2
BLOCKS
  0
BLOCK
  5
20
100
AcDbEntity
  8
0
100
AcDbBlockBegin
  2
*Model_Space
 70
0
 10
0.0
 20
0.0
 30
0.0
  3
*Model_Space
  1

  0
ENDBLK
  5
21
100
AcDbEntity
  8
0
100
AcDbBlockEnd
  0
BLOCK
  5
1C
100
AcDbEntity
 67
1
  8
0
100
AcDbBlockBegin
  2
*Paper_Space
 70
0
 10
0.0
 20
0.0
 30
0.0
  3
*Paper_Space
  1

  0
ENDBLK
  5
1D
100
AcDbEntity
 67
1
  8
0
100
AcDbBlockEnd
  0
BLOCK
  5
24
100
AcDbEntity
  8
0
100
AcDbBlockBegin
  2
*Paper_Space0
 70
0
 10
0.0
 20
0.0
 30
0.0
  3
*Paper_Space0
  1

  0
ENDBLK
  5
25
100
AcDbEntity
  8
0
100
AcDbBlockEnd
  0
ENDSEC
  0
SECTION
  2
ENTITIES
  0
CIRCLE
  5
66
100
AcDbEntity
100
AcDbCircle
  8
Corte exterior
 62
256
370
-1
 48
1.0
  6
ByLayer
 10
144.67551409207601
 20
149.60589999999979
 30
0.0
 40
3.5000023361040831
  0
CIRCLE
  5
67
100
AcDbEntity
100
AcDbCircle
  8
grabado linea medio
 62
256
370
-1
 48
1.0
  6
ByLayer
 10
239.72175850366801
 20
144.9584711625821
 30
0.0
 40
3.5000023361040831
  0
CIRCLE
  5
68
100
AcDbEntity
100
AcDbCircle
  8
Corte exterior
 62
256
370
-1
 48
1.0
  6
ByLayer
 10
234.8228969250861
 20
122.4646341051168
 30
0.0
 40
3.5000023361040831
  0
CIRCLE
  5
69
100
AcDbEntity
100
AcDbCircle
  8
grabado linea medio
 62
256
370
-1
 48
1.0
  6
ByLayer
 10
225.50000000002791
 20
76.000000264339519
 30
0.0
 40
3.5000023361040831
  0
CIRCLE
  5
6A
100
AcDbEntity
100
AcDbCircle
  8
Corte exterior
 62
256
370
-1
 48
1.0
  6
ByLayer
 10
198.5000000000278
 20
34.897875211660583
 30
0.0
 40
3.5000023361040831
  0
CIRCLE
  5
6B
100
AcDbEntity
100
AcDbCircle
  8
grabado linea medio
 62
256
370
-1
 48
1.0
  6
ByLayer
 10
171.5000000000278
 20
76.000000264339391
 30
0.0
 40
3.5000023361040831
  0
LINE
  5
6C
100
AcDbEntity
100
AcDbLine
  8
mesa de trabajo y auxiliares
 62
256
370
-1
 48
1.0
  6
ByLayer
 10
0.0
 20
160.0
 30
0.0
 11
0.0
 21
0.0
 31
0.0
  0
LINE
  5
6D
100
AcDbEntity
100
AcDbLine
  8
mesa de trabajo y auxiliares
 62
256
370
-1
 48
1.0
  6
ByLayer
 10
300.0
 20
160.0
 30
0.0
 11
0.0
 21
160.0
 31
0.0
  0
LINE
  5
6E
100
AcDbEntity
100
AcDbLine
  8
mesa de trabajo y auxiliares
 62
256
370
-1
 48
1.0
  6
ByLayer
 10
300.0
 20
0.0
 30
0.0
 11
300.0
 21
160.0
 31
0.0
  0
LINE
  5
6F
100
AcDbEntity
100
AcDbLine
  8
mesa de trabajo y auxiliares
 62
256
370
-1
 48
1.0
  6
ByLayer
 10
0.0
 20
0.0
 30
0.0
 11
300.0
 21
0.0
 31
0.0
  0
LINE
  5
70
100
AcDbEntity
100
AcDbLine
  8
mesa de trabajo y auxiliares
 62
256
370
-1
 48
1.0
  6
ACAD_ISO02W100
 10
1.0
 20
159.0
 30
0.0
 11
1.0
 21
1.0
 31
0.0
  0
LINE
  5
71
100
AcDbEntity
100
AcDbLine
  8
mesa de trabajo y auxiliares
 62
256
370
-1
 48
1.0
  6
ACAD_ISO02W100
 10
299.0
 20
159.0
 30
0.0
 11
1.0
 21
159.0
 31
0.0
  0
LINE
  5
72
100
AcDbEntity
100
AcDbLine
  8
mesa de trabajo y auxiliares
 62
256
370
-1
 48
1.0
  6
ACAD_ISO02W100
 10
299.0
 20
1.0
 30
0.0
 11
299.0
 21
159.0
 31
0.0
  0
LINE
  5
73
100
AcDbEntity
100
AcDbLine
  8
mesa de trabajo y auxiliares
 62
256
370
-1
 48
1.0
  6
ACAD_ISO02W100
 10
1.0
 20
1.0
 30
0.0
 11
299.0
 21
1.0
 31
0.0
  0
CIRCLE
  5
74
100
AcDbEntity
100
AcDbCircle
  8
Corte exterior
 62
256
370
-1
 48
1.0
  6
ByLayer
 10
100.4543199875305
 20
36.259162669672357
 30
0.0
 40
1.5
  0
CIRCLE
  5
75
100
AcDbEntity
100
AcDbCircle
  8
Corte exterior
 62
256
370
-1
 48
1.0
  6
ByLayer
 10
36.259227573308209
 20
36.221129074712508
 30
0.0
 40
1.5
  0
CIRCLE
  5
76
100
AcDbEntity
100
AcDbCircle
  8
Corte exterior
 62
256
370
-1
 48
1.0
  6
ByLayer
 10
36.259227573308209
 20
107.3466224265369
 30
0.0
 40
1.5
  0
CIRCLE
  5
77
100
AcDbEntity
100
AcDbCircle
  8
Corte exterior
 62
256
370
-1
 48
1.0
  6
ByLayer
 10
100.4543199875305
 20
107.3466224265369
 30
0.0
 40
1.5
  0
CIRCLE
  5
78
100
AcDbEntity
100
AcDbCircle
  8
Corte exterior
 62
256
370
-1
 48
1.0
  6
ByLayer
 10
282.00000000000011
 20
58.525075060848742
 30
0.0
 40
8.0
  0
CIRCLE
  5
79
100
AcDbEntity
100
AcDbCircle
  8
Corte exterior
 62
256
370
-1
 48
1.0
  6
ByLayer
 10
256.0
 20
58.525075060848742
 30
0.0
 40
8.0
  0
CIRCLE
  5
7A
100
AcDbEntity
100
AcDbCircle
  8
Corte exterior
 62
256
370
-1
 48
1.0
  6
ByLayer
 10
269.0
 20
38.525075060848678
 30
0.0
 40
6.0000000000000124
  0
LINE
  5
7B
100
AcDbEntity
100
AcDbLine
  8
Corte exterior
 62
256
370
-1
 48
1.0
  6
ByLayer
 10
239.00000000000011
 20
49.542600659041398
 30
0.0
 11
239.0
 21
28.95639524419256
 31
0.0
  0
LINE
  5
7C
100
AcDbEntity
100
AcDbLine
  8
Corte exterior
 62
256
370
-1
 48
1.0
  6
ByLayer
 10
239.00000000000011
 20
68.297088787323901
 30
0.0
 11
239.00000000000011
 21
50.542600659041398
 31
0.0
  0
LINE
  5
7D
100
AcDbEntity
100
AcDbLine
  8
Corte exterior
 62
256
370
15
 48
1.0
  6
Continuous
 10
178.74879285454929
 20
17.03599162861293
 30
0.0
 11
176.22704692435329
 21
14.755465929669811
 31
0.0
  0
ARC
  5
7E
100
AcDbEntity
  8
Corte exterior
 62
256
370
15
 48
1.0
  6
Continuous
100
AcDbCircle
 10
198.4999985643116
 20
34.89787521167824
 30
0.0
 40
26.630002113395491
100
AcDbArc
 50
222.12442445722283
 51
317.87557968652294
  0
LINE
  5
7F
100
AcDbEntity
100
AcDbLine
  8
Corte exterior
 62
256
370
15
 48
1.0
  6
Continuous
 10
220.7729515081908
 20
14.755467347151351
 30
0.0
 11
218.251205578
 21
17.03599304610011
 31
0.0
  0
ARC
  5
80
100
AcDbEntity
  8
Corte exterior
 62
256
370
15
 48
1.0
  6
Continuous
100
AcDbCircle
 10
198.4999986159815
 20
34.897875203061567
 30
0.0
 40
30.03000210761591
100
AcDbArc
 50
222.1244243771136
 51
317.87557916521359
  0
LINE
  5
81
100
AcDbEntity
100
AcDbLine
  8
Corte exterior
 62
256
370
15
 48
1.0
  6
Continuous
 10
151.74879285454921
 20
93.861883847387048
 30
0.0
 11
149.22704692435329
 21
96.142409546330143
 31
0.0
  0
ARC
  5
82
100
AcDbEntity
  8
Corte exterior
 62
256
370
15
 48
1.0
  6
Continuous
100
AcDbCircle
 10
171.49999856431151
 20
76.00000026432167
 30
0.0
 40
26.630002113395548
100
AcDbArc
 50
42.124420313477124
 51
137.87557554277711
  0
LINE
  5
83
100
AcDbEntity
100
AcDbLine
  8
Corte exterior
 62
256
370
15
 48
1.0
  6
Continuous
 10
193.7729515081908
 20
96.142408128848643
 30
0.0
 11
191.251205578
 21
93.861882429899794
 31
0.0
  0
ARC
  5
84
100
AcDbEntity
  8
Corte exterior
 62
256
370
15
 48
1.0
  6
Continuous
100
AcDbCircle
 10
171.4999986159815
 20
76.000000272938365
 30
0.0
 40
30.03000210761591
100
AcDbArc
 50
42.12442083478642
 51
137.87557562288649
  0
LINE
  5
85
100
AcDbEntity
100
AcDbLine
  8
Corte exterior
 62
256
370
15
 48
1.0
  6
Continuous
 10
205.74879285454929
 20
93.861883847387162
 30
0.0
 11
203.22704692435329
 21
96.142409546330285
 31
0.0
  0
ARC
  5
86
100
AcDbEntity
  8
Corte exterior
 62
256
370
15
 48
1.0
  6
Continuous
100
AcDbCircle
 10
225.4999985643116
 20
76.000000264321841
 30
0.0
 40
26.630002113395491
100
AcDbArc
 50
42.124420313477223
 51
137.8755755427772
  0
LINE
  5
87
100
AcDbEntity
100
AcDbLine
  8
Corte exterior
 62
256
370
15
 48
1.0
  6
Continuous
 10
247.7729515081908
 20
96.142408128848757
 30
0.0
 11
245.251205578
 21
93.861882429899964
 31
0.0
  0
ARC
  5
88
100
AcDbEntity
  8
Corte exterior
 62
256
370
15
 48
1.0
  6
Continuous
100
AcDbCircle
 10
225.4999986159815
 20
76.000000272938522
 30
0.0
 40
30.03000210761591
100
AcDbArc
 50
42.124420834786392
 51
137.87557562288649
  0
CIRCLE
  5
89
100
AcDbEntity
100
AcDbCircle
  8
grabado linea medio
 62
256
370
-1
 48
1.0
  6
ByLayer
 10
53.415296037645057
 20
149.60589999999979
 30
0.0
 40
3.5000011680102712
  0
CIRCLE
  5
8A
100
AcDbEntity
100
AcDbCircle
  8
grabado linea medio
 62
256
370
-1
 48
1.0
  6
ByLayer
 10
118.9492948108375
 20
149.60589999999979
 30
0.0
 40
3.5000011680102712
  0
CIRCLE
  5
8B
100
AcDbEntity
100
AcDbCircle
  8
Corte exterior
 62
256
370
-1
 48
1.0
  6
ByLayer
 10
239.72175850366801
 20
144.9584711625821
 30
0.0
 40
3.5000011680102712
  0
CIRCLE
  5
8C
100
AcDbEntity
100
AcDbCircle
  8
grabado linea medio
 62
256
370
-1
 48
1.0
  6
ByLayer
 10
234.8228969250861
 20
122.4646341051168
 30
0.0
 40
3.5000011680102712
  0
CIRCLE
  5
8D
100
AcDbEntity
100
AcDbCircle
  8
grabado linea medio
 62
256
370
-1
 48
1.0
  6
ByLayer
 10
198.5000000000278
 20
34.897875211660583
 30
0.0
 40
3.5000011680102712
  0
CIRCLE
  5
8E
100
AcDbEntity
100
AcDbCircle
  8
grabado linea medio
 62
256
370
-1
 48
1.0
  6
ByLayer
 10
144.67551409207601
 20
149.60589999999979
 30
0.0
 40
3.5000011680102712
  0
LINE
  5
8F
100
AcDbEntity
100
AcDbLine
  8
Corte exterior
 62
256
370
-1
 48
1.0
  6
ByLayer
 10
135.67551409207579
 20
128.51512612012939
 30
0.0
 11
135.67551409207579
 21
114.4094794792035
 31
0.0
  0
LINE
  5
90
100
AcDbEntity
100
AcDbLine
  8
Corte exterior
 62
256
370
-1
 48
1.0
  6
ByLayer
 10
88.794285794216464
 20
140.60589999999991
 30
0.0
 11
106.7348999431461
 21
140.60589999999991
 31
0.0
  0
LINE
  5
91
100
AcDbEntity
100
AcDbLine
  8
Corte exterior
 62
256
370
-1
 48
1.0
  6
ByLayer
 10
23.199935465314368
 20
140.60589999999991
 30
0.0
 11
41.601646255676187
 21
140.60589999999991
 31
0.0
  0
ARC
  5
92
100
AcDbEntity
  8
Corte exterior
 62
256
370
-1
 48
1.0
  6
ByLayer
100
AcDbCircle
 10
246.2673200227984
 20
94.780799477148207
 30
0.0
 40
5.0000000000000044
100
AcDbArc
 50
282.42331936533401
 51
42.124422618180766
  0
LINE
  5
93
100
AcDbEntity
100
AcDbLine
  8
Corte exterior
 62
256
370
-1
 48
1.0
  6
ByLayer
 10
204.90226894827731
 20
89.897875476000024
 30
0.0
 11
191.4562497677779
 21
89.897875476000067
 31
0.0
  0
LINE
  5
94
100
AcDbEntity
100
AcDbLine
  8
Corte exterior
 62
256
370
-1
 48
1.0
  6
ByLayer
 10
212.0
 20
38.670230488174099
 30
0.0
 11
212.0
 21
77.77078951544911
 31
0.0
  0
LINE
  5
95
100
AcDbEntity
100
AcDbLine
  8
Corte exterior
 62
256
370
15
 48
1.0
  6
Continuous
 10
184.9999999999998
 20
38.592003434055549
 30
0.0
 11
185.0
 21
77.762972129955813
 31
0.0
  0
LINE
  5
96
100
AcDbEntity
100
AcDbLine
  8
Corte exterior
 62
256
370
15
 48
1.0
  6
Continuous
 10
233.51078234693139
 20
135.95915593303519
 30
0.0
 11
206.0632453911885
 21
135.9621820696442
 31
0.0
  0
ARC
  5
97
100
AcDbEntity
  8
Corte exterior
 62
256
370
-1
 48
1.0
  6
ByLayer
100
AcDbCircle
 10
77.949294810837571
 20
149.60589999999991
 30
0.0
 40
9.0
100
AcDbArc
 50
183.18309886183786
 51
270.0
  0
ARC
  5
98
100
AcDbEntity
  8
Corte exterior
 62
256
370
-1
 48
1.0
  6
ByLayer
100
AcDbCircle
 10
53.415296037645057
 20
149.60589999999991
 30
0.0
 40
9.0
100
AcDbArc
 50
270.0
 51
340.30258429179838
  0
ARC
  5
99
100
AcDbEntity
  8
Corte exterior
 62
256
370
-1
 48
1.0
  6
ByLayer
100
AcDbCircle
 10
144.6755140920759
 20
108.60589999999971
 30
0.0
 40
9.0
100
AcDbArc
 50
180.0
 51
306.40013645885142
  0
ARC
  5
9A
100
AcDbEntity
  8
Corte exterior
 62
256
370
-1
 48
1.0
  6
ByLayer
100
AcDbCircle
 10
225.50000000000389
 20
76.000000264339491
 30
0.0
 40
33.00000000000005
100
AcDbArc
 50
43.730913948321103
 51
89.131882128623914
  0
LWPOLYLINE
  5
9B
  8
Corte exterior
 62
256
370
-1
 48
1.0
  6
ByLayer
100
AcDbEntity
100
AcDbPolyline
 90
6
 70
0
 10
267.81910911876241
 20
122.96461497467131
 30
0.0
 42
0.2080342557874745
 10
256.95741028303922
 20
146.94040413198931
 30
0.0
 42
0.5756126657813951
 10
248.72077213665639
 20
144.3076182014205
 30
0.0
 10
248.72077213674669
 20
139.95792001301299
 30
0.0
 42
-0.4142135623730992
 10
244.72077213674689
 20
135.95792001301311
 30
0.0
 10
234.51078234085369
 20
135.9590456813722
 30
0.0
  0
LWPOLYLINE
  5
9C
  8
Corte exterior
 62
256
370
-1
 48
1.0
  6
ByLayer
100
AcDbEntity
100
AcDbPolyline
 90
3
 70
0
 10
250.09410445678961
 20
98.136026922867501
 30
0.0
 42
0.3974709718672838
 10
256.9574102829859
 20
97.988864078267923
 30
0.0
 42
0.2080342557880414
 10
267.81910911876241
 20
121.964653235634
 30
0.0
  0
LWPOLYLINE
  5
9D
  8
Corte exterior
 62
256
370
-1
 48
1.0
  6
ByLayer
100
AcDbEntity
100
AcDbPolyline
 90
5
 70
0
 10
225.99999999998411
 20
108.96463410508881
 30
0.0
 10
243.7207721367468
 20
108.96463410508881
 30
0.0
 42
-0.4142135623730984
 10
248.72077213674669
 20
103.964634105089
 30
0.0
 10
248.72077213674669
 20
100.62165000863941
 30
0.0
 42
0.0942478911378177
 10
249.4565440926313
 20
98.90426379388596
 30
0.0
  0
LWPOLYLINE
  5
9E
  8
Corte exterior
 62
256
370
-1
 48
1.0
  6
ByLayer
100
AcDbEntity
100
AcDbPolyline
 90
3
 70
0
 10
225.0000191304656
 20
108.99621245801561
 30
0.0
 42
0.2080342557877579
 10
201.02422997312991
 20
98.134513622251376
 30
0.0
 42
0.5756126657667214
 10
203.65701590351449
 20
89.897875476000195
 30
0.0
  0
LWPOLYLINE
  5
9F
  8
Corte exterior
 62
256
370
-1
 48
1.0
  6
ByLayer
100
AcDbEntity
100
AcDbPolyline
 90
4
 70
0
 10
157.9062612966261
 20
24.859284302067589
 30
0.0
 42
0.0387777360648436
 10
157.52494509096709
 20
26.70301974481232
 30
0.0
 42
-0.1392537368071927
 10
157.52494509096709
 20
51.388501681459189
 30
0.0
 42
0.0742682117219456
 10
158.00190129620501
 20
54.948206357780599
 30
0.0
  0
LWPOLYLINE
  5
A0
  8
Corte exterior
 62
256
370
-1
 48
1.0
  6
ByLayer
100
AcDbEntity
100
AcDbPolyline
 90
7
 70
0
 10
135.67556219303
 20
10.99948525173011
 30
0.0
 10
138.67556219303
 20
10.99948525173011
 30
0.0
 10
138.67556219303
 20
0.9994852517301707
 30
0.0
 10
141.36563808736801
 20
0.9994852517301565
 30
0.0
 42
0.3244704563939428
 10
144.2172968720449
 20
3.0677974414766642
 30
0.0
 42
-0.1872129406479586
 10
152.43933224957269
 20
13.11292191885212
 30
0.0
 42
0.2664997372965234
 10
157.99142842648959
 20
23.863200583134699
 30
0.0
  0
LWPOLYLINE
  5
A1
  8
Corte exterior
 62
256
370
-1
 48
1.0
  6
ByLayer
100
AcDbEntity
100
AcDbPolyline
 90
3
 70
0
 10
158.15369932475451
 20
23.901832838039859
 30
0.0
 42
0.3349121259700569
 10
161.9999999999998
 20
20.999999999999918
 30
0.0
 10
178.82949258594141
 20
20.99999999999995
 30
0.0
  0
LWPOLYLINE
  5
A2
  8
Corte exterior
 62
256
370
-1
 48
1.0
  6
ByLayer
100
AcDbEntity
100
AcDbPolyline
 90
3
 70
0
 10
158.00330192020641
 20
54.94893774103889
 30
0.0
 10
157.9999999999998
 20
24.999999999999989
 30
0.0
 42
0.0070284032909258
 10
158.00158059432829
 20
24.887562211201129
 30
0.0
  0
LWPOLYLINE
  5
A3
  8
Corte exterior
 62
256
370
-1
 48
1.0
  6
ByLayer
100
AcDbEntity
100
AcDbPolyline
 90
7
 70
0
 10
157.94574605966369
 20
55.946346029640878
 30
0.0
 42
0.2289519239359454
 10
152.4393322495734
 20
64.978599507418778
 30
0.0
 42
-0.1872129406479643
 10
144.21729687204481
 20
75.0237239847946
 30
0.0
 42
0.3244704563939425
 10
141.36563808736801
 20
77.092036174541192
 30
0.0
 10
138.67556219303
 20
77.092036174541192
 30
0.0
 10
138.67556219303
 20
67.092036174541164
 30
0.0
 10
135.67556219303
 20
67.092036174541192
 30
0.0
  0
LWPOLYLINE
  5
A4
  8
Corte exterior
 62
256
370
-1
 48
1.0
  6
ByLayer
100
AcDbEntity
100
AcDbPolyline
 90
6
 70
0
 10
150.1888296972318
 20
101.1959130345934
 30
0.0
 42
0.0333936436389851
 10
147.02422997312971
 20
98.134513622251248
 30
0.0
 42
0.5756126657667259
 10
149.65701590351441
 20
89.897875475999982
 30
0.0
 10
154.00671409207581
 20
89.897875476000024
 30
0.0
 42
-0.4142135623730951
 10
158.00671409207581
 20
85.897875476000024
 30
0.0
 10
158.00341217186909
 20
55.94893773496117
 30
0.0
  0
LWPOLYLINE
  5
A5
  8
Corte exterior
 62
256
370
-1
 48
1.0
  6
ByLayer
100
AcDbEntity
100
AcDbPolyline
 90
3
 70
0
 10
193.34298409629571
 20
89.897875476000024
 30
0.0
 42
0.5756126657813958
 10
195.97577002685111
 20
98.134513622280494
 30
0.0
 42
0.3957488530515642
 10
150.96200935283991
 20
101.83003975670201
 30
0.0
  0
LWPOLYLINE
  5
A6
  8
Corte exterior
 62
256
370
-1
 48
1.0
  6
ByLayer
100
AcDbEntity
100
AcDbPolyline
 90
5
 70
0
 10
150.78660465433771
 20
101.99873932843779
 30
0.0
 42
0.2090641949328353
 10
153.6755140920759
 20
108.60589999999971
 30
0.0
 10
153.67551409207579
 20
149.60589999999979
 30
0.0
 42
0.9999999999999998
 10
135.67551409207579
 20
149.60589999999979
 30
0.0
 10
135.67551409207579
 20
129.51512612012939
 30
0.0
  0
LWPOLYLINE
  5
A7
  8
Corte exterior
 62
256
370
-1
 48
1.0
  6
ByLayer
100
AcDbEntity
100
AcDbPolyline
 90
4
 70
0
 10
62.172776495524531
 20
147.53068048634381
 30
0.0
 42
0.484125430734336
 10
53.415296037645057
 20
158.60589999999991
 30
0.0
 10
12.41529603764506
 20
158.60589999999991
 30
0.0
 42
0.9999999999999998
 10
12.41529603764506
 20
140.60589999999991
 30
0.0
  0
LWPOLYLINE
  5
A8
  8
Corte exterior
 62
256
370
-1
 48
1.0
  6
ByLayer
100
AcDbEntity
100
AcDbPolyline
 90
3
 70
0
 10
61.94507248973099
 20
146.54050901255741
 30
0.0
 42
0.0702417723410767
 10
61.00335704603804
 20
140.60589999999991
 30
0.0
 10
42.601646255676201
 20
140.60589999999991
 30
0.0
  0
LWPOLYLINE
  5
A9
  8
Corte exterior
 62
256
370
-1
 48
1.0
  6
ByLayer
100
AcDbEntity
100
AcDbPolyline
 90
3
 70
0
 10
68.958958461021354
 20
150.10580871861151
 30
0.0
 42
-0.1340954226962292
 10
72.00925194811262
 20
159.0
 30
0.0
 42
0.1812269747221684
 10
62.260453073039713
 20
147.48937922847421
 30
0.0
  0
LWPOLYLINE
  5
AA
  8
Corte exterior
 62
256
370
-1
 48
1.0
  6
ByLayer
100
AcDbEntity
100
AcDbPolyline
 90
4
 70
0
 10
118.9492948108375
 20
140.60589999999991
 30
0.0
 42
0.9999999999999998
 10
118.9492948108375
 20
158.60589999999991
 30
0.0
 10
77.949294810837571
 20
158.60589999999991
 30
0.0
 42
0.39803375836669
 10
68.963180127848844
 20
150.10564283804251
 30
0.0
  0
LWPOLYLINE
  5
AB
  8
Corte exterior
 62
256
370
-1
 48
1.0
  6
ByLayer
100
AcDbEntity
100
AcDbPolyline
 90
3
 70
0
 10
68.923206612051871
 20
149.10657894199929
 30
0.0
 42
0.1245040555569986
 10
71.003357046037905
 20
140.60589999999991
 30
0.0
 10
87.794285794216464
 20
140.60589999999991
 30
0.0
  0
LWPOLYLINE
  5
AC
  8
Corte exterior
 62
256
370
-1
 48
1.0
  6
ByLayer
100
AcDbEntity
100
AcDbPolyline
 90
4
 70
1
 10
24.28654995496003
 20
110.51865004473061
 30
0.0
 10
7.762849999845276
 20
127.0423499998452
 30
0.0
 10
16.563499999999902
 20
135.84299999999979
 30
0.0
 10
33.087201054681209
 20
119.31929894531849
 30
0.0
  0
LWPOLYLINE
  5
AD
  8
Corte exterior
 62
256
370
15
 48
1.0
  6
Continuous
100
AcDbEntity
100
AcDbPolyline
 90
4
 70
0
 10
239.72175850366801
 20
135.9584711625821
 30
0.0
 42
0.9999999999999998
 10
239.72175850366801
 20
153.9584711625821
 30
0.0
 10
198.72175850366801
 20
153.9584711625821
 30
0.0
 42
0.9999999999999998
 10
198.72175850366801
 20
135.9584711625821
 30
0.0
  0
LWPOLYLINE
  5
AE
  8
Corte exterior
 62
256
370
-1
 48
1.0
  6
ByLayer
100
AcDbEntity
100
AcDbPolyline
 90
4
 70
1
 10
128.9507478534442
 20
127.0041664910847
 30
0.0
 10
120.11191295695571
 20
135.84300112425959
 30
0.0
 10
103.4949038912542
 20
119.22599156352901
 30
0.0
 10
112.33373768860361
 20
110.3871558312147
 30
0.0
  0
LWPOLYLINE
  5
AF
  8
Corte exterior
 62
256
370
-1
 48
1.0
  6
ByLayer
100
AcDbEntity
100
AcDbPolyline
 90
4
 70
1
 10
16.563548945226991
 20
7.7628489452270593
 30
0.0
 10
33.087249977567538
 20
24.286549977567649
 30
0.0
 10
24.286548712626349
 20
33.087252341579038
 30
0.0
 10
7.7628500851202142
 20
16.563550004479431
 30
0.0
  0
LWPOLYLINE
  5
B0
  8
Corte exterior
 62
256
370
-1
 48
1.0
  6
ByLayer
100
AcDbEntity
100
AcDbPolyline
 90
4
 70
1
 10
128.9126140920757
 20
16.563500000000008
 30
0.0
 10
112.38891409207569
 20
33.087199999999967
 30
0.0
 10
103.58826411502839
 20
24.286550022952671
 30
0.0
 10
120.1119630593207
 20
7.7628489672449179
 30
0.0
  0
LWPOLYLINE
  5
B1
  8
Corte exterior
 62
256
370
15
 48
1.0
  6
Continuous
100
AcDbEntity
100
AcDbPolyline
 90
6
 70
0
 10
205.06324539726629
 20
135.96229232130659
 30
0.0
 10
183.82289666074661
 20
135.96463410508881
 30
0.0
 42
0.4142135623730974
 10
179.82289666074661
 20
131.96463410508881
 30
0.0
 10
179.82289666074661
 20
112.9646341050889
 30
0.0
 42
0.414213562373093
 10
183.82289666074669
 20
108.96463410508881
 30
0.0
 10
224.99999999998411
 20
108.96463410508881
 30
0.0
  0
LWPOLYLINE
  5
B2
  8
Corte exterior
 62
256
370
15
 48
1.0
  6
Continuous
100
AcDbEntity
100
AcDbPolyline
 90
4
 70
0
 10
179.82949258594149
 20
20.99999999999995
 30
0.0
 10
180.99999999999989
 20
20.99999999999995
 30
0.0
 42
0.4142135623730911
 10
184.9999999999998
 20
24.999999999999911
 30
0.0
 10
184.9999999999998
 20
37.592003434055549
 30
0.0
  0
LWPOLYLINE
  5
B3
  8
Corte exterior
 62
256
370
15
 48
1.0
  6
Continuous
100
AcDbEntity
100
AcDbPolyline
 90
4
 70
0
 10
185.0
 20
78.762972129955813
 30
0.0
 10
185.0
 20
85.897875475999982
 30
0.0
 42
-0.4142135623730911
 10
188.9999999999998
 20
89.897875476000024
 30
0.0
 10
190.4562497677779
 20
89.897875476000067
 30
0.0
  0
LWPOLYLINE
  5
B4
  8
Corte exterior
 62
256
370
-1
 48
1.0
  6
ByLayer
100
AcDbEntity
100
AcDbPolyline
 90
3
 70
0
 10
218.7123187189699
 20
20.999999999999961
 30
0.0
 10
235.00000000000011
 20
21.00000000000005
 30
0.0
 42
0.4142135623730911
 10
239.0
 20
25.0
 30
0.0
  0
LWPOLYLINE
  5
B5
  8
Corte exterior
 62
256
370
-1
 48
1.0
  6
ByLayer
100
AcDbEntity
100
AcDbPolyline
 90
4
 70
0
 10
212.0
 20
37.670230488174099
 30
0.0
 10
212.0
 20
25.00000000000005
 30
0.0
 42
0.4142135623730869
 10
216.0
 20
20.99999999999994
 30
0.0
 10
217.71231871897001
 20
20.999999999999961
 30
0.0
  0
LWPOLYLINE
  5
B6
  8
Corte exterior
 62
256
370
-1
 48
1.0
  6
ByLayer
100
AcDbEntity
100
AcDbPolyline
 90
4
 70
0
 10
212.0
 20
78.77078951544911
 30
0.0
 10
212.0
 20
85.897875476000024
 30
0.0
 42
0.4142135623730951
 10
208.0
 20
89.897875476000024
 30
0.0
 10
205.90226894827731
 20
89.897875476000024
 30
0.0
  0
LWPOLYLINE
  5
B7
  8
Corte exterior
 62
256
370
-1
 48
1.0
  6
ByLayer
100
AcDbEntity
100
AcDbPolyline
 90
20
 70
0
 10
267.82289692508613
 20
122.95403576667439
 30
0.0
 10
267.82289692508613
 20
138.28205614278971
 30
0.0
 10
264.82289692508613
 20
138.28205614278971
 30
0.0
 10
264.82289692508613
 20
148.28205614278971
 30
0.0
 10
267.82289692508613
 20
148.28205614278971
 30
0.0
 10
267.82289692508613
 20
158.28205614278971
 30
0.0
 10
270.51297281942431
 20
158.28205614278971
 30
0.0
 42
-0.3244704563939422
 10
273.36463160410108
 20
156.21374395304309
 30
0.0
 42
0.1872129406479504
 10
281.58666698162972
 20
146.16861947566741
 30
0.0
 42
-0.3311344051435527
 10
286.67227982302359
 20
132.57852164970771
 30
0.0
 42
0.1392537368071928
 10
286.67227982302359
 20
107.8930397130609
 30
0.0
 42
-0.3311344051435525
 10
281.58666698162972
 20
94.302941887101085
 30
0.0
 42
0.1872129406479615
 10
273.36463160410108
 20
84.257817409725263
 30
0.0
 42
-0.3244704563939433
 10
270.51297281942431
 20
82.189505219978756
 30
0.0
 10
267.82289692508613
 20
82.189505219978756
 30
0.0
 10
267.82289692508613
 20
92.189505219978713
 30
0.0
 10
264.82289692508613
 20
92.189505219978713
 30
0.0
 10
264.82289692508613
 20
102.1895052199786
 30
0.0
 10
267.82289692508613
 20
102.1895052199787
 30
0.0
 10
267.82289692508613
 20
121.95403576667439
 30
0.0
  0
LWPOLYLINE
  5
B8
  8
Corte exterior
 62
256
370
-1
 48
1.0
  6
ByLayer
100
AcDbEntity
100
AcDbPolyline
 90
4
 70
1
 10
124.356634488441
 20
99.830151212030145
 30
0.0
 10
124.356634488441
 20
89.830151212030202
 30
0.0
 10
127.356634488441
 20
89.830151212030202
 30
0.0
 10
127.356634488441
 20
99.830151212030145
 30
0.0
  0
LWPOLYLINE
  5
B9
  8
Corte exterior
 62
256
370
-1
 48
1.0
  6
ByLayer
100
AcDbEntity
100
AcDbPolyline
 90
4
 70
1
 10
6.693302048427717
 20
99.830151212030145
 30
0.0
 10
6.6933020484276611
 20
89.830151212030202
 30
0.0
 10
9.6933020484276646
 20
89.830151212030202
 30
0.0
 10
9.6933020484276646
 20
99.830151212030145
 30
0.0
  0
LWPOLYLINE
  5
BA
  8
Corte exterior
 62
256
370
-1
 48
1.0
  6
ByLayer
100
AcDbEntity
100
AcDbPolyline
 90
4
 70
1
 10
127.356634488441
 20
43.737600289219181
 30
0.0
 10
127.356634488441
 20
53.737600289219181
 30
0.0
 10
124.356634488441
 20
53.737600289219181
 30
0.0
 10
124.3566344884409
 20
43.737600289219181
 30
0.0
  0
LWPOLYLINE
  5
BB
  8
Corte exterior
 62
256
370
-1
 48
1.0
  6
ByLayer
100
AcDbEntity
100
AcDbPolyline
 90
4
 70
1
 10
9.6933020484276646
 20
43.737600289219181
 30
0.0
 10
9.6933020484276646
 20
53.737600289219181
 30
0.0
 10
6.6933020484276611
 20
53.737600289219181
 30
0.0
 10
6.693302048427606
 20
43.737600289219181
 30
0.0
  0
LWPOLYLINE
  5
BC
  8
Corte exterior
 62
256
370
-1
 48
1.0
  6
ByLayer
100
AcDbEntity
100
AcDbPolyline
 90
4
 70
0
 10
176.6570159035503
 20
20.99999999999994
 30
0.0
 42
0.5756126657667205
 10
174.0242299731789
 20
12.76336185376074
 30
0.0
 42
0.4439282862254918
 10
222.97577002690949
 20
12.76336185378946
 30
0.0
 42
0.5756126657813927
 10
220.34298409633161
 20
21.00000000009015
 30
0.0
  0
LWPOLYLINE
  5
BD
  8
Corte exterior
 62
256
370
-1
 48
1.0
  6
ByLayer
100
AcDbEntity
100
AcDbPolyline
 90
4
 70
0
 10
135.67556219303
 20
57.092036174541178
 30
0.0
 10
138.67556219303
 20
57.092036174541178
 30
0.0
 10
138.67556219303
 20
20.999485251730089
 30
0.0
 10
135.67556219303
 20
20.999485251730089
 30
0.0
  0
LINE
  5
BE
100
AcDbEntity
100
AcDbLine
  8
Corte exterior
 62
256
370
-1
 48
1.0
  6
ByLayer
 10
135.6755140920759
 20
16.348496679324722
 30
0.0
 11
135.67551409207579
 21
61.704739739601749
 31
0.0
  0
LINE
  5
BF
100
AcDbEntity
100
AcDbLine
  8
Corte exterior
 62
256
370
-1
 48
1.0
  6
ByLayer
 10
135.67551409207579
 20
62.704739739601749
 30
0.0
 11
135.67551409207579
 21
113.4094794792035
 31
0.0
  0
LWPOLYLINE
  5
C0
  8
Corte exterior
 62
256
370
-1
 48
1.0
  6
ByLayer
100
AcDbEntity
100
AcDbPolyline
 90
3
 70
0
 10
135.67551409207579
 20
130.60589999999991
 30
0.0
 42
0.4142135623730946
 10
125.6755140920758
 20
140.60589999999991
 30
0.0
 10
107.7348999431461
 20
140.60589999999991
 30
0.0
  0
LWPOLYLINE
  5
C1
  8
Corte exterior
 62
256
370
15
 48
1.0
  6
Continuous
100
AcDbEntity
100
AcDbPolyline
 90
4
 70
1
 10
254.96530620707699
 20
100.19168102944219
 30
0.0
 42
0.4439282863526078
 10
254.96530478959539
 20
144.7375856132798
 30
0.0
 10
252.68477909064649
 20
142.21583968308889
 30
0.0
 42
-0.44392828865709
 10
252.68478050813371
 20
102.7134269596382
 30
0.0
  0
LWPOLYLINE
  5
C2
  8
Corte exterior
 62
256
370
-1
 48
1.0
  6
ByLayer
100
AcDbEntity
100
AcDbPolyline
 90
4
 70
0
 10
247.50000000000011
 20
89.897875476000266
 30
0.0
 10
244.00000000000011
 20
89.897875476000195
 30
0.0
 42
0.4142135623730935
 10
239.00000000000011
 20
84.897875476000181
 30
0.0
 10
239.00000000000011
 20
69.297088787323901
 30
0.0
  0
LWPOLYLINE
  5
C3
  8
Corte exterior
 62
256
370
-1
 48
1.0
  6
ByLayer
100
AcDbEntity
100
AcDbPolyline
 90
21
 70
0
 10
239.0
 20
27.95639524419256
 30
0.0
 10
239.0
 20
4.0
 30
0.0
 10
250.0
 20
4.0
 30
0.0
 10
250.0
 20
1.0
 30
0.0
 10
260.0
 20
1.0
 30
0.0
 10
260.0
 20
4.0
 30
0.0
 10
278.0
 20
4.0
 30
0.0
 10
278.0
 20
1.0
 30
0.0
 10
288.0
 20
1.0
 30
0.0
 10
288.0
 20
4.0
 30
0.0
 10
299.0
 20
3.9999999999999711
 30
0.0
 10
298.99999999995089
 20
68.525075060869639
 30
0.0
 42
0.239088131859465
 10
297.24156756980398
 20
70.592267451896873
 30
0.0
 42
-0.3642195914270969
 10
289.62276510933492
 20
81.44297835844678
 30
0.0
 42
0.1700562922219354
 10
272.34220519452703
 20
74.935198757864626
 30
0.0
 42
-0.2360679774995227
 10
266.30538278159491
 20
82.907449077188986
 30
0.0
 42
0.1451126876393103
 10
256.37982857610109
 20
77.597510706319852
 30
0.0
 42
-0.4142135623731146
 10
256.35677470667503
 20
82.597457558022938
 30
0.0
 42
0.1856776554371516
 10
244.3891776799521
 20
75.542202679096931
 30
0.0
 42
-0.2135037451306588
 10
244.53620196702099
 20
80.86494539246894
 30
0.0
 42
0.2741614411977424
 10
239.00000000000011
 20
71.525075060853212
 30
0.0
  0
LWPOLYLINE
  5
C4
  8
Corte exterior
 62
256
370
-1
 48
1.0
  6
ByLayer
100
AcDbEntity
100
AcDbPolyline
 90
4
 70
1
 10
264.08493649050001
 20
14.09594127294878
 30
0.0
 10
261.58493649050001
 20
9.7658142540479353
 30
0.0
 10
265.91506350949999
 20
7.265814254047938
 30
0.0
 10
268.41506350949999
 20
11.59594127294792
 30
0.0
  0
LWPOLYLINE
  5
C5
  8
Corte exterior
 62
256
370
-1
 48
1.0
  6
ByLayer
100
AcDbEntity
100
AcDbPolyline
 90
4
 70
1
 10
263.5
 20
20.109080993748989
 30
0.0
 10
258.5
 20
20.109080993748989
 30
0.0
 10
258.5
 20
15.10908099374757
 30
0.0
 10
263.5
 20
15.10908099374757
 30
0.0
  0
LWPOLYLINE
  5
C6
  8
Corte exterior
 62
256
370
-1
 48
1.0
  6
ByLayer
100
AcDbEntity
100
AcDbPolyline
 90
4
 70
1
 10
276.41506350949999
 20
9.7658142540479353
 30
0.0
 10
273.91506350949999
 20
14.09594127294878
 30
0.0
 10
269.58493649050013
 20
11.59594127294792
 30
0.0
 10
272.08493649050013
 20
7.265814254047938
 30
0.0
  0
LWPOLYLINE
  5
C7
  8
Corte exterior
 62
256
370
-1
 48
1.0
  6
ByLayer
100
AcDbEntity
100
AcDbPolyline
 90
4
 70
1
 10
271.5
 20
20.109080993748989
 30
0.0
 10
266.5
 20
20.109080993748989
 30
0.0
 10
266.5
 20
15.10908099374757
 30
0.0
 10
271.5
 20
15.10908099374757
 30
0.0
  0
LWPOLYLINE
  5
C8
  8
Corte exterior
 62
256
370
-1
 48
1.0
  6
ByLayer
100
AcDbEntity
100
AcDbPolyline
 90
4
 70
1
 10
279.5
 20
20.109080993748989
 30
0.0
 10
274.5
 20
20.109080993748989
 30
0.0
 10
274.5
 20
15.10908099374757
 30
0.0
 10
279.5
 20
15.10908099374757
 30
0.0
  0
LWPOLYLINE
  5
C9
  8
Corte exterior
 62
256
370
-1
 48
1.0
  6
ByLayer
100
AcDbEntity
100
AcDbPolyline
 90
4
 70
1
 10
261.58493649050001
 20
25.45234773354861
 30
0.0
 10
264.08493649050001
 20
21.12222071464868
 30
0.0
 10
268.41506350949999
 20
23.62222071464868
 30
0.0
 10
265.91506350949999
 20
27.9523477335477
 30
0.0
  0
LWPOLYLINE
  5
CA
  8
Corte exterior
 62
256
370
-1
 48
1.0
  6
ByLayer
100
AcDbEntity
100
AcDbPolyline
 90
4
 70
1
 10
273.91506350949999
 20
21.12222071464868
 30
0.0
 10
276.41506350949999
 20
25.45234773354861
 30
0.0
 10
272.08493649050013
 20
27.9523477335477
 30
0.0
 10
269.58493649050013
 20
23.62222071464868
 30
0.0
  0
LWPOLYLINE
  5
CB
  8
Corte exterior
 62
256
370
-1
 48
1.0
  6
ByLayer
100
AcDbEntity
100
AcDbPolyline
 90
4
 70
1
 10
49.334400000000002
 20
6.072940065650803
 30
0.0
 10
49.334400000000002
 20
9.0729400656507941
 30
0.0
 10
59.334399999999903
 20
9.0729400656508261
 30
0.0
 10
59.334399999999903
 20
6.0729400656508252
 30
0.0
  0
LWPOLYLINE
  5
CC
  8
Corte exterior
 62
256
370
-1
 48
1.0
  6
ByLayer
100
AcDbEntity
100
AcDbPolyline
 90
4
 70
1
 10
77.3344194909387
 20
6.0729400656508252
 30
0.0
 10
77.3344194909387
 20
9.0729400656508261
 30
0.0
 10
87.33441407679922
 20
9.0833459658378715
 30
0.0
 10
87.334414076799206
 20
6.0729400656508252
 30
0.0
  0
LWPOLYLINE
  5
CD
  8
grabado linea medio
 62
256
370
-1
 48
1.0
  6
ByLayer
100
AcDbEntity
100
AcDbPolyline
 90
4
 70
1
 10
174.37500000003459
 20
74.003906240329499
 30
0.0
 10
173.4951745727995
 20
61.361153499164473
 30
0.0
 42
-0.9328272624569148
 10
169.5048254272738
 20
61.36115349916448
 30
0.0
 10
168.62500000003459
 20
74.00390624030851
 30
0.0
 42
0.5230985433332799
  0
LWPOLYLINE
  5
CE
  8
grabado linea medio
 62
256
370
-1
 48
1.0
  6
ByLayer
100
AcDbEntity
100
AcDbPolyline
 90
4
 70
1
 10
228.37500000003479
 20
74.003906240329627
 30
0.0
 10
227.49517457279961
 20
61.361153499164601
 30
0.0
 42
-0.9328272624569152
 10
223.504825427274
 20
61.361153499164608
 30
0.0
 10
222.62500000003479
 20
74.003906240308623
 30
0.0
 42
0.5230985433332779
  0
LWPOLYLINE
  5
CF
  8
grabado linea medio
 62
256
370
-1
 48
1.0
  6
ByLayer
100
AcDbEntity
100
AcDbPolyline
 90
4
 70
1
 10
195.625000000021
 20
36.893969235670482
 30
0.0
 10
196.50482542725609
 20
49.536721976835501
 30
0.0
 42
-0.9328272624569143
 10
200.49517457278179
 20
49.536721976835508
 30
0.0
 10
201.375000000021
 20
36.893969235691479
 30
0.0
 42
0.5230985433332787
  0
LWPOLYLINE
  5
D0
  8
grabado linea medio
 62
256
370
-1
 48
1.0
  6
ByLayer
100
AcDbEntity
100
AcDbPolyline
 90
4
 70
1
 10
232.82680290107621
 20
119.58963410510999
 30
0.0
 10
220.18405015991121
 20
120.4694595323452
 30
0.0
 42
-0.9328272624569201
 10
220.1840501599111
 20
124.4598086778707
 30
0.0
 10
232.82680290105529
 20
125.33963410511009
 30
0.0
 42
0.5230985433332781
  0
LWPOLYLINE
  5
D1
  8
grabado linea medio
 62
256
370
-1
 48
1.0
  6
ByLayer
100
AcDbEntity
100
AcDbPolyline
 90
4
 70
1
 10
237.72566447965809
 20
142.08347116257531
 30
0.0
 10
225.0829117384931
 20
142.9632965898104
 30
0.0
 42
-0.9328272624569075
 10
225.0829117384931
 20
146.95364573533601
 30
0.0
 10
237.72566447963729
 20
147.83347116257531
 30
0.0
 42
0.5230985433332779
  0
LWPOLYLINE
  5
D2
  8
grabado linea medio
 62
256
370
-1
 48
1.0
  6
ByLayer
100
AcDbEntity
100
AcDbPolyline
 90
4
 70
1
 10
116.95320078682759
 20
146.730899999993
 30
0.0
 10
104.3104480456626
 20
147.61072542722809
 30
0.0
 42
-0.9328272624569141
 10
104.3104480456625
 20
151.6010745727537
 30
0.0
 10
116.9532007868067
 20
152.480899999993
 30
0.0
 42
0.5230985433332779
  0
LWPOLYLINE
  5
D3
  8
grabado linea medio
 62
256
370
-1
 48
1.0
  6
ByLayer
100
AcDbEntity
100
AcDbPolyline
 90
4
 70
1
 10
51.419202013635172
 20
146.730899999993
 30
0.0
 10
38.776449272470153
 20
147.61072542722809
 30
0.0
 42
-0.9328272624569141
 10
38.776449272470153
 20
151.6010745727537
 30
0.0
 10
51.419202013614168
 20
152.480899999993
 30
0.0
 42
0.5230985433332791
  0
LWPOLYLINE
  5
D4
  8
grabado linea medio
 62
256
370
-1
 48
1.0
  6
ByLayer
100
AcDbEntity
100
AcDbPolyline
 90
4
 70
1
 10
147.55051409208281
 20
147.6098059759899
 30
0.0
 10
146.67068866484769
 20
134.96705323482479
 30
0.0
 42
-0.932827262456908
 10
142.6803395193219
 20
134.9670532348247
 30
0.0
 10
141.80051409208281
 20
147.6098059759689
 30
0.0
 42
0.5230985433332779
  0
LWPOLYLINE
  5
D5
  8
grabado linea medio
 62
256
370
-1
 48
1.0
  6
ByLayer
100
AcDbEntity
100
AcDbPolyline
 90
8
 70
0
 10
207.6928966606923
 20
108.9646341052532
 30
0.0
 10
207.69289666075781
 20
125.3046341052532
 30
0.0
 10
212.33289666075771
 20
125.3046341052346
 30
0.0
 10
212.3328966607676
 20
127.82463410523469
 30
0.0
 10
207.69289666076779
 20
127.8246341052533
 30
0.0
 10
207.69289666078421
 20
131.8846341052531
 30
0.0
 10
199.61289666078409
 20
131.8846341052855
 30
0.0
 10
199.6128966608006
 20
135.96463410528571
 30
0.0
  0
LWPOLYLINE
  5
D6
  8
grabado linea medio
 62
256
370
-1
 48
1.0
  6
ByLayer
100
AcDbEntity
100
AcDbPolyline
 90
3
 70
0
 10
179.822896660758
 20
125.3046341053648
 30
0.0
 10
184.46411316055799
 20
125.3046341053462
 30
0.0
 10
184.66411316049229
 20
108.9646341053454
 30
0.0
  0
LWPOLYLINE
  5
D7
  8
grabado linea medio
 62
256
370
-1
 48
1.0
  6
ByLayer
100
AcDbEntity
100
AcDbPolyline
 90
3
 70
0
 10
184.46289666080051
 20
135.96463410534631
 30
0.0
 10
184.4628966607678
 20
127.82463410534631
 30
0.0
 10
179.82289666076809
 20
127.82463410536469
 30
0.0
  0
LWPOLYLINE
  5
D8
  8
grabado linea medio
 62
256
370
-1
 48
1.0
  6
ByLayer
100
AcDbEntity
100
AcDbPolyline
 90
8
 70
0
 10
212.00000000000011
 20
62.027875476000283
 30
0.0
 10
195.66
 20
62.027875476000261
 30
0.0
 10
195.66
 20
57.387875476000403
 30
0.0
 10
193.13999999999999
 20
57.387875476000403
 30
0.0
 10
193.13999999999999
 20
62.02787547600029
 30
0.0
 10
189.08000000000001
 20
62.027875476000261
 30
0.0
 10
189.08000000000021
 20
70.107875476000174
 30
0.0
 10
185.0
 20
70.107875476000174
 30
0.0
  0
LWPOLYLINE
  5
D9
  8
grabado linea medio
 62
256
370
-1
 48
1.0
  6
ByLayer
100
AcDbEntity
100
AcDbPolyline
 90
3
 70
0
 10
195.66
 20
89.897875476000024
 30
0.0
 10
195.66
 20
85.256658976200058
 30
0.0
 10
212.00000000000011
 20
85.056658976200296
 30
0.0
  0
LWPOLYLINE
  5
DA
  8
grabado linea medio
 62
256
370
-1
 48
1.0
  6
ByLayer
100
AcDbEntity
100
AcDbPolyline
 90
3
 70
0
 10
185.0
 20
85.257875476000294
 30
0.0
 10
193.13999999999999
 20
85.257875476000294
 30
0.0
 10
193.13999999999999
 20
89.897875476000024
 30
0.0
  0
LWPOLYLINE
  5
DB
  8
grabado linea medio
 62
256
370
-1
 48
1.0
  6
ByLayer
100
AcDbEntity
100
AcDbPolyline
 90
3
 70
0
 10
158.0
 20
25.639999999999709
 30
0.0
 10
166.1400000000001
 20
25.639999999999709
 30
0.0
 10
166.1400000000001
 20
20.999999999999961
 30
0.0
  0
LWPOLYLINE
  5
DC
  8
grabado linea medio
 62
256
370
-1
 48
1.0
  6
ByLayer
100
AcDbEntity
100
AcDbPolyline
 90
3
 70
0
 10
168.66000000000011
 20
20.99999999999995
 30
0.0
 10
168.66000000000011
 20
25.641216499799899
 30
0.0
 10
185.00000000000011
 20
25.8412164997997
 30
0.0
  0
LWPOLYLINE
  5
DD
  8
grabado linea medio
 62
256
370
-1
 48
1.0
  6
ByLayer
100
AcDbEntity
100
AcDbPolyline
 90
8
 70
0
 10
185.00000000000011
 20
48.86999999999972
 30
0.0
 10
168.66000000000011
 20
48.86999999999972
 30
0.0
 10
168.66000000000011
 20
53.509999999999579
 30
0.0
 10
166.1400000000001
 20
53.509999999999579
 30
0.0
 10
166.13999999999999
 20
48.869999999999678
 30
0.0
 10
162.0800000000001
 20
48.86999999999972
 30
0.0
 10
162.0800000000001
 20
40.789999999999772
 30
0.0
 10
158.0
 20
40.789999999999793
 30
0.0
  0
LWPOLYLINE
  5
DE
  8
grabado linea medio
 62
256
370
-1
 48
1.0
  6
ByLayer
100
AcDbEntity
100
AcDbPolyline
 90
8
 70
0
 10
212.0000000001645
 20
48.869999999945712
 30
0.0
 10
228.34000000016451
 20
48.870000000011203
 30
0.0
 10
228.34000000014581
 20
53.510000000011061
 30
0.0
 10
230.8600000001459
 20
53.510000000021151
 30
0.0
 10
230.86000000016449
 20
48.870000000021278
 30
0.0
 10
234.92000000016449
 20
48.870000000037578
 30
0.0
 10
234.92000000019669
 20
40.790000000037637
 30
0.0
 10
239.00000000019699
 20
40.790000000054043
 30
0.0
  0
LWPOLYLINE
  5
DF
  8
grabado linea medio
 62
256
370
-1
 48
1.0
  6
ByLayer
100
AcDbEntity
100
AcDbPolyline
 90
3
 70
0
 10
228.34000000027621
 20
21.00000000001144
 30
0.0
 10
228.34000000025759
 20
25.641216499811389
 30
0.0
 10
212.00000000025679
 20
25.841216499745698
 30
0.0
  0
LWPOLYLINE
  5
E0
  8
grabado linea medio
 62
256
370
-1
 48
1.0
  6
ByLayer
100
AcDbEntity
100
AcDbPolyline
 90
3
 70
0
 10
239.0000000002577
 20
25.640000000053931
 30
0.0
 10
230.8600000002576
 20
25.640000000021288
 30
0.0
 10
230.8600000002761
 20
21.000000000021529
 30
0.0
  0
LWPOLYLINE
  5
E1
  8
Corte exterior
 62
256
370
-1
 48
1.0
  6
ByLayer
100
AcDbEntity
100
AcDbPolyline
 90
8
 70
0
 10
22.199935465314368
 20
140.60589999999991
 30
0.0
 10
11.0
 20
140.60589999999991
 30
0.0
 42
0.4142135623730951
 10
0.9999999999999982
 20
130.60589999999991
 30
0.0
 10
1.0
 20
11.0
 30
0.0
 42
0.4142135623730951
 10
11.0
 20
0.9999999999999982
 30
0.0
 10
125.6755140920759
 20
1.0
 30
0.0
 42
0.4142135623730951
 10
135.6755140920759
 20
11.0
 30
0.0
 10
135.6755140920759
 20
15.34849667932472
 30
0.0
  0
CIRCLE
  5
E2
100
AcDbEntity
100
AcDbCircle
  8
Corte exterior
 62
256
370
-1
 48
1.0
  6
ByLayer
 10
53.415296037645057
 20
149.60589999999979
 30
0.0
 40
1.5
  0
CIRCLE
  5
E3
100
AcDbEntity
100
AcDbCircle
  8
Corte exterior
 62
256
370
-1
 48
1.0
  6
ByLayer
 10
118.9492948108375
 20
149.60589999999979
 30
0.0
 40
1.5
  0
CIRCLE
  5
E4
100
AcDbEntity
100
AcDbCircle
  8
Corte exterior
 62
256
370
-1
 48
1.0
  6
ByLayer
 10
144.67551409207601
 20
149.60589999999979
 30
0.0
 40
1.5
  0
CIRCLE
  5
E5
100
AcDbEntity
100
AcDbCircle
  8
Corte exterior
 62
256
370
-1
 48
1.0
  6
ByLayer
 10
171.5000000000278
 20
76.000000264339391
 30
0.0
 40
1.5
  0
CIRCLE
  5
E6
100
AcDbEntity
100
AcDbCircle
  8
Corte exterior
 62
256
370
-1
 48
1.0
  6
ByLayer
 10
198.5000000000278
 20
34.897875211660583
 30
0.0
 40
1.5
  0
CIRCLE
  5
E7
100
AcDbEntity
100
AcDbCircle
  8
Corte exterior
 62
256
370
-1
 48
1.0
  6
ByLayer
 10
225.50000000002791
 20
76.000000264339519
 30
0.0
 40
1.5
  0
CIRCLE
  5
E8
100
AcDbEntity
100
AcDbCircle
  8
Corte exterior
 62
256
370
-1
 48
1.0
  6
ByLayer
 10
239.72175850366801
 20
144.9584711625821
 30
0.0
 40
1.5
  0
CIRCLE
  5
E9
100
AcDbEntity
100
AcDbCircle
  8
Corte exterior
 62
256
370
-1
 48
1.0
  6
ByLayer
 10
234.8228969250861
 20
122.4646341051168
 30
0.0
 40
1.5
  0
ENDSEC
  0
SECTION
  2
OBJECTS
  0
DICTIONARY
  5
C
100
AcDbDictionary
280
0
281
1
  3
ACAD_GROUP
350
D
  3
ACAD_LAYOUT
350
1A
  3
ACAD_MLINESTYLE
350
17
  3
ACAD_PLOTSETTINGS
350
19
  3
ACAD_PLOTSTYLENAME
350
E
  3
AcDbVariableDictionary
350
EA
  3
QCAD_OBJECTS
350
EB
  0
DICTIONARY
  5
D
100
AcDbDictionary
280
0
281
1
  0
ACDBDICTIONARYWDFLT
  5
E
100
AcDbDictionary
281
1
  3
Normal
350
F
100
AcDbDictionaryWithDefault
340
F
  0
ACDBPLACEHOLDER
  5
F
  0
DICTIONARY
  5
17
100
AcDbDictionary
280
0
281
1
  3
Standard
350
18
  0
MLINESTYLE
  5
18
100
AcDbMlineStyle
  2
STANDARD
 70
0
  3

 62
256
 51
90.0
 52
90.0
 71
2
 49
0.5
 62
256
  6
BYLAYER
 49
-0.5
 62
256
  6
BYLAYER
  0
DICTIONARY
  5
19
100
AcDbDictionary
280
0
281
1
  0
DICTIONARY
  5
1A
100
AcDbDictionary
281
1
  3
Layout1
350
1E
  3
Layout2
350
26
  3
Model
350
22
  0
LAYOUT
  5
1E
100
AcDbPlotSettings
  1

  2
none_device
  4

  6

 40
0.0
 41
0.0
 42
0.0
 43
0.0
 44
0.0
 45
0.0
 46
0.0
 47
0.0
 48
0.0
 49
0.0
140
0.0
141
0.0
142
1.0
143
1.0
 70
688
 72
0
 73
0
 74
5
  7

 75
16
147
1.0
148
0.0
149
0.0
100
AcDbLayout
  1
Layout1
 70
1
 71
1
 10
0.0
 20
0.0
 11
420.0
 21
297.0
 12
0.0
 22
0.0
 32
0.0
 14
100000000000000000000.0
 24
100000000000000000000.0
 34
100000000000000000000.0
 15
-100000000000000000000.0
 25
-100000000000000000000.0
 35
-100000000000000000000.0
146
0.0
 13
0.0
 23
0.0
 33
0.0
 16
1.0
 26
0.0
 36
0.0
 17
0.0
 27
1.0
 37
0.0
 76
0
330
1B
  0
LAYOUT
  5
22
100
AcDbPlotSettings
  1

  2
none_device
  4

  6

 40
0.0
 41
0.0
 42
0.0
 43
0.0
 44
0.0
 45
0.0
 46
0.0
 47
0.0
 48
0.0
 49
0.0
140
0.0
141
0.0
142
1.0
143
1.0
 70
1712
 72
0
 73
0
 74
0
  7

 75
0
147
1.0
148
0.0
149
0.0
100
AcDbLayout
  1
Model
 70
1
 71
0
 10
0.0
 20
0.0
 11
12.0
 21
9.0
 12
0.0
 22
0.0
 32
0.0
 14
0.0
 24
0.0
 34
0.0
 15
0.0
 25
0.0
 35
0.0
146
0.0
 13
0.0
 23
0.0
 33
0.0
 16
1.0
 26
0.0
 36
0.0
 17
0.0
 27
1.0
 37
0.0
 76
0
330
1F
  0
LAYOUT
  5
26
100
AcDbPlotSettings
  1

  2
none_device
  4

  6

 40
0.0
 41
0.0
 42
0.0
 43
0.0
 44
0.0
 45
0.0
 46
0.0
 47
0.0
 48
0.0
 49
0.0
140
0.0
141
0.0
142
1.0
143
1.0
 70
688
 72
0
 73
0
 74
5
  7

 75
16
147
1.0
148
0.0
149
0.0
100
AcDbLayout
  1
Layout2
 70
1
 71
2
 10
0.0
 20
0.0
 11
12.0
 21
9.0
 12
0.0
 22
0.0
 32
0.0
 14
0.0
 24
0.0
 34
0.0
 15
0.0
 25
0.0
 35
0.0
146
0.0
 13
0.0
 23
0.0
 33
0.0
 16
1.0
 26
0.0
 36
0.0
 17
0.0
 27
1.0
 37
0.0
 76
0
330
23
  0
DICTIONARY
  5
EA
100
AcDbDictionary
281
1
  3
DIMASSOC
350
ED
  3
HIDETEXT
350
EC
  0
DICTIONARYVAR
  5
EC
100
DictionaryVariables
280
0
  1
2
  0
DICTIONARYVAR
  5
ED
100
DictionaryVariables
280
0
  1
1
  0
DICTIONARY
  5
EB
100
AcDbDictionary
281
1
  3
ColorSettings/BackgroundColor
350
EE
  3
ColorSettings/ColorMode
350
EF
  3
Grid/DisplayGrid00
350
F0
  3
Grid/DisplayGrid01
350
F1
  3
Grid/DisplayGrid02
350
F2
  3
Grid/DisplayGrid03
350
F3
  3
Grid/GridSpacingX00
350
F4
  3
Grid/GridSpacingX01
350
F5
  3
Grid/GridSpacingX02
350
F6
  3
Grid/GridSpacingX03
350
F7
  3
Grid/GridSpacingY00
350
F8
  3
Grid/GridSpacingY01
350
F9
  3
Grid/GridSpacingY02
350
FA
  3
Grid/GridSpacingY03
350
FB
  3
Grid/IsometricGrid00
350
FC
  3
Grid/IsometricGrid01
350
FD
  3
Grid/IsometricGrid02
350
FE
  3
Grid/IsometricGrid03
350
FF
  3
Grid/IsometricProjection00
350
100
  3
Grid/IsometricProjection01
350
101
  3
Grid/IsometricProjection02
350
102
  3
Grid/IsometricProjection03
350
103
  3
Grid/MetaGridSpacingX00
350
104
  3
Grid/MetaGridSpacingX01
350
105
  3
Grid/MetaGridSpacingX02
350
106
  3
Grid/MetaGridSpacingX03
350
107
  3
Grid/MetaGridSpacingY00
350
108
  3
Grid/MetaGridSpacingY01
350
109
  3
Grid/MetaGridSpacingY02
350
10A
  3
Grid/MetaGridSpacingY03
350
10B
  3
MultiPageSettings/Columns
350
10C
  3
MultiPageSettings/GlueMarginsBottom
350
10D
  3
MultiPageSettings/GlueMarginsLeft
350
10E
  3
MultiPageSettings/GlueMarginsRight
350
10F
  3
MultiPageSettings/GlueMarginsTop
350
110
  3
MultiPageSettings/PrintCropMarks
350
111
  3
MultiPageSettings/Rows
350
112
  3
PageSettings/OffsetX
350
113
  3
PageSettings/OffsetY
350
114
  3
PageSettings/PageOrientation
350
115
  3
PageSettings/PaperHeight
350
116
  3
PageSettings/PaperWidth
350
117
  3
PageSettings/Scale
350
118
  3
PageSettings/ShowPaperBorders
350
119
  3
QCADVersion
350
11A
  3
UnitSettings/PaperUnit
350
11B
  3
ViewportCenter
350
11C
  3
ViewportHeight
350
11D
  3
ViewportWidth
350
11E
  0
XRECORD
  5
EE
330
EB
100
AcDbXrecord
280
1
1000
Blanca
  0
XRECORD
  5
EF
330
EB
100
AcDbXrecord
280
1
1000
FullColor
  0
XRECORD
  5
F0
330
EB
100
AcDbXrecord
280
1
290
1
  0
XRECORD
  5
F1
330
EB
100
AcDbXrecord
280
1
290
1
  0
XRECORD
  5
F2
330
EB
100
AcDbXrecord
280
1
290
1
  0
XRECORD
  5
F3
330
EB
100
AcDbXrecord
280
1
290
1
  0
XRECORD
  5
F4
330
EB
100
AcDbXrecord
280
1
1000
auto
  0
XRECORD
  5
F5
330
EB
100
AcDbXrecord
280
1
1000
auto
  0
XRECORD
  5
F6
330
EB
100
AcDbXrecord
280
1
1000
auto
  0
XRECORD
  5
F7
330
EB
100
AcDbXrecord
280
1
1000
auto
  0
XRECORD
  5
F8
330
EB
100
AcDbXrecord
280
1
1000
auto
  0
XRECORD
  5
F9
330
EB
100
AcDbXrecord
280
1
1000
auto
  0
XRECORD
  5
FA
330
EB
100
AcDbXrecord
280
1
1000
auto
  0
XRECORD
  5
FB
330
EB
100
AcDbXrecord
280
1
1000
auto
  0
XRECORD
  5
FC
330
EB
100
AcDbXrecord
280
1
290
0
  0
XRECORD
  5
FD
330
EB
100
AcDbXrecord
280
1
290
0
  0
XRECORD
  5
FE
330
EB
100
AcDbXrecord
280
1
290
0
  0
XRECORD
  5
FF
330
EB
100
AcDbXrecord
280
1
290
0
  0
XRECORD
  5
100
330
EB
100
AcDbXrecord
280
1
 90
0
  0
XRECORD
  5
101
330
EB
100
AcDbXrecord
280
1
 90
0
  0
XRECORD
  5
102
330
EB
100
AcDbXrecord
280
1
 90
0
  0
XRECORD
  5
103
330
EB
100
AcDbXrecord
280
1
 90
0
  0
XRECORD
  5
104
330
EB
100
AcDbXrecord
280
1
1000
auto
  0
XRECORD
  5
105
330
EB
100
AcDbXrecord
280
1
1000
auto
  0
XRECORD
  5
106
330
EB
100
AcDbXrecord
280
1
1000
auto
  0
XRECORD
  5
107
330
EB
100
AcDbXrecord
280
1
1000
auto
  0
XRECORD
  5
108
330
EB
100
AcDbXrecord
280
1
1000
auto
  0
XRECORD
  5
109
330
EB
100
AcDbXrecord
280
1
1000
auto
  0
XRECORD
  5
10A
330
EB
100
AcDbXrecord
280
1
1000
auto
  0
XRECORD
  5
10B
330
EB
100
AcDbXrecord
280
1
1000
auto
  0
XRECORD
  5
10C
330
EB
100
AcDbXrecord
280
1
 90
1
  0
XRECORD
  5
10D
330
EB
100
AcDbXrecord
280
1
 40
10.0
  0
XRECORD
  5
10E
330
EB
100
AcDbXrecord
280
1
 40
10.0
  0
XRECORD
  5
10F
330
EB
100
AcDbXrecord
280
1
 40
10.0
  0
XRECORD
  5
110
330
EB
100
AcDbXrecord
280
1
 40
10.0
  0
XRECORD
  5
111
330
EB
100
AcDbXrecord
280
1
290
0
  0
XRECORD
  5
112
330
EB
100
AcDbXrecord
280
1
 90
1
  0
XRECORD
  5
113
330
EB
100
AcDbXrecord
280
1
 40
0.0
  0
XRECORD
  5
114
330
EB
100
AcDbXrecord
280
1
 40
0.0
  0
XRECORD
  5
115
330
EB
100
AcDbXrecord
280
1
1000
Portrait
  0
XRECORD
  5
116
330
EB
100
AcDbXrecord
280
1
 40
297.0
  0
XRECORD
  5
117
330
EB
100
AcDbXrecord
280
1
 40
210.0
  0
XRECORD
  5
118
330
EB
100
AcDbXrecord
280
1
1000
1:1
  0
XRECORD
  5
119
330
EB
100
AcDbXrecord
280
1
290
1
  0
XRECORD
  5
11A
330
EB
100
AcDbXrecord
280
1
1000
3.15.2
  0
XRECORD
  5
11B
330
EB
100
AcDbXrecord
280
1
 90
4
  0
XRECORD
  5
11D
330
EB
100
AcDbXrecord
280
1
 40
217.42244634979681
  0
XRECORD
  5
11E
330
EB
100
AcDbXrecord
280
1
 40
473.9258893852533
  0
ENDSEC
  0
EOF
