999
dxflib 3.12.2.0
  0
SECTION
  2
HEADER
  9
$ACADVER
  1
AC1015
  9
$HANDSEED
  5
FFFF
  9
$ANGBASE
 50
0.0
  9
$ATTMODE
 70
1
  9
$AUNITS
 70
0
  9
$AUPREC
 70
0
  9
$CELTSCALE
 40
1.0
  9
$CHAMFERA
 40
0.0
  9
$CHAMFERB
 40
0.0
  9
$CHAMFERC
 40
0.0
  9
$CHAMFERD
 40
0.0
  9
$CMLJUST
 70
0
  9
$CMLSCALE
 40
20.0
  9
$DIMADEC
 70
0
  9
$DIMALTD
 70
3
  9
$DIMALTF
 40
0.03937007874016
  9
$DIMALTRND
 40
0.0
  9
$DIMALTTD
 70
3
  9
$DIMALTTZ
 70
0
  9
$DIMALTU
 70
2
  9
$DIMALTZ
 70
0
  9
$DIMAPOST
  1

  9
$DIMASZ
 40
2.5
  9
$DIMATFIT
 70
3
  9
$DIMAUNIT
 70
0
  9
$DIMAZIN
 70
0
  9
$DIMCEN
 40
2.5
  9
$DIMDEC
 70
2
  9
$DIMDLE
 40
0.0
  9
$DIMDLI
 40
3.75
  9
$DIMDSEP
 70
44
  9
$DIMEXE
 40
1.25
  9
$DIMEXO
 40
0.625
  9
$DIMFRAC
 70
0
  9
$DIMGAP
 40
0.625
  9
$DIMJUST
 70
0
  9
$DIMLFAC
 40
1.0
  9
$DIMLUNIT
 70
2
  9
$DIMLWD
 70
-2
  9
$DIMLWE
 70
-2
  9
$DIMPOST
  1

  9
$DIMRND
 40
0.0
  9
$DIMSCALE
 40
1.0
  9
$DIMTAD
 70
1
  9
$DIMTDEC
 70
2
  9
$DIMTFAC
 40
1.0
  9
$DIMTM
 40
0.0
  9
$DIMTOLJ
 70
0
  9
$DIMTP
 40
0.0
  9
$DIMTSZ
 40
0.0
  9
$DIMTVP
 40
0.0
  9
$DIMTXT
 40
2.5
  9
$DIMTZIN
 70
8
  9
$DIMZIN
 70
8
  9
$DWGCODEPAGE
  3
ANSI_1252
  9
$ELEVATION
 40
0.0
  9
$EXTMAX
 10
66.319353442744145
 20
139.9499999998429
 30
0.0
  9
$EXTMIN
 10
24.50000000000005
 20
80.949997664013154
 30
0.0
  9
$FILLETRAD
 40
0.0
  9
$INSBASE
 10
0.0
 20
0.0
 30
0.0
  9
$INSUNITS
 70
4
  9
$LIMMAX
 10
420.0
 20
297.0
  9
$LIMMIN
 10
0.0
 20
0.0
  9
$LTSCALE
 40
1.0
  9
$LUNITS
 70
2
  9
$LUPREC
 70
4
  9
$MAXACTVP
 70
2
  9
$MEASUREMENT
 70
1
  9
$PDMODE
 70
0
  9
$PDSIZE
 40
0
  9
$PELEVATION
 40
0.0
  9
$PEXTMAX
 10
0.0
 20
0.0
 30
0.0
  9
$PEXTMIN
 10
0.0
 20
0.0
 30
0.0
  9
$PINSBASE
 10
0.0
 20
0.0
 30
0.0
  9
$PLIMMAX
 10
277.0
 20
202.5
  9
$PLIMMIN
 10
-20.0
 20
-7.5
  9
$PLINEWID
 40
0.0
  9
$PROXYGRAPHICS
 70
1
  9
$PUCSORG
 10
0.0
 20
0.0
 30
0.0
  9
$PUCSXDIR
 10
1.0
 20
0.0
 30
0.0
  9
$PUCSYDIR
 10
0.0
 20
1.0
 30
0.0
  9
$SHADEDGE
 70
3
  9
$SHADEDIF
 70
70
  9
$SKETCHINC
 40
1.0
  9
$SPLINESEGS
 70
8
  9
$SPLINETYPE
 70
6
  9
$SURFTAB1
 70
6
  9
$SURFTAB2
 70
6
  9
$SURFTYPE
 70
6
  9
$SURFU
 70
6
  9
$SURFV
 70
6
  9
$TEXTSIZE
 40
2.5
  9
$THICKNESS
 40
0.0
  9
$TRACEWID
 40
1.0
  9
$TREEDEPTH
 70
3020
  9
$UCSORG
 10
0.0
 20
0.0
 30
0.0
  9
$UCSXDIR
 10
1.0
 20
0.0
 30
0.0
  9
$UCSYDIR
 10
0.0
 20
1.0
 30
0.0
  9
$UNITMODE
 70
0
  9
$USERI1
 70
0
  9
$USERI2
 70
0
  9
$USERI3
 70
0
  9
$USERI4
 70
0
  9
$USERI5
 70
0
  9
$USERR1
 40
0.0
  9
$USERR2
 40
0.0
  9
$USERR3
 40
0.0
  9
$USERR4
 40
0.0
  9
$USERR5
 40
0.0
  0
ENDSEC
  0
SECTION
  2
TABLES
  0
TABLE
  2
VPORT
  5
8
100
AcDbSymbolTable
 70
1
  0
VPORT
  5
30
100
AcDbSymbolTableRecord
100
AcDbViewportTableRecord
  2
*Active
 70
0
 10
0.0
 20
0.0
 11
1.0
 21
1.0
 12
286.30555555555549
 22
148.5
 13
0.0
 23
0.0
 14
10.0
 24
10.0
 15
10.0
 25
10.0
 16
0.0
 26
0.0
 36
1.0
 17
0.0
 27
0.0
 37
0.0
 40
297.0
 41
1.92798353909465
 42
50.0
 43
0.0
 44
0.0
 50
0.0
 51
0.0
 71
0
 72
100
 73
1
 74
3
 75
1
 76
1
 77
0
 78
0
281
0
 65
1
110
0.0
120
0.0
130
0.0
111
1.0
121
0.0
131
0.0
112
0.0
122
1.0
132
0.0
 79
0
146
0.0
  0
ENDTAB
  0
TABLE
  2
LTYPE
  5
5
100
AcDbSymbolTable
 70
50
  0
LTYPE
  5
16
100
AcDbSymbolTableRecord
100
AcDbLinetypeTableRecord
  2
Continuous
 70
0
  3
Solid line
 72
65
 73
0
 40
0.0
  0
LTYPE
  5
31
100
AcDbSymbolTableRecord
100
AcDbLinetypeTableRecord
  2
ACAD_ISO15W100
 70
0
  3
ISO double-dash triple-dot __ __ . . . __ __ . .
 72
65
 73
10
 40
39.000000000000007
 49
12.0
 74
0
 49
-3.0
 74
0
 49
12.0
 74
0
 49
-2.9500000000000002
 74
0
 49
0.1
 74
0
 49
-2.8999999999999999
 74
0
 49
0.1
 74
0
 49
-2.8999999999999999
 74
0
 49
0.1
 74
0
 49
-2.9500000000000002
 74
0
  0
LTYPE
  5
32
100
AcDbSymbolTableRecord
100
AcDbLinetypeTableRecord
  2
HOT_WATER_SUPPLY
 70
0
  3
Hot water supply ---- HW ---- HW ---- HW ----
 72
65
 73
3
 40
22.859999999999999
 49
12.699999999999999
 74
0
 49
-5.0800000000000001
 74
0
 49
-5.0800000000000001
 74
0
  0
LTYPE
  5
33
100
AcDbSymbolTableRecord
100
AcDbLinetypeTableRecord
  2
DIVIDE
 70
0
  3
Divide ____ . . ____ . . ____ . . ____ . . ____
 72
65
 73
6
 40
31.749999999999996
 49
12.699999999999999
 74
0
 49
-6.299999999999998
 74
0
 49
0.1
 74
0
 49
-6.25
 74
0
 49
0.1
 74
0
 49
-6.299999999999998
 74
0
  0
LTYPE
  5
34
100
AcDbSymbolTableRecord
100
AcDbLinetypeTableRecord
  2
ACAD_ISO10W100
 70
0
  3
ISO dash dot __ . __ . __ . __ . __ . __ . __ . 
 72
65
 73
4
 40
18.0
 49
12.0
 74
0
 49
-2.9500000000000002
 74
0
 49
0.1
 74
0
 49
-2.9500000000000002
 74
0
  0
LTYPE
  5
35
100
AcDbSymbolTableRecord
100
AcDbLinetypeTableRecord
  2
GAS_LINE
 70
0
  3
Gas line ----GAS----GAS----GAS----GAS----GAS----GAS--
 72
65
 73
3
 40
24.129999999999999
 49
12.699999999999999
 74
0
 49
-5.0800000000000001
 74
0
 49
-6.3499999999999979
 74
0
  0
LTYPE
  5
36
100
AcDbSymbolTableRecord
100
AcDbLinetypeTableRecord
  2
ACAD_ISO04W100
 70
0
  3
ISO long-dash dot ____ . ____ . ____ . ____ . _
 72
65
 73
4
 40
30.0
 49
24.0
 74
0
 49
-2.9500000000000002
 74
0
 49
0.1
 74
0
 49
-2.9500000000000002
 74
0
  0
LTYPE
  5
14
100
AcDbSymbolTableRecord
100
AcDbLinetypeTableRecord
  2
ByBlock
 70
0
  3

 72
65
 73
0
 40
0.0
  0
LTYPE
  5
37
100
AcDbSymbolTableRecord
100
AcDbLinetypeTableRecord
  2
CENTER2
 70
0
  3
Center (.5x) ___ _ ___ _ ___ _ ___ _ ___ _ ___
 72
65
 73
4
 40
28.574999999999992
 49
19.050000000000001
 74
0
 49
-3.174999999999998
 74
0
 49
3.174999999999998
 74
0
 49
-3.174999999999998
 74
0
  0
LTYPE
  5
38
100
AcDbSymbolTableRecord
100
AcDbLinetypeTableRecord
  2
ACAD_ISO11W100
 70
0
  3
ISO double-dash dot __ __ . __ __ . __ __ . __ _
 72
65
 73
6
 40
33.0
 49
12.0
 74
0
 49
-3.0
 74
0
 49
12.0
 74
0
 49
-2.9500000000000002
 74
0
 49
0.1
 74
0
 49
-2.9500000000000002
 74
0
  0
LTYPE
  5
39
100
AcDbSymbolTableRecord
100
AcDbLinetypeTableRecord
  2
HIDDEN2
 70
0
  3
Hidden (.5x) _ _ _ _ _ _ _ _ _ _ _ _ _ _ _ _ _ 
 72
65
 73
2
 40
4.7624999999999975
 49
3.174999999999998
 74
0
 49
-1.587499999999999
 74
0
  0
LTYPE
  5
3A
100
AcDbSymbolTableRecord
100
AcDbLinetypeTableRecord
  2
BORDERX2
 70
0
  3
Border (2x) ____  ____  .  ____  ____  .  ___
 72
65
 73
6
 40
88.899999999999991
 49
25.399999999999999
 74
0
 49
-12.699999999999999
 74
0
 49
25.399999999999999
 74
0
 49
-12.65
 74
0
 49
0.1
 74
0
 49
-12.65
 74
0
  0
LTYPE
  5
3B
100
AcDbSymbolTableRecord
100
AcDbLinetypeTableRecord
  2
ACAD_ISO05W100
 70
0
  3
ISO long-dash double-dot ____ .. ____ .. ____ . 
 72
65
 73
6
 40
33.0
 49
24.0
 74
0
 49
-2.9500000000000002
 74
0
 49
0.1
 74
0
 49
-2.8999999999999999
 74
0
 49
0.1
 74
0
 49
-2.9500000000000002
 74
0
  0
LTYPE
  5
3C
100
AcDbSymbolTableRecord
100
AcDbLinetypeTableRecord
  2
DASHDOTX2
 70
0
  3
Dash dot (2x) ____  .  ____  .  ____  .  ___
 72
65
 73
4
 40
50.799999999999997
 49
25.399999999999999
 74
0
 49
-12.65
 74
0
 49
0.1
 74
0
 49
-12.65
 74
0
  0
LTYPE
  5
3D
100
AcDbSymbolTableRecord
100
AcDbLinetypeTableRecord
  2
HIDDENX2
 70
0
  3
Hidden (2x) ____ ____ ____ ____ ____ ____ ____ 
 72
65
 73
2
 40
19.049999999999997
 49
12.699999999999999
 74
0
 49
-6.3499999999999979
 74
0
  0
LTYPE
  5
3E
100
AcDbSymbolTableRecord
100
AcDbLinetypeTableRecord
  2
CENTERX2
 70
0
  3
Center (2x) ________  __  ________  __  _____
 72
65
 73
4
 40
101.60000000000001
 49
63.5
 74
0
 49
-12.699999999999999
 74
0
 49
12.699999999999999
 74
0
 49
-12.699999999999999
 74
0
  0
LTYPE
  5
3F
100
AcDbSymbolTableRecord
100
AcDbLinetypeTableRecord
  2
BORDER2
 70
0
  3
Border (.5x) __.__.__.__.__.__.__.__.__.__.__.
 72
65
 73
6
 40
22.224999999999994
 49
6.3499999999999979
 74
0
 49
-3.174999999999998
 74
0
 49
6.3499999999999979
 74
0
 49
-3.125
 74
0
 49
0.1
 74
0
 49
-3.125
 74
0
  0
LTYPE
  5
40
100
AcDbSymbolTableRecord
100
AcDbLinetypeTableRecord
  2
DASHDOT2
 70
0
  3
Dash dot (.5x) _._._._._._._._._._._._._._._.
 72
65
 73
4
 40
12.699999999999998
 49
6.3499999999999979
 74
0
 49
-3.125
 74
0
 49
0.1
 74
0
 49
-3.125
 74
0
  0
LTYPE
  5
41
100
AcDbSymbolTableRecord
100
AcDbLinetypeTableRecord
  2
ACAD_ISO12W100
 70
0
  3
ISO dash double-dot __ . . __ . . __ . . __ . . 
 72
65
 73
6
 40
21.0
 49
12.0
 74
0
 49
-2.9500000000000002
 74
0
 49
0.1
 74
0
 49
-2.8999999999999999
 74
0
 49
0.1
 74
0
 49
-2.9500000000000002
 74
0
  0
LTYPE
  5
42
100
AcDbSymbolTableRecord
100
AcDbLinetypeTableRecord
  2
ACAD_ISO07W100
 70
0
  3
ISO dot . . . . . . . . . . . . . . . . . . . . 
 72
65
 73
2
 40
3.0
 49
0.1
 74
0
 49
-2.8999999999999999
 74
0
  0
LTYPE
  5
43
100
AcDbSymbolTableRecord
100
AcDbLinetypeTableRecord
  2
ACAD_ISO06W100
 70
0
  3
ISO long-dash triple-dot ____ ... ____ ... ____
 72
65
 73
8
 40
36.000000000000007
 49
24.0
 74
0
 49
-2.9500000000000002
 74
0
 49
0.1
 74
0
 49
-2.8999999999999999
 74
0
 49
0.1
 74
0
 49
-2.8999999999999999
 74
0
 49
0.1
 74
0
 49
-2.9500000000000002
 74
0
  0
LTYPE
  5
44
100
AcDbSymbolTableRecord
100
AcDbLinetypeTableRecord
  2
CENTER
 70
0
  3
Center ____ _ ____ _ ____ _ ____ _ ____ _ ____
 72
65
 73
4
 40
50.799999999999983
 49
31.75
 74
0
 49
-6.3499999999999979
 74
0
 49
6.3499999999999979
 74
0
 49
-6.3499999999999979
 74
0
  0
LTYPE
  5
45
100
AcDbSymbolTableRecord
100
AcDbLinetypeTableRecord
  2
HIDDEN
 70
0
  3
Hidden __ __ __ __ __ __ __ __ __ __ __ __ __ __
 72
65
 73
2
 40
9.524999999999995
 49
6.3499999999999979
 74
0
 49
-3.174999999999998
 74
0
  0
LTYPE
  5
46
100
AcDbSymbolTableRecord
100
AcDbLinetypeTableRecord
  2
DOTX2
 70
0
  3
Dot (2x) .  .  .  .  .  .  .  .  .  .  .  .  .  .
 72
65
 73
2
 40
12.699999999999999
 49
0.1
 74
0
 49
-12.6
 74
0
  0
LTYPE
  5
47
100
AcDbSymbolTableRecord
100
AcDbLinetypeTableRecord
  2
PHANTOM
 70
0
  3
Phantom ______  __  __  ______  __  __  ______ 
 72
65
 73
6
 40
63.499999999999972
 49
31.75
 74
0
 49
-6.3499999999999979
 74
0
 49
6.3499999999999979
 74
0
 49
-6.3499999999999979
 74
0
 49
6.3499999999999979
 74
0
 49
-6.3499999999999979
 74
0
  0
LTYPE
  5
48
100
AcDbSymbolTableRecord
100
AcDbLinetypeTableRecord
  2
ACAD_ISO08W100
 70
0
  3
ISO long-dash short-dash ____ __ ____ __ ____ _
 72
65
 73
4
 40
36.0
 49
24.0
 74
0
 49
-3.0
 74
0
 49
6.0
 74
0
 49
-3.0
 74
0
  0
LTYPE
  5
49
100
AcDbSymbolTableRecord
100
AcDbLinetypeTableRecord
  2
DASHEDX2
 70
0
  3
Dashed (2x) ____  ____  ____  ____  ____  ___
 72
65
 73
2
 40
38.099999999999994
 49
25.399999999999999
 74
0
 49
-12.699999999999999
 74
0
  0
LTYPE
  5
4A
100
AcDbSymbolTableRecord
100
AcDbLinetypeTableRecord
  2
DRAINAGE
 70
0
  3
Drainage ---->---->---->----
 72
65
 73
2
 40
10.16
 49
5.0800000000000001
 74
0
 49
5.0800000000000001
 74
0
  0
LTYPE
  5
4B
100
AcDbSymbolTableRecord
100
AcDbLinetypeTableRecord
  2
ACAD_ISO02W100
 70
0
  3
ISO dash __ __ __ __ __ __ __ __ __ __ __ __ __
 72
65
 73
2
 40
15.0
 49
12.0
 74
0
 49
-3.0
 74
0
  0
LTYPE
  5
4C
100
AcDbSymbolTableRecord
100
AcDbLinetypeTableRecord
  2
PHANTOM2
 70
0
  3
Phantom (.5x) ___ _ _ ___ _ _ ___ _ _ ___ _ _
 72
65
 73
6
 40
31.749999999999986
 49
15.875
 74
0
 49
-3.174999999999998
 74
0
 49
3.174999999999998
 74
0
 49
-3.174999999999998
 74
0
 49
3.174999999999998
 74
0
 49
-3.174999999999998
 74
0
  0
LTYPE
  5
4D
100
AcDbSymbolTableRecord
100
AcDbLinetypeTableRecord
  2
DASHED2
 70
0
  3
Dashed (.5x) _ _ _ _ _ _ _ _ _ _ _ _ _ _ _ _ _ 
 72
65
 73
2
 40
9.524999999999995
 49
6.3499999999999979
 74
0
 49
-3.174999999999998
 74
0
  0
LTYPE
  5
4E
100
AcDbSymbolTableRecord
100
AcDbLinetypeTableRecord
  2
ACAD_ISO09W100
 70
0
  3
ISO long-dash double-short-dash ____ __ __ ____
 72
65
 73
6
 40
45.0
 49
24.0
 74
0
 49
-3.0
 74
0
 49
6.0
 74
0
 49
-3.0
 74
0
 49
6.0
 74
0
 49
-3.0
 74
0
  0
LTYPE
  5
4F
100
AcDbSymbolTableRecord
100
AcDbLinetypeTableRecord
  2
ACAD_ISO13W100
 70
0
  3
ISO double-dash double-dot __ __ . . __ __ . . _
 72
65
 73
8
 40
36.000000000000007
 49
12.0
 74
0
 49
-3.0
 74
0
 49
12.0
 74
0
 49
-2.9500000000000002
 74
0
 49
0.1
 74
0
 49
-2.8999999999999999
 74
0
 49
0.1
 74
0
 49
-2.9500000000000002
 74
0
  0
LTYPE
  5
50
100
AcDbSymbolTableRecord
100
AcDbLinetypeTableRecord
  2
TRACKS
 70
0
  3
Tracks -|-|-|-|-|-|-|-|-|-|-|-|-|-|-|-|-|-|-|-|-|-|-|-|-
 72
65
 73
2
 40
7.6200000000000001
 49
3.8100000000000001
 74
0
 49
3.8100000000000001
 74
0
  0
LTYPE
  5
51
100
AcDbSymbolTableRecord
100
AcDbLinetypeTableRecord
  2
DRAINAGE2
 70
0
  3
Drainage reversed----<----<----<----
 72
65
 73
2
 40
10.16
 49
5.0800000000000001
 74
0
 49
5.0800000000000001
 74
0
  0
LTYPE
  5
52
100
AcDbSymbolTableRecord
100
AcDbLinetypeTableRecord
  2
DOT2
 70
0
  3
Dot (.5x) ........................................
 72
65
 73
2
 40
3.1750000000000003
 49
0.1
 74
0
 49
-3.0750000000000002
 74
0
  0
LTYPE
  5
53
100
AcDbSymbolTableRecord
100
AcDbLinetypeTableRecord
  2
ZIGZAG
 70
0
  3
Zig zag /\/\/\/\/\/\/\/\/\/\/\/\/\/\/\/\/\/\/\/\/\/\/\/
 72
65
 73
4
 40
20.32254
 49
0.00254
 74
0
 49
-5.0800000000000001
 74
0
 49
-10.16
 74
0
 49
-5.0800000000000001
 74
0
  0
LTYPE
  5
54
100
AcDbSymbolTableRecord
100
AcDbLinetypeTableRecord
  2
DASHED
 70
0
  3
Dashed __ __ __ __ __ __ __ __ __ __ __ __ __ _
 72
65
 73
2
 40
19.049999999999997
 49
12.699999999999999
 74
0
 49
-6.3499999999999979
 74
0
  0
LTYPE
  5
55
100
AcDbSymbolTableRecord
100
AcDbLinetypeTableRecord
  2
ACAD_ISO14W100
 70
0
  3
ISO dash triple-dot __ . . . __ . . . __ . . . _
 72
65
 73
8
 40
24.0
 49
12.0
 74
0
 49
-2.9500000000000002
 74
0
 49
0.1
 74
0
 49
-2.8999999999999999
 74
0
 49
0.1
 74
0
 49
-2.8999999999999999
 74
0
 49
0.1
 74
0
 49
-2.9500000000000002
 74
0
  0
LTYPE
  5
56
100
AcDbSymbolTableRecord
100
AcDbLinetypeTableRecord
  2
PHANTOMX2
 70
0
  3
Phantom (2x) ____________    ____    ____   _
 72
65
 73
6
 40
127.00000000000001
 49
63.5
 74
0
 49
-12.699999999999999
 74
0
 49
12.699999999999999
 74
0
 49
-12.699999999999999
 74
0
 49
12.699999999999999
 74
0
 49
-12.699999999999999
 74
0
  0
LTYPE
  5
57
100
AcDbSymbolTableRecord
100
AcDbLinetypeTableRecord
  2
DIVIDEX2
 70
0
  3
Divide (2x) ________  .  .  ________  .  .  _
 72
65
 73
6
 40
63.5
 49
25.399999999999999
 74
0
 49
-12.65
 74
0
 49
0.1
 74
0
 49
-12.6
 74
0
 49
0.1
 74
0
 49
-12.65
 74
0
  0
LTYPE
  5
58
100
AcDbSymbolTableRecord
100
AcDbLinetypeTableRecord
  2
BORDER
 70
0
  3
Border __ __ . __ __ . __ __ . __ __ . __ __ .
 72
65
 73
6
 40
44.449999999999996
 49
12.699999999999999
 74
0
 49
-6.3499999999999979
 74
0
 49
12.699999999999999
 74
0
 49
-6.299999999999998
 74
0
 49
0.1
 74
0
 49
-6.299999999999998
 74
0
  0
LTYPE
  5
59
100
AcDbSymbolTableRecord
100
AcDbLinetypeTableRecord
  2
DIVIDE2
 70
0
  3
Divide (.5x) __..__..__..__..__..__..__..__.._
 72
65
 73
6
 40
15.874999999999998
 49
6.3499999999999979
 74
0
 49
-3.125
 74
0
 49
0.1
 74
0
 49
-3.0750000000000002
 74
0
 49
0.1
 74
0
 49
-3.125
 74
0
  0
LTYPE
  5
5A
100
AcDbSymbolTableRecord
100
AcDbLinetypeTableRecord
  2
DOT
 70
0
  3
Dot . . . . . . . . . . . . . . . . . . . . . . . .
 72
65
 73
2
 40
6.3499999999999996
 49
0.1
 74
0
 49
-6.25
 74
0
  0
LTYPE
  5
5B
100
AcDbSymbolTableRecord
100
AcDbLinetypeTableRecord
  2
DASHDOT
 70
0
  3
Dash dot __ . __ . __ . __ . __ . __ . __ . __
 72
65
 73
4
 40
25.399999999999995
 49
12.699999999999999
 74
0
 49
-6.299999999999998
 74
0
 49
0.1
 74
0
 49
-6.299999999999998
 74
0
  0
LTYPE
  5
5C
100
AcDbSymbolTableRecord
100
AcDbLinetypeTableRecord
  2
FENCELINE1
 70
0
  3
Fenceline circle ----0-----0----0-----0----0-----0--
 72
65
 73
4
 40
36.829999999999998
 49
6.3499999999999979
 74
0
 49
-2.54
 74
0
 49
-2.54
 74
0
 49
25.399999999999999
 74
0
  0
LTYPE
  5
5D
100
AcDbSymbolTableRecord
100
AcDbLinetypeTableRecord
  2
BATTING
 70
0
  3
Batting SSSSSSSSSSSSSSSSSSSSSSSSSSSSSSSSSSSSSSSSSSSSSSS
 72
65
 73
4
 40
10.16254
 49
0.00254
 74
0
 49
-2.54
 74
0
 49
-5.0800000000000001
 74
0
 49
-2.54
 74
0
  0
LTYPE
  5
5E
100
AcDbSymbolTableRecord
100
AcDbLinetypeTableRecord
  2
ACAD_ISO03W100
 70
0
  3
ISO dash space __    __    __    __    __    __
 72
65
 73
2
 40
30.0
 49
12.0
 74
0
 49
-18.0
 74
0
  0
LTYPE
  5
15
100
AcDbSymbolTableRecord
100
AcDbLinetypeTableRecord
  2
ByLayer
 70
0
  3

 72
65
 73
0
 40
0.0
  0
LTYPE
  5
5F
100
AcDbSymbolTableRecord
100
AcDbLinetypeTableRecord
  2
FENCELINE2
 70
0
  3
Fenceline square ----[]-----[]----[]-----[]----[]---
 72
65
 73
4
 40
36.829999999999998
 49
6.3499999999999979
 74
0
 49
-2.54
 74
0
 49
-2.54
 74
0
 49
25.399999999999999
 74
0
  0
ENDTAB
  0
TABLE
  2
LAYER
  5
2
100
AcDbSymbolTable
 70
5
  0
LAYER
  5
60
100
AcDbSymbolTableRecord
100
AcDbLayerTableRecord
  2
grabado linea medio
 70
0
 62
3
420
65280
  6
Continuous
370
-3
390
F
  0
LAYER
  5
61
100
AcDbSymbolTableRecord
100
AcDbLayerTableRecord
  2
Grabado Superficie
 70
0
 62
30
420
16744192
  6
Continuous
370
25
390
F
  0
LAYER
  5
62
100
AcDbSymbolTableRecord
100
AcDbLayerTableRecord
  2
mesa de trabajo y auxiliares
 70
0
 62
7
420
16777215
  6
Continuous
370
-3
390
F
  0
LAYER
  5
63
100
AcDbSymbolTableRecord
100
AcDbLayerTableRecord
  2
Corte exterior
 70
0
 62
1
420
16711680
  6
Continuous
370
-3
390
F
  0
LAYER
  5
10
100
AcDbSymbolTableRecord
100
AcDbLayerTableRecord
  2
0
 70
0
 62
7
420
16777215
  6
Continuous
370
-3
390
F
  0
ENDTAB
  0
TABLE
  2
STYLE
  5
3
100
AcDbSymbolTable
 70
1
  0
STYLE
  5
64
100
AcDbSymbolTableRecord
100
AcDbTextStyleTableRecord
  2
Standard
 70
0
 40
0.0
 41
1.0
 50
0.0
 71
0
 42
2.5
  3

  4

1001
ACAD
1000
txt
1071
0
  0
ENDTAB
  0
TABLE
  2
VIEW
  5
6
100
AcDbSymbolTable
 70
0
  0
ENDTAB
  0
TABLE
  2
UCS
  5
7
100
AcDbSymbolTable
 70
0
  0
ENDTAB
  0
TABLE
  2
APPID
  5
9
100
AcDbSymbolTable
 70
1
  0
APPID
  5
12
100
AcDbSymbolTableRecord
100
AcDbRegAppTableRecord
  2
ACAD
 70
0
  0
APPID
  5
65
100
AcDbSymbolTableRecord
100
AcDbRegAppTableRecord
  2
QCAD
 70
0
  0
ENDTAB
  0
TABLE
  2
DIMSTYLE
  5
A
100
AcDbSymbolTable
 70
1
100
AcDbDimStyleTable
 71
0
  0
DIMSTYLE
105
27
100
AcDbSymbolTableRecord
100
AcDbDimStyleTableRecord
  2
Standard
 41
2.5
 42
0.625
 43
3.75
 44
1.25
 70
0
 73
0
 74
0
 77
1
 78
8
140
2.5
141
2.5
143
0.03937007874016
147
0.625
171
3
172
1
271
2
272
2
274
3
278
44
283
0
284
8
340
64
  0
ENDTAB
  0
TABLE
  2
BLOCK_RECORD
  5
1
100
AcDbSymbolTable
 70
1
  0
BLOCK_RECORD
  5
1F
100
AcDbSymbolTableRecord
100
AcDbBlockTableRecord
  2
*Model_Space
340
22
  0
BLOCK_RECORD
  5
1B
100
AcDbSymbolTableRecord
100
AcDbBlockTableRecord
  2
*Paper_Space
340
1E
  0
BLOCK_RECORD
  5
23
100
AcDbSymbolTableRecord
100
AcDbBlockTableRecord
  2
*Paper_Space0
340
26
  0
ENDTAB
  0
ENDSEC
  0
SECTION
  2
BLOCKS
  0
BLOCK
  5
20
100
AcDbEntity
  8
0
100
AcDbBlockBegin
  2
*Model_Space
 70
0
 10
0.0
 20
0.0
 30
0.0
  3
*Model_Space
  1

  0
ENDBLK
  5
21
100
AcDbEntity
  8
0
100
AcDbBlockEnd
  0
BLOCK
  5
1C
100
AcDbEntity
 67
1
  8
0
100
AcDbBlockBegin
  2
*Paper_Space
 70
0
 10
0.0
 20
0.0
 30
0.0
  3
*Paper_Space
  1

  0
ENDBLK
  5
1D
100
AcDbEntity
 67
1
  8
0
100
AcDbBlockEnd
  0
BLOCK
  5
24
100
AcDbEntity
  8
0
100
AcDbBlockBegin
  2
*Paper_Space0
 70
0
 10
0.0
 20
0.0
 30
0.0
  3
*Paper_Space0
  1

  0
ENDBLK
  5
25
100
AcDbEntity
  8
0
100
AcDbBlockEnd
  0
ENDSEC
  0
SECTION
  2
ENTITIES
  0
CIRCLE
  5
66
100
AcDbEntity
100
AcDbCircle
  8
Corte exterior
 62
256
370
-1
 48
1.0
  6
ByLayer
 10
15.5
 20
138.5
 30
0.0
 40
8.0
  0
CIRCLE
  5
67
100
AcDbEntity
100
AcDbCircle
  8
Corte exterior
 62
256
370
-1
 48
1.0
  6
ByLayer
 10
28.499999999999989
 20
120.0
 30
0.0
 40
6.0
  0
LINE
  5
68
100
AcDbEntity
100
AcDbLine
  8
grabado linea medio
 62
256
370
-1
 48
1.0
  6
ByLayer
 10
16.800000000000001
 20
58.19999999999996
 30
0.0
 11
69.999999999999986
 21
58.199999999999953
 31
0.0
  0
CIRCLE
  5
69
100
AcDbEntity
100
AcDbCircle
  8
Corte exterior
 62
256
370
-1
 48
1.0
  6
ByLayer
 10
41.5
 20
138.5
 30
0.0
 40
8.0
  0
LWPOLYLINE
  5
6A
  8
mesa de trabajo y auxiliares
 62
256
370
-1
 48
1.0
  6
ByLayer
100
AcDbEntity
100
AcDbPolyline
 90
4
 70
129
 10
0.0
 20
0.0
 30
0.0
 10
150.0
 20
0.0
 30
0.0
 10
150.0
 20
160.0
 30
0.0
 10
0.0
 20
160.0
 30
0.0
  0
LWPOLYLINE
  5
6B
  8
mesa de trabajo y auxiliares
 62
256
370
-1
 48
1.0
  6
ByLayer
100
AcDbEntity
100
AcDbPolyline
 90
9
 70
0
 10
23.5
 20
148.5
 30
0.0
 10
6.0
 20
148.5
 30
0.0
 10
6.0
 20
128.5
 30
0.0
 10
51.0
 20
128.5
 30
0.0
 10
51.0
 20
148.5
 30
0.0
 10
33.5
 20
148.5
 30
0.0
 10
33.5
 20
153.0
 30
0.0
 10
23.5
 20
153.0
 30
0.0
 10
23.5
 20
148.5
 30
0.0
  0
LWPOLYLINE
  5
6C
  8
mesa de trabajo y auxiliares
 62
256
370
-1
 48
1.0
  6
ACAD_ISO02W100
100
AcDbEntity
100
AcDbPolyline
 90
4
 70
129
 10
1.0
 20
1.0
 30
0.0
 10
149.0
 20
1.0
 30
0.0
 10
149.0
 20
159.0
 30
0.0
 10
1.0
 20
159.0
 30
0.0
  0
LWPOLYLINE
  5
6D
  8
mesa de trabajo y auxiliares
 62
256
370
-1
 48
1.0
  6
ByLayer
100
AcDbEntity
100
AcDbPolyline
 90
9
 70
0
 10
18.600000000000001
 20
112.3
 30
0.0
 10
38.100000000000001
 20
112.3
 30
0.0
 10
38.100000000000001
 20
127.7
 30
0.0
 10
18.600000000000001
 20
127.7
 30
0.0
 10
18.600000000000001
 20
125.0
 30
0.0
 10
1.899999999999997
 20
125.0
 30
0.0
 10
1.899999999999997
 20
115.0
 30
0.0
 10
18.600000000000001
 20
115.0
 30
0.0
 10
18.600000000000001
 20
112.3
 30
0.0
  0
LWPOLYLINE
  5
6E
  8
0
 62
256
370
-1
 48
1.0
  6
ByLayer
100
AcDbEntity
100
AcDbPolyline
 90
2
 70
129
 10
4.9289367104940105
 20
33.43898305084744
 30
0.0
 42
1.1866605518454381
 10
8.8710632895059938
 20
33.43898305084744
 30
0.0
 42
5.8146367040426279
  0
LWPOLYLINE
  5
6F
  8
mesa de trabajo y auxiliares
 62
256
370
-1
 48
1.0
  6
ByLayer
100
AcDbEntity
100
AcDbPolyline
 90
2
 70
129
 10
77.928936710493986
 20
33.438983050847447
 30
0.0
 42
1.1866605518454381
 10
81.87106328950594
 20
33.438983050847447
 30
0.0
 42
5.8146367040426279
  0
LINE
  5
70
100
AcDbEntity
100
AcDbLine
  8
mesa de trabajo y auxiliares
 62
256
370
-1
 48
1.0
  6
ByLayer
 10
149.0
 20
80.0
 30
0.0
 11
85.800000000000026
 21
80.0
 31
0.0
  0
CIRCLE
  5
71
100
AcDbEntity
100
AcDbCircle
  8
Corte exterior
 62
256
370
-1
 48
1.0
  6
ByLayer
 10
9.9000000000000021
 20
10.0
 30
0.0
 40
4.5
  0
CIRCLE
  5
72
100
AcDbEntity
100
AcDbCircle
  8
Corte exterior
 62
256
370
-1
 48
1.0
  6
ByLayer
 10
76.900000000000006
 20
10.000000000000011
 30
0.0
 40
4.5
  0
CIRCLE
  5
73
100
AcDbEntity
100
AcDbCircle
  8
Corte exterior
 62
256
370
-1
 48
1.0
  6
ByLayer
 10
63.449999999614207
 20
123.6999999999701
 30
0.0
 40
3.5000023361045431
  0
CIRCLE
  5
74
100
AcDbEntity
100
AcDbCircle
  8
Corte exterior
 62
256
370
-1
 48
1.0
  6
ByLayer
 10
63.449999999614207
 20
112.3000000000299
 30
0.0
 40
3.5000023361045431
  0
CIRCLE
  5
75
100
AcDbEntity
100
AcDbCircle
  8
Corte exterior
 62
256
370
-1
 48
1.0
  6
ByLayer
 10
38.750000000000021
 20
99.350000000000023
 30
0.0
 40
3.5000023362265691
  0
CIRCLE
  5
76
100
AcDbEntity
100
AcDbCircle
  8
Corte exterior
 62
256
370
-1
 48
1.0
  6
ByLayer
 10
38.750000000000021
 20
84.450000000000031
 30
0.0
 40
3.5000023362921771
  0
CIRCLE
  5
77
100
AcDbEntity
100
AcDbCircle
  8
Corte exterior
 62
256
370
-1
 48
1.0
  6
ByLayer
 10
12.599999999999961
 20
99.350000000000023
 30
0.0
 40
1.0
  0
CIRCLE
  5
78
100
AcDbEntity
100
AcDbCircle
  8
Corte exterior
 62
256
370
-1
 48
1.0
  6
ByLayer
 10
12.599999999999961
 20
84.450000000000003
 30
0.0
 40
1.0
  0
CIRCLE
  5
79
100
AcDbEntity
100
AcDbCircle
  8
Corte exterior
 62
256
370
-1
 48
1.0
  6
ByLayer
 10
6.9000000000000039
 20
47.599999999999973
 30
0.0
 40
0.5
  0
CIRCLE
  5
7A
100
AcDbEntity
100
AcDbCircle
  8
Corte exterior
 62
256
370
-1
 48
1.0
  6
ByLayer
 10
6.9000000000000039
 20
18.999999999999993
 30
0.0
 40
0.5
  0
CIRCLE
  5
7B
100
AcDbEntity
100
AcDbCircle
  8
Corte exterior
 62
256
370
-1
 48
1.0
  6
ByLayer
 10
79.899999999999963
 20
19.0
 30
0.0
 40
0.5
  0
CIRCLE
  5
7C
100
AcDbEntity
100
AcDbCircle
  8
Corte exterior
 62
256
370
-1
 48
1.0
  6
ByLayer
 10
79.899999999999963
 20
47.59999999999998
 30
0.0
 40
0.5
  0
LWPOLYLINE
  5
7D
  8
Corte exterior
 62
256
370
-1
 48
1.0
  6
ByLayer
100
AcDbEntity
100
AcDbPolyline
 90
3
 70
0
 10
14.14999999999999
 20
106.8
 30
0.0
 42
1.0
 10
14.150000000000009
 20
91.900000000000006
 30
0.0
 42
0.9999999999999998
 10
14.149999999999981
 20
77.0
 30
0.0
  0
LWPOLYLINE
  5
7E
  8
Corte exterior
 62
256
370
-1
 48
1.0
  6
ByLayer
100
AcDbEntity
100
AcDbPolyline
 90
9
 70
0
 10
21.500000000000039
 20
101.8000000000001
 30
0.0
 10
21.500000000000039
 20
106.8
 30
0.0
 10
19.749999999999989
 20
106.8
 30
0.0
 10
19.749999999999989
 20
109.8
 30
0.0
 10
37.25
 20
109.8
 30
0.0
 10
37.249999999999957
 20
106.8
 30
0.0
 10
47.249999999999993
 20
106.8
 30
0.0
 10
47.249999999999957
 20
109.8
 30
0.0
 10
55.999999999999993
 20
109.8
 30
0.0
  0
LWPOLYLINE
  5
7F
  8
Corte exterior
 62
256
370
-1
 48
1.0
  6
ByLayer
100
AcDbEntity
100
AcDbPolyline
 90
5
 70
0
 10
56.000000000000007
 20
129.40000000000001
 30
0.0
 10
57.948383384947597
 20
122.2092905645368
 30
0.0
 42
0.7651006711409393
 10
68.951616615052458
 20
122.2092905645368
 30
0.0
 10
70.90000000000002
 20
129.40000000000001
 30
0.0
 10
70.90000000000002
 20
156.9999999999998
 30
0.0
  0
LWPOLYLINE
  5
80
  8
grabado linea medio
 62
256
370
-1
 48
1.0
  6
ByLayer
100
AcDbEntity
100
AcDbPolyline
 90
18
 70
1
 10
115.69830754420079
 20
117.35962064800052
 30
0.0
 10
115.69830754420079
 20
125.69962064800043
 30
0.0
 10
111.05830754420099
 20
125.69962064800043
 30
0.0
 10
111.05830754420097
 20
128.21962064800053
 30
0.0
 10
115.69952404400101
 20
128.2196206480005
 30
0.0
 10
115.89952404400076
 20
144.55962064800048
 30
0.0
 10
138.92830754420089
 20
144.55962064800042
 30
0.0
 10
138.92830754420089
 20
128.21962064800053
 30
0.0
 10
143.56830754420076
 20
128.21962064800053
 30
0.0
 10
143.56830754420076
 20
125.69962064800043
 30
0.0
 10
138.92830754420089
 20
125.6996206480004
 30
0.0
 10
138.92830754420092
 20
121.63962064800043
 30
0.0
 10
130.84830754420096
 20
121.63962064800049
 30
0.0
 10
130.84830754420096
 20
117.3596206480005
 30
0.0
 10
123.92330754420081
 20
117.3596206480005
 30
0.0
 10
123.92330754420078
 20
114.40962064800044
 30
0.0
 10
119.12330754420097
 20
114.40962064800047
 30
0.0
 10
119.12330754420098
 20
117.35962064800052
 30
0.0
  0
LWPOLYLINE
  5
81
  8
grabado linea medio
 62
256
370
-1
 48
1.0
  6
ByLayer
100
AcDbEntity
100
AcDbPolyline
 90
18
 70
1
 10
115.69830754420077
 20
42.640379351999506
 30
0.0
 10
115.69830754420077
 20
34.300379351999595
 30
0.0
 10
111.05830754420097
 20
34.300379351999595
 30
0.0
 10
111.05830754420097
 20
31.780379351999507
 30
0.0
 10
115.69952404400098
 20
31.780379351999507
 30
0.0
 10
115.89952404400077
 20
15.440379351999578
 30
0.0
 10
138.92830754420089
 20
15.440379351999578
 30
0.0
 10
138.92830754420089
 20
31.780379351999507
 30
0.0
 10
143.56830754420076
 20
31.780379351999507
 30
0.0
 10
143.56830754420076
 20
34.300379351999595
 30
0.0
 10
138.92830754420089
 20
34.300379351999595
 30
0.0
 10
138.92830754420089
 20
38.360379351999548
 30
0.0
 10
130.84830754420096
 20
38.360379351999548
 30
0.0
 10
130.84830754420096
 20
42.640379351999506
 30
0.0
 10
123.92330754420078
 20
42.640379351999506
 30
0.0
 10
123.92330754420078
 20
45.590379351999559
 30
0.0
 10
119.12330754420097
 20
45.590379351999559
 30
0.0
 10
119.12330754420097
 20
42.640379351999506
 30
0.0
  0
LWPOLYLINE
  5
82
  8
Corte exterior
 62
256
370
-1
 48
1.0
  6
ByLayer
100
AcDbEntity
100
AcDbPolyline
 90
3
 70
0
 10
14.149999999999981
 20
91.900000000000034
 30
0.0
 10
21.50000000000005
 20
91.900000000000034
 30
0.0
 10
21.50000000000005
 20
86.900000000000105
 30
0.0
  0
LWPOLYLINE
  5
83
  8
Corte exterior
 62
256
370
-1
 48
1.0
  6
ByLayer
100
AcDbEntity
100
AcDbPolyline
 90
4
 70
1
 10
114.04478324940101
 20
152.00962064800001
 30
0.0
 10
114.04478324940102
 20
155.0096206479999
 30
0.0
 10
119.04478324940101
 20
155.00962064799992
 30
0.0
 10
119.04478324940098
 20
152.00962064800004
 30
0.0
  0
LWPOLYLINE
  5
84
  8
Corte exterior
 62
256
370
-1
 48
1.0
  6
ByLayer
100
AcDbEntity
100
AcDbPolyline
 90
4
 70
1
 10
114.04478324940098
 20
7.9903793519999908
 30
0.0
 10
114.04478324940098
 20
4.9903793520001045
 30
0.0
 10
119.04478324940098
 20
4.9903793520001045
 30
0.0
 10
119.04478324940098
 20
7.9903793519999908
 30
0.0
  0
LWPOLYLINE
  5
85
  8
Corte exterior
 62
256
370
-1
 48
1.0
  6
ByLayer
100
AcDbEntity
100
AcDbPolyline
 90
4
 70
1
 10
124.04478324940104
 20
152.00962064800001
 30
0.0
 10
124.04478324940098
 20
155.00962064799995
 30
0.0
 10
129.04478324940101
 20
155.0096206479999
 30
0.0
 10
129.04478324940098
 20
152.00962064800001
 30
0.0
  0
LWPOLYLINE
  5
86
  8
Corte exterior
 62
256
370
-1
 48
1.0
  6
ByLayer
100
AcDbEntity
100
AcDbPolyline
 90
4
 70
1
 10
124.04478324940098
 20
7.9903793519999908
 30
0.0
 10
124.04478324940098
 20
4.9903793520001045
 30
0.0
 10
129.04478324940095
 20
4.9903793520001045
 30
0.0
 10
129.04478324940095
 20
7.9903793519999908
 30
0.0
  0
LWPOLYLINE
  5
87
  8
Corte exterior
 62
256
370
-1
 48
1.0
  6
ByLayer
100
AcDbEntity
100
AcDbPolyline
 90
5
 70
0
 10
21.500000000000039
 20
106.8
 30
0.0
 10
56.000000000000007
 20
106.8
 30
0.0
 10
56.000000000000007
 20
77.000000000000071
 30
0.0
 10
21.500000000000028
 20
77.000000000000071
 30
0.0
 10
21.500000000000011
 20
82.000000000000085
 30
0.0
  0
LWPOLYLINE
  5
88
  8
Corte exterior
 62
256
370
-1
 48
1.0
  6
ByLayer
100
AcDbEntity
100
AcDbPolyline
 90
4
 70
0
 10
56.000000000000007
 20
86.900000000000034
 30
0.0
 10
52.999999999999972
 20
86.900000000000034
 30
0.0
 10
52.999999999999972
 20
82.000000000000085
 30
0.0
 10
56.000000000000007
 20
82.000000000000085
 30
0.0
  0
LWPOLYLINE
  5
89
  8
Corte exterior
 62
256
370
-1
 48
1.0
  6
ByLayer
100
AcDbEntity
100
AcDbPolyline
 90
4
 70
1
 10
24.500000000000011
 20
82.000000000000085
 30
0.0
 10
18.5
 20
82.000000000000014
 30
0.0
 10
18.500000000000071
 20
86.900000000000063
 30
0.0
 10
24.500000000000089
 20
86.900000000000034
 30
0.0
  0
LWPOLYLINE
  5
8A
  8
Corte exterior
 62
256
370
-1
 48
1.0
  6
ByLayer
100
AcDbEntity
100
AcDbPolyline
 90
4
 70
0
 10
56.000000000000007
 20
101.8
 30
0.0
 10
53.0
 20
101.8
 30
0.0
 10
53.0
 20
96.900000000000034
 30
0.0
 10
56.000000000000007
 20
96.900000000000034
 30
0.0
  0
LWPOLYLINE
  5
8B
  8
Corte exterior
 62
256
370
-1
 48
1.0
  6
ByLayer
100
AcDbEntity
100
AcDbPolyline
 90
8
 70
0
 10
56.000000000000007
 20
91.900000000000034
 30
0.0
 10
21.500000000000039
 20
91.900000000000034
 30
0.0
 10
21.500000000000028
 20
96.900000000000034
 30
0.0
 10
24.50000000000011
 20
96.900000000000034
 30
0.0
 10
24.500000000000039
 20
101.8000000000001
 30
0.0
 10
18.499999999999972
 20
101.8
 30
0.0
 10
18.499999999999961
 20
96.900000000000034
 30
0.0
 10
21.50000000000005
 20
96.900000000000034
 30
0.0
  0
LWPOLYLINE
  5
8C
  8
Corte exterior
 62
256
370
-1
 48
1.0
  6
ByLayer
100
AcDbEntity
100
AcDbPolyline
 90
2
 70
1
 10
132.3682418050235
 20
67.859568451823492
 30
0.0
 42
0.8824933649241211
 10
140.20254481812589
 20
71.702811439383169
 30
0.0
 42
0.7191800687061291
  0
LWPOLYLINE
  5
8D
  8
Corte exterior
 62
256
370
-1
 48
1.0
  6
ByLayer
100
AcDbEntity
100
AcDbPolyline
 90
2
 70
1
 10
140.20254481812589
 20
88.297188560617059
 30
0.0
 42
0.8824933649241263
 10
132.3682418050235
 20
92.140431548176522
 30
0.0
 42
0.7191800687061284
  0
LWPOLYLINE
  5
8E
  8
Corte exterior
 62
256
370
-1
 48
1.0
  6
ByLayer
100
AcDbEntity
100
AcDbPolyline
 90
2
 70
1
 10
112.63641412097139
 20
61.613790106428212
 30
0.0
 42
0.8914237602154047
 10
113.4878402597539
 20
71.61804723712217
 30
0.0
 42
0.9501277936529096
  0
LWPOLYLINE
  5
8F
  8
Corte exterior
 62
256
370
-1
 48
1.0
  6
ByLayer
100
AcDbEntity
100
AcDbPolyline
 90
2
 70
1
 10
113.48784025975399
 20
88.381952762877802
 30
0.0
 42
0.8914237602154035
 10
112.63641412097139
 20
98.386209893571944
 30
0.0
 42
0.9501277936529099
  0
LWPOLYLINE
  5
90
  8
Corte exterior
 62
256
370
-1
 48
1.0
  6
ByLayer
100
AcDbEntity
100
AcDbPolyline
 90
2
 70
1
 10
93.692182533061739
 20
58.633798620689618
 30
0.0
 42
0.5564535339393278
 10
93.905039067757372
 20
71.61804723712217
 30
0.0
 42
0.3857119228751151
  0
LWPOLYLINE
  5
91
  8
Corte exterior
 62
256
370
-1
 48
1.0
  6
ByLayer
100
AcDbEntity
100
AcDbPolyline
 90
2
 70
1
 10
93.905039067757372
 20
88.381952762877802
 30
0.0
 42
0.5564535339393273
 10
93.692182533061739
 20
101.3662013793104
 30
0.0
 42
0.3857119228751151
  0
LWPOLYLINE
  5
92
  8
Corte exterior
 62
256
370
-1
 48
1.0
  6
ByLayer
100
AcDbEntity
100
AcDbPolyline
 90
4
 70
1
 10
62.149999999999991
 20
68.0
 30
0.0
 10
52.149999999999977
 20
68.0
 30
0.0
 10
52.149999999999991
 20
71.0
 30
0.0
 10
62.149999999999977
 20
70.999999999999986
 30
0.0
  0
LWPOLYLINE
  5
93
  8
Corte exterior
 62
256
370
-1
 48
1.0
  6
ByLayer
100
AcDbEntity
100
AcDbPolyline
 90
4
 70
1
 10
34.649999999999999
 20
71.0
 30
0.0
 10
34.649999999999999
 20
68.0
 30
0.0
 10
24.649999999999999
 20
68.0
 30
0.0
 10
24.649999999999999
 20
71.0
 30
0.0
  0
LWPOLYLINE
  5
94
  8
Corte exterior
 62
256
370
-1
 48
1.0
  6
ByLayer
100
AcDbEntity
100
AcDbPolyline
 90
14
 70
0
 10
19.749999999999989
 20
106.8
 30
0.0
 10
9.749999999999984
 20
106.8
 30
0.0
 10
9.749999999999984
 20
109.8
 30
0.0
 10
0.9999999999999856
 20
109.8
 30
0.0
 10
1.176241855726436
 20
148.0235144666467
 30
0.0
 42
-0.378027899435923
 10
10.0
 20
159.0
 30
0.0
 42
0.2912006872009452
 10
10.0
 20
152.0
 30
0.0
 42
-0.1856776554368217
 10
22.0
 20
159.0
 30
0.0
 42
0.4142135623731928
 10
22.0
 20
154.0
 30
0.0
 42
-0.1322605765246413
 10
31.000000000000021
 20
159.0
 30
0.0
 42
0.2360679774997991
 10
37.0
 20
151.0
 30
0.0
 42
-0.1644436537586192
 10
53.0
 20
159.0
 30
0.0
 42
0.3023133421411055
 10
55.141606949359982
 20
147.78168636645009
 30
0.0
 42
-0.1964161234365709
 10
56.000000000000007
 20
145.6808485158644
 30
0.0
  0
LWPOLYLINE
  5
95
  8
Corte exterior
 62
256
370
-1
 48
1.0
  6
ByLayer
100
AcDbEntity
100
AcDbPolyline
 90
12
 70
0
 10
85.799999999999983
 20
129.40000000000001
 30
0.0
 10
85.799999999999983
 20
106.60000000000019
 30
0.0
 10
85.800000000000026
 20
79.000000000000028
 30
0.0
 10
80.799999999999983
 20
79.000000000000028
 30
0.0
 10
80.799999999999983
 20
77.000000000000014
 30
0.0
 10
75.900000000000006
 20
76.999999999999972
 30
0.0
 10
75.900000000000006
 20
79.000000000000028
 30
0.0
 10
65.900000000000006
 20
79.000000000000028
 30
0.0
 10
65.900000000000006
 20
77.0
 30
0.0
 10
61.000000000000007
 20
77.000000000000014
 30
0.0
 10
61.000000000000007
 20
79.000000000000028
 30
0.0
 10
56.000000000000007
 20
79.000000000000028
 30
0.0
  0
LWPOLYLINE
  5
96
  8
Corte exterior
 62
256
370
-1
 48
1.0
  6
ByLayer
100
AcDbEntity
100
AcDbPolyline
 90
5
 70
0
 10
70.90000000000002
 20
79.000000000000028
 30
0.0
 10
70.899999999999977
 20
106.59999999999999
 30
0.0
 10
72.848383384947553
 20
113.7907094354633
 30
0.0
 42
-0.7651006711409405
 10
83.851616615052407
 20
113.7907094354632
 30
0.0
 10
85.800000000000026
 20
106.59999999999999
 30
0.0
  0
LWPOLYLINE
  5
97
  8
Corte exterior
 62
256
370
-1
 48
1.0
  6
ByLayer
100
AcDbEntity
100
AcDbPolyline
 90
13
 70
0
 10
85.799999999999983
 20
11.0
 30
0.0
 42
0.4142135623730951
 10
95.799999999999997
 20
0.9999999999999982
 30
0.0
 10
139.0
 20
0.9999999999999982
 30
0.0
 42
0.4142135623730951
 10
149.0
 20
11.0
 30
0.0
 10
149.0
 20
59.99999999999995
 30
0.0
 42
0.2656469426822704
 10
138.64591478273181
 20
78.741445328320324
 30
0.0
 42
0.2517259397845539
 10
132.9726456361997
 20
79.045560677897015
 30
0.0
 42
0.2450231371223293
 10
126.3324198906673
 20
70.321042867252629
 30
0.0
 42
0.2870520331916466
 10
114.8306438449066
 20
78.648723277157984
 30
0.0
 42
0.4016015091141744
 10
104.01043666454621
 20
71.021364117231784
 30
0.0
 42
0.2763648614740333
 10
94.322144501934943
 20
78.43077147225965
 30
0.0
 42
0.0957862549036757
 10
93.186566638647065
 20
78.34274057162645
 30
0.0
 42
0.3376272734093892
 10
85.799999999999983
 20
68.650757204733566
 30
0.0
  0
LWPOLYLINE
  5
98
  8
Corte exterior
 62
256
370
-1
 48
1.0
  6
ByLayer
100
AcDbEntity
100
AcDbPolyline
 90
17
 70
0
 10
85.799999999999983
 20
91.349242795266406
 30
0.0
 42
0.3376272734093879
 10
93.186566638647065
 20
81.657259428373536
 30
0.0
 42
0.0957862549036754
 10
94.322144501934986
 20
81.56922852774062
 30
0.0
 42
0.2763648614740332
 10
104.01043666454621
 20
88.978635882768288
 30
0.0
 42
0.4016015091141746
 10
114.8306438449065
 20
81.351276722842115
 30
0.0
 42
0.2870520331916459
 10
126.3324198906673
 20
89.678957132747328
 30
0.0
 42
0.2450231371223274
 10
132.97264563619959
 20
80.954439322102985
 30
0.0
 42
0.2517259397845552
 10
138.64591478273181
 20
81.258554671679576
 30
0.0
 42
0.2656469426822718
 10
149.0
 20
100.0
 30
0.0
 10
149.0
 20
149.0
 30
0.0
 42
0.4142135623730951
 10
139.0
 20
159.0
 30
0.0
 10
95.799999999999997
 20
159.0
 30
0.0
 42
0.4142135623730951
 10
85.799999999999983
 20
149.0
 30
0.0
 10
85.799999999999983
 20
129.40000000000001
 30
0.0
 10
83.851616615052407
 20
122.2092905645368
 30
0.0
 42
-0.7651006711409404
 10
72.848383384947553
 20
122.2092905645368
 30
0.0
 10
70.90000000000002
 20
129.40000000000001
 30
0.0
  0
LWPOLYLINE
  5
99
  8
Corte exterior
 62
256
370
-1
 48
1.0
  6
ByLayer
100
AcDbEntity
100
AcDbPolyline
 90
12
 70
0
 10
85.799999999999983
 20
149.0
 30
0.0
 10
85.800000000000026
 20
156.9999999999998
 30
0.0
 10
80.799999999999983
 20
156.9999999999998
 30
0.0
 10
80.800000000000026
 20
159.0
 30
0.0
 10
75.900000000000006
 20
158.9999999999998
 30
0.0
 10
75.900000000000006
 20
156.9999999999998
 30
0.0
 10
65.900000000000006
 20
156.9999999999998
 30
0.0
 10
65.900000000000006
 20
158.9999999999998
 30
0.0
 10
61.000000000000007
 20
159.0
 30
0.0
 10
61.000000000000007
 20
156.9999999999998
 30
0.0
 10
56.000000000000007
 20
156.9999999999998
 30
0.0
 10
56.000000000000007
 20
80.000000000000057
 30
0.0
  0
LWPOLYLINE
  5
9A
  8
Corte exterior
 62
256
370
-1
 48
1.0
  6
ByLayer
100
AcDbEntity
100
AcDbPolyline
 90
4
 70
0
 10
70.90000000000002
 20
106.59999999999999
 30
0.0
 10
68.95161661505243
 20
113.7907094354633
 30
0.0
 42
0.7651006711409381
 10
57.948383384947597
 20
113.7907094354633
 30
0.0
 10
56.000000000000007
 20
106.59999999999999
 30
0.0
  0
LINE
  5
9B
100
AcDbEntity
100
AcDbLine
  8
Corte exterior
 62
256
370
-1
 48
1.0
  6
ByLayer
 10
1.0
 20
1.0000000000000011
 30
0.0
 11
85.799999999999983
 21
1.0000000000000011
 31
0.0
  0
LINE
  5
9C
100
AcDbEntity
100
AcDbLine
  8
Corte exterior
 62
256
370
-1
 48
1.0
  6
ByLayer
 10
0.9999999999999965
 20
77.0
 30
0.0
 11
1.0
 21
1.0000000000000011
 31
0.0
  0
LINE
  5
9D
100
AcDbEntity
100
AcDbLine
  8
Corte exterior
 62
256
370
-1
 48
1.0
  6
ByLayer
 10
85.799999999999983
 20
77.0
 30
0.0
 11
0.9999999999999965
 21
77.0
 31
0.0
  0
LINE
  5
9E
100
AcDbEntity
100
AcDbLine
  8
Corte exterior
 62
256
370
-1
 48
1.0
  6
ByLayer
 10
85.799999999999983
 20
1.0000000000000011
 30
0.0
 11
85.799999999999983
 21
77.0
 31
0.0
  0
LINE
  5
9F
100
AcDbEntity
100
AcDbLine
  8
Corte exterior
 62
256
370
-1
 48
1.0
  6
ByLayer
 10
12.800000000000013
 20
44.899999999999984
 30
0.0
 11
1.0
 21
44.899999999999984
 31
0.0
  0
LINE
  5
A0
100
AcDbEntity
100
AcDbLine
  8
Corte exterior
 62
256
370
-1
 48
1.0
  6
ByLayer
 10
12.800000000000013
 20
21.699999999999992
 30
0.0
 11
12.800000000000013
 21
44.899999999999984
 31
0.0
  0
LINE
  5
A1
100
AcDbEntity
100
AcDbLine
  8
Corte exterior
 62
256
370
-1
 48
1.0
  6
ByLayer
 10
1.0
 20
21.699999999999992
 30
0.0
 11
12.800000000000013
 21
21.699999999999992
 31
0.0
  0
LINE
  5
A2
100
AcDbEntity
100
AcDbLine
  8
Corte exterior
 62
256
370
-1
 48
1.0
  6
ByLayer
 10
73.999999999999943
 20
21.699999999999999
 30
0.0
 11
85.799999999999983
 21
21.699999999999999
 31
0.0
  0
LINE
  5
A3
100
AcDbEntity
100
AcDbLine
  8
Corte exterior
 62
256
370
-1
 48
1.0
  6
ByLayer
 10
73.999999999999943
 20
44.899999999999991
 30
0.0
 11
73.999999999999943
 21
21.699999999999999
 31
0.0
  0
LINE
  5
A4
100
AcDbEntity
100
AcDbLine
  8
Corte exterior
 62
256
370
-1
 48
1.0
  6
ByLayer
 10
85.799999999999983
 20
44.899999999999991
 30
0.0
 11
73.999999999999943
 21
44.899999999999991
 31
0.0
  0
LWPOLYLINE
  5
A5
  8
grabado linea medio
 62
256
370
-1
 48
1.0
  6
ByLayer
100
AcDbEntity
100
AcDbPolyline
 90
4
 70
0
 10
85.799999999999983
 20
21.699999999999999
 30
0.0
 10
85.799999999999983
 20
17.0
 30
0.0
 10
73.999999999999943
 20
17.0
 30
0.0
 10
73.999999999999943
 20
21.699999999999999
 30
0.0
  0
LWPOLYLINE
  5
A6
  8
grabado linea medio
 62
256
370
-1
 48
1.0
  6
ByLayer
100
AcDbEntity
100
AcDbPolyline
 90
4
 70
0
 10
85.799999999999983
 20
44.899999999999991
 30
0.0
 10
85.799999999999983
 20
49.600000000000001
 30
0.0
 10
73.999999999999943
 20
49.600000000000001
 30
0.0
 10
73.999999999999943
 20
44.899999999999991
 30
0.0
  0
LWPOLYLINE
  5
A7
  8
grabado linea medio
 62
256
370
-1
 48
1.0
  6
ByLayer
100
AcDbEntity
100
AcDbPolyline
 90
4
 70
0
 10
1.0
 20
21.699999999999992
 30
0.0
 10
1.0
 20
16.999999999999993
 30
0.0
 10
12.800000000000013
 20
16.999999999999993
 30
0.0
 10
12.800000000000013
 20
21.699999999999992
 30
0.0
  0
LWPOLYLINE
  5
A8
  8
grabado linea medio
 62
256
370
-1
 48
1.0
  6
ByLayer
100
AcDbEntity
100
AcDbPolyline
 90
4
 70
0
 10
12.800000000000013
 20
44.899999999999984
 30
0.0
 10
12.800000000000013
 20
49.599999999999994
 30
0.0
 10
1.0
 20
49.599999999999994
 30
0.0
 10
1.0
 20
44.899999999999984
 30
0.0
  0
LWPOLYLINE
  5
A9
  8
grabado linea medio
 62
256
370
-1
 48
1.0
  6
ByLayer
100
AcDbEntity
100
AcDbPolyline
 90
6
 70
0
 10
70.000000000000014
 20
1.0000000000000031
 30
0.0
 10
70.0
 20
44.899999999999991
 30
0.0
 10
70.000000000000014
 20
58.199999999999989
 30
0.0
 10
16.800000000000001
 20
58.199999999999989
 30
0.0
 10
16.800000000000001
 20
44.899999999999991
 30
0.0
 10
16.79999999999999
 20
0.9999999999999708
 30
0.0
  0
LWPOLYLINE
  5
AA
  8
grabado linea medio
 62
256
370
-1
 48
1.0
  6
ByLayer
100
AcDbEntity
100
AcDbPolyline
 90
4
 70
1
 10
52.399999999999991
 20
47.699999999999967
 30
0.0
 10
52.399999999999991
 20
0.9999999999999992
 30
0.0
 10
34.400000000000013
 20
0.9999999999999955
 30
0.0
 10
34.399999999999977
 20
47.700000000000003
 30
0.0
  0
LWPOLYLINE
  5
AB
  8
Grabado Superficie
 62
256
370
15
 48
1.0
  6
Continuous
100
AcDbEntity
100
AcDbPolyline
 90
8
 70
1
 10
24.50000000000011
 20
97.345022451297055
 30
0.0
 10
24.50000000000005
 20
101.354974699303
 30
0.0
 10
36.745793083988652
 20
102.2193502730053
 30
0.0
 42
-0.3146638421839835
 10
40.75420371585848
 20
102.219352508656
 30
0.0
 10
53.0
 20
101.354974699303
 30
0.0
 10
53.0
 20
97.345022451297027
 30
0.0
 10
40.754202378062629
 20
96.480646557195854
 30
0.0
 42
-0.3146632795655273
 10
36.745797621999053
 20
96.480646557198625
 30
0.0
  0
LWPOLYLINE
  5
AC
  8
Grabado Superficie
 62
256
370
15
 48
1.0
  6
Continuous
100
AcDbEntity
100
AcDbPolyline
 90
8
 70
1
 10
52.999999999999972
 20
82.445022451297064
 30
0.0
 10
53.0
 20
86.454974699303094
 30
0.0
 10
40.754203715875661
 20
87.319352508680652
 30
0.0
 42
0.3146638421839854
 10
36.745793083957921
 20
87.31935027304938
 30
0.0
 10
24.500000000000089
 20
86.454974699303051
 30
0.0
 10
24.50000000000011
 20
82.445022451297092
 30
0.0
 10
36.745797621908913
 20
81.580646557202812
 30
0.0
 42
0.3146632795655264
 10
40.75420237799937
 20
81.580646557200978
 30
0.0
  0
LWPOLYLINE
  5
AD
  8
Grabado Superficie
 62
256
370
15
 48
1.0
  6
Continuous
100
AcDbEntity
100
AcDbPolyline
 90
4
 70
1
 10
66.319353442744145
 20
110.2957976220391
 30
0.0
 42
-0.5213019457005227
 10
60.580647491307673
 20
110.29579628374189
 30
0.0
 10
61.454965198599083
 20
97.909179346700057
 30
0.0
 42
0.9319025500975811
 10
65.445037650563151
 20
97.90917934667398
 30
0.0
  0
LWPOLYLINE
  5
AE
  8
Grabado Superficie
 62
256
370
15
 48
1.0
  6
Continuous
100
AcDbEntity
100
AcDbPolyline
 90
5
 70
0
 10
66.319353442701996
 20
125.70420237938851
 30
0.0
 10
65.445037650563151
 20
138.0908206533262
 30
0.0
 42
0.9319025500976055
 10
61.454965198599069
 20
138.0908206533
 30
0.0
 10
60.58064749120966
 20
125.70420371486971
 30
0.0
 42
-0.5213019457005245
 10
66.319353442609255
 20
125.7042023793237
 30
0.0
  0
CIRCLE
  5
AF
100
AcDbEntity
100
AcDbCircle
  8
Corte exterior
 62
256
370
-1
 48
1.0
  6
ByLayer
 10
78.34999999999998
 20
123.7
 30
0.0
 40
2.4500000000000002
  0
CIRCLE
  5
B0
100
AcDbEntity
100
AcDbCircle
  8
Corte exterior
 62
256
370
-1
 48
1.0
  6
ByLayer
 10
78.34999999999998
 20
112.3000000000001
 30
0.0
 40
2.4500000000000002
  0
ENDSEC
  0
SECTION
  2
OBJECTS
  0
DICTIONARY
  5
C
100
AcDbDictionary
280
0
281
1
  3
ACAD_GROUP
350
D
  3
ACAD_LAYOUT
350
1A
  3
ACAD_MLINESTYLE
350
17
  3
ACAD_PLOTSETTINGS
350
19
  3
ACAD_PLOTSTYLENAME
350
E
  3
AcDbVariableDictionary
350
B1
  3
QCAD_OBJECTS
350
B2
  0
DICTIONARY
  5
D
100
AcDbDictionary
280
0
281
1
  0
ACDBDICTIONARYWDFLT
  5
E
100
AcDbDictionary
281
1
  3
Normal
350
F
100
AcDbDictionaryWithDefault
340
F
  0
ACDBPLACEHOLDER
  5
F
  0
DICTIONARY
  5
17
100
AcDbDictionary
280
0
281
1
  3
Standard
350
18
  0
MLINESTYLE
  5
18
100
AcDbMlineStyle
  2
STANDARD
 70
0
  3

 62
256
 51
90.0
 52
90.0
 71
2
 49
0.5
 62
256
  6
BYLAYER
 49
-0.5
 62
256
  6
BYLAYER
  0
DICTIONARY
  5
19
100
AcDbDictionary
280
0
281
1
  0
DICTIONARY
  5
1A
100
AcDbDictionary
281
1
  3
Layout1
350
1E
  3
Layout2
350
26
  3
Model
350
22
  0
LAYOUT
  5
1E
100
AcDbPlotSettings
  1

  2
none_device
  4

  6

 40
0.0
 41
0.0
 42
0.0
 43
0.0
 44
0.0
 45
0.0
 46
0.0
 47
0.0
 48
0.0
 49
0.0
140
0.0
141
0.0
142
1.0
143
1.0
 70
688
 72
0
 73
0
 74
5
  7

 75
16
147
1.0
148
0.0
149
0.0
100
AcDbLayout
  1
Layout1
 70
1
 71
1
 10
0.0
 20
0.0
 11
420.0
 21
297.0
 12
0.0
 22
0.0
 32
0.0
 14
100000000000000000000.0
 24
100000000000000000000.0
 34
100000000000000000000.0
 15
-100000000000000000000.0
 25
-100000000000000000000.0
 35
-100000000000000000000.0
146
0.0
 13
0.0
 23
0.0
 33
0.0
 16
1.0
 26
0.0
 36
0.0
 17
0.0
 27
1.0
 37
0.0
 76
0
330
1B
  0
LAYOUT
  5
22
100
AcDbPlotSettings
  1

  2
none_device
  4

  6

 40
0.0
 41
0.0
 42
0.0
 43
0.0
 44
0.0
 45
0.0
 46
0.0
 47
0.0
 48
0.0
 49
0.0
140
0.0
141
0.0
142
1.0
143
1.0
 70
1712
 72
0
 73
0
 74
0
  7

 75
0
147
1.0
148
0.0
149
0.0
100
AcDbLayout
  1
Model
 70
1
 71
0
 10
0.0
 20
0.0
 11
12.0
 21
9.0
 12
0.0
 22
0.0
 32
0.0
 14
0.0
 24
0.0
 34
0.0
 15
0.0
 25
0.0
 35
0.0
146
0.0
 13
0.0
 23
0.0
 33
0.0
 16
1.0
 26
0.0
 36
0.0
 17
0.0
 27
1.0
 37
0.0
 76
0
330
1F
  0
LAYOUT
  5
26
100
AcDbPlotSettings
  1

  2
none_device
  4

  6

 40
0.0
 41
0.0
 42
0.0
 43
0.0
 44
0.0
 45
0.0
 46
0.0
 47
0.0
 48
0.0
 49
0.0
140
0.0
141
0.0
142
1.0
143
1.0
 70
688
 72
0
 73
0
 74
5
  7

 75
16
147
1.0
148
0.0
149
0.0
100
AcDbLayout
  1
Layout2
 70
1
 71
2
 10
0.0
 20
0.0
 11
12.0
 21
9.0
 12
0.0
 22
0.0
 32
0.0
 14
0.0
 24
0.0
 34
0.0
 15
0.0
 25
0.0
 35
0.0
146
0.0
 13
0.0
 23
0.0
 33
0.0
 16
1.0
 26
0.0
 36
0.0
 17
0.0
 27
1.0
 37
0.0
 76
0
330
23
  0
DICTIONARY
  5
B1
100
AcDbDictionary
281
1
  3
DIMASSOC
350
B4
  3
HIDETEXT
350
B3
  0
DICTIONARYVAR
  5
B3
100
DictionaryVariables
280
0
  1
2
  0
DICTIONARYVAR
  5
B4
100
DictionaryVariables
280
0
  1
1
  0
DICTIONARY
  5
B2
100
AcDbDictionary
281
1
  3
ColorSettings/BackgroundColor
350
B5
  3
ColorSettings/ColorMode
350
B6
  3
Grid/DisplayGrid00
350
B7
  3
Grid/DisplayGrid01
350
B8
  3
Grid/DisplayGrid02
350
B9
  3
Grid/DisplayGrid03
350
BA
  3
Grid/GridSpacingX00
350
BB
  3
Grid/GridSpacingX01
350
BC
  3
Grid/GridSpacingX02
350
BD
  3
Grid/GridSpacingX03
350
BE
  3
Grid/GridSpacingY00
350
BF
  3
Grid/GridSpacingY01
350
C0
  3
Grid/GridSpacingY02
350
C1
  3
Grid/GridSpacingY03
350
C2
  3
Grid/IsometricGrid00
350
C3
  3
Grid/IsometricGrid01
350
C4
  3
Grid/IsometricGrid02
350
C5
  3
Grid/IsometricGrid03
350
C6
  3
Grid/IsometricProjection00
350
C7
  3
Grid/IsometricProjection01
350
C8
  3
Grid/IsometricProjection02
350
C9
  3
Grid/IsometricProjection03
350
CA
  3
Grid/MetaGridSpacingX00
350
CB
  3
Grid/MetaGridSpacingX01
350
CC
  3
Grid/MetaGridSpacingX02
350
CD
  3
Grid/MetaGridSpacingX03
350
CE
  3
Grid/MetaGridSpacingY00
350
CF
  3
Grid/MetaGridSpacingY01
350
D0
  3
Grid/MetaGridSpacingY02
350
D1
  3
Grid/MetaGridSpacingY03
350
D2
  3
MultiPageSettings/Columns
350
D3
  3
MultiPageSettings/GlueMarginsBottom
350
D4
  3
MultiPageSettings/GlueMarginsLeft
350
D5
  3
MultiPageSettings/GlueMarginsRight
350
D6
  3
MultiPageSettings/GlueMarginsTop
350
D7
  3
MultiPageSettings/PrintCropMarks
350
D8
  3
MultiPageSettings/Rows
350
D9
  3
PageSettings/OffsetX
350
DA
  3
PageSettings/OffsetY
350
DB
  3
PageSettings/PageOrientation
350
DC
  3
PageSettings/PaperHeight
350
DD
  3
PageSettings/PaperWidth
350
DE
  3
PageSettings/Scale
350
DF
  3
PageSettings/ShowPaperBorders
350
E0
  3
QCADVersion
350
E1
  3
UnitSettings/PaperUnit
350
E2
  3
ViewportCenter
350
E3
  3
ViewportHeight
350
E4
  3
ViewportWidth
350
E5
  0
XRECORD
  5
B5
330
B2
100
AcDbXrecord
280
1
1000
#ffffff
  0
XRECORD
  5
B6
330
B2
100
AcDbXrecord
280
1
1000
FullColor
  0
XRECORD
  5
B7
330
B2
100
AcDbXrecord
280
1
290
1
  0
XRECORD
  5
B8
330
B2
100
AcDbXrecord
280
1
290
1
  0
XRECORD
  5
B9
330
B2
100
AcDbXrecord
280
1
290
1
  0
XRECORD
  5
BA
330
B2
100
AcDbXrecord
280
1
290
1
  0
XRECORD
  5
BB
330
B2
100
AcDbXrecord
280
1
1000
auto
  0
XRECORD
  5
BC
330
B2
100
AcDbXrecord
280
1
1000
auto
  0
XRECORD
  5
BD
330
B2
100
AcDbXrecord
280
1
1000
auto
  0
XRECORD
  5
BE
330
B2
100
AcDbXrecord
280
1
1000
auto
  0
XRECORD
  5
BF
330
B2
100
AcDbXrecord
280
1
1000
auto
  0
XRECORD
  5
C0
330
B2
100
AcDbXrecord
280
1
1000
auto
  0
XRECORD
  5
C1
330
B2
100
AcDbXrecord
280
1
1000
auto
  0
XRECORD
  5
C2
330
B2
100
AcDbXrecord
280
1
1000
auto
  0
XRECORD
  5
C3
330
B2
100
AcDbXrecord
280
1
290
0
  0
XRECORD
  5
C4
330
B2
100
AcDbXrecord
280
1
290
0
  0
XRECORD
  5
C5
330
B2
100
AcDbXrecord
280
1
290
0
  0
XRECORD
  5
C6
330
B2
100
AcDbXrecord
280
1
290
0
  0
XRECORD
  5
C7
330
B2
100
AcDbXrecord
280
1
 90
0
  0
XRECORD
  5
C8
330
B2
100
AcDbXrecord
280
1
 90
0
  0
XRECORD
  5
C9
330
B2
100
AcDbXrecord
280
1
 90
0
  0
XRECORD
  5
CA
330
B2
100
AcDbXrecord
280
1
 90
0
  0
XRECORD
  5
CB
330
B2
100
AcDbXrecord
280
1
1000
auto
  0
XRECORD
  5
CC
330
B2
100
AcDbXrecord
280
1
1000
auto
  0
XRECORD
  5
CD
330
B2
100
AcDbXrecord
280
1
1000
auto
  0
XRECORD
  5
CE
330
B2
100
AcDbXrecord
280
1
1000
auto
  0
XRECORD
  5
CF
330
B2
100
AcDbXrecord
280
1
1000
auto
  0
XRECORD
  5
D0
330
B2
100
AcDbXrecord
280
1
1000
auto
  0
XRECORD
  5
D1
330
B2
100
AcDbXrecord
280
1
1000
auto
  0
XRECORD
  5
D2
330
B2
100
AcDbXrecord
280
1
1000
auto
  0
XRECORD
  5
D3
330
B2
100
AcDbXrecord
280
1
 90
1
  0
XRECORD
  5
D4
330
B2
100
AcDbXrecord
280
1
 40
10.0
  0
XRECORD
  5
D5
330
B2
100
AcDbXrecord
280
1
 40
10.0
  0
XRECORD
  5
D6
330
B2
100
AcDbXrecord
280
1
 40
10.0
  0
XRECORD
  5
D7
330
B2
100
AcDbXrecord
280
1
 40
10.0
  0
XRECORD
  5
D8
330
B2
100
AcDbXrecord
280
1
290
0
  0
XRECORD
  5
D9
330
B2
100
AcDbXrecord
280
1
 90
1
  0
XRECORD
  5
DA
330
B2
100
AcDbXrecord
280
1
 40
0.0
  0
XRECORD
  5
DB
330
B2
100
AcDbXrecord
280
1
 40
0.0
  0
XRECORD
  5
DC
330
B2
100
AcDbXrecord
280
1
1000
Portrait
  0
XRECORD
  5
DD
330
B2
100
AcDbXrecord
280
1
 40
279.39999999999998
  0
XRECORD
  5
DE
330
B2
100
AcDbXrecord
280
1
 40
215.90000000000001
  0
XRECORD
  5
DF
330
B2
100
AcDbXrecord
280
1
1000
1:1
  0
XRECORD
  5
E0
330
B2
100
AcDbXrecord
280
1
290
1
  0
XRECORD
  5
E1
330
B2
100
AcDbXrecord
280
1
1000
3.15.2
  0
XRECORD
  5
E2
330
B2
100
AcDbXrecord
280
1
 90
4
  0
XRECORD
  5
E4
330
B2
100
AcDbXrecord
280
1
 40
220.77821428571428
  0
XRECORD
  5
E5
330
B2
100
AcDbXrecord
280
1
 40
492.46125000000001
  0
ENDSEC
  0
EOF
