999
dxflib 3.12.2.0
  0
SECTION
  2
HEADER
  9
$ACADVER
  1
AC1015
  9
$HANDSEED
  5
FFFF
  9
$ANGBASE
 50
0.0
  9
$ANGDIR
 70
0
  9
$ATTMODE
 70
1
  9
$AUNITS
 70
0
  9
$AUPREC
 70
0
  9
$CECOLOR
 62
256
  9
$CELTSCALE
 40
1.0
  9
$CHAMFERA
 40
0.0
  9
$CHAMFERB
 40
0.0
  9
$CHAMFERC
 40
0.0
  9
$CHAMFERD
 40
0.0
  9
$CMLJUST
 70
0
  9
$CMLSCALE
 40
20.0
  9
$DIMADEC
 70
0
  9
$DIMALT
 70
0
  9
$DIMALTD
 70
3
  9
$DIMALTF
 40
0.03937007874016
  9
$DIMALTRND
 40
0.0
  9
$DIMALTTD
 70
3
  9
$DIMALTTZ
 70
0
  9
$DIMALTU
 70
2
  9
$DIMALTZ
 70
0
  9
$DIMAPOST
  1

  9
$DIMASZ
 40
2.5
  9
$DIMATFIT
 70
3
  9
$DIMAUNIT
 70
0
  9
$DIMAZIN
 70
0
  9
$DIMBLK
  1

  9
$DIMBLK1
  1

  9
$DIMBLK2
  1

  9
$DIMCEN
 40
2.5
  9
$DIMCLRD
 70
0
  9
$DIMCLRE
 70
0
  9
$DIMCLRT
 70
0
  9
$DIMDEC
 70
2
  9
$DIMDLE
 40
0.0
  9
$DIMDLI
 40
3.75
  9
$DIMDSEP
 70
44
  9
$DIMEXE
 40
1.25
  9
$DIMEXO
 40
0.625
  9
$DIMFRAC
 70
0
  9
$DIMGAP
 40
0.625
  9
$DIMJUST
 70
0
  9
$DIMLDRBLK
  1

  9
$DIMLFAC
 40
1.0
  9
$DIMLIM
 70
0
  9
$DIMLUNIT
 70
2
  9
$DIMLWD
 70
-2
  9
$DIMLWE
 70
-2
  9
$DIMPOST
  1

  9
$DIMRND
 40
0.0
  9
$DIMSAH
 70
0
  9
$DIMSCALE
 40
1.0
  9
$DIMSD1
 70
0
  9
$DIMSD2
 70
0
  9
$DIMSE1
 70
0
  9
$DIMSE2
 70
0
  9
$DIMSOXD
 70
0
  9
$DIMTAD
 70
1
  9
$DIMTDEC
 70
2
  9
$DIMTFAC
 40
1.0
  9
$DIMTIH
 70
1
  9
$DIMTIX
 70
0
  9
$DIMTM
 40
0.0
  9
$DIMTOFL
 70
0
  9
$DIMTOH
 70
1
  9
$DIMTOL
 70
0
  9
$DIMTOLJ
 70
0
  9
$DIMTP
 40
0.0
  9
$DIMTSZ
 40
0.0
  9
$DIMTVP
 40
0.0
  9
$DIMTXSTY
  7
Standard
  9
$DIMTXT
 40
2.5
  9
$DIMTZIN
 70
8
  9
$DIMUPT
 70
0
  9
$DIMZIN
 70
8
  9
$DISPSILH
 70
0
  9
$DWGCODEPAGE
  3
ANSI_1252
  9
$ELEVATION
 40
0.0
  9
$EXTMAX
 10
150.0
 20
160.0
 30
0.0
  9
$EXTMIN
 10
0.0
 20
0.0
 30
0.0
  9
$FILLETRAD
 40
0.0
  9
$FILLMODE
 70
1
  9
$INSBASE
 10
0.0
 20
0.0
 30
0.0
  9
$INSUNITS
 70
4
  9
$LIMCHECK
 70
0
  9
$LIMMAX
 10
420.0
 20
297.0
  9
$LIMMIN
 10
0.0
 20
0.0
  9
$LTSCALE
 40
1.0
  9
$LUNITS
 70
2
  9
$LUPREC
 70
4
  9
$MAXACTVP
 70
2
  9
$MEASUREMENT
 70
1
  9
$MIRRTEXT
 70
0
  9
$ORTHOMODE
 70
0
  9
$PDMODE
 70
0
  9
$PDSIZE
 40
0
  9
$PELEVATION
 40
0.0
  9
$PEXTMAX
 10
0.0
 20
0.0
 30
0.0
  9
$PEXTMIN
 10
0.0
 20
0.0
 30
0.0
  9
$PINSBASE
 10
0.0
 20
0.0
 30
0.0
  9
$PLIMCHECK
 70
0
  9
$PLIMMAX
 10
277.0
 20
202.5
  9
$PLIMMIN
 10
-20.0
 20
-7.5
  9
$PLINEGEN
 70
0
  9
$PLINEWID
 40
0.0
  9
$PROXYGRAPHICS
 70
1
  9
$PSLTSCALE
 70
1
  9
$PUCSNAME
  2

  9
$PUCSORG
 10
0.0
 20
0.0
 30
0.0
  9
$PUCSXDIR
 10
1.0
 20
0.0
 30
0.0
  9
$PUCSYDIR
 10
0.0
 20
1.0
 30
0.0
  9
$QTEXTMODE
 70
0
  9
$REGENMODE
 70
1
  9
$SHADEDGE
 70
3
  9
$SHADEDIF
 70
70
  9
$SKETCHINC
 40
1.0
  9
$SKPOLY
 70
0
  9
$SPLFRAME
 70
0
  9
$SPLINESEGS
 70
8
  9
$SPLINETYPE
 70
6
  9
$SURFTAB1
 70
6
  9
$SURFTAB2
 70
6
  9
$SURFTYPE
 70
6
  9
$SURFU
 70
6
  9
$SURFV
 70
6
  9
$TEXTSIZE
 40
2.5
  9
$TEXTSTYLE
  7
Standard
  9
$THICKNESS
 40
0.0
  9
$TILEMODE
 70
1
  9
$TRACEWID
 40
1.0
  9
$TREEDEPTH
 70
3020
  9
$UCSNAME
  2

  9
$UCSORG
 10
0.0
 20
0.0
 30
0.0
  9
$UCSXDIR
 10
1.0
 20
0.0
 30
0.0
  9
$UCSYDIR
 10
0.0
 20
1.0
 30
0.0
  9
$UNITMODE
 70
0
  9
$USERI1
 70
0
  9
$USERI2
 70
0
  9
$USERI3
 70
0
  9
$USERI4
 70
0
  9
$USERI5
 70
0
  9
$USERR1
 40
0.0
  9
$USERR2
 40
0.0
  9
$USERR3
 40
0.0
  9
$USERR4
 40
0.0
  9
$USERR5
 40
0.0
  9
$USRTIMER
 70
1
  9
$VISRETAIN
 70
1
  0
ENDSEC
  0
SECTION
  2
TABLES
  0
TABLE
  2
VPORT
  5
8
100
AcDbSymbolTable
 70
1
  0
VPORT
  5
30
100
AcDbSymbolTableRecord
100
AcDbViewportTableRecord
  2
*Active
 70
0
 10
0.0
 20
0.0
 11
1.0
 21
1.0
 12
286.30555555555549
 22
148.5
 13
0.0
 23
0.0
 14
10.0
 24
10.0
 15
10.0
 25
10.0
 16
0.0
 26
0.0
 36
1.0
 17
0.0
 27
0.0
 37
0.0
 40
297.0
 41
1.92798353909465
 42
50.0
 43
0.0
 44
0.0
 50
0.0
 51
0.0
 71
0
 72
100
 73
1
 74
3
 75
1
 76
1
 77
0
 78
0
281
0
 65
1
110
0.0
120
0.0
130
0.0
111
1.0
121
0.0
131
0.0
112
0.0
122
1.0
132
0.0
 79
0
146
0.0
  0
ENDTAB
  0
TABLE
  2
LTYPE
  5
5
100
AcDbSymbolTable
 70
50
  0
LTYPE
  5
16
100
AcDbSymbolTableRecord
100
AcDbLinetypeTableRecord
  2
Continuous
 70
0
  3
Solid line
 72
65
 73
0
 40
0.0
  0
LTYPE
  5
31
100
AcDbSymbolTableRecord
100
AcDbLinetypeTableRecord
  2
ACAD_ISO15W100
 70
0
  3
ISO double-dash triple-dot __ __ . . . __ __ . .
 72
65
 73
10
 40
39.000000000000007
 49
12.0
 74
0
 49
-3.0
 74
0
 49
12.0
 74
0
 49
-2.9500000000000002
 74
0
 49
0.1
 74
0
 49
-2.8999999999999999
 74
0
 49
0.1
 74
0
 49
-2.8999999999999999
 74
0
 49
0.1
 74
0
 49
-2.9500000000000002
 74
0
  0
LTYPE
  5
32
100
AcDbSymbolTableRecord
100
AcDbLinetypeTableRecord
  2
HOT_WATER_SUPPLY
 70
0
  3
Hot water supply ---- HW ---- HW ---- HW ----
 72
65
 73
3
 40
22.859999999999999
 49
12.699999999999999
 74
0
 49
-5.0800000000000001
 74
0
 49
-5.0800000000000001
 74
0
  0
LTYPE
  5
33
100
AcDbSymbolTableRecord
100
AcDbLinetypeTableRecord
  2
DIVIDE
 70
0
  3
Divide ____ . . ____ . . ____ . . ____ . . ____
 72
65
 73
6
 40
31.749999999999996
 49
12.699999999999999
 74
0
 49
-6.299999999999998
 74
0
 49
0.1
 74
0
 49
-6.25
 74
0
 49
0.1
 74
0
 49
-6.299999999999998
 74
0
  0
LTYPE
  5
34
100
AcDbSymbolTableRecord
100
AcDbLinetypeTableRecord
  2
ACAD_ISO10W100
 70
0
  3
ISO dash dot __ . __ . __ . __ . __ . __ . __ . 
 72
65
 73
4
 40
18.0
 49
12.0
 74
0
 49
-2.9500000000000002
 74
0
 49
0.1
 74
0
 49
-2.9500000000000002
 74
0
  0
LTYPE
  5
35
100
AcDbSymbolTableRecord
100
AcDbLinetypeTableRecord
  2
GAS_LINE
 70
0
  3
Gas line ----GAS----GAS----GAS----GAS----GAS----GAS--
 72
65
 73
3
 40
24.129999999999999
 49
12.699999999999999
 74
0
 49
-5.0800000000000001
 74
0
 49
-6.349999999999997
 74
0
  0
LTYPE
  5
36
100
AcDbSymbolTableRecord
100
AcDbLinetypeTableRecord
  2
ACAD_ISO04W100
 70
0
  3
ISO long-dash dot ____ . ____ . ____ . ____ . _
 72
65
 73
4
 40
30.0
 49
24.0
 74
0
 49
-2.9500000000000002
 74
0
 49
0.1
 74
0
 49
-2.9500000000000002
 74
0
  0
LTYPE
  5
14
100
AcDbSymbolTableRecord
100
AcDbLinetypeTableRecord
  2
ByBlock
 70
0
  3

 72
65
 73
0
 40
0.0
  0
LTYPE
  5
37
100
AcDbSymbolTableRecord
100
AcDbLinetypeTableRecord
  2
CENTER2
 70
0
  3
Center (.5x) ___ _ ___ _ ___ _ ___ _ ___ _ ___
 72
65
 73
4
 40
28.574999999999992
 49
19.050000000000001
 74
0
 49
-3.174999999999998
 74
0
 49
3.174999999999998
 74
0
 49
-3.174999999999998
 74
0
  0
LTYPE
  5
38
100
AcDbSymbolTableRecord
100
AcDbLinetypeTableRecord
  2
ACAD_ISO11W100
 70
0
  3
ISO double-dash dot __ __ . __ __ . __ __ . __ _
 72
65
 73
6
 40
33.0
 49
12.0
 74
0
 49
-3.0
 74
0
 49
12.0
 74
0
 49
-2.9500000000000002
 74
0
 49
0.1
 74
0
 49
-2.9500000000000002
 74
0
  0
LTYPE
  5
39
100
AcDbSymbolTableRecord
100
AcDbLinetypeTableRecord
  2
HIDDEN2
 70
0
  3
Hidden (.5x) _ _ _ _ _ _ _ _ _ _ _ _ _ _ _ _ _ 
 72
65
 73
2
 40
4.7624999999999975
 49
3.174999999999998
 74
0
 49
-1.587499999999999
 74
0
  0
LTYPE
  5
3A
100
AcDbSymbolTableRecord
100
AcDbLinetypeTableRecord
  2
BORDERX2
 70
0
  3
Border (2x) ____  ____  .  ____  ____  .  ___
 72
65
 73
6
 40
88.899999999999991
 49
25.399999999999999
 74
0
 49
-12.699999999999999
 74
0
 49
25.399999999999999
 74
0
 49
-12.65
 74
0
 49
0.1
 74
0
 49
-12.65
 74
0
  0
LTYPE
  5
3B
100
AcDbSymbolTableRecord
100
AcDbLinetypeTableRecord
  2
ACAD_ISO05W100
 70
0
  3
ISO long-dash double-dot ____ .. ____ .. ____ . 
 72
65
 73
6
 40
33.0
 49
24.0
 74
0
 49
-2.9500000000000002
 74
0
 49
0.1
 74
0
 49
-2.8999999999999999
 74
0
 49
0.1
 74
0
 49
-2.9500000000000002
 74
0
  0
LTYPE
  5
3C
100
AcDbSymbolTableRecord
100
AcDbLinetypeTableRecord
  2
DASHDOTX2
 70
0
  3
Dash dot (2x) ____  .  ____  .  ____  .  ___
 72
65
 73
4
 40
50.799999999999997
 49
25.399999999999999
 74
0
 49
-12.65
 74
0
 49
0.1
 74
0
 49
-12.65
 74
0
  0
LTYPE
  5
3D
100
AcDbSymbolTableRecord
100
AcDbLinetypeTableRecord
  2
HIDDENX2
 70
0
  3
Hidden (2x) ____ ____ ____ ____ ____ ____ ____ 
 72
65
 73
2
 40
19.049999999999997
 49
12.699999999999999
 74
0
 49
-6.349999999999997
 74
0
  0
LTYPE
  5
3E
100
AcDbSymbolTableRecord
100
AcDbLinetypeTableRecord
  2
CENTERX2
 70
0
  3
Center (2x) ________  __  ________  __  _____
 72
65
 73
4
 40
101.60000000000001
 49
63.5
 74
0
 49
-12.699999999999999
 74
0
 49
12.699999999999999
 74
0
 49
-12.699999999999999
 74
0
  0
LTYPE
  5
3F
100
AcDbSymbolTableRecord
100
AcDbLinetypeTableRecord
  2
BORDER2
 70
0
  3
Border (.5x) __.__.__.__.__.__.__.__.__.__.__.
 72
65
 73
6
 40
22.224999999999994
 49
6.349999999999997
 74
0
 49
-3.174999999999998
 74
0
 49
6.349999999999997
 74
0
 49
-3.125
 74
0
 49
0.1
 74
0
 49
-3.125
 74
0
  0
LTYPE
  5
40
100
AcDbSymbolTableRecord
100
AcDbLinetypeTableRecord
  2
DASHDOT2
 70
0
  3
Dash dot (.5x) _._._._._._._._._._._._._._._.
 72
65
 73
4
 40
12.699999999999998
 49
6.349999999999997
 74
0
 49
-3.125
 74
0
 49
0.1
 74
0
 49
-3.125
 74
0
  0
LTYPE
  5
41
100
AcDbSymbolTableRecord
100
AcDbLinetypeTableRecord
  2
ACAD_ISO12W100
 70
0
  3
ISO dash double-dot __ . . __ . . __ . . __ . . 
 72
65
 73
6
 40
21.0
 49
12.0
 74
0
 49
-2.9500000000000002
 74
0
 49
0.1
 74
0
 49
-2.8999999999999999
 74
0
 49
0.1
 74
0
 49
-2.9500000000000002
 74
0
  0
LTYPE
  5
42
100
AcDbSymbolTableRecord
100
AcDbLinetypeTableRecord
  2
ACAD_ISO07W100
 70
0
  3
ISO dot . . . . . . . . . . . . . . . . . . . . 
 72
65
 73
2
 40
3.0
 49
0.1
 74
0
 49
-2.8999999999999999
 74
0
  0
LTYPE
  5
43
100
AcDbSymbolTableRecord
100
AcDbLinetypeTableRecord
  2
ACAD_ISO06W100
 70
0
  3
ISO long-dash triple-dot ____ ... ____ ... ____
 72
65
 73
8
 40
36.000000000000007
 49
24.0
 74
0
 49
-2.9500000000000002
 74
0
 49
0.1
 74
0
 49
-2.8999999999999999
 74
0
 49
0.1
 74
0
 49
-2.8999999999999999
 74
0
 49
0.1
 74
0
 49
-2.9500000000000002
 74
0
  0
LTYPE
  5
44
100
AcDbSymbolTableRecord
100
AcDbLinetypeTableRecord
  2
CENTER
 70
0
  3
Center ____ _ ____ _ ____ _ ____ _ ____ _ ____
 72
65
 73
4
 40
50.799999999999983
 49
31.75
 74
0
 49
-6.349999999999997
 74
0
 49
6.349999999999997
 74
0
 49
-6.349999999999997
 74
0
  0
LTYPE
  5
45
100
AcDbSymbolTableRecord
100
AcDbLinetypeTableRecord
  2
HIDDEN
 70
0
  3
Hidden __ __ __ __ __ __ __ __ __ __ __ __ __ __
 72
65
 73
2
 40
9.524999999999995
 49
6.349999999999997
 74
0
 49
-3.174999999999998
 74
0
  0
LTYPE
  5
46
100
AcDbSymbolTableRecord
100
AcDbLinetypeTableRecord
  2
DOTX2
 70
0
  3
Dot (2x) .  .  .  .  .  .  .  .  .  .  .  .  .  .
 72
65
 73
2
 40
12.699999999999999
 49
0.1
 74
0
 49
-12.6
 74
0
  0
LTYPE
  5
47
100
AcDbSymbolTableRecord
100
AcDbLinetypeTableRecord
  2
PHANTOM
 70
0
  3
Phantom ______  __  __  ______  __  __  ______ 
 72
65
 73
6
 40
63.499999999999972
 49
31.75
 74
0
 49
-6.349999999999997
 74
0
 49
6.349999999999997
 74
0
 49
-6.349999999999997
 74
0
 49
6.349999999999997
 74
0
 49
-6.349999999999997
 74
0
  0
LTYPE
  5
48
100
AcDbSymbolTableRecord
100
AcDbLinetypeTableRecord
  2
ACAD_ISO08W100
 70
0
  3
ISO long-dash short-dash ____ __ ____ __ ____ _
 72
65
 73
4
 40
36.0
 49
24.0
 74
0
 49
-3.0
 74
0
 49
6.0
 74
0
 49
-3.0
 74
0
  0
LTYPE
  5
49
100
AcDbSymbolTableRecord
100
AcDbLinetypeTableRecord
  2
DASHEDX2
 70
0
  3
Dashed (2x) ____  ____  ____  ____  ____  ___
 72
65
 73
2
 40
38.099999999999994
 49
25.399999999999999
 74
0
 49
-12.699999999999999
 74
0
  0
LTYPE
  5
4A
100
AcDbSymbolTableRecord
100
AcDbLinetypeTableRecord
  2
DRAINAGE
 70
0
  3
Drainage ---->---->---->----
 72
65
 73
2
 40
10.16
 49
5.0800000000000001
 74
0
 49
5.0800000000000001
 74
0
  0
LTYPE
  5
4B
100
AcDbSymbolTableRecord
100
AcDbLinetypeTableRecord
  2
ACAD_ISO02W100
 70
0
  3
ISO dash __ __ __ __ __ __ __ __ __ __ __ __ __
 72
65
 73
2
 40
15.0
 49
12.0
 74
0
 49
-3.0
 74
0
  0
LTYPE
  5
4C
100
AcDbSymbolTableRecord
100
AcDbLinetypeTableRecord
  2
PHANTOM2
 70
0
  3
Phantom (.5x) ___ _ _ ___ _ _ ___ _ _ ___ _ _
 72
65
 73
6
 40
31.749999999999986
 49
15.875
 74
0
 49
-3.174999999999998
 74
0
 49
3.174999999999998
 74
0
 49
-3.174999999999998
 74
0
 49
3.174999999999998
 74
0
 49
-3.174999999999998
 74
0
  0
LTYPE
  5
4D
100
AcDbSymbolTableRecord
100
AcDbLinetypeTableRecord
  2
DASHED2
 70
0
  3
Dashed (.5x) _ _ _ _ _ _ _ _ _ _ _ _ _ _ _ _ _ 
 72
65
 73
2
 40
9.524999999999995
 49
6.349999999999997
 74
0
 49
-3.174999999999998
 74
0
  0
LTYPE
  5
4E
100
AcDbSymbolTableRecord
100
AcDbLinetypeTableRecord
  2
ACAD_ISO09W100
 70
0
  3
ISO long-dash double-short-dash ____ __ __ ____
 72
65
 73
6
 40
45.0
 49
24.0
 74
0
 49
-3.0
 74
0
 49
6.0
 74
0
 49
-3.0
 74
0
 49
6.0
 74
0
 49
-3.0
 74
0
  0
LTYPE
  5
4F
100
AcDbSymbolTableRecord
100
AcDbLinetypeTableRecord
  2
ACAD_ISO13W100
 70
0
  3
ISO double-dash double-dot __ __ . . __ __ . . _
 72
65
 73
8
 40
36.000000000000007
 49
12.0
 74
0
 49
-3.0
 74
0
 49
12.0
 74
0
 49
-2.9500000000000002
 74
0
 49
0.1
 74
0
 49
-2.8999999999999999
 74
0
 49
0.1
 74
0
 49
-2.9500000000000002
 74
0
  0
LTYPE
  5
50
100
AcDbSymbolTableRecord
100
AcDbLinetypeTableRecord
  2
TRACKS
 70
0
  3
Tracks -|-|-|-|-|-|-|-|-|-|-|-|-|-|-|-|-|-|-|-|-|-|-|-|-
 72
65
 73
2
 40
7.6200000000000001
 49
3.8100000000000001
 74
0
 49
3.8100000000000001
 74
0
  0
LTYPE
  5
51
100
AcDbSymbolTableRecord
100
AcDbLinetypeTableRecord
  2
DRAINAGE2
 70
0
  3
Drainage reversed----<----<----<----
 72
65
 73
2
 40
10.16
 49
5.0800000000000001
 74
0
 49
5.0800000000000001
 74
0
  0
LTYPE
  5
52
100
AcDbSymbolTableRecord
100
AcDbLinetypeTableRecord
  2
DOT2
 70
0
  3
Dot (.5x) ........................................
 72
65
 73
2
 40
3.1750000000000003
 49
0.1
 74
0
 49
-3.0750000000000002
 74
0
  0
LTYPE
  5
53
100
AcDbSymbolTableRecord
100
AcDbLinetypeTableRecord
  2
ZIGZAG
 70
0
  3
Zig zag /\/\/\/\/\/\/\/\/\/\/\/\/\/\/\/\/\/\/\/\/\/\/\/
 72
65
 73
4
 40
20.32254
 49
0.00254
 74
0
 49
-5.0800000000000001
 74
0
 49
-10.16
 74
0
 49
-5.0800000000000001
 74
0
  0
LTYPE
  5
54
100
AcDbSymbolTableRecord
100
AcDbLinetypeTableRecord
  2
DASHED
 70
0
  3
Dashed __ __ __ __ __ __ __ __ __ __ __ __ __ _
 72
65
 73
2
 40
19.049999999999997
 49
12.699999999999999
 74
0
 49
-6.349999999999997
 74
0
  0
LTYPE
  5
55
100
AcDbSymbolTableRecord
100
AcDbLinetypeTableRecord
  2
ACAD_ISO14W100
 70
0
  3
ISO dash triple-dot __ . . . __ . . . __ . . . _
 72
65
 73
8
 40
24.0
 49
12.0
 74
0
 49
-2.9500000000000002
 74
0
 49
0.1
 74
0
 49
-2.8999999999999999
 74
0
 49
0.1
 74
0
 49
-2.8999999999999999
 74
0
 49
0.1
 74
0
 49
-2.9500000000000002
 74
0
  0
LTYPE
  5
56
100
AcDbSymbolTableRecord
100
AcDbLinetypeTableRecord
  2
PHANTOMX2
 70
0
  3
Phantom (2x) ____________    ____    ____   _
 72
65
 73
6
 40
127.00000000000001
 49
63.5
 74
0
 49
-12.699999999999999
 74
0
 49
12.699999999999999
 74
0
 49
-12.699999999999999
 74
0
 49
12.699999999999999
 74
0
 49
-12.699999999999999
 74
0
  0
LTYPE
  5
57
100
AcDbSymbolTableRecord
100
AcDbLinetypeTableRecord
  2
DIVIDEX2
 70
0
  3
Divide (2x) ________  .  .  ________  .  .  _
 72
65
 73
6
 40
63.5
 49
25.399999999999999
 74
0
 49
-12.65
 74
0
 49
0.1
 74
0
 49
-12.6
 74
0
 49
0.1
 74
0
 49
-12.65
 74
0
  0
LTYPE
  5
58
100
AcDbSymbolTableRecord
100
AcDbLinetypeTableRecord
  2
BORDER
 70
0
  3
Border __ __ . __ __ . __ __ . __ __ . __ __ .
 72
65
 73
6
 40
44.449999999999996
 49
12.699999999999999
 74
0
 49
-6.349999999999997
 74
0
 49
12.699999999999999
 74
0
 49
-6.299999999999998
 74
0
 49
0.1
 74
0
 49
-6.299999999999998
 74
0
  0
LTYPE
  5
59
100
AcDbSymbolTableRecord
100
AcDbLinetypeTableRecord
  2
DIVIDE2
 70
0
  3
Divide (.5x) __..__..__..__..__..__..__..__.._
 72
65
 73
6
 40
15.874999999999998
 49
6.349999999999997
 74
0
 49
-3.125
 74
0
 49
0.1
 74
0
 49
-3.0750000000000002
 74
0
 49
0.1
 74
0
 49
-3.125
 74
0
  0
LTYPE
  5
5A
100
AcDbSymbolTableRecord
100
AcDbLinetypeTableRecord
  2
DOT
 70
0
  3
Dot . . . . . . . . . . . . . . . . . . . . . . . .
 72
65
 73
2
 40
6.3499999999999996
 49
0.1
 74
0
 49
-6.25
 74
0
  0
LTYPE
  5
5B
100
AcDbSymbolTableRecord
100
AcDbLinetypeTableRecord
  2
DASHDOT
 70
0
  3
Dash dot __ . __ . __ . __ . __ . __ . __ . __
 72
65
 73
4
 40
25.399999999999995
 49
12.699999999999999
 74
0
 49
-6.299999999999998
 74
0
 49
0.1
 74
0
 49
-6.299999999999998
 74
0
  0
LTYPE
  5
5C
100
AcDbSymbolTableRecord
100
AcDbLinetypeTableRecord
  2
FENCELINE1
 70
0
  3
Fenceline circle ----0-----0----0-----0----0-----0--
 72
65
 73
4
 40
36.829999999999998
 49
6.349999999999997
 74
0
 49
-2.54
 74
0
 49
-2.54
 74
0
 49
25.399999999999999
 74
0
  0
LTYPE
  5
5D
100
AcDbSymbolTableRecord
100
AcDbLinetypeTableRecord
  2
BATTING
 70
0
  3
Batting SSSSSSSSSSSSSSSSSSSSSSSSSSSSSSSSSSSSSSSSSSSSSSS
 72
65
 73
4
 40
10.16254
 49
0.00254
 74
0
 49
-2.54
 74
0
 49
-5.0800000000000001
 74
0
 49
-2.54
 74
0
  0
LTYPE
  5
5E
100
AcDbSymbolTableRecord
100
AcDbLinetypeTableRecord
  2
ACAD_ISO03W100
 70
0
  3
ISO dash space __    __    __    __    __    __
 72
65
 73
2
 40
30.0
 49
12.0
 74
0
 49
-18.0
 74
0
  0
LTYPE
  5
15
100
AcDbSymbolTableRecord
100
AcDbLinetypeTableRecord
  2
ByLayer
 70
0
  3

 72
65
 73
0
 40
0.0
  0
LTYPE
  5
5F
100
AcDbSymbolTableRecord
100
AcDbLinetypeTableRecord
  2
FENCELINE2
 70
0
  3
Fenceline square ----[]-----[]----[]-----[]----[]---
 72
65
 73
4
 40
36.829999999999998
 49
6.349999999999997
 74
0
 49
-2.54
 74
0
 49
-2.54
 74
0
 49
25.399999999999999
 74
0
  0
ENDTAB
  0
TABLE
  2
LAYER
  5
2
100
AcDbSymbolTable
 70
5
  0
LAYER
  5
60
100
AcDbSymbolTableRecord
100
AcDbLayerTableRecord
  2
grabado linea medio
 70
0
 62
3
420
65280
  6
Continuous
370
-3
390
F
  0
LAYER
  5
61
100
AcDbSymbolTableRecord
100
AcDbLayerTableRecord
  2
Grabado Superficie
 70
1
 62
-30
420
16744192
  6
Continuous
370
25
390
F
  0
LAYER
  5
62
100
AcDbSymbolTableRecord
100
AcDbLayerTableRecord
  2
mesa de trabajo y auxiliares
 70
0
 62
7
420
16777215
  6
Continuous
370
-3
390
F
  0
LAYER
  5
63
100
AcDbSymbolTableRecord
100
AcDbLayerTableRecord
  2
Corte exterior
 70
0
 62
1
420
16711680
  6
Continuous
370
-3
390
F
  0
LAYER
  5
10
100
AcDbSymbolTableRecord
100
AcDbLayerTableRecord
  2
0
 70
1
 62
-7
420
16777215
  6
Continuous
370
-3
390
F
  0
ENDTAB
  0
TABLE
  2
STYLE
  5
3
100
AcDbSymbolTable
 70
1
  0
STYLE
  5
64
100
AcDbSymbolTableRecord
100
AcDbTextStyleTableRecord
  2
Standard
 70
0
 40
0.0
 41
1.0
 50
0.0
 71
0
 42
2.5
  3

  4

1001
ACAD
1000
txt
1071
0
  0
ENDTAB
  0
TABLE
  2
VIEW
  5
6
100
AcDbSymbolTable
 70
0
  0
ENDTAB
  0
TABLE
  2
UCS
  5
7
100
AcDbSymbolTable
 70
0
  0
ENDTAB
  0
TABLE
  2
APPID
  5
9
100
AcDbSymbolTable
 70
1
  0
APPID
  5
12
100
AcDbSymbolTableRecord
100
AcDbRegAppTableRecord
  2
ACAD
 70
0
  0
APPID
  5
65
100
AcDbSymbolTableRecord
100
AcDbRegAppTableRecord
  2
QCAD
 70
0
  0
ENDTAB
  0
TABLE
  2
DIMSTYLE
  5
A
100
AcDbSymbolTable
 70
1
100
AcDbDimStyleTable
 71
0
  0
DIMSTYLE
105
27
100
AcDbSymbolTableRecord
100
AcDbDimStyleTableRecord
  2
Standard
 41
2.5
 42
0.625
 43
3.75
 44
1.25
 70
0
 73
0
 74
0
 77
1
 78
8
140
2.5
141
2.5
143
0.03937007874016
147
0.625
171
3
172
1
271
2
272
2
274
3
278
44
283
0
284
8
340
64
  0
ENDTAB
  0
TABLE
  2
BLOCK_RECORD
  5
1
100
AcDbSymbolTable
 70
1
  0
BLOCK_RECORD
  5
1F
100
AcDbSymbolTableRecord
100
AcDbBlockTableRecord
  2
*Model_Space
340
22
  0
BLOCK_RECORD
  5
1B
100
AcDbSymbolTableRecord
100
AcDbBlockTableRecord
  2
*Paper_Space
340
1E
  0
BLOCK_RECORD
  5
23
100
AcDbSymbolTableRecord
100
AcDbBlockTableRecord
  2
*Paper_Space0
340
26
  0
ENDTAB
  0
ENDSEC
  0
SECTION
  2
BLOCKS
  0
BLOCK
  5
20
100
AcDbEntity
  8
0
100
AcDbBlockBegin
  2
*Model_Space
 70
0
 10
0.0
 20
0.0
 30
0.0
  3
*Model_Space
  1

  0
ENDBLK
  5
21
100
AcDbEntity
  8
0
100
AcDbBlockEnd
  0
BLOCK
  5
1C
100
AcDbEntity
 67
1
  8
0
100
AcDbBlockBegin
  2
*Paper_Space
 70
0
 10
0.0
 20
0.0
 30
0.0
  3
*Paper_Space
  1

  0
ENDBLK
  5
1D
100
AcDbEntity
 67
1
  8
0
100
AcDbBlockEnd
  0
BLOCK
  5
24
100
AcDbEntity
  8
0
100
AcDbBlockBegin
  2
*Paper_Space0
 70
0
 10
0.0
 20
0.0
 30
0.0
  3
*Paper_Space0
  1

  0
ENDBLK
  5
25
100
AcDbEntity
  8
0
100
AcDbBlockEnd
  0
ENDSEC
  0
SECTION
  2
ENTITIES
  0
CIRCLE
  5
66
100
AcDbEntity
100
AcDbCircle
  8
Corte exterior
 62
256
370
-1
 48
1.0
  6
ByLayer
 10
51.299998929723301
 20
89.999999999999957
 30
0.0
 40
8.0
  0
CIRCLE
  5
67
100
AcDbEntity
100
AcDbCircle
  8
Corte exterior
 62
256
370
-1
 48
1.0
  6
ByLayer
 10
8.4999999999908766
 20
110.50000000001
 30
0.0
 40
3.5000023361040831
  0
CIRCLE
  5
68
100
AcDbEntity
100
AcDbCircle
  8
Corte exterior
 62
256
370
-1
 48
1.0
  6
ByLayer
 10
69.799998929723316
 20
102.9999999999999
 30
0.0
 40
6.0
  0
LINE
  5
69
100
AcDbEntity
100
AcDbLine
  8
mesa de trabajo y auxiliares
 62
256
370
-1
 48
1.0
  6
ByLayer
 10
0.0
 20
160.0
 30
0.0
 11
0.0
 21
0.0
 31
0.0
  0
LINE
  5
6A
100
AcDbEntity
100
AcDbLine
  8
Corte exterior
 62
256
370
-1
 48
1.0
  6
ByLayer
 10
18.767721236087791
 20
112.11416780446839
 30
0.0
 11
18.767721236098591
 21
112.1141678045001
 31
0.0
  0
CIRCLE
  5
6B
100
AcDbEntity
100
AcDbCircle
  8
Corte exterior
 62
256
370
-1
 48
1.0
  6
ByLayer
 10
51.299998929723301
 20
115.9999999999999
 30
0.0
 40
8.0
  0
LINE
  5
6C
100
AcDbEntity
100
AcDbLine
  8
mesa de trabajo y auxiliares
 62
256
370
-1
 48
1.0
  6
ByLayer
 10
150.0
 20
160.0
 30
0.0
 11
0.0
 21
160.0
 31
0.0
  0
CIRCLE
  5
6D
100
AcDbEntity
100
AcDbCircle
  8
Corte exterior
 62
256
370
-1
 48
1.0
  6
ByLayer
 10
23.848582377433988
 20
110.50000000001
 30
0.0
 40
3.5000023361040831
  0
LINE
  5
6E
100
AcDbEntity
100
AcDbLine
  8
mesa de trabajo y auxiliares
 62
256
370
-1
 48
1.0
  6
ByLayer
 10
150.0
 20
0.0
 30
0.0
 11
150.0
 21
160.0
 31
0.0
  0
CIRCLE
  5
6F
100
AcDbEntity
100
AcDbCircle
  8
Corte exterior
 62
256
370
-1
 48
1.0
  6
ByLayer
 10
8.4985823774475602
 20
120.5000000000484
 30
0.0
 40
2.4500000000000002
  0
LINE
  5
70
100
AcDbEntity
100
AcDbLine
  8
mesa de trabajo y auxiliares
 62
256
370
-1
 48
1.0
  6
ByLayer
 10
0.0
 20
0.0
 30
0.0
 11
150.0
 21
0.0
 31
0.0
  0
CIRCLE
  5
71
100
AcDbEntity
100
AcDbCircle
  8
Corte exterior
 62
256
370
-1
 48
1.0
  6
ByLayer
 10
23.500000000005372
 20
120.5000000000484
 30
0.0
 40
2.4500000000000002
  0
LINE
  5
72
100
AcDbEntity
100
AcDbLine
  8
Corte exterior
 62
256
370
-1
 48
1.0
  6
ByLayer
 10
31.000000000005372
 20
152.0000000000482
 30
0.0
 11
31.000000000005372
 21
153.99999999999909
 31
0.0
  0
CIRCLE
  5
73
100
AcDbEntity
100
AcDbCircle
  8
Corte exterior
 62
256
370
-1
 48
1.0
  6
ByLayer
 10
50.50000000000604
 20
151.49999999999909
 30
0.0
 40
3.5
  0
CIRCLE
  5
74
100
AcDbEntity
100
AcDbCircle
  8
Corte exterior
 62
256
370
-1
 48
1.0
  6
ByLayer
 10
9.8999999999999755
 20
10.0
 30
0.0
 40
4.5
  0
LINE
  5
75
100
AcDbEntity
100
AcDbLine
  8
mesa de trabajo y auxiliares
 62
256
370
-1
 48
1.0
  6
ACAD_ISO02W100
 10
1.0
 20
159.0
 30
0.0
 11
1.0
 21
1.0
 31
0.0
  0
CIRCLE
  5
76
100
AcDbEntity
100
AcDbCircle
  8
Corte exterior
 62
256
370
-1
 48
1.0
  6
ByLayer
 10
74.09999999999998
 20
10.000000000000011
 30
0.0
 40
4.5
  0
LINE
  5
77
100
AcDbEntity
100
AcDbLine
  8
Corte exterior
 62
256
370
-1
 48
1.0
  6
ByLayer
 10
34.000000000005372
 20
143.99999999999909
 30
0.0
 11
50.000000000005642
 21
143.99999999999909
 31
0.0
  0
LINE
  5
78
100
AcDbEntity
100
AcDbLine
  8
mesa de trabajo y auxiliares
 62
256
370
-1
 48
1.0
  6
ByLayer
 10
149.0
 20
159.0
 30
0.0
 11
1.0
 21
159.0
 31
0.0
  0
CIRCLE
  5
79
100
AcDbEntity
100
AcDbCircle
  8
Corte exterior
 62
256
370
-1
 48
1.0
  6
ByLayer
 10
50.500000000011063
 20
136.49999999999909
 30
0.0
 40
3.5
  0
LINE
  5
7A
100
AcDbEntity
100
AcDbLine
  8
mesa de trabajo y auxiliares
 62
256
370
-1
 48
1.0
  6
ACAD_ISO02W100
 10
149.0
 20
1.0
 30
0.0
 11
149.0
 21
159.0
 31
0.0
  0
LINE
  5
7B
100
AcDbEntity
100
AcDbLine
  8
mesa de trabajo y auxiliares
 62
256
370
-1
 48
1.0
  6
ACAD_ISO02W100
 10
1.0
 20
1.0
 30
0.0
 11
149.0
 21
1.0
 31
0.0
  0
CIRCLE
  5
7C
100
AcDbEntity
100
AcDbCircle
  8
Corte exterior
 62
256
370
-1
 48
1.0
  6
ByLayer
 10
76.300000000004061
 20
151.49999999999881
 30
0.0
 40
0.9999999999999992
  0
LINE
  5
7D
100
AcDbEntity
100
AcDbLine
  8
Corte exterior
 62
256
370
-1
 48
1.0
  6
ByLayer
 10
67.000000000006168
 20
130.9999999999996
 30
0.0
 11
67.000000000006168
 21
128.9999999999992
 31
0.0
  0
LINE
  5
7E
100
AcDbEntity
100
AcDbLine
  8
Corte exterior
 62
256
370
-1
 48
1.0
  6
ByLayer
 10
31.000000000005372
 20
136.99999999999949
 30
0.0
 11
31.000000000005372
 21
151.0000000000482
 31
0.0
  0
LINE
  5
7F
100
AcDbEntity
100
AcDbLine
  8
Corte exterior
 62
256
370
-1
 48
1.0
  6
ByLayer
 10
76.300000000004061
 20
143.99999999999861
 30
0.0
 11
51.000000000005663
 21
143.99999999999909
 31
0.0
  0
LINE
  5
80
100
AcDbEntity
100
AcDbLine
  8
Corte exterior
 62
256
370
-1
 48
1.0
  6
ByLayer
 10
67.000000000006168
 20
159.0
 30
0.0
 11
67.000000000006168
 21
156.9999999999996
 31
0.0
  0
LINE
  5
81
100
AcDbEntity
100
AcDbLine
  8
Corte exterior
 62
256
370
-1
 48
1.0
  6
ByLayer
 10
16.00000000000535
 20
141.00000000004761
 30
0.0
 11
16.00000000000535
 21
154.00000000004761
 31
0.0
  0
LINE
  5
82
100
AcDbEntity
100
AcDbLine
  8
Corte exterior
 62
256
370
-1
 48
1.0
  6
ByLayer
 10
15.999999999998609
 20
77.0
 30
0.0
 11
15.999999999998609
 21
90.0
 31
0.0
  0
CIRCLE
  5
83
100
AcDbEntity
100
AcDbCircle
  8
Corte exterior
 62
256
370
-1
 48
1.0
  6
ByLayer
 10
76.300000000004061
 20
136.4999999999992
 30
0.0
 40
0.9999999999999992
  0
LWPOLYLINE
  5
84
  8
Corte exterior
 62
256
370
-1
 48
1.0
  6
ByLayer
100
AcDbEntity
100
AcDbPolyline
 90
4
 70
1
 10
60.749999999999993
 20
68.0
 30
0.0
 10
50.749999999999993
 20
68.0
 30
0.0
 10
50.749999999999993
 20
71.0
 30
0.0
 10
60.749999999999993
 20
70.999999999999986
 30
0.0
  0
LWPOLYLINE
  5
85
  8
Corte exterior
 62
256
370
-1
 48
1.0
  6
ByLayer
100
AcDbEntity
100
AcDbPolyline
 90
4
 70
1
 10
33.249999999999993
 20
71.0
 30
0.0
 10
33.249999999999993
 20
68.0
 30
0.0
 10
23.25
 20
68.0
 30
0.0
 10
23.25
 20
71.0
 30
0.0
  0
LINE
  5
86
100
AcDbEntity
100
AcDbLine
  8
Corte exterior
 62
256
370
-1
 48
1.0
  6
ByLayer
 10
82.996933655126654
 20
73.505353281668732
 30
0.0
 11
82.996933655123954
 21
65.046113250630768
 31
0.0
  0
LINE
  5
87
100
AcDbEntity
100
AcDbLine
  8
Corte exterior
 62
256
370
-1
 48
1.0
  6
ByLayer
 10
61.931667970256939
 20
128.9999999999994
 30
0.0
 11
71.150000000005093
 21
128.9999999999992
 31
0.0
  0
LINE
  5
88
100
AcDbEntity
100
AcDbLine
  8
Corte exterior
 62
256
370
-1
 48
1.0
  6
ByLayer
 10
48.130520461765272
 20
129.0
 30
0.0
 11
60.931667970256953
 21
128.9999999999994
 31
0.0
  0
LINE
  5
89
100
AcDbEntity
100
AcDbLine
  8
mesa de trabajo y auxiliares
 62
256
370
-1
 48
1.0
  6
ByLayer
 10
3.6272083189726629
 20
48.747145234204027
 30
0.0
 11
9.9717668030209836
 21
48.747145234204027
 31
0.0
  0
LINE
  5
8A
100
AcDbEntity
100
AcDbLine
  8
Corte exterior
 62
256
370
-1
 48
1.0
  6
ByLayer
 10
3.0261346278747432
 20
77.0
 30
0.0
 11
1.0
 21
77.0
 31
0.0
  0
LINE
  5
8B
100
AcDbEntity
100
AcDbLine
  8
Corte exterior
 62
256
370
-1
 48
1.0
  6
ByLayer
 10
13.141400998335669
 20
77.0
 30
0.0
 11
4.0261346278747432
 21
77.0
 31
0.0
  0
LINE
  5
8C
100
AcDbEntity
100
AcDbLine
  8
Corte exterior
 62
256
370
-1
 48
1.0
  6
ByLayer
 10
18.107077216561951
 20
77.0
 30
0.0
 11
14.141400998335669
 21
77.0
 31
0.0
  0
LINE
  5
8D
100
AcDbEntity
100
AcDbLine
  8
Corte exterior
 62
256
370
-1
 48
1.0
  6
ByLayer
 10
28.0384296530145
 20
77.0
 30
0.0
 11
19.107077216561951
 21
77.0
 31
0.0
  0
LINE
  5
8E
100
AcDbEntity
100
AcDbLine
  8
Corte exterior
 62
256
370
-1
 48
1.0
  6
ByLayer
 10
71.233474348480058
 20
77.0
 30
0.0
 11
48.398228500993937
 21
77.0
 31
0.0
  0
LINE
  5
8F
100
AcDbEntity
100
AcDbLine
  8
Corte exterior
 62
256
370
-1
 48
1.0
  6
ByLayer
 10
47.398228500993923
 20
77.0
 30
0.0
 11
29.0384296530145
 21
77.0
 31
0.0
  0
LINE
  5
90
100
AcDbEntity
100
AcDbLine
  8
mesa de trabajo y auxiliares
 62
256
370
-1
 48
1.0
  6
ByLayer
 10
3.6272083189726629
 20
58.093928625381061
 30
0.0
 11
3.6272083189726629
 21
48.747145234204027
 31
0.0
  0
LINE
  5
91
100
AcDbEntity
100
AcDbLine
  8
mesa de trabajo y auxiliares
 62
256
370
-1
 48
1.0
  6
ByLayer
 10
73.355140848815864
 20
53.178839764430002
 30
0.0
 11
79.925118072207866
 21
48.505448068842043
 31
0.0
  0
LINE
  5
92
100
AcDbEntity
100
AcDbLine
  8
mesa de trabajo y auxiliares
 62
256
370
-1
 48
1.0
  6
ByLayer
 10
80.036473297607955
 20
53.067568380160068
 30
0.0
 11
73.355140848815864
 21
53.178839764430002
 31
0.0
  0
LINE
  5
93
100
AcDbEntity
100
AcDbLine
  8
mesa de trabajo y auxiliares
 62
256
370
-1
 48
1.0
  6
ByLayer
 10
80.036473297607955
 20
57.85223146001907
 30
0.0
 11
80.036473297607955
 21
53.067568380160068
 31
0.0
  0
LINE
  5
94
100
AcDbEntity
100
AcDbLine
  8
mesa de trabajo y auxiliares
 62
256
370
-1
 48
1.0
  6
ByLayer
 10
73.355140848815864
 20
57.85223146001907
 30
0.0
 11
80.036473297607955
 21
57.85223146001907
 31
0.0
  0
LINE
  5
95
100
AcDbEntity
100
AcDbLine
  8
Corte exterior
 62
256
370
-1
 48
1.0
  6
ByLayer
 10
82.996933655123655
 20
64.046113250630754
 30
0.0
 11
82.996933655119776
 21
46.694383747506237
 31
0.0
  0
LINE
  5
96
100
AcDbEntity
100
AcDbLine
  8
mesa de trabajo y auxiliares
 62
256
370
-1
 48
1.0
  6
ByLayer
 10
73.355140848815864
 20
48.505448068842043
 30
0.0
 11
73.355140848815864
 21
57.85223146001907
 31
0.0
  0
LINE
  5
97
100
AcDbEntity
100
AcDbLine
  8
Corte exterior
 62
256
370
-1
 48
1.0
  6
ByLayer
 10
82.999998929732001
 20
135.99999999999761
 30
0.0
 11
82.999998929727809
 21
117.17524132752629
 31
0.0
  0
LINE
  5
98
100
AcDbEntity
100
AcDbLine
  8
Corte exterior
 62
256
370
-1
 48
1.0
  6
ByLayer
 10
82.999998929727624
 20
116.17524132752629
 30
0.0
 11
82.999998929724029
 21
89.713556379795449
 31
0.0
  0
LINE
  5
99
100
AcDbEntity
100
AcDbLine
  8
Corte exterior
 62
256
370
-1
 48
1.0
  6
ByLayer
 10
149.0
 20
18.19018429095334
 30
0.0
 11
149.00306634489289
 21
13.190184290953351
 31
0.0
  0
LWPOLYLINE
  5
9A
  8
Corte exterior
 62
256
370
-1
 48
1.0
  6
ByLayer
100
AcDbEntity
100
AcDbPolyline
 90
4
 70
1
 10
111.19693365510609
 20
5.285453994317546
 30
0.0
 10
116.19693365510609
 20
5.285453994317546
 30
0.0
 10
116.19693365510609
 20
8.2854539943174181
 30
0.0
 10
111.19693365510609
 20
8.2854539943174181
 30
0.0
  0
LINE
  5
9B
100
AcDbEntity
100
AcDbLine
  8
Corte exterior
 62
256
370
-1
 48
1.0
  6
ByLayer
 10
82.996933655108435
 20
16.556297975543021
 30
0.0
 11
82.996933655119534
 21
45.694383747506237
 31
0.0
  0
LWPOLYLINE
  5
9C
  8
Corte exterior
 62
256
370
-1
 48
1.0
  6
ByLayer
100
AcDbEntity
100
AcDbPolyline
 90
4
 70
1
 10
121.19693365510609
 20
5.2854539943175363
 30
0.0
 10
126.19693365510609
 20
5.2854539943175363
 30
0.0
 10
126.19693365510609
 20
8.2854539943174377
 30
0.0
 10
121.19693365510609
 20
8.2854539943174181
 30
0.0
  0
LWPOLYLINE
  5
9D
  8
Corte exterior
 62
256
370
-1
 48
1.0
  6
ByLayer
100
AcDbEntity
100
AcDbPolyline
 90
4
 70
1
 10
86.379971817754281
 20
65.383184604659249
 30
0.0
 42
0.4718704716119585
 10
92.487750556372376
 20
64.484069968009905
 30
0.0
 42
0.3332919814578803
 10
90.069442223315448
 20
71.738994967180602
 30
0.0
 42
0.441399706614611
 10
86.84503111257294
 20
71.614979155228923
 30
0.0
 42
0.1966106679659755
  0
LWPOLYLINE
  5
9E
  8
Corte exterior
 62
256
370
-1
 48
1.0
  6
ByLayer
100
AcDbEntity
100
AcDbPolyline
 90
3
 70
1
 10
115.8046503275734
 20
60.740474344526383
 30
0.0
 42
0.3293878202509383
 10
118.51150793302919
 20
70.619733181589197
 30
0.0
 42
0.3741661499466659
 10
114.1504783539575
 20
72.412123648712452
 30
0.0
 42
0.4538045496622864
  0
LWPOLYLINE
  5
9F
  8
Corte exterior
 62
256
370
-1
 48
1.0
  6
ByLayer
100
AcDbEntity
100
AcDbPolyline
 90
5
 70
1
 10
142.92829624799171
 20
53.382185746350402
 30
0.0
 42
-0.4735224208096878
 10
140.75176845130829
 20
60.805567535980558
 30
0.0
 42
0.1429821325529664
 10
141.9571516041444
 20
64.501766392819164
 30
0.0
 42
0.2617788241798207
 10
139.56557115887941
 20
71.36791670341897
 30
0.0
 42
0.4874892784437414
 10
135.93962661283231
 20
71.75365548491331
 30
0.0
 42
0.4264436621196164
  0
LWPOLYLINE
  5
A0
  8
Corte exterior
 62
256
370
-1
 48
1.0
  6
ByLayer
100
AcDbEntity
100
AcDbPolyline
 90
4
 70
1
 10
110.80000000000059
 20
87.279058468980935
 30
0.0
 10
110.80000000000059
 20
84.279058468981063
 30
0.0
 10
105.80000000000059
 20
84.279058468981063
 30
0.0
 10
105.80000000000059
 20
87.279058468980935
 30
0.0
  0
LWPOLYLINE
  5
A1
  8
Corte exterior
 62
256
370
-1
 48
1.0
  6
ByLayer
100
AcDbEntity
100
AcDbPolyline
 90
4
 70
1
 10
120.80000000000059
 20
87.279058468980935
 30
0.0
 10
120.80000000000059
 20
84.279058468981063
 30
0.0
 10
115.80000000000059
 20
84.279058468981063
 30
0.0
 10
115.80000000000059
 20
87.279058468980935
 30
0.0
  0
LWPOLYLINE
  5
A2
  8
Corte exterior
 62
256
370
-1
 48
1.0
  6
ByLayer
100
AcDbEntity
100
AcDbPolyline
 90
5
 70
1
 10
89.06863740711502
 20
132.3757902210138
 30
0.0
 42
0.4735224208096897
 10
91.245165203798507
 20
139.7991720106441
 30
0.0
 42
-0.1429821325529665
 10
90.039782050962259
 20
143.49537086748259
 30
0.0
 42
-0.2617788241798201
 10
92.431362496227379
 20
150.36152117808231
 30
0.0
 42
-0.4874892784437422
 10
96.057307042274431
 20
150.74725995957681
 30
0.0
 42
-0.4264436621196161
  0
LWPOLYLINE
  5
A3
  8
Corte exterior
 62
256
370
-1
 48
1.0
  6
ByLayer
100
AcDbEntity
100
AcDbPolyline
 90
3
 70
1
 10
117.84645530114921
 20
151.40572812337581
 30
0.0
 42
0.3741661499466654
 10
113.48542572207759
 20
149.6133376562527
 30
0.0
 42
0.329387820250938
 10
116.1922833275333
 20
139.7340788191899
 30
0.0
 42
0.4538045496622856
  0
LWPOLYLINE
  5
A4
  8
Corte exterior
 62
256
370
-1
 48
1.0
  6
ByLayer
100
AcDbEntity
100
AcDbPolyline
 90
4
 70
1
 10
145.1519025425338
 20
150.60858362989239
 30
0.0
 42
0.4413997066146174
 10
141.9274914317912
 20
150.73259944184409
 30
0.0
 42
0.3332919814578803
 10
139.50918309873441
 20
143.4776744426733
 30
0.0
 42
0.4718704716119598
 10
145.61696183735239
 20
144.37678907932269
 30
0.0
 42
0.1966106679659762
  0
LWPOLYLINE
  5
A5
  8
grabado linea medio
 62
256
370
-1
 48
1.0
  6
ByLayer
100
AcDbEntity
100
AcDbPolyline
 90
18
 70
1
 10
119.1464757052008
 20
121.9290584689804
 30
0.0
 10
119.1464757052008
 20
113.5890584689805
 30
0.0
 10
123.7864757052007
 20
113.5890584689805
 30
0.0
 10
123.7864757052007
 20
111.0690584689804
 30
0.0
 10
119.14525920540061
 20
111.0690584689804
 30
0.0
 10
118.9452592054008
 20
94.729058468980526
 30
0.0
 10
95.916475705200796
 20
94.729058468980526
 30
0.0
 10
95.916475705200796
 20
111.0690584689804
 30
0.0
 10
91.276475705200923
 20
111.0690584689804
 30
0.0
 10
91.276475705200923
 20
113.5890584689805
 30
0.0
 10
95.916475705200796
 20
113.5890584689805
 30
0.0
 10
95.916475705200796
 20
117.6490584689804
 30
0.0
 10
103.99647570520069
 20
117.6490584689804
 30
0.0
 10
103.99647570520069
 20
121.9290584689804
 30
0.0
 10
110.9214757052009
 20
121.9290584689804
 30
0.0
 10
110.9214757052009
 20
124.8790584689805
 30
0.0
 10
115.7214757052006
 20
124.8790584689805
 30
0.0
 10
115.7214757052006
 20
121.9290584689804
 30
0.0
  0
LWPOLYLINE
  5
A6
  8
grabado linea medio
 62
256
370
-1
 48
1.0
  6
ByLayer
100
AcDbEntity
100
AcDbPolyline
 90
18
 70
1
 10
121.0754579499058
 20
45.885453994316968
 30
0.0
 10
116.2754579499061
 20
45.885453994316968
 30
0.0
 10
116.2754579499061
 20
42.935453994316923
 30
0.0
 10
112.8504579499059
 20
42.935453994316923
 30
0.0
 10
112.8504579499059
 20
34.595453994317012
 30
0.0
 10
108.2104579499061
 20
34.595453994317012
 30
0.0
 10
108.2104579499061
 20
32.075453994316931
 30
0.0
 10
112.8516744497061
 20
32.075453994316931
 30
0.0
 10
113.0516744497059
 20
15.735453994317011
 30
0.0
 10
136.08045794990591
 20
15.735453994317011
 30
0.0
 10
136.08045794990591
 20
32.075453994316938
 30
0.0
 10
140.72045794990581
 20
32.075453994316938
 30
0.0
 10
140.72045794990581
 20
34.595453994317012
 30
0.0
 10
136.08045794990591
 20
34.595453994317012
 30
0.0
 10
136.08045794990591
 20
38.655453994316929
 30
0.0
 10
128.00045794990601
 20
38.655453994316872
 30
0.0
 10
128.00045794990601
 20
42.935453994316923
 30
0.0
 10
121.0754579499058
 20
42.935453994316923
 30
0.0
  0
ARC
  5
A7
100
AcDbEntity
  8
Corte exterior
 62
256
370
-1
 48
1.0
  6
ByLayer
100
AcDbCircle
 10
75.452237600278934
 20
136.4999999999992
 30
0.0
 40
7.5477613294531798
100
AcDbArc
 50
276.44905430767199
 51
356.20445208770053
  0
LINE
  5
A8
100
AcDbEntity
100
AcDbLine
  8
Corte exterior
 62
256
370
-1
 48
1.0
  6
ByLayer
 10
67.000000000006168
 20
145.99999999999909
 30
0.0
 11
67.000000000006168
 21
141.99999999999881
 31
0.0
  0
ARC
  5
A9
100
AcDbEntity
  8
Corte exterior
 62
256
370
-1
 48
1.0
  6
ByLayer
100
AcDbCircle
 10
92.999998929721926
 20
90.344394589387647
 30
0.0
 40
10.0
100
AcDbArc
 50
180.0
 51
183.380774912118
  0
LWPOLYLINE
  5
AA
  8
Corte exterior
 62
256
370
-1
 48
1.0
  6
ByLayer
100
AcDbEntity
100
AcDbPolyline
 90
19
 70
0
 10
83.126146801672959
 20
88.761029769321553
 30
0.0
 42
0.3680376728004227
 10
92.988203582874846
 20
80.344401545900425
 30
0.0
 10
138.99025939563941
 20
80.298618681200409
 30
0.0
 42
0.4144988869001934
 10
149.0
 20
90.298613937230655
 30
0.0
 10
148.9999999999801
 20
152.4989577563322
 30
0.0
 42
0.666081814874863
 10
140.37462893142219
 20
156.02679803524509
 30
0.0
 42
-0.014762731081887
 10
140.1601413757225
 20
155.82398680575051
 30
0.0
 42
-0.1812357870541773
 10
131.93349747180369
 20
152.6395893543814
 30
0.0
 42
-0.1067322421682088
 10
129.86577512932701
 20
153.06286514389919
 30
0.0
 42
0.0413431169954548
 10
120.4930912444165
 20
156.29354034087439
 30
0.0
 42
0.0844575517937216
 10
118.82137326128399
 20
156.42888059124161
 30
0.0
 42
0.2161539010494966
 10
112.7081059011753
 20
152.9813037798441
 30
0.0
 42
-0.0872451108744299
 10
111.4591109206559
 20
151.78177525535591
 30
0.0
 42
-0.2841823292056624
 10
103.0859565417544
 20
151.46861290460271
 30
0.0
 42
-0.0974107642284768
 10
101.62313557258361
 20
152.7274533617593
 30
0.0
 42
0.0955351592573832
 10
95.199329334515554
 20
158.2971922343549
 30
0.0
 42
0.1738595791421585
 10
91.878410729939844
 20
158.8999117820515
 30
0.0
 42
0.1872172123695705
 10
84.067751816096504
 20
154.27206217275901
 30
0.0
 42
0.1133270668767859
 10
83.114450742812622
 20
152.24747053816469
 30
0.0
  0
LWPOLYLINE
  5
AB
  8
Corte exterior
 62
256
370
-1
 48
1.0
  6
ByLayer
100
AcDbEntity
100
AcDbPolyline
 90
4
 70
0
 10
67.000000000006168
 20
140.99999999999881
 30
0.0
 10
67.000000000006168
 20
138.99999999999909
 30
0.0
 10
70.000000000006168
 20
138.99999999999909
 30
0.0
 10
70.000000000006168
 20
136.9999999999992
 30
0.0
  0
LWPOLYLINE
  5
AC
  8
Corte exterior
 62
256
370
-1
 48
1.0
  6
ByLayer
100
AcDbEntity
100
AcDbPolyline
 90
3
 70
0
 10
82.983443783246045
 20
136.99963438234971
 30
0.0
 42
0.3627620376076694
 10
76.300000000011011
 20
143.99999999999861
 30
0.0
 42
0.3701921160150108
 10
82.993948379339287
 20
151.19784174437569
 30
0.0
  0
LWPOLYLINE
  5
AD
  8
Corte exterior
 62
256
370
-1
 48
1.0
  6
ByLayer
100
AcDbEntity
100
AcDbPolyline
 90
3
 70
0
 10
83.000515491367963
 20
151.25565913148691
 30
0.0
 42
0.0035936575201688
 10
82.999998929735284
 20
151.183788765614
 30
0.0
 10
82.999998929732229
 20
136.99999999999761
 30
0.0
  0
LWPOLYLINE
  5
AE
  8
Corte exterior
 62
256
370
-1
 48
1.0
  6
ByLayer
100
AcDbEntity
100
AcDbPolyline
 90
6
 70
0
 10
8.0008329167682213
 20
115.47502082641979
 30
0.0
 42
0.2935388287683744
 10
3.7677212360916381
 20
112.11416780446621
 30
0.0
 10
0.9999999999999715
 20
103.9999999999998
 30
0.0
 10
1.0
 20
1.0
 30
0.0
 10
82.999999999999986
 20
1.0
 30
0.0
 10
82.999999999999972
 20
11.05738576541123
 30
0.0
  0
LWPOLYLINE
  5
AF
  8
Corte exterior
 62
256
370
-1
 48
1.0
  6
ByLayer
100
AcDbEntity
100
AcDbPolyline
 90
4
 70
0
 10
15.999999999998609
 20
91.000000000000128
 30
0.0
 10
15.999999999998609
 20
103.9999999999998
 30
0.0
 10
13.23227876388259
 20
112.1141678044811
 30
0.0
 42
0.2935388287661327
 10
8.999167083236518
 20
115.47502082641731
 30
0.0
  0
LWPOLYLINE
  5
B0
  8
Corte exterior
 62
256
370
-1
 48
1.0
  6
ByLayer
100
AcDbEntity
100
AcDbPolyline
 90
4
 70
0
 10
8.9991670832364719
 20
115.52497917363689
 30
0.0
 42
0.2935388287664711
 10
13.23227876389357
 20
118.8858321955523
 30
0.0
 10
16.00000000000535
 20
127.0000000000481
 30
0.0
 10
16.00000000000535
 20
140.00000000004749
 30
0.0
  0
LWPOLYLINE
  5
B1
  8
Corte exterior
 62
256
370
-1
 48
1.0
  6
ByLayer
100
AcDbEntity
100
AcDbPolyline
 90
16
 70
0
 10
82.967769258170932
 20
152.19676752626441
 30
0.0
 42
0.3553671868057901
 10
76.300000000004061
 20
158.99999999999881
 30
0.0
 10
34.000000000005372
 20
159.0
 30
0.0
 10
34.000000000005372
 20
153.99999999999909
 30
0.0
 10
26.000000000005372
 20
154.00000000004761
 30
0.0
 10
26.000000000005372
 20
151.0000000000482
 30
0.0
 10
21.000000000004452
 20
151.0000000000482
 30
0.0
 10
21.00000000000448
 20
154.0000000000542
 30
0.0
 10
11.00000000000535
 20
154.00000000004761
 30
0.0
 10
11.00000000000535
 20
151.00000000004709
 30
0.0
 10
6.0000000000053539
 20
151.00000000004709
 30
0.0
 10
6.0000000000053539
 20
154.00000000004809
 30
0.0
 10
1.0000000000062641
 20
154.00000000004709
 30
0.0
 10
1.0000000000062641
 20
127.0000000000481
 30
0.0
 10
3.7677212361281511
 20
118.8858321955758
 30
0.0
 42
0.293538828766453
 10
8.0008329167681822
 20
115.52497917363939
 30
0.0
  0
LWPOLYLINE
  5
B2
  8
Corte exterior
 62
256
370
-1
 48
1.0
  6
ByLayer
100
AcDbEntity
100
AcDbPolyline
 90
3
 70
0
 10
23.00083291676907
 20
115.4750208264205
 30
0.0
 42
0.2935388287683351
 10
18.767721236091859
 20
112.114167804467
 30
0.0
 10
15.999999999998609
 20
104.0000000000001
 30
0.0
  0
LWPOLYLINE
  5
B3
  8
Corte exterior
 62
256
370
-1
 48
1.0
  6
ByLayer
100
AcDbEntity
100
AcDbPolyline
 90
4
 70
0
 10
30.999999999998611
 20
77.000000000000071
 30
0.0
 10
30.999999999998611
 20
104.0000000000001
 30
0.0
 10
28.232278763884679
 20
112.1141678044802
 30
0.0
 42
0.2935388287661919
 10
23.99916708323736
 20
115.475020826418
 30
0.0
  0
LWPOLYLINE
  5
B4
  8
Corte exterior
 62
256
370
-1
 48
1.0
  6
ByLayer
100
AcDbEntity
100
AcDbPolyline
 90
4
 70
0
 10
23.999167083236468
 20
115.5249791736382
 30
0.0
 42
0.2935388287664315
 10
28.232278763892829
 20
118.8858321955537
 30
0.0
 10
31.000000000005372
 20
127.0000000000484
 30
0.0
 10
31.000000000005372
 20
135.99999999999949
 30
0.0
  0
LWPOLYLINE
  5
B5
  8
Corte exterior
 62
256
370
-1
 48
1.0
  6
ByLayer
100
AcDbEntity
100
AcDbPolyline
 90
3
 70
0
 10
16.00000000000535
 20
127.0000000000481
 30
0.0
 10
18.76772123612729
 20
118.8858321955769
 30
0.0
 42
0.293538828766488
 10
23.000832916768189
 20
115.5249791736405
 30
0.0
  0
LWPOLYLINE
  5
B6
  8
Corte exterior
 62
256
370
-1
 48
1.0
  6
ByLayer
100
AcDbEntity
100
AcDbPolyline
 90
10
 70
0
 10
45.910534698035043
 20
128.9999999999998
 30
0.0
 42
0.0840558656825394
 10
42.61873557023636
 20
128.4426722119442
 30
0.0
 42
-0.0750830922409491
 10
31.000000000005318
 20
126.26172906000249
 30
0.0
 42
0.1529329040022288
 10
38.799998929723337
 20
111.5
 30
0.0
 42
-0.2360679774997998
 10
30.799998929723319
 20
105.5
 30
0.0
 42
0.1322605765246415
 10
35.799998929723301
 20
96.499999999999986
 30
0.0
 42
-0.1959841103486521
 10
30.999999999998611
 20
95.451501421429043
 30
0.0
 42
0.1714451529565013
 10
37.799998929723309
 20
84.499999999999972
 30
0.0
 42
-0.1585881531037903
 10
30.999999999998611
 20
83.583764884937068
 30
0.0
 42
0.228497156839227
 10
41.316708655140133
 20
77.000000000000014
 30
0.0
  0
LWPOLYLINE
  5
B7
  8
Corte exterior
 62
256
370
-1
 48
1.0
  6
ByLayer
100
AcDbEntity
100
AcDbPolyline
 90
4
 70
0
 10
47.130520461765272
 20
129.0
 30
0.0
 10
34.000000000005372
 20
128.9999999999992
 30
0.0
 10
34.000000000005357
 20
134.0
 30
0.0
 10
31.000000000005372
 20
134.0
 30
0.0
  0
LWPOLYLINE
  5
B8
  8
Corte exterior
 62
256
370
-1
 48
1.0
  6
ByLayer
100
AcDbEntity
100
AcDbPolyline
 90
22
 70
0
 10
72.233474348480058
 20
77.0
 30
0.0
 10
82.999999999999986
 20
77.0
 30
0.0
 10
82.996933655126654
 20
73.505353281674573
 30
0.0
 42
-0.6660818148748577
 10
91.622304723684451
 20
77.033193560581907
 30
0.0
 42
0.0147627310818885
 10
91.836792279384213
 20
76.830382331087137
 30
0.0
 42
0.1812357870541775
 10
100.0634361833031
 20
73.645984879717901
 30
0.0
 42
0.1067322421682086
 10
102.1311585257797
 20
74.069260669235703
 30
0.0
 42
-0.0413431169954549
 10
111.5038424106902
 20
77.299935866210916
 30
0.0
 42
-0.0844575517937217
 10
113.17556039382259
 20
77.435276116578095
 30
0.0
 42
-0.2161539010494962
 10
119.2888277539315
 20
73.987699305180641
 30
0.0
 42
0.0872451108744306
 10
120.5378227344509
 20
72.788170780692454
 30
0.0
 42
0.2841823292056622
 10
128.9109771133522
 20
72.475008429939294
 30
0.0
 42
0.0974107642284771
 10
130.37379808252319
 20
73.73384888709586
 30
0.0
 42
-0.0955351592573832
 10
136.7976043205912
 20
79.303587759691453
 30
0.0
 42
-0.1738595791421592
 10
140.1185229251669
 20
79.90630730738809
 30
0.0
 42
-0.18721721236957
 10
147.92918183901031
 20
75.278457698095551
 30
0.0
 42
-0.1679933842558124
 10
148.99693472537149
 20
72.190184290950484
 30
0.0
 10
148.9969347253847
 20
11.35079011472696
 30
0.0
 42
-0.4138681267655579
 10
139.00873007223191
 20
1.350797071236929
 30
0.0
 10
93.006674259467417
 20
1.305014206536897
 30
0.0
 42
-0.4144988869001482
 10
82.99693365510673
 20
11.30500946256873
 30
0.0
 10
82.996933655108123
 20
15.55629797554302
 30
0.0
  0
LWPOLYLINE
  5
B9
  8
Corte exterior
 62
256
370
-1
 48
1.0
  6
ByLayer
100
AcDbEntity
100
AcDbPolyline
 90
4
 70
0
 10
82.999998929723901
 20
88.713556379795449
 30
0.0
 10
82.999998929723333
 20
84.249999999999972
 30
0.0
 10
79.999998929723333
 20
84.249999999999929
 30
0.0
 10
79.999998929723333
 20
77.0
 30
0.0
  0
LWPOLYLINE
  5
BA
  8
Corte exterior
 62
256
370
-1
 48
1.0
  6
ByLayer
100
AcDbEntity
100
AcDbPolyline
 90
4
 70
0
 10
82.999999999999972
 20
44.899999999999991
 30
0.0
 10
71.199999999999932
 20
44.899999999999991
 30
0.0
 10
71.199999999999932
 20
21.699999999999999
 30
0.0
 10
82.999999999999972
 20
21.699999999999999
 30
0.0
  0
LWPOLYLINE
  5
BB
  8
Corte exterior
 62
256
370
-1
 48
1.0
  6
ByLayer
100
AcDbEntity
100
AcDbPolyline
 90
4
 70
0
 10
1.0
 20
21.699999999999989
 30
0.0
 10
12.80000000000001
 20
21.699999999999989
 30
0.0
 10
12.80000000000001
 20
44.899999999999977
 30
0.0
 10
1.0
 20
44.899999999999977
 30
0.0
  0
LWPOLYLINE
  5
BC
  8
Corte exterior
 62
256
370
-1
 48
1.0
  6
ByLayer
100
AcDbEntity
100
AcDbPolyline
 90
4
 70
0
 10
10.999999999997661
 20
77.0
 30
0.0
 10
10.999999999997661
 20
80.0
 30
0.0
 10
5.9999999999986073
 20
80.0
 30
0.0
 10
5.9999999999986073
 20
77.0
 30
0.0
  0
LWPOLYLINE
  5
BD
  8
Corte exterior
 62
256
370
-1
 48
1.0
  6
ByLayer
100
AcDbEntity
100
AcDbPolyline
 90
4
 70
0
 10
25.999999999998611
 20
77.000000000000071
 30
0.0
 10
25.999999999998611
 20
80.000000000000099
 30
0.0
 10
20.999999999998611
 20
80.000000000000099
 30
0.0
 10
20.999999999998611
 20
77.000000000000071
 30
0.0
  0
LWPOLYLINE
  5
BE
  8
Corte exterior
 62
256
370
-1
 48
1.0
  6
ByLayer
100
AcDbEntity
100
AcDbPolyline
 90
4
 70
0
 10
67.000000000006168
 20
155.9999999999996
 30
0.0
 10
67.000000000006168
 20
153.9999999999992
 30
0.0
 10
70.000000000006168
 20
153.9999999999992
 30
0.0
 10
70.000000000006168
 20
151.99999999999909
 30
0.0
  0
LWPOLYLINE
  5
BF
  8
Corte exterior
 62
256
370
-1
 48
1.0
  6
ByLayer
100
AcDbEntity
100
AcDbPolyline
 90
4
 70
0
 10
70.000000000006168
 20
150.99999999999909
 30
0.0
 10
70.000000000005272
 20
148.99999999999869
 30
0.0
 10
67.000000000006168
 20
148.99999999999909
 30
0.0
 10
67.000000000006168
 20
146.99999999999909
 30
0.0
  0
LWPOLYLINE
  5
C0
  8
Corte exterior
 62
256
370
-1
 48
1.0
  6
ByLayer
100
AcDbEntity
100
AcDbPolyline
 90
4
 70
0
 10
82.999998929723333
 20
94.249999999999943
 30
0.0
 10
79.999998929723333
 20
94.249999999999943
 30
0.0
 10
79.999998929723333
 20
111.7499999999999
 30
0.0
 10
82.999998929723304
 20
111.7499999999999
 30
0.0
  0
LWPOLYLINE
  5
C1
  8
Corte exterior
 62
256
370
-1
 48
1.0
  6
ByLayer
100
AcDbEntity
100
AcDbPolyline
 90
4
 70
0
 10
82.999998929723333
 20
121.7499999999999
 30
0.0
 10
79.999998929723333
 20
121.7499999999999
 30
0.0
 10
79.999998929723333
 20
128.9999999999998
 30
0.0
 10
72.150000000005093
 20
128.9999999999992
 30
0.0
  0
LWPOLYLINE
  5
C2
  8
Corte exterior
 62
256
370
-1
 48
1.0
  6
ByLayer
100
AcDbEntity
100
AcDbPolyline
 90
4
 70
0
 10
70.000000000006168
 20
135.9999999999992
 30
0.0
 10
70.000000000006168
 20
134.0
 30
0.0
 10
67.000000000006168
 20
134.0
 30
0.0
 10
67.000000000006168
 20
131.9999999999996
 30
0.0
  0
LWPOLYLINE
  5
C3
  8
Corte exterior
 62
256
370
-1
 48
1.0
  6
ByLayer
100
AcDbEntity
100
AcDbPolyline
 90
4
 70
0
 10
31.000000000005372
 20
138.99999999999909
 30
0.0
 10
34.000000000005372
 20
138.99999999999909
 30
0.0
 10
34.000000000005372
 20
148.99999999999909
 30
0.0
 10
31.000000000005372
 20
148.99999999999909
 30
0.0
  0
LWPOLYLINE
  5
C4
  8
grabado linea medio
 62
256
370
-1
 48
1.0
  6
ByLayer
100
AcDbEntity
100
AcDbPolyline
 90
4
 70
0
 10
11.374999999997669
 20
108.5039059760001
 30
0.0
 10
10.495174572762551
 20
95.861153234835072
 30
0.0
 42
-0.9328272624569168
 10
6.5048254272369217
 20
95.861153234835086
 30
0.0
 10
5.6249999999976961
 20
108.503905975979
 30
0.0
  0
LWPOLYLINE
  5
C5
  8
grabado linea medio
 62
256
370
-1
 48
1.0
  6
ByLayer
100
AcDbEntity
100
AcDbPolyline
 90
4
 70
0
 10
26.723582377445791
 20
108.5039059760003
 30
0.0
 10
25.843756950209752
 20
95.861153234835001
 30
0.0
 42
-0.932827262456924
 10
21.853407804682661
 20
95.861153234835314
 30
0.0
 10
20.97358237744487
 20
108.503905975979
 30
0.0
  0
LWPOLYLINE
  5
C6
  8
grabado linea medio
 62
256
370
-1
 48
1.0
  6
ByLayer
100
AcDbEntity
100
AcDbPolyline
 90
4
 70
0
 10
51.749999999868209
 20
139.76917420776141
 30
0.0
 10
64.800000000005156
 20
138.49999999999909
 30
0.0
 42
-1.0000000000000031
 10
64.800000000005141
 20
134.4999999999992
 30
0.0
 10
51.749999999979337
 20
133.2308257923691
 30
0.0
  0
LWPOLYLINE
  5
C7
  8
grabado linea medio
 62
256
370
-1
 48
1.0
  6
ByLayer
100
AcDbEntity
100
AcDbPolyline
 90
4
 70
0
 10
49.250000000143899
 20
133.23082579223779
 30
0.0
 10
36.303397547505263
 20
134.5096865885989
 30
0.0
 42
-0.951943099652928
 10
36.500000000018929
 20
138.49999999999909
 30
0.0
 10
49.250000000032863
 20
139.7691742076301
 30
0.0
  0
LWPOLYLINE
  5
C8
  8
grabado linea medio
 62
256
370
-1
 48
1.0
  6
ByLayer
100
AcDbEntity
100
AcDbPolyline
 90
4
 70
0
 10
51.749999999868209
 20
154.7691742077613
 30
0.0
 10
64.800000000005156
 20
153.5
 30
0.0
 42
-0.9999999999999998
 10
64.800000000005156
 20
149.49999999999909
 30
0.0
 10
51.749999999979352
 20
148.23082579237001
 30
0.0
  0
LWPOLYLINE
  5
C9
  8
grabado linea medio
 62
256
370
-1
 48
1.0
  6
ByLayer
100
AcDbEntity
100
AcDbPolyline
 90
4
 70
0
 10
49.250000000144027
 20
148.23082579223691
 30
0.0
 10
36.303397547505242
 20
149.5096865885989
 30
0.0
 42
-0.9519430996529305
 10
36.500000000018971
 20
153.5
 30
0.0
 10
49.250000000032777
 20
154.76917420762999
 30
0.0
  0
ENDSEC
  0
SECTION
  2
OBJECTS
  0
DICTIONARY
  5
C
100
AcDbDictionary
280
0
281
1
  3
ACAD_GROUP
350
D
  3
ACAD_LAYOUT
350
1A
  3
ACAD_MLINESTYLE
350
17
  3
ACAD_PLOTSETTINGS
350
19
  3
ACAD_PLOTSTYLENAME
350
E
  3
AcDbVariableDictionary
350
CA
  3
QCAD_OBJECTS
350
CB
  0
DICTIONARY
  5
D
100
AcDbDictionary
280
0
281
1
  0
ACDBDICTIONARYWDFLT
  5
E
100
AcDbDictionary
281
1
  3
Normal
350
F
100
AcDbDictionaryWithDefault
340
F
  0
ACDBPLACEHOLDER
  5
F
  0
DICTIONARY
  5
17
100
AcDbDictionary
280
0
281
1
  3
Standard
350
18
  0
MLINESTYLE
  5
18
100
AcDbMlineStyle
  2
STANDARD
 70
0
  3

 62
256
 51
90.0
 52
90.0
 71
2
 49
0.5
 62
256
  6
BYLAYER
 49
-0.5
 62
256
  6
BYLAYER
  0
DICTIONARY
  5
19
100
AcDbDictionary
280
0
281
1
  0
DICTIONARY
  5
1A
100
AcDbDictionary
281
1
  3
Layout1
350
1E
  3
Layout2
350
26
  3
Model
350
22
  0
LAYOUT
  5
1E
100
AcDbPlotSettings
  1

  2
none_device
  4

  6

 40
0.0
 41
0.0
 42
0.0
 43
0.0
 44
0.0
 45
0.0
 46
0.0
 47
0.0
 48
0.0
 49
0.0
140
0.0
141
0.0
142
1.0
143
1.0
 70
688
 72
0
 73
0
 74
5
  7

 75
16
147
1.0
148
0.0
149
0.0
100
AcDbLayout
  1
Layout1
 70
1
 71
1
 10
0.0
 20
0.0
 11
420.0
 21
297.0
 12
0.0
 22
0.0
 32
0.0
 14
100000000000000000000.0
 24
100000000000000000000.0
 34
100000000000000000000.0
 15
-100000000000000000000.0
 25
-100000000000000000000.0
 35
-100000000000000000000.0
146
0.0
 13
0.0
 23
0.0
 33
0.0
 16
1.0
 26
0.0
 36
0.0
 17
0.0
 27
1.0
 37
0.0
 76
0
330
1B
  0
LAYOUT
  5
22
100
AcDbPlotSettings
  1

  2
none_device
  4

  6

 40
0.0
 41
0.0
 42
0.0
 43
0.0
 44
0.0
 45
0.0
 46
0.0
 47
0.0
 48
0.0
 49
0.0
140
0.0
141
0.0
142
1.0
143
1.0
 70
1712
 72
0
 73
0
 74
0
  7

 75
0
147
1.0
148
0.0
149
0.0
100
AcDbLayout
  1
Model
 70
1
 71
0
 10
0.0
 20
0.0
 11
12.0
 21
9.0
 12
0.0
 22
0.0
 32
0.0
 14
0.0
 24
0.0
 34
0.0
 15
0.0
 25
0.0
 35
0.0
146
0.0
 13
0.0
 23
0.0
 33
0.0
 16
1.0
 26
0.0
 36
0.0
 17
0.0
 27
1.0
 37
0.0
 76
0
330
1F
  0
LAYOUT
  5
26
100
AcDbPlotSettings
  1

  2
none_device
  4

  6

 40
0.0
 41
0.0
 42
0.0
 43
0.0
 44
0.0
 45
0.0
 46
0.0
 47
0.0
 48
0.0
 49
0.0
140
0.0
141
0.0
142
1.0
143
1.0
 70
688
 72
0
 73
0
 74
5
  7

 75
16
147
1.0
148
0.0
149
0.0
100
AcDbLayout
  1
Layout2
 70
1
 71
2
 10
0.0
 20
0.0
 11
12.0
 21
9.0
 12
0.0
 22
0.0
 32
0.0
 14
0.0
 24
0.0
 34
0.0
 15
0.0
 25
0.0
 35
0.0
146
0.0
 13
0.0
 23
0.0
 33
0.0
 16
1.0
 26
0.0
 36
0.0
 17
0.0
 27
1.0
 37
0.0
 76
0
330
23
  0
DICTIONARY
  5
CA
100
AcDbDictionary
281
1
  3
DIMASSOC
350
CD
  3
HIDETEXT
350
CC
  0
DICTIONARYVAR
  5
CC
100
DictionaryVariables
280
0
  1
2
  0
DICTIONARYVAR
  5
CD
100
DictionaryVariables
280
0
  1
1
  0
DICTIONARY
  5
CB
100
AcDbDictionary
281
1
  3
ColorSettings/BackgroundColor
350
CE
  3
ColorSettings/ColorMode
350
CF
  3
Grid/DisplayGrid00
350
D0
  3
Grid/DisplayGrid01
350
D1
  3
Grid/DisplayGrid02
350
D2
  3
Grid/DisplayGrid03
350
D3
  3
Grid/GridSpacingX00
350
D4
  3
Grid/GridSpacingX01
350
D5
  3
Grid/GridSpacingX02
350
D6
  3
Grid/GridSpacingX03
350
D7
  3
Grid/GridSpacingY00
350
D8
  3
Grid/GridSpacingY01
350
D9
  3
Grid/GridSpacingY02
350
DA
  3
Grid/GridSpacingY03
350
DB
  3
Grid/IsometricGrid00
350
DC
  3
Grid/IsometricGrid01
350
DD
  3
Grid/IsometricGrid02
350
DE
  3
Grid/IsometricGrid03
350
DF
  3
Grid/IsometricProjection00
350
E0
  3
Grid/IsometricProjection01
350
E1
  3
Grid/IsometricProjection02
350
E2
  3
Grid/IsometricProjection03
350
E3
  3
Grid/MetaGridSpacingX00
350
E4
  3
Grid/MetaGridSpacingX01
350
E5
  3
Grid/MetaGridSpacingX02
350
E6
  3
Grid/MetaGridSpacingX03
350
E7
  3
Grid/MetaGridSpacingY00
350
E8
  3
Grid/MetaGridSpacingY01
350
E9
  3
Grid/MetaGridSpacingY02
350
EA
  3
Grid/MetaGridSpacingY03
350
EB
  3
MultiPageSettings/Columns
350
EC
  3
MultiPageSettings/GlueMarginsBottom
350
ED
  3
MultiPageSettings/GlueMarginsLeft
350
EE
  3
MultiPageSettings/GlueMarginsRight
350
EF
  3
MultiPageSettings/GlueMarginsTop
350
F0
  3
MultiPageSettings/PrintCropMarks
350
F1
  3
MultiPageSettings/Rows
350
F2
  3
PageSettings/OffsetX
350
F3
  3
PageSettings/OffsetY
350
F4
  3
PageSettings/PageOrientation
350
F5
  3
PageSettings/PaperHeight
350
F6
  3
PageSettings/PaperWidth
350
F7
  3
PageSettings/Scale
350
F8
  3
PageSettings/ShowPaperBorders
350
F9
  3
QCADVersion
350
FA
  3
UnitSettings/PaperUnit
350
FB
  3
ViewportCenter
350
FC
  3
ViewportHeight
350
FD
  3
ViewportWidth
350
FE
  0
XRECORD
  5
CE
330
CB
100
AcDbXrecord
280
1
1000
#ffffff
  0
XRECORD
  5
CF
330
CB
100
AcDbXrecord
280
1
1000
FullColor
  0
XRECORD
  5
D0
330
CB
100
AcDbXrecord
280
1
290
1
  0
XRECORD
  5
D1
330
CB
100
AcDbXrecord
280
1
290
1
  0
XRECORD
  5
D2
330
CB
100
AcDbXrecord
280
1
290
1
  0
XRECORD
  5
D3
330
CB
100
AcDbXrecord
280
1
290
1
  0
XRECORD
  5
D4
330
CB
100
AcDbXrecord
280
1
1000
auto
  0
XRECORD
  5
D5
330
CB
100
AcDbXrecord
280
1
1000
auto
  0
XRECORD
  5
D6
330
CB
100
AcDbXrecord
280
1
1000
auto
  0
XRECORD
  5
D7
330
CB
100
AcDbXrecord
280
1
1000
auto
  0
XRECORD
  5
D8
330
CB
100
AcDbXrecord
280
1
1000
auto
  0
XRECORD
  5
D9
330
CB
100
AcDbXrecord
280
1
1000
auto
  0
XRECORD
  5
DA
330
CB
100
AcDbXrecord
280
1
1000
auto
  0
XRECORD
  5
DB
330
CB
100
AcDbXrecord
280
1
1000
auto
  0
XRECORD
  5
DC
330
CB
100
AcDbXrecord
280
1
290
0
  0
XRECORD
  5
DD
330
CB
100
AcDbXrecord
280
1
290
0
  0
XRECORD
  5
DE
330
CB
100
AcDbXrecord
280
1
290
0
  0
XRECORD
  5
DF
330
CB
100
AcDbXrecord
280
1
290
0
  0
XRECORD
  5
E0
330
CB
100
AcDbXrecord
280
1
 90
0
  0
XRECORD
  5
E1
330
CB
100
AcDbXrecord
280
1
 90
0
  0
XRECORD
  5
E2
330
CB
100
AcDbXrecord
280
1
 90
0
  0
XRECORD
  5
E3
330
CB
100
AcDbXrecord
280
1
 90
0
  0
XRECORD
  5
E4
330
CB
100
AcDbXrecord
280
1
1000
auto
  0
XRECORD
  5
E5
330
CB
100
AcDbXrecord
280
1
1000
auto
  0
XRECORD
  5
E6
330
CB
100
AcDbXrecord
280
1
1000
auto
  0
XRECORD
  5
E7
330
CB
100
AcDbXrecord
280
1
1000
auto
  0
XRECORD
  5
E8
330
CB
100
AcDbXrecord
280
1
1000
auto
  0
XRECORD
  5
E9
330
CB
100
AcDbXrecord
280
1
1000
auto
  0
XRECORD
  5
EA
330
CB
100
AcDbXrecord
280
1
1000
auto
  0
XRECORD
  5
EB
330
CB
100
AcDbXrecord
280
1
1000
auto
  0
XRECORD
  5
EC
330
CB
100
AcDbXrecord
280
1
 90
1
  0
XRECORD
  5
ED
330
CB
100
AcDbXrecord
280
1
 40
10.0
  0
XRECORD
  5
EE
330
CB
100
AcDbXrecord
280
1
 40
10.0
  0
XRECORD
  5
EF
330
CB
100
AcDbXrecord
280
1
 40
10.0
  0
XRECORD
  5
F0
330
CB
100
AcDbXrecord
280
1
 40
10.0
  0
XRECORD
  5
F1
330
CB
100
AcDbXrecord
280
1
290
0
  0
XRECORD
  5
F2
330
CB
100
AcDbXrecord
280
1
 90
1
  0
XRECORD
  5
F3
330
CB
100
AcDbXrecord
280
1
 40
0.0
  0
XRECORD
  5
F4
330
CB
100
AcDbXrecord
280
1
 40
0.0
  0
XRECORD
  5
F5
330
CB
100
AcDbXrecord
280
1
1000
Portrait
  0
XRECORD
  5
F6
330
CB
100
AcDbXrecord
280
1
 40
279.39999999999998
  0
XRECORD
  5
F7
330
CB
100
AcDbXrecord
280
1
 40
215.90000000000001
  0
XRECORD
  5
F8
330
CB
100
AcDbXrecord
280
1
1000
1:1
  0
XRECORD
  5
F9
330
CB
100
AcDbXrecord
280
1
290
1
  0
XRECORD
  5
FA
330
CB
100
AcDbXrecord
280
1
1000
3.15.2
  0
XRECORD
  5
FB
330
CB
100
AcDbXrecord
280
1
 90
4
  0
XRECORD
  5
FD
330
CB
100
AcDbXrecord
280
1
 40
183.18840579710144
  0
XRECORD
  5
FE
330
CB
100
AcDbXrecord
280
1
 40
399.30434782608694
  0
ENDSEC
  0
EOF
