999
dxflib 3.12.2.0
  0
SECTION
  2
HEADER
  9
$ACADVER
  1
AC1015
  9
$HANDSEED
  5
FFFF
  9
$ANGBASE
 50
0.0
  9
$ATTMODE
 70
1
  9
$AUNITS
 70
0
  9
$AUPREC
 70
0
  9
$CELTSCALE
 40
1.0
  9
$CHAMFERA
 40
0.0
  9
$CHAMFERB
 40
0.0
  9
$CHAMFERC
 40
0.0
  9
$CHAMFERD
 40
0.0
  9
$CMLJUST
 70
0
  9
$CMLSCALE
 40
1.0
  9
$DIMADEC
 70
0
  9
$DIMALTD
 70
3
  9
$DIMALTF
 40
0.03937007874016
  9
$DIMALTRND
 40
0.0
  9
$DIMALTTD
 70
2
  9
$DIMALTTZ
 70
0
  9
$DIMALTU
 70
2
  9
$DIMALTZ
 70
0
  9
$DIMAPOST
  1

  9
$DIMASZ
 40
2.5
  9
$DIMATFIT
 70
3
  9
$DIMAUNIT
 70
0
  9
$DIMAZIN
 70
0
  9
$DIMCEN
 40
2.5
  9
$DIMDEC
 70
4
  9
$DIMDLE
 40
0.0
  9
$DIMDLI
 40
3.75
  9
$DIMDSEP
 70
46
  9
$DIMEXE
 40
1.25
  9
$DIMEXO
 40
0.625
  9
$DIMFRAC
 70
0
  9
$DIMGAP
 40
0.625
  9
$DIMJUST
 70
0
  9
$DIMLFAC
 40
1.0
  9
$DIMLUNIT
 70
2
  9
$DIMLWD
 70
-2
  9
$DIMLWE
 70
-2
  9
$DIMPOST
  1

  9
$DIMRND
 40
0.0
  9
$DIMSCALE
 40
1.0
  9
$DIMTAD
 70
1
  9
$DIMTDEC
 70
4
  9
$DIMTFAC
 40
1.0
  9
$DIMTM
 40
0.0
  9
$DIMTOLJ
 70
1
  9
$DIMTP
 40
0.0
  9
$DIMTSZ
 40
0.0
  9
$DIMTVP
 40
0.0
  9
$DIMTXT
 40
2.5
  9
$DIMTZIN
 70
0
  9
$DIMZIN
 70
8
  9
$DWGCODEPAGE
  3
ANSI_1252
  9
$ELEVATION
 40
0.0
  9
$EXTMAX
 10
150.0
 20
160.0
 30
0.0
  9
$EXTMIN
 10
0.0
 20
0.0
 30
0.0
  9
$FILLETRAD
 40
2.0
  9
$INSBASE
 10
0.0
 20
0.0
 30
0.0
  9
$INSUNITS
 70
0
  9
$LIMMAX
 10
420.0
 20
297.0
  9
$LIMMIN
 10
0.0
 20
0.0
  9
$LTSCALE
 40
1.0
  9
$LUNITS
 70
2
  9
$LUPREC
 70
4
  9
$MAXACTVP
 70
2
  9
$MEASUREMENT
 70
0
  9
$PDMODE
 70
0
  9
$PDSIZE
 40
0
  9
$PELEVATION
 40
0.0
  9
$PEXTMAX
 10
-100000000000000000000.0
 20
-100000000000000000000.0
 30
-100000000000000000000.0
  9
$PEXTMIN
 10
100000000000000000000.0
 20
100000000000000000000.0
 30
100000000000000000000.0
  9
$PINSBASE
 10
0.0
 20
0.0
 30
0.0
  9
$PLIMMAX
 10
10.75
 20
8.25
  9
$PLIMMIN
 10
-0.25
 20
-0.25
  9
$PLINEWID
 40
0.0
  9
$PROXYGRAPHICS
 70
1
  9
$PUCSORG
 10
0.0
 20
0.0
 30
0.0
  9
$PUCSXDIR
 10
1.0
 20
0.0
 30
0.0
  9
$PUCSYDIR
 10
0.0
 20
1.0
 30
0.0
  9
$SHADEDGE
 70
3
  9
$SHADEDIF
 70
70
  9
$SKETCHINC
 40
1.0
  9
$SPLINESEGS
 70
8
  9
$SPLINETYPE
 70
6
  9
$SURFTAB1
 70
6
  9
$SURFTAB2
 70
6
  9
$SURFTYPE
 70
6
  9
$SURFU
 70
6
  9
$SURFV
 70
6
  9
$TEXTSIZE
 40
2.5
  9
$THICKNESS
 40
0.0
  9
$TRACEWID
 40
1.0
  9
$TREEDEPTH
 70
3020
  9
$UCSORG
 10
0.0
 20
0.0
 30
0.0
  9
$UCSXDIR
 10
1.0
 20
0.0
 30
0.0
  9
$UCSYDIR
 10
0.0
 20
1.0
 30
0.0
  9
$UNITMODE
 70
0
  9
$USERI1
 70
0
  9
$USERI2
 70
0
  9
$USERI3
 70
0
  9
$USERI4
 70
0
  9
$USERI5
 70
0
  9
$USERR1
 40
0.0
  9
$USERR2
 40
0.0
  9
$USERR3
 40
0.0
  9
$USERR4
 40
0.0
  9
$USERR5
 40
0.0
  0
ENDSEC
  0
SECTION
  2
TABLES
  0
TABLE
  2
VPORT
  5
8
100
AcDbSymbolTable
 70
1
  0
VPORT
  5
30
100
AcDbSymbolTableRecord
100
AcDbViewportTableRecord
  2
*Active
 70
0
 10
0.0
 20
0.0
 11
1.0
 21
1.0
 12
286.30555555555549
 22
148.5
 13
0.0
 23
0.0
 14
10.0
 24
10.0
 15
10.0
 25
10.0
 16
0.0
 26
0.0
 36
1.0
 17
0.0
 27
0.0
 37
0.0
 40
297.0
 41
1.92798353909465
 42
50.0
 43
0.0
 44
0.0
 50
0.0
 51
0.0
 71
0
 72
100
 73
1
 74
3
 75
1
 76
1
 77
0
 78
0
281
0
 65
1
110
0.0
120
0.0
130
0.0
111
1.0
121
0.0
131
0.0
112
0.0
122
1.0
132
0.0
 79
0
146
0.0
  0
ENDTAB
  0
TABLE
  2
LTYPE
  5
5
100
AcDbSymbolTable
 70
50
  0
LTYPE
  5
16
100
AcDbSymbolTableRecord
100
AcDbLinetypeTableRecord
  2
Continuous
 70
0
  3
Solid line
 72
65
 73
0
 40
0.0
  0
LTYPE
  5
31
100
AcDbSymbolTableRecord
100
AcDbLinetypeTableRecord
  2
ACAD_ISO15W100
 70
0
  3
ISO double-dash triple-dot __ __ . . . __ __ . .
 72
65
 73
10
 40
39.000000000000007
 49
12.0
 74
0
 49
-3.0
 74
0
 49
12.0
 74
0
 49
-2.9500000000000002
 74
0
 49
0.1
 74
0
 49
-2.8999999999999999
 74
0
 49
0.1
 74
0
 49
-2.8999999999999999
 74
0
 49
0.1
 74
0
 49
-2.9500000000000002
 74
0
  0
LTYPE
  5
32
100
AcDbSymbolTableRecord
100
AcDbLinetypeTableRecord
  2
HOT_WATER_SUPPLY
 70
0
  3
Hot water supply ---- HW ---- HW ---- HW ----
 72
65
 73
3
 40
22.859999999999999
 49
12.699999999999999
 74
0
 49
-5.0800000000000001
 74
0
 49
-5.0800000000000001
 74
0
  0
LTYPE
  5
33
100
AcDbSymbolTableRecord
100
AcDbLinetypeTableRecord
  2
DIVIDE
 70
0
  3
Divide ____ . . ____ . . ____ . . ____ . . ____
 72
65
 73
6
 40
31.749999999999993
 49
12.699999999999999
 74
0
 49
-6.299999999999998
 74
0
 49
0.1
 74
0
 49
-6.2499999999999982
 74
0
 49
0.1
 74
0
 49
-6.299999999999998
 74
0
  0
LTYPE
  5
34
100
AcDbSymbolTableRecord
100
AcDbLinetypeTableRecord
  2
ACAD_ISO10W100
 70
0
  3
ISO dash dot __ . __ . __ . __ . __ . __ . __ . 
 72
65
 73
4
 40
18.0
 49
12.0
 74
0
 49
-2.9500000000000002
 74
0
 49
0.1
 74
0
 49
-2.9500000000000002
 74
0
  0
LTYPE
  5
35
100
AcDbSymbolTableRecord
100
AcDbLinetypeTableRecord
  2
GAS_LINE
 70
0
  3
Gas line ----GAS----GAS----GAS----GAS----GAS----GAS--
 72
65
 73
3
 40
24.129999999999999
 49
12.699999999999999
 74
0
 49
-5.0800000000000001
 74
0
 49
-6.349999999999997
 74
0
  0
LTYPE
  5
36
100
AcDbSymbolTableRecord
100
AcDbLinetypeTableRecord
  2
ACAD_ISO04W100
 70
0
  3
ISO long-dash dot ____ . ____ . ____ . ____ . _
 72
65
 73
4
 40
30.0
 49
24.0
 74
0
 49
-2.9500000000000002
 74
0
 49
0.1
 74
0
 49
-2.9500000000000002
 74
0
  0
LTYPE
  5
14
100
AcDbSymbolTableRecord
100
AcDbLinetypeTableRecord
  2
ByBlock
 70
0
  3

 72
65
 73
0
 40
0.0
  0
LTYPE
  5
37
100
AcDbSymbolTableRecord
100
AcDbLinetypeTableRecord
  2
CENTER2
 70
0
  3
Center (.5x) ___ _ ___ _ ___ _ ___ _ ___ _ ___
 72
65
 73
4
 40
28.574999999999992
 49
19.050000000000001
 74
0
 49
-3.174999999999998
 74
0
 49
3.174999999999998
 74
0
 49
-3.174999999999998
 74
0
  0
LTYPE
  5
38
100
AcDbSymbolTableRecord
100
AcDbLinetypeTableRecord
  2
ACAD_ISO11W100
 70
0
  3
ISO double-dash dot __ __ . __ __ . __ __ . __ _
 72
65
 73
6
 40
33.0
 49
12.0
 74
0
 49
-3.0
 74
0
 49
12.0
 74
0
 49
-2.9500000000000002
 74
0
 49
0.1
 74
0
 49
-2.9500000000000002
 74
0
  0
LTYPE
  5
39
100
AcDbSymbolTableRecord
100
AcDbLinetypeTableRecord
  2
HIDDEN2
 70
0
  3
Hidden (.5x) _ _ _ _ _ _ _ _ _ _ _ _ _ _ _ _ _ 
 72
65
 73
2
 40
4.7624999999999975
 49
3.174999999999998
 74
0
 49
-1.587499999999999
 74
0
  0
LTYPE
  5
3A
100
AcDbSymbolTableRecord
100
AcDbLinetypeTableRecord
  2
BORDERX2
 70
0
  3
Border (2x) ____  ____  .  ____  ____  .  ___
 72
65
 73
6
 40
88.899999999999991
 49
25.399999999999999
 74
0
 49
-12.699999999999999
 74
0
 49
25.399999999999999
 74
0
 49
-12.65
 74
0
 49
0.1
 74
0
 49
-12.65
 74
0
  0
LTYPE
  5
3B
100
AcDbSymbolTableRecord
100
AcDbLinetypeTableRecord
  2
ACAD_ISO05W100
 70
0
  3
ISO long-dash double-dot ____ .. ____ .. ____ . 
 72
65
 73
6
 40
33.0
 49
24.0
 74
0
 49
-2.9500000000000002
 74
0
 49
0.1
 74
0
 49
-2.8999999999999999
 74
0
 49
0.1
 74
0
 49
-2.9500000000000002
 74
0
  0
LTYPE
  5
3C
100
AcDbSymbolTableRecord
100
AcDbLinetypeTableRecord
  2
DASHDOTX2
 70
0
  3
Dash dot (2x) ____  .  ____  .  ____  .  ___
 72
65
 73
4
 40
50.799999999999997
 49
25.399999999999999
 74
0
 49
-12.65
 74
0
 49
0.1
 74
0
 49
-12.65
 74
0
  0
LTYPE
  5
3D
100
AcDbSymbolTableRecord
100
AcDbLinetypeTableRecord
  2
HIDDENX2
 70
0
  3
Hidden (2x) ____ ____ ____ ____ ____ ____ ____ 
 72
65
 73
2
 40
19.049999999999997
 49
12.699999999999999
 74
0
 49
-6.349999999999997
 74
0
  0
LTYPE
  5
3E
100
AcDbSymbolTableRecord
100
AcDbLinetypeTableRecord
  2
CENTERX2
 70
0
  3
Center (2x) ________  __  ________  __  _____
 72
65
 73
4
 40
101.60000000000001
 49
63.5
 74
0
 49
-12.699999999999999
 74
0
 49
12.699999999999999
 74
0
 49
-12.699999999999999
 74
0
  0
LTYPE
  5
3F
100
AcDbSymbolTableRecord
100
AcDbLinetypeTableRecord
  2
BORDER2
 70
0
  3
Border (.5x) __.__.__.__.__.__.__.__.__.__.__.
 72
65
 73
6
 40
22.224999999999987
 49
6.349999999999997
 74
0
 49
-3.174999999999998
 74
0
 49
6.349999999999997
 74
0
 49
-3.1249999999999978
 74
0
 49
0.1
 74
0
 49
-3.1249999999999978
 74
0
  0
LTYPE
  5
40
100
AcDbSymbolTableRecord
100
AcDbLinetypeTableRecord
  2
DASHDOT2
 70
0
  3
Dash dot (.5x) _._._._._._._._._._._._._._._.
 72
65
 73
4
 40
12.699999999999992
 49
6.349999999999997
 74
0
 49
-3.1249999999999978
 74
0
 49
0.1
 74
0
 49
-3.1249999999999978
 74
0
  0
LTYPE
  5
41
100
AcDbSymbolTableRecord
100
AcDbLinetypeTableRecord
  2
ACAD_ISO12W100
 70
0
  3
ISO dash double-dot __ . . __ . . __ . . __ . . 
 72
65
 73
6
 40
21.0
 49
12.0
 74
0
 49
-2.9500000000000002
 74
0
 49
0.1
 74
0
 49
-2.8999999999999999
 74
0
 49
0.1
 74
0
 49
-2.9500000000000002
 74
0
  0
LTYPE
  5
42
100
AcDbSymbolTableRecord
100
AcDbLinetypeTableRecord
  2
ACAD_ISO07W100
 70
0
  3
ISO dot . . . . . . . . . . . . . . . . . . . . 
 72
65
 73
2
 40
3.0
 49
0.1
 74
0
 49
-2.8999999999999999
 74
0
  0
LTYPE
  5
43
100
AcDbSymbolTableRecord
100
AcDbLinetypeTableRecord
  2
ACAD_ISO06W100
 70
0
  3
ISO long-dash triple-dot ____ ... ____ ... ____
 72
65
 73
8
 40
36.000000000000007
 49
24.0
 74
0
 49
-2.9500000000000002
 74
0
 49
0.1
 74
0
 49
-2.8999999999999999
 74
0
 49
0.1
 74
0
 49
-2.8999999999999999
 74
0
 49
0.1
 74
0
 49
-2.9500000000000002
 74
0
  0
LTYPE
  5
44
100
AcDbSymbolTableRecord
100
AcDbLinetypeTableRecord
  2
CENTER
 70
0
  3
Center ____ _ ____ _ ____ _ ____ _ ____ _ ____
 72
65
 73
4
 40
50.799999999999983
 49
31.75
 74
0
 49
-6.349999999999997
 74
0
 49
6.349999999999997
 74
0
 49
-6.349999999999997
 74
0
  0
LTYPE
  5
45
100
AcDbSymbolTableRecord
100
AcDbLinetypeTableRecord
  2
HIDDEN
 70
0
  3
Hidden __ __ __ __ __ __ __ __ __ __ __ __ __ __
 72
65
 73
2
 40
9.524999999999995
 49
6.349999999999997
 74
0
 49
-3.174999999999998
 74
0
  0
LTYPE
  5
46
100
AcDbSymbolTableRecord
100
AcDbLinetypeTableRecord
  2
DOTX2
 70
0
  3
Dot (2x) .  .  .  .  .  .  .  .  .  .  .  .  .  .
 72
65
 73
2
 40
12.699999999999999
 49
0.1
 74
0
 49
-12.6
 74
0
  0
LTYPE
  5
47
100
AcDbSymbolTableRecord
100
AcDbLinetypeTableRecord
  2
PHANTOM
 70
0
  3
Phantom ______  __  __  ______  __  __  ______ 
 72
65
 73
6
 40
63.499999999999972
 49
31.75
 74
0
 49
-6.349999999999997
 74
0
 49
6.349999999999997
 74
0
 49
-6.349999999999997
 74
0
 49
6.349999999999997
 74
0
 49
-6.349999999999997
 74
0
  0
LTYPE
  5
48
100
AcDbSymbolTableRecord
100
AcDbLinetypeTableRecord
  2
ACAD_ISO08W100
 70
0
  3
ISO long-dash short-dash ____ __ ____ __ ____ _
 72
65
 73
4
 40
36.0
 49
24.0
 74
0
 49
-3.0
 74
0
 49
6.0
 74
0
 49
-3.0
 74
0
  0
LTYPE
  5
49
100
AcDbSymbolTableRecord
100
AcDbLinetypeTableRecord
  2
DASHEDX2
 70
0
  3
Dashed (2x) ____  ____  ____  ____  ____  ___
 72
65
 73
2
 40
38.099999999999994
 49
25.399999999999999
 74
0
 49
-12.699999999999999
 74
0
  0
LTYPE
  5
4A
100
AcDbSymbolTableRecord
100
AcDbLinetypeTableRecord
  2
DRAINAGE
 70
0
  3
Drainage ---->---->---->----
 72
65
 73
2
 40
10.16
 49
5.0800000000000001
 74
0
 49
5.0800000000000001
 74
0
  0
LTYPE
  5
4B
100
AcDbSymbolTableRecord
100
AcDbLinetypeTableRecord
  2
ACAD_ISO02W100
 70
0
  3
ISO dash __ __ __ __ __ __ __ __ __ __ __ __ __
 72
65
 73
2
 40
15.0
 49
12.0
 74
0
 49
-3.0
 74
0
  0
LTYPE
  5
4C
100
AcDbSymbolTableRecord
100
AcDbLinetypeTableRecord
  2
PHANTOM2
 70
0
  3
Phantom (.5x) ___ _ _ ___ _ _ ___ _ _ ___ _ _
 72
65
 73
6
 40
31.749999999999986
 49
15.875
 74
0
 49
-3.174999999999998
 74
0
 49
3.174999999999998
 74
0
 49
-3.174999999999998
 74
0
 49
3.174999999999998
 74
0
 49
-3.174999999999998
 74
0
  0
LTYPE
  5
4D
100
AcDbSymbolTableRecord
100
AcDbLinetypeTableRecord
  2
DASHED2
 70
0
  3
Dashed (.5x) _ _ _ _ _ _ _ _ _ _ _ _ _ _ _ _ _ 
 72
65
 73
2
 40
9.524999999999995
 49
6.349999999999997
 74
0
 49
-3.174999999999998
 74
0
  0
LTYPE
  5
4E
100
AcDbSymbolTableRecord
100
AcDbLinetypeTableRecord
  2
ACAD_ISO09W100
 70
0
  3
ISO long-dash double-short-dash ____ __ __ ____
 72
65
 73
6
 40
45.0
 49
24.0
 74
0
 49
-3.0
 74
0
 49
6.0
 74
0
 49
-3.0
 74
0
 49
6.0
 74
0
 49
-3.0
 74
0
  0
LTYPE
  5
4F
100
AcDbSymbolTableRecord
100
AcDbLinetypeTableRecord
  2
ACAD_ISO13W100
 70
0
  3
ISO double-dash double-dot __ __ . . __ __ . . _
 72
65
 73
8
 40
36.000000000000007
 49
12.0
 74
0
 49
-3.0
 74
0
 49
12.0
 74
0
 49
-2.9500000000000002
 74
0
 49
0.1
 74
0
 49
-2.8999999999999999
 74
0
 49
0.1
 74
0
 49
-2.9500000000000002
 74
0
  0
LTYPE
  5
50
100
AcDbSymbolTableRecord
100
AcDbLinetypeTableRecord
  2
TRACKS
 70
0
  3
Tracks -|-|-|-|-|-|-|-|-|-|-|-|-|-|-|-|-|-|-|-|-|-|-|-|-
 72
65
 73
2
 40
7.6200000000000001
 49
3.8100000000000001
 74
0
 49
3.8100000000000001
 74
0
  0
LTYPE
  5
51
100
AcDbSymbolTableRecord
100
AcDbLinetypeTableRecord
  2
DRAINAGE2
 70
0
  3
Drainage reversed----<----<----<----
 72
65
 73
2
 40
10.16
 49
5.0800000000000001
 74
0
 49
5.0800000000000001
 74
0
  0
LTYPE
  5
52
100
AcDbSymbolTableRecord
100
AcDbLinetypeTableRecord
  2
DOT2
 70
0
  3
Dot (.5x) ........................................
 72
65
 73
2
 40
3.174999999999998
 49
0.1
 74
0
 49
-3.074999999999998
 74
0
  0
LTYPE
  5
53
100
AcDbSymbolTableRecord
100
AcDbLinetypeTableRecord
  2
ZIGZAG
 70
0
  3
Zig zag /\/\/\/\/\/\/\/\/\/\/\/\/\/\/\/\/\/\/\/\/\/\/\/
 72
65
 73
4
 40
20.32254
 49
0.00254
 74
0
 49
-5.0800000000000001
 74
0
 49
-10.16
 74
0
 49
-5.0800000000000001
 74
0
  0
LTYPE
  5
54
100
AcDbSymbolTableRecord
100
AcDbLinetypeTableRecord
  2
DASHED
 70
0
  3
Dashed __ __ __ __ __ __ __ __ __ __ __ __ __ _
 72
65
 73
2
 40
19.049999999999997
 49
12.699999999999999
 74
0
 49
-6.349999999999997
 74
0
  0
LTYPE
  5
55
100
AcDbSymbolTableRecord
100
AcDbLinetypeTableRecord
  2
ACAD_ISO14W100
 70
0
  3
ISO dash triple-dot __ . . . __ . . . __ . . . _
 72
65
 73
8
 40
24.0
 49
12.0
 74
0
 49
-2.9500000000000002
 74
0
 49
0.1
 74
0
 49
-2.8999999999999999
 74
0
 49
0.1
 74
0
 49
-2.8999999999999999
 74
0
 49
0.1
 74
0
 49
-2.9500000000000002
 74
0
  0
LTYPE
  5
56
100
AcDbSymbolTableRecord
100
AcDbLinetypeTableRecord
  2
PHANTOMX2
 70
0
  3
Phantom (2x) ____________    ____    ____   _
 72
65
 73
6
 40
127.00000000000001
 49
63.5
 74
0
 49
-12.699999999999999
 74
0
 49
12.699999999999999
 74
0
 49
-12.699999999999999
 74
0
 49
12.699999999999999
 74
0
 49
-12.699999999999999
 74
0
  0
LTYPE
  5
57
100
AcDbSymbolTableRecord
100
AcDbLinetypeTableRecord
  2
DIVIDEX2
 70
0
  3
Divide (2x) ________  .  .  ________  .  .  _
 72
65
 73
6
 40
63.5
 49
25.399999999999999
 74
0
 49
-12.65
 74
0
 49
0.1
 74
0
 49
-12.6
 74
0
 49
0.1
 74
0
 49
-12.65
 74
0
  0
LTYPE
  5
58
100
AcDbSymbolTableRecord
100
AcDbLinetypeTableRecord
  2
BORDER
 70
0
  3
Border __ __ . __ __ . __ __ . __ __ . __ __ .
 72
65
 73
6
 40
44.449999999999996
 49
12.699999999999999
 74
0
 49
-6.349999999999997
 74
0
 49
12.699999999999999
 74
0
 49
-6.299999999999998
 74
0
 49
0.1
 74
0
 49
-6.299999999999998
 74
0
  0
LTYPE
  5
59
100
AcDbSymbolTableRecord
100
AcDbLinetypeTableRecord
  2
DIVIDE2
 70
0
  3
Divide (.5x) __..__..__..__..__..__..__..__.._
 72
65
 73
6
 40
15.874999999999989
 49
6.349999999999997
 74
0
 49
-3.1249999999999978
 74
0
 49
0.1
 74
0
 49
-3.074999999999998
 74
0
 49
0.1
 74
0
 49
-3.1249999999999978
 74
0
  0
LTYPE
  5
5A
100
AcDbSymbolTableRecord
100
AcDbLinetypeTableRecord
  2
DOT
 70
0
  3
Dot . . . . . . . . . . . . . . . . . . . . . . . .
 72
65
 73
2
 40
6.3499999999999979
 49
0.1
 74
0
 49
-6.2499999999999982
 74
0
  0
LTYPE
  5
5B
100
AcDbSymbolTableRecord
100
AcDbLinetypeTableRecord
  2
DASHDOT
 70
0
  3
Dash dot __ . __ . __ . __ . __ . __ . __ . __
 72
65
 73
4
 40
25.399999999999995
 49
12.699999999999999
 74
0
 49
-6.299999999999998
 74
0
 49
0.1
 74
0
 49
-6.299999999999998
 74
0
  0
LTYPE
  5
5C
100
AcDbSymbolTableRecord
100
AcDbLinetypeTableRecord
  2
FENCELINE1
 70
0
  3
Fenceline circle ----0-----0----0-----0----0-----0--
 72
65
 73
4
 40
36.829999999999998
 49
6.349999999999997
 74
0
 49
-2.54
 74
0
 49
-2.54
 74
0
 49
25.399999999999999
 74
0
  0
LTYPE
  5
5D
100
AcDbSymbolTableRecord
100
AcDbLinetypeTableRecord
  2
BATTING
 70
0
  3
Batting SSSSSSSSSSSSSSSSSSSSSSSSSSSSSSSSSSSSSSSSSSSSSSS
 72
65
 73
4
 40
10.16254
 49
0.00254
 74
0
 49
-2.54
 74
0
 49
-5.0800000000000001
 74
0
 49
-2.54
 74
0
  0
LTYPE
  5
5E
100
AcDbSymbolTableRecord
100
AcDbLinetypeTableRecord
  2
ACAD_ISO03W100
 70
0
  3
ISO dash space __    __    __    __    __    __
 72
65
 73
2
 40
30.0
 49
12.0
 74
0
 49
-18.0
 74
0
  0
LTYPE
  5
15
100
AcDbSymbolTableRecord
100
AcDbLinetypeTableRecord
  2
ByLayer
 70
0
  3

 72
65
 73
0
 40
0.0
  0
LTYPE
  5
5F
100
AcDbSymbolTableRecord
100
AcDbLinetypeTableRecord
  2
FENCELINE2
 70
0
  3
Fenceline square ----[]-----[]----[]-----[]----[]---
 72
65
 73
4
 40
36.829999999999998
 49
6.349999999999997
 74
0
 49
-2.54
 74
0
 49
-2.54
 74
0
 49
25.399999999999999
 74
0
  0
ENDTAB
  0
TABLE
  2
LAYER
  5
2
100
AcDbSymbolTable
 70
4
  0
LAYER
  5
60
100
AcDbSymbolTableRecord
100
AcDbLayerTableRecord
  2
grabado linea medio
 70
0
 62
3
420
65280
  6
Continuous
370
-3
390
F
  0
LAYER
  5
61
100
AcDbSymbolTableRecord
100
AcDbLayerTableRecord
  2
mesa de trabajo y auxiliares
 70
0
 62
7
420
16777215
  6
Continuous
370
-3
390
F
  0
LAYER
  5
62
100
AcDbSymbolTableRecord
100
AcDbLayerTableRecord
  2
Corte exterior
 70
0
 62
1
420
16711680
  6
Continuous
370
-3
390
F
  0
LAYER
  5
10
100
AcDbSymbolTableRecord
100
AcDbLayerTableRecord
  2
0
 70
0
 62
7
420
16777215
  6
Continuous
370
-3
390
F
  0
ENDTAB
  0
TABLE
  2
STYLE
  5
3
100
AcDbSymbolTable
 70
1
  0
STYLE
  5
63
100
AcDbSymbolTableRecord
100
AcDbTextStyleTableRecord
  2
Standard
 70
0
 40
0.0
 41
1.0
 50
0.0
 71
0
 42
2.5
  3

  4

1001
ACAD
1000
txt
1071
0
  0
ENDTAB
  0
TABLE
  2
VIEW
  5
6
100
AcDbSymbolTable
 70
0
  0
ENDTAB
  0
TABLE
  2
UCS
  5
7
100
AcDbSymbolTable
 70
0
  0
ENDTAB
  0
TABLE
  2
APPID
  5
9
100
AcDbSymbolTable
 70
1
  0
APPID
  5
12
100
AcDbSymbolTableRecord
100
AcDbRegAppTableRecord
  2
ACAD
 70
0
  0
APPID
  5
64
100
AcDbSymbolTableRecord
100
AcDbRegAppTableRecord
  2
QCAD
 70
0
  0
ENDTAB
  0
TABLE
  2
DIMSTYLE
  5
A
100
AcDbSymbolTable
 70
1
100
AcDbDimStyleTable
 71
0
  0
DIMSTYLE
105
27
100
AcDbSymbolTableRecord
100
AcDbDimStyleTableRecord
  2
Standard
 41
2.5
 42
0.625
 43
3.75
 44
1.25
 70
0
 73
0
 74
0
 77
1
 78
8
140
2.5
141
2.5
143
0.03937007874016
147
0.625
171
3
172
1
271
2
272
2
274
3
278
44
283
0
284
8
340
63
  0
ENDTAB
  0
TABLE
  2
BLOCK_RECORD
  5
1
100
AcDbSymbolTable
 70
1
  0
BLOCK_RECORD
  5
1F
100
AcDbSymbolTableRecord
100
AcDbBlockTableRecord
  2
*Model_Space
340
22
  0
BLOCK_RECORD
  5
1B
100
AcDbSymbolTableRecord
100
AcDbBlockTableRecord
  2
*Paper_Space
340
1E
  0
BLOCK_RECORD
  5
23
100
AcDbSymbolTableRecord
100
AcDbBlockTableRecord
  2
*Paper_Space0
340
26
  0
BLOCK_RECORD
  5
65
100
AcDbSymbolTableRecord
100
AcDbBlockTableRecord
  2
A$C5546276D
340
0
  0
BLOCK_RECORD
  5
66
100
AcDbSymbolTableRecord
100
AcDbBlockTableRecord
  2
A$C3E6525C7
340
0
  0
BLOCK_RECORD
  5
67
100
AcDbSymbolTableRecord
100
AcDbBlockTableRecord
  2
$PAPER_SPACE
340
0
  0
BLOCK_RECORD
  5
68
100
AcDbSymbolTableRecord
100
AcDbBlockTableRecord
  2
A$C006638B4
340
0
  0
BLOCK_RECORD
  5
69
100
AcDbSymbolTableRecord
100
AcDbBlockTableRecord
  2
A$C047A1BBB
340
0
  0
BLOCK_RECORD
  5
6A
100
AcDbSymbolTableRecord
100
AcDbBlockTableRecord
  2
$MODEL_SPACE
340
0
  0
ENDTAB
  0
ENDSEC
  0
SECTION
  2
BLOCKS
  0
BLOCK
  5
20
100
AcDbEntity
  8
0
100
AcDbBlockBegin
  2
*Model_Space
 70
0
 10
0.0
 20
0.0
 30
0.0
  3
*Model_Space
  1

  0
ENDBLK
  5
21
100
AcDbEntity
  8
0
100
AcDbBlockEnd
  0
BLOCK
  5
1C
100
AcDbEntity
 67
1
  8
0
100
AcDbBlockBegin
  2
*Paper_Space
 70
0
 10
0.0
 20
0.0
 30
0.0
  3
*Paper_Space
  1

  0
ENDBLK
  5
1D
100
AcDbEntity
 67
1
  8
0
100
AcDbBlockEnd
  0
BLOCK
  5
24
100
AcDbEntity
  8
0
100
AcDbBlockBegin
  2
*Paper_Space0
 70
0
 10
0.0
 20
0.0
 30
0.0
  3
*Paper_Space0
  1

  0
ENDBLK
  5
25
100
AcDbEntity
  8
0
100
AcDbBlockEnd
  0
BLOCK
  5
6B
100
AcDbEntity
  8
0
100
AcDbBlockBegin
  2
A$C5546276D
 70
0
 10
0.0
 20
0.0
 30
0.0
  3
A$C5546276D
  1

  0
LWPOLYLINE
  5
6C
  8
0
 62
256
370
-1
 48
1.0
  6
ByLayer
100
AcDbEntity
100
AcDbPolyline
 90
16
 70
1
 10
2.9999978833804191
 20
-0.0000006562344836
 30
0.0
 10
2.9999978833804191
 20
1.9999993437655159
 30
0.0
 10
20.99999788338042
 20
1.9999993437655159
 30
0.0
 10
20.99999788338042
 20
-0.0000006562344836
 30
0.0
 10
23.999997883380431
 20
-0.0000006562344836
 30
0.0
 10
23.999997883380431
 20
9.9999993437655128
 30
0.0
 10
17.986383285402692
 20
9.9999993437655128
 30
0.0
 10
17.986383285402692
 20
6.5826826382430168
 30
0.0
 10
19.999997883380399
 20
6.5826826382430168
 30
0.0
 10
19.999997883380399
 20
3.5826826382430159
 30
0.0
 10
3.9999978833804191
 20
3.5826826382430159
 30
0.0
 10
3.9999978833804191
 20
6.582682638243031
 30
0.0
 10
5.9999978833804146
 20
6.582682638243031
 30
0.0
 10
5.9999978833804146
 20
9.9999993437655128
 30
0.0
 10
-0.0000021166195801
 20
9.9999993437655128
 30
0.0
 10
-0.0000021166195801
 20
-0.0000006562344836
 30
0.0
  0
ENDBLK
  5
6D
100
AcDbEntity
  8
0
100
AcDbBlockEnd
  0
BLOCK
  5
6E
100
AcDbEntity
  8
0
100
AcDbBlockBegin
  2
A$C3E6525C7
 70
0
 10
0.0
 20
0.0
 30
0.0
  3
A$C3E6525C7
  1

  0
CIRCLE
  5
6F
100
AcDbEntity
100
AcDbCircle
  8
0
 62
256
370
-1
 48
1.0
  6
ByLayer
 10
7.999990990923826
 20
7.9999947855676456
 30
0.0
 40
8.0
  0
CIRCLE
  5
70
100
AcDbEntity
100
AcDbCircle
  8
0
 62
256
370
-1
 48
1.0
  6
ByLayer
 10
33.999990990923827
 20
7.9999947855676456
 30
0.0
 40
8.0
  0
ENDBLK
  5
71
100
AcDbEntity
  8
0
100
AcDbBlockEnd
  0
BLOCK
  5
72
100
AcDbEntity
  8
0
100
AcDbBlockBegin
  2
$PAPER_SPACE
 70
0
 10
0.0
 20
0.0
 30
0.0
  3
$PAPER_SPACE
  1

  0
ENDBLK
  5
73
100
AcDbEntity
  8
0
100
AcDbBlockEnd
  0
BLOCK
  5
74
100
AcDbEntity
  8
0
100
AcDbBlockBegin
  2
A$C006638B4
 70
0
 10
0.0
 20
0.0
 30
0.0
  3
A$C006638B4
  1

  0
ENDBLK
  5
75
100
AcDbEntity
  8
0
100
AcDbBlockEnd
  0
BLOCK
  5
76
100
AcDbEntity
  8
0
100
AcDbBlockBegin
  2
A$C047A1BBB
 70
0
 10
0.0
 20
0.0
 30
0.0
  3
A$C047A1BBB
  1

  0
CIRCLE
  5
77
100
AcDbEntity
100
AcDbCircle
  8
0
 62
256
370
-1
 48
1.0
  6
ByLayer
 10
13.58533397255553
 20
94.994006335026157
 30
0.0
 40
8.0
  0
CIRCLE
  5
78
100
AcDbEntity
100
AcDbCircle
  8
0
 62
256
370
-1
 48
1.0
  6
ByLayer
 10
39.585333972555532
 20
94.994006335026157
 30
0.0
 40
8.0
  0
LWPOLYLINE
  5
79
  8
0
 62
256
370
-1
 48
1.0
  6
ByLayer
100
AcDbEntity
100
AcDbPolyline
 90
16
 70
1
 10
18.060805165867489
 20
3.062946803595016
 30
0.0
 10
18.060805165867489
 20
5.0629468035950147
 30
0.0
 10
36.060805165867492
 20
5.0629468035950147
 30
0.0
 10
36.060805165867492
 20
3.062946803595016
 30
0.0
 10
39.060805165867492
 20
3.062946803595016
 30
0.0
 10
39.060805165867492
 20
13.06294680359502
 30
0.0
 10
33.047190567889771
 20
13.06294680359502
 30
0.0
 10
33.047190567889771
 20
9.6456300980725231
 30
0.0
 10
35.060805165867492
 20
9.6456300980725231
 30
0.0
 10
35.060805165867492
 20
6.6456300980725231
 30
0.0
 10
19.060805165867489
 20
6.6456300980725231
 30
0.0
 10
19.060805165867489
 20
9.6456300980725356
 30
0.0
 10
21.060805165867489
 20
9.6456300980725356
 30
0.0
 10
21.060805165867489
 20
13.06294680359502
 30
0.0
 10
15.060805165867491
 20
13.06294680359502
 30
0.0
 10
15.060805165867491
 20
3.062946803595016
 30
0.0
  0
CIRCLE
  5
7A
100
AcDbEntity
100
AcDbCircle
  8
0
 62
256
370
-1
 48
1.0
  6
ByLayer
 10
18.873099426868048
 20
23.708802653100971
 30
0.0
 40
7.0
  0
CIRCLE
  5
7B
100
AcDbEntity
100
AcDbCircle
  8
0
 62
256
370
-1
 48
1.0
  6
ByLayer
 10
34.889957818564653
 20
23.29820736509555
 30
0.0
 40
7.0
  0
ENDBLK
  5
7C
100
AcDbEntity
  8
0
100
AcDbBlockEnd
  0
BLOCK
  5
7D
100
AcDbEntity
  8
0
100
AcDbBlockBegin
  2
$MODEL_SPACE
 70
0
 10
0.0
 20
0.0
 30
0.0
  3
$MODEL_SPACE
  1

  0
ENDBLK
  5
7E
100
AcDbEntity
  8
0
100
AcDbBlockEnd
  0
ENDSEC
  0
SECTION
  2
ENTITIES
  0
LWPOLYLINE
  5
7F
  8
mesa de trabajo y auxiliares
 62
256
370
-1
 48
1.0
  6
ByLayer
100
AcDbEntity
100
AcDbPolyline
 90
4
 70
129
 10
0.0
 20
0.0
 30
0.0
 10
150.0
 20
0.0
 30
0.0
 10
150.0
 20
160.0
 30
0.0
 10
0.0
 20
160.0
 30
0.0
  0
LWPOLYLINE
  5
80
  8
mesa de trabajo y auxiliares
 62
256
370
-1
 48
1.0
  6
ACAD_ISO02W100
100
AcDbEntity
100
AcDbPolyline
 90
4
 70
129
 10
1.0
 20
1.0
 30
0.0
 10
149.0
 20
1.0
 30
0.0
 10
149.0
 20
159.0
 30
0.0
 10
1.0
 20
159.0
 30
0.0
  0
LWPOLYLINE
  5
81
  8
mesa de trabajo y auxiliares
 62
256
370
-1
 48
1.0
  6
ByLayer
100
AcDbEntity
100
AcDbPolyline
 90
8
 70
0
 10
86.999999999997783
 20
59.163611367657708
 30
0.0
 10
68.699999999997758
 20
59.163611367657694
 30
0.0
 10
68.699999999997743
 20
49.413611367657637
 30
0.0
 10
51.999999999997797
 20
49.413611367657715
 30
0.0
 10
51.999999999997783
 20
36.913611367657744
 30
0.0
 10
68.699999999997758
 20
36.913611367657715
 30
0.0
 10
68.699999999997758
 20
27.163611367657722
 30
0.0
 10
86.999999999997755
 20
27.163611367657687
 30
0.0
  0
LWPOLYLINE
  5
82
  8
mesa de trabajo y auxiliares
 62
256
370
-1
 48
1.0
  6
ByLayer
100
AcDbEntity
100
AcDbPolyline
 90
8
 70
1
 10
50.951420010237825
 20
33.413611367657722
 30
0.0
 10
50.951420010237811
 20
52.913611367657708
 30
0.0
 10
35.55142001023782
 20
52.913611367657708
 30
0.0
 10
35.55142001023782
 20
33.413611367657744
 30
0.0
 10
38.251420010237823
 20
33.413611367657751
 30
0.0
 10
38.251420010237823
 20
16.713611367657755
 30
0.0
 10
48.251420010237823
 20
16.713611367657741
 30
0.0
 10
48.251420010237823
 20
33.41361136765773
 30
0.0
  0
LWPOLYLINE
  5
83
  8
mesa de trabajo y auxiliares
 62
256
370
-1
 48
1.0
  6
ByLayer
100
AcDbEntity
100
AcDbPolyline
 90
8
 70
1
 10
14.05142001023782
 20
38.163611367657758
 30
0.0
 10
14.05142001023782
 20
20.663611367657765
 30
0.0
 10
34.05142001023782
 20
20.663611367657712
 30
0.0
 10
34.05142001023782
 20
65.663611367657722
 30
0.0
 10
14.051420010237791
 20
65.663611367657694
 30
0.0
 10
14.051420010237791
 20
48.163611367657694
 30
0.0
 10
9.5514200102377913
 20
48.163611367657673
 30
0.0
 10
9.5514200102378197
 20
38.163611367657772
 30
0.0
  0
LINE
  5
84
100
AcDbEntity
100
AcDbLine
  8
mesa de trabajo y auxiliares
 62
256
370
-1
 48
1.0
  6
ByLayer
 10
72.499999999997755
 20
158.80000000000001
 30
0.0
 11
72.499999999997712
 21
142.49999999999994
 31
0.0
  0
LINE
  5
85
100
AcDbEntity
100
AcDbLine
  8
mesa de trabajo y auxiliares
 62
256
370
-1
 48
1.0
  6
ByLayer
 10
82.499999999997698
 20
158.79999999999998
 30
0.0
 11
72.499999999997755
 21
158.80000000000001
 31
0.0
  0
LINE
  5
86
100
AcDbEntity
100
AcDbLine
  8
mesa de trabajo y auxiliares
 62
256
370
-1
 48
1.0
  6
ByLayer
 10
82.499999999997698
 20
142.49999999999997
 30
0.0
 11
82.499999999997698
 21
158.79999999999998
 31
0.0
  0
LINE
  5
87
100
AcDbEntity
100
AcDbLine
  8
mesa de trabajo y auxiliares
 62
256
370
-1
 48
1.0
  6
ByLayer
 10
85.999999999997755
 20
104.79999999999997
 30
0.0
 11
85.999999999997755
 21
142.5
 31
0.0
  0
LINE
  5
88
100
AcDbEntity
100
AcDbLine
  8
mesa de trabajo y auxiliares
 62
256
370
-1
 48
1.0
  6
ByLayer
 10
68.99999999999774
 20
104.79999999999998
 30
0.0
 11
85.999999999997755
 21
104.79999999999997
 31
0.0
  0
LINE
  5
89
100
AcDbEntity
100
AcDbLine
  8
mesa de trabajo y auxiliares
 62
256
370
-1
 48
1.0
  6
ByLayer
 10
68.999999999997783
 20
142.5
 30
0.0
 11
68.99999999999774
 21
104.79999999999998
 31
0.0
  0
LINE
  5
8A
100
AcDbEntity
100
AcDbLine
  8
mesa de trabajo y auxiliares
 62
256
370
-1
 48
1.0
  6
ByLayer
 10
85.999999999997755
 20
142.5
 30
0.0
 11
68.999999999997783
 21
142.5
 31
0.0
  0
LINE
  5
8B
100
AcDbEntity
100
AcDbLine
  8
mesa de trabajo y auxiliares
 62
256
370
-1
 48
1.0
  6
ByLayer
 10
91.799999999997766
 20
106.79999999999997
 30
0.0
 11
148.99999999999787
 21
106.79999999999995
 31
0.0
  0
LINE
  5
8C
100
AcDbEntity
100
AcDbLine
  8
mesa de trabajo y auxiliares
 62
256
370
-1
 48
1.0
  6
ByLayer
 10
91.799999999997723
 20
159.0
 30
0.0
 11
91.799999999997766
 21
106.79999999999997
 31
0.0
  0
LINE
  5
8D
100
AcDbEntity
100
AcDbLine
  8
mesa de trabajo y auxiliares
 62
256
370
-1
 48
1.0
  6
ByLayer
 10
51.999999999997698
 20
101.80000000000001
 30
0.0
 11
51.99999999999774
 21
76.800000000000011
 31
0.0
  0
LINE
  5
8E
100
AcDbEntity
100
AcDbLine
  8
mesa de trabajo y auxiliares
 62
256
370
-1
 48
1.0
  6
ByLayer
 10
148.99999999999719
 20
101.79999999999994
 30
0.0
 11
51.999999999997698
 21
101.80000000000001
 31
0.0
  0
LINE
  5
8F
100
AcDbEntity
100
AcDbLine
  8
Corte exterior
 62
256
370
-1
 48
1.0
  6
ByLayer
 10
63.251420010237837
 20
50.16361136765768
 30
0.0
 11
63.251420010237823
 21
51.343860682098558
 31
0.0
  0
LINE
  5
90
100
AcDbEntity
100
AcDbLine
  8
Corte exterior
 62
256
370
-1
 48
1.0
  6
ByLayer
 10
59.792644210023781
 20
50.163611367657673
 30
0.0
 11
63.251420010237837
 21
50.16361136765768
 31
0.0
  0
LINE
  5
91
100
AcDbEntity
100
AcDbLine
  8
Corte exterior
 62
256
370
-1
 48
1.0
  6
ByLayer
 10
61.434525461763656
 20
51.920647728306349
 30
0.0
 11
59.792644210023781
 21
50.163611367657673
 31
0.0
  0
ARC
  5
92
100
AcDbEntity
  8
Corte exterior
 62
256
370
-1
 48
1.0
  6
ByLayer
100
AcDbCircle
 10
62.251420010237851
 20
51.343860682098573
 30
0.0
 40
0.9999999999999748
100
AcDbArc
 50
360.0
 51
144.7751235702857
  0
LINE
  5
93
100
AcDbEntity
100
AcDbLine
  8
Corte exterior
 62
256
370
-1
 48
1.0
  6
ByLayer
 10
63.251420010237808
 20
48.163611367657637
 30
0.0
 11
63.251420010237823
 21
46.16361136765768
 31
0.0
  0
LINE
  5
94
100
AcDbEntity
100
AcDbLine
  8
Corte exterior
 62
256
370
-1
 48
1.0
  6
ByLayer
 10
57.923723010084956
 20
48.163611367657673
 30
0.0
 11
63.251420010237808
 21
48.163611367657637
 31
0.0
  0
LINE
  5
95
100
AcDbEntity
100
AcDbLine
  8
Corte exterior
 62
256
370
-1
 48
1.0
  6
ByLayer
 10
56.054801810146131
 20
46.163611367657687
 30
0.0
 11
57.923723010084956
 21
48.163611367657673
 31
0.0
  0
LINE
  5
96
100
AcDbEntity
100
AcDbLine
  8
Corte exterior
 62
256
370
-1
 48
1.0
  6
ByLayer
 10
63.251420010237823
 20
46.16361136765768
 30
0.0
 11
56.054801810146131
 21
46.163611367657687
 31
0.0
  0
LINE
  5
97
100
AcDbEntity
100
AcDbLine
  8
Corte exterior
 62
256
370
-1
 48
1.0
  6
ByLayer
 10
54.185880610207263
 20
42.163611367657701
 30
0.0
 11
53.251420010237808
 21
43.16361136765768
 31
0.0
  0
LINE
  5
98
100
AcDbEntity
100
AcDbLine
  8
Corte exterior
 62
256
370
-1
 48
1.0
  6
ByLayer
 10
63.251420010237837
 20
42.163611367657722
 30
0.0
 11
54.185880610207263
 21
42.163611367657701
 31
0.0
  0
LINE
  5
99
100
AcDbEntity
100
AcDbLine
  8
Corte exterior
 62
256
370
-1
 48
1.0
  6
ByLayer
 10
63.251420010237823
 20
44.163611367657701
 30
0.0
 11
63.251420010237837
 21
42.163611367657722
 31
0.0
  0
LINE
  5
9A
100
AcDbEntity
100
AcDbLine
  8
Corte exterior
 62
256
370
-1
 48
1.0
  6
ByLayer
 10
54.185880610207263
 20
44.163611367657722
 30
0.0
 11
63.251420010237823
 21
44.163611367657701
 31
0.0
  0
LINE
  5
9B
100
AcDbEntity
100
AcDbLine
  8
Corte exterior
 62
256
370
-1
 48
1.0
  6
ByLayer
 10
53.251420010237808
 20
43.16361136765768
 30
0.0
 11
54.185880610207263
 21
44.163611367657722
 31
0.0
  0
LINE
  5
9C
100
AcDbEntity
100
AcDbLine
  8
Corte exterior
 62
256
370
-1
 48
1.0
  6
ByLayer
 10
63.251420010237808
 20
40.16361136765768
 30
0.0
 11
63.251420010237823
 21
38.16361136765773
 31
0.0
  0
LINE
  5
9D
100
AcDbEntity
100
AcDbLine
  8
Corte exterior
 62
256
370
-1
 48
1.0
  6
ByLayer
 10
56.054801810146117
 20
40.163611367657708
 30
0.0
 11
63.251420010237808
 21
40.16361136765768
 31
0.0
  0
LINE
  5
9E
100
AcDbEntity
100
AcDbLine
  8
Corte exterior
 62
256
370
-1
 48
1.0
  6
ByLayer
 10
57.923723010084956
 20
38.163611367657715
 30
0.0
 11
56.054801810146117
 21
40.163611367657708
 31
0.0
  0
LINE
  5
9F
100
AcDbEntity
100
AcDbLine
  8
Corte exterior
 62
256
370
-1
 48
1.0
  6
ByLayer
 10
63.251420010237823
 20
38.16361136765773
 30
0.0
 11
57.923723010084956
 21
38.163611367657715
 31
0.0
  0
LINE
  5
A0
100
AcDbEntity
100
AcDbLine
  8
Corte exterior
 62
256
370
-1
 48
1.0
  6
ByLayer
 10
63.251420010237837
 20
36.163611367657708
 30
0.0
 11
63.251420010237823
 21
34.983362053216872
 31
0.0
  0
LINE
  5
A1
100
AcDbEntity
100
AcDbLine
  8
Corte exterior
 62
256
370
-1
 48
1.0
  6
ByLayer
 10
59.792644210023781
 20
36.163611367657666
 30
0.0
 11
63.251420010237837
 21
36.163611367657708
 31
0.0
  0
LINE
  5
A2
100
AcDbEntity
100
AcDbLine
  8
Corte exterior
 62
256
370
-1
 48
1.0
  6
ByLayer
 10
61.434525461763641
 20
34.406575007009089
 30
0.0
 11
59.792644210023781
 21
36.163611367657666
 31
0.0
  0
ARC
  5
A3
100
AcDbEntity
  8
Corte exterior
 62
256
370
-1
 48
1.0
  6
ByLayer
100
AcDbCircle
 10
62.251420010237844
 20
34.983362053216865
 30
0.0
 40
0.9999999999999814
100
AcDbArc
 50
215.22487642971407
 51
0.0
  0
LINE
  5
A4
100
AcDbEntity
100
AcDbLine
  8
Corte exterior
 62
256
370
-1
 48
1.0
  6
ByLayer
 10
1.9999999999999856
 20
150.82722273531539
 30
0.0
 11
1.9999999999998863
 21
150.82722273531539
 31
0.0
  0
LINE
  5
A5
100
AcDbEntity
100
AcDbLine
  8
Corte exterior
 62
256
370
-1
 48
1.0
  6
ByLayer
 10
147.99999999999821
 20
158.99999999999997
 30
0.0
 11
20.217408850116158
 21
159.0
 31
0.0
  0
ARC
  5
A6
100
AcDbEntity
  8
Corte exterior
 62
256
370
-1
 48
1.0
  6
ByLayer
100
AcDbCircle
 10
147.99999999999909
 20
157.99999999999909
 30
0.0
 40
1.0000000000008953
100
AcDbArc
 50
0.0
 51
90.000000000050477
  0
LINE
  5
A7
100
AcDbEntity
100
AcDbLine
  8
Corte exterior
 62
256
370
-1
 48
1.0
  6
ByLayer
 10
148.99999999999704
 20
77.327222735315431
 30
0.0
 11
149.0
 21
157.99999999999997
 31
0.0
  0
ARC
  5
A8
100
AcDbEntity
  8
Corte exterior
 62
256
370
-1
 48
1.0
  6
ByLayer
100
AcDbCircle
 10
147.99999999999727
 20
77.327222735315189
 30
0.0
 40
0.9999999999997584
100
AcDbArc
 50
270.00000000001467
 51
0.0
  0
LINE
  5
A9
100
AcDbEntity
100
AcDbLine
  8
Corte exterior
 62
256
370
-1
 48
1.0
  6
ByLayer
 10
102.68418972449263
 20
76.327222735315431
 30
0.0
 11
147.99999999999753
 21
76.327222735315431
 31
0.0
  0
LINE
  5
AA
100
AcDbEntity
100
AcDbLine
  8
Corte exterior
 62
256
370
-1
 48
1.0
  6
ByLayer
 10
69.99999999999774
 20
76.327222735315445
 30
0.0
 11
101.6841897244926
 21
76.327222735315431
 31
0.0
  0
LINE
  5
AB
100
AcDbEntity
100
AcDbLine
  8
Corte exterior
 62
256
370
-1
 48
1.0
  6
ByLayer
 10
63.999999999997726
 20
9.9999999999999822
 30
0.0
 11
63.999999999997726
 21
5.9999999999999778
 31
0.0
  0
LINE
  5
AC
100
AcDbEntity
100
AcDbLine
  8
Corte exterior
 62
256
370
-1
 48
1.0
  6
ByLayer
 10
63.999999999997726
 20
4.9999999999999778
 30
0.0
 11
63.999999999997726
 21
0.9999999999999734
 31
0.0
  0
LINE
  5
AD
100
AcDbEntity
100
AcDbLine
  8
Corte exterior
 62
256
370
-1
 48
1.0
  6
ByLayer
 10
69.999999999997712
 20
9.9999999999999645
 30
0.0
 11
63.999999999997726
 21
9.9999999999999964
 31
0.0
  0
ARC
  5
AE
100
AcDbEntity
  8
Corte exterior
 62
256
370
-1
 48
1.0
  6
ByLayer
100
AcDbCircle
 10
69.999999999997712
 20
10.999999999999936
 30
0.0
 40
0.9999999999999716
100
AcDbArc
 50
180.0
 51
270.0
  0
LINE
  5
AF
100
AcDbEntity
100
AcDbLine
  8
Corte exterior
 62
256
370
-1
 48
1.0
  6
ByLayer
 10
68.99999999999774
 20
23.999999999999993
 30
0.0
 11
68.99999999999774
 21
10.999999999999936
 31
0.0
  0
ARC
  5
B0
100
AcDbEntity
  8
Corte exterior
 62
256
370
-1
 48
1.0
  6
ByLayer
100
AcDbCircle
 10
67.99999999999774
 20
23.999999999999968
 30
0.0
 40
0.9999999999999893
100
AcDbArc
 50
0.0
 51
90.000000000000824
  0
LINE
  5
B1
100
AcDbEntity
100
AcDbLine
  8
Corte exterior
 62
256
370
-1
 48
1.0
  6
ByLayer
 10
64.999999999997712
 20
24.999999999999957
 30
0.0
 11
67.999999999997726
 21
24.999999999999957
 31
0.0
  0
ARC
  5
B2
100
AcDbEntity
  8
Corte exterior
 62
256
370
-1
 48
1.0
  6
ByLayer
100
AcDbCircle
 10
64.999999999997726
 20
23.999999999999968
 30
0.0
 40
0.9999999999999893
100
AcDbArc
 50
90.000000000000824
 51
180.0
  0
LINE
  5
B3
100
AcDbEntity
100
AcDbLine
  8
Corte exterior
 62
256
370
-1
 48
1.0
  6
ByLayer
 10
63.999999999997719
 20
9.9999999999999662
 30
0.0
 11
63.999999999997726
 21
23.999999999999964
 31
0.0
  0
LINE
  5
B4
100
AcDbEntity
100
AcDbLine
  8
Corte exterior
 62
256
370
-1
 48
1.0
  6
ByLayer
 10
69.99999999999774
 20
76.327222735315445
 30
0.0
 11
63.999999999997748
 21
76.327222735315431
 31
0.0
  0
ARC
  5
B5
100
AcDbEntity
  8
Corte exterior
 62
256
370
-1
 48
1.0
  6
ByLayer
100
AcDbCircle
 10
69.99999999999774
 20
75.327222735315416
 30
0.0
 40
1.0000000000000284
100
AcDbArc
 50
90.0
 51
180.0
  0
LINE
  5
B6
100
AcDbEntity
100
AcDbLine
  8
Corte exterior
 62
256
370
-1
 48
1.0
  6
ByLayer
 10
68.999999999997726
 20
62.327222735315416
 30
0.0
 11
68.999999999997712
 21
75.327222735315416
 31
0.0
  0
ARC
  5
B7
100
AcDbEntity
  8
Corte exterior
 62
256
370
-1
 48
1.0
  6
ByLayer
100
AcDbCircle
 10
67.999999999997712
 20
62.327222735315431
 30
0.0
 40
1.0000000000000109
100
AcDbArc
 50
270.0000000000008
 51
360.0
  0
LINE
  5
B8
100
AcDbEntity
100
AcDbLine
  8
Corte exterior
 62
256
370
-1
 48
1.0
  6
ByLayer
 10
64.999999999997712
 20
61.327222735315445
 30
0.0
 11
67.999999999997726
 21
61.327222735315416
 31
0.0
  0
ARC
  5
B9
100
AcDbEntity
  8
Corte exterior
 62
256
370
-1
 48
1.0
  6
ByLayer
100
AcDbCircle
 10
64.999999999997712
 20
62.327222735315402
 30
0.0
 40
0.9999999999999713
100
AcDbArc
 50
180.0
 51
270.0
  0
LINE
  5
BA
100
AcDbEntity
100
AcDbLine
  8
Corte exterior
 62
256
370
-1
 48
1.0
  6
ByLayer
 10
63.99999999999774
 20
76.327222735315431
 30
0.0
 11
63.99999999999774
 21
62.327222735315402
 31
0.0
  0
LINE
  5
BB
100
AcDbEntity
100
AcDbLine
  8
Corte exterior
 62
256
370
-1
 48
1.0
  6
ByLayer
 10
34.222808710997022
 20
71.519029876719785
 30
0.0
 11
63.999999999997748
 21
76.327222735315431
 31
0.0
  0
LINE
  5
BC
100
AcDbEntity
100
AcDbLine
  8
Corte exterior
 62
256
370
-1
 48
1.0
  6
ByLayer
 10
24.200896879020036
 20
71.327222735315488
 30
0.0
 11
31.831695107958566
 21
71.327222735315473
 31
0.0
  0
LINE
  5
BD
100
AcDbEntity
100
AcDbLine
  8
Corte exterior
 62
256
370
-1
 48
1.0
  6
ByLayer
 10
34.222808710997036
 20
14.80819285859566
 30
0.0
 11
63.999999999997698
 21
9.9999999999999716
 31
0.0
  0
LINE
  5
BE
100
AcDbEntity
100
AcDbLine
  8
Corte exterior
 62
256
370
-1
 48
1.0
  6
ByLayer
 10
16.000000000000096
 20
71.327222735315488
 30
0.0
 11
23.200896879020036
 21
71.327222735315516
 31
0.0
  0
ARC
  5
BF
100
AcDbEntity
  8
Corte exterior
 62
256
370
-1
 48
1.0
  6
ByLayer
100
AcDbCircle
 10
123.99999999999773
 20
75.327222735315416
 30
0.0
 40
1.0000000000000071
100
AcDbArc
 50
0.0
 51
90.0
  0
LINE
  5
C0
100
AcDbEntity
100
AcDbLine
  8
Corte exterior
 62
256
370
-1
 48
1.0
  6
ByLayer
 10
124.99999999999773
 20
67.327222735315402
 30
0.0
 11
124.99999999999773
 21
75.327222735315416
 31
0.0
  0
ARC
  5
C1
100
AcDbEntity
  8
Corte exterior
 62
256
370
-1
 48
1.0
  6
ByLayer
100
AcDbCircle
 10
125.99999999999771
 20
67.327222735315416
 30
0.0
 40
0.9999999999999825
100
AcDbArc
 50
180.0
 51
269.9999999999992
  0
LINE
  5
C2
100
AcDbEntity
100
AcDbLine
  8
Corte exterior
 62
256
370
-1
 48
1.0
  6
ByLayer
 10
147.9999999999977
 20
66.327222735315431
 30
0.0
 11
125.9999999999977
 21
66.327222735315431
 31
0.0
  0
ARC
  5
C3
100
AcDbEntity
  8
Corte exterior
 62
256
370
-1
 48
1.0
  6
ByLayer
100
AcDbCircle
 10
147.99999999999778
 20
65.32722273531536
 30
0.0
 40
1.0000000000000782
100
AcDbArc
 50
0.0
 51
90.000000000004874
  0
LINE
  5
C4
100
AcDbEntity
100
AcDbLine
  8
Corte exterior
 62
256
370
-1
 48
1.0
  6
ByLayer
 10
148.9999999999977
 20
55.163611367657673
 30
0.0
 11
148.99999999999784
 21
65.327222735315402
 31
0.0
  0
LINE
  5
C5
100
AcDbEntity
100
AcDbLine
  8
Corte exterior
 62
256
370
-1
 48
1.0
  6
ByLayer
 10
144.99999999999775
 20
55.163611367657673
 30
0.0
 11
148.9999999999977
 21
55.163611367657673
 31
0.0
  0
LINE
  5
C6
100
AcDbEntity
100
AcDbLine
  8
Corte exterior
 62
256
370
-1
 48
1.0
  6
ByLayer
 10
144.99999999999773
 20
52.163611367657694
 30
0.0
 11
144.99999999999775
 21
55.163611367657673
 31
0.0
  0
LINE
  5
C7
100
AcDbEntity
100
AcDbLine
  8
Corte exterior
 62
256
370
-1
 48
1.0
  6
ByLayer
 10
148.99999999999778
 20
52.163611367657694
 30
0.0
 11
144.99999999999773
 21
52.163611367657694
 31
0.0
  0
LINE
  5
C8
100
AcDbEntity
100
AcDbLine
  8
Corte exterior
 62
256
370
-1
 48
1.0
  6
ByLayer
 10
148.99999999999764
 20
49.163611367657673
 30
0.0
 11
148.99999999999778
 21
52.163611367657694
 31
0.0
  0
ARC
  5
C9
100
AcDbEntity
  8
Corte exterior
 62
256
370
-1
 48
1.0
  6
ByLayer
100
AcDbCircle
 10
147.99999999999773
 20
49.163611367657595
 30
0.0
 40
0.9999999999999325
100
AcDbArc
 50
270.00000000000324
 51
0.0
  0
LINE
  5
CA
100
AcDbEntity
100
AcDbLine
  8
Corte exterior
 62
256
370
-1
 48
1.0
  6
ByLayer
 10
125.99999999999771
 20
48.163611367657666
 30
0.0
 11
147.99999999999778
 21
48.163611367657658
 31
0.0
  0
ARC
  5
CB
100
AcDbEntity
  8
Corte exterior
 62
256
370
-1
 48
1.0
  6
ByLayer
100
AcDbCircle
 10
125.99999999999771
 20
47.163611367657687
 30
0.0
 40
0.9999999999999749
100
AcDbArc
 50
90.0
 51
180.0
  0
LINE
  5
CC
100
AcDbEntity
100
AcDbLine
  8
Corte exterior
 62
256
370
-1
 48
1.0
  6
ByLayer
 10
124.99999999999773
 20
39.163611367657694
 30
0.0
 11
124.99999999999774
 21
47.163611367657701
 31
0.0
  0
ARC
  5
CD
100
AcDbEntity
  8
Corte exterior
 62
256
370
-1
 48
1.0
  6
ByLayer
100
AcDbCircle
 10
125.99999999999773
 20
39.163611367657694
 30
0.0
 40
1.0
100
AcDbArc
 50
180.0
 51
270.0
  0
LINE
  5
CE
100
AcDbEntity
100
AcDbLine
  8
Corte exterior
 62
256
370
-1
 48
1.0
  6
ByLayer
 10
147.99999999999773
 20
38.163611367657701
 30
0.0
 11
125.99999999999773
 21
38.163611367657694
 31
0.0
  0
ARC
  5
CF
100
AcDbEntity
  8
Corte exterior
 62
256
370
-1
 48
1.0
  6
ByLayer
100
AcDbCircle
 10
147.99999999999773
 20
37.163611367657708
 30
0.0
 40
0.9999999999999893
100
AcDbArc
 50
360.0
 51
90.0
  0
LINE
  5
D0
100
AcDbEntity
100
AcDbLine
  8
Corte exterior
 62
256
370
-1
 48
1.0
  6
ByLayer
 10
148.99999999999781
 20
34.163611367657694
 30
0.0
 11
148.9999999999977
 21
37.163611367657694
 31
0.0
  0
LINE
  5
D1
100
AcDbEntity
100
AcDbLine
  8
Corte exterior
 62
256
370
-1
 48
1.0
  6
ByLayer
 10
144.99999999999773
 20
34.163611367657694
 30
0.0
 11
148.99999999999781
 21
34.163611367657694
 31
0.0
  0
LINE
  5
D2
100
AcDbEntity
100
AcDbLine
  8
Corte exterior
 62
256
370
-1
 48
1.0
  6
ByLayer
 10
144.99999999999773
 20
31.163611367657694
 30
0.0
 11
144.99999999999773
 21
34.163611367657694
 31
0.0
  0
LINE
  5
D3
100
AcDbEntity
100
AcDbLine
  8
Corte exterior
 62
256
370
-1
 48
1.0
  6
ByLayer
 10
148.99999999999775
 20
31.163611367657694
 30
0.0
 11
144.99999999999773
 21
31.163611367657694
 31
0.0
  0
LINE
  5
D4
100
AcDbEntity
100
AcDbLine
  8
Corte exterior
 62
256
370
-1
 48
1.0
  6
ByLayer
 10
148.99999999999775
 20
20.99999999999995
 30
0.0
 11
148.99999999999775
 21
31.163611367657694
 31
0.0
  0
ARC
  5
D5
100
AcDbEntity
  8
Corte exterior
 62
256
370
-1
 48
1.0
  6
ByLayer
100
AcDbCircle
 10
147.99999999999773
 20
20.999999999999979
 30
0.0
 40
1.0000000000000078
100
AcDbArc
 50
270.0
 51
360.0
  0
LINE
  5
D6
100
AcDbEntity
100
AcDbLine
  8
Corte exterior
 62
256
370
-1
 48
1.0
  6
ByLayer
 10
126.22172591513981
 20
19.999999999999979
 30
0.0
 11
147.99999999999773
 21
19.999999999999972
 31
0.0
  0
ARC
  5
D7
100
AcDbEntity
  8
Corte exterior
 62
256
370
-1
 48
1.0
  6
ByLayer
100
AcDbCircle
 10
126.22172591513981
 20
18.999999999999979
 30
0.0
 40
1.0000000000000018
100
AcDbArc
 50
90.0
 51
180.0
  0
LINE
  5
D8
100
AcDbEntity
100
AcDbLine
  8
Corte exterior
 62
256
370
-1
 48
1.0
  6
ByLayer
 10
125.22172591513981
 20
10.999999999999972
 30
0.0
 11
125.22172591513981
 21
18.999999999999975
 31
0.0
  0
ARC
  5
D9
100
AcDbEntity
  8
Corte exterior
 62
256
370
-1
 48
1.0
  6
ByLayer
100
AcDbCircle
 10
124.22172591513981
 20
10.999999999999972
 30
0.0
 40
1.0
100
AcDbArc
 50
270.0
 51
0.0
  0
LINE
  5
DA
100
AcDbEntity
100
AcDbLine
  8
Corte exterior
 62
256
370
-1
 48
1.0
  6
ByLayer
 10
76.693691989203231
 20
9.9999999999999645
 30
0.0
 11
124.22172591513981
 21
9.9999999999999716
 31
0.0
  0
LINE
  5
DB
100
AcDbEntity
100
AcDbLine
  8
Corte exterior
 62
256
370
-1
 48
1.0
  6
ByLayer
 10
69.999999999997726
 20
10.0
 30
0.0
 11
75.693691989203217
 21
9.9999999999999787
 31
0.0
  0
ARC
  5
DC
100
AcDbEntity
  8
Corte exterior
 62
256
370
-1
 48
1.0
  6
ByLayer
100
AcDbCircle
 10
1.9999999999999856
 20
149.82722273531536
 30
0.0
 40
1.000000000000014
100
AcDbArc
 50
89.999999999999176
 51
180.0
  0
LINE
  5
DD
100
AcDbEntity
100
AcDbLine
  8
Corte exterior
 62
256
370
-1
 48
1.0
  6
ByLayer
 10
1.0
 20
85.500000000000028
 30
0.0
 11
0.9999999999999716
 21
149.82722273531536
 31
0.0
  0
ARC
  5
DE
100
AcDbEntity
  8
Corte exterior
 62
256
370
-1
 48
1.0
  6
ByLayer
100
AcDbCircle
 10
2.0000000000000142
 20
85.500000000000028
 30
0.0
 40
1.0000000000000142
100
AcDbArc
 50
180.0
 51
269.9999999999992
  0
ARC
  5
DF
100
AcDbEntity
  8
Corte exterior
 62
256
370
-1
 48
1.0
  6
ByLayer
100
AcDbCircle
 10
16.000000000000142
 20
56.327222735315367
 30
0.0
 40
15.00000000000014
100
AcDbArc
 50
89.999999999999787
 51
180.0
  0
LINE
  5
E0
100
AcDbEntity
100
AcDbLine
  8
Corte exterior
 62
256
370
-1
 48
1.0
  6
ByLayer
 10
1.0
 20
29.999999999999964
 30
0.0
 11
1.0
 21
56.32722273531548
 31
0.0
  0
ARC
  5
E1
100
AcDbEntity
  8
Corte exterior
 62
256
370
-1
 48
1.0
  6
ByLayer
100
AcDbCircle
 10
15.999999999999993
 20
29.999999999999972
 30
0.0
 40
14.999999999999991
100
AcDbArc
 50
180.0
 51
270.0
  0
LINE
  5
E2
100
AcDbEntity
100
AcDbLine
  8
Corte exterior
 62
256
370
-1
 48
1.0
  6
ByLayer
 10
31.831695107958613
 20
14.999999999999957
 30
0.0
 11
15.999999999999993
 21
14.999999999999957
 31
0.0
  0
LINE
  5
E3
100
AcDbEntity
100
AcDbLine
  8
Corte exterior
 62
256
370
-1
 48
1.0
  6
ByLayer
 10
83.999999999997726
 20
0.999999999999984
 30
0.0
 11
63.999999999997726
 21
0.9999999999999734
 31
0.0
  0
LINE
  5
E4
100
AcDbEntity
100
AcDbLine
  8
Corte exterior
 62
256
370
-1
 48
1.0
  6
ByLayer
 10
83.999999999997726
 20
1.9999999999999964
 30
0.0
 11
83.999999999997726
 21
0.999999999999984
 31
0.0
  0
LINE
  5
E5
100
AcDbEntity
100
AcDbLine
  8
Corte exterior
 62
256
370
-1
 48
1.0
  6
ByLayer
 10
85.999999999997726
 20
1.9999999999999716
 30
0.0
 11
83.999999999997726
 21
1.9999999999999964
 31
0.0
  0
LINE
  5
E6
100
AcDbEntity
100
AcDbLine
  8
Corte exterior
 62
256
370
-1
 48
1.0
  6
ByLayer
 10
85.999999999997712
 20
2.9999999999999609
 30
0.0
 11
85.999999999997726
 21
1.9999999999999716
 31
0.0
  0
LINE
  5
E7
100
AcDbEntity
100
AcDbLine
  8
Corte exterior
 62
256
370
-1
 48
1.0
  6
ByLayer
 10
133.99999999999773
 20
2.9999999999999716
 30
0.0
 11
85.999999999997712
 21
2.9999999999999609
 31
0.0
  0
ARC
  5
E8
100
AcDbEntity
  8
Corte exterior
 62
256
370
-1
 48
1.0
  6
ByLayer
100
AcDbCircle
 10
133.99999999999773
 20
4.9999999999999734
 30
0.0
 40
2.0000000000000018
100
AcDbArc
 50
270.0
 51
0.0
  0
LINE
  5
E9
100
AcDbEntity
100
AcDbLine
  8
Corte exterior
 62
256
370
-1
 48
1.0
  6
ByLayer
 10
135.99999999999773
 20
5.9999999999999734
 30
0.0
 11
135.99999999999773
 21
4.9999999999999751
 31
0.0
  0
ARC
  5
EA
100
AcDbEntity
  8
Corte exterior
 62
256
370
-1
 48
1.0
  6
ByLayer
100
AcDbCircle
 10
133.99999999999773
 20
5.9999999999999769
 30
0.0
 40
2.0000000000000004
100
AcDbArc
 50
360.0
 51
90.0
  0
LINE
  5
EB
100
AcDbEntity
100
AcDbLine
  8
Corte exterior
 62
256
370
-1
 48
1.0
  6
ByLayer
 10
85.999999999997726
 20
7.9999999999999929
 30
0.0
 11
133.99999999999773
 21
7.9999999999999751
 31
0.0
  0
LINE
  5
EC
100
AcDbEntity
100
AcDbLine
  8
Corte exterior
 62
256
370
-1
 48
1.0
  6
ByLayer
 10
85.999999999997726
 20
8.999999999999968
 30
0.0
 11
85.999999999997726
 21
7.9999999999999929
 31
0.0
  0
LINE
  5
ED
100
AcDbEntity
100
AcDbLine
  8
Corte exterior
 62
256
370
-1
 48
1.0
  6
ByLayer
 10
83.999999999997726
 20
8.9999999999999787
 30
0.0
 11
85.999999999997726
 21
8.999999999999968
 31
0.0
  0
LINE
  5
EE
100
AcDbEntity
100
AcDbLine
  8
Corte exterior
 62
256
370
-1
 48
1.0
  6
ByLayer
 10
83.999999999997726
 20
9.9999999999999716
 30
0.0
 11
83.999999999997726
 21
8.9999999999999787
 31
0.0
  0
LINE
  5
EF
100
AcDbEntity
100
AcDbLine
  8
Corte exterior
 62
256
370
-1
 48
1.0
  6
ByLayer
 10
103.88493219936345
 20
46.308060290006431
 30
0.0
 11
103.88493219936345
 21
50.321674887984159
 31
0.0
  0
LINE
  5
F0
100
AcDbEntity
100
AcDbLine
  8
Corte exterior
 62
256
370
-1
 48
1.0
  6
ByLayer
 10
100.46761549384092
 20
46.308060290006424
 30
0.0
 11
103.88493219936345
 21
46.308060290006431
 31
0.0
  0
LINE
  5
F1
100
AcDbEntity
100
AcDbLine
  8
Corte exterior
 62
256
370
-1
 48
1.0
  6
ByLayer
 10
100.46761549384094
 20
55.571674887984166
 30
0.0
 11
100.46761549384092
 21
46.308060290006424
 31
0.0
  0
LINE
  5
F2
100
AcDbEntity
100
AcDbLine
  8
Corte exterior
 62
256
370
-1
 48
1.0
  6
ByLayer
 10
114.46761549384092
 20
55.571674887984152
 30
0.0
 11
100.46761549384094
 21
55.571674887984166
 31
0.0
  0
LINE
  5
F3
100
AcDbEntity
100
AcDbLine
  8
Corte exterior
 62
256
370
-1
 48
1.0
  6
ByLayer
 10
114.46761549384091
 20
52.171674887984146
 30
0.0
 11
114.46761549384092
 21
55.571674887984152
 31
0.0
  0
LINE
  5
F4
100
AcDbEntity
100
AcDbLine
  8
Corte exterior
 62
256
370
-1
 48
1.0
  6
ByLayer
 10
110.46761549384092
 20
52.17167488798416
 30
0.0
 11
114.46761549384091
 21
52.171674887984146
 31
0.0
  0
LINE
  5
F5
100
AcDbEntity
100
AcDbLine
  8
Corte exterior
 62
256
370
-1
 48
1.0
  6
ByLayer
 10
110.46761549384092
 20
34.471674887984165
 30
0.0
 11
110.46761549384092
 21
52.17167488798416
 31
0.0
  0
LINE
  5
F6
100
AcDbEntity
100
AcDbLine
  8
Corte exterior
 62
256
370
-1
 48
1.0
  6
ByLayer
 10
114.46761549384092
 20
34.471674887984172
 30
0.0
 11
110.46761549384092
 21
34.471674887984165
 31
0.0
  0
LINE
  5
F7
100
AcDbEntity
100
AcDbLine
  8
Corte exterior
 62
256
370
-1
 48
1.0
  6
ByLayer
 10
114.46761549384092
 20
31.071674887984173
 30
0.0
 11
114.46761549384092
 21
34.471674887984172
 31
0.0
  0
LINE
  5
F8
100
AcDbEntity
100
AcDbLine
  8
Corte exterior
 62
256
370
-1
 48
1.0
  6
ByLayer
 10
100.46761549384094
 20
31.071674887984166
 30
0.0
 11
114.46761549384092
 21
31.071674887984173
 31
0.0
  0
LINE
  5
F9
100
AcDbEntity
100
AcDbLine
  8
Corte exterior
 62
256
370
-1
 48
1.0
  6
ByLayer
 10
100.46761549384094
 20
40.321674887984159
 30
0.0
 11
100.46761549384094
 21
31.071674887984166
 31
0.0
  0
LINE
  5
FA
100
AcDbEntity
100
AcDbLine
  8
Corte exterior
 62
256
370
-1
 48
1.0
  6
ByLayer
 10
103.88493219936343
 20
40.321674887984159
 30
0.0
 11
100.46761549384094
 21
40.321674887984159
 31
0.0
  0
LINE
  5
FB
100
AcDbEntity
100
AcDbLine
  8
Corte exterior
 62
256
370
-1
 48
1.0
  6
ByLayer
 10
103.88493219936342
 20
36.321674887984159
 30
0.0
 11
103.88493219936343
 21
40.321674887984159
 31
0.0
  0
LINE
  5
FC
100
AcDbEntity
100
AcDbLine
  8
Corte exterior
 62
256
370
-1
 48
1.0
  6
ByLayer
 10
106.28493219936342
 20
36.321674887984159
 30
0.0
 11
103.88493219936342
 21
36.321674887984159
 31
0.0
  0
LINE
  5
FD
100
AcDbEntity
100
AcDbLine
  8
Corte exterior
 62
256
370
-1
 48
1.0
  6
ByLayer
 10
106.28493219936342
 20
42.821674887984159
 30
0.0
 11
106.28493219936342
 21
36.321674887984159
 31
0.0
  0
LINE
  5
FE
100
AcDbEntity
100
AcDbLine
  8
Corte exterior
 62
256
370
-1
 48
1.0
  6
ByLayer
 10
106.28493219936342
 20
50.321674887984159
 30
0.0
 11
106.28493219936342
 21
43.821674887984159
 31
0.0
  0
LINE
  5
FF
100
AcDbEntity
100
AcDbLine
  8
Corte exterior
 62
256
370
-1
 48
1.0
  6
ByLayer
 10
103.88493219936345
 20
50.321674887984159
 30
0.0
 11
106.28493219936342
 21
50.321674887984159
 31
0.0
  0
LINE
  5
100
100
AcDbEntity
100
AcDbLine
  8
Corte exterior
 62
256
370
-1
 48
1.0
  6
ByLayer
 10
86.999999999997755
 20
27.163611367657687
 30
0.0
 11
86.999999999997755
 21
42.663611367657694
 31
0.0
  0
LINE
  5
101
100
AcDbEntity
100
AcDbLine
  8
Corte exterior
 62
256
370
-1
 48
1.0
  6
ByLayer
 10
118.99999999999773
 20
27.163611367657651
 30
0.0
 11
86.999999999997755
 21
27.163611367657687
 31
0.0
  0
LINE
  5
102
100
AcDbEntity
100
AcDbLine
  8
Corte exterior
 62
256
370
-1
 48
1.0
  6
ByLayer
 10
118.99999999999774
 20
59.163611367657694
 30
0.0
 11
118.99999999999773
 21
27.163611367657651
 31
0.0
  0
LINE
  5
103
100
AcDbEntity
100
AcDbLine
  8
Corte exterior
 62
256
370
-1
 48
1.0
  6
ByLayer
 10
86.999999999997783
 20
59.163611367657708
 30
0.0
 11
118.99999999999774
 21
59.163611367657694
 31
0.0
  0
LINE
  5
104
100
AcDbEntity
100
AcDbLine
  8
Corte exterior
 62
256
370
-1
 48
1.0
  6
ByLayer
 10
86.999999999997755
 20
43.663611367657687
 30
0.0
 11
86.999999999997783
 21
59.163611367657708
 31
0.0
  0
CIRCLE
  5
105
100
AcDbEntity
100
AcDbCircle
  8
Corte exterior
 62
256
370
-1
 48
1.0
  6
ByLayer
 10
47.199999999997701
 20
117.56361136765766
 30
0.0
 40
5.0
  0
LINE
  5
106
100
AcDbEntity
100
AcDbLine
  8
mesa de trabajo y auxiliares
 62
256
370
-1
 48
1.0
  6
ByLayer
 10
102.29999999999774
 20
142.39999999999998
 30
0.0
 11
148.99999999999818
 21
142.39999999999998
 31
0.0
  0
LINE
  5
107
100
AcDbEntity
100
AcDbLine
  8
mesa de trabajo y auxiliares
 62
256
370
-1
 48
1.0
  6
ByLayer
 10
102.29999999999771
 20
124.39999999999998
 30
0.0
 11
102.29999999999774
 21
142.39999999999998
 31
0.0
  0
LINE
  5
108
100
AcDbEntity
100
AcDbLine
  8
mesa de trabajo y auxiliares
 62
256
370
-1
 48
1.0
  6
ByLayer
 10
148.9999999999975
 20
124.39999999999998
 30
0.0
 11
102.29999999999771
 21
124.39999999999998
 31
0.0
  0
LWPOLYLINE
  5
109
  8
mesa de trabajo y auxiliares
 62
256
370
-1
 48
1.0
  6
ByLayer
100
AcDbEntity
100
AcDbPolyline
 90
2
 70
128
 10
92.199999999997743
 20
9.9999999999999662
 30
0.0
 10
92.199999999997758
 20
27.16361136765768
 30
0.0
  0
LINE
  5
10A
100
AcDbEntity
100
AcDbLine
  8
mesa de trabajo y auxiliares
 62
256
370
-1
 48
1.0
  6
ByLayer
 10
68.699999999997758
 20
27.163611367657722
 30
0.0
 11
68.699999999997729
 21
24.714142842854219
 31
0.0
  0
LWPOLYLINE
  5
10B
  8
mesa de trabajo y auxiliares
 62
256
370
-1
 48
1.0
  6
ByLayer
100
AcDbEntity
100
AcDbPolyline
 90
2
 70
128
 10
92.199999999997715
 20
76.327222735315416
 30
0.0
 10
92.199999999997743
 20
59.163611367657708
 30
0.0
  0
LINE
  5
10C
100
AcDbEntity
100
AcDbLine
  8
mesa de trabajo y auxiliares
 62
256
370
-1
 48
1.0
  6
ByLayer
 10
68.699999999997758
 20
59.163611367657694
 30
0.0
 11
68.699999999997772
 21
61.613079892461172
 31
0.0
  0
ARC
  5
10D
100
AcDbEntity
  8
Corte exterior
 62
256
370
-1
 48
1.0
  6
ByLayer
100
AcDbCircle
 10
24.05142001023799
 20
30.163611367657822
 30
0.0
 40
7.9999999999998472
100
AcDbArc
 50
3.5809862195667592
 51
356.4190137804315
  0
ARC
  5
10E
100
AcDbEntity
  8
Corte exterior
 62
256
370
-1
 48
1.0
  6
ByLayer
100
AcDbCircle
 10
24.051420010237869
 20
56.16361136765795
 30
0.0
 40
7.9999999999999609
100
AcDbArc
 50
3.580986219566046
 51
356.41901378043076
  0
ARC
  5
10F
100
AcDbEntity
  8
Corte exterior
 62
256
370
-1
 48
1.0
  6
ByLayer
100
AcDbCircle
 10
43.251420010237943
 20
43.163611367657637
 30
0.0
 40
5.999999999999825
100
AcDbArc
 50
4.7746482927577674
 51
355.22535170724382
  0
LINE
  5
110
100
AcDbEntity
100
AcDbLine
  8
Corte exterior
 62
256
370
-1
 48
1.0
  6
ByLayer
 10
9.1999999999977433
 20
122.66361136765771
 30
0.0
 11
12.199999999997715
 21
122.66361136765769
 31
0.0
  0
LINE
  5
111
100
AcDbEntity
100
AcDbLine
  8
Corte exterior
 62
256
370
-1
 48
1.0
  6
ByLayer
 10
9.1999999999977149
 20
140.82722273531533
 30
0.0
 11
9.1999999999977433
 21
122.66361136765771
 31
0.0
  0
LINE
  5
112
100
AcDbEntity
100
AcDbLine
  8
Corte exterior
 62
256
370
-1
 48
1.0
  6
ByLayer
 10
12.199999999997686
 20
140.82722273531533
 30
0.0
 11
9.1999999999977149
 21
140.82722273531533
 31
0.0
  0
LINE
  5
113
100
AcDbEntity
100
AcDbLine
  8
Corte exterior
 62
256
370
-1
 48
1.0
  6
ByLayer
 10
12.199999999997715
 20
122.66361136765769
 30
0.0
 11
12.199999999997686
 21
140.82722273531533
 31
0.0
  0
LINE
  5
114
100
AcDbEntity
100
AcDbLine
  8
Corte exterior
 62
256
370
-1
 48
1.0
  6
ByLayer
 10
12.199999999997686
 20
112.66361136765765
 30
0.0
 11
9.1999999999976865
 21
112.66361136765765
 31
0.0
  0
LINE
  5
115
100
AcDbEntity
100
AcDbLine
  8
Corte exterior
 62
256
370
-1
 48
1.0
  6
ByLayer
 10
12.199999999997715
 20
94.499999999999943
 30
0.0
 11
12.199999999997686
 21
112.66361136765765
 31
0.0
  0
LINE
  5
116
100
AcDbEntity
100
AcDbLine
  8
Corte exterior
 62
256
370
-1
 48
1.0
  6
ByLayer
 10
9.1999999999977149
 20
94.499999999999943
 30
0.0
 11
12.199999999997715
 21
94.499999999999943
 31
0.0
  0
LINE
  5
117
100
AcDbEntity
100
AcDbLine
  8
Corte exterior
 62
256
370
-1
 48
1.0
  6
ByLayer
 10
9.1999999999976865
 20
112.66361136765765
 30
0.0
 11
9.1999999999977149
 21
94.499999999999943
 31
0.0
  0
LINE
  5
118
100
AcDbEntity
100
AcDbLine
  8
Corte exterior
 62
256
370
-1
 48
1.0
  6
ByLayer
 10
1.0
 20
9.9999999999999574
 30
0.0
 11
63.999999999997733
 21
9.9999999999999982
 31
0.0
  0
LINE
  5
119
100
AcDbEntity
100
AcDbLine
  8
Corte exterior
 62
256
370
-1
 48
1.0
  6
ByLayer
 10
1.0
 20
1.0
 30
0.0
 11
63.999999999997726
 21
0.9999999999999734
 31
0.0
  0
LINE
  5
11A
100
AcDbEntity
100
AcDbLine
  8
Corte exterior
 62
256
370
-1
 48
1.0
  6
ByLayer
 10
1.0
 20
9.9999999999999574
 30
0.0
 11
1.0
 21
1.0
 31
0.0
  0
LINE
  5
11B
100
AcDbEntity
100
AcDbLine
  8
Corte exterior
 62
256
370
-1
 48
1.0
  6
ByLayer
 10
19.999999999997932
 20
76.327222735315331
 30
0.0
 11
63.99999999999774
 21
76.327222735315431
 31
0.0
  0
ARC
  5
11C
100
AcDbEntity
  8
Corte exterior
 62
256
370
-1
 48
1.0
  6
ByLayer
100
AcDbCircle
 10
20.212145728632784
 20
158.00001385031979
 30
0.0
 40
0.9999999999999787
100
AcDbArc
 50
89.698443961830563
 51
179.69844396183225
  0
ARC
  5
11D
100
AcDbEntity
  8
Corte exterior
 62
256
370
-1
 48
1.0
  6
ByLayer
100
AcDbCircle
 10
19.999999999997911
 20
77.327222735315303
 30
0.0
 40
0.9999999999999787
100
AcDbArc
 50
180.0
 51
270.00000000000125
  0
LINE
  5
11E
100
AcDbEntity
100
AcDbLine
  8
Corte exterior
 62
256
370
-1
 48
1.0
  6
ByLayer
 10
19.179671502545943
 20
151.83258520201954
 30
0.0
 11
19.212159578952381
 21
158.00527697176634
 31
0.0
  0
LINE
  5
11F
100
AcDbEntity
100
AcDbLine
  8
Corte exterior
 62
256
370
-1
 48
1.0
  6
ByLayer
 10
18.999999999997911
 20
83.499999999999972
 30
0.0
 11
18.999999999997932
 21
77.327222735315303
 31
0.0
  0
ARC
  5
120
100
AcDbEntity
  8
Corte exterior
 62
256
370
-1
 48
1.0
  6
ByLayer
100
AcDbCircle
 10
18.179685352865533
 20
151.83784832346603
 30
0.0
 40
1.0000000000000211
100
AcDbArc
 50
269.69844396183464
 51
359.69844396183225
  0
ARC
  5
121
100
AcDbEntity
  8
Corte exterior
 62
256
370
-1
 48
1.0
  6
ByLayer
100
AcDbCircle
 10
17.99999999999789
 20
83.500000000000028
 30
0.0
 40
1.0000000000000211
100
AcDbArc
 50
360.0
 51
89.999999999997158
  0
LINE
  5
122
100
AcDbEntity
100
AcDbLine
  8
Corte exterior
 62
256
370
-1
 48
1.0
  6
ByLayer
 10
2.0
 20
150.82722273531536
 30
0.0
 11
18.174422231419044
 21
150.83786217378562
 31
0.0
  0
LINE
  5
123
100
AcDbEntity
100
AcDbLine
  8
Corte exterior
 62
256
370
-1
 48
1.0
  6
ByLayer
 10
2.0
 20
84.500000000000014
 30
0.0
 11
17.999999999997939
 21
84.500000000000043
 31
0.0
  0
ARC
  5
124
100
AcDbEntity
  8
Corte exterior
 62
256
370
-1
 48
1.0
  6
ByLayer
100
AcDbCircle
 10
31.831695107958613
 20
-0.0000000000000284
 30
0.0
 40
15.0
100
AcDbArc
 50
80.82748864567651
 51
90.000000000000085
  0
ARC
  5
125
100
AcDbEntity
  8
Corte exterior
 62
256
370
-1
 48
1.0
  6
ByLayer
100
AcDbCircle
 10
31.831695107958598
 20
86.327222735315473
 30
0.0
 40
15.0
100
AcDbArc
 50
269.99999999999989
 51
279.17251135432349
  0
LINE
  5
126
100
AcDbEntity
100
AcDbLine
  8
Corte exterior
 62
256
370
-1
 48
1.0
  6
ByLayer
 10
32.499999999998863
 20
4.9999999999999893
 30
0.0
 11
32.499999999998863
 21
1.0
 31
0.0
  0
LINE
  5
127
100
AcDbEntity
100
AcDbLine
  8
Corte exterior
 62
256
370
-1
 48
1.0
  6
ByLayer
 10
32.499999999998863
 20
9.9999999999999787
 30
0.0
 11
32.499999999998863
 21
5.9999999999999893
 31
0.0
  0
ENDSEC
  0
SECTION
  2
OBJECTS
  0
DICTIONARY
  5
C
100
AcDbDictionary
280
0
281
1
  3
ACAD_GROUP
350
D
  3
ACAD_LAYOUT
350
1A
  3
ACAD_MLINESTYLE
350
17
  3
ACAD_PLOTSETTINGS
350
19
  3
ACAD_PLOTSTYLENAME
350
E
  3
AcDbVariableDictionary
350
128
  3
QCAD_OBJECTS
350
129
  0
DICTIONARY
  5
D
100
AcDbDictionary
280
0
281
1
  0
ACDBDICTIONARYWDFLT
  5
E
100
AcDbDictionary
281
1
  3
Normal
350
F
100
AcDbDictionaryWithDefault
340
F
  0
ACDBPLACEHOLDER
  5
F
  0
DICTIONARY
  5
17
100
AcDbDictionary
280
0
281
1
  3
Standard
350
18
  0
MLINESTYLE
  5
18
100
AcDbMlineStyle
  2
STANDARD
 70
0
  3

 62
256
 51
90.0
 52
90.0
 71
2
 49
0.5
 62
256
  6
BYLAYER
 49
-0.5
 62
256
  6
BYLAYER
  0
DICTIONARY
  5
19
100
AcDbDictionary
280
0
281
1
  0
DICTIONARY
  5
1A
100
AcDbDictionary
281
1
  3
Layout1
350
1E
  3
Layout2
350
26
  3
Model
350
22
  0
LAYOUT
  5
1E
100
AcDbPlotSettings
  1

  2
none_device
  4

  6

 40
0.0
 41
0.0
 42
0.0
 43
0.0
 44
0.0
 45
0.0
 46
0.0
 47
0.0
 48
0.0
 49
0.0
140
0.0
141
0.0
142
1.0
143
1.0
 70
688
 72
0
 73
0
 74
5
  7

 75
16
147
1.0
148
0.0
149
0.0
100
AcDbLayout
  1
Layout1
 70
1
 71
1
 10
0.0
 20
0.0
 11
420.0
 21
297.0
 12
0.0
 22
0.0
 32
0.0
 14
100000000000000000000.0
 24
100000000000000000000.0
 34
100000000000000000000.0
 15
-100000000000000000000.0
 25
-100000000000000000000.0
 35
-100000000000000000000.0
146
0.0
 13
0.0
 23
0.0
 33
0.0
 16
1.0
 26
0.0
 36
0.0
 17
0.0
 27
1.0
 37
0.0
 76
0
330
1B
  0
LAYOUT
  5
22
100
AcDbPlotSettings
  1

  2
none_device
  4

  6

 40
0.0
 41
0.0
 42
0.0
 43
0.0
 44
0.0
 45
0.0
 46
0.0
 47
0.0
 48
0.0
 49
0.0
140
0.0
141
0.0
142
1.0
143
1.0
 70
1712
 72
0
 73
0
 74
0
  7

 75
0
147
1.0
148
0.0
149
0.0
100
AcDbLayout
  1
Model
 70
1
 71
0
 10
0.0
 20
0.0
 11
12.0
 21
9.0
 12
0.0
 22
0.0
 32
0.0
 14
0.0
 24
0.0
 34
0.0
 15
0.0
 25
0.0
 35
0.0
146
0.0
 13
0.0
 23
0.0
 33
0.0
 16
1.0
 26
0.0
 36
0.0
 17
0.0
 27
1.0
 37
0.0
 76
0
330
1F
  0
LAYOUT
  5
26
100
AcDbPlotSettings
  1

  2
none_device
  4

  6

 40
0.0
 41
0.0
 42
0.0
 43
0.0
 44
0.0
 45
0.0
 46
0.0
 47
0.0
 48
0.0
 49
0.0
140
0.0
141
0.0
142
1.0
143
1.0
 70
688
 72
0
 73
0
 74
5
  7

 75
16
147
1.0
148
0.0
149
0.0
100
AcDbLayout
  1
Layout2
 70
1
 71
2
 10
0.0
 20
0.0
 11
12.0
 21
9.0
 12
0.0
 22
0.0
 32
0.0
 14
0.0
 24
0.0
 34
0.0
 15
0.0
 25
0.0
 35
0.0
146
0.0
 13
0.0
 23
0.0
 33
0.0
 16
1.0
 26
0.0
 36
0.0
 17
0.0
 27
1.0
 37
0.0
 76
0
330
23
  0
DICTIONARY
  5
128
100
AcDbDictionary
281
1
  3
DIMASSOC
350
12B
  3
HIDETEXT
350
12A
  0
DICTIONARYVAR
  5
12A
100
DictionaryVariables
280
0
  1
2
  0
DICTIONARYVAR
  5
12B
100
DictionaryVariables
280
0
  1
1
  0
DICTIONARY
  5
129
100
AcDbDictionary
281
1
  3
ColorSettings/BackgroundColor
350
12C
  3
ColorSettings/ColorMode
350
12D
  3
Grid/DisplayGrid00
350
12E
  3
Grid/DisplayGrid01
350
12F
  3
Grid/DisplayGrid02
350
130
  3
Grid/DisplayGrid03
350
131
  3
Grid/GridSpacingX00
350
132
  3
Grid/GridSpacingX01
350
133
  3
Grid/GridSpacingX02
350
134
  3
Grid/GridSpacingX03
350
135
  3
Grid/GridSpacingY00
350
136
  3
Grid/GridSpacingY01
350
137
  3
Grid/GridSpacingY02
350
138
  3
Grid/GridSpacingY03
350
139
  3
Grid/IsometricGrid00
350
13A
  3
Grid/IsometricGrid01
350
13B
  3
Grid/IsometricGrid02
350
13C
  3
Grid/IsometricGrid03
350
13D
  3
Grid/IsometricProjection00
350
13E
  3
Grid/IsometricProjection01
350
13F
  3
Grid/IsometricProjection02
350
140
  3
Grid/IsometricProjection03
350
141
  3
Grid/MetaGridSpacingX00
350
142
  3
Grid/MetaGridSpacingX01
350
143
  3
Grid/MetaGridSpacingX02
350
144
  3
Grid/MetaGridSpacingX03
350
145
  3
Grid/MetaGridSpacingY00
350
146
  3
Grid/MetaGridSpacingY01
350
147
  3
Grid/MetaGridSpacingY02
350
148
  3
Grid/MetaGridSpacingY03
350
149
  3
MultiPageSettings/Columns
350
14A
  3
MultiPageSettings/GlueMarginsBottom
350
14B
  3
MultiPageSettings/GlueMarginsLeft
350
14C
  3
MultiPageSettings/GlueMarginsRight
350
14D
  3
MultiPageSettings/GlueMarginsTop
350
14E
  3
MultiPageSettings/PrintCropMarks
350
14F
  3
MultiPageSettings/Rows
350
150
  3
PageSettings/OffsetX
350
151
  3
PageSettings/OffsetY
350
152
  3
PageSettings/PageOrientation
350
153
  3
PageSettings/PaperHeight
350
154
  3
PageSettings/PaperWidth
350
155
  3
PageSettings/Scale
350
156
  3
PageSettings/ShowPaperBorders
350
157
  3
QCADVersion
350
158
  3
UnitSettings/PaperUnit
350
159
  3
ViewportCenter
350
15A
  3
ViewportHeight
350
15B
  3
ViewportWidth
350
15C
  0
XRECORD
  5
12C
330
129
100
AcDbXrecord
280
1
1000
Blanca
  0
XRECORD
  5
12D
330
129
100
AcDbXrecord
280
1
1000
FullColor
  0
XRECORD
  5
12E
330
129
100
AcDbXrecord
280
1
290
1
  0
XRECORD
  5
12F
330
129
100
AcDbXrecord
280
1
290
1
  0
XRECORD
  5
130
330
129
100
AcDbXrecord
280
1
290
1
  0
XRECORD
  5
131
330
129
100
AcDbXrecord
280
1
290
1
  0
XRECORD
  5
132
330
129
100
AcDbXrecord
280
1
1000
auto
  0
XRECORD
  5
133
330
129
100
AcDbXrecord
280
1
1000
auto
  0
XRECORD
  5
134
330
129
100
AcDbXrecord
280
1
1000
auto
  0
XRECORD
  5
135
330
129
100
AcDbXrecord
280
1
1000
auto
  0
XRECORD
  5
136
330
129
100
AcDbXrecord
280
1
1000
auto
  0
XRECORD
  5
137
330
129
100
AcDbXrecord
280
1
1000
auto
  0
XRECORD
  5
138
330
129
100
AcDbXrecord
280
1
1000
auto
  0
XRECORD
  5
139
330
129
100
AcDbXrecord
280
1
1000
auto
  0
XRECORD
  5
13A
330
129
100
AcDbXrecord
280
1
290
0
  0
XRECORD
  5
13B
330
129
100
AcDbXrecord
280
1
290
0
  0
XRECORD
  5
13C
330
129
100
AcDbXrecord
280
1
290
0
  0
XRECORD
  5
13D
330
129
100
AcDbXrecord
280
1
290
0
  0
XRECORD
  5
13E
330
129
100
AcDbXrecord
280
1
 90
0
  0
XRECORD
  5
13F
330
129
100
AcDbXrecord
280
1
 90
0
  0
XRECORD
  5
140
330
129
100
AcDbXrecord
280
1
 90
0
  0
XRECORD
  5
141
330
129
100
AcDbXrecord
280
1
 90
0
  0
XRECORD
  5
142
330
129
100
AcDbXrecord
280
1
1000
auto
  0
XRECORD
  5
143
330
129
100
AcDbXrecord
280
1
1000
auto
  0
XRECORD
  5
144
330
129
100
AcDbXrecord
280
1
1000
auto
  0
XRECORD
  5
145
330
129
100
AcDbXrecord
280
1
1000
auto
  0
XRECORD
  5
146
330
129
100
AcDbXrecord
280
1
1000
auto
  0
XRECORD
  5
147
330
129
100
AcDbXrecord
280
1
1000
auto
  0
XRECORD
  5
148
330
129
100
AcDbXrecord
280
1
1000
auto
  0
XRECORD
  5
149
330
129
100
AcDbXrecord
280
1
1000
auto
  0
XRECORD
  5
14A
330
129
100
AcDbXrecord
280
1
 90
1
  0
XRECORD
  5
14B
330
129
100
AcDbXrecord
280
1
 40
10.0
  0
XRECORD
  5
14C
330
129
100
AcDbXrecord
280
1
 40
10.0
  0
XRECORD
  5
14D
330
129
100
AcDbXrecord
280
1
 40
10.0
  0
XRECORD
  5
14E
330
129
100
AcDbXrecord
280
1
 40
10.0
  0
XRECORD
  5
14F
330
129
100
AcDbXrecord
280
1
290
0
  0
XRECORD
  5
150
330
129
100
AcDbXrecord
280
1
 90
1
  0
XRECORD
  5
151
330
129
100
AcDbXrecord
280
1
 40
0.0
  0
XRECORD
  5
152
330
129
100
AcDbXrecord
280
1
 40
0.0
  0
XRECORD
  5
153
330
129
100
AcDbXrecord
280
1
1000
Portrait
  0
XRECORD
  5
154
330
129
100
AcDbXrecord
280
1
 40
279.39999999999998
  0
XRECORD
  5
155
330
129
100
AcDbXrecord
280
1
 40
215.90000000000001
  0
XRECORD
  5
156
330
129
100
AcDbXrecord
280
1
1000
1:1
  0
XRECORD
  5
157
330
129
100
AcDbXrecord
280
1
290
1
  0
XRECORD
  5
158
330
129
100
AcDbXrecord
280
1
1000
3.15.2
  0
XRECORD
  5
159
330
129
100
AcDbXrecord
280
1
 90
4
  0
XRECORD
  5
15B
330
129
100
AcDbXrecord
280
1
 40
242.84745762711827
  0
XRECORD
  5
15C
330
129
100
AcDbXrecord
280
1
 40
525.35593220338899
  0
ENDSEC
  0
EOF
