999
dxflib 3.12.2.0
  0
SECTION
  2
HEADER
  9
$ACADVER
  1
AC1015
  9
$HANDSEED
  5
FFFF
  9
$ANGBASE
 50
0.0
  9
$ATTMODE
 70
1
  9
$AUNITS
 70
0
  9
$AUPREC
 70
0
  9
$CELTSCALE
 40
1.0
  9
$CHAMFERA
 40
0.0
  9
$CHAMFERB
 40
0.0
  9
$CHAMFERC
 40
0.0
  9
$CHAMFERD
 40
0.0
  9
$CMLJUST
 70
0
  9
$CMLSCALE
 40
1.0
  9
$DIMADEC
 70
0
  9
$DIMALTD
 70
3
  9
$DIMALTF
 40
0.03937007874016
  9
$DIMALTRND
 40
0.0
  9
$DIMALTTD
 70
2
  9
$DIMALTTZ
 70
0
  9
$DIMALTU
 70
2
  9
$DIMALTZ
 70
0
  9
$DIMAPOST
  1

  9
$DIMASZ
 40
2.5
  9
$DIMATFIT
 70
3
  9
$DIMAUNIT
 70
0
  9
$DIMAZIN
 70
0
  9
$DIMCEN
 40
2.5
  9
$DIMDEC
 70
4
  9
$DIMDLE
 40
0.0
  9
$DIMDLI
 40
3.75
  9
$DIMDSEP
 70
46
  9
$DIMEXE
 40
1.25
  9
$DIMEXO
 40
0.625
  9
$DIMFRAC
 70
0
  9
$DIMGAP
 40
0.625
  9
$DIMJUST
 70
0
  9
$DIMLFAC
 40
1.0
  9
$DIMLUNIT
 70
2
  9
$DIMLWD
 70
-2
  9
$DIMLWE
 70
-2
  9
$DIMPOST
  1

  9
$DIMRND
 40
0.0
  9
$DIMSCALE
 40
1.0
  9
$DIMTAD
 70
1
  9
$DIMTDEC
 70
4
  9
$DIMTFAC
 40
1.0
  9
$DIMTM
 40
0.0
  9
$DIMTOLJ
 70
1
  9
$DIMTP
 40
0.0
  9
$DIMTSZ
 40
0.0
  9
$DIMTVP
 40
0.0
  9
$DIMTXT
 40
2.5
  9
$DIMTZIN
 70
0
  9
$DIMZIN
 70
8
  9
$DWGCODEPAGE
  3
ANSI_1252
  9
$ELEVATION
 40
0.0
  9
$EXTMAX
 10
149.0
 20
158.76732448150941
 30
0.0
  9
$EXTMIN
 10
0.0
 20
0.0
 30
0.0
  9
$FILLETRAD
 40
5.0
  9
$INSBASE
 10
0.0
 20
0.0
 30
0.0
  9
$INSUNITS
 70
0
  9
$LIMMAX
 10
420.0
 20
297.0
  9
$LIMMIN
 10
0.0
 20
0.0
  9
$LTSCALE
 40
1.0
  9
$LUNITS
 70
2
  9
$LUPREC
 70
4
  9
$MAXACTVP
 70
2
  9
$MEASUREMENT
 70
0
  9
$PDMODE
 70
0
  9
$PDSIZE
 40
0.0
  9
$PELEVATION
 40
0.0
  9
$PEXTMAX
 10
9.9287257582933517
 20
7.5991666710079731
 30
0.0000000349246037
  9
$PEXTMIN
 10
1.049636599258094
 20
0.3333892899584683
 30
-0.0015258207003583
  9
$PINSBASE
 10
0.0
 20
0.0
 30
0.0
  9
$PLIMMAX
 10
10.75
 20
8.25
  9
$PLIMMIN
 10
-0.25
 20
-0.25
  9
$PLINEWID
 40
0.0
  9
$PROXYGRAPHICS
 70
1
  9
$PUCSORG
 10
0.0
 20
0.0
 30
0.0
  9
$PUCSXDIR
 10
1.0
 20
0.0
 30
0.0
  9
$PUCSYDIR
 10
0.0
 20
1.0
 30
0.0
  9
$SHADEDGE
 70
3
  9
$SHADEDIF
 70
70
  9
$SKETCHINC
 40
1.0
  9
$SPLINESEGS
 70
8
  9
$SPLINETYPE
 70
6
  9
$SURFTAB1
 70
6
  9
$SURFTAB2
 70
6
  9
$SURFTYPE
 70
6
  9
$SURFU
 70
6
  9
$SURFV
 70
6
  9
$TEXTSIZE
 40
2.5
  9
$THICKNESS
 40
0.0
  9
$TRACEWID
 40
1.0
  9
$TREEDEPTH
 70
3020
  9
$UCSORG
 10
0.0
 20
0.0
 30
0.0
  9
$UCSXDIR
 10
1.0
 20
0.0
 30
0.0
  9
$UCSYDIR
 10
0.0
 20
1.0
 30
0.0
  9
$UNITMODE
 70
0
  9
$USERI1
 70
0
  9
$USERI2
 70
0
  9
$USERI3
 70
0
  9
$USERI4
 70
0
  9
$USERI5
 70
0
  9
$USERR1
 40
0.0
  9
$USERR2
 40
0.0
  9
$USERR3
 40
0.0
  9
$USERR4
 40
0.0
  9
$USERR5
 40
0.0
  0
ENDSEC
  0
SECTION
  2
TABLES
  0
TABLE
  2
VPORT
  5
8
100
AcDbSymbolTable
 70
1
  0
VPORT
  5
30
100
AcDbSymbolTableRecord
100
AcDbViewportTableRecord
  2
*Active
 70
0
 10
0.0
 20
0.0
 11
1.0
 21
1.0
 12
286.30555555555549
 22
148.5
 13
0.0
 23
0.0
 14
10.0
 24
10.0
 15
10.0
 25
10.0
 16
0.0
 26
0.0
 36
1.0
 17
0.0
 27
0.0
 37
0.0
 40
297.0
 41
1.92798353909465
 42
50.0
 43
0.0
 44
0.0
 50
0.0
 51
0.0
 71
0
 72
100
 73
1
 74
3
 75
1
 76
1
 77
0
 78
0
281
0
 65
1
110
0.0
120
0.0
130
0.0
111
1.0
121
0.0
131
0.0
112
0.0
122
1.0
132
0.0
 79
0
146
0.0
  0
ENDTAB
  0
TABLE
  2
LTYPE
  5
5
100
AcDbSymbolTable
 70
50
  0
LTYPE
  5
16
100
AcDbSymbolTableRecord
100
AcDbLinetypeTableRecord
  2
Continuous
 70
0
  3
Solid line
 72
65
 73
0
 40
0.0
  0
LTYPE
  5
31
100
AcDbSymbolTableRecord
100
AcDbLinetypeTableRecord
  2
ACAD_ISO15W100
 70
0
  3
ISO double-dash triple-dot __ __ . . . __ __ . .
 72
65
 73
10
 40
39.000000000000007
 49
12.0
 74
0
 49
-3.0
 74
0
 49
12.0
 74
0
 49
-2.9500000000000002
 74
0
 49
0.1
 74
0
 49
-2.8999999999999999
 74
0
 49
0.1
 74
0
 49
-2.8999999999999999
 74
0
 49
0.1
 74
0
 49
-2.9500000000000002
 74
0
  0
LTYPE
  5
32
100
AcDbSymbolTableRecord
100
AcDbLinetypeTableRecord
  2
HOT_WATER_SUPPLY
 70
0
  3
Hot water supply ---- HW ---- HW ---- HW ----
 72
65
 73
3
 40
22.859999999999999
 49
12.699999999999999
 74
0
 49
-5.0800000000000001
 74
0
 49
-5.0800000000000001
 74
0
  0
LTYPE
  5
33
100
AcDbSymbolTableRecord
100
AcDbLinetypeTableRecord
  2
DIVIDE
 70
0
  3
Divide ____ . . ____ . . ____ . . ____ . . ____
 72
65
 73
6
 40
31.749999999999989
 49
12.699999999999999
 74
0
 49
-6.2999999999999972
 74
0
 49
0.1
 74
0
 49
-6.249999999999992
 74
0
 49
0.1
 74
0
 49
-6.2999999999999972
 74
0
  0
LTYPE
  5
34
100
AcDbSymbolTableRecord
100
AcDbLinetypeTableRecord
  2
ACAD_ISO10W100
 70
0
  3
ISO dash dot __ . __ . __ . __ . __ . __ . __ . 
 72
65
 73
4
 40
18.0
 49
12.0
 74
0
 49
-2.9500000000000002
 74
0
 49
0.1
 74
0
 49
-2.9500000000000002
 74
0
  0
LTYPE
  5
35
100
AcDbSymbolTableRecord
100
AcDbLinetypeTableRecord
  2
GAS_LINE
 70
0
  3
Gas line ----GAS----GAS----GAS----GAS----GAS----GAS--
 72
65
 73
3
 40
24.129999999999999
 49
12.699999999999999
 74
0
 49
-5.0800000000000001
 74
0
 49
-6.349999999999997
 74
0
  0
LTYPE
  5
36
100
AcDbSymbolTableRecord
100
AcDbLinetypeTableRecord
  2
ACAD_ISO04W100
 70
0
  3
ISO long-dash dot ____ . ____ . ____ . ____ . _
 72
65
 73
4
 40
30.0
 49
24.0
 74
0
 49
-2.9500000000000002
 74
0
 49
0.1
 74
0
 49
-2.9500000000000002
 74
0
  0
LTYPE
  5
14
100
AcDbSymbolTableRecord
100
AcDbLinetypeTableRecord
  2
ByBlock
 70
0
  3

 72
65
 73
0
 40
0.0
  0
LTYPE
  5
37
100
AcDbSymbolTableRecord
100
AcDbLinetypeTableRecord
  2
CENTER2
 70
0
  3
Center (.5x) ___ _ ___ _ ___ _ ___ _ ___ _ ___
 72
65
 73
4
 40
28.574999999999992
 49
19.050000000000001
 74
0
 49
-3.174999999999998
 74
0
 49
3.174999999999998
 74
0
 49
-3.174999999999998
 74
0
  0
LTYPE
  5
38
100
AcDbSymbolTableRecord
100
AcDbLinetypeTableRecord
  2
ACAD_ISO11W100
 70
0
  3
ISO double-dash dot __ __ . __ __ . __ __ . __ _
 72
65
 73
6
 40
33.0
 49
12.0
 74
0
 49
-3.0
 74
0
 49
12.0
 74
0
 49
-2.9500000000000002
 74
0
 49
0.1
 74
0
 49
-2.9500000000000002
 74
0
  0
LTYPE
  5
39
100
AcDbSymbolTableRecord
100
AcDbLinetypeTableRecord
  2
HIDDEN2
 70
0
  3
Hidden (.5x) _ _ _ _ _ _ _ _ _ _ _ _ _ _ _ _ _ 
 72
65
 73
2
 40
4.7624999999999975
 49
3.174999999999998
 74
0
 49
-1.587499999999999
 74
0
  0
LTYPE
  5
3A
100
AcDbSymbolTableRecord
100
AcDbLinetypeTableRecord
  2
BORDERX2
 70
0
  3
Border (2x) ____  ____  .  ____  ____  .  ___
 72
65
 73
6
 40
88.899999999999991
 49
25.399999999999999
 74
0
 49
-12.699999999999999
 74
0
 49
25.399999999999999
 74
0
 49
-12.65
 74
0
 49
0.1
 74
0
 49
-12.65
 74
0
  0
LTYPE
  5
3B
100
AcDbSymbolTableRecord
100
AcDbLinetypeTableRecord
  2
ACAD_ISO05W100
 70
0
  3
ISO long-dash double-dot ____ .. ____ .. ____ . 
 72
65
 73
6
 40
33.0
 49
24.0
 74
0
 49
-2.9500000000000002
 74
0
 49
0.1
 74
0
 49
-2.8999999999999999
 74
0
 49
0.1
 74
0
 49
-2.9500000000000002
 74
0
  0
LTYPE
  5
3C
100
AcDbSymbolTableRecord
100
AcDbLinetypeTableRecord
  2
DASHDOTX2
 70
0
  3
Dash dot (2x) ____  .  ____  .  ____  .  ___
 72
65
 73
4
 40
50.799999999999997
 49
25.399999999999999
 74
0
 49
-12.65
 74
0
 49
0.1
 74
0
 49
-12.65
 74
0
  0
LTYPE
  5
3D
100
AcDbSymbolTableRecord
100
AcDbLinetypeTableRecord
  2
HIDDENX2
 70
0
  3
Hidden (2x) ____ ____ ____ ____ ____ ____ ____ 
 72
65
 73
2
 40
19.049999999999997
 49
12.699999999999999
 74
0
 49
-6.349999999999997
 74
0
  0
LTYPE
  5
3E
100
AcDbSymbolTableRecord
100
AcDbLinetypeTableRecord
  2
CENTERX2
 70
0
  3
Center (2x) ________  __  ________  __  _____
 72
65
 73
4
 40
101.60000000000001
 49
63.5
 74
0
 49
-12.699999999999999
 74
0
 49
12.699999999999999
 74
0
 49
-12.699999999999999
 74
0
  0
LTYPE
  5
3F
100
AcDbSymbolTableRecord
100
AcDbLinetypeTableRecord
  2
BORDER2
 70
0
  3
Border (.5x) __.__.__.__.__.__.__.__.__.__.__.
 72
65
 73
6
 40
22.224999999999987
 49
6.349999999999997
 74
0
 49
-3.174999999999998
 74
0
 49
6.349999999999997
 74
0
 49
-3.124999999999996
 74
0
 49
0.1
 74
0
 49
-3.124999999999996
 74
0
  0
LTYPE
  5
40
100
AcDbSymbolTableRecord
100
AcDbLinetypeTableRecord
  2
DASHDOT2
 70
0
  3
Dash dot (.5x) _._._._._._._._._._._._._._._.
 72
65
 73
4
 40
12.699999999999989
 49
6.349999999999997
 74
0
 49
-3.124999999999996
 74
0
 49
0.1
 74
0
 49
-3.124999999999996
 74
0
  0
LTYPE
  5
41
100
AcDbSymbolTableRecord
100
AcDbLinetypeTableRecord
  2
ACAD_ISO12W100
 70
0
  3
ISO dash double-dot __ . . __ . . __ . . __ . . 
 72
65
 73
6
 40
21.0
 49
12.0
 74
0
 49
-2.9500000000000002
 74
0
 49
0.1
 74
0
 49
-2.8999999999999999
 74
0
 49
0.1
 74
0
 49
-2.9500000000000002
 74
0
  0
LTYPE
  5
42
100
AcDbSymbolTableRecord
100
AcDbLinetypeTableRecord
  2
ACAD_ISO07W100
 70
0
  3
ISO dot . . . . . . . . . . . . . . . . . . . . 
 72
65
 73
2
 40
3.0
 49
0.1
 74
0
 49
-2.8999999999999999
 74
0
  0
LTYPE
  5
43
100
AcDbSymbolTableRecord
100
AcDbLinetypeTableRecord
  2
ACAD_ISO06W100
 70
0
  3
ISO long-dash triple-dot ____ ... ____ ... ____
 72
65
 73
8
 40
36.000000000000007
 49
24.0
 74
0
 49
-2.9500000000000002
 74
0
 49
0.1
 74
0
 49
-2.8999999999999999
 74
0
 49
0.1
 74
0
 49
-2.8999999999999999
 74
0
 49
0.1
 74
0
 49
-2.9500000000000002
 74
0
  0
LTYPE
  5
44
100
AcDbSymbolTableRecord
100
AcDbLinetypeTableRecord
  2
CENTER
 70
0
  3
Center ____ _ ____ _ ____ _ ____ _ ____ _ ____
 72
65
 73
4
 40
50.799999999999983
 49
31.75
 74
0
 49
-6.349999999999997
 74
0
 49
6.349999999999997
 74
0
 49
-6.349999999999997
 74
0
  0
LTYPE
  5
45
100
AcDbSymbolTableRecord
100
AcDbLinetypeTableRecord
  2
HIDDEN
 70
0
  3
Hidden __ __ __ __ __ __ __ __ __ __ __ __ __ __
 72
65
 73
2
 40
9.524999999999995
 49
6.349999999999997
 74
0
 49
-3.174999999999998
 74
0
  0
LTYPE
  5
46
100
AcDbSymbolTableRecord
100
AcDbLinetypeTableRecord
  2
DOTX2
 70
0
  3
Dot (2x) .  .  .  .  .  .  .  .  .  .  .  .  .  .
 72
65
 73
2
 40
12.699999999999999
 49
0.1
 74
0
 49
-12.6
 74
0
  0
LTYPE
  5
47
100
AcDbSymbolTableRecord
100
AcDbLinetypeTableRecord
  2
PHANTOM
 70
0
  3
Phantom ______  __  __  ______  __  __  ______ 
 72
65
 73
6
 40
63.499999999999972
 49
31.75
 74
0
 49
-6.349999999999997
 74
0
 49
6.349999999999997
 74
0
 49
-6.349999999999997
 74
0
 49
6.349999999999997
 74
0
 49
-6.349999999999997
 74
0
  0
LTYPE
  5
48
100
AcDbSymbolTableRecord
100
AcDbLinetypeTableRecord
  2
ACAD_ISO08W100
 70
0
  3
ISO long-dash short-dash ____ __ ____ __ ____ _
 72
65
 73
4
 40
36.0
 49
24.0
 74
0
 49
-3.0
 74
0
 49
6.0
 74
0
 49
-3.0
 74
0
  0
LTYPE
  5
49
100
AcDbSymbolTableRecord
100
AcDbLinetypeTableRecord
  2
DASHEDX2
 70
0
  3
Dashed (2x) ____  ____  ____  ____  ____  ___
 72
65
 73
2
 40
38.099999999999994
 49
25.399999999999999
 74
0
 49
-12.699999999999999
 74
0
  0
LTYPE
  5
4A
100
AcDbSymbolTableRecord
100
AcDbLinetypeTableRecord
  2
DRAINAGE
 70
0
  3
Drainage ---->---->---->----
 72
65
 73
2
 40
10.16
 49
5.0800000000000001
 74
0
 49
5.0800000000000001
 74
0
  0
LTYPE
  5
4B
100
AcDbSymbolTableRecord
100
AcDbLinetypeTableRecord
  2
ACAD_ISO02W100
 70
0
  3
ISO dash __ __ __ __ __ __ __ __ __ __ __ __ __
 72
65
 73
2
 40
15.0
 49
12.0
 74
0
 49
-3.0
 74
0
  0
LTYPE
  5
4C
100
AcDbSymbolTableRecord
100
AcDbLinetypeTableRecord
  2
PHANTOM2
 70
0
  3
Phantom (.5x) ___ _ _ ___ _ _ ___ _ _ ___ _ _
 72
65
 73
6
 40
31.749999999999986
 49
15.875
 74
0
 49
-3.174999999999998
 74
0
 49
3.174999999999998
 74
0
 49
-3.174999999999998
 74
0
 49
3.174999999999998
 74
0
 49
-3.174999999999998
 74
0
  0
LTYPE
  5
4D
100
AcDbSymbolTableRecord
100
AcDbLinetypeTableRecord
  2
DASHED2
 70
0
  3
Dashed (.5x) _ _ _ _ _ _ _ _ _ _ _ _ _ _ _ _ _ 
 72
65
 73
2
 40
9.524999999999995
 49
6.349999999999997
 74
0
 49
-3.174999999999998
 74
0
  0
LTYPE
  5
4E
100
AcDbSymbolTableRecord
100
AcDbLinetypeTableRecord
  2
ACAD_ISO09W100
 70
0
  3
ISO long-dash double-short-dash ____ __ __ ____
 72
65
 73
6
 40
45.0
 49
24.0
 74
0
 49
-3.0
 74
0
 49
6.0
 74
0
 49
-3.0
 74
0
 49
6.0
 74
0
 49
-3.0
 74
0
  0
LTYPE
  5
4F
100
AcDbSymbolTableRecord
100
AcDbLinetypeTableRecord
  2
ACAD_ISO13W100
 70
0
  3
ISO double-dash double-dot __ __ . . __ __ . . _
 72
65
 73
8
 40
36.000000000000007
 49
12.0
 74
0
 49
-3.0
 74
0
 49
12.0
 74
0
 49
-2.9500000000000002
 74
0
 49
0.1
 74
0
 49
-2.8999999999999999
 74
0
 49
0.1
 74
0
 49
-2.9500000000000002
 74
0
  0
LTYPE
  5
50
100
AcDbSymbolTableRecord
100
AcDbLinetypeTableRecord
  2
TRACKS
 70
0
  3
Tracks -|-|-|-|-|-|-|-|-|-|-|-|-|-|-|-|-|-|-|-|-|-|-|-|-
 72
65
 73
2
 40
7.6200000000000001
 49
3.8100000000000001
 74
0
 49
3.8100000000000001
 74
0
  0
LTYPE
  5
51
100
AcDbSymbolTableRecord
100
AcDbLinetypeTableRecord
  2
DRAINAGE2
 70
0
  3
Drainage reversed----<----<----<----
 72
65
 73
2
 40
10.16
 49
5.0800000000000001
 74
0
 49
5.0800000000000001
 74
0
  0
LTYPE
  5
52
100
AcDbSymbolTableRecord
100
AcDbLinetypeTableRecord
  2
DOT2
 70
0
  3
Dot (.5x) ........................................
 72
65
 73
2
 40
3.174999999999998
 49
0.1
 74
0
 49
-3.074999999999998
 74
0
  0
LTYPE
  5
53
100
AcDbSymbolTableRecord
100
AcDbLinetypeTableRecord
  2
ZIGZAG
 70
0
  3
Zig zag /\/\/\/\/\/\/\/\/\/\/\/\/\/\/\/\/\/\/\/\/\/\/\/
 72
65
 73
4
 40
20.32254
 49
0.00254
 74
0
 49
-5.0800000000000001
 74
0
 49
-10.16
 74
0
 49
-5.0800000000000001
 74
0
  0
LTYPE
  5
54
100
AcDbSymbolTableRecord
100
AcDbLinetypeTableRecord
  2
DASHED
 70
0
  3
Dashed __ __ __ __ __ __ __ __ __ __ __ __ __ _
 72
65
 73
2
 40
19.049999999999997
 49
12.699999999999999
 74
0
 49
-6.349999999999997
 74
0
  0
LTYPE
  5
55
100
AcDbSymbolTableRecord
100
AcDbLinetypeTableRecord
  2
ACAD_ISO14W100
 70
0
  3
ISO dash triple-dot __ . . . __ . . . __ . . . _
 72
65
 73
8
 40
24.0
 49
12.0
 74
0
 49
-2.9500000000000002
 74
0
 49
0.1
 74
0
 49
-2.8999999999999999
 74
0
 49
0.1
 74
0
 49
-2.8999999999999999
 74
0
 49
0.1
 74
0
 49
-2.9500000000000002
 74
0
  0
LTYPE
  5
56
100
AcDbSymbolTableRecord
100
AcDbLinetypeTableRecord
  2
PHANTOMX2
 70
0
  3
Phantom (2x) ____________    ____    ____   _
 72
65
 73
6
 40
127.00000000000001
 49
63.5
 74
0
 49
-12.699999999999999
 74
0
 49
12.699999999999999
 74
0
 49
-12.699999999999999
 74
0
 49
12.699999999999999
 74
0
 49
-12.699999999999999
 74
0
  0
LTYPE
  5
57
100
AcDbSymbolTableRecord
100
AcDbLinetypeTableRecord
  2
DIVIDEX2
 70
0
  3
Divide (2x) ________  .  .  ________  .  .  _
 72
65
 73
6
 40
63.5
 49
25.399999999999999
 74
0
 49
-12.65
 74
0
 49
0.1
 74
0
 49
-12.6
 74
0
 49
0.1
 74
0
 49
-12.65
 74
0
  0
LTYPE
  5
58
100
AcDbSymbolTableRecord
100
AcDbLinetypeTableRecord
  2
BORDER
 70
0
  3
Border __ __ . __ __ . __ __ . __ __ . __ __ .
 72
65
 73
6
 40
44.449999999999996
 49
12.699999999999999
 74
0
 49
-6.349999999999997
 74
0
 49
12.699999999999999
 74
0
 49
-6.2999999999999972
 74
0
 49
0.1
 74
0
 49
-6.2999999999999972
 74
0
  0
LTYPE
  5
59
100
AcDbSymbolTableRecord
100
AcDbLinetypeTableRecord
  2
DIVIDE2
 70
0
  3
Divide (.5x) __..__..__..__..__..__..__..__.._
 72
65
 73
6
 40
15.874999999999986
 49
6.349999999999997
 74
0
 49
-3.124999999999996
 74
0
 49
0.1
 74
0
 49
-3.074999999999998
 74
0
 49
0.1
 74
0
 49
-3.124999999999996
 74
0
  0
LTYPE
  5
5A
100
AcDbSymbolTableRecord
100
AcDbLinetypeTableRecord
  2
DOT
 70
0
  3
Dot . . . . . . . . . . . . . . . . . . . . . . . .
 72
65
 73
2
 40
6.3499999999999917
 49
0.1
 74
0
 49
-6.249999999999992
 74
0
  0
LTYPE
  5
5B
100
AcDbSymbolTableRecord
100
AcDbLinetypeTableRecord
  2
DASHDOT
 70
0
  3
Dash dot __ . __ . __ . __ . __ . __ . __ . __
 72
65
 73
4
 40
25.399999999999995
 49
12.699999999999999
 74
0
 49
-6.2999999999999972
 74
0
 49
0.1
 74
0
 49
-6.2999999999999972
 74
0
  0
LTYPE
  5
5C
100
AcDbSymbolTableRecord
100
AcDbLinetypeTableRecord
  2
FENCELINE1
 70
0
  3
Fenceline circle ----0-----0----0-----0----0-----0--
 72
65
 73
4
 40
36.829999999999998
 49
6.349999999999997
 74
0
 49
-2.54
 74
0
 49
-2.54
 74
0
 49
25.399999999999999
 74
0
  0
LTYPE
  5
5D
100
AcDbSymbolTableRecord
100
AcDbLinetypeTableRecord
  2
BATTING
 70
0
  3
Batting SSSSSSSSSSSSSSSSSSSSSSSSSSSSSSSSSSSSSSSSSSSSSSS
 72
65
 73
4
 40
10.16254
 49
0.00254
 74
0
 49
-2.54
 74
0
 49
-5.0800000000000001
 74
0
 49
-2.54
 74
0
  0
LTYPE
  5
5E
100
AcDbSymbolTableRecord
100
AcDbLinetypeTableRecord
  2
ACAD_ISO03W100
 70
0
  3
ISO dash space __    __    __    __    __    __
 72
65
 73
2
 40
30.0
 49
12.0
 74
0
 49
-18.0
 74
0
  0
LTYPE
  5
15
100
AcDbSymbolTableRecord
100
AcDbLinetypeTableRecord
  2
ByLayer
 70
0
  3

 72
65
 73
0
 40
0.0
  0
LTYPE
  5
5F
100
AcDbSymbolTableRecord
100
AcDbLinetypeTableRecord
  2
FENCELINE2
 70
0
  3
Fenceline square ----[]-----[]----[]-----[]----[]---
 72
65
 73
4
 40
36.829999999999998
 49
6.349999999999997
 74
0
 49
-2.54
 74
0
 49
-2.54
 74
0
 49
25.399999999999999
 74
0
  0
ENDTAB
  0
TABLE
  2
LAYER
  5
2
100
AcDbSymbolTable
 70
4
  0
LAYER
  5
60
100
AcDbSymbolTableRecord
100
AcDbLayerTableRecord
  2
grabado linea medio
 70
0
 62
3
420
65280
  6
Continuous
370
-3
390
F
  0
LAYER
  5
61
100
AcDbSymbolTableRecord
100
AcDbLayerTableRecord
  2
mesa de trabajo y auxiliares
 70
0
 62
7
420
16777215
  6
Continuous
370
-3
390
F
  0
LAYER
  5
62
100
AcDbSymbolTableRecord
100
AcDbLayerTableRecord
  2
Corte exterior
 70
0
 62
1
420
16711680
  6
Continuous
370
-3
390
F
  0
LAYER
  5
10
100
AcDbSymbolTableRecord
100
AcDbLayerTableRecord
  2
0
 70
1
 62
-7
420
16777215
  6
Continuous
370
-3
390
F
  0
ENDTAB
  0
TABLE
  2
STYLE
  5
3
100
AcDbSymbolTable
 70
1
  0
STYLE
  5
63
100
AcDbSymbolTableRecord
100
AcDbTextStyleTableRecord
  2
Standard
 70
0
 40
0.0
 41
1.0
 50
0.0
 71
0
 42
2.5
  3

  4

1001
ACAD
1000
txt
1071
0
  0
ENDTAB
  0
TABLE
  2
VIEW
  5
6
100
AcDbSymbolTable
 70
0
  0
ENDTAB
  0
TABLE
  2
UCS
  5
7
100
AcDbSymbolTable
 70
0
  0
ENDTAB
  0
TABLE
  2
APPID
  5
9
100
AcDbSymbolTable
 70
1
  0
APPID
  5
12
100
AcDbSymbolTableRecord
100
AcDbRegAppTableRecord
  2
ACAD
 70
0
  0
APPID
  5
64
100
AcDbSymbolTableRecord
100
AcDbRegAppTableRecord
  2
QCAD
 70
0
  0
ENDTAB
  0
TABLE
  2
DIMSTYLE
  5
A
100
AcDbSymbolTable
 70
1
100
AcDbDimStyleTable
 71
0
  0
DIMSTYLE
105
27
100
AcDbSymbolTableRecord
100
AcDbDimStyleTableRecord
  2
Standard
 41
2.5
 42
0.625
 43
3.75
 44
1.25
 70
0
 73
0
 74
0
 77
1
 78
8
140
2.5
141
2.5
143
0.03937007874016
147
0.625
171
3
172
1
271
2
272
2
274
3
278
44
283
0
284
8
340
63
  0
ENDTAB
  0
TABLE
  2
BLOCK_RECORD
  5
1
100
AcDbSymbolTable
 70
1
  0
BLOCK_RECORD
  5
1F
100
AcDbSymbolTableRecord
100
AcDbBlockTableRecord
  2
*Model_Space
340
22
  0
BLOCK_RECORD
  5
1B
100
AcDbSymbolTableRecord
100
AcDbBlockTableRecord
  2
*Paper_Space
340
1E
  0
BLOCK_RECORD
  5
23
100
AcDbSymbolTableRecord
100
AcDbBlockTableRecord
  2
*Paper_Space0
340
26
  0
BLOCK_RECORD
  5
65
100
AcDbSymbolTableRecord
100
AcDbBlockTableRecord
  2
A$C32B96BB9
340
0
  0
BLOCK_RECORD
  5
66
100
AcDbSymbolTableRecord
100
AcDbBlockTableRecord
  2
$PAPER_SPACE
340
0
  0
BLOCK_RECORD
  5
67
100
AcDbSymbolTableRecord
100
AcDbBlockTableRecord
  2
$MODEL_SPACE
340
0
  0
ENDTAB
  0
ENDSEC
  0
SECTION
  2
BLOCKS
  0
BLOCK
  5
20
100
AcDbEntity
  8
0
100
AcDbBlockBegin
  2
*Model_Space
 70
0
 10
0.0
 20
0.0
 30
0.0
  3
*Model_Space
  1

  0
ENDBLK
  5
21
100
AcDbEntity
  8
0
100
AcDbBlockEnd
  0
BLOCK
  5
1C
100
AcDbEntity
 67
1
  8
0
100
AcDbBlockBegin
  2
*Paper_Space
 70
0
 10
0.0
 20
0.0
 30
0.0
  3
*Paper_Space
  1

  0
ENDBLK
  5
1D
100
AcDbEntity
 67
1
  8
0
100
AcDbBlockEnd
  0
BLOCK
  5
24
100
AcDbEntity
  8
0
100
AcDbBlockBegin
  2
*Paper_Space0
 70
0
 10
0.0
 20
0.0
 30
0.0
  3
*Paper_Space0
  1

  0
ENDBLK
  5
25
100
AcDbEntity
  8
0
100
AcDbBlockEnd
  0
BLOCK
  5
68
100
AcDbEntity
  8
0
100
AcDbBlockBegin
  2
A$C32B96BB9
 70
0
 10
0.0
 20
0.0
 30
0.0
  3
A$C32B96BB9
  1

  0
ENDBLK
  5
69
100
AcDbEntity
  8
0
100
AcDbBlockEnd
  0
BLOCK
  5
6A
100
AcDbEntity
  8
0
100
AcDbBlockBegin
  2
$PAPER_SPACE
 70
0
 10
0.0
 20
0.0
 30
0.0
  3
$PAPER_SPACE
  1

  0
ENDBLK
  5
6B
100
AcDbEntity
  8
0
100
AcDbBlockEnd
  0
BLOCK
  5
6C
100
AcDbEntity
  8
0
100
AcDbBlockBegin
  2
$MODEL_SPACE
 70
0
 10
0.0
 20
0.0
 30
0.0
  3
$MODEL_SPACE
  1

  0
ENDBLK
  5
6D
100
AcDbEntity
  8
0
100
AcDbBlockEnd
  0
ENDSEC
  0
SECTION
  2
ENTITIES
  0
CIRCLE
  5
6E
100
AcDbEntity
100
AcDbCircle
  8
0
 62
256
370
-1
 48
1.0
  6
ByLayer
 10
112.2999999999999
 20
19.749999999999972
 30
0.0
 40
6.0
  0
CIRCLE
  5
6F
100
AcDbEntity
100
AcDbCircle
  8
Corte exterior
 62
256
370
-1
 48
1.0
  6
ByLayer
 10
20.501257456827851
 20
114.5220432620558
 30
0.0
 40
8.0
  0
CIRCLE
  5
70
100
AcDbEntity
100
AcDbCircle
  8
Corte exterior
 62
256
370
-1
 48
1.0
  6
ByLayer
 10
46.501257456827837
 20
114.5220432620558
 30
0.0
 40
8.0
  0
CIRCLE
  5
71
100
AcDbEntity
100
AcDbCircle
  8
Corte exterior
 62
256
370
-1
 48
1.0
  6
ByLayer
 10
107.5
 20
54.5
 30
0.0
 40
5.0
  0
LINE
  5
72
100
AcDbEntity
100
AcDbLine
  8
mesa de trabajo y auxiliares
 62
256
370
-1
 48
1.0
  6
ByLayer
 10
0.0
 20
160.0
 30
0.0
 11
0.0
 21
0.0
 31
0.0
  0
LINE
  5
73
100
AcDbEntity
100
AcDbLine
  8
mesa de trabajo y auxiliares
 62
256
370
-1
 48
1.0
  6
ByLayer
 10
150.0
 20
160.0
 30
0.0
 11
0.0
 21
160.0
 31
0.0
  0
LINE
  5
74
100
AcDbEntity
100
AcDbLine
  8
mesa de trabajo y auxiliares
 62
256
370
-1
 48
1.0
  6
ByLayer
 10
150.0
 20
0.0
 30
0.0
 11
150.0
 21
160.0
 31
0.0
  0
LINE
  5
75
100
AcDbEntity
100
AcDbLine
  8
mesa de trabajo y auxiliares
 62
256
370
-1
 48
1.0
  6
ByLayer
 10
0.0
 20
0.0
 30
0.0
 11
150.0
 21
0.0
 31
0.0
  0
LINE
  5
76
100
AcDbEntity
100
AcDbLine
  8
mesa de trabajo y auxiliares
 62
256
370
-1
 48
1.0
  6
ACAD_ISO02W100
 10
1.0
 20
159.0
 30
0.0
 11
1.0
 21
1.0
 31
0.0
  0
LINE
  5
77
100
AcDbEntity
100
AcDbLine
  8
mesa de trabajo y auxiliares
 62
256
370
-1
 48
1.0
  6
ACAD_ISO02W100
 10
149.0
 20
159.0
 30
0.0
 11
1.0
 21
159.0
 31
0.0
  0
LINE
  5
78
100
AcDbEntity
100
AcDbLine
  8
mesa de trabajo y auxiliares
 62
256
370
-1
 48
1.0
  6
ACAD_ISO02W100
 10
149.0
 20
1.0
 30
0.0
 11
149.0
 21
159.0
 31
0.0
  0
LINE
  5
79
100
AcDbEntity
100
AcDbLine
  8
mesa de trabajo y auxiliares
 62
256
370
-1
 48
1.0
  6
ACAD_ISO02W100
 10
1.0
 20
1.0
 30
0.0
 11
149.0
 21
1.0
 31
0.0
  0
LINE
  5
7A
100
AcDbEntity
100
AcDbLine
  8
grabado linea medio
 62
256
370
-1
 48
1.0
  6
ByLayer
 10
25.77412129995162
 20
80.290643312634444
 30
0.0
 11
27.511248795800579
 21
84.196201297038286
 31
0.0
  0
LINE
  5
7B
100
AcDbEntity
100
AcDbLine
  8
Corte exterior
 62
256
370
-1
 48
1.0
  6
ByLayer
 10
0.0
 20
0.0
 30
0.0
 11
0.0
 21
0.0
 31
0.0
  0
ARC
  5
7C
100
AcDbEntity
  8
grabado linea medio
 62
256
370
-1
 48
1.0
  6
ByLayer
100
AcDbCircle
 10
21.805882086280992
 20
3.6989811070758631
 30
0.0
 40
19.751248572518101
100
AcDbArc
 50
67.078513213936048
 51
100.4318427268862
  0
ARC
  5
7D
100
AcDbEntity
  8
grabado linea medio
 62
256
370
-1
 48
1.0
  6
ByLayer
100
AcDbCircle
 10
45.201019972426309
 20
3.7006929822680941
 30
0.0
 40
19.751248572518101
100
AcDbArc
 50
79.576542196841956
 51
112.929871709792
  0
ARC
  5
7E
100
AcDbEntity
  8
grabado linea medio
 62
256
370
-1
 48
1.0
  6
ByLayer
100
AcDbCircle
 10
12.712251978630009
 20
31.025845287226371
 30
0.0
 40
8.5493536940663901
100
AcDbArc
 50
55.940217358358552
 51
85.026420849850965
  0
ARC
  5
7F
100
AcDbEntity
  8
grabado linea medio
 62
256
370
-1
 48
1.0
  6
ByLayer
100
AcDbCircle
 10
54.445830800736367
 20
30.588478614911281
 30
0.0
 40
9.0013177780765723
100
AcDbArc
 50
95.73019641592316
 51
123.3201420054552
  0
ARC
  5
80
100
AcDbEntity
  8
grabado linea medio
 62
256
370
-1
 48
1.0
  6
ByLayer
100
AcDbCircle
 10
54.249685477136751
 20
29.177390553547159
 30
0.0
 40
7.9937055139568702
100
AcDbArc
 50
90.679017526996503
 51
126.44286461198388
  0
ARC
  5
81
100
AcDbEntity
  8
grabado linea medio
 62
256
370
-1
 48
1.0
  6
ByLayer
100
AcDbCircle
 10
12.7528031808012
 20
29.175419659371109
 30
0.0
 40
7.9937055139568702
100
AcDbArc
 50
53.562577913421251
 51
89.326424998408811
  0
LINE
  5
82
100
AcDbEntity
100
AcDbLine
  8
grabado linea medio
 62
256
370
-1
 48
1.0
  6
ByLayer
 10
11.06299368780325
 20
50.003530080533878
 30
0.0
 11
3.7224958627075821
 21
48.181272079150808
 31
0.0
  0
LINE
  5
83
100
AcDbEntity
100
AcDbLine
  8
grabado linea medio
 62
256
370
-1
 48
1.0
  6
ByLayer
 10
14.996770059743691
 20
28.036553997831561
 30
0.0
 11
15.94512786482834
 21
36.493454149637301
 31
0.0
  0
LINE
  5
84
100
AcDbEntity
100
AcDbLine
  8
grabado linea medio
 62
256
370
-1
 48
1.0
  6
ByLayer
 10
52.005826789153311
 20
28.038311742759081
 30
0.0
 11
51.056665667505023
 21
36.495121771914782
 31
0.0
  0
LINE
  5
85
100
AcDbEntity
100
AcDbLine
  8
grabado linea medio
 62
256
370
-1
 48
1.0
  6
ByLayer
 10
17.00393141763157
 20
23.997585602977761
 30
0.0
 11
17.501257456827808
 21
33.678034017017687
 31
0.0
  0
LINE
  5
86
100
AcDbEntity
100
AcDbLine
  8
grabado linea medio
 62
256
370
-1
 48
1.0
  6
ByLayer
 10
50.0
 20
24.0
 30
0.0
 11
49.501257456827837
 21
33.678034017017687
 31
0.0
  0
ARC
  5
87
100
AcDbEntity
  8
grabado linea medio
 62
256
370
-1
 48
1.0
  6
ByLayer
100
AcDbCircle
 10
33.515430463044893
 20
104.59533781055541
 30
0.0
 40
12.422190845394081
100
AcDbArc
 50
238.48623431378039
 51
301.46750876777469
  0
ARC
  5
88
100
AcDbEntity
  8
grabado linea medio
 62
256
370
-1
 48
1.0
  6
ByLayer
100
AcDbCircle
 10
86.558327992949174
 20
105.6643127045897
 30
0.0
 40
27.455665989098652
100
AcDbArc
 50
164.66221466051641
 51
183.88471204775283
  0
ARC
  5
89
100
AcDbEntity
  8
grabado linea medio
 62
256
370
-1
 48
1.0
  6
ByLayer
100
AcDbCircle
 10
21.93092666325628
 20
67.214971761182213
 30
0.0
 40
9.9456273710943908
100
AcDbArc
 50
211.44626045332691
 51
243.53381683162661
  0
ARC
  5
8A
100
AcDbEntity
  8
grabado linea medio
 62
256
370
-1
 48
1.0
  6
ByLayer
100
AcDbCircle
 10
21.992662999757481
 20
67.255507594638345
 30
0.0
 40
10.0094980833378
100
AcDbArc
 50
350.93162283013322
 51
357.96273567230338
  0
ARC
  5
8B
100
AcDbEntity
  8
grabado linea medio
 62
256
370
-1
 48
1.0
  6
ByLayer
100
AcDbCircle
 10
45.006208472778283
 20
67.25660062284264
 30
0.0
 40
10.0094980833378
100
AcDbArc
 50
296.68456784988172
 51
328.77212422818121
  0
ARC
  5
8C
100
AcDbEntity
  8
grabado linea medio
 62
256
370
-1
 48
1.0
  6
ByLayer
100
AcDbCircle
 10
45.006208472778283
 20
67.25660062284264
 30
0.0
 40
10.0094980833378
100
AcDbArc
 50
182.04270685310141
 51
189.07381969527171
  0
ARC
  5
8D
100
AcDbEntity
  8
mesa de trabajo y auxiliares
 62
256
370
-1
 48
1.0
  6
ByLayer
100
AcDbCircle
 10
59.684436379391741
 20
147.4707743355454
 30
0.0
 40
5.09373993945335
100
AcDbArc
 50
132.53135308295839
 51
180.30937467927879
  0
ARC
  5
8E
100
AcDbEntity
  8
mesa de trabajo y auxiliares
 62
256
370
-1
 48
1.0
  6
ByLayer
100
AcDbCircle
 10
58.371069863498342
 20
148.0440142536236
 30
0.0
 40
5.8857648588856684
100
AcDbArc
 50
136.1522004968173
 51
176.68852726541749
  0
LINE
  5
8F
100
AcDbEntity
100
AcDbLine
  8
mesa de trabajo y auxiliares
 62
256
370
-1
 48
1.0
  6
ByLayer
 10
55.015998447489139
 20
149.5083890799844
 30
0.0
 11
110.3935341856354
 21
125.3379738411647
 31
0.0
  0
ARC
  5
90
100
AcDbEntity
  8
Corte exterior
 62
256
370
-1
 48
1.0
  6
ByLayer
100
AcDbCircle
 10
64.427463749296351
 20
82.974866975097385
 30
0.0
 40
1.6057962958169441
100
AcDbArc
 50
11.681706602569481
 51
28.155660686372531
  0
LINE
  5
91
100
AcDbEntity
100
AcDbLine
  8
Corte exterior
 62
256
370
-1
 48
1.0
  6
ByLayer
 10
108.2999999728431
 20
125.20001105437591
 30
0.0
 11
119.1393821534036
 21
125.2000081103659
 31
0.0
  0
LINE
  5
92
100
AcDbEntity
100
AcDbLine
  8
Corte exterior
 62
256
370
-1
 48
1.0
  6
ByLayer
 10
94.565128569661695
 20
125.2000147847112
 30
0.0
 11
107.2999999728431
 21
125.200011325888
 31
0.0
  0
CIRCLE
  5
93
100
AcDbEntity
100
AcDbCircle
  8
mesa de trabajo y auxiliares
 62
256
370
-1
 48
1.0
  6
ByLayer
 10
119.63938671188041
 20
141.9836662279572
 30
0.0
 40
15.83205499565525
  0
ARC
  5
94
100
AcDbEntity
  8
Corte exterior
 62
256
370
-1
 48
1.0
  6
ByLayer
100
AcDbCircle
 10
119.63938671188041
 20
141.9836662279572
 30
0.0
 40
16.783658253552261
100
AcDbArc
 50
271.706891866109
 51
268.293108133891
  0
LINE
  5
95
100
AcDbEntity
100
AcDbLine
  8
grabado linea medio
 62
256
370
-1
 48
1.0
  6
ByLayer
 10
55.938479562411779
 20
50.002775749229457
 30
0.0
 11
63.278916121125782
 21
48.18027096971857
 31
0.0
  0
CIRCLE
  5
96
100
AcDbEntity
100
AcDbCircle
  8
Corte exterior
 62
256
370
-1
 48
1.0
  6
ByLayer
 10
119.63938671188041
 20
141.9836662279572
 30
0.0
 40
1.5
  0
LWPOLYLINE
  5
97
  8
Corte exterior
 62
256
370
-1
 48
1.0
  6
ByLayer
100
AcDbEntity
100
AcDbPolyline
 90
29
 70
128
 10
8.7275445635369628
 20
30.741959036031481
 30
0.0
 42
0.037965487620957
 10
8.6917524743017651
 20
30.726190403543001
 30
0.0
 42
0.0318321899787642
 10
8.6580878185814516
 20
30.70592080210038
 30
0.0
 42
0.030726237673611
 10
8.6218253731276135
 20
30.67800108302081
 30
0.0
 42
0.0323085268797804
 10
8.5783339169696582
 20
30.635867807108291
 30
0.0
 42
0.0374521627881255
 10
8.5187111395731137
 20
30.561938487351661
 30
0.0
 42
0.0518232457048257
 10
8.4141283015831991
 20
30.382552901653568
 30
0.0
 42
0.1398619129344424
 10
8.8831750294881289
 20
19.571132421406968
 30
0.0
 42
0.0518232457048258
 10
9.002900736313725
 20
19.401478321888611
 30
0.0
 42
0.0374521627881255
 10
9.0687021944718929
 20
19.332990454288471
 30
0.0
 42
0.0323085268797804
 10
9.1156792222254808
 20
19.294782097070481
 30
0.0
 42
0.0307262376736109
 10
9.1542234254655064
 20
19.270107817742272
 30
0.0
 42
0.0318321899787642
 10
9.1895170556288726
 20
19.252829928481681
 30
0.0
 42
0.0379654876209571
 10
9.2265403160698227
 20
19.240220344479841
 30
0.0
 42
0.1551784095903883
 10
9.3704573417654942
 20
19.24646409479146
 30
0.0
 42
0.0379654876209571
 10
9.4062494310006954
 20
19.26223272727994
 30
0.0
 42
0.0318321899787642
 10
9.4399140867210072
 20
19.282502328722561
 30
0.0
 42
0.0307262376736109
 10
9.4761765321748452
 20
19.310422047802131
 30
0.0
 42
0.0323085268797804
 10
9.5196679883328024
 20
19.35255532371465
 30
0.0
 42
0.0374521627881254
 10
9.5792907657293505
 20
19.42648464347128
 30
0.0
 42
0.0518232457048258
 10
9.6838736037192508
 20
19.605870229169359
 30
0.0
 42
0.1398617463407227
 10
9.2148268758143281
 20
30.417290709415969
 30
0.0
 42
0.0518232457048258
 10
9.0951011689887409
 20
30.58694480893433
 30
0.0
 42
0.0374521627881255
 10
9.029299710830573
 20
30.65543267653447
 30
0.0
 42
0.0323085268797804
 10
8.9823226830769816
 20
30.69364103375246
 30
0.0
 42
0.0307262376736109
 10
8.9437784798369542
 20
30.718315313080652
 30
0.0
 42
0.0318321899787641
 10
8.9084848496735898
 20
30.73559320234126
 30
0.0
 42
0.0379654876209571
 10
8.8714615892326432
 20
30.748202786343079
 30
0.0
 42
0.1551785769225577
 10
8.7275445095862523
 20
30.74195901626096
 30
0.0
  0
ARC
  5
98
100
AcDbEntity
  8
grabado linea medio
 62
256
370
-1
 48
1.0
  6
ByLayer
100
AcDbCircle
 10
7.6195354320211299
 20
41.015531609096897
 30
0.0
 40
5.331923741582135
100
AcDbArc
 50
255.67473902651571
 51
298.79183768031203
  0
ARC
  5
99
100
AcDbEntity
  8
grabado linea medio
 62
256
370
-1
 48
1.0
  6
ByLayer
100
AcDbCircle
 10
-20.10253408947132
 20
25.85396537655512
 30
0.0
 40
33.021912776836039
100
AcDbArc
 50
5.373303658879462
 51
13.35025793718985
  0
LWPOLYLINE
  5
9A
  8
Corte exterior
 62
256
370
-1
 48
1.0
  6
ByLayer
100
AcDbEntity
100
AcDbPolyline
 90
5
 70
0
 10
65.668847514810849
 20
97.374616908408242
 30
0.0
 42
-0.1861268596836366
 10
60.080545240157001
 20
112.92658613657289
 30
0.0
 42
-0.0278744495338458
 10
61.05271498867971
 20
115.82685668635899
 30
0.0
 42
0.3297870337507804
 10
59.044603999101753
 20
139.89124363037169
 30
0.0
 42
0.0490435378009176
 10
55.24617272534261
 20
143.11114696249521
 30
0.0
  0
LWPOLYLINE
  5
9B
  8
Corte exterior
 62
256
370
-1
 48
1.0
  6
ByLayer
100
AcDbEntity
100
AcDbPolyline
 90
6
 70
0
 10
55.361720197198281
 20
143.26162384805679
 30
0.0
 42
0.0288950629027277
 10
55.96289008067756
 20
142.94960824709071
 30
0.0
 42
2.1986761058595961
 10
56.683371397454017
 20
144.2737302933937
 30
0.0
 42
-0.2485453691444978
 10
54.590770695670578
 20
147.44327027650539
 30
0.0
 10
99.197974099529745
 20
127.4191611943173
 30
0.0
 10
107.3460025015514
 20
125.77244757851879
 30
0.0
  0
LWPOLYLINE
  5
9C
  8
Corte exterior
 62
256
370
-1
 48
1.0
  6
ByLayer
100
AcDbEntity
100
AcDbPolyline
 90
15
 70
1
 10
11.99191684270755
 20
66.826028223479142
 30
0.0
 42
0.1259919818614821
 10
13.446015002601101
 20
62.026351721562882
 30
0.0
 42
-0.1135750138296379
 10
13.456864406631031
 20
39.542710961765472
 30
0.0
 42
-0.0226564265921439
 10
12.22361270444777
 20
35.12431920903596
 30
0.0
 10
12.027017846228039
 20
33.478833628017917
 30
0.0
 42
0.0696847214768402
 10
10.187543631358
 20
36.342765332662147
 30
0.0
 42
0.787674061661976
 10
10.08366623972994
 20
37.195984659040761
 30
0.0
 42
-0.4439617004359623
 10
8.6276391132341974
 20
38.700546023086389
 30
0.0
 42
-0.6368630238164649
 10
9.2828513201572793
 20
39.06455280471031
 30
0.0
 42
-0.1986789118698552
 10
10.132200477279801
 20
37.754128390864132
 30
0.0
 42
0.4604598763709788
 10
10.731870469626131
 20
37.312205891029137
 30
0.0
 42
0.0822407600225723
 10
10.89972475490257
 20
37.429540708700571
 30
0.0
 42
0.0881243381684981
 10
10.320024543774361
 20
41.380419291041171
 30
0.0
 42
0.0821489010381275
 10
10.900437357284201
 20
52.111362729881058
 30
0.0
 42
0.0692408903282059
 10
11.544423608886479
 20
66.648896333039971
 30
0.0
  0
LWPOLYLINE
  5
9D
  8
Corte exterior
 62
256
370
-1
 48
1.0
  6
ByLayer
100
AcDbEntity
100
AcDbPolyline
 90
18
 70
0
 10
33.000610768941712
 20
46.69860008162788
 30
0.0
 10
26.500610768941709
 20
46.69860008162788
 30
0.0
 10
26.500610768941709
 20
49.0986000816279
 30
0.0
 10
30.500610768941709
 20
49.0986000816279
 30
0.0
 10
30.500610768941709
 20
52.515916787150367
 30
0.0
 10
21.500610768941701
 20
52.515916787150367
 30
0.0
 10
21.500610768941701
 20
38.515916787150381
 30
0.0
 10
24.650610768941679
 20
38.515916787150381
 30
0.0
 10
24.650610768941679
 20
42.515916787150381
 30
0.0
 10
42.350610768941642
 20
42.515916787150381
 30
0.0
 10
42.350610768941642
 20
38.515916787150381
 30
0.0
 10
45.500610768941662
 20
38.515916787150381
 30
0.0
 10
45.500610768941662
 20
52.515916787150367
 30
0.0
 10
36.486996170963991
 20
52.515916787150367
 30
0.0
 10
36.486996170963991
 20
49.0986000816279
 30
0.0
 10
40.500610768941712
 20
49.0986000816279
 30
0.0
 10
40.500610768941712
 20
46.69860008162788
 30
0.0
 10
34.000610768941712
 20
46.69860008162788
 30
0.0
  0
LWPOLYLINE
  5
9E
  8
Corte exterior
 62
256
370
-1
 48
1.0
  6
ByLayer
100
AcDbEntity
100
AcDbPolyline
 90
21
 70
0
 10
108.3261854050412
 20
125.5743529655019
 30
0.0
 10
110.150245482275
 20
125.2057110785308
 30
0.0
 42
0.8377937928594033
 10
110.30593019146249
 20
125.6006682867971
 30
0.0
 10
101.2549472284025
 20
132.13195167933969
 30
0.0
 10
56.241101007870789
 20
151.22438967146019
 30
0.0
 42
-0.2485453691444976
 10
59.988046178343907
 20
151.84516603305599
 30
0.0
 42
2.1986761058595992
 10
60.469053895817382
 20
153.27381017946229
 30
0.0
 42
0.2994225565677652
 10
54.126358950776932
 20
152.12134882923999
 30
0.0
 42
0.3493052647839387
 10
51.854278030575848
 20
153.08504261957941
 30
0.0
 42
0.3360819016190948
 10
49.922715016929359
 20
153.90430713843989
 30
0.0
 42
0.3142638915373884
 10
48.163293903966071
 20
154.6505583771519
 30
0.0
 42
0.3897685582512765
 10
46.592450748565838
 20
155.3337753625394
 30
0.0
 42
0.6653781774095271
 10
40.920888653118737
 20
156.41043532358611
 30
0.0
 42
0.4172190515302667
 10
41.674689946073158
 20
151.94822463915719
 30
0.0
 42
0.1463202524451634
 10
43.095929021118529
 20
151.39523617141401
 30
0.0
 42
0.1563503709487135
 10
45.007757651018657
 20
151.7450709701024
 30
0.0
 42
0.3950247752579172
 10
46.585936299256339
 20
151.0366288577965
 30
0.0
 42
0.3142638915373883
 10
48.32946328147613
 20
150.25396211754759
 30
0.0
 42
0.3360819016190942
 10
50.243577081371839
 20
149.39471920160381
 30
0.0
 42
0.3493052647839385
 10
52.4951326418742
 20
148.3839991674441
 30
0.0
 42
0.2230046994888196
 10
54.549854402922143
 20
143.8433915913719
 30
0.0
  0
LWPOLYLINE
  5
9F
  8
Corte exterior
 62
256
370
-1
 48
1.0
  6
ByLayer
100
AcDbEntity
100
AcDbPolyline
 90
4
 70
0
 10
94.471057233157907
 20
125.2000148102609
 30
0.0
 10
65.999998647940004
 20
125.20002254297501
 30
0.0
 10
65.999993664445938
 20
97.508012460272582
 30
0.0
 10
65.9999889682354
 20
84.760047465232645
 30
0.0
  0
LWPOLYLINE
  5
A0
  8
Corte exterior
 62
256
370
-1
 48
1.0
  6
ByLayer
100
AcDbEntity
100
AcDbPolyline
 90
6
 70
0
 10
34.001257456827837
 20
65.678034017017666
 30
0.0
 10
49.501257456827851
 20
65.678034017017666
 30
0.0
 10
49.501257456827851
 20
33.678034017017687
 30
0.0
 10
17.501257456827808
 20
33.678034017017687
 30
0.0
 10
17.50125745682784
 20
65.678034017017666
 30
0.0
 10
33.001257456827837
 20
65.678034017017666
 30
0.0
  0
LWPOLYLINE
  5
A1
  8
Corte exterior
 62
256
370
-1
 48
1.0
  6
ByLayer
100
AcDbEntity
100
AcDbPolyline
 90
4
 70
1
 10
21.00125745682784
 20
26.0
 30
0.0
 10
31.00125745682784
 20
25.999999999999989
 30
0.0
 10
31.00125745682784
 20
28.899999999999999
 30
0.0
 10
21.00125745682784
 20
28.899999999999999
 30
0.0
  0
LWPOLYLINE
  5
A2
  8
Corte exterior
 62
256
370
-1
 48
1.0
  6
ByLayer
100
AcDbEntity
100
AcDbPolyline
 90
4
 70
1
 10
46.001257456827851
 20
28.899999999999999
 30
0.0
 10
36.001257456827851
 20
28.899999999999999
 30
0.0
 10
36.001257456827851
 20
26.0
 30
0.0
 10
46.001257456827851
 20
26.0
 30
0.0
  0
LWPOLYLINE
  5
A3
  8
Corte exterior
 62
256
370
-1
 48
1.0
  6
ByLayer
100
AcDbEntity
100
AcDbPolyline
 90
3
 70
1
 10
24.061269119378981
 20
78.722714967233699
 30
0.0
 42
0.3199861797224143
 10
25.774121299951631
 20
80.290643312634444
 30
0.0
 42
0.5079254153409716
 10
12.59672314312388
 20
77.318543629961283
 30
0.0
  0
LWPOLYLINE
  5
A4
  8
Corte exterior
 62
256
370
-1
 48
1.0
  6
ByLayer
100
AcDbEntity
100
AcDbPolyline
 90
81
 70
0
 10
54.412787098905412
 20
143.6637224660229
 30
0.0
 42
0.0034468730985938
 10
54.115366415484338
 20
143.84975522910591
 30
0.0
 42
0.3051472412943515
 10
6.688865874820177
 20
138.67054841305551
 30
0.0
 42
0.1704477221018741
 10
1.257292608482508
 20
127.04045996694251
 30
0.0
 42
0.1564067647593102
 10
3.3303971781724182
 20
115.6111664874695
 30
0.0
 42
-0.0735856112314173
 10
7.8024738560710052
 20
107.69248731392641
 30
0.0
 42
-0.2578824816345839
 10
4.9851244190048334
 20
92.320222613240588
 30
0.0
 42
0.2036736354846936
 10
1.5476718880007641
 20
85.551313358614166
 30
0.0
 42
0.2656719451611063
 10
6.338412512833572
 20
75.297606491848285
 30
0.0
 42
0.1995274585695553
 10
3.9954351038041671
 20
51.943373858277511
 30
0.0
 42
0.047715740597544
 10
3.8880599365349311
 20
40.905751207359089
 30
0.0
 42
0.0581131994625056
 10
3.9874250256871502
 20
38.837740419236681
 30
0.0
 42
0.0540192945379443
 10
4.5058287057693791
 20
36.976471026389362
 30
0.0
 42
0.2432669124505425
 10
6.3002777203936491
 20
35.849394766507558
 30
0.0
 42
0.1449446941142999
 10
7.3045950987743424
 20
13.125053139424811
 30
0.0
 42
0.3231827384907322
 10
11.10584178821321
 20
12.42364604077758
 30
0.0
 42
0.1622191051785149
 10
12.77427067013511
 20
28.946283639555791
 30
0.0
 10
14.99751366513927
 20
28.03560376072231
 30
0.0
 10
15.14740537958412
 20
24.897543689507199
 30
0.0
 10
17.00393141763157
 20
23.997585602977729
 30
0.0
 10
17.004077762157621
 20
22.997585613686098
 30
0.0
 10
18.229607500534641
 20
23.123761164022341
 30
0.0
 42
0.0419162829029267
 10
18.584605607540421
 20
14.06777497156591
 30
0.0
 42
-0.136315025755556
 10
18.621565526981641
 20
6.977799748692278
 30
0.0
 42
-0.2850681196487832
 10
17.166254146678408
 20
4.9129529266619372
 30
0.0
 10
11.964084049922111
 20
3.0041645818597882
 30
0.0
 42
0.9885826959101216
 10
12.00729739527282
 20
0.996854126639718
 30
0.0
 10
21.506039836729041
 20
0.9982442156154007
 30
0.0
 10
21.505454458624811
 20
4.9982441727819511
 30
0.0
 10
24.501257456827801
 20
4.9986825921566043
 30
0.0
 10
24.506039666729169
 20
0.9996253739223791
 30
0.0
 42
0.2910903437508425
 10
27.92095729531437
 20
2.5856191549651242
 30
0.0
 42
0.1379565086925289
 10
28.24076859641568
 20
12.610143415364631
 30
0.0
 42
-0.0438745783231173
 10
29.498388647014949
 20
21.890659506459269
 30
0.0
 42
0.0791600309926969
 10
37.505851241513348
 20
21.891245430618248
 30
0.0
 42
-0.0391710686233583
 10
38.779221190569842
 20
12.85837415641689
 30
0.0
 42
0.1178249239916641
 10
38.89030528607077
 20
2.898901950419388
 30
0.0
 42
0.3108722510931681
 10
42.501257456827808
 20
0.9999999999999978
 30
0.0
 10
42.501257456827837
 20
5.0
 30
0.0
 10
45.501257456827837
 20
5.0
 30
0.0
 10
45.501257456827837
 20
1.0
 30
0.0
 10
55.038262631609442
 20
1.0004012992930931
 30
0.0
 42
0.6362812991276095
 10
55.721509684443831
 20
2.7552163370449181
 30
0.0
 10
49.822187197667468
 20
4.8759622219791741
 30
0.0
 42
-0.2620840621808047
 10
48.735267719327709
 20
5.9167126829810313
 30
0.0
 42
-0.1162271443338147
 10
47.971903697977112
 20
11.579821453021379
 30
0.0
 42
0.0579866019748405
 10
48.774451809645242
 20
23.125996199416281
 30
0.0
 10
50.0
 20
23.0
 30
0.0
 10
50.0
 20
24.0
 30
0.0
 10
51.856394314227423
 20
24.90022976931553
 30
0.0
 10
52.005826789153311
 20
28.038311742759081
 30
0.0
 42
-0.1339482807852097
 10
55.453374333301888
 20
29.099227164079711
 30
0.0
 10
54.806566029506982
 20
35.040565465871872
 30
0.0
 42
-0.0174709231684327
 10
53.83346809760652
 20
38.363136463043361
 30
0.0
 42
-0.1198536177349791
 10
53.565451662648691
 20
62.06724537416288
 30
0.0
 42
0.1261812861616851
 10
55.006472478277182
 20
66.826749834002655
 30
0.0
 10
55.457609239812662
 20
66.648158177451322
 30
0.0
 42
0.0689460700744675
 10
56.101106755766523
 20
52.110602932427327
 30
0.0
 42
0.081638519950985
 10
56.681158806879608
 20
41.379639986835301
 30
0.0
 42
0.086026842614919
 10
56.095739405917762
 20
37.434300342404043
 30
0.0
 42
0.3550568073776521
 10
56.887948865494721
 20
37.352347639689249
 30
0.0
 42
0.1607491496402542
 10
57.710427561789821
 20
39.454247649783269
 30
0.0
 10
58.076039396191838
 20
38.472273928844487
 30
0.0
 42
-0.3642097642061433
 10
57.692693367011579
 20
37.503523192377664
 30
0.0
 42
0.0507176173361633
 10
56.863853501989183
 20
36.94038559544294
 30
0.0
 42
0.4470519489142212
 10
56.939420173307113
 20
36.212131597498662
 30
0.0
 42
0.2501501386726704
 10
62.091870769776783
 20
36.426602338365782
 30
0.0
 42
0.1669764251932209
 10
62.434172904776332
 20
36.82641659036792
 30
0.0
 42
0.1174509297651414
 10
63.111597255751271
 20
40.926643972901523
 30
0.0
 42
0.0480134383335886
 10
63.000000000000249
 20
52.00000000000049
 30
0.0
 42
0.1009997950716502
 10
62.999999999999979
 20
71.999999999999929
 30
0.0
 42
0.265564437074639
 10
57.0
 20
77.000000000000014
 30
0.0
 10
42.941169644393689
 20
78.722397606881785
 30
0.0
 42
-0.2401336341844821
 10
41.435196582708713
 20
79.737831711169179
 30
0.0
 42
-0.1733082775369985
 10
44.727249276872662
 20
82.480881280353657
 30
0.0
 42
-0.0349336454869536
 10
45.26351257981274
 20
82.636034777381099
 30
0.0
 42
0.1706690248634212
 10
47.525788204936198
 20
84.022658392146894
 30
0.0
 42
-0.4327385417503606
 10
55.862506723574221
 20
84.616748611278979
 30
0.0
 42
0.2413560126444313
 10
63.910399203763703
 20
80.894239020276018
 30
0.0
 42
-0.0191129593793262
 10
64.368941615611931
 20
80.895245650264613
 30
0.0
 42
0.3060419841702149
 10
65.893759994652484
 20
81.846892071132302
 30
0.0
  0
LWPOLYLINE
  5
A5
  8
Corte exterior
 62
256
370
-1
 48
1.0
  6
ByLayer
100
AcDbEntity
100
AcDbPolyline
 90
4
 70
0
 10
65.543106941030558
 20
84.079273821776852
 30
0.0
 42
0.0686836414236234
 10
61.362578168686277
 20
94.756160445929851
 30
0.0
 42
-0.0853998111522767
 10
59.165744375210309
 20
103.80421656456529
 30
0.0
 42
0.2835739131375346
 10
65.513289503615709
 20
97.114251260895585
 30
0.0
  0
LWPOLYLINE
  5
A6
  8
grabado linea medio
 62
256
370
-1
 48
1.0
  6
ByLayer
100
AcDbEntity
100
AcDbPolyline
 90
3
 70
0
 10
58.334161780934458
 20
125.0980311118639
 30
0.0
 42
0.0710678118654745
 10
33.498330116473042
 20
123.1555204177025
 30
0.0
 42
0.0710678118654747
 10
8.6646736693807718
 20
125.0893873909578
 30
0.0
  0
LWPOLYLINE
  5
A7
  8
grabado linea medio
 62
256
370
-1
 48
1.0
  6
ByLayer
100
AcDbEntity
100
AcDbPolyline
 90
3
 70
0
 10
9.0234953516159688
 20
127.3625521405279
 30
0.0
 42
0.1114198958068457
 10
33.496170007044128
 20
131.78689152191041
 30
0.0
 42
0.1114198958068463
 10
57.977937068087073
 20
127.3712180321574
 30
0.0
  0
LINE
  5
A8
100
AcDbEntity
100
AcDbLine
  8
0
 62
256
370
-1
 48
1.0
  6
ByLayer
 10
124.00000059754549
 20
28.200006790268631
 30
0.0
 11
149.0
 21
28.200006790268631
 31
0.0
  0
LINE
  5
A9
100
AcDbEntity
100
AcDbLine
  8
0
 62
256
370
-1
 48
1.0
  6
ByLayer
 10
124.00000059754549
 20
125.2000067902686
 30
0.0
 11
124.00000059754549
 21
28.200006790268631
 31
0.0
  0
LWPOLYLINE
  5
AA
  8
0
 62
256
370
-1
 48
1.0
  6
ByLayer
100
AcDbEntity
100
AcDbPolyline
 90
8
 70
1
 10
104.5999999999998
 20
29.499999999999972
 30
0.0
 10
104.5999999999998
 20
10.0
 30
0.0
 10
120.0
 20
10.0
 30
0.0
 10
120.0
 20
29.499999999999972
 30
0.0
 10
117.3
 20
29.499999999999972
 30
0.0
 10
117.3
 20
46.199999999999932
 30
0.0
 10
107.2999999999999
 20
46.19999999999996
 30
0.0
 10
107.2999999999999
 20
29.499999999999972
 30
0.0
  0
LWPOLYLINE
  5
AB
  8
0
 62
256
370
-1
 48
1.0
  6
ByLayer
100
AcDbEntity
100
AcDbPolyline
 90
4
 70
0
 10
83.600000597545403
 20
125.2000067902686
 30
0.0
 10
83.600000597545403
 20
78.500006790268614
 30
0.0
 10
101.6000005975455
 20
78.500006790268614
 30
0.0
 10
101.6000005975455
 20
125.2000067902686
 30
0.0
  0
LWPOLYLINE
  5
AC
  8
grabado linea medio
 62
256
370
-1
 48
1.0
  6
ByLayer
100
AcDbEntity
100
AcDbPolyline
 90
3
 70
0
 10
18.176051483458039
 20
20.705703703200911
 30
0.0
 10
19.66743584378419
 20
18.204425307324161
 30
0.0
 10
28.578328663363269
 20
16.596166159512851
 30
0.0
  0
LWPOLYLINE
  5
AD
  8
grabado linea medio
 62
256
370
-1
 48
1.0
  6
ByLayer
100
AcDbEntity
100
AcDbPolyline
 90
3
 70
0
 10
48.828361695621489
 20
20.707946602118291
 30
0.0
 10
47.337343399667027
 20
18.206449977088749
 30
0.0
 10
38.426686035431771
 20
16.596886786112769
 30
0.0
  0
LWPOLYLINE
  5
AE
  8
grabado linea medio
 62
256
370
-1
 48
1.0
  6
ByLayer
100
AcDbEntity
100
AcDbPolyline
 90
3
 70
0
 10
18.196838427384961
 20
19.169984098889842
 30
0.0
 10
19.666329841578751
 20
16.70513574246565
 30
0.0
 10
28.409585615699012
 20
15.126668491634829
 30
0.0
  0
LWPOLYLINE
  5
AF
  8
grabado linea medio
 62
256
370
-1
 48
1.0
  6
ByLayer
100
AcDbEntity
100
AcDbPolyline
 90
3
 70
0
 10
48.806600671315842
 20
19.171437909364169
 30
0.0
 10
47.337343399667027
 20
16.706449977088742
 30
0.0
 10
38.594237603577298
 20
15.127152211619951
 30
0.0
  0
LWPOLYLINE
  5
B0
  8
grabado linea medio
 62
256
370
-1
 48
1.0
  6
ByLayer
100
AcDbEntity
100
AcDbPolyline
 90
5
 70
0
 10
23.165880364903359
 20
33.678034017017687
 30
0.0
 10
31.625839807289349
 20
30.798389997731569
 30
0.0
 10
33.501254858620513
 20
28.954704867205251
 30
0.0
 10
35.376494769862603
 20
30.798568135066532
 30
0.0
 10
43.833297343066491
 20
33.67803401701768
 30
0.0
  0
LWPOLYLINE
  5
B1
  8
grabado linea medio
 62
256
370
-1
 48
1.0
  6
ByLayer
100
AcDbEntity
100
AcDbPolyline
 90
6
 70
0
 10
30.51026547831524
 20
33.678034017017687
 30
0.0
 10
31.625602332319868
 20
33.29838998645269
 30
0.0
 10
33.501136126680322
 20
31.45458812189608
 30
0.0
 10
35.376494769862603
 20
33.298568135066532
 30
0.0
 10
36.465002966307203
 20
33.678034017017687
 30
0.0
 10
36.465002966307203
 20
33.678034017017687
 30
0.0
  0
LWPOLYLINE
  5
B2
  8
grabado linea medio
 62
256
370
-1
 48
1.0
  6
ByLayer
100
AcDbEntity
100
AcDbPolyline
 90
3
 70
0
 10
11.991916842707541
 20
66.826028223479156
 30
0.0
 10
20.325255799785442
 20
70.124625769975268
 30
0.0
 10
33.50097165120814
 20
66.484954275087134
 30
0.0
  0
LWPOLYLINE
  5
B3
  8
grabado linea medio
 62
256
370
-1
 48
1.0
  6
ByLayer
100
AcDbEntity
100
AcDbPolyline
 90
3
 70
0
 10
55.006472478277189
 20
66.826749834002641
 30
0.0
 10
46.676893903932111
 20
70.124182813979189
 30
0.0
 10
33.501055698354328
 20
66.484954273674362
 30
0.0
  0
LWPOLYLINE
  5
B4
  8
grabado linea medio
 62
256
370
-1
 48
1.0
  6
ByLayer
100
AcDbEntity
100
AcDbPolyline
 90
7
 70
0
 10
11.54442360888666
 20
66.648896333037911
 30
0.0
 42
0.0113463973763603
 10
11.26573902081878
 20
69.038550941752746
 30
0.0
 10
20.325339846931641
 20
72.624625768562495
 30
0.0
 10
33.501055698354321
 20
68.984954273674362
 30
0.0
 10
46.676893903932111
 20
72.624182813979203
 30
0.0
 10
55.736374165183221
 20
69.037803415757992
 30
0.0
 42
0.0113463973763602
 10
55.457609239812641
 20
66.648158177451364
 30
0.0
  0
LWPOLYLINE
  5
B5
  8
grabado linea medio
 62
256
370
-1
 48
1.0
  6
ByLayer
100
AcDbEntity
100
AcDbPolyline
 90
3
 70
0
 10
39.491813414195917
 20
84.195011860266277
 30
0.0
 10
41.228370176750133
 20
80.29038353553149
 30
0.0
 42
0.0741545510485637
 10
41.435196582708713
 20
79.737831711169179
 30
0.0
  0
LWPOLYLINE
  5
B6
  8
grabado linea medio
 62
256
370
-1
 48
1.0
  6
ByLayer
100
AcDbEntity
100
AcDbPolyline
 90
3
 70
0
 10
12.59672314312388
 20
77.318543629961283
 30
0.0
 10
10.002380866676139
 20
77.000790003153313
 30
0.0
 42
0.1305202039157558
 10
6.3384125128335507
 20
75.297606491848271
 30
0.0
  0
LWPOLYLINE
  5
B7
  8
grabado linea medio
 62
256
370
-1
 48
1.0
  6
ByLayer
100
AcDbEntity
100
AcDbPolyline
 90
3
 70
0
 10
63.013672839427088
 20
38.836748221700738
 30
0.0
 10
61.0
 20
42.0
 30
0.0
 10
56.379043753952857
 20
42.924191249209422
 30
0.0
  0
LWPOLYLINE
  5
B8
  8
grabado linea medio
 62
256
370
-1
 48
1.0
  6
ByLayer
100
AcDbEntity
100
AcDbPolyline
 90
3
 70
0
 10
3.987425025687148
 20
38.837740419236681
 30
0.0
 10
6.0012042088901154
 20
42.000924498366132
 30
0.0
 10
10.62219152258071
 20
42.924960395779273
 30
0.0
  0
LWPOLYLINE
  5
B9
  8
grabado linea medio
 62
256
370
-1
 48
1.0
  6
ByLayer
100
AcDbEntity
100
AcDbPolyline
 90
9
 70
1
 10
9.8916386415633308
 20
131.1987850125559
 30
0.0
 42
0.2544961232469029
 10
20.10722810662973
 20
88.2079985433122
 30
0.0
 42
0.0462068663451918
 10
20.377982913098599
 20
87.957489117362044
 30
0.0
 42
0.1494164964727655
 10
33.5067340501354
 20
83.051847828926483
 30
0.0
 42
0.1494164964727678
 10
46.633776985898677
 20
87.962058275707776
 30
0.0
 42
0.046206866345191
 10
46.904444586283716
 20
88.212661922564124
 30
0.0
 42
0.2544961232469034
 10
57.110576720248112
 20
131.19920908640549
 30
0.0
 42
-0.2760594857323226
 10
39.466854274354063
 20
134.48973680986009
 30
0.0
 42
-0.3016184009786626
 10
27.535301980104961
 20
134.48962965249351
 30
0.0
 42
-0.2760594857323233
  0
LWPOLYLINE
  5
BA
  8
grabado linea medio
 62
256
370
-1
 48
1.0
  6
ByLayer
100
AcDbEntity
100
AcDbPolyline
 90
10
 70
1
 10
31.657898479601091
 20
125.317034380092
 30
0.0
 10
33.501151970874297
 20
126.267485033843
 30
0.0
 10
35.344422533867593
 20
125.3170674888089
 30
0.0
 10
34.54552171142646
 20
127.26995748550981
 30
0.0
 10
36.0
 20
129.0
 30
0.0
 10
34.255960739123452
 20
129.0
 30
0.0
 10
33.501112788827093
 20
130.63025029894641
 30
0.0
 10
32.746179125219761
 20
128.9997380722551
 30
0.0
 10
30.99747601916977
 20
128.99912943694881
 30
0.0
 10
32.456039975501611
 20
127.268168230923
 30
0.0
  0
LWPOLYLINE
  5
BB
  8
grabado linea medio
 62
256
370
-1
 48
1.0
  6
ByLayer
100
AcDbEntity
100
AcDbPolyline
 90
3
 70
1
 10
26.804193043252649
 20
122.2943710524612
 30
0.0
 42
0.1262633819805117
 10
12.515513330732221
 20
123.43412336551501
 30
0.0
 42
0.1440719363627644
 10
11.7571450415837
 20
123.8506890577527
 30
0.0
 42
-0.1272175468667087
  0
LWPOLYLINE
  5
BC
  8
grabado linea medio
 62
256
370
-1
 48
1.0
  6
ByLayer
100
AcDbEntity
100
AcDbPolyline
 90
3
 70
1
 10
55.245202307204551
 20
123.851079624517
 30
0.0
 42
0.1440719363627637
 10
54.486841500541317
 20
123.43450031051709
 30
0.0
 42
0.1262633819805115
 10
40.198182262584353
 20
122.2944913440391
 30
0.0
 42
-0.1272175468667087
  0
LWPOLYLINE
  5
BD
  8
grabado linea medio
 62
256
370
-1
 48
1.0
  6
ByLayer
100
AcDbEntity
100
AcDbPolyline
 90
3
 70
0
 10
49.610294452427027
 20
121.8931957472507
 30
0.0
 42
0.0990195135927849
 10
58.00000000000005
 20
123.0
 30
0.0
 42
0.1613990032446318
 10
54.501257453440211
 20
114.5224204645599
 30
0.0
  0
LWPOLYLINE
  5
BE
  8
grabado linea medio
 62
256
370
-1
 48
1.0
  6
ByLayer
100
AcDbEntity
100
AcDbPolyline
 90
3
 70
0
 10
12.501257456827849
 20
114.5220432620558
 30
0.0
 42
0.1613990032446322
 10
9.0023626363452731
 20
122.9995599516307
 30
0.0
 42
0.0990195135927854
 10
17.39208806300941
 20
121.89290639515239
 30
0.0
  0
LWPOLYLINE
  5
BF
  8
grabado linea medio
 62
256
370
-1
 48
1.0
  6
ByLayer
100
AcDbEntity
100
AcDbPolyline
 90
4
 70
1
 10
32.399999999999999
 20
94.799999999999997
 30
0.0
 42
0.2902496946367435
 10
34.631081766777527
 20
94.787669110879463
 30
0.0
 42
0.1006670050424401
 10
40.0
 20
93.999999999999986
 30
0.0
 42
-0.0999971457853641
 10
27.02230904765652
 20
94.005238675776269
 30
0.0
 42
0.0888151188251421
  0
LWPOLYLINE
  5
C0
  8
grabado linea medio
 62
256
370
-1
 48
1.0
  6
ByLayer
100
AcDbEntity
100
AcDbPolyline
 90
4
 70
0
 10
33.538020190310959
 20
106.423199846377
 30
0.0
 42
0.0444511372822076
 10
34.20303014264352
 20
103.6482638988814
 30
0.0
 42
0.083446106055964
 10
35.077559608512331
 20
102.010910598704
 30
0.0
 42
-0.6053156065576052
 10
33.983110937262367
 20
99.634363175806769
 30
0.0
  0
LWPOLYLINE
  5
C1
  8
mesa de trabajo y auxiliares
 62
256
370
-1
 48
1.0
  6
ByLayer
100
AcDbEntity
100
AcDbPolyline
 90
3
 70
0
 10
99.197974099529645
 20
127.4191611943173
 30
0.0
 10
99.252233019668793
 20
130.200773745361
 30
0.0
 10
101.2549472284025
 20
132.13195167933969
 30
0.0
  0
LWPOLYLINE
  5
C2
  8
0
 62
256
370
-1
 48
1.0
  6
ByLayer
100
AcDbEntity
100
AcDbPolyline
 90
8
 70
1
 10
96.499999999999986
 20
63.999999999999972
 30
0.0
 10
86.500000000000028
 20
63.999999999999972
 30
0.0
 10
86.500000000000014
 20
47.69999999999996
 30
0.0
 10
83.000000000000014
 20
47.69999999999996
 30
0.0
 10
83.000000000000014
 20
9.999999999999984
 30
0.0
 10
100.0
 20
9.999999999999984
 30
0.0
 10
100.0
 20
47.69999999999996
 30
0.0
 10
96.500000000000057
 20
47.69999999999996
 30
0.0
  0
LWPOLYLINE
  5
C3
  8
mesa de trabajo y auxiliares
 62
256
370
-1
 48
1.0
  6
ByLayer
100
AcDbEntity
100
AcDbPolyline
 90
48
 70
1
 10
122.9968865190752
 20
129.51958194246441
 30
0.0
 10
120.4962347347887
 20
135.1745697632623
 30
0.0
 10
119.65325236561
 20
126.1516173040466
 30
0.0
 10
118.7919930183817
 20
135.17338670886991
 30
0.0
 10
116.31502469536601
 20
129.51070269821261
 30
0.0
 10
116.976890634554
 20
135.65839170125849
 30
0.0
 10
111.73537025829501
 20
128.26577683902781
 30
0.0
 10
115.50038248676
 20
136.50948800430399
 30
0.0
 10
110.5239229893306
 20
132.8439439589788
 30
0.0
 10
114.17096020808999
 20
137.83706584058871
 30
0.0
 10
105.93536297668059
 20
134.05563375763199
 30
0.0
 10
113.3178147947286
 20
139.31239093399009
 30
0.0
 10
107.1753024263876
 20
138.62616642076239
 30
0.0
 10
112.8302902471856
 20
141.12681820504881
 30
0.0
 10
103.8073377879698
 20
141.96980057422761
 30
0.0
 10
112.8291071927931
 20
142.83105992145599
 30
0.0
 10
107.1664231821358
 20
145.3080282444715
 30
0.0
 10
113.3141121851817
 20
144.64616230528361
 30
0.0
 10
105.921497322951
 20
149.8876826815426
 30
0.0
 10
114.16520848822729
 20
146.1226704530776
 30
0.0
 10
110.499664442902
 20
151.09912995050701
 30
0.0
 10
115.492786324512
 20
147.4520927317476
 30
0.0
 10
111.7113542415553
 20
155.68768996315711
 30
0.0
 10
116.96811141791341
 20
148.305238145109
 30
0.0
 10
116.28188690468561
 20
154.44775051344999
 30
0.0
 10
118.7825386889721
 20
148.79276269265199
 30
0.0
 10
119.6255210581508
 20
157.81571515186781
 30
0.0
 10
120.48678040537921
 20
148.7939457470444
 30
0.0
 10
122.9637487283948
 20
154.45662975770171
 30
0.0
 10
122.3018827892068
 20
148.30894075465579
 30
0.0
 10
127.5434031654658
 20
155.70155561688659
 30
0.0
 10
123.76393362317749
 20
147.42618933015169
 30
0.0
 10
129.0
 20
151.0
 30
0.0
 10
125.1078132156708
 20
146.1302666153255
 30
0.0
 10
133.3434104470802
 20
149.91169869828241
 30
0.0
 10
125.96095862903231
 20
144.6549415219242
 30
0.0
 10
132.10347099737319
 20
145.34116603515201
 30
0.0
 10
126.44848317657529
 20
142.8405142508654
 30
0.0
 10
135.47143563579101
 20
141.99753188168671
 30
0.0
 10
126.44966623096769
 20
141.13627253445841
 30
0.0
 10
132.11235024162499
 20
138.65930421144279
 30
0.0
 10
125.9646612385791
 20
139.32117015063079
 30
0.0
 10
133.3572761008098
 20
134.07964977437169
 30
0.0
 10
125.1135649355336
 20
137.8446620028368
 30
0.0
 10
128.77910898085881
 20
132.8682025054074
 30
0.0
 10
123.7859870992489
 20
136.5152397241668
 30
0.0
 10
127.5674191822056
 20
128.27964249275729
 30
0.0
 10
122.3106620058474
 20
135.66209431080529
 30
0.0
  0
LWPOLYLINE
  5
C4
  8
Corte exterior
 62
256
370
-1
 48
1.0
  6
ByLayer
100
AcDbEntity
100
AcDbPolyline
 90
24
 70
0
 10
120.1393821534035
 20
125.20000783885411
 30
0.0
 10
149.0
 20
125.2
 30
0.0
 10
149.0
 20
31.200006790268642
 30
0.0
 10
149.0
 20
12.300006790268631
 30
0.0
 10
137.19999999999999
 20
12.300006790268631
 30
0.0
 10
137.19999654577671
 20
9.2031205245956933
 30
0.0
 10
148.9999965457767
 20
9.2031205245956933
 30
0.0
 10
149.0
 20
4.4999999999999991
 30
0.0
 10
120.0999864529833
 20
4.507653201770073
 30
0.0
 10
120.0999864529833
 20
1.007653201770077
 30
0.0
 10
110.0499864529833
 20
1.007653201770075
 30
0.0
 10
110.0499864529833
 20
4.507653201770073
 30
0.0
 10
105.0499864529833
 20
4.507653201770073
 30
0.0
 10
105.0499864529833
 20
1.007653201770077
 30
0.0
 10
94.999986452983308
 20
1.007653201770077
 30
0.0
 10
94.999986452983151
 20
4.5011865497010843
 30
0.0
 10
65.999972577016862
 20
4.5095618544267531
 30
0.0
 10
65.999973952861581
 20
9.3000064646398908
 30
0.0
 10
77.799975143825421
 20
9.3000064646398908
 30
0.0
 10
77.799975143825449
 20
12.300006790268579
 30
0.0
 10
65.99997481447997
 20
12.3000072326808
 30
0.0
 10
65.999978598048671
 20
31.29689273031283
 30
0.0
 10
65.999988833585931
 20
77.708931635291151
 30
0.0
 10
65.999988811840893
 20
83.76004746523266
 30
0.0
  0
ENDSEC
  0
SECTION
  2
OBJECTS
  0
DICTIONARY
  5
C
100
AcDbDictionary
280
0
281
1
  3
ACAD_GROUP
350
D
  3
ACAD_LAYOUT
350
1A
  3
ACAD_MLINESTYLE
350
17
  3
ACAD_PLOTSETTINGS
350
19
  3
ACAD_PLOTSTYLENAME
350
E
  3
AcDbVariableDictionary
350
C5
  3
QCAD_OBJECTS
350
C6
  0
DICTIONARY
  5
D
100
AcDbDictionary
280
0
281
1
  0
ACDBDICTIONARYWDFLT
  5
E
100
AcDbDictionary
281
1
  3
Normal
350
F
100
AcDbDictionaryWithDefault
340
F
  0
ACDBPLACEHOLDER
  5
F
  0
DICTIONARY
  5
17
100
AcDbDictionary
280
0
281
1
  3
Standard
350
18
  0
MLINESTYLE
  5
18
100
AcDbMlineStyle
  2
STANDARD
 70
0
  3

 62
256
 51
90.0
 52
90.0
 71
2
 49
0.5
 62
256
  6
BYLAYER
 49
-0.5
 62
256
  6
BYLAYER
  0
DICTIONARY
  5
19
100
AcDbDictionary
280
0
281
1
  0
DICTIONARY
  5
1A
100
AcDbDictionary
281
1
  3
Layout1
350
1E
  3
Layout2
350
26
  3
Model
350
22
  0
LAYOUT
  5
1E
100
AcDbPlotSettings
  1

  2
none_device
  4

  6

 40
0.0
 41
0.0
 42
0.0
 43
0.0
 44
0.0
 45
0.0
 46
0.0
 47
0.0
 48
0.0
 49
0.0
140
0.0
141
0.0
142
1.0
143
1.0
 70
688
 72
0
 73
0
 74
5
  7

 75
16
147
1.0
148
0.0
149
0.0
100
AcDbLayout
  1
Layout1
 70
1
 71
1
 10
0.0
 20
0.0
 11
420.0
 21
297.0
 12
0.0
 22
0.0
 32
0.0
 14
100000000000000000000.0
 24
100000000000000000000.0
 34
100000000000000000000.0
 15
-100000000000000000000.0
 25
-100000000000000000000.0
 35
-100000000000000000000.0
146
0.0
 13
0.0
 23
0.0
 33
0.0
 16
1.0
 26
0.0
 36
0.0
 17
0.0
 27
1.0
 37
0.0
 76
0
330
1B
  0
LAYOUT
  5
22
100
AcDbPlotSettings
  1

  2
none_device
  4

  6

 40
0.0
 41
0.0
 42
0.0
 43
0.0
 44
0.0
 45
0.0
 46
0.0
 47
0.0
 48
0.0
 49
0.0
140
0.0
141
0.0
142
1.0
143
1.0
 70
1712
 72
0
 73
0
 74
0
  7

 75
0
147
1.0
148
0.0
149
0.0
100
AcDbLayout
  1
Model
 70
1
 71
0
 10
0.0
 20
0.0
 11
12.0
 21
9.0
 12
0.0
 22
0.0
 32
0.0
 14
0.0
 24
0.0
 34
0.0
 15
0.0
 25
0.0
 35
0.0
146
0.0
 13
0.0
 23
0.0
 33
0.0
 16
1.0
 26
0.0
 36
0.0
 17
0.0
 27
1.0
 37
0.0
 76
0
330
1F
  0
LAYOUT
  5
26
100
AcDbPlotSettings
  1

  2
none_device
  4

  6

 40
0.0
 41
0.0
 42
0.0
 43
0.0
 44
0.0
 45
0.0
 46
0.0
 47
0.0
 48
0.0
 49
0.0
140
0.0
141
0.0
142
1.0
143
1.0
 70
688
 72
0
 73
0
 74
5
  7

 75
16
147
1.0
148
0.0
149
0.0
100
AcDbLayout
  1
Layout2
 70
1
 71
2
 10
0.0
 20
0.0
 11
12.0
 21
9.0
 12
0.0
 22
0.0
 32
0.0
 14
0.0
 24
0.0
 34
0.0
 15
0.0
 25
0.0
 35
0.0
146
0.0
 13
0.0
 23
0.0
 33
0.0
 16
1.0
 26
0.0
 36
0.0
 17
0.0
 27
1.0
 37
0.0
 76
0
330
23
  0
DICTIONARY
  5
C5
100
AcDbDictionary
281
1
  3
DIMASSOC
350
C8
  3
HIDETEXT
350
C7
  0
DICTIONARYVAR
  5
C7
100
DictionaryVariables
280
0
  1
2
  0
DICTIONARYVAR
  5
C8
100
DictionaryVariables
280
0
  1
1
  0
DICTIONARY
  5
C6
100
AcDbDictionary
281
1
  3
ACAD_CIP_PREVIOUS_PRODUCT_INFO
350
C9
  3
ColorSettings/BackgroundColor
350
CA
  3
ColorSettings/ColorMode
350
CB
  3
Grid/DisplayGrid00
350
CC
  3
Grid/DisplayGrid01
350
CD
  3
Grid/DisplayGrid02
350
CE
  3
Grid/DisplayGrid03
350
CF
  3
Grid/GridSpacingX00
350
D0
  3
Grid/GridSpacingX01
350
D1
  3
Grid/GridSpacingX02
350
D2
  3
Grid/GridSpacingX03
350
D3
  3
Grid/GridSpacingY00
350
D4
  3
Grid/GridSpacingY01
350
D5
  3
Grid/GridSpacingY02
350
D6
  3
Grid/GridSpacingY03
350
D7
  3
Grid/IsometricGrid00
350
D8
  3
Grid/IsometricGrid01
350
D9
  3
Grid/IsometricGrid02
350
DA
  3
Grid/IsometricGrid03
350
DB
  3
Grid/IsometricProjection00
350
DC
  3
Grid/IsometricProjection01
350
DD
  3
Grid/IsometricProjection02
350
DE
  3
Grid/IsometricProjection03
350
DF
  3
Grid/MetaGridSpacingX00
350
E0
  3
Grid/MetaGridSpacingX01
350
E1
  3
Grid/MetaGridSpacingX02
350
E2
  3
Grid/MetaGridSpacingX03
350
E3
  3
Grid/MetaGridSpacingY00
350
E4
  3
Grid/MetaGridSpacingY01
350
E5
  3
Grid/MetaGridSpacingY02
350
E6
  3
Grid/MetaGridSpacingY03
350
E7
  3
MultiPageSettings/Columns
350
E8
  3
MultiPageSettings/GlueMarginsBottom
350
E9
  3
MultiPageSettings/GlueMarginsLeft
350
EA
  3
MultiPageSettings/GlueMarginsRight
350
EB
  3
MultiPageSettings/GlueMarginsTop
350
EC
  3
MultiPageSettings/PrintCropMarks
350
ED
  3
MultiPageSettings/Rows
350
EE
  3
PageSettings/OffsetX
350
EF
  3
PageSettings/OffsetY
350
F0
  3
PageSettings/PageOrientation
350
F1
  3
PageSettings/PaperHeight
350
F2
  3
PageSettings/PaperWidth
350
F3
  3
PageSettings/Scale
350
F4
  3
PageSettings/ShowPaperBorders
350
F5
  3
QCADVersion
350
F6
  3
UnitSettings/PaperUnit
350
F7
  3
ViewportCenter
350
F8
  3
ViewportHeight
350
F9
  3
ViewportWidth
350
FA
  0
XRECORD
  5
CA
330
C6
100
AcDbXrecord
280
1
1000
#ffffff
  0
XRECORD
  5
CB
330
C6
100
AcDbXrecord
280
1
1000
FullColor
  0
XRECORD
  5
CC
330
C6
100
AcDbXrecord
280
1
290
1
  0
XRECORD
  5
CD
330
C6
100
AcDbXrecord
280
1
290
1
  0
XRECORD
  5
CE
330
C6
100
AcDbXrecord
280
1
290
1
  0
XRECORD
  5
CF
330
C6
100
AcDbXrecord
280
1
290
1
  0
XRECORD
  5
D0
330
C6
100
AcDbXrecord
280
1
1000
auto
  0
XRECORD
  5
D1
330
C6
100
AcDbXrecord
280
1
1000
auto
  0
XRECORD
  5
D2
330
C6
100
AcDbXrecord
280
1
1000
auto
  0
XRECORD
  5
D3
330
C6
100
AcDbXrecord
280
1
1000
auto
  0
XRECORD
  5
D4
330
C6
100
AcDbXrecord
280
1
1000
auto
  0
XRECORD
  5
D5
330
C6
100
AcDbXrecord
280
1
1000
auto
  0
XRECORD
  5
D6
330
C6
100
AcDbXrecord
280
1
1000
auto
  0
XRECORD
  5
D7
330
C6
100
AcDbXrecord
280
1
1000
auto
  0
XRECORD
  5
D8
330
C6
100
AcDbXrecord
280
1
290
0
  0
XRECORD
  5
D9
330
C6
100
AcDbXrecord
280
1
290
0
  0
XRECORD
  5
DA
330
C6
100
AcDbXrecord
280
1
290
0
  0
XRECORD
  5
DB
330
C6
100
AcDbXrecord
280
1
290
0
  0
XRECORD
  5
DC
330
C6
100
AcDbXrecord
280
1
 90
0
  0
XRECORD
  5
DD
330
C6
100
AcDbXrecord
280
1
 90
0
  0
XRECORD
  5
DE
330
C6
100
AcDbXrecord
280
1
 90
0
  0
XRECORD
  5
DF
330
C6
100
AcDbXrecord
280
1
 90
0
  0
XRECORD
  5
E0
330
C6
100
AcDbXrecord
280
1
1000
auto
  0
XRECORD
  5
E1
330
C6
100
AcDbXrecord
280
1
1000
auto
  0
XRECORD
  5
E2
330
C6
100
AcDbXrecord
280
1
1000
auto
  0
XRECORD
  5
E3
330
C6
100
AcDbXrecord
280
1
1000
auto
  0
XRECORD
  5
E4
330
C6
100
AcDbXrecord
280
1
1000
auto
  0
XRECORD
  5
E5
330
C6
100
AcDbXrecord
280
1
1000
auto
  0
XRECORD
  5
E6
330
C6
100
AcDbXrecord
280
1
1000
auto
  0
XRECORD
  5
E7
330
C6
100
AcDbXrecord
280
1
1000
auto
  0
XRECORD
  5
E8
330
C6
100
AcDbXrecord
280
1
 90
1
  0
XRECORD
  5
E9
330
C6
100
AcDbXrecord
280
1
 40
10.0
  0
XRECORD
  5
EA
330
C6
100
AcDbXrecord
280
1
 40
10.0
  0
XRECORD
  5
EB
330
C6
100
AcDbXrecord
280
1
 40
10.0
  0
XRECORD
  5
EC
330
C6
100
AcDbXrecord
280
1
 40
10.0
  0
XRECORD
  5
ED
330
C6
100
AcDbXrecord
280
1
290
0
  0
XRECORD
  5
EE
330
C6
100
AcDbXrecord
280
1
 90
1
  0
XRECORD
  5
EF
330
C6
100
AcDbXrecord
280
1
 40
0.0
  0
XRECORD
  5
F0
330
C6
100
AcDbXrecord
280
1
 40
0.0
  0
XRECORD
  5
F1
330
C6
100
AcDbXrecord
280
1
1000
Portrait
  0
XRECORD
  5
F2
330
C6
100
AcDbXrecord
280
1
 40
279.39999999999998
  0
XRECORD
  5
F3
330
C6
100
AcDbXrecord
280
1
 40
215.90000000000001
  0
XRECORD
  5
F4
330
C6
100
AcDbXrecord
280
1
1000
1:1
  0
XRECORD
  5
F5
330
C6
100
AcDbXrecord
280
1
290
1
  0
XRECORD
  5
F6
330
C6
100
AcDbXrecord
280
1
1000
3.15.2
  0
XRECORD
  5
F7
330
C6
100
AcDbXrecord
280
1
 90
4
  0
XRECORD
  5
F9
330
C6
100
AcDbXrecord
280
1
 40
204.28674236753761
  0
XRECORD
  5
FA
330
C6
100
AcDbXrecord
280
1
 40
411.05135627322596
  0
ENDSEC
  0
EOF
