999
dxflib 3.12.2.0
  0
SECTION
  2
HEADER
  9
$ACADVER
  1
AC1015
  9
$HANDSEED
  5
FFFF
  9
$ANGBASE
 50
0.0
  9
$ATTMODE
 70
1
  9
$AUNITS
 70
0
  9
$AUPREC
 70
0
  9
$CELTSCALE
 40
1.0
  9
$CHAMFERA
 40
0.0
  9
$CHAMFERB
 40
0.0
  9
$CHAMFERC
 40
0.0
  9
$CHAMFERD
 40
0.0
  9
$CMLJUST
 70
0
  9
$CMLSCALE
 40
1.0
  9
$DIMADEC
 70
0
  9
$DIMALTD
 70
3
  9
$DIMALTF
 40
0.03937007874016
  9
$DIMALTRND
 40
0.0
  9
$DIMALTTD
 70
2
  9
$DIMALTTZ
 70
0
  9
$DIMALTU
 70
2
  9
$DIMALTZ
 70
0
  9
$DIMAPOST
  1

  9
$DIMASZ
 40
2.5
  9
$DIMATFIT
 70
3
  9
$DIMAUNIT
 70
0
  9
$DIMAZIN
 70
0
  9
$DIMCEN
 40
2.5
  9
$DIMDEC
 70
4
  9
$DIMDLE
 40
0.0
  9
$DIMDLI
 40
3.75
  9
$DIMDSEP
 70
46
  9
$DIMEXE
 40
1.25
  9
$DIMEXO
 40
0.625
  9
$DIMFRAC
 70
0
  9
$DIMGAP
 40
0.625
  9
$DIMJUST
 70
0
  9
$DIMLFAC
 40
1.0
  9
$DIMLUNIT
 70
2
  9
$DIMLWD
 70
-2
  9
$DIMLWE
 70
-2
  9
$DIMPOST
  1

  9
$DIMRND
 40
0.0
  9
$DIMSCALE
 40
1.0
  9
$DIMTAD
 70
1
  9
$DIMTDEC
 70
4
  9
$DIMTFAC
 40
1.0
  9
$DIMTM
 40
0.0
  9
$DIMTOLJ
 70
1
  9
$DIMTP
 40
0.0
  9
$DIMTSZ
 40
0.0
  9
$DIMTVP
 40
0.0
  9
$DIMTXT
 40
2.5
  9
$DIMTZIN
 70
0
  9
$DIMZIN
 70
8
  9
$DWGCODEPAGE
  3
ANSI_1252
  9
$ELEVATION
 40
0.0
  9
$EXTMAX
 10
150.0
 20
160.0
 30
0.0
  9
$EXTMIN
 10
0.0
 20
0.0
 30
0.0
  9
$FILLETRAD
 40
5.0
  9
$INSBASE
 10
0.0
 20
0.0
 30
0.0
  9
$INSUNITS
 70
0
  9
$LIMMAX
 10
420.0
 20
297.0
  9
$LIMMIN
 10
0.0
 20
0.0
  9
$LTSCALE
 40
1.0
  9
$LUNITS
 70
2
  9
$LUPREC
 70
4
  9
$MAXACTVP
 70
2
  9
$MEASUREMENT
 70
0
  9
$PDMODE
 70
0
  9
$PDSIZE
 40
0.0
  9
$PELEVATION
 40
0.0
  9
$PEXTMAX
 10
9.9287257582933517
 20
7.5991666710079731
 30
0.0000000349246037
  9
$PEXTMIN
 10
1.049636599258094
 20
0.3333892899584683
 30
-0.0015258207003583
  9
$PINSBASE
 10
0.0
 20
0.0
 30
0.0
  9
$PLIMMAX
 10
10.75
 20
8.25
  9
$PLIMMIN
 10
-0.25
 20
-0.25
  9
$PLINEWID
 40
0.0
  9
$PROXYGRAPHICS
 70
1
  9
$PUCSORG
 10
0.0
 20
0.0
 30
0.0
  9
$PUCSXDIR
 10
1.0
 20
0.0
 30
0.0
  9
$PUCSYDIR
 10
0.0
 20
1.0
 30
0.0
  9
$SHADEDGE
 70
3
  9
$SHADEDIF
 70
70
  9
$SKETCHINC
 40
1.0
  9
$SPLINESEGS
 70
8
  9
$SPLINETYPE
 70
6
  9
$SURFTAB1
 70
6
  9
$SURFTAB2
 70
6
  9
$SURFTYPE
 70
6
  9
$SURFU
 70
6
  9
$SURFV
 70
6
  9
$TEXTSIZE
 40
2.5
  9
$THICKNESS
 40
0.0
  9
$TRACEWID
 40
1.0
  9
$TREEDEPTH
 70
3020
  9
$UCSORG
 10
0.0
 20
0.0
 30
0.0
  9
$UCSXDIR
 10
1.0
 20
0.0
 30
0.0
  9
$UCSYDIR
 10
0.0
 20
1.0
 30
0.0
  9
$UNITMODE
 70
0
  9
$USERI1
 70
0
  9
$USERI2
 70
0
  9
$USERI3
 70
0
  9
$USERI4
 70
0
  9
$USERI5
 70
0
  9
$USERR1
 40
0.0
  9
$USERR2
 40
0.0
  9
$USERR3
 40
0.0
  9
$USERR4
 40
0.0
  9
$USERR5
 40
0.0
  0
ENDSEC
  0
SECTION
  2
TABLES
  0
TABLE
  2
VPORT
  5
8
100
AcDbSymbolTable
 70
1
  0
VPORT
  5
30
100
AcDbSymbolTableRecord
100
AcDbViewportTableRecord
  2
*Active
 70
0
 10
0.0
 20
0.0
 11
1.0
 21
1.0
 12
286.30555555555549
 22
148.5
 13
0.0
 23
0.0
 14
10.0
 24
10.0
 15
10.0
 25
10.0
 16
0.0
 26
0.0
 36
1.0
 17
0.0
 27
0.0
 37
0.0
 40
297.0
 41
1.92798353909465
 42
50.0
 43
0.0
 44
0.0
 50
0.0
 51
0.0
 71
0
 72
100
 73
1
 74
3
 75
1
 76
1
 77
0
 78
0
281
0
 65
1
110
0.0
120
0.0
130
0.0
111
1.0
121
0.0
131
0.0
112
0.0
122
1.0
132
0.0
 79
0
146
0.0
  0
ENDTAB
  0
TABLE
  2
LTYPE
  5
5
100
AcDbSymbolTable
 70
50
  0
LTYPE
  5
16
100
AcDbSymbolTableRecord
100
AcDbLinetypeTableRecord
  2
Continuous
 70
0
  3
Solid line
 72
65
 73
0
 40
0.0
  0
LTYPE
  5
31
100
AcDbSymbolTableRecord
100
AcDbLinetypeTableRecord
  2
ACAD_ISO15W100
 70
0
  3
ISO double-dash triple-dot __ __ . . . __ __ . .
 72
65
 73
10
 40
39.000000000000007
 49
12.0
 74
0
 49
-3.0
 74
0
 49
12.0
 74
0
 49
-2.9500000000000002
 74
0
 49
0.1
 74
0
 49
-2.8999999999999999
 74
0
 49
0.1
 74
0
 49
-2.8999999999999999
 74
0
 49
0.1
 74
0
 49
-2.9500000000000002
 74
0
  0
LTYPE
  5
32
100
AcDbSymbolTableRecord
100
AcDbLinetypeTableRecord
  2
HOT_WATER_SUPPLY
 70
0
  3
Hot water supply ---- HW ---- HW ---- HW ----
 72
65
 73
3
 40
22.859999999999999
 49
12.699999999999999
 74
0
 49
-5.0800000000000001
 74
0
 49
-5.0800000000000001
 74
0
  0
LTYPE
  5
33
100
AcDbSymbolTableRecord
100
AcDbLinetypeTableRecord
  2
DIVIDE
 70
0
  3
Divide ____ . . ____ . . ____ . . ____ . . ____
 72
65
 73
6
 40
31.749999999999993
 49
12.699999999999999
 74
0
 49
-6.299999999999998
 74
0
 49
0.1
 74
0
 49
-6.2499999999999982
 74
0
 49
0.1
 74
0
 49
-6.299999999999998
 74
0
  0
LTYPE
  5
34
100
AcDbSymbolTableRecord
100
AcDbLinetypeTableRecord
  2
ACAD_ISO10W100
 70
0
  3
ISO dash dot __ . __ . __ . __ . __ . __ . __ . 
 72
65
 73
4
 40
18.0
 49
12.0
 74
0
 49
-2.9500000000000002
 74
0
 49
0.1
 74
0
 49
-2.9500000000000002
 74
0
  0
LTYPE
  5
35
100
AcDbSymbolTableRecord
100
AcDbLinetypeTableRecord
  2
GAS_LINE
 70
0
  3
Gas line ----GAS----GAS----GAS----GAS----GAS----GAS--
 72
65
 73
3
 40
24.129999999999999
 49
12.699999999999999
 74
0
 49
-5.0800000000000001
 74
0
 49
-6.349999999999997
 74
0
  0
LTYPE
  5
36
100
AcDbSymbolTableRecord
100
AcDbLinetypeTableRecord
  2
ACAD_ISO04W100
 70
0
  3
ISO long-dash dot ____ . ____ . ____ . ____ . _
 72
65
 73
4
 40
30.0
 49
24.0
 74
0
 49
-2.9500000000000002
 74
0
 49
0.1
 74
0
 49
-2.9500000000000002
 74
0
  0
LTYPE
  5
14
100
AcDbSymbolTableRecord
100
AcDbLinetypeTableRecord
  2
ByBlock
 70
0
  3

 72
65
 73
0
 40
0.0
  0
LTYPE
  5
37
100
AcDbSymbolTableRecord
100
AcDbLinetypeTableRecord
  2
CENTER2
 70
0
  3
Center (.5x) ___ _ ___ _ ___ _ ___ _ ___ _ ___
 72
65
 73
4
 40
28.574999999999992
 49
19.050000000000001
 74
0
 49
-3.174999999999998
 74
0
 49
3.174999999999998
 74
0
 49
-3.174999999999998
 74
0
  0
LTYPE
  5
38
100
AcDbSymbolTableRecord
100
AcDbLinetypeTableRecord
  2
ACAD_ISO11W100
 70
0
  3
ISO double-dash dot __ __ . __ __ . __ __ . __ _
 72
65
 73
6
 40
33.0
 49
12.0
 74
0
 49
-3.0
 74
0
 49
12.0
 74
0
 49
-2.9500000000000002
 74
0
 49
0.1
 74
0
 49
-2.9500000000000002
 74
0
  0
LTYPE
  5
39
100
AcDbSymbolTableRecord
100
AcDbLinetypeTableRecord
  2
HIDDEN2
 70
0
  3
Hidden (.5x) _ _ _ _ _ _ _ _ _ _ _ _ _ _ _ _ _ 
 72
65
 73
2
 40
4.7624999999999975
 49
3.174999999999998
 74
0
 49
-1.587499999999999
 74
0
  0
LTYPE
  5
3A
100
AcDbSymbolTableRecord
100
AcDbLinetypeTableRecord
  2
BORDERX2
 70
0
  3
Border (2x) ____  ____  .  ____  ____  .  ___
 72
65
 73
6
 40
88.899999999999991
 49
25.399999999999999
 74
0
 49
-12.699999999999999
 74
0
 49
25.399999999999999
 74
0
 49
-12.65
 74
0
 49
0.1
 74
0
 49
-12.65
 74
0
  0
LTYPE
  5
3B
100
AcDbSymbolTableRecord
100
AcDbLinetypeTableRecord
  2
ACAD_ISO05W100
 70
0
  3
ISO long-dash double-dot ____ .. ____ .. ____ . 
 72
65
 73
6
 40
33.0
 49
24.0
 74
0
 49
-2.9500000000000002
 74
0
 49
0.1
 74
0
 49
-2.8999999999999999
 74
0
 49
0.1
 74
0
 49
-2.9500000000000002
 74
0
  0
LTYPE
  5
3C
100
AcDbSymbolTableRecord
100
AcDbLinetypeTableRecord
  2
DASHDOTX2
 70
0
  3
Dash dot (2x) ____  .  ____  .  ____  .  ___
 72
65
 73
4
 40
50.799999999999997
 49
25.399999999999999
 74
0
 49
-12.65
 74
0
 49
0.1
 74
0
 49
-12.65
 74
0
  0
LTYPE
  5
3D
100
AcDbSymbolTableRecord
100
AcDbLinetypeTableRecord
  2
HIDDENX2
 70
0
  3
Hidden (2x) ____ ____ ____ ____ ____ ____ ____ 
 72
65
 73
2
 40
19.049999999999997
 49
12.699999999999999
 74
0
 49
-6.349999999999997
 74
0
  0
LTYPE
  5
3E
100
AcDbSymbolTableRecord
100
AcDbLinetypeTableRecord
  2
CENTERX2
 70
0
  3
Center (2x) ________  __  ________  __  _____
 72
65
 73
4
 40
101.60000000000001
 49
63.5
 74
0
 49
-12.699999999999999
 74
0
 49
12.699999999999999
 74
0
 49
-12.699999999999999
 74
0
  0
LTYPE
  5
3F
100
AcDbSymbolTableRecord
100
AcDbLinetypeTableRecord
  2
BORDER2
 70
0
  3
Border (.5x) __.__.__.__.__.__.__.__.__.__.__.
 72
65
 73
6
 40
22.224999999999987
 49
6.349999999999997
 74
0
 49
-3.174999999999998
 74
0
 49
6.349999999999997
 74
0
 49
-3.1249999999999969
 74
0
 49
0.1
 74
0
 49
-3.1249999999999969
 74
0
  0
LTYPE
  5
40
100
AcDbSymbolTableRecord
100
AcDbLinetypeTableRecord
  2
DASHDOT2
 70
0
  3
Dash dot (.5x) _._._._._._._._._._._._._._._.
 72
65
 73
4
 40
12.69999999999999
 49
6.349999999999997
 74
0
 49
-3.1249999999999969
 74
0
 49
0.1
 74
0
 49
-3.1249999999999969
 74
0
  0
LTYPE
  5
41
100
AcDbSymbolTableRecord
100
AcDbLinetypeTableRecord
  2
ACAD_ISO12W100
 70
0
  3
ISO dash double-dot __ . . __ . . __ . . __ . . 
 72
65
 73
6
 40
21.0
 49
12.0
 74
0
 49
-2.9500000000000002
 74
0
 49
0.1
 74
0
 49
-2.8999999999999999
 74
0
 49
0.1
 74
0
 49
-2.9500000000000002
 74
0
  0
LTYPE
  5
42
100
AcDbSymbolTableRecord
100
AcDbLinetypeTableRecord
  2
ACAD_ISO07W100
 70
0
  3
ISO dot . . . . . . . . . . . . . . . . . . . . 
 72
65
 73
2
 40
3.0
 49
0.1
 74
0
 49
-2.8999999999999999
 74
0
  0
LTYPE
  5
43
100
AcDbSymbolTableRecord
100
AcDbLinetypeTableRecord
  2
ACAD_ISO06W100
 70
0
  3
ISO long-dash triple-dot ____ ... ____ ... ____
 72
65
 73
8
 40
36.000000000000007
 49
24.0
 74
0
 49
-2.9500000000000002
 74
0
 49
0.1
 74
0
 49
-2.8999999999999999
 74
0
 49
0.1
 74
0
 49
-2.8999999999999999
 74
0
 49
0.1
 74
0
 49
-2.9500000000000002
 74
0
  0
LTYPE
  5
44
100
AcDbSymbolTableRecord
100
AcDbLinetypeTableRecord
  2
CENTER
 70
0
  3
Center ____ _ ____ _ ____ _ ____ _ ____ _ ____
 72
65
 73
4
 40
50.799999999999983
 49
31.75
 74
0
 49
-6.349999999999997
 74
0
 49
6.349999999999997
 74
0
 49
-6.349999999999997
 74
0
  0
LTYPE
  5
45
100
AcDbSymbolTableRecord
100
AcDbLinetypeTableRecord
  2
HIDDEN
 70
0
  3
Hidden __ __ __ __ __ __ __ __ __ __ __ __ __ __
 72
65
 73
2
 40
9.524999999999995
 49
6.349999999999997
 74
0
 49
-3.174999999999998
 74
0
  0
LTYPE
  5
46
100
AcDbSymbolTableRecord
100
AcDbLinetypeTableRecord
  2
DOTX2
 70
0
  3
Dot (2x) .  .  .  .  .  .  .  .  .  .  .  .  .  .
 72
65
 73
2
 40
12.699999999999999
 49
0.1
 74
0
 49
-12.6
 74
0
  0
LTYPE
  5
47
100
AcDbSymbolTableRecord
100
AcDbLinetypeTableRecord
  2
PHANTOM
 70
0
  3
Phantom ______  __  __  ______  __  __  ______ 
 72
65
 73
6
 40
63.499999999999972
 49
31.75
 74
0
 49
-6.349999999999997
 74
0
 49
6.349999999999997
 74
0
 49
-6.349999999999997
 74
0
 49
6.349999999999997
 74
0
 49
-6.349999999999997
 74
0
  0
LTYPE
  5
48
100
AcDbSymbolTableRecord
100
AcDbLinetypeTableRecord
  2
ACAD_ISO08W100
 70
0
  3
ISO long-dash short-dash ____ __ ____ __ ____ _
 72
65
 73
4
 40
36.0
 49
24.0
 74
0
 49
-3.0
 74
0
 49
6.0
 74
0
 49
-3.0
 74
0
  0
LTYPE
  5
49
100
AcDbSymbolTableRecord
100
AcDbLinetypeTableRecord
  2
DASHEDX2
 70
0
  3
Dashed (2x) ____  ____  ____  ____  ____  ___
 72
65
 73
2
 40
38.099999999999994
 49
25.399999999999999
 74
0
 49
-12.699999999999999
 74
0
  0
LTYPE
  5
4A
100
AcDbSymbolTableRecord
100
AcDbLinetypeTableRecord
  2
DRAINAGE
 70
0
  3
Drainage ---->---->---->----
 72
65
 73
2
 40
10.16
 49
5.0800000000000001
 74
0
 49
5.0800000000000001
 74
0
  0
LTYPE
  5
4B
100
AcDbSymbolTableRecord
100
AcDbLinetypeTableRecord
  2
ACAD_ISO02W100
 70
0
  3
ISO dash __ __ __ __ __ __ __ __ __ __ __ __ __
 72
65
 73
2
 40
15.0
 49
12.0
 74
0
 49
-3.0
 74
0
  0
LTYPE
  5
4C
100
AcDbSymbolTableRecord
100
AcDbLinetypeTableRecord
  2
PHANTOM2
 70
0
  3
Phantom (.5x) ___ _ _ ___ _ _ ___ _ _ ___ _ _
 72
65
 73
6
 40
31.749999999999986
 49
15.875
 74
0
 49
-3.174999999999998
 74
0
 49
3.174999999999998
 74
0
 49
-3.174999999999998
 74
0
 49
3.174999999999998
 74
0
 49
-3.174999999999998
 74
0
  0
LTYPE
  5
4D
100
AcDbSymbolTableRecord
100
AcDbLinetypeTableRecord
  2
DASHED2
 70
0
  3
Dashed (.5x) _ _ _ _ _ _ _ _ _ _ _ _ _ _ _ _ _ 
 72
65
 73
2
 40
9.524999999999995
 49
6.349999999999997
 74
0
 49
-3.174999999999998
 74
0
  0
LTYPE
  5
4E
100
AcDbSymbolTableRecord
100
AcDbLinetypeTableRecord
  2
ACAD_ISO09W100
 70
0
  3
ISO long-dash double-short-dash ____ __ __ ____
 72
65
 73
6
 40
45.0
 49
24.0
 74
0
 49
-3.0
 74
0
 49
6.0
 74
0
 49
-3.0
 74
0
 49
6.0
 74
0
 49
-3.0
 74
0
  0
LTYPE
  5
4F
100
AcDbSymbolTableRecord
100
AcDbLinetypeTableRecord
  2
ACAD_ISO13W100
 70
0
  3
ISO double-dash double-dot __ __ . . __ __ . . _
 72
65
 73
8
 40
36.000000000000007
 49
12.0
 74
0
 49
-3.0
 74
0
 49
12.0
 74
0
 49
-2.9500000000000002
 74
0
 49
0.1
 74
0
 49
-2.8999999999999999
 74
0
 49
0.1
 74
0
 49
-2.9500000000000002
 74
0
  0
LTYPE
  5
50
100
AcDbSymbolTableRecord
100
AcDbLinetypeTableRecord
  2
TRACKS
 70
0
  3
Tracks -|-|-|-|-|-|-|-|-|-|-|-|-|-|-|-|-|-|-|-|-|-|-|-|-
 72
65
 73
2
 40
7.6200000000000001
 49
3.8100000000000001
 74
0
 49
3.8100000000000001
 74
0
  0
LTYPE
  5
51
100
AcDbSymbolTableRecord
100
AcDbLinetypeTableRecord
  2
DRAINAGE2
 70
0
  3
Drainage reversed----<----<----<----
 72
65
 73
2
 40
10.16
 49
5.0800000000000001
 74
0
 49
5.0800000000000001
 74
0
  0
LTYPE
  5
52
100
AcDbSymbolTableRecord
100
AcDbLinetypeTableRecord
  2
DOT2
 70
0
  3
Dot (.5x) ........................................
 72
65
 73
2
 40
3.174999999999998
 49
0.1
 74
0
 49
-3.074999999999998
 74
0
  0
LTYPE
  5
53
100
AcDbSymbolTableRecord
100
AcDbLinetypeTableRecord
  2
ZIGZAG
 70
0
  3
Zig zag /\/\/\/\/\/\/\/\/\/\/\/\/\/\/\/\/\/\/\/\/\/\/\/
 72
65
 73
4
 40
20.32254
 49
0.00254
 74
0
 49
-5.0800000000000001
 74
0
 49
-10.16
 74
0
 49
-5.0800000000000001
 74
0
  0
LTYPE
  5
54
100
AcDbSymbolTableRecord
100
AcDbLinetypeTableRecord
  2
DASHED
 70
0
  3
Dashed __ __ __ __ __ __ __ __ __ __ __ __ __ _
 72
65
 73
2
 40
19.049999999999997
 49
12.699999999999999
 74
0
 49
-6.349999999999997
 74
0
  0
LTYPE
  5
55
100
AcDbSymbolTableRecord
100
AcDbLinetypeTableRecord
  2
ACAD_ISO14W100
 70
0
  3
ISO dash triple-dot __ . . . __ . . . __ . . . _
 72
65
 73
8
 40
24.0
 49
12.0
 74
0
 49
-2.9500000000000002
 74
0
 49
0.1
 74
0
 49
-2.8999999999999999
 74
0
 49
0.1
 74
0
 49
-2.8999999999999999
 74
0
 49
0.1
 74
0
 49
-2.9500000000000002
 74
0
  0
LTYPE
  5
56
100
AcDbSymbolTableRecord
100
AcDbLinetypeTableRecord
  2
PHANTOMX2
 70
0
  3
Phantom (2x) ____________    ____    ____   _
 72
65
 73
6
 40
127.00000000000001
 49
63.5
 74
0
 49
-12.699999999999999
 74
0
 49
12.699999999999999
 74
0
 49
-12.699999999999999
 74
0
 49
12.699999999999999
 74
0
 49
-12.699999999999999
 74
0
  0
LTYPE
  5
57
100
AcDbSymbolTableRecord
100
AcDbLinetypeTableRecord
  2
DIVIDEX2
 70
0
  3
Divide (2x) ________  .  .  ________  .  .  _
 72
65
 73
6
 40
63.5
 49
25.399999999999999
 74
0
 49
-12.65
 74
0
 49
0.1
 74
0
 49
-12.6
 74
0
 49
0.1
 74
0
 49
-12.65
 74
0
  0
LTYPE
  5
58
100
AcDbSymbolTableRecord
100
AcDbLinetypeTableRecord
  2
BORDER
 70
0
  3
Border __ __ . __ __ . __ __ . __ __ . __ __ .
 72
65
 73
6
 40
44.449999999999996
 49
12.699999999999999
 74
0
 49
-6.349999999999997
 74
0
 49
12.699999999999999
 74
0
 49
-6.299999999999998
 74
0
 49
0.1
 74
0
 49
-6.299999999999998
 74
0
  0
LTYPE
  5
59
100
AcDbSymbolTableRecord
100
AcDbLinetypeTableRecord
  2
DIVIDE2
 70
0
  3
Divide (.5x) __..__..__..__..__..__..__..__.._
 72
65
 73
6
 40
15.874999999999988
 49
6.349999999999997
 74
0
 49
-3.1249999999999969
 74
0
 49
0.1
 74
0
 49
-3.074999999999998
 74
0
 49
0.1
 74
0
 49
-3.1249999999999969
 74
0
  0
LTYPE
  5
5A
100
AcDbSymbolTableRecord
100
AcDbLinetypeTableRecord
  2
DOT
 70
0
  3
Dot . . . . . . . . . . . . . . . . . . . . . . . .
 72
65
 73
2
 40
6.3499999999999979
 49
0.1
 74
0
 49
-6.2499999999999982
 74
0
  0
LTYPE
  5
5B
100
AcDbSymbolTableRecord
100
AcDbLinetypeTableRecord
  2
DASHDOT
 70
0
  3
Dash dot __ . __ . __ . __ . __ . __ . __ . __
 72
65
 73
4
 40
25.399999999999995
 49
12.699999999999999
 74
0
 49
-6.299999999999998
 74
0
 49
0.1
 74
0
 49
-6.299999999999998
 74
0
  0
LTYPE
  5
5C
100
AcDbSymbolTableRecord
100
AcDbLinetypeTableRecord
  2
FENCELINE1
 70
0
  3
Fenceline circle ----0-----0----0-----0----0-----0--
 72
65
 73
4
 40
36.829999999999998
 49
6.349999999999997
 74
0
 49
-2.54
 74
0
 49
-2.54
 74
0
 49
25.399999999999999
 74
0
  0
LTYPE
  5
5D
100
AcDbSymbolTableRecord
100
AcDbLinetypeTableRecord
  2
BATTING
 70
0
  3
Batting SSSSSSSSSSSSSSSSSSSSSSSSSSSSSSSSSSSSSSSSSSSSSSS
 72
65
 73
4
 40
10.16254
 49
0.00254
 74
0
 49
-2.54
 74
0
 49
-5.0800000000000001
 74
0
 49
-2.54
 74
0
  0
LTYPE
  5
5E
100
AcDbSymbolTableRecord
100
AcDbLinetypeTableRecord
  2
ACAD_ISO03W100
 70
0
  3
ISO dash space __    __    __    __    __    __
 72
65
 73
2
 40
30.0
 49
12.0
 74
0
 49
-18.0
 74
0
  0
LTYPE
  5
15
100
AcDbSymbolTableRecord
100
AcDbLinetypeTableRecord
  2
ByLayer
 70
0
  3

 72
65
 73
0
 40
0.0
  0
LTYPE
  5
5F
100
AcDbSymbolTableRecord
100
AcDbLinetypeTableRecord
  2
FENCELINE2
 70
0
  3
Fenceline square ----[]-----[]----[]-----[]----[]---
 72
65
 73
4
 40
36.829999999999998
 49
6.349999999999997
 74
0
 49
-2.54
 74
0
 49
-2.54
 74
0
 49
25.399999999999999
 74
0
  0
ENDTAB
  0
TABLE
  2
LAYER
  5
2
100
AcDbSymbolTable
 70
4
  0
LAYER
  5
60
100
AcDbSymbolTableRecord
100
AcDbLayerTableRecord
  2
grabado linea medio
 70
0
 62
3
420
65280
  6
Continuous
370
-3
390
F
  0
LAYER
  5
61
100
AcDbSymbolTableRecord
100
AcDbLayerTableRecord
  2
mesa de trabajo y auxiliares
 70
1
 62
-7
420
16777215
  6
Continuous
370
-3
390
F
  0
LAYER
  5
62
100
AcDbSymbolTableRecord
100
AcDbLayerTableRecord
  2
Corte exterior
 70
0
 62
1
420
16711680
  6
Continuous
370
-3
390
F
  0
LAYER
  5
10
100
AcDbSymbolTableRecord
100
AcDbLayerTableRecord
  2
0
 70
0
 62
7
420
16777215
  6
Continuous
370
-3
390
F
  0
ENDTAB
  0
TABLE
  2
STYLE
  5
3
100
AcDbSymbolTable
 70
1
  0
STYLE
  5
63
100
AcDbSymbolTableRecord
100
AcDbTextStyleTableRecord
  2
Standard
 70
0
 40
0.0
 41
1.0
 50
0.0
 71
0
 42
2.5
  3

  4

1001
ACAD
1000
txt
1071
0
  0
ENDTAB
  0
TABLE
  2
VIEW
  5
6
100
AcDbSymbolTable
 70
0
  0
ENDTAB
  0
TABLE
  2
UCS
  5
7
100
AcDbSymbolTable
 70
0
  0
ENDTAB
  0
TABLE
  2
APPID
  5
9
100
AcDbSymbolTable
 70
1
  0
APPID
  5
12
100
AcDbSymbolTableRecord
100
AcDbRegAppTableRecord
  2
ACAD
 70
0
  0
APPID
  5
64
100
AcDbSymbolTableRecord
100
AcDbRegAppTableRecord
  2
QCAD
 70
0
  0
ENDTAB
  0
TABLE
  2
DIMSTYLE
  5
A
100
AcDbSymbolTable
 70
1
100
AcDbDimStyleTable
 71
0
  0
DIMSTYLE
105
27
100
AcDbSymbolTableRecord
100
AcDbDimStyleTableRecord
  2
Standard
 41
2.5
 42
0.625
 43
3.75
 44
1.25
 70
0
 73
0
 74
0
 77
1
 78
8
140
2.5
141
2.5
143
0.03937007874016
147
0.625
171
3
172
1
271
2
272
2
274
3
278
44
283
0
284
8
340
63
  0
ENDTAB
  0
TABLE
  2
BLOCK_RECORD
  5
1
100
AcDbSymbolTable
 70
1
  0
BLOCK_RECORD
  5
1F
100
AcDbSymbolTableRecord
100
AcDbBlockTableRecord
  2
*Model_Space
340
22
  0
BLOCK_RECORD
  5
1B
100
AcDbSymbolTableRecord
100
AcDbBlockTableRecord
  2
*Paper_Space
340
1E
  0
BLOCK_RECORD
  5
23
100
AcDbSymbolTableRecord
100
AcDbBlockTableRecord
  2
*Paper_Space0
340
26
  0
BLOCK_RECORD
  5
65
100
AcDbSymbolTableRecord
100
AcDbBlockTableRecord
  2
A$C32B96BB9
340
0
  0
BLOCK_RECORD
  5
66
100
AcDbSymbolTableRecord
100
AcDbBlockTableRecord
  2
$PAPER_SPACE
340
0
  0
BLOCK_RECORD
  5
67
100
AcDbSymbolTableRecord
100
AcDbBlockTableRecord
  2
$MODEL_SPACE
340
0
  0
ENDTAB
  0
ENDSEC
  0
SECTION
  2
BLOCKS
  0
BLOCK
  5
20
100
AcDbEntity
  8
0
100
AcDbBlockBegin
  2
*Model_Space
 70
0
 10
0.0
 20
0.0
 30
0.0
  3
*Model_Space
  1

  0
ENDBLK
  5
21
100
AcDbEntity
  8
0
100
AcDbBlockEnd
  0
BLOCK
  5
1C
100
AcDbEntity
 67
1
  8
0
100
AcDbBlockBegin
  2
*Paper_Space
 70
0
 10
0.0
 20
0.0
 30
0.0
  3
*Paper_Space
  1

  0
ENDBLK
  5
1D
100
AcDbEntity
 67
1
  8
0
100
AcDbBlockEnd
  0
BLOCK
  5
24
100
AcDbEntity
  8
0
100
AcDbBlockBegin
  2
*Paper_Space0
 70
0
 10
0.0
 20
0.0
 30
0.0
  3
*Paper_Space0
  1

  0
ENDBLK
  5
25
100
AcDbEntity
  8
0
100
AcDbBlockEnd
  0
BLOCK
  5
68
100
AcDbEntity
  8
0
100
AcDbBlockBegin
  2
A$C32B96BB9
 70
0
 10
0.0
 20
0.0
 30
0.0
  3
A$C32B96BB9
  1

  0
ENDBLK
  5
69
100
AcDbEntity
  8
0
100
AcDbBlockEnd
  0
BLOCK
  5
6A
100
AcDbEntity
  8
0
100
AcDbBlockBegin
  2
$PAPER_SPACE
 70
0
 10
0.0
 20
0.0
 30
0.0
  3
$PAPER_SPACE
  1

  0
ENDBLK
  5
6B
100
AcDbEntity
  8
0
100
AcDbBlockEnd
  0
BLOCK
  5
6C
100
AcDbEntity
  8
0
100
AcDbBlockBegin
  2
$MODEL_SPACE
 70
0
 10
0.0
 20
0.0
 30
0.0
  3
$MODEL_SPACE
  1

  0
ENDBLK
  5
6D
100
AcDbEntity
  8
0
100
AcDbBlockEnd
  0
ENDSEC
  0
SECTION
  2
ENTITIES
  0
CIRCLE
  5
6E
100
AcDbEntity
100
AcDbCircle
  8
grabado linea medio
 62
256
370
-1
 48
1.0
  6
ByLayer
 10
77.468920963447005
 20
38.127950254175701
 30
0.0
 40
6.0
  0
CIRCLE
  5
6F
100
AcDbEntity
100
AcDbCircle
  8
Corte exterior
 62
256
370
-1
 48
1.0
  6
ByLayer
 10
20.50125745682784
 20
119.5220432620558
 30
0.0
 40
8.0
  0
CIRCLE
  5
70
100
AcDbEntity
100
AcDbCircle
  8
Corte exterior
 62
256
370
-1
 48
1.0
  6
ByLayer
 10
46.501257456827837
 20
119.5220432620558
 30
0.0
 40
8.0
  0
LWPOLYLINE
  5
71
  8
grabado linea medio
 62
256
370
-1
 48
1.0
  6
ByLayer
100
AcDbEntity
100
AcDbPolyline
 90
9
 70
0
 10
87.218920963447005
 20
45.827950254175697
 30
0.0
 10
67.718920963447033
 20
45.827950254175711
 30
0.0
 10
67.718920963447033
 20
30.427950254175698
 30
0.0
 10
87.218920963447005
 20
30.427950254175698
 30
0.0
 10
87.218920963447005
 20
33.127950254175708
 30
0.0
 10
103.91892096344699
 20
33.127950254175708
 30
0.0
 10
103.91892096344699
 20
43.127950254175687
 30
0.0
 10
87.218920963447005
 20
43.127950254175722
 30
0.0
 10
87.218920963447005
 20
45.827950254175697
 30
0.0
  0
LWPOLYLINE
  5
72
  8
Corte exterior
 62
256
370
-1
 48
1.0
  6
ByLayer
100
AcDbEntity
100
AcDbPolyline
 90
4
 70
129
 10
41.001257456827837
 20
26.0
 30
0.0
 10
51.001257456827851
 20
26.0
 30
0.0
 10
51.001257456827851
 20
28.899999999999999
 30
0.0
 10
41.001257456827837
 20
28.899999999999999
 30
0.0
  0
LWPOLYLINE
  5
73
  8
Corte exterior
 62
256
370
-1
 48
1.0
  6
ByLayer
100
AcDbEntity
100
AcDbPolyline
 90
4
 70
129
 10
16.00125745682784
 20
26.0
 30
0.0
 10
26.00125745682784
 20
26.0
 30
0.0
 10
26.00125745682784
 20
28.899999999999999
 30
0.0
 10
16.00125745682784
 20
28.899999999999999
 30
0.0
  0
LWPOLYLINE
  5
74
  8
grabado linea medio
 62
256
370
-1
 48
1.0
  6
ByLayer
100
AcDbEntity
100
AcDbPolyline
 90
4
 70
0
 10
83.599999999999966
 20
113.0
 30
0.0
 10
83.599999999999966
 20
66.299999999999983
 30
0.0
 10
101.59999999999999
 20
66.299999999999983
 30
0.0
 10
101.59999999999999
 20
113.0
 30
0.0
  0
LWPOLYLINE
  5
75
  8
grabado linea medio
 62
256
370
-1
 48
1.0
  6
ByLayer
100
AcDbEntity
100
AcDbPolyline
 90
4
 70
0
 10
149.0
 20
113.0
 30
0.0
 10
124.0
 20
113.0
 30
0.0
 10
124.0
 20
16.0
 30
0.0
 10
149.0
 20
16.0
 30
0.0
  0
LWPOLYLINE
  5
76
  8
grabado linea medio
 62
256
370
-1
 48
1.0
  6
ByLayer
100
AcDbEntity
100
AcDbPolyline
 90
4
 70
0
 10
66.0
 20
55.799999999999983
 30
0.0
 10
119.2
 20
55.799999999999983
 30
0.0
 10
119.2
 20
113.0
 30
0.0
 10
65.999987098086606
 20
113.0000196109241
 30
0.0
  0
LWPOLYLINE
  5
77
  8
Corte exterior
 62
256
370
-1
 48
1.0
  6
ByLayer
100
AcDbEntity
100
AcDbPolyline
 90
2
 70
128
 10
149.0
 20
127.0
 30
0.0
 10
137.99060814979151
 20
127.0
 30
0.0
  0
LWPOLYLINE
  5
78
  8
Corte exterior
 62
256
370
-1
 48
1.0
  6
ByLayer
100
AcDbEntity
100
AcDbPolyline
 90
7
 70
128
 10
136.99060814979151
 20
127.0
 30
0.0
 10
125.9812162995831
 20
127.0
 30
0.0
 10
125.9812162995831
 20
115.2
 30
0.0
 10
102.78121629958299
 20
115.2
 30
0.0
 10
102.78121629958299
 20
127.0
 30
0.0
 10
87.573473936899816
 20
127.0
 30
0.0
 10
87.823473936899816
 20
127.0
 30
0.0
  0
LWPOLYLINE
  5
79
  8
Corte exterior
 62
256
370
-1
 48
1.0
  6
ByLayer
100
AcDbEntity
100
AcDbPolyline
 90
5
 70
128
 10
86.823473936899816
 20
127.0
 30
0.0
 10
87.073473936899816
 20
127.0
 30
0.0
 10
66.0
 20
127.0
 30
0.0
 10
65.999972905966686
 20
77.500000000010033
 30
0.0
 10
65.999968484453959
 20
65.505433491181634
 30
0.0
  0
LWPOLYLINE
  5
7A
  8
grabado linea medio
 62
256
370
-1
 48
1.0
  6
ByLayer
100
AcDbEntity
100
AcDbPolyline
 90
8
 70
0
 10
66.000000000000014
 20
13.5
 30
0.0
 10
82.300000000000026
 20
13.5
 30
0.0
 10
82.300000000000026
 20
10.0
 30
0.0
 10
120.0
 20
10.0
 30
0.0
 10
120.0
 20
27.0
 30
0.0
 10
82.300000000000026
 20
27.0
 30
0.0
 10
82.300000000000026
 20
23.5
 30
0.0
 10
66.000000000000014
 20
23.5
 30
0.0
  0
LWPOLYLINE
  5
7B
  8
Corte exterior
 62
256
370
-1
 48
1.0
  6
ByLayer
100
AcDbEntity
100
AcDbPolyline
 90
6
 70
128
 10
34.001257456827837
 20
65.678034017017666
 30
0.0
 10
49.501257456827851
 20
65.678034017017666
 30
0.0
 10
49.501257456827851
 20
33.678034017017687
 30
0.0
 10
17.501257456827808
 20
33.678034017017687
 30
0.0
 10
17.50125745682784
 20
65.678034017017666
 30
0.0
 10
33.001257456827837
 20
65.678034017017666
 30
0.0
  0
LWPOLYLINE
  5
7C
  8
Corte exterior
 62
256
370
-1
 48
1.0
  6
ByLayer
100
AcDbEntity
100
AcDbPolyline
 90
46
 70
128
 10
60.182826682353998
 20
144.30800724689911
 30
0.0
 42
0.0786507033131566
 10
70.999999999999972
 20
158.9999999999998
 30
0.0
 42
0.2268270516330801
 10
45.125272597883921
 20
144.18132269443069
 30
0.0
 42
0.17201446367342
 10
15.969666791363061
 20
142.0869762576971
 30
0.0
 42
0.196967955815979
 10
1.0000000000000271
 20
158.9999999999994
 30
0.0
 42
0.1080969583311859
 10
5.9930156236928012
 20
134.0159557356539
 30
0.0
 42
0.0549604685868847
 10
4.4193299728592761
 20
130.50514487345001
 30
0.0
 10
3.5744976562016522
 20
115.38343198759171
 30
0.0
 42
0.2948136583154031
 10
10.17119385710669
 20
92.402399133920014
 30
0.0
 42
-0.5287245798769656
 10
8.6314797524729521
 20
84.282869491177308
 30
0.0
 42
0.2156998418642318
 10
3.101413538320406
 20
78.168241443082096
 30
0.0
 42
0.1651974670713778
 10
3.5844476073013469
 20
49.902288590333242
 30
0.0
 42
0.3322897630242765
 10
3.308971262519611
 20
48.88717542597859
 30
0.0
 42
0.2673753467869017
 10
4.1492153372642653
 20
49.44357385556674
 30
0.0
 42
0.1216151144561565
 10
4.494445454530954
 20
48.459028706324887
 30
0.0
 42
0.1928688897729517
 10
5.2840557787430802
 20
49.173821782427169
 30
0.0
 42
0.2127412379991169
 10
5.59092699409128
 20
48.240421835743327
 30
0.0
 42
0.2176016040031977
 10
6.4923611891762683
 20
48.892523168358082
 30
0.0
 42
0.2419149064122966
 10
6.7033351497281091
 20
47.805687614000199
 30
0.0
 42
0.2112265702875481
 10
7.7006665996094803
 20
48.52172044981242
 30
0.0
 42
0.2921747272429421
 10
8.0267172659168242
 20
47.869619117197722
 30
0.0
 42
0.2794086902370109
 10
8.6979980494907423
 20
48.47057524725426
 30
0.0
 42
0.1787823536573872
 10
12.16202512122485
 20
63.277005792723521
 30
0.0
 42
-0.0421110534893507
 10
13.87350179770179
 20
57.060811506157663
 30
0.0
 42
-0.1500845299974112
 10
13.541179231157599
 20
54.144116650085962
 30
0.0
 42
0.1197911349351737
 10
9.9561505600863711
 20
33.622266827559869
 30
0.0
 42
-0.1313091338450196
 10
9.4543232719480397
 20
31.08983997215681
 30
0.0
 42
-0.0317662667702006
 10
6.0850229788316081
 20
25.20880614096933
 30
0.0
 42
-0.1086696238635542
 10
5.8457666820262553
 20
24.851990929773152
 30
0.0
 42
0.1831536975760522
 10
1.0817204758259611
 20
14.859156806800041
 30
0.0
 42
0.0624524959614502
 10
1.092209128379511
 20
14.61053852304428
 30
0.0
 42
0.3460159605450011
 10
5.666000580453268
 20
10.45393963891539
 30
0.0
 42
0.3574531487966508
 10
1.001142926460119
 20
6.0001150006708652
 30
0.0
 42
0.4142202989724721
 10
6.0011429251376072
 20
0.9999999999999715
 30
0.0
 10
21.50125745682784
 20
1.0
 30
0.0
 10
21.50125745682783
 20
5.0
 30
0.0
 10
24.501257456827801
 20
5.0000000000000284
 30
0.0
 10
24.501257456827851
 20
1.0000000000000051
 30
0.0
 42
0.2891445514653329
 10
30.15257177970193
 20
6.43185064591583
 30
0.0
 10
36.849943133953722
 20
6.431850645915822
 30
0.0
 42
0.289144551465333
 10
42.501257456827837
 20
0.9999999999999992
 30
0.0
 10
42.501257456827837
 20
5.0
 30
0.0
 10
45.501257456827837
 20
5.0
 30
0.0
 10
45.501257456827837
 20
1.0
 30
0.0
 10
61.001371988518102
 20
1.0000000000000011
 30
0.0
 42
0.3533370544984643
 10
65.889202782248148
 20
4.946857022116788
 30
0.0
  0
LWPOLYLINE
  5
7D
  8
Corte exterior
 62
256
370
-1
 48
1.0
  6
ByLayer
100
AcDbEntity
100
AcDbPolyline
 90
5
 70
128
 10
66.000998798243714
 20
5.9389118385183073
 30
0.0
 42
0.0030602436547212
 10
66.001371987195611
 20
6.000115000670891
 30
0.0
 42
0.3574531487966505
 10
61.336514333202452
 20
10.453939638915401
 30
0.0
 42
0.346015960545
 10
65.910305785276222
 20
14.61053852304426
 30
0.0
 42
0.0624524959614549
 10
65.920794437829755
 20
14.859156806800041
 30
0.0
  0
LWPOLYLINE
  5
7E
  8
Corte exterior
 62
256
370
-1
 48
1.0
  6
ByLayer
100
AcDbEntity
100
AcDbPolyline
 90
20
 70
128
 10
65.871582482457995
 20
15.35670763912629
 30
0.0
 42
0.1748933744265442
 10
61.156748231629457
 20
24.85199092977318
 30
0.0
 42
-0.1086696238635521
 10
60.917491934824049
 20
25.208806140969521
 30
0.0
 42
-0.0317662667702011
 10
57.548191641707596
 20
31.089839972157051
 30
0.0
 42
-0.1313091338450192
 10
57.046364353569352
 20
33.622266827559933
 30
0.0
 42
0.1197911349351724
 10
53.461335682498209
 20
54.144116650085927
 30
0.0
 42
-0.1500845299974104
 10
53.129013115953889
 20
57.060811506157599
 30
0.0
 42
-0.042111053489351
 10
54.84048979243088
 20
63.277005792723649
 30
0.0
 42
0.1787823536573875
 10
58.304516864164931
 20
48.470575247254423
 30
0.0
 42
0.2794086902370139
 10
58.975797647738887
 20
47.869619117197722
 30
0.0
 42
0.2921747272429419
 10
59.301848314046261
 20
48.521720449812442
 30
0.0
 42
0.2112265702875491
 10
60.299179763927597
 20
47.805687614000178
 30
0.0
 42
0.2419149064122995
 10
60.510153724479423
 20
48.892523168358061
 30
0.0
 42
0.2176016040031981
 10
61.411587919564461
 20
48.240421835743341
 30
0.0
 42
0.2127412379991188
 10
61.718459134912592
 20
49.17382178242714
 30
0.0
 42
0.1928688897729515
 10
62.508069459124783
 20
48.459028706324922
 30
0.0
 42
0.121615114456158
 10
62.853299576391429
 20
49.44357385556674
 30
0.0
 42
0.267375346786902
 10
63.693543651136082
 20
48.887175425978597
 30
0.0
 42
0.3322897630242746
 10
63.418067306354367
 20
49.902288590333129
 30
0.0
 42
0.0819959403706152
 10
65.994175791604533
 20
63.987192324082997
 30
0.0
  0
LWPOLYLINE
  5
7F
  8
Corte exterior
 62
256
370
-1
 48
1.0
  6
ByLayer
100
AcDbEntity
100
AcDbPolyline
 90
7
 70
128
 10
66.00007227751729
 20
64.987153368181538
 30
0.0
 42
0.0763655505068903
 10
63.901101375335287
 20
78.168241443082081
 30
0.0
 42
0.2156998418642324
 10
58.371035161182753
 20
84.282869491177308
 30
0.0
 42
-0.5287245798769669
 10
56.83132105654898
 20
92.402399133920014
 30
0.0
 42
0.2948136583154025
 10
63.428017257454101
 20
115.38343198759171
 30
0.0
 10
62.583184940796443
 20
130.50514487344981
 30
0.0
 42
0.0318854193069888
 10
61.763323029018594
 20
132.5859834458056
 30
0.0
  0
LWPOLYLINE
  5
80
  8
Corte exterior
 62
256
370
-1
 48
1.0
  6
ByLayer
100
AcDbEntity
100
AcDbPolyline
 90
2
 70
128
 10
66.001292096832515
 20
10.083659857838679
 30
0.0
 10
66.001371987195611
 20
6.0001150006708963
 30
0.0
  0
LWPOLYLINE
  5
81
  8
Corte exterior
 62
256
370
-1
 48
1.0
  6
ByLayer
100
AcDbEntity
100
AcDbPolyline
 90
5
 70
128
 10
121.64867265906869
 20
134.07514009588741
 30
0.0
 10
116.4262965988864
 20
145.8241371136931
 30
0.0
 10
100.0
 20
143.0
 30
0.0
 10
98.190482174322284
 20
158.0472119665564
 30
0.0
 42
0.1601952288631545
 10
60.099999999999177
 20
144.19999999999939
 30
0.0
  0
LWPOLYLINE
  5
82
  8
Corte exterior
 62
256
370
-1
 48
1.0
  6
ByLayer
100
AcDbEntity
100
AcDbPolyline
 90
2
 70
128
 10
65.99996811582767
 20
64.505433491181691
 30
0.0
 10
65.99994996835818
 20
15.27544283272422
 30
0.0
  0
LWPOLYLINE
  5
83
  8
Corte exterior
 62
256
370
-1
 48
1.0
  6
ByLayer
100
AcDbEntity
100
AcDbPolyline
 90
2
 70
128
 10
65.999949599731849
 20
14.275442832724281
 30
0.0
 10
65.99994823884353
 20
10.58365983164316
 30
0.0
  0
CIRCLE
  5
84
100
AcDbEntity
100
AcDbCircle
  8
Corte exterior
 62
256
370
-1
 48
1.0
  6
ByLayer
 10
107.5
 20
49.5
 30
0.0
 40
5.0
  0
LWPOLYLINE
  5
85
  8
mesa de trabajo y auxiliares
 62
256
370
-1
 48
1.0
  6
ByLayer
100
AcDbEntity
100
AcDbPolyline
 90
4
 70
129
 10
0.0
 20
0.0
 30
0.0
 10
150.0
 20
0.0
 30
0.0
 10
150.0
 20
160.0
 30
0.0
 10
0.0
 20
160.0
 30
0.0
  0
LWPOLYLINE
  5
86
  8
mesa de trabajo y auxiliares
 62
256
370
-1
 48
1.0
  6
ACAD_ISO02W100
100
AcDbEntity
100
AcDbPolyline
 90
4
 70
129
 10
1.0
 20
1.0
 30
0.0
 10
149.0
 20
1.0
 30
0.0
 10
149.0
 20
159.0
 30
0.0
 10
1.0
 20
159.0
 30
0.0
  0
LWPOLYLINE
  5
87
  8
grabado linea medio
 62
256
370
-1
 48
1.0
  6
ByLayer
100
AcDbEntity
100
AcDbPolyline
 90
2
 70
128
 10
6.0025149136557214
 20
8.9999999999999645
 30
0.0
 42
0.2362339774015403
 10
1.0037723704835591
 20
5.999999999999968
 30
0.0
  0
LWPOLYLINE
  5
88
  8
grabado linea medio
 62
256
370
-1
 48
1.0
  6
ByLayer
100
AcDbEntity
100
AcDbPolyline
 90
2
 70
128
 10
65.99874254317217
 20
5.9999999999999858
 30
0.0
 42
0.2362339774015396
 10
61.000000000000007
 20
9.0
 30
0.0
  0
LWPOLYLINE
  5
89
  8
grabado linea medio
 62
256
370
-1
 48
1.0
  6
ByLayer
100
AcDbEntity
100
AcDbPolyline
 90
2
 70
128
 10
6.0808753370159021
 20
7.110636822620422
 30
0.0
 42
0.3027756377319938
 10
1.0808753370159061
 20
5.1106368226204362
 30
0.0
  0
LWPOLYLINE
  5
8A
  8
grabado linea medio
 62
256
370
-1
 48
1.0
  6
ByLayer
100
AcDbEntity
100
AcDbPolyline
 90
2
 70
128
 10
65.921639576639862
 20
5.1106368226204451
 30
0.0
 42
0.302775637731995
 10
60.921639576639862
 20
7.1106368226204308
 30
0.0
  0
LWPOLYLINE
  5
8B
  8
grabado linea medio
 62
256
370
-1
 48
1.0
  6
ByLayer
100
AcDbEntity
100
AcDbPolyline
 90
2
 70
128
 10
6.0025149136557001
 20
5.0000000000000124
 30
0.0
 42
0.1036250846869222
 10
1.2896694025498621
 20
4.431659376828593
 30
0.0
  0
LWPOLYLINE
  5
8C
  8
grabado linea medio
 62
256
370
-1
 48
1.0
  6
ByLayer
100
AcDbEntity
100
AcDbPolyline
 90
2
 70
128
 10
65.712845511105854
 20
4.4316593768285628
 30
0.0
 42
0.1036250846869222
 10
61.000000000000021
 20
5.0000000000000044
 30
0.0
  0
LWPOLYLINE
  5
8D
  8
grabado linea medio
 62
256
370
-1
 48
1.0
  6
ByLayer
100
AcDbEntity
100
AcDbPolyline
 90
3
 70
129
 10
36.54851888434326
 20
104.3890295428681
 30
0.0
 42
-0.3282347853003184
 10
30.453996029312421
 20
104.3890295428681
 30
0.0
 42
0.1949511493218768
 10
33.501257456827851
 20
106.5780885492273
 30
0.0
 42
0.1949511493218769
  0
LWPOLYLINE
  5
8E
  8
grabado linea medio
 62
256
370
-1
 48
1.0
  6
ByLayer
100
AcDbEntity
100
AcDbPolyline
 90
4
 70
128
 10
39.751257456767441
 20
97.3218550857802
 30
0.0
 42
-1.2248182888759791
 10
27.251257456827869
 20
97.321992841152834
 30
0.0
 42
0.2602731777257668
 10
33.501257456827858
 20
100.67803401701769
 30
0.0
 42
0.260273177725767
 10
39.751257456827808
 20
97.321992841152834
 30
0.0
  0
ARC
  5
8F
100
AcDbEntity
  8
grabado linea medio
 62
256
370
-1
 48
1.0
  6
ByLayer
100
AcDbCircle
 10
29.655299016358981
 20
111.8834171611534
 30
0.0
 40
27.552502921407928
100
AcDbArc
 50
224.9954605652274
 51
257.33467083433533
  0
ARC
  5
90
100
AcDbEntity
  8
grabado linea medio
 62
256
370
-1
 48
1.0
  6
ByLayer
100
AcDbCircle
 10
37.347215897296728
 20
111.8834171611534
 30
0.0
 40
27.552502921407928
100
AcDbArc
 50
282.66532916566467
 51
315.00453943477248
  0
ARC
  5
91
100
AcDbEntity
  8
grabado linea medio
 62
256
370
-1
 48
1.0
  6
ByLayer
100
AcDbCircle
 10
7.2721186499424562
 20
100.7870417419866
 30
0.0
 40
4.346473409317503
100
AcDbArc
 50
258.29290460986232
 51
150.60339472305409
  0
ARC
  5
92
100
AcDbEntity
  8
grabado linea medio
 62
256
370
-1
 48
1.0
  6
ByLayer
100
AcDbCircle
 10
59.730396263713281
 20
100.7870417419866
 30
0.0
 40
4.346473409317503
100
AcDbArc
 50
29.396605276945753
 51
281.70709539013768
  0
LWPOLYLINE
  5
93
  8
Corte exterior
 62
256
370
-1
 48
1.0
  6
ByLayer
100
AcDbEntity
100
AcDbPolyline
 90
2
 70
129
 10
0.0
 20
0.0
 30
0.0
 10
0.0
 20
0.0
 30
0.0
  0
LWPOLYLINE
  5
94
  8
Corte exterior
 62
256
370
-1
 48
1.0
  6
ByLayer
100
AcDbEntity
100
AcDbPolyline
 90
2
 70
129
 10
0.0
 20
0.0
 30
0.0
 10
0.0
 20
0.0
 30
0.0
  0
LWPOLYLINE
  5
95
  8
Corte exterior
 62
256
370
-1
 48
1.0
  6
ByLayer
100
AcDbEntity
100
AcDbPolyline
 90
4
 70
128
 10
125.9812162995831
 20
127.0
 30
0.0
 10
115.17450377340739
 20
122.1228283069743
 30
0.0
 10
110.3193334947146
 20
132.5801990034696
 30
0.0
 10
87.559661926448626
 20
127.11671006305581
 30
0.0
  0
LWPOLYLINE
  5
96
  8
Corte exterior
 62
256
370
-1
 48
1.0
  6
ByLayer
100
AcDbEntity
100
AcDbPolyline
 90
3
 70
128
 10
87.02033324203434
 20
127.497168046589
 30
0.0
 10
85.711088584953814
 20
139.74605960353949
 30
0.0
 42
0.0606506191876305
 10
61.538110268848889
 20
133.03288606063629
 30
0.0
  0
LWPOLYLINE
  5
97
  8
Corte exterior
 62
256
370
-1
 48
1.0
  6
ByLayer
100
AcDbEntity
100
AcDbPolyline
 90
2
 70
128
 10
59.825576066488281
 20
143.9581923418578
 30
0.0
 42
0.0785326075409243
 10
61.477200182661171
 20
133.5408348459232
 30
0.0
  0
LWPOLYLINE
  5
98
  8
Corte exterior
 62
256
370
-1
 48
1.0
  6
ByLayer
100
AcDbEntity
100
AcDbPolyline
 90
3
 70
128
 10
61.31267297828829
 20
133.47853266483139
 30
0.0
 42
0.12844833352831
 10
55.254829215790608
 20
139.9610877444253
 30
0.0
 42
0.0238887391437505
 10
59.46534111068064
 20
143.6114514487503
 30
0.0
  0
LINE
  5
99
100
AcDbEntity
100
AcDbLine
  8
Corte exterior
 62
256
370
-1
 48
1.0
  6
ByLayer
 10
89.999999582371998
 20
4.5
 30
0.0
 11
65.999999164744295
 21
4.5
 31
0.0
  0
LINE
  5
9A
100
AcDbEntity
100
AcDbLine
  8
Corte exterior
 62
256
370
-1
 48
1.0
  6
ByLayer
 10
89.999999582372126
 20
1.0000000000000011
 30
0.0
 11
89.999999582371998
 21
4.5
 31
0.0
  0
LINE
  5
9B
100
AcDbEntity
100
AcDbLine
  8
Corte exterior
 62
256
370
-1
 48
1.0
  6
ByLayer
 10
99.99999958237207
 20
1.0
 30
0.0
 11
89.999999582372126
 21
1.0
 31
0.0
  0
LINE
  5
9C
100
AcDbEntity
100
AcDbLine
  8
Corte exterior
 62
256
370
-1
 48
1.0
  6
ByLayer
 10
99.999999582372112
 20
4.5
 30
0.0
 11
99.999999582372112
 21
1.0000000000000011
 31
0.0
  0
LINE
  5
9D
100
AcDbEntity
100
AcDbLine
  8
Corte exterior
 62
256
370
-1
 48
1.0
  6
ByLayer
 10
114.9999995823721
 20
4.5
 30
0.0
 11
99.999999582372112
 21
4.5
 31
0.0
  0
LINE
  5
9E
100
AcDbEntity
100
AcDbLine
  8
Corte exterior
 62
256
370
-1
 48
1.0
  6
ByLayer
 10
114.9999995823721
 20
1.0000000000000011
 30
0.0
 11
114.9999995823721
 21
4.5
 31
0.0
  0
LINE
  5
9F
100
AcDbEntity
100
AcDbLine
  8
Corte exterior
 62
256
370
-1
 48
1.0
  6
ByLayer
 10
124.999999582372
 20
1.0000000000000011
 30
0.0
 11
114.9999995823721
 21
1.0
 31
0.0
  0
LINE
  5
A0
100
AcDbEntity
100
AcDbLine
  8
Corte exterior
 62
256
370
-1
 48
1.0
  6
ByLayer
 10
124.9999995823721
 20
4.5
 30
0.0
 11
124.9999995823721
 21
1.0000000000000011
 31
0.0
  0
LINE
  5
A1
100
AcDbEntity
100
AcDbLine
  8
Corte exterior
 62
256
370
-1
 48
1.0
  6
ByLayer
 10
149.0
 20
4.5
 30
0.0
 11
124.9999995823721
 21
4.5
 31
0.0
  0
LINE
  5
A2
100
AcDbEntity
100
AcDbLine
  8
Corte exterior
 62
256
370
-1
 48
1.0
  6
ByLayer
 10
149.0
 20
130.5
 30
0.0
 11
149.0
 21
4.5
 31
0.0
  0
LINE
  5
A3
100
AcDbEntity
100
AcDbLine
  8
Corte exterior
 62
256
370
-1
 48
1.0
  6
ByLayer
 10
139.0
 20
130.5
 30
0.0
 11
149.0
 21
130.5
 31
0.0
  0
LINE
  5
A4
100
AcDbEntity
100
AcDbLine
  8
Corte exterior
 62
256
370
-1
 48
1.0
  6
ByLayer
 10
139.0
 20
132.5
 30
0.0
 11
139.0
 21
130.5
 31
0.0
  0
LINE
  5
A5
100
AcDbEntity
100
AcDbLine
  8
Corte exterior
 62
256
370
-1
 48
1.0
  6
ByLayer
 10
149.0
 20
132.5
 30
0.0
 11
139.0
 21
132.5
 31
0.0
  0
LINE
  5
A6
100
AcDbEntity
100
AcDbLine
  8
Corte exterior
 62
256
370
-1
 48
1.0
  6
ByLayer
 10
149.0
 20
136.0
 30
0.0
 11
149.0
 21
132.5
 31
0.0
  0
LWPOLYLINE
  5
A7
  8
grabado linea medio
 62
256
370
-1
 48
1.0
  6
ByLayer
100
AcDbEntity
100
AcDbPolyline
 90
3
 70
0
 10
125.9812162995831
 20
115.2
 30
0.0
 10
130.68121629958301
 20
115.2
 30
0.0
 10
130.68121629958301
 20
127.0
 30
0.0
  0
LWPOLYLINE
  5
A8
  8
grabado linea medio
 62
256
370
-1
 48
1.0
  6
ByLayer
100
AcDbEntity
100
AcDbPolyline
 90
3
 70
0
 10
98.081216299583076
 20
127.0
 30
0.0
 10
98.081216299583076
 20
115.2
 30
0.0
 10
102.78121629958299
 20
115.2
 30
0.0
  0
ARC
  5
A9
100
AcDbEntity
  8
grabado linea medio
 62
256
370
-1
 48
1.0
  6
ByLayer
100
AcDbCircle
 10
56.20403097971267
 20
-34.847834074865972
 30
0.0
 40
45.591590090591268
100
AcDbArc
 50
83.536212793866611
 51
115.11965464117171
  0
ARC
  5
AA
100
AcDbEntity
  8
grabado linea medio
 62
256
370
-1
 48
1.0
  6
ByLayer
100
AcDbCircle
 10
10.798483933942981
 20
-34.847834074865972
 30
0.0
 40
45.591590090591268
100
AcDbArc
 50
64.880345358828208
 51
96.463787206133375
  0
ARC
  5
AB
100
AcDbEntity
  8
grabado linea medio
 62
256
370
-1
 48
1.0
  6
ByLayer
100
AcDbCircle
 10
63.595697331234142
 20
154.17457947368939
 30
0.0
 40
4.7007577888393284
100
AcDbArc
 50
157.13551011255043
 51
287.30292184729677
  0
ARC
  5
AC
100
AcDbEntity
  8
grabado linea medio
 62
256
370
-1
 48
1.0
  6
ByLayer
100
AcDbCircle
 10
-6.4999999999999352
 20
160.50000000000011
 30
0.0
 40
17.734147850968242
100
AcDbArc
 50
300.02952946174707
 51
334.15994591652515
  0
LINE
  5
AD
100
AcDbEntity
100
AcDbLine
  8
grabado linea medio
 62
256
370
-1
 48
1.0
  6
ByLayer
 10
110.3193334947146
 20
132.5801990034696
 30
0.0
 11
116.4262965988864
 21
145.8241371136931
 31
0.0
  0
LINE
  5
AE
100
AcDbEntity
100
AcDbLine
  8
grabado linea medio
 62
256
370
-1
 48
1.0
  6
ByLayer
 10
121.64867265906869
 20
134.07514009588741
 30
0.0
 11
112.746918634061
 21
127.35151365522189
 31
0.0
  0
LWPOLYLINE
  5
AF
  8
grabado linea medio
 62
256
370
-1
 48
1.0
  6
ByLayer
100
AcDbEntity
100
AcDbPolyline
 90
3
 70
0
 10
73.421020360855806
 20
137.12252588332831
 30
0.0
 10
90.0
 20
150.0
 30
0.0
 10
95.060907202728117
 20
128.9173938068154
 30
0.0
  0
LWPOLYLINE
  5
B0
  8
grabado linea medio
 62
256
370
-1
 48
1.0
  6
ByLayer
100
AcDbEntity
100
AcDbPolyline
 90
6
 70
0
 10
63.418067306354359
 20
49.902288590333129
 30
0.0
 42
0.9845480783244468
 10
62.853299576391443
 20
49.44357385556674
 30
0.0
 42
0.5202919970607303
 10
61.718459134912599
 20
49.17382178242714
 30
0.0
 42
0.6734462072332248
 10
60.510153724479423
 20
48.892523168358039
 30
0.0
 42
0.5518089745048949
 10
59.301848314046239
 20
48.521720449812442
 30
0.0
 42
0.4434406688242605
 10
58.304516864164931
 20
48.470575247254409
 30
0.0
  0
LWPOLYLINE
  5
B1
  8
grabado linea medio
 62
256
370
-1
 48
1.0
  6
ByLayer
100
AcDbEntity
100
AcDbPolyline
 90
6
 70
0
 10
8.6958335076573192
 20
48.466945267607713
 30
0.0
 42
0.4434406688242605
 10
7.6984945836353633
 20
48.517944515619689
 30
0.0
 42
0.5518089745048951
 10
6.4901349211930572
 20
48.888570401311988
 30
0.0
 42
0.6734462072332242
 10
5.2817883571865041
 20
49.169692183486241
 30
0.0
 42
0.5202919970607304
 10
4.1469084511206331
 20
49.439278176050607
 30
0.0
 42
0.9845480783244459
 10
3.5820735968149719
 20
49.897910255239132
 30
0.0
  0
LWPOLYLINE
  5
B2
  8
Corte exterior
 62
256
370
-1
 48
1.0
  6
ByLayer
100
AcDbEntity
100
AcDbPolyline
 90
2
 70
1
 10
149.0
 20
136.0
 30
0.0
 10
121.64867265906869
 20
134.07514009588741
 30
0.0
  0
LWPOLYLINE
  5
B3
  8
Corte exterior
 62
256
370
-1
 48
1.0
  6
ByLayer
100
AcDbEntity
100
AcDbPolyline
 90
18
 70
0
 10
33.000610768941712
 20
46.69860008162788
 30
0.0
 10
26.500610768941709
 20
46.69860008162788
 30
0.0
 10
26.500610768941709
 20
49.0986000816279
 30
0.0
 10
30.500610768941709
 20
49.0986000816279
 30
0.0
 10
30.500610768941709
 20
52.515916787150367
 30
0.0
 10
21.500610768941701
 20
52.515916787150367
 30
0.0
 10
21.500610768941701
 20
38.515916787150381
 30
0.0
 10
24.50061076894168
 20
38.515916787150381
 30
0.0
 10
24.50061076894168
 20
42.515916787150381
 30
0.0
 10
42.500610768941641
 20
42.515916787150381
 30
0.0
 10
42.500610768941641
 20
38.515916787150381
 30
0.0
 10
45.500610768941662
 20
38.515916787150381
 30
0.0
 10
45.500610768941662
 20
52.515916787150367
 30
0.0
 10
36.486996170963991
 20
52.515916787150367
 30
0.0
 10
36.486996170963991
 20
49.0986000816279
 30
0.0
 10
40.500610768941712
 20
49.0986000816279
 30
0.0
 10
40.500610768941712
 20
46.69860008162788
 30
0.0
 10
34.000610768941712
 20
46.69860008162788
 30
0.0
  0
ENDSEC
  0
SECTION
  2
OBJECTS
  0
DICTIONARY
  5
C
100
AcDbDictionary
280
0
281
1
  3
ACAD_GROUP
350
D
  3
ACAD_LAYOUT
350
1A
  3
ACAD_MLINESTYLE
350
17
  3
ACAD_PLOTSETTINGS
350
19
  3
ACAD_PLOTSTYLENAME
350
E
  3
AcDbVariableDictionary
350
B4
  3
QCAD_OBJECTS
350
B5
  0
DICTIONARY
  5
D
100
AcDbDictionary
280
0
281
1
  0
ACDBDICTIONARYWDFLT
  5
E
100
AcDbDictionary
281
1
  3
Normal
350
F
100
AcDbDictionaryWithDefault
340
F
  0
ACDBPLACEHOLDER
  5
F
  0
DICTIONARY
  5
17
100
AcDbDictionary
280
0
281
1
  3
Standard
350
18
  0
MLINESTYLE
  5
18
100
AcDbMlineStyle
  2
STANDARD
 70
0
  3

 62
256
 51
90.0
 52
90.0
 71
2
 49
0.5
 62
256
  6
BYLAYER
 49
-0.5
 62
256
  6
BYLAYER
  0
DICTIONARY
  5
19
100
AcDbDictionary
280
0
281
1
  0
DICTIONARY
  5
1A
100
AcDbDictionary
281
1
  3
Layout1
350
1E
  3
Layout2
350
26
  3
Model
350
22
  0
LAYOUT
  5
1E
100
AcDbPlotSettings
  1

  2
none_device
  4

  6

 40
0.0
 41
0.0
 42
0.0
 43
0.0
 44
0.0
 45
0.0
 46
0.0
 47
0.0
 48
0.0
 49
0.0
140
0.0
141
0.0
142
1.0
143
1.0
 70
688
 72
0
 73
0
 74
5
  7

 75
16
147
1.0
148
0.0
149
0.0
100
AcDbLayout
  1
Layout1
 70
1
 71
1
 10
0.0
 20
0.0
 11
420.0
 21
297.0
 12
0.0
 22
0.0
 32
0.0
 14
100000000000000000000.0
 24
100000000000000000000.0
 34
100000000000000000000.0
 15
-100000000000000000000.0
 25
-100000000000000000000.0
 35
-100000000000000000000.0
146
0.0
 13
0.0
 23
0.0
 33
0.0
 16
1.0
 26
0.0
 36
0.0
 17
0.0
 27
1.0
 37
0.0
 76
0
330
1B
  0
LAYOUT
  5
22
100
AcDbPlotSettings
  1

  2
none_device
  4

  6

 40
0.0
 41
0.0
 42
0.0
 43
0.0
 44
0.0
 45
0.0
 46
0.0
 47
0.0
 48
0.0
 49
0.0
140
0.0
141
0.0
142
1.0
143
1.0
 70
1712
 72
0
 73
0
 74
0
  7

 75
0
147
1.0
148
0.0
149
0.0
100
AcDbLayout
  1
Model
 70
1
 71
0
 10
0.0
 20
0.0
 11
12.0
 21
9.0
 12
0.0
 22
0.0
 32
0.0
 14
0.0
 24
0.0
 34
0.0
 15
0.0
 25
0.0
 35
0.0
146
0.0
 13
0.0
 23
0.0
 33
0.0
 16
1.0
 26
0.0
 36
0.0
 17
0.0
 27
1.0
 37
0.0
 76
0
330
1F
  0
LAYOUT
  5
26
100
AcDbPlotSettings
  1

  2
none_device
  4

  6

 40
0.0
 41
0.0
 42
0.0
 43
0.0
 44
0.0
 45
0.0
 46
0.0
 47
0.0
 48
0.0
 49
0.0
140
0.0
141
0.0
142
1.0
143
1.0
 70
688
 72
0
 73
0
 74
5
  7

 75
16
147
1.0
148
0.0
149
0.0
100
AcDbLayout
  1
Layout2
 70
1
 71
2
 10
0.0
 20
0.0
 11
12.0
 21
9.0
 12
0.0
 22
0.0
 32
0.0
 14
0.0
 24
0.0
 34
0.0
 15
0.0
 25
0.0
 35
0.0
146
0.0
 13
0.0
 23
0.0
 33
0.0
 16
1.0
 26
0.0
 36
0.0
 17
0.0
 27
1.0
 37
0.0
 76
0
330
23
  0
DICTIONARY
  5
B4
100
AcDbDictionary
281
1
  3
DIMASSOC
350
B7
  3
HIDETEXT
350
B6
  0
DICTIONARYVAR
  5
B6
100
DictionaryVariables
280
0
  1
2
  0
DICTIONARYVAR
  5
B7
100
DictionaryVariables
280
0
  1
1
  0
DICTIONARY
  5
B5
100
AcDbDictionary
281
1
  3
ACAD_CIP_PREVIOUS_PRODUCT_INFO
350
B8
  3
ColorSettings/BackgroundColor
350
B9
  3
ColorSettings/ColorMode
350
BA
  3
Grid/DisplayGrid00
350
BB
  3
Grid/DisplayGrid01
350
BC
  3
Grid/DisplayGrid02
350
BD
  3
Grid/DisplayGrid03
350
BE
  3
Grid/GridSpacingX00
350
BF
  3
Grid/GridSpacingX01
350
C0
  3
Grid/GridSpacingX02
350
C1
  3
Grid/GridSpacingX03
350
C2
  3
Grid/GridSpacingY00
350
C3
  3
Grid/GridSpacingY01
350
C4
  3
Grid/GridSpacingY02
350
C5
  3
Grid/GridSpacingY03
350
C6
  3
Grid/IsometricGrid00
350
C7
  3
Grid/IsometricGrid01
350
C8
  3
Grid/IsometricGrid02
350
C9
  3
Grid/IsometricGrid03
350
CA
  3
Grid/IsometricProjection00
350
CB
  3
Grid/IsometricProjection01
350
CC
  3
Grid/IsometricProjection02
350
CD
  3
Grid/IsometricProjection03
350
CE
  3
Grid/MetaGridSpacingX00
350
CF
  3
Grid/MetaGridSpacingX01
350
D0
  3
Grid/MetaGridSpacingX02
350
D1
  3
Grid/MetaGridSpacingX03
350
D2
  3
Grid/MetaGridSpacingY00
350
D3
  3
Grid/MetaGridSpacingY01
350
D4
  3
Grid/MetaGridSpacingY02
350
D5
  3
Grid/MetaGridSpacingY03
350
D6
  3
MultiPageSettings/Columns
350
D7
  3
MultiPageSettings/GlueMarginsBottom
350
D8
  3
MultiPageSettings/GlueMarginsLeft
350
D9
  3
MultiPageSettings/GlueMarginsRight
350
DA
  3
MultiPageSettings/GlueMarginsTop
350
DB
  3
MultiPageSettings/PrintCropMarks
350
DC
  3
MultiPageSettings/Rows
350
DD
  3
PageSettings/OffsetX
350
DE
  3
PageSettings/OffsetY
350
DF
  3
PageSettings/PageOrientation
350
E0
  3
PageSettings/PaperHeight
350
E1
  3
PageSettings/PaperWidth
350
E2
  3
PageSettings/Scale
350
E3
  3
PageSettings/ShowPaperBorders
350
E4
  3
QCADVersion
350
E5
  3
UnitSettings/PaperUnit
350
E6
  3
ViewportCenter
350
E7
  3
ViewportHeight
350
E8
  3
ViewportWidth
350
E9
  0
XRECORD
  5
B9
330
B5
100
AcDbXrecord
280
1
1000
#ffffff
  0
XRECORD
  5
BA
330
B5
100
AcDbXrecord
280
1
1000
FullColor
  0
XRECORD
  5
BB
330
B5
100
AcDbXrecord
280
1
290
1
  0
XRECORD
  5
BC
330
B5
100
AcDbXrecord
280
1
290
1
  0
XRECORD
  5
BD
330
B5
100
AcDbXrecord
280
1
290
1
  0
XRECORD
  5
BE
330
B5
100
AcDbXrecord
280
1
290
1
  0
XRECORD
  5
BF
330
B5
100
AcDbXrecord
280
1
1000
auto
  0
XRECORD
  5
C0
330
B5
100
AcDbXrecord
280
1
1000
auto
  0
XRECORD
  5
C1
330
B5
100
AcDbXrecord
280
1
1000
auto
  0
XRECORD
  5
C2
330
B5
100
AcDbXrecord
280
1
1000
auto
  0
XRECORD
  5
C3
330
B5
100
AcDbXrecord
280
1
1000
auto
  0
XRECORD
  5
C4
330
B5
100
AcDbXrecord
280
1
1000
auto
  0
XRECORD
  5
C5
330
B5
100
AcDbXrecord
280
1
1000
auto
  0
XRECORD
  5
C6
330
B5
100
AcDbXrecord
280
1
1000
auto
  0
XRECORD
  5
C7
330
B5
100
AcDbXrecord
280
1
290
0
  0
XRECORD
  5
C8
330
B5
100
AcDbXrecord
280
1
290
0
  0
XRECORD
  5
C9
330
B5
100
AcDbXrecord
280
1
290
0
  0
XRECORD
  5
CA
330
B5
100
AcDbXrecord
280
1
290
0
  0
XRECORD
  5
CB
330
B5
100
AcDbXrecord
280
1
 90
0
  0
XRECORD
  5
CC
330
B5
100
AcDbXrecord
280
1
 90
0
  0
XRECORD
  5
CD
330
B5
100
AcDbXrecord
280
1
 90
0
  0
XRECORD
  5
CE
330
B5
100
AcDbXrecord
280
1
 90
0
  0
XRECORD
  5
CF
330
B5
100
AcDbXrecord
280
1
1000
auto
  0
XRECORD
  5
D0
330
B5
100
AcDbXrecord
280
1
1000
auto
  0
XRECORD
  5
D1
330
B5
100
AcDbXrecord
280
1
1000
auto
  0
XRECORD
  5
D2
330
B5
100
AcDbXrecord
280
1
1000
auto
  0
XRECORD
  5
D3
330
B5
100
AcDbXrecord
280
1
1000
auto
  0
XRECORD
  5
D4
330
B5
100
AcDbXrecord
280
1
1000
auto
  0
XRECORD
  5
D5
330
B5
100
AcDbXrecord
280
1
1000
auto
  0
XRECORD
  5
D6
330
B5
100
AcDbXrecord
280
1
1000
auto
  0
XRECORD
  5
D7
330
B5
100
AcDbXrecord
280
1
 90
1
  0
XRECORD
  5
D8
330
B5
100
AcDbXrecord
280
1
 40
10.0
  0
XRECORD
  5
D9
330
B5
100
AcDbXrecord
280
1
 40
10.0
  0
XRECORD
  5
DA
330
B5
100
AcDbXrecord
280
1
 40
10.0
  0
XRECORD
  5
DB
330
B5
100
AcDbXrecord
280
1
 40
10.0
  0
XRECORD
  5
DC
330
B5
100
AcDbXrecord
280
1
290
0
  0
XRECORD
  5
DD
330
B5
100
AcDbXrecord
280
1
 90
1
  0
XRECORD
  5
DE
330
B5
100
AcDbXrecord
280
1
 40
0.0
  0
XRECORD
  5
DF
330
B5
100
AcDbXrecord
280
1
 40
0.0
  0
XRECORD
  5
E0
330
B5
100
AcDbXrecord
280
1
1000
Portrait
  0
XRECORD
  5
E1
330
B5
100
AcDbXrecord
280
1
 40
279.39999999999998
  0
XRECORD
  5
E2
330
B5
100
AcDbXrecord
280
1
 40
215.90000000000001
  0
XRECORD
  5
E3
330
B5
100
AcDbXrecord
280
1
1000
1:1
  0
XRECORD
  5
E4
330
B5
100
AcDbXrecord
280
1
290
1
  0
XRECORD
  5
E5
330
B5
100
AcDbXrecord
280
1
1000
3.15.2
  0
XRECORD
  5
E6
330
B5
100
AcDbXrecord
280
1
 90
4
  0
XRECORD
  5
E8
330
B5
100
AcDbXrecord
280
1
 40
180.0317460317458
  0
XRECORD
  5
E9
330
B5
100
AcDbXrecord
280
1
 40
362.16666666666617
  0
ENDSEC
  0
EOF
