999
dxflib 3.12.2.0
  0
SECTION
  2
HEADER
  9
$ACADVER
  1
AC1015
  9
$HANDSEED
  5
FFFF
  9
$ANGBASE
 50
0.0
  9
$ATTMODE
 70
1
  9
$AUNITS
 70
0
  9
$AUPREC
 70
0
  9
$CELTSCALE
 40
1.0
  9
$CHAMFERA
 40
0.0
  9
$CHAMFERB
 40
0.0
  9
$CHAMFERC
 40
0.0
  9
$CHAMFERD
 40
0.0
  9
$CMLJUST
 70
0
  9
$CMLSCALE
 40
1.0
  9
$DIMADEC
 70
0
  9
$DIMALTD
 70
2
  9
$DIMALTF
 40
25.399999999999999
  9
$DIMALTRND
 40
0.0
  9
$DIMALTTD
 70
2
  9
$DIMALTTZ
 70
0
  9
$DIMALTU
 70
2
  9
$DIMALTZ
 70
0
  9
$DIMAPOST
  1

  9
$DIMASZ
 40
0.18
  9
$DIMATFIT
 70
3
  9
$DIMAUNIT
 70
0
  9
$DIMAZIN
 70
0
  9
$DIMCEN
 40
0.09
  9
$DIMDEC
 70
4
  9
$DIMDLE
 40
0.0
  9
$DIMDLI
 40
0.38
  9
$DIMDSEP
 70
46
  9
$DIMEXE
 40
0.18
  9
$DIMEXO
 40
0.0625
  9
$DIMFRAC
 70
0
  9
$DIMGAP
 40
0.09
  9
$DIMJUST
 70
0
  9
$DIMLFAC
 40
1.0
  9
$DIMLUNIT
 70
2
  9
$DIMLWD
 70
-2
  9
$DIMLWE
 70
-2
  9
$DIMPOST
  1

  9
$DIMRND
 40
0.0
  9
$DIMSCALE
 40
1.0
  9
$DIMTAD
 70
0
  9
$DIMTDEC
 70
4
  9
$DIMTFAC
 40
1.0
  9
$DIMTM
 40
0.0
  9
$DIMTOLJ
 70
1
  9
$DIMTP
 40
0.0
  9
$DIMTSZ
 40
0.0
  9
$DIMTVP
 40
0.0
  9
$DIMTXT
 40
0.18
  9
$DIMTZIN
 70
0
  9
$DIMZIN
 70
0
  9
$DWGCODEPAGE
  3
ANSI_1252
  9
$ELEVATION
 40
0.0
  9
$EXTMAX
 10
149.5
 20
158.44000000000051
 30
0.0
  9
$EXTMIN
 10
1.4999999999999201
 20
0.9999999999999291
 30
0.0
  9
$FILLETRAD
 40
0.5
  9
$INSBASE
 10
0.0
 20
0.0
 30
0.0
  9
$INSUNITS
 70
0
  9
$LIMMAX
 10
12.0
 20
9.0
  9
$LIMMIN
 10
0.0
 20
0.0
  9
$LTSCALE
 40
1.0
  9
$LUNITS
 70
2
  9
$LUPREC
 70
4
  9
$MAXACTVP
 70
2
  9
$MEASUREMENT
 70
1
  9
$PDMODE
 70
0
  9
$PDSIZE
 40
0.0
  9
$PELEVATION
 40
0.0
  9
$PEXTMAX
 10
0.0
 20
0.0
 30
0.0
  9
$PEXTMIN
 10
0.0
 20
0.0
 30
0.0
  9
$PINSBASE
 10
0.0
 20
0.0
 30
0.0
  9
$PLIMMAX
 10
277.0
 20
202.5
  9
$PLIMMIN
 10
-20.0
 20
-7.5
  9
$PLINEWID
 40
0.0
  9
$PROXYGRAPHICS
 70
1
  9
$PUCSORG
 10
0.0
 20
0.0
 30
0.0
  9
$PUCSXDIR
 10
1.0
 20
0.0
 30
0.0
  9
$PUCSYDIR
 10
0.0
 20
1.0
 30
0.0
  9
$SHADEDGE
 70
3
  9
$SHADEDIF
 70
70
  9
$SKETCHINC
 40
0.1
  9
$SPLINESEGS
 70
8
  9
$SPLINETYPE
 70
6
  9
$SURFTAB1
 70
6
  9
$SURFTAB2
 70
6
  9
$SURFTYPE
 70
6
  9
$SURFU
 70
6
  9
$SURFV
 70
6
  9
$TEXTSIZE
 40
2.5
  9
$THICKNESS
 40
0.0
  9
$TRACEWID
 40
0.05
  9
$TREEDEPTH
 70
3020
  9
$UCSORG
 10
0.0
 20
0.0
 30
0.0
  9
$UCSXDIR
 10
1.0
 20
0.0
 30
0.0
  9
$UCSYDIR
 10
0.0
 20
1.0
 30
0.0
  9
$UNITMODE
 70
0
  9
$USERI1
 70
0
  9
$USERI2
 70
0
  9
$USERI3
 70
0
  9
$USERI4
 70
0
  9
$USERI5
 70
0
  9
$USERR1
 40
0.0
  9
$USERR2
 40
0.0
  9
$USERR3
 40
0.0
  9
$USERR4
 40
0.0
  9
$USERR5
 40
0.0
  0
ENDSEC
  0
SECTION
  2
TABLES
  0
TABLE
  2
VPORT
  5
8
100
AcDbSymbolTable
 70
1
  0
VPORT
  5
30
100
AcDbSymbolTableRecord
100
AcDbViewportTableRecord
  2
*Active
 70
0
 10
0.0
 20
0.0
 11
1.0
 21
1.0
 12
286.30555555555549
 22
148.5
 13
0.0
 23
0.0
 14
10.0
 24
10.0
 15
10.0
 25
10.0
 16
0.0
 26
0.0
 36
1.0
 17
0.0
 27
0.0
 37
0.0
 40
297.0
 41
1.92798353909465
 42
50.0
 43
0.0
 44
0.0
 50
0.0
 51
0.0
 71
0
 72
100
 73
1
 74
3
 75
1
 76
1
 77
0
 78
0
281
0
 65
1
110
0.0
120
0.0
130
0.0
111
1.0
121
0.0
131
0.0
112
0.0
122
1.0
132
0.0
 79
0
146
0.0
  0
ENDTAB
  0
TABLE
  2
LTYPE
  5
5
100
AcDbSymbolTable
 70
50
  0
LTYPE
  5
16
100
AcDbSymbolTableRecord
100
AcDbLinetypeTableRecord
  2
Continuous
 70
0
  3
Solid line
 72
65
 73
0
 40
0.0
  0
LTYPE
  5
31
100
AcDbSymbolTableRecord
100
AcDbLinetypeTableRecord
  2
ACAD_ISO15W100
 70
0
  3
ISO double-dash triple-dot __ __ . . . __ __ . .
 72
65
 73
10
 40
39.000000000000007
 49
12.0
 74
0
 49
-3.0
 74
0
 49
12.0
 74
0
 49
-2.9500000000000002
 74
0
 49
0.1
 74
0
 49
-2.8999999999999999
 74
0
 49
0.1
 74
0
 49
-2.8999999999999999
 74
0
 49
0.1
 74
0
 49
-2.9500000000000002
 74
0
  0
LTYPE
  5
32
100
AcDbSymbolTableRecord
100
AcDbLinetypeTableRecord
  2
HOT_WATER_SUPPLY
 70
0
  3
Hot water supply ---- HW ---- HW ---- HW ----
 72
65
 73
3
 40
22.859999999999999
 49
12.699999999999999
 74
0
 49
-5.0800000000000001
 74
0
 49
-5.0800000000000001
 74
0
  0
LTYPE
  5
33
100
AcDbSymbolTableRecord
100
AcDbLinetypeTableRecord
  2
DIVIDE
 70
0
  3
Divide ____ . . ____ . . ____ . . ____ . . ____
 72
65
 73
6
 40
31.749999999999996
 49
12.699999999999999
 74
0
 49
-6.299999999999998
 74
0
 49
0.1
 74
0
 49
-6.25
 74
0
 49
0.1
 74
0
 49
-6.299999999999998
 74
0
  0
LTYPE
  5
34
100
AcDbSymbolTableRecord
100
AcDbLinetypeTableRecord
  2
ACAD_ISO10W100
 70
0
  3
ISO dash dot __ . __ . __ . __ . __ . __ . __ . 
 72
65
 73
4
 40
18.0
 49
12.0
 74
0
 49
-2.9500000000000002
 74
0
 49
0.1
 74
0
 49
-2.9500000000000002
 74
0
  0
LTYPE
  5
35
100
AcDbSymbolTableRecord
100
AcDbLinetypeTableRecord
  2
GAS_LINE
 70
0
  3
Gas line ----GAS----GAS----GAS----GAS----GAS----GAS--
 72
65
 73
3
 40
24.129999999999999
 49
12.699999999999999
 74
0
 49
-5.0800000000000001
 74
0
 49
-6.349999999999997
 74
0
  0
LTYPE
  5
36
100
AcDbSymbolTableRecord
100
AcDbLinetypeTableRecord
  2
ACAD_ISO04W100
 70
0
  3
ISO long-dash dot ____ . ____ . ____ . ____ . _
 72
65
 73
4
 40
30.0
 49
24.0
 74
0
 49
-2.9500000000000002
 74
0
 49
0.1
 74
0
 49
-2.9500000000000002
 74
0
  0
LTYPE
  5
14
100
AcDbSymbolTableRecord
100
AcDbLinetypeTableRecord
  2
ByBlock
 70
0
  3

 72
65
 73
0
 40
0.0
  0
LTYPE
  5
37
100
AcDbSymbolTableRecord
100
AcDbLinetypeTableRecord
  2
CENTER2
 70
0
  3
Center (.5x) ___ _ ___ _ ___ _ ___ _ ___ _ ___
 72
65
 73
4
 40
28.574999999999992
 49
19.050000000000001
 74
0
 49
-3.174999999999998
 74
0
 49
3.174999999999998
 74
0
 49
-3.174999999999998
 74
0
  0
LTYPE
  5
38
100
AcDbSymbolTableRecord
100
AcDbLinetypeTableRecord
  2
ACAD_ISO11W100
 70
0
  3
ISO double-dash dot __ __ . __ __ . __ __ . __ _
 72
65
 73
6
 40
33.0
 49
12.0
 74
0
 49
-3.0
 74
0
 49
12.0
 74
0
 49
-2.9500000000000002
 74
0
 49
0.1
 74
0
 49
-2.9500000000000002
 74
0
  0
LTYPE
  5
39
100
AcDbSymbolTableRecord
100
AcDbLinetypeTableRecord
  2
HIDDEN2
 70
0
  3
Hidden (.5x) _ _ _ _ _ _ _ _ _ _ _ _ _ _ _ _ _ 
 72
65
 73
2
 40
4.7624999999999975
 49
3.174999999999998
 74
0
 49
-1.587499999999999
 74
0
  0
LTYPE
  5
3A
100
AcDbSymbolTableRecord
100
AcDbLinetypeTableRecord
  2
BORDERX2
 70
0
  3
Border (2x) ____  ____  .  ____  ____  .  ___
 72
65
 73
6
 40
88.899999999999991
 49
25.399999999999999
 74
0
 49
-12.699999999999999
 74
0
 49
25.399999999999999
 74
0
 49
-12.65
 74
0
 49
0.1
 74
0
 49
-12.65
 74
0
  0
LTYPE
  5
3B
100
AcDbSymbolTableRecord
100
AcDbLinetypeTableRecord
  2
ACAD_ISO05W100
 70
0
  3
ISO long-dash double-dot ____ .. ____ .. ____ . 
 72
65
 73
6
 40
33.0
 49
24.0
 74
0
 49
-2.9500000000000002
 74
0
 49
0.1
 74
0
 49
-2.8999999999999999
 74
0
 49
0.1
 74
0
 49
-2.9500000000000002
 74
0
  0
LTYPE
  5
3C
100
AcDbSymbolTableRecord
100
AcDbLinetypeTableRecord
  2
DASHDOTX2
 70
0
  3
Dash dot (2x) ____  .  ____  .  ____  .  ___
 72
65
 73
4
 40
50.799999999999997
 49
25.399999999999999
 74
0
 49
-12.65
 74
0
 49
0.1
 74
0
 49
-12.65
 74
0
  0
LTYPE
  5
3D
100
AcDbSymbolTableRecord
100
AcDbLinetypeTableRecord
  2
HIDDENX2
 70
0
  3
Hidden (2x) ____ ____ ____ ____ ____ ____ ____ 
 72
65
 73
2
 40
19.049999999999997
 49
12.699999999999999
 74
0
 49
-6.349999999999997
 74
0
  0
LTYPE
  5
3E
100
AcDbSymbolTableRecord
100
AcDbLinetypeTableRecord
  2
CENTERX2
 70
0
  3
Center (2x) ________  __  ________  __  _____
 72
65
 73
4
 40
101.60000000000001
 49
63.5
 74
0
 49
-12.699999999999999
 74
0
 49
12.699999999999999
 74
0
 49
-12.699999999999999
 74
0
  0
LTYPE
  5
3F
100
AcDbSymbolTableRecord
100
AcDbLinetypeTableRecord
  2
BORDER2
 70
0
  3
Border (.5x) __.__.__.__.__.__.__.__.__.__.__.
 72
65
 73
6
 40
22.224999999999994
 49
6.349999999999997
 74
0
 49
-3.174999999999998
 74
0
 49
6.349999999999997
 74
0
 49
-3.125
 74
0
 49
0.1
 74
0
 49
-3.125
 74
0
  0
LTYPE
  5
40
100
AcDbSymbolTableRecord
100
AcDbLinetypeTableRecord
  2
DASHDOT2
 70
0
  3
Dash dot (.5x) _._._._._._._._._._._._._._._.
 72
65
 73
4
 40
12.699999999999998
 49
6.349999999999997
 74
0
 49
-3.125
 74
0
 49
0.1
 74
0
 49
-3.125
 74
0
  0
LTYPE
  5
41
100
AcDbSymbolTableRecord
100
AcDbLinetypeTableRecord
  2
ACAD_ISO12W100
 70
0
  3
ISO dash double-dot __ . . __ . . __ . . __ . . 
 72
65
 73
6
 40
21.0
 49
12.0
 74
0
 49
-2.9500000000000002
 74
0
 49
0.1
 74
0
 49
-2.8999999999999999
 74
0
 49
0.1
 74
0
 49
-2.9500000000000002
 74
0
  0
LTYPE
  5
42
100
AcDbSymbolTableRecord
100
AcDbLinetypeTableRecord
  2
ACAD_ISO07W100
 70
0
  3
ISO dot . . . . . . . . . . . . . . . . . . . . 
 72
65
 73
2
 40
3.0
 49
0.1
 74
0
 49
-2.8999999999999999
 74
0
  0
LTYPE
  5
43
100
AcDbSymbolTableRecord
100
AcDbLinetypeTableRecord
  2
ACAD_ISO06W100
 70
0
  3
ISO long-dash triple-dot ____ ... ____ ... ____
 72
65
 73
8
 40
36.000000000000007
 49
24.0
 74
0
 49
-2.9500000000000002
 74
0
 49
0.1
 74
0
 49
-2.8999999999999999
 74
0
 49
0.1
 74
0
 49
-2.8999999999999999
 74
0
 49
0.1
 74
0
 49
-2.9500000000000002
 74
0
  0
LTYPE
  5
44
100
AcDbSymbolTableRecord
100
AcDbLinetypeTableRecord
  2
CENTER
 70
0
  3
Center ____ _ ____ _ ____ _ ____ _ ____ _ ____
 72
65
 73
4
 40
50.799999999999983
 49
31.75
 74
0
 49
-6.349999999999997
 74
0
 49
6.349999999999997
 74
0
 49
-6.349999999999997
 74
0
  0
LTYPE
  5
45
100
AcDbSymbolTableRecord
100
AcDbLinetypeTableRecord
  2
HIDDEN
 70
0
  3
Hidden __ __ __ __ __ __ __ __ __ __ __ __ __ __
 72
65
 73
2
 40
9.524999999999995
 49
6.349999999999997
 74
0
 49
-3.174999999999998
 74
0
  0
LTYPE
  5
46
100
AcDbSymbolTableRecord
100
AcDbLinetypeTableRecord
  2
DOTX2
 70
0
  3
Dot (2x) .  .  .  .  .  .  .  .  .  .  .  .  .  .
 72
65
 73
2
 40
12.699999999999999
 49
0.1
 74
0
 49
-12.6
 74
0
  0
LTYPE
  5
47
100
AcDbSymbolTableRecord
100
AcDbLinetypeTableRecord
  2
PHANTOM
 70
0
  3
Phantom ______  __  __  ______  __  __  ______ 
 72
65
 73
6
 40
63.499999999999972
 49
31.75
 74
0
 49
-6.349999999999997
 74
0
 49
6.349999999999997
 74
0
 49
-6.349999999999997
 74
0
 49
6.349999999999997
 74
0
 49
-6.349999999999997
 74
0
  0
LTYPE
  5
48
100
AcDbSymbolTableRecord
100
AcDbLinetypeTableRecord
  2
ACAD_ISO08W100
 70
0
  3
ISO long-dash short-dash ____ __ ____ __ ____ _
 72
65
 73
4
 40
36.0
 49
24.0
 74
0
 49
-3.0
 74
0
 49
6.0
 74
0
 49
-3.0
 74
0
  0
LTYPE
  5
49
100
AcDbSymbolTableRecord
100
AcDbLinetypeTableRecord
  2
DASHEDX2
 70
0
  3
Dashed (2x) ____  ____  ____  ____  ____  ___
 72
65
 73
2
 40
38.099999999999994
 49
25.399999999999999
 74
0
 49
-12.699999999999999
 74
0
  0
LTYPE
  5
4A
100
AcDbSymbolTableRecord
100
AcDbLinetypeTableRecord
  2
DRAINAGE
 70
0
  3
Drainage ---->---->---->----
 72
65
 73
2
 40
10.16
 49
5.0800000000000001
 74
0
 49
5.0800000000000001
 74
0
  0
LTYPE
  5
4B
100
AcDbSymbolTableRecord
100
AcDbLinetypeTableRecord
  2
ACAD_ISO02W100
 70
0
  3
ISO dash __ __ __ __ __ __ __ __ __ __ __ __ __
 72
65
 73
2
 40
15.0
 49
12.0
 74
0
 49
-3.0
 74
0
  0
LTYPE
  5
4C
100
AcDbSymbolTableRecord
100
AcDbLinetypeTableRecord
  2
PHANTOM2
 70
0
  3
Phantom (.5x) ___ _ _ ___ _ _ ___ _ _ ___ _ _
 72
65
 73
6
 40
31.749999999999986
 49
15.875
 74
0
 49
-3.174999999999998
 74
0
 49
3.174999999999998
 74
0
 49
-3.174999999999998
 74
0
 49
3.174999999999998
 74
0
 49
-3.174999999999998
 74
0
  0
LTYPE
  5
4D
100
AcDbSymbolTableRecord
100
AcDbLinetypeTableRecord
  2
DASHED2
 70
0
  3
Dashed (.5x) _ _ _ _ _ _ _ _ _ _ _ _ _ _ _ _ _ 
 72
65
 73
2
 40
9.524999999999995
 49
6.349999999999997
 74
0
 49
-3.174999999999998
 74
0
  0
LTYPE
  5
4E
100
AcDbSymbolTableRecord
100
AcDbLinetypeTableRecord
  2
ACAD_ISO09W100
 70
0
  3
ISO long-dash double-short-dash ____ __ __ ____
 72
65
 73
6
 40
45.0
 49
24.0
 74
0
 49
-3.0
 74
0
 49
6.0
 74
0
 49
-3.0
 74
0
 49
6.0
 74
0
 49
-3.0
 74
0
  0
LTYPE
  5
4F
100
AcDbSymbolTableRecord
100
AcDbLinetypeTableRecord
  2
ACAD_ISO13W100
 70
0
  3
ISO double-dash double-dot __ __ . . __ __ . . _
 72
65
 73
8
 40
36.000000000000007
 49
12.0
 74
0
 49
-3.0
 74
0
 49
12.0
 74
0
 49
-2.9500000000000002
 74
0
 49
0.1
 74
0
 49
-2.8999999999999999
 74
0
 49
0.1
 74
0
 49
-2.9500000000000002
 74
0
  0
LTYPE
  5
50
100
AcDbSymbolTableRecord
100
AcDbLinetypeTableRecord
  2
TRACKS
 70
0
  3
Tracks -|-|-|-|-|-|-|-|-|-|-|-|-|-|-|-|-|-|-|-|-|-|-|-|-
 72
65
 73
2
 40
7.6200000000000001
 49
3.8100000000000001
 74
0
 49
3.8100000000000001
 74
0
  0
LTYPE
  5
51
100
AcDbSymbolTableRecord
100
AcDbLinetypeTableRecord
  2
DRAINAGE2
 70
0
  3
Drainage reversed----<----<----<----
 72
65
 73
2
 40
10.16
 49
5.0800000000000001
 74
0
 49
5.0800000000000001
 74
0
  0
LTYPE
  5
52
100
AcDbSymbolTableRecord
100
AcDbLinetypeTableRecord
  2
DOT2
 70
0
  3
Dot (.5x) ........................................
 72
65
 73
2
 40
3.1750000000000003
 49
0.1
 74
0
 49
-3.0750000000000002
 74
0
  0
LTYPE
  5
53
100
AcDbSymbolTableRecord
100
AcDbLinetypeTableRecord
  2
ZIGZAG
 70
0
  3
Zig zag /\/\/\/\/\/\/\/\/\/\/\/\/\/\/\/\/\/\/\/\/\/\/\/
 72
65
 73
4
 40
20.32254
 49
0.00254
 74
0
 49
-5.0800000000000001
 74
0
 49
-10.16
 74
0
 49
-5.0800000000000001
 74
0
  0
LTYPE
  5
54
100
AcDbSymbolTableRecord
100
AcDbLinetypeTableRecord
  2
DASHED
 70
0
  3
Dashed __ __ __ __ __ __ __ __ __ __ __ __ __ _
 72
65
 73
2
 40
19.049999999999997
 49
12.699999999999999
 74
0
 49
-6.349999999999997
 74
0
  0
LTYPE
  5
55
100
AcDbSymbolTableRecord
100
AcDbLinetypeTableRecord
  2
ACAD_ISO14W100
 70
0
  3
ISO dash triple-dot __ . . . __ . . . __ . . . _
 72
65
 73
8
 40
24.0
 49
12.0
 74
0
 49
-2.9500000000000002
 74
0
 49
0.1
 74
0
 49
-2.8999999999999999
 74
0
 49
0.1
 74
0
 49
-2.8999999999999999
 74
0
 49
0.1
 74
0
 49
-2.9500000000000002
 74
0
  0
LTYPE
  5
56
100
AcDbSymbolTableRecord
100
AcDbLinetypeTableRecord
  2
PHANTOMX2
 70
0
  3
Phantom (2x) ____________    ____    ____   _
 72
65
 73
6
 40
127.00000000000001
 49
63.5
 74
0
 49
-12.699999999999999
 74
0
 49
12.699999999999999
 74
0
 49
-12.699999999999999
 74
0
 49
12.699999999999999
 74
0
 49
-12.699999999999999
 74
0
  0
LTYPE
  5
57
100
AcDbSymbolTableRecord
100
AcDbLinetypeTableRecord
  2
DIVIDEX2
 70
0
  3
Divide (2x) ________  .  .  ________  .  .  _
 72
65
 73
6
 40
63.5
 49
25.399999999999999
 74
0
 49
-12.65
 74
0
 49
0.1
 74
0
 49
-12.6
 74
0
 49
0.1
 74
0
 49
-12.65
 74
0
  0
LTYPE
  5
58
100
AcDbSymbolTableRecord
100
AcDbLinetypeTableRecord
  2
BORDER
 70
0
  3
Border __ __ . __ __ . __ __ . __ __ . __ __ .
 72
65
 73
6
 40
44.449999999999996
 49
12.699999999999999
 74
0
 49
-6.349999999999997
 74
0
 49
12.699999999999999
 74
0
 49
-6.299999999999998
 74
0
 49
0.1
 74
0
 49
-6.299999999999998
 74
0
  0
LTYPE
  5
59
100
AcDbSymbolTableRecord
100
AcDbLinetypeTableRecord
  2
DIVIDE2
 70
0
  3
Divide (.5x) __..__..__..__..__..__..__..__.._
 72
65
 73
6
 40
15.874999999999998
 49
6.349999999999997
 74
0
 49
-3.125
 74
0
 49
0.1
 74
0
 49
-3.0750000000000002
 74
0
 49
0.1
 74
0
 49
-3.125
 74
0
  0
LTYPE
  5
5A
100
AcDbSymbolTableRecord
100
AcDbLinetypeTableRecord
  2
DOT
 70
0
  3
Dot . . . . . . . . . . . . . . . . . . . . . . . .
 72
65
 73
2
 40
6.3499999999999996
 49
0.1
 74
0
 49
-6.25
 74
0
  0
LTYPE
  5
5B
100
AcDbSymbolTableRecord
100
AcDbLinetypeTableRecord
  2
DASHDOT
 70
0
  3
Dash dot __ . __ . __ . __ . __ . __ . __ . __
 72
65
 73
4
 40
25.399999999999995
 49
12.699999999999999
 74
0
 49
-6.299999999999998
 74
0
 49
0.1
 74
0
 49
-6.299999999999998
 74
0
  0
LTYPE
  5
5C
100
AcDbSymbolTableRecord
100
AcDbLinetypeTableRecord
  2
FENCELINE1
 70
0
  3
Fenceline circle ----0-----0----0-----0----0-----0--
 72
65
 73
4
 40
36.829999999999998
 49
6.349999999999997
 74
0
 49
-2.54
 74
0
 49
-2.54
 74
0
 49
25.399999999999999
 74
0
  0
LTYPE
  5
5D
100
AcDbSymbolTableRecord
100
AcDbLinetypeTableRecord
  2
BATTING
 70
0
  3
Batting SSSSSSSSSSSSSSSSSSSSSSSSSSSSSSSSSSSSSSSSSSSSSSS
 72
65
 73
4
 40
10.16254
 49
0.00254
 74
0
 49
-2.54
 74
0
 49
-5.0800000000000001
 74
0
 49
-2.54
 74
0
  0
LTYPE
  5
5E
100
AcDbSymbolTableRecord
100
AcDbLinetypeTableRecord
  2
ACAD_ISO03W100
 70
0
  3
ISO dash space __    __    __    __    __    __
 72
65
 73
2
 40
30.0
 49
12.0
 74
0
 49
-18.0
 74
0
  0
LTYPE
  5
15
100
AcDbSymbolTableRecord
100
AcDbLinetypeTableRecord
  2
ByLayer
 70
0
  3

 72
65
 73
0
 40
0.0
  0
LTYPE
  5
5F
100
AcDbSymbolTableRecord
100
AcDbLinetypeTableRecord
  2
FENCELINE2
 70
0
  3
Fenceline square ----[]-----[]----[]-----[]----[]---
 72
65
 73
4
 40
36.829999999999998
 49
6.349999999999997
 74
0
 49
-2.54
 74
0
 49
-2.54
 74
0
 49
25.399999999999999
 74
0
  0
ENDTAB
  0
TABLE
  2
LAYER
  5
2
100
AcDbSymbolTable
 70
4
  0
LAYER
  5
60
100
AcDbSymbolTableRecord
100
AcDbLayerTableRecord
  2
grabado linea medio
 70
0
 62
3
420
65280
  6
Continuous
370
5
390
F
  0
LAYER
  5
61
100
AcDbSymbolTableRecord
100
AcDbLayerTableRecord
  2
mesa de trabajo y auxiliares
 70
1
 62
-7
420
16777215
  6
Continuous
370
5
390
F
  0
LAYER
  5
62
100
AcDbSymbolTableRecord
100
AcDbLayerTableRecord
  2
Corte exterior
 70
0
 62
1
420
16711680
  6
Continuous
370
5
390
F
  0
LAYER
  5
10
100
AcDbSymbolTableRecord
100
AcDbLayerTableRecord
  2
0
 70
0
 62
7
420
16777215
  6
Continuous
370
5
390
F
  0
ENDTAB
  0
TABLE
  2
STYLE
  5
3
100
AcDbSymbolTable
 70
1
  0
STYLE
  5
63
100
AcDbSymbolTableRecord
100
AcDbTextStyleTableRecord
  2
Standard
 70
0
 40
0.0
 41
1.0
 50
0.0
 71
0
 42
2.5
  3

  4

1001
ACAD
1000
txt
1071
0
  0
ENDTAB
  0
TABLE
  2
VIEW
  5
6
100
AcDbSymbolTable
 70
0
  0
ENDTAB
  0
TABLE
  2
UCS
  5
7
100
AcDbSymbolTable
 70
0
  0
ENDTAB
  0
TABLE
  2
APPID
  5
9
100
AcDbSymbolTable
 70
1
  0
APPID
  5
12
100
AcDbSymbolTableRecord
100
AcDbRegAppTableRecord
  2
ACAD
 70
0
  0
APPID
  5
64
100
AcDbSymbolTableRecord
100
AcDbRegAppTableRecord
  2
QCAD
 70
0
  0
ENDTAB
  0
TABLE
  2
DIMSTYLE
  5
A
100
AcDbSymbolTable
 70
1
100
AcDbDimStyleTable
 71
0
  0
DIMSTYLE
105
27
100
AcDbSymbolTableRecord
100
AcDbDimStyleTableRecord
  2
Standard
 41
0.18
 42
0.0625
 43
3.75
 44
0.18
 70
0
 73
0
 74
0
 77
1
 78
8
140
0.18
141
2.5
143
0.03937007874016
147
0.09
171
3
172
1
271
2
272
2
274
3
278
44
283
0
284
8
340
63
  0
ENDTAB
  0
TABLE
  2
BLOCK_RECORD
  5
1
100
AcDbSymbolTable
 70
1
  0
BLOCK_RECORD
  5
1F
100
AcDbSymbolTableRecord
100
AcDbBlockTableRecord
  2
*Model_Space
340
22
  0
BLOCK_RECORD
  5
1B
100
AcDbSymbolTableRecord
100
AcDbBlockTableRecord
  2
*Paper_Space
340
1E
  0
BLOCK_RECORD
  5
23
100
AcDbSymbolTableRecord
100
AcDbBlockTableRecord
  2
*Paper_Space0
340
26
  0
BLOCK_RECORD
  5
65
100
AcDbSymbolTableRecord
100
AcDbBlockTableRecord
  2
A$C5546276D
340
0
  0
BLOCK_RECORD
  5
66
100
AcDbSymbolTableRecord
100
AcDbBlockTableRecord
  2
A$C3E6525C7
340
0
  0
BLOCK_RECORD
  5
67
100
AcDbSymbolTableRecord
100
AcDbBlockTableRecord
  2
A$C006638B4
340
0
  0
BLOCK_RECORD
  5
68
100
AcDbSymbolTableRecord
100
AcDbBlockTableRecord
  2
A$C047A1BBB
340
0
  0
ENDTAB
  0
ENDSEC
  0
SECTION
  2
BLOCKS
  0
BLOCK
  5
20
100
AcDbEntity
  8
0
100
AcDbBlockBegin
  2
*Model_Space
 70
0
 10
0.0
 20
0.0
 30
0.0
  3
*Model_Space
  1

  0
ENDBLK
  5
21
100
AcDbEntity
  8
0
100
AcDbBlockEnd
  0
BLOCK
  5
1C
100
AcDbEntity
 67
1
  8
0
100
AcDbBlockBegin
  2
*Paper_Space
 70
0
 10
0.0
 20
0.0
 30
0.0
  3
*Paper_Space
  1

  0
ENDBLK
  5
1D
100
AcDbEntity
 67
1
  8
0
100
AcDbBlockEnd
  0
BLOCK
  5
24
100
AcDbEntity
  8
0
100
AcDbBlockBegin
  2
*Paper_Space0
 70
0
 10
0.0
 20
0.0
 30
0.0
  3
*Paper_Space0
  1

  0
ENDBLK
  5
25
100
AcDbEntity
  8
0
100
AcDbBlockEnd
  0
BLOCK
  5
69
100
AcDbEntity
  8
0
100
AcDbBlockBegin
  2
A$C5546276D
 70
0
 10
0.0
 20
0.0
 30
0.0
  3
A$C5546276D
  1

  0
LWPOLYLINE
  5
6A
  8
0
 62
256
370
-1
 48
1.0
  6
ByLayer
100
AcDbEntity
100
AcDbPolyline
 90
16
 70
1
 10
2.9999978833804191
 20
-0.0000006562344836
 30
0.0
 10
2.9999978833804191
 20
1.9999993437655159
 30
0.0
 10
20.99999788338042
 20
1.9999993437655159
 30
0.0
 10
20.99999788338042
 20
-0.0000006562344836
 30
0.0
 10
23.999997883380431
 20
-0.0000006562344836
 30
0.0
 10
23.999997883380431
 20
9.9999993437655164
 30
0.0
 10
17.986383285402692
 20
9.9999993437655164
 30
0.0
 10
17.986383285402692
 20
6.5826826382430204
 30
0.0
 10
19.999997883380399
 20
6.5826826382430204
 30
0.0
 10
19.999997883380399
 20
3.5826826382430181
 30
0.0
 10
3.9999978833804191
 20
3.5826826382430181
 30
0.0
 10
3.9999978833804191
 20
6.582682638243031
 30
0.0
 10
5.9999978833804164
 20
6.582682638243031
 30
0.0
 10
5.9999978833804164
 20
9.9999993437655164
 30
0.0
 10
-0.0000021166195801
 20
9.9999993437655164
 30
0.0
 10
-0.0000021166195801
 20
-0.0000006562344836
 30
0.0
  0
ENDBLK
  5
6B
100
AcDbEntity
  8
0
100
AcDbBlockEnd
  0
BLOCK
  5
6C
100
AcDbEntity
  8
0
100
AcDbBlockBegin
  2
A$C3E6525C7
 70
0
 10
0.0
 20
0.0
 30
0.0
  3
A$C3E6525C7
  1

  0
CIRCLE
  5
6D
100
AcDbEntity
100
AcDbCircle
  8
0
 62
256
370
-1
 48
1.0
  6
ByLayer
 10
7.999990990923826
 20
7.9999947855676492
 30
0.0
 40
8.0
  0
CIRCLE
  5
6E
100
AcDbEntity
100
AcDbCircle
  8
0
 62
256
370
-1
 48
1.0
  6
ByLayer
 10
33.999990990923827
 20
7.9999947855676492
 30
0.0
 40
8.0
  0
ENDBLK
  5
6F
100
AcDbEntity
  8
0
100
AcDbBlockEnd
  0
BLOCK
  5
70
100
AcDbEntity
  8
0
100
AcDbBlockBegin
  2
A$C006638B4
 70
0
 10
0.0
 20
0.0
 30
0.0
  3
A$C006638B4
  1

  0
ENDBLK
  5
71
100
AcDbEntity
  8
0
100
AcDbBlockEnd
  0
BLOCK
  5
72
100
AcDbEntity
  8
0
100
AcDbBlockBegin
  2
A$C047A1BBB
 70
0
 10
0.0
 20
0.0
 30
0.0
  3
A$C047A1BBB
  1

  0
CIRCLE
  5
73
100
AcDbEntity
100
AcDbCircle
  8
0
 62
256
370
-1
 48
1.0
  6
ByLayer
 10
13.58533397255553
 20
94.994006335026157
 30
0.0
 40
8.0
  0
CIRCLE
  5
74
100
AcDbEntity
100
AcDbCircle
  8
0
 62
256
370
-1
 48
1.0
  6
ByLayer
 10
39.585333972555532
 20
94.994006335026157
 30
0.0
 40
8.0
  0
LWPOLYLINE
  5
75
  8
0
 62
256
370
-1
 48
1.0
  6
ByLayer
100
AcDbEntity
100
AcDbPolyline
 90
16
 70
1
 10
18.060805165867489
 20
3.062946803595016
 30
0.0
 10
18.060805165867489
 20
5.0629468035950174
 30
0.0
 10
36.060805165867492
 20
5.0629468035950174
 30
0.0
 10
36.060805165867492
 20
3.062946803595016
 30
0.0
 10
39.060805165867492
 20
3.062946803595016
 30
0.0
 10
39.060805165867492
 20
13.06294680359502
 30
0.0
 10
33.047190567889771
 20
13.06294680359502
 30
0.0
 10
33.047190567889771
 20
9.6456300980725231
 30
0.0
 10
35.060805165867492
 20
9.6456300980725231
 30
0.0
 10
35.060805165867492
 20
6.6456300980725231
 30
0.0
 10
19.060805165867489
 20
6.6456300980725231
 30
0.0
 10
19.060805165867489
 20
9.6456300980725356
 30
0.0
 10
21.060805165867489
 20
9.6456300980725356
 30
0.0
 10
21.060805165867489
 20
13.06294680359502
 30
0.0
 10
15.060805165867491
 20
13.06294680359502
 30
0.0
 10
15.060805165867491
 20
3.062946803595016
 30
0.0
  0
CIRCLE
  5
76
100
AcDbEntity
100
AcDbCircle
  8
0
 62
256
370
-1
 48
1.0
  6
ByLayer
 10
18.873099426868048
 20
23.708802653100971
 30
0.0
 40
7.0
  0
CIRCLE
  5
77
100
AcDbEntity
100
AcDbCircle
  8
0
 62
256
370
-1
 48
1.0
  6
ByLayer
 10
34.889957818564653
 20
23.29820736509555
 30
0.0
 40
7.0
  0
ENDBLK
  5
78
100
AcDbEntity
  8
0
100
AcDbBlockEnd
  0
ENDSEC
  0
SECTION
  2
ENTITIES
  0
LWPOLYLINE
  5
79
  8
mesa de trabajo y auxiliares
 62
256
370
-1
 48
1.0
  6
ByLayer
100
AcDbEntity
100
AcDbPolyline
 90
4
 70
129
 10
0.0
 20
-0.0000000000000142
 30
0.0
 10
150.0
 20
-0.0000000000000142
 30
0.0
 10
150.0
 20
160.0
 30
0.0
 10
0.0
 20
160.0
 30
0.0
  0
LWPOLYLINE
  5
7A
  8
mesa de trabajo y auxiliares
 62
256
370
-1
 48
1.0
  6
ByLayer
100
AcDbEntity
100
AcDbPolyline
 90
4
 70
129
 10
1.5
 20
0.9999999999999291
 30
0.0
 10
149.5
 20
0.9999999999999291
 30
0.0
 10
149.5
 20
158.9999999999998
 30
0.0
 10
1.5
 20
158.9999999999998
 30
0.0
  0
CIRCLE
  5
7B
100
AcDbEntity
100
AcDbCircle
  8
grabado linea medio
 62
256
370
-1
 48
1.0
  6
ByLayer
 10
119.403384051204
 20
86.901219065946094
 30
0.0
 40
6.0
  0
LWPOLYLINE
  5
7C
  8
grabado linea medio
 62
256
370
-1
 48
1.0
  6
ByLayer
100
AcDbEntity
100
AcDbPolyline
 90
9
 70
0
 10
127.1033840512039
 20
80.25121906594606
 30
0.0
 10
127.103384051204
 20
99.751219065946074
 30
0.0
 10
111.703384051204
 20
99.751219065946074
 30
0.0
 10
111.703384051204
 20
80.25121906594606
 30
0.0
 10
114.403384051204
 20
80.25121906594606
 30
0.0
 10
114.403384051204
 20
63.5512190659461
 30
0.0
 10
124.403384051204
 20
63.5512190659461
 30
0.0
 10
124.403384051204
 20
80.25121906594606
 30
0.0
 10
127.1033840512039
 20
80.25121906594606
 30
0.0
  0
CIRCLE
  5
7D
100
AcDbEntity
100
AcDbCircle
  8
Corte exterior
 62
256
370
-1
 48
1.0
  6
ByLayer
 10
110.40000000000001
 20
106.77560953297299
 30
0.0
 40
5.0
  0
LINE
  5
7E
100
AcDbEntity
100
AcDbLine
  8
Corte exterior
 62
256
370
-1
 48
1.0
  6
ByLayer
 10
60.400000000000013
 20
32.978274084857858
 30
0.0
 11
71.300000000000026
 21
32.978274084857873
 31
0.0
  0
LINE
  5
7F
100
AcDbEntity
100
AcDbLine
  8
grabado linea medio
 62
256
370
-1
 48
1.0
  6
ByLayer
 10
1.4999999999999201
 20
78.29999999999994
 30
0.0
 11
12.399999999999951
 21
78.299999999999926
 31
0.0
  0
LINE
  5
80
100
AcDbEntity
100
AcDbLine
  8
grabado linea medio
 62
256
370
-1
 48
1.0
  6
ByLayer
 10
71.29999999999994
 20
78.299999999999926
 30
0.0
 11
60.399999999999928
 21
78.299999999999926
 31
0.0
  0
LINE
  5
81
100
AcDbEntity
100
AcDbLine
  8
Corte exterior
 62
256
370
-1
 48
1.0
  6
ByLayer
 10
71.29999999999994
 20
89.199999999999946
 30
0.0
 11
60.399999999999928
 21
89.19999999999996
 31
0.0
  0
LINE
  5
82
100
AcDbEntity
100
AcDbLine
  8
grabado linea medio
 62
256
370
-1
 48
1.0
  6
ByLayer
 10
31.535703990909909
 20
124.1999999999997
 30
0.0
 11
41.264296009089982
 21
124.1999999999997
 31
0.0
  0
LINE
  5
83
100
AcDbEntity
100
AcDbLine
  8
grabado linea medio
 62
256
370
-1
 48
1.0
  6
ByLayer
 10
31.535703990909909
 20
108.2
 30
0.0
 11
41.264296009089968
 21
108.2
 31
0.0
  0
LINE
  5
84
100
AcDbEntity
100
AcDbLine
  8
grabado linea medio
 62
256
370
-1
 48
1.0
  6
ByLayer
 10
52.40000000000007
 20
38.978274084857851
 30
0.0
 11
60.40000000000002
 21
38.978274084857851
 31
0.0
  0
LINE
  5
85
100
AcDbEntity
100
AcDbLine
  8
grabado linea medio
 62
256
370
-1
 48
1.0
  6
ByLayer
 10
12.4
 20
38.978274084857851
 30
0.0
 11
20.400000000000031
 21
38.978274084857851
 31
0.0
  0
LINE
  5
86
100
AcDbEntity
100
AcDbLine
  8
Corte exterior
 62
256
370
-1
 48
1.0
  6
ByLayer
 10
81.164942645906109
 20
120.9999999999999
 30
0.0
 11
125.5
 21
120.9999999999999
 31
0.0
  0
LWPOLYLINE
  5
87
  8
Corte exterior
 62
256
370
-1
 48
1.0
  6
ByLayer
100
AcDbEntity
100
AcDbPolyline
 90
6
 70
0
 10
126.5
 20
120.9999999999999
 30
0.0
 10
149.5
 20
120.9999999999999
 30
0.0
 10
149.5
 20
0.9999999999999291
 30
0.0
 10
71.300000000000026
 20
0.9999999999999572
 30
0.0
 10
71.300000000000026
 20
120.9999999999999
 30
0.0
 10
80.164942645906123
 20
120.9999999999999
 30
0.0
  0
LWPOLYLINE
  5
88
  8
Corte exterior
 62
256
370
-1
 48
1.0
  6
ByLayer
100
AcDbEntity
100
AcDbPolyline
 90
3
 70
0
 10
118.1279307305245
 20
141.16000000000059
 30
0.0
 10
120.50793073052451
 20
141.16000000000039
 30
0.0
 10
120.50793073052439
 20
138.7800000000006
 30
0.0
  0
LWPOLYLINE
  5
89
  8
Corte exterior
 62
256
370
-1
 48
1.0
  6
ByLayer
100
AcDbEntity
100
AcDbPolyline
 90
15
 70
0
 10
80.411121907579258
 20
121.35355339059321
 30
0.0
 10
78.72820776835529
 20
123.0364675298172
 30
0.0
 10
76.691740238538003
 20
125.0729350596345
 30
0.0
 10
78.728207768355233
 20
127.1094025894518
 30
0.0
 10
76.691740238538003
 20
129.14587011926901
 30
0.0
 10
74.655272708720958
 20
131.18233764908669
 30
0.0
 10
76.691740238538202
 20
133.21880517890381
 30
0.0
 10
74.655272708720801
 20
135.2552727087209
 30
0.0
 10
72.618805178903656
 20
133.21880517890401
 30
0.0
 10
70.58233764908627
 20
135.25527270872101
 30
0.0
 10
68.545870119269182
 20
133.21880517890381
 30
0.0
 10
66.509402589451724
 20
135.25527270872101
 30
0.0
 10
64.47293505963485
 20
133.21880517890401
 30
0.0
 10
62.436467529817641
 20
135.25527270872121
 30
0.0
 10
60.753553390593247
 20
136.9381868479457
 30
0.0
  0
LWPOLYLINE
  5
8A
  8
Corte exterior
 62
256
370
-1
 48
1.0
  6
ByLayer
100
AcDbEntity
100
AcDbPolyline
 90
16
 70
0
 10
121.00793073052439
 20
138.2800000000006
 30
0.0
 10
121.00793073052439
 20
138.2800000000004
 30
0.0
 10
123.3879307305245
 20
138.2800000000006
 30
0.0
 10
123.3879307305244
 20
135.4000000000004
 30
0.0
 10
126.2679307305245
 20
135.4000000000006
 30
0.0
 10
126.2679307305245
 20
132.52000000000041
 30
0.0
 10
129.14793073052451
 20
132.52000000000041
 30
0.0
 10
129.14793073052431
 20
129.6400000000003
 30
0.0
 10
126.2679307305244
 20
129.6400000000005
 30
0.0
 10
123.3879307305244
 20
129.6400000000005
 30
0.0
 10
120.50793073052439
 20
129.6400000000007
 30
0.0
 10
120.50793073052429
 20
126.7600000000004
 30
0.0
 10
117.6279307305243
 20
126.7600000000004
 30
0.0
 10
117.6279307305243
 20
123.88000000000019
 30
0.0
 10
120.50793073052429
 20
123.88000000000009
 30
0.0
 10
120.50793073052419
 20
120.9999999999999
 30
0.0
  0
LWPOLYLINE
  5
8B
  8
Corte exterior
 62
256
370
-1
 48
1.0
  6
ByLayer
100
AcDbEntity
100
AcDbPolyline
 90
3
 70
0
 10
120.1532950411973
 20
138.63247109185991
 30
0.0
 10
119.4575583647011
 20
139.32820776835601
 30
0.0
 10
117.9804018223839
 20
140.80536431067341
 30
0.0
  0
LWPOLYLINE
  5
8C
  8
Corte exterior
 62
256
370
-1
 48
1.0
  6
ByLayer
100
AcDbEntity
100
AcDbPolyline
 90
25
 70
0
 10
120.86040182238391
 20
137.9253643106733
 30
0.0
 10
121.4940258945183
 20
137.29174023853881
 30
0.0
 10
119.4575583647011
 20
135.25527270872169
 30
0.0
 10
115.3846233050665
 20
131.1823376490872
 30
0.0
 10
113.3481557752493
 20
133.2188051789044
 30
0.0
 10
111.31168824543199
 20
131.18233764908709
 30
0.0
 10
109.27522071561479
 20
133.2188051789044
 30
0.0
 10
107.23875318579761
 20
131.18233764908709
 30
0.0
 10
105.2022856559803
 20
133.2188051789044
 30
0.0
 10
103.1658181261631
 20
131.18233764908709
 30
0.0
 10
101.1293505963458
 20
133.21880517890429
 30
0.0
 10
99.092883066528515
 20
131.182337649087
 30
0.0
 10
97.056415536711313
 20
133.2188051789044
 30
0.0
 10
95.019948006893955
 20
131.182337649087
 30
0.0
 10
92.983480477076824
 20
133.2188051789044
 30
0.0
 10
90.947012947259452
 20
131.18233764908689
 30
0.0
 10
88.910545417442293
 20
133.2188051789044
 30
0.0
 10
86.874077887624935
 20
131.18233764908689
 30
0.0
 10
84.83761035780762
 20
133.21880517890429
 30
0.0
 10
82.801142827990219
 20
131.1823376490868
 30
0.0
 10
84.837610357807506
 20
129.14587011926949
 30
0.0
 10
82.801142827990063
 20
127.109402589452
 30
0.0
 10
84.837610357807392
 20
125.0729350596348
 30
0.0
 10
82.801142827989935
 20
123.0364675298173
 30
0.0
 10
81.118228688765811
 20
121.35355339059321
 30
0.0
  0
LWPOLYLINE
  5
8D
  8
Corte exterior
 62
256
370
-1
 48
1.0
  6
ByLayer
100
AcDbEntity
100
AcDbPolyline
 90
44
 70
0
 10
132.02793073052439
 20
121.0
 30
0.0
 10
132.0279307305243
 20
123.88
 30
0.0
 10
134.90793073052441
 20
123.88000000000029
 30
0.0
 10
137.78793073052449
 20
123.88000000000019
 30
0.0
 10
140.6679307305246
 20
123.88000000000039
 30
0.0
 10
140.6679307305248
 20
126.7600000000006
 30
0.0
 10
140.66793073052469
 20
129.6400000000005
 30
0.0
 10
140.6679307305248
 20
132.52000000000069
 30
0.0
 10
143.547930730525
 20
132.52000000000069
 30
0.0
 10
143.54793073052511
 20
144.04000000000079
 30
0.0
 10
140.66793073052509
 20
144.04000000000079
 30
0.0
 10
140.6679307305248
 20
146.92000000000081
 30
0.0
 10
137.78793073052469
 20
146.9200000000007
 30
0.0
 10
137.78793073052461
 20
144.0400000000007
 30
0.0
 10
134.90793073052461
 20
144.04000000000059
 30
0.0
 10
134.90793073052441
 20
141.16000000000071
 30
0.0
 10
134.9079307305245
 20
138.28000000000071
 30
0.0
 10
134.9079307305247
 20
135.4000000000006
 30
0.0
 10
132.0279307305245
 20
135.4000000000006
 30
0.0
 10
132.0279307305247
 20
138.2800000000006
 30
0.0
 10
129.14793073052451
 20
138.2800000000006
 30
0.0
 10
129.14793073052459
 20
141.16000000000059
 30
0.0
 10
126.2679307305245
 20
141.16000000000059
 30
0.0
 10
126.2679307305246
 20
144.04000000000059
 30
0.0
 10
123.3879307305245
 20
144.04000000000059
 30
0.0
 10
123.3879307305246
 20
146.92000000000061
 30
0.0
 10
120.50793073052439
 20
146.9200000000005
 30
0.0
 10
120.50793073052451
 20
149.80000000000041
 30
0.0
 10
117.6279307305245
 20
149.80000000000041
 30
0.0
 10
117.6279307305245
 20
152.6800000000006
 30
0.0
 10
114.7479307305245
 20
152.6800000000006
 30
0.0
 10
114.7479307305245
 20
155.5600000000006
 30
0.0
 10
111.86793073052451
 20
155.56000000000051
 30
0.0
 10
111.86793073052451
 20
158.44000000000051
 30
0.0
 10
106.1079307305245
 20
158.4400000000004
 30
0.0
 10
106.1079307305245
 20
152.6800000000006
 30
0.0
 10
108.9879307305245
 20
152.6800000000006
 30
0.0
 10
108.9879307305245
 20
149.80000000000041
 30
0.0
 10
111.86793073052451
 20
149.80000000000041
 30
0.0
 10
111.86793073052451
 20
146.9200000000005
 30
0.0
 10
114.7479307305245
 20
146.92000000000061
 30
0.0
 10
114.7479307305244
 20
144.04000000000039
 30
0.0
 10
117.6279307305245
 20
144.04000000000059
 30
0.0
 10
117.6279307305244
 20
141.66000000000059
 30
0.0
  0
LWPOLYLINE
  5
8E
  8
Corte exterior
 62
256
370
-1
 48
1.0
  6
ByLayer
100
AcDbEntity
100
AcDbPolyline
 90
37
 70
0
 10
60.753553390593211
 20
137.64529362913231
 30
0.0
 10
62.43646752981725
 20
139.32820776835641
 30
0.0
 10
64.472935059634494
 20
141.36467529817409
 30
0.0
 10
66.509402589451724
 20
139.3282077683568
 30
0.0
 10
68.545870119269182
 20
141.36467529817381
 30
0.0
 10
70.58233764908627
 20
139.3282077683568
 30
0.0
 10
72.618805178903656
 20
141.36467529817381
 30
0.0
 10
74.655272708720773
 20
139.32820776835689
 30
0.0
 10
76.691740238538202
 20
141.36467529817381
 30
0.0
 10
74.655272708720986
 20
143.40114282799109
 30
0.0
 10
76.691740238538003
 20
145.43761035780881
 30
0.0
 10
78.728207768355233
 20
147.47407788762609
 30
0.0
 10
76.691740238538017
 20
149.5105454174433
 30
0.0
 10
78.72820776835529
 20
151.54701294726061
 30
0.0
 10
80.764675298172548
 20
153.5834804770779
 30
0.0
 10
82.801142827989935
 20
151.54701294726041
 30
0.0
 10
84.837610357807392
 20
149.51054541744301
 30
0.0
 10
82.801142827990105
 20
147.47407788762581
 30
0.0
 10
84.837610357807478
 20
145.4376103578083
 30
0.0
 10
82.801142827990219
 20
143.40114282799101
 30
0.0
 10
84.837610357807662
 20
141.36467529817361
 30
0.0
 10
86.874077887624907
 20
143.4011428279909
 30
0.0
 10
88.910545417442336
 20
141.36467529817341
 30
0.0
 10
90.947012947259495
 20
143.40114282799081
 30
0.0
 10
92.983480477076796
 20
141.36467529817341
 30
0.0
 10
95.019948006893955
 20
143.40114282799081
 30
0.0
 10
97.056415536711313
 20
141.36467529817341
 30
0.0
 10
99.092883066528543
 20
143.40114282799081
 30
0.0
 10
101.1293505963458
 20
141.36467529817341
 30
0.0
 10
103.165818126163
 20
143.40114282799081
 30
0.0
 10
105.2022856559803
 20
141.36467529817341
 30
0.0
 10
107.23875318579761
 20
143.4011428279907
 30
0.0
 10
109.27522071561479
 20
141.36467529817341
 30
0.0
 10
111.31168824543199
 20
143.4011428279907
 30
0.0
 10
113.3481557752493
 20
141.36467529817341
 30
0.0
 10
115.3846233050666
 20
143.4011428279907
 30
0.0
 10
117.2732950411973
 20
141.51247109185991
 30
0.0
  0
LWPOLYLINE
  5
8F
  8
Corte exterior
 62
256
370
-1
 48
1.0
  6
ByLayer
100
AcDbEntity
100
AcDbPolyline
 90
3
 70
0
 10
12.39999999999994
 20
83.249999999999929
 30
0.0
 10
12.399999999999951
 20
78.29999999999994
 30
0.0
 10
12.39999999999997
 20
60.929594314929282
 30
0.0
  0
LWPOLYLINE
  5
90
  8
Corte exterior
 62
256
370
-1
 48
1.0
  6
ByLayer
100
AcDbEntity
100
AcDbPolyline
 90
5
 70
0
 10
60.399999999999963
 20
137.79174023853881
 30
0.0
 10
60.399999999999963
 20
143.1999999999999
 30
0.0
 10
12.399999999999929
 20
143.1999999999999
 30
0.0
 10
12.39999999999994
 20
89.199999999999946
 30
0.0
 10
12.39999999999994
 20
84.249999999999929
 30
0.0
  0
LWPOLYLINE
  5
91
  8
Corte exterior
 62
256
370
-1
 48
1.0
  6
ByLayer
100
AcDbEntity
100
AcDbPolyline
 90
8
 70
1
 10
15.284682570301721
 20
108.2
 30
0.0
 10
15.284682570301721
 20
116.0909204048227
 30
0.0
 10
15.284682570301721
 20
124.1999999999997
 30
0.0
 10
23.410193280605821
 20
124.1999999999997
 30
0.0
 10
31.535703990909909
 20
124.1999999999997
 30
0.0
 10
31.535703990909909
 20
116.1999999999998
 30
0.0
 10
31.535703990909909
 20
108.2
 30
0.0
 10
23.410193280605821
 20
108.2
 30
0.0
  0
LWPOLYLINE
  5
92
  8
Corte exterior
 62
256
370
-1
 48
1.0
  6
ByLayer
100
AcDbEntity
100
AcDbPolyline
 90
9
 70
0
 10
57.515317429698172
 20
116.1999999999998
 30
0.0
 10
57.51531742969815
 20
124.1999999999997
 30
0.0
 10
49.38980671939408
 20
124.1999999999997
 30
0.0
 10
41.264296009089982
 20
124.1999999999997
 30
0.0
 10
41.264296009089982
 20
116.1999999999998
 30
0.0
 10
41.264296009089968
 20
108.2
 30
0.0
 10
49.38980671939408
 20
108.2
 30
0.0
 10
57.51531742969815
 20
108.1999999999999
 30
0.0
 10
57.51531742969815
 20
116.0909204048227
 30
0.0
  0
LWPOLYLINE
  5
93
  8
Corte exterior
 62
256
370
-1
 48
1.0
  6
ByLayer
100
AcDbEntity
100
AcDbPolyline
 90
3
 70
0
 10
60.399999999999963
 20
83.249999999999929
 30
0.0
 10
60.399999999999963
 20
78.29999999999994
 30
0.0
 10
60.399999999999991
 20
60.5
 30
0.0
  0
LWPOLYLINE
  5
94
  8
Corte exterior
 62
256
370
-1
 48
1.0
  6
ByLayer
100
AcDbEntity
100
AcDbPolyline
 90
3
 70
0
 10
60.399999999999963
 20
136.79174023853881
 30
0.0
 10
60.399999999999928
 20
89.19999999999996
 30
0.0
 10
60.399999999999963
 20
84.249999999999929
 30
0.0
  0
LWPOLYLINE
  5
95
  8
Corte exterior
 62
256
370
-1
 48
1.0
  6
ByLayer
100
AcDbEntity
100
AcDbPolyline
 90
4
 70
0
 10
12.399999999999959
 20
32.978274084857858
 30
0.0
 10
1.499999999999958
 20
32.978274084857873
 30
0.0
 10
1.499999999999964
 20
89.199999999999946
 30
0.0
 10
12.39999999999994
 20
89.19999999999996
 30
0.0
  0
LWPOLYLINE
  5
96
  8
Corte exterior
 62
256
370
-1
 48
1.0
  6
ByLayer
100
AcDbEntity
100
AcDbPolyline
 90
4
 70
0
 10
60.400000000000013
 20
35.978274084857851
 30
0.0
 10
66.400000000000006
 20
35.978274084857851
 30
0.0
 10
66.400000000000006
 20
41.978274084857837
 30
0.0
 10
60.400000000000013
 20
41.978274084857837
 30
0.0
  0
LWPOLYLINE
  5
97
  8
Corte exterior
 62
256
370
-1
 48
1.0
  6
ByLayer
100
AcDbEntity
100
AcDbPolyline
 90
4
 70
0
 10
12.399999999999951
 20
41.978274084857873
 30
0.0
 10
6.399999999999916
 20
41.978274084857837
 30
0.0
 10
6.399999999999916
 20
35.978274084857901
 30
0.0
 10
12.39999999999994
 20
35.978274084857851
 30
0.0
  0
LWPOLYLINE
  5
98
  8
Corte exterior
 62
256
370
-1
 48
1.0
  6
ByLayer
100
AcDbEntity
100
AcDbPolyline
 90
6
 70
0
 10
36.900000000000048
 20
62.999999999999901
 30
0.0
 10
52.400000000000048
 20
62.999999999999901
 30
0.0
 10
52.400000000000048
 20
30.99999999999994
 30
0.0
 10
20.40000000000002
 20
30.99999999999994
 30
0.0
 10
20.400000000000041
 20
62.999999999999901
 30
0.0
 10
35.900000000000048
 20
62.999999999999901
 30
0.0
  0
LWPOLYLINE
  5
99
  8
grabado linea medio
 62
256
370
-1
 48
1.0
  6
ByLayer
100
AcDbEntity
100
AcDbPolyline
 90
5
 70
0
 10
60.40000000000002
 20
32.978274084857851
 30
0.0
 10
57.400000000000013
 20
32.978274084857851
 30
0.0
 10
57.400000000000013
 20
35.978274084857837
 30
0.0
 10
54.40000000000002
 20
35.978274084857837
 30
0.0
 10
54.40000000000002
 20
38.978274084857851
 30
0.0
  0
LWPOLYLINE
  5
9A
  8
grabado linea medio
 62
256
370
-1
 48
1.0
  6
ByLayer
100
AcDbEntity
100
AcDbPolyline
 90
6
 70
0
 10
12.399999999999929
 20
131.1999999999999
 30
0.0
 10
18.39999999999992
 20
131.1999999999999
 30
0.0
 10
18.39999999999992
 20
137.1999999999999
 30
0.0
 10
54.399999999999942
 20
137.1999999999999
 30
0.0
 10
54.399999999999942
 20
131.1999999999999
 30
0.0
 10
60.399999999999928
 20
131.1999999999999
 30
0.0
  0
LWPOLYLINE
  5
9B
  8
grabado linea medio
 62
256
370
-1
 48
1.0
  6
ByLayer
100
AcDbEntity
100
AcDbPolyline
 90
4
 70
1
 10
42.399999999999928
 20
102.2
 30
0.0
 10
42.399999999999928
 20
107.2
 30
0.0
 10
30.399999999999931
 20
107.2
 30
0.0
 10
30.399999999999931
 20
102.2
 30
0.0
  0
LWPOLYLINE
  5
9C
  8
grabado linea medio
 62
256
370
-1
 48
1.0
  6
ByLayer
100
AcDbEntity
100
AcDbPolyline
 90
8
 70
1
 10
47.899999999999928
 20
90.19999999999996
 30
0.0
 10
47.899999999999928
 20
101.2
 30
0.0
 10
42.399999999999928
 20
101.2
 30
0.0
 10
42.399999999999928
 20
95.200000000000017
 30
0.0
 10
30.399999999999931
 20
95.200000000000017
 30
0.0
 10
30.399999999999931
 20
101.2
 30
0.0
 10
24.899999999999931
 20
101.2
 30
0.0
 10
24.899999999999931
 20
90.19999999999996
 30
0.0
  0
LWPOLYLINE
  5
9D
  8
grabado linea medio
 62
256
370
-1
 48
1.0
  6
ByLayer
100
AcDbEntity
100
AcDbPolyline
 90
10
 70
0
 10
12.400000000000009
 20
89.19999999999996
 30
0.0
 10
24.399999999999931
 20
89.19999999999996
 30
0.0
 10
24.399999999999931
 20
83.199999999999932
 30
0.0
 10
30.399999999999931
 20
83.199999999999932
 30
0.0
 10
30.399999999999931
 20
77.199999999999932
 30
0.0
 10
42.399999999999928
 20
77.199999999999932
 30
0.0
 10
42.399999999999928
 20
83.199999999999932
 30
0.0
 10
48.399999999999928
 20
83.199999999999932
 30
0.0
 10
48.399999999999928
 20
89.199999999999989
 30
0.0
 10
60.399999999999928
 20
89.199999999999946
 30
0.0
  0
LWPOLYLINE
  5
9E
  8
grabado linea medio
 62
256
370
-1
 48
1.0
  6
ByLayer
100
AcDbEntity
100
AcDbPolyline
 90
5
 70
0
 10
149.5
 20
58.19999999999996
 30
0.0
 10
96.299999999999983
 20
58.199999999999953
 30
0.0
 10
96.299999999999983
 20
0.9999999999999394
 30
0.0
 10
96.299999999999997
 20
97.999999999999943
 30
0.0
 10
71.300000000000026
 20
97.999999999999943
 30
0.0
  0
LWPOLYLINE
  5
9F
  8
grabado linea medio
 62
256
370
-1
 48
1.0
  6
ByLayer
100
AcDbEntity
100
AcDbPolyline
 90
4
 70
1
 10
130.90519219532459
 20
75.10000000000008
 30
0.0
 10
147.9051921953245
 20
75.10000000000008
 30
0.0
 10
147.9051921953245
 20
112.8000000000001
 30
0.0
 10
130.90519219532459
 20
112.8000000000001
 30
0.0
  0
LWPOLYLINE
  5
A0
  8
grabado linea medio
 62
256
370
-1
 48
1.0
  6
ByLayer
100
AcDbEntity
100
AcDbPolyline
 90
4
 70
0
 10
134.40519219532459
 20
75.10000000000008
 30
0.0
 10
134.40519219532459
 20
58.800000000000061
 30
0.0
 10
144.40519219532459
 20
58.800000000000061
 30
0.0
 10
144.4051921953245
 20
75.10000000000008
 30
0.0
  0
LWPOLYLINE
  5
A1
  8
grabado linea medio
 62
256
370
-1
 48
1.0
  6
ByLayer
100
AcDbEntity
100
AcDbPolyline
 90
4
 70
1
 10
113.90000000000001
 20
47.699999999999953
 30
0.0
 10
113.90000000000001
 20
0.9999999999999431
 30
0.0
 10
131.90000000000001
 20
0.9999999999999431
 30
0.0
 10
131.90000000000001
 20
47.699999999999953
 30
0.0
  0
LWPOLYLINE
  5
A2
  8
Corte exterior
 62
256
370
-1
 48
1.0
  6
ByLayer
100
AcDbEntity
100
AcDbPolyline
 90
18
 70
0
 10
36.058063520326513
 20
43.715067800634237
 30
0.0
 10
29.55806352032652
 20
43.715067800634237
 30
0.0
 10
29.55806352032652
 20
46.115067800634243
 30
0.0
 10
33.558063520326513
 20
46.115067800634243
 30
0.0
 10
33.558063520326513
 20
49.532384506156752
 30
0.0
 10
24.55806352032652
 20
49.532384506156752
 30
0.0
 10
24.55806352032652
 20
35.532384506156752
 30
0.0
 10
27.55806352032652
 20
35.532384506156752
 30
0.0
 10
27.55806352032652
 20
39.532384506156752
 30
0.0
 10
45.558063520326492
 20
39.532384506156752
 30
0.0
 10
45.558063520326492
 20
35.532384506156752
 30
0.0
 10
48.558063520326492
 20
35.532384506156752
 30
0.0
 10
48.558063520326492
 20
49.532384506156752
 30
0.0
 10
39.544448922348771
 20
49.532384506156752
 30
0.0
 10
39.544448922348771
 20
46.115067800634243
 30
0.0
 10
43.558063520326492
 20
46.115067800634243
 30
0.0
 10
43.558063520326492
 20
43.715067800634237
 30
0.0
 10
37.058063520326513
 20
43.715067800634237
 30
0.0
  0
LWPOLYLINE
  5
A3
  8
Corte exterior
 62
256
370
-1
 48
1.0
  6
ByLayer
100
AcDbEntity
100
AcDbPolyline
 90
18
 70
0
 10
12.39999999999997
 20
59.929594314929268
 30
0.0
 10
12.400000000000009
 20
24.778274084857848
 30
0.0
 10
12.400000000000009
 20
0.9999999999999932
 30
0.0
 10
24.400000000000009
 20
0.9999999999999495
 30
0.0
 10
24.400000000000009
 20
4.9999999999999361
 30
0.0
 10
27.400000000000009
 20
4.9999999999999361
 30
0.0
 10
27.400000000000009
 20
0.9999999999999376
 30
0.0
 10
32.40000000000002
 20
0.9999999999999945
 30
0.0
 10
32.40000000000002
 20
24.778274084857848
 30
0.0
 10
40.40000000000002
 20
24.778274084857848
 30
0.0
 10
40.400000000000013
 20
0.9999999999999936
 30
0.0
 10
45.400000000000013
 20
0.9999999999999927
 30
0.0
 10
45.400000000000013
 20
4.999999999999992
 30
0.0
 10
48.400000000000013
 20
4.999999999999992
 30
0.0
 10
48.400000000000013
 20
0.9999999999999936
 30
0.0
 10
60.40000000000002
 20
0.9999999999999708
 30
0.0
 10
60.400000000000048
 20
24.778274084857848
 30
0.0
 10
60.399999999999991
 20
59.5
 30
0.0
  0
LWPOLYLINE
  5
A4
  8
Corte exterior
 62
256
370
-1
 48
1.0
  6
ByLayer
100
AcDbEntity
100
AcDbPolyline
 90
4
 70
1
 10
114.40000000000001
 20
113.8000000000001
 30
0.0
 10
134.40000000000001
 20
113.8000000000001
 30
0.0
 10
134.40000000000001
 20
116.7999999999999
 30
0.0
 10
114.40000000000001
 20
116.7999999999999
 30
0.0
  0
LWPOLYLINE
  5
A5
  8
Corte exterior
 62
256
370
-1
 48
1.0
  6
ByLayer
100
AcDbEntity
100
AcDbPolyline
 90
4
 70
1
 10
106.40000000000001
 20
113.8000000000001
 30
0.0
 10
106.40000000000001
 20
116.7999999999999
 30
0.0
 10
86.400000000000006
 20
116.7999999999999
 30
0.0
 10
86.400000000000006
 20
113.8000000000001
 30
0.0
  0
ENDSEC
  0
SECTION
  2
OBJECTS
  0
DICTIONARY
  5
C
100
AcDbDictionary
280
0
281
1
  3
ACAD_GROUP
350
D
  3
ACAD_LAYOUT
350
1A
  3
ACAD_MLINESTYLE
350
17
  3
ACAD_PLOTSETTINGS
350
19
  3
ACAD_PLOTSTYLENAME
350
E
  3
AcDbVariableDictionary
350
A6
  3
QCAD_OBJECTS
350
A7
  0
DICTIONARY
  5
D
100
AcDbDictionary
280
0
281
1
  0
ACDBDICTIONARYWDFLT
  5
E
100
AcDbDictionary
281
1
  3
Normal
350
F
100
AcDbDictionaryWithDefault
340
F
  0
ACDBPLACEHOLDER
  5
F
  0
DICTIONARY
  5
17
100
AcDbDictionary
280
0
281
1
  3
Standard
350
18
  0
MLINESTYLE
  5
18
100
AcDbMlineStyle
  2
STANDARD
 70
0
  3

 62
256
 51
90.0
 52
90.0
 71
2
 49
0.5
 62
256
  6
BYLAYER
 49
-0.5
 62
256
  6
BYLAYER
  0
DICTIONARY
  5
19
100
AcDbDictionary
280
0
281
1
  0
DICTIONARY
  5
1A
100
AcDbDictionary
281
1
  3
Layout1
350
1E
  3
Layout2
350
26
  3
Model
350
22
  0
LAYOUT
  5
1E
100
AcDbPlotSettings
  1

  2
none_device
  4

  6

 40
0.0
 41
0.0
 42
0.0
 43
0.0
 44
0.0
 45
0.0
 46
0.0
 47
0.0
 48
0.0
 49
0.0
140
0.0
141
0.0
142
1.0
143
1.0
 70
688
 72
0
 73
0
 74
5
  7

 75
16
147
1.0
148
0.0
149
0.0
100
AcDbLayout
  1
Layout1
 70
1
 71
1
 10
0.0
 20
0.0
 11
420.0
 21
297.0
 12
0.0
 22
0.0
 32
0.0
 14
100000000000000000000.0
 24
100000000000000000000.0
 34
100000000000000000000.0
 15
-100000000000000000000.0
 25
-100000000000000000000.0
 35
-100000000000000000000.0
146
0.0
 13
0.0
 23
0.0
 33
0.0
 16
1.0
 26
0.0
 36
0.0
 17
0.0
 27
1.0
 37
0.0
 76
0
330
1B
  0
LAYOUT
  5
22
100
AcDbPlotSettings
  1

  2
none_device
  4

  6

 40
0.0
 41
0.0
 42
0.0
 43
0.0
 44
0.0
 45
0.0
 46
0.0
 47
0.0
 48
0.0
 49
0.0
140
0.0
141
0.0
142
1.0
143
1.0
 70
1712
 72
0
 73
0
 74
0
  7

 75
0
147
1.0
148
0.0
149
0.0
100
AcDbLayout
  1
Model
 70
1
 71
0
 10
0.0
 20
0.0
 11
12.0
 21
9.0
 12
0.0
 22
0.0
 32
0.0
 14
0.0
 24
0.0
 34
0.0
 15
0.0
 25
0.0
 35
0.0
146
0.0
 13
0.0
 23
0.0
 33
0.0
 16
1.0
 26
0.0
 36
0.0
 17
0.0
 27
1.0
 37
0.0
 76
0
330
1F
  0
LAYOUT
  5
26
100
AcDbPlotSettings
  1

  2
none_device
  4

  6

 40
0.0
 41
0.0
 42
0.0
 43
0.0
 44
0.0
 45
0.0
 46
0.0
 47
0.0
 48
0.0
 49
0.0
140
0.0
141
0.0
142
1.0
143
1.0
 70
688
 72
0
 73
0
 74
5
  7

 75
16
147
1.0
148
0.0
149
0.0
100
AcDbLayout
  1
Layout2
 70
1
 71
2
 10
0.0
 20
0.0
 11
12.0
 21
9.0
 12
0.0
 22
0.0
 32
0.0
 14
0.0
 24
0.0
 34
0.0
 15
0.0
 25
0.0
 35
0.0
146
0.0
 13
0.0
 23
0.0
 33
0.0
 16
1.0
 26
0.0
 36
0.0
 17
0.0
 27
1.0
 37
0.0
 76
0
330
23
  0
DICTIONARY
  5
A6
100
AcDbDictionary
281
1
  3
DIMASSOC
350
A9
  3
HIDETEXT
350
A8
  0
DICTIONARYVAR
  5
A8
100
DictionaryVariables
280
0
  1
2
  0
DICTIONARYVAR
  5
A9
100
DictionaryVariables
280
0
  1
1
  0
DICTIONARY
  5
A7
100
AcDbDictionary
281
1
  3
ACAD_CIP_PREVIOUS_PRODUCT_INFO
350
AA
  3
ColorSettings/BackgroundColor
350
AB
  3
ColorSettings/ColorMode
350
AC
  3
Grid/DisplayGrid00
350
AD
  3
Grid/DisplayGrid01
350
AE
  3
Grid/DisplayGrid02
350
AF
  3
Grid/DisplayGrid03
350
B0
  3
Grid/GridSpacingX00
350
B1
  3
Grid/GridSpacingX01
350
B2
  3
Grid/GridSpacingX02
350
B3
  3
Grid/GridSpacingX03
350
B4
  3
Grid/GridSpacingY00
350
B5
  3
Grid/GridSpacingY01
350
B6
  3
Grid/GridSpacingY02
350
B7
  3
Grid/GridSpacingY03
350
B8
  3
Grid/IsometricGrid00
350
B9
  3
Grid/IsometricGrid01
350
BA
  3
Grid/IsometricGrid02
350
BB
  3
Grid/IsometricGrid03
350
BC
  3
Grid/IsometricProjection00
350
BD
  3
Grid/IsometricProjection01
350
BE
  3
Grid/IsometricProjection02
350
BF
  3
Grid/IsometricProjection03
350
C0
  3
Grid/MetaGridSpacingX00
350
C1
  3
Grid/MetaGridSpacingX01
350
C2
  3
Grid/MetaGridSpacingX02
350
C3
  3
Grid/MetaGridSpacingX03
350
C4
  3
Grid/MetaGridSpacingY00
350
C5
  3
Grid/MetaGridSpacingY01
350
C6
  3
Grid/MetaGridSpacingY02
350
C7
  3
Grid/MetaGridSpacingY03
350
C8
  3
MultiPageSettings/Columns
350
C9
  3
MultiPageSettings/GlueMarginsBottom
350
CA
  3
MultiPageSettings/GlueMarginsLeft
350
CB
  3
MultiPageSettings/GlueMarginsRight
350
CC
  3
MultiPageSettings/GlueMarginsTop
350
CD
  3
MultiPageSettings/PrintCropMarks
350
CE
  3
MultiPageSettings/Rows
350
CF
  3
PageSettings/OffsetX
350
D0
  3
PageSettings/OffsetY
350
D1
  3
PageSettings/PageOrientation
350
D2
  3
PageSettings/PaperHeight
350
D3
  3
PageSettings/PaperWidth
350
D4
  3
PageSettings/Scale
350
D5
  3
PageSettings/ShowPaperBorders
350
D6
  3
QCADVersion
350
D7
  3
UnitSettings/PaperUnit
350
D8
  3
ViewportCenter
350
D9
  3
ViewportHeight
350
DA
  3
ViewportWidth
350
DB
  0
XRECORD
  5
AB
330
A7
100
AcDbXrecord
280
1
1000
Blanca
  0
XRECORD
  5
AC
330
A7
100
AcDbXrecord
280
1
1000
FullColor
  0
XRECORD
  5
AD
330
A7
100
AcDbXrecord
280
1
290
1
  0
XRECORD
  5
AE
330
A7
100
AcDbXrecord
280
1
290
1
  0
XRECORD
  5
AF
330
A7
100
AcDbXrecord
280
1
290
1
  0
XRECORD
  5
B0
330
A7
100
AcDbXrecord
280
1
290
1
  0
XRECORD
  5
B1
330
A7
100
AcDbXrecord
280
1
1000
auto
  0
XRECORD
  5
B2
330
A7
100
AcDbXrecord
280
1
1000
auto
  0
XRECORD
  5
B3
330
A7
100
AcDbXrecord
280
1
1000
auto
  0
XRECORD
  5
B4
330
A7
100
AcDbXrecord
280
1
1000
auto
  0
XRECORD
  5
B5
330
A7
100
AcDbXrecord
280
1
1000
auto
  0
XRECORD
  5
B6
330
A7
100
AcDbXrecord
280
1
1000
auto
  0
XRECORD
  5
B7
330
A7
100
AcDbXrecord
280
1
1000
auto
  0
XRECORD
  5
B8
330
A7
100
AcDbXrecord
280
1
1000
auto
  0
XRECORD
  5
B9
330
A7
100
AcDbXrecord
280
1
290
0
  0
XRECORD
  5
BA
330
A7
100
AcDbXrecord
280
1
290
0
  0
XRECORD
  5
BB
330
A7
100
AcDbXrecord
280
1
290
0
  0
XRECORD
  5
BC
330
A7
100
AcDbXrecord
280
1
290
0
  0
XRECORD
  5
BD
330
A7
100
AcDbXrecord
280
1
 90
0
  0
XRECORD
  5
BE
330
A7
100
AcDbXrecord
280
1
 90
0
  0
XRECORD
  5
BF
330
A7
100
AcDbXrecord
280
1
 90
0
  0
XRECORD
  5
C0
330
A7
100
AcDbXrecord
280
1
 90
0
  0
XRECORD
  5
C1
330
A7
100
AcDbXrecord
280
1
1000
auto
  0
XRECORD
  5
C2
330
A7
100
AcDbXrecord
280
1
1000
auto
  0
XRECORD
  5
C3
330
A7
100
AcDbXrecord
280
1
1000
auto
  0
XRECORD
  5
C4
330
A7
100
AcDbXrecord
280
1
1000
auto
  0
XRECORD
  5
C5
330
A7
100
AcDbXrecord
280
1
1000
auto
  0
XRECORD
  5
C6
330
A7
100
AcDbXrecord
280
1
1000
auto
  0
XRECORD
  5
C7
330
A7
100
AcDbXrecord
280
1
1000
auto
  0
XRECORD
  5
C8
330
A7
100
AcDbXrecord
280
1
1000
auto
  0
XRECORD
  5
C9
330
A7
100
AcDbXrecord
280
1
 90
1
  0
XRECORD
  5
CA
330
A7
100
AcDbXrecord
280
1
 40
10.0
  0
XRECORD
  5
CB
330
A7
100
AcDbXrecord
280
1
 40
10.0
  0
XRECORD
  5
CC
330
A7
100
AcDbXrecord
280
1
 40
10.0
  0
XRECORD
  5
CD
330
A7
100
AcDbXrecord
280
1
 40
10.0
  0
XRECORD
  5
CE
330
A7
100
AcDbXrecord
280
1
290
0
  0
XRECORD
  5
CF
330
A7
100
AcDbXrecord
280
1
 90
1
  0
XRECORD
  5
D0
330
A7
100
AcDbXrecord
280
1
 40
0.0
  0
XRECORD
  5
D1
330
A7
100
AcDbXrecord
280
1
 40
0.0
  0
XRECORD
  5
D2
330
A7
100
AcDbXrecord
280
1
1000
Portrait
  0
XRECORD
  5
D3
330
A7
100
AcDbXrecord
280
1
 40
279.39999999999998
  0
XRECORD
  5
D4
330
A7
100
AcDbXrecord
280
1
 40
215.90000000000001
  0
XRECORD
  5
D5
330
A7
100
AcDbXrecord
280
1
1000
1:1
  0
XRECORD
  5
D6
330
A7
100
AcDbXrecord
280
1
290
1
  0
XRECORD
  5
D7
330
A7
100
AcDbXrecord
280
1
1000
3.15.2
  0
XRECORD
  5
D8
330
A7
100
AcDbXrecord
280
1
 90
4
  0
XRECORD
  5
DA
330
A7
100
AcDbXrecord
280
1
 40
178.32201058201122
  0
XRECORD
  5
DB
330
A7
100
AcDbXrecord
280
1
 40
358.72722222222353
  0
ENDSEC
  0
EOF
