999
dxflib 3.12.2.0
  0
SECTION
  2
HEADER
  9
$ACADVER
  1
AC1015
  9
$HANDSEED
  5
FFFF
  9
$ANGBASE
 50
0.0
  9
$ATTMODE
 70
1
  9
$AUNITS
 70
0
  9
$AUPREC
 70
0
  9
$CELTSCALE
 40
1.0
  9
$CHAMFERA
 40
0.0
  9
$CHAMFERB
 40
0.0
  9
$CHAMFERC
 40
0.0
  9
$CHAMFERD
 40
0.0
  9
$CMLJUST
 70
0
  9
$CMLSCALE
 40
1.0
  9
$DIMADEC
 70
0
  9
$DIMALTD
 70
3
  9
$DIMALTF
 40
0.03937007874016
  9
$DIMALTRND
 40
0.0
  9
$DIMALTTD
 70
2
  9
$DIMALTTZ
 70
0
  9
$DIMALTU
 70
2
  9
$DIMALTZ
 70
0
  9
$DIMAPOST
  1

  9
$DIMASZ
 40
2.5
  9
$DIMATFIT
 70
3
  9
$DIMAUNIT
 70
0
  9
$DIMAZIN
 70
0
  9
$DIMCEN
 40
2.5
  9
$DIMDEC
 70
4
  9
$DIMDLE
 40
0.0
  9
$DIMDLI
 40
3.75
  9
$DIMDSEP
 70
46
  9
$DIMEXE
 40
1.25
  9
$DIMEXO
 40
0.625
  9
$DIMFRAC
 70
0
  9
$DIMGAP
 40
0.625
  9
$DIMJUST
 70
0
  9
$DIMLFAC
 40
1.0
  9
$DIMLUNIT
 70
2
  9
$DIMLWD
 70
-2
  9
$DIMLWE
 70
-2
  9
$DIMPOST
  1

  9
$DIMRND
 40
0.0
  9
$DIMSCALE
 40
1.0
  9
$DIMTAD
 70
1
  9
$DIMTDEC
 70
4
  9
$DIMTFAC
 40
1.0
  9
$DIMTM
 40
0.0
  9
$DIMTOLJ
 70
1
  9
$DIMTP
 40
0.0
  9
$DIMTSZ
 40
0.0
  9
$DIMTVP
 40
0.0
  9
$DIMTXT
 40
2.5
  9
$DIMTZIN
 70
0
  9
$DIMZIN
 70
8
  9
$DWGCODEPAGE
  3
ANSI_1252
  9
$ELEVATION
 40
0.0
  9
$EXTMAX
 10
149.5660407021247
 20
150.98250024770039
 30
0.0000000814935746
  9
$EXTMIN
 10
1.4932260772833379
 20
0.9961879042951977
 30
-0.0000000349181948
  9
$FILLETRAD
 40
1.0
  9
$INSBASE
 10
0.0
 20
0.0
 30
0.0
  9
$INSUNITS
 70
0
  9
$LIMMAX
 10
420.0
 20
297.0
  9
$LIMMIN
 10
0.0
 20
0.0
  9
$LTSCALE
 40
1.0
  9
$LUNITS
 70
2
  9
$LUPREC
 70
4
  9
$MAXACTVP
 70
2
  9
$MEASUREMENT
 70
0
  9
$PDMODE
 70
0
  9
$PDSIZE
 40
0.0
  9
$PELEVATION
 40
0.0
  9
$PEXTMAX
 10
0.0
 20
0.0
 30
0.0
  9
$PEXTMIN
 10
0.0
 20
0.0
 30
0.0
  9
$PINSBASE
 10
0.0
 20
0.0
 30
0.0
  9
$PLIMMAX
 10
10.75
 20
8.25
  9
$PLIMMIN
 10
-0.25
 20
-0.25
  9
$PLINEWID
 40
0.0
  9
$PROXYGRAPHICS
 70
1
  9
$PUCSORG
 10
0.0
 20
0.0
 30
0.0
  9
$PUCSXDIR
 10
1.0
 20
0.0
 30
0.0
  9
$PUCSYDIR
 10
0.0
 20
1.0
 30
0.0
  9
$SHADEDGE
 70
3
  9
$SHADEDIF
 70
70
  9
$SKETCHINC
 40
1.0
  9
$SPLINESEGS
 70
8
  9
$SPLINETYPE
 70
6
  9
$SURFTAB1
 70
6
  9
$SURFTAB2
 70
6
  9
$SURFTYPE
 70
6
  9
$SURFU
 70
6
  9
$SURFV
 70
6
  9
$TEXTSIZE
 40
2.5
  9
$THICKNESS
 40
0.0
  9
$TRACEWID
 40
1.0
  9
$TREEDEPTH
 70
3020
  9
$UCSORG
 10
0.0
 20
0.0
 30
0.0
  9
$UCSXDIR
 10
1.0
 20
0.0
 30
0.0
  9
$UCSYDIR
 10
0.0
 20
1.0
 30
0.0
  9
$UNITMODE
 70
0
  9
$USERI1
 70
0
  9
$USERI2
 70
0
  9
$USERI3
 70
0
  9
$USERI4
 70
0
  9
$USERI5
 70
0
  9
$USERR1
 40
0.0
  9
$USERR2
 40
0.0
  9
$USERR3
 40
0.0
  9
$USERR4
 40
0.0
  9
$USERR5
 40
0.0
  0
ENDSEC
  0
SECTION
  2
TABLES
  0
TABLE
  2
VPORT
  5
8
100
AcDbSymbolTable
 70
1
  0
VPORT
  5
30
100
AcDbSymbolTableRecord
100
AcDbViewportTableRecord
  2
*Active
 70
0
 10
0.0
 20
0.0
 11
1.0
 21
1.0
 12
286.30555555555549
 22
148.5
 13
0.0
 23
0.0
 14
10.0
 24
10.0
 15
10.0
 25
10.0
 16
0.0
 26
0.0
 36
1.0
 17
0.0
 27
0.0
 37
0.0
 40
297.0
 41
1.92798353909465
 42
50.0
 43
0.0
 44
0.0
 50
0.0
 51
0.0
 71
0
 72
100
 73
1
 74
3
 75
1
 76
1
 77
0
 78
0
281
0
 65
1
110
0.0
120
0.0
130
0.0
111
1.0
121
0.0
131
0.0
112
0.0
122
1.0
132
0.0
 79
0
146
0.0
  0
ENDTAB
  0
TABLE
  2
LTYPE
  5
5
100
AcDbSymbolTable
 70
50
  0
LTYPE
  5
16
100
AcDbSymbolTableRecord
100
AcDbLinetypeTableRecord
  2
Continuous
 70
0
  3
Solid line
 72
65
 73
0
 40
0.0
  0
LTYPE
  5
31
100
AcDbSymbolTableRecord
100
AcDbLinetypeTableRecord
  2
ACAD_ISO15W100
 70
0
  3
ISO double-dash triple-dot __ __ . . . __ __ . .
 72
65
 73
10
 40
39.000000000000007
 49
12.0
 74
0
 49
-3.0
 74
0
 49
12.0
 74
0
 49
-2.9500000000000002
 74
0
 49
0.1
 74
0
 49
-2.8999999999999999
 74
0
 49
0.1
 74
0
 49
-2.8999999999999999
 74
0
 49
0.1
 74
0
 49
-2.9500000000000002
 74
0
  0
LTYPE
  5
32
100
AcDbSymbolTableRecord
100
AcDbLinetypeTableRecord
  2
HOT_WATER_SUPPLY
 70
0
  3
Hot water supply ---- HW ---- HW ---- HW ----
 72
65
 73
3
 40
22.859999999999999
 49
12.699999999999999
 74
0
 49
-5.0800000000000001
 74
0
 49
-5.0800000000000001
 74
0
  0
LTYPE
  5
33
100
AcDbSymbolTableRecord
100
AcDbLinetypeTableRecord
  2
DIVIDE
 70
0
  3
Divide ____ . . ____ . . ____ . . ____ . . ____
 72
65
 73
6
 40
31.749999999999989
 49
12.699999999999999
 74
0
 49
-6.2999999999999972
 74
0
 49
0.1
 74
0
 49
-6.2499999999999938
 74
0
 49
0.1
 74
0
 49
-6.2999999999999972
 74
0
  0
LTYPE
  5
34
100
AcDbSymbolTableRecord
100
AcDbLinetypeTableRecord
  2
ACAD_ISO10W100
 70
0
  3
ISO dash dot __ . __ . __ . __ . __ . __ . __ . 
 72
65
 73
4
 40
18.0
 49
12.0
 74
0
 49
-2.9500000000000002
 74
0
 49
0.1
 74
0
 49
-2.9500000000000002
 74
0
  0
LTYPE
  5
35
100
AcDbSymbolTableRecord
100
AcDbLinetypeTableRecord
  2
GAS_LINE
 70
0
  3
Gas line ----GAS----GAS----GAS----GAS----GAS----GAS--
 72
65
 73
3
 40
24.129999999999999
 49
12.699999999999999
 74
0
 49
-5.0800000000000001
 74
0
 49
-6.349999999999997
 74
0
  0
LTYPE
  5
36
100
AcDbSymbolTableRecord
100
AcDbLinetypeTableRecord
  2
ACAD_ISO04W100
 70
0
  3
ISO long-dash dot ____ . ____ . ____ . ____ . _
 72
65
 73
4
 40
30.0
 49
24.0
 74
0
 49
-2.9500000000000002
 74
0
 49
0.1
 74
0
 49
-2.9500000000000002
 74
0
  0
LTYPE
  5
14
100
AcDbSymbolTableRecord
100
AcDbLinetypeTableRecord
  2
ByBlock
 70
0
  3

 72
65
 73
0
 40
0.0
  0
LTYPE
  5
37
100
AcDbSymbolTableRecord
100
AcDbLinetypeTableRecord
  2
CENTER2
 70
0
  3
Center (.5x) ___ _ ___ _ ___ _ ___ _ ___ _ ___
 72
65
 73
4
 40
28.574999999999992
 49
19.050000000000001
 74
0
 49
-3.174999999999998
 74
0
 49
3.174999999999998
 74
0
 49
-3.174999999999998
 74
0
  0
LTYPE
  5
38
100
AcDbSymbolTableRecord
100
AcDbLinetypeTableRecord
  2
ACAD_ISO11W100
 70
0
  3
ISO double-dash dot __ __ . __ __ . __ __ . __ _
 72
65
 73
6
 40
33.0
 49
12.0
 74
0
 49
-3.0
 74
0
 49
12.0
 74
0
 49
-2.9500000000000002
 74
0
 49
0.1
 74
0
 49
-2.9500000000000002
 74
0
  0
LTYPE
  5
39
100
AcDbSymbolTableRecord
100
AcDbLinetypeTableRecord
  2
HIDDEN2
 70
0
  3
Hidden (.5x) _ _ _ _ _ _ _ _ _ _ _ _ _ _ _ _ _ 
 72
65
 73
2
 40
4.7624999999999975
 49
3.174999999999998
 74
0
 49
-1.587499999999999
 74
0
  0
LTYPE
  5
3A
100
AcDbSymbolTableRecord
100
AcDbLinetypeTableRecord
  2
BORDERX2
 70
0
  3
Border (2x) ____  ____  .  ____  ____  .  ___
 72
65
 73
6
 40
88.899999999999991
 49
25.399999999999999
 74
0
 49
-12.699999999999999
 74
0
 49
25.399999999999999
 74
0
 49
-12.65
 74
0
 49
0.1
 74
0
 49
-12.65
 74
0
  0
LTYPE
  5
3B
100
AcDbSymbolTableRecord
100
AcDbLinetypeTableRecord
  2
ACAD_ISO05W100
 70
0
  3
ISO long-dash double-dot ____ .. ____ .. ____ . 
 72
65
 73
6
 40
33.0
 49
24.0
 74
0
 49
-2.9500000000000002
 74
0
 49
0.1
 74
0
 49
-2.8999999999999999
 74
0
 49
0.1
 74
0
 49
-2.9500000000000002
 74
0
  0
LTYPE
  5
3C
100
AcDbSymbolTableRecord
100
AcDbLinetypeTableRecord
  2
DASHDOTX2
 70
0
  3
Dash dot (2x) ____  .  ____  .  ____  .  ___
 72
65
 73
4
 40
50.799999999999997
 49
25.399999999999999
 74
0
 49
-12.65
 74
0
 49
0.1
 74
0
 49
-12.65
 74
0
  0
LTYPE
  5
3D
100
AcDbSymbolTableRecord
100
AcDbLinetypeTableRecord
  2
HIDDENX2
 70
0
  3
Hidden (2x) ____ ____ ____ ____ ____ ____ ____ 
 72
65
 73
2
 40
19.049999999999997
 49
12.699999999999999
 74
0
 49
-6.349999999999997
 74
0
  0
LTYPE
  5
3E
100
AcDbSymbolTableRecord
100
AcDbLinetypeTableRecord
  2
CENTERX2
 70
0
  3
Center (2x) ________  __  ________  __  _____
 72
65
 73
4
 40
101.60000000000001
 49
63.5
 74
0
 49
-12.699999999999999
 74
0
 49
12.699999999999999
 74
0
 49
-12.699999999999999
 74
0
  0
LTYPE
  5
3F
100
AcDbSymbolTableRecord
100
AcDbLinetypeTableRecord
  2
BORDER2
 70
0
  3
Border (.5x) __.__.__.__.__.__.__.__.__.__.__.
 72
65
 73
6
 40
22.224999999999987
 49
6.349999999999997
 74
0
 49
-3.174999999999998
 74
0
 49
6.349999999999997
 74
0
 49
-3.124999999999996
 74
0
 49
0.1
 74
0
 49
-3.124999999999996
 74
0
  0
LTYPE
  5
40
100
AcDbSymbolTableRecord
100
AcDbLinetypeTableRecord
  2
DASHDOT2
 70
0
  3
Dash dot (.5x) _._._._._._._._._._._._._._._.
 72
65
 73
4
 40
12.699999999999989
 49
6.349999999999997
 74
0
 49
-3.124999999999996
 74
0
 49
0.1
 74
0
 49
-3.124999999999996
 74
0
  0
LTYPE
  5
41
100
AcDbSymbolTableRecord
100
AcDbLinetypeTableRecord
  2
ACAD_ISO12W100
 70
0
  3
ISO dash double-dot __ . . __ . . __ . . __ . . 
 72
65
 73
6
 40
21.0
 49
12.0
 74
0
 49
-2.9500000000000002
 74
0
 49
0.1
 74
0
 49
-2.8999999999999999
 74
0
 49
0.1
 74
0
 49
-2.9500000000000002
 74
0
  0
LTYPE
  5
42
100
AcDbSymbolTableRecord
100
AcDbLinetypeTableRecord
  2
ACAD_ISO07W100
 70
0
  3
ISO dot . . . . . . . . . . . . . . . . . . . . 
 72
65
 73
2
 40
3.0
 49
0.1
 74
0
 49
-2.8999999999999999
 74
0
  0
LTYPE
  5
43
100
AcDbSymbolTableRecord
100
AcDbLinetypeTableRecord
  2
ACAD_ISO06W100
 70
0
  3
ISO long-dash triple-dot ____ ... ____ ... ____
 72
65
 73
8
 40
36.000000000000007
 49
24.0
 74
0
 49
-2.9500000000000002
 74
0
 49
0.1
 74
0
 49
-2.8999999999999999
 74
0
 49
0.1
 74
0
 49
-2.8999999999999999
 74
0
 49
0.1
 74
0
 49
-2.9500000000000002
 74
0
  0
LTYPE
  5
44
100
AcDbSymbolTableRecord
100
AcDbLinetypeTableRecord
  2
CENTER
 70
0
  3
Center ____ _ ____ _ ____ _ ____ _ ____ _ ____
 72
65
 73
4
 40
50.799999999999983
 49
31.75
 74
0
 49
-6.349999999999997
 74
0
 49
6.349999999999997
 74
0
 49
-6.349999999999997
 74
0
  0
LTYPE
  5
45
100
AcDbSymbolTableRecord
100
AcDbLinetypeTableRecord
  2
HIDDEN
 70
0
  3
Hidden __ __ __ __ __ __ __ __ __ __ __ __ __ __
 72
65
 73
2
 40
9.524999999999995
 49
6.349999999999997
 74
0
 49
-3.174999999999998
 74
0
  0
LTYPE
  5
46
100
AcDbSymbolTableRecord
100
AcDbLinetypeTableRecord
  2
DOTX2
 70
0
  3
Dot (2x) .  .  .  .  .  .  .  .  .  .  .  .  .  .
 72
65
 73
2
 40
12.699999999999999
 49
0.1
 74
0
 49
-12.6
 74
0
  0
LTYPE
  5
47
100
AcDbSymbolTableRecord
100
AcDbLinetypeTableRecord
  2
PHANTOM
 70
0
  3
Phantom ______  __  __  ______  __  __  ______ 
 72
65
 73
6
 40
63.499999999999972
 49
31.75
 74
0
 49
-6.349999999999997
 74
0
 49
6.349999999999997
 74
0
 49
-6.349999999999997
 74
0
 49
6.349999999999997
 74
0
 49
-6.349999999999997
 74
0
  0
LTYPE
  5
48
100
AcDbSymbolTableRecord
100
AcDbLinetypeTableRecord
  2
ACAD_ISO08W100
 70
0
  3
ISO long-dash short-dash ____ __ ____ __ ____ _
 72
65
 73
4
 40
36.0
 49
24.0
 74
0
 49
-3.0
 74
0
 49
6.0
 74
0
 49
-3.0
 74
0
  0
LTYPE
  5
49
100
AcDbSymbolTableRecord
100
AcDbLinetypeTableRecord
  2
DASHEDX2
 70
0
  3
Dashed (2x) ____  ____  ____  ____  ____  ___
 72
65
 73
2
 40
38.099999999999994
 49
25.399999999999999
 74
0
 49
-12.699999999999999
 74
0
  0
LTYPE
  5
4A
100
AcDbSymbolTableRecord
100
AcDbLinetypeTableRecord
  2
DRAINAGE
 70
0
  3
Drainage ---->---->---->----
 72
65
 73
2
 40
10.16
 49
5.0800000000000001
 74
0
 49
5.0800000000000001
 74
0
  0
LTYPE
  5
4B
100
AcDbSymbolTableRecord
100
AcDbLinetypeTableRecord
  2
ACAD_ISO02W100
 70
0
  3
ISO dash __ __ __ __ __ __ __ __ __ __ __ __ __
 72
65
 73
2
 40
15.0
 49
12.0
 74
0
 49
-3.0
 74
0
  0
LTYPE
  5
4C
100
AcDbSymbolTableRecord
100
AcDbLinetypeTableRecord
  2
PHANTOM2
 70
0
  3
Phantom (.5x) ___ _ _ ___ _ _ ___ _ _ ___ _ _
 72
65
 73
6
 40
31.749999999999986
 49
15.875
 74
0
 49
-3.174999999999998
 74
0
 49
3.174999999999998
 74
0
 49
-3.174999999999998
 74
0
 49
3.174999999999998
 74
0
 49
-3.174999999999998
 74
0
  0
LTYPE
  5
4D
100
AcDbSymbolTableRecord
100
AcDbLinetypeTableRecord
  2
DASHED2
 70
0
  3
Dashed (.5x) _ _ _ _ _ _ _ _ _ _ _ _ _ _ _ _ _ 
 72
65
 73
2
 40
9.524999999999995
 49
6.349999999999997
 74
0
 49
-3.174999999999998
 74
0
  0
LTYPE
  5
4E
100
AcDbSymbolTableRecord
100
AcDbLinetypeTableRecord
  2
ACAD_ISO09W100
 70
0
  3
ISO long-dash double-short-dash ____ __ __ ____
 72
65
 73
6
 40
45.0
 49
24.0
 74
0
 49
-3.0
 74
0
 49
6.0
 74
0
 49
-3.0
 74
0
 49
6.0
 74
0
 49
-3.0
 74
0
  0
LTYPE
  5
4F
100
AcDbSymbolTableRecord
100
AcDbLinetypeTableRecord
  2
ACAD_ISO13W100
 70
0
  3
ISO double-dash double-dot __ __ . . __ __ . . _
 72
65
 73
8
 40
36.000000000000007
 49
12.0
 74
0
 49
-3.0
 74
0
 49
12.0
 74
0
 49
-2.9500000000000002
 74
0
 49
0.1
 74
0
 49
-2.8999999999999999
 74
0
 49
0.1
 74
0
 49
-2.9500000000000002
 74
0
  0
LTYPE
  5
50
100
AcDbSymbolTableRecord
100
AcDbLinetypeTableRecord
  2
TRACKS
 70
0
  3
Tracks -|-|-|-|-|-|-|-|-|-|-|-|-|-|-|-|-|-|-|-|-|-|-|-|-
 72
65
 73
2
 40
7.6200000000000001
 49
3.8100000000000001
 74
0
 49
3.8100000000000001
 74
0
  0
LTYPE
  5
51
100
AcDbSymbolTableRecord
100
AcDbLinetypeTableRecord
  2
DRAINAGE2
 70
0
  3
Drainage reversed----<----<----<----
 72
65
 73
2
 40
10.16
 49
5.0800000000000001
 74
0
 49
5.0800000000000001
 74
0
  0
LTYPE
  5
52
100
AcDbSymbolTableRecord
100
AcDbLinetypeTableRecord
  2
DOT2
 70
0
  3
Dot (.5x) ........................................
 72
65
 73
2
 40
3.174999999999998
 49
0.1
 74
0
 49
-3.074999999999998
 74
0
  0
LTYPE
  5
53
100
AcDbSymbolTableRecord
100
AcDbLinetypeTableRecord
  2
ZIGZAG
 70
0
  3
Zig zag /\/\/\/\/\/\/\/\/\/\/\/\/\/\/\/\/\/\/\/\/\/\/\/
 72
65
 73
4
 40
20.32254
 49
0.00254
 74
0
 49
-5.0800000000000001
 74
0
 49
-10.16
 74
0
 49
-5.0800000000000001
 74
0
  0
LTYPE
  5
54
100
AcDbSymbolTableRecord
100
AcDbLinetypeTableRecord
  2
DASHED
 70
0
  3
Dashed __ __ __ __ __ __ __ __ __ __ __ __ __ _
 72
65
 73
2
 40
19.049999999999997
 49
12.699999999999999
 74
0
 49
-6.349999999999997
 74
0
  0
LTYPE
  5
55
100
AcDbSymbolTableRecord
100
AcDbLinetypeTableRecord
  2
ACAD_ISO14W100
 70
0
  3
ISO dash triple-dot __ . . . __ . . . __ . . . _
 72
65
 73
8
 40
24.0
 49
12.0
 74
0
 49
-2.9500000000000002
 74
0
 49
0.1
 74
0
 49
-2.8999999999999999
 74
0
 49
0.1
 74
0
 49
-2.8999999999999999
 74
0
 49
0.1
 74
0
 49
-2.9500000000000002
 74
0
  0
LTYPE
  5
56
100
AcDbSymbolTableRecord
100
AcDbLinetypeTableRecord
  2
PHANTOMX2
 70
0
  3
Phantom (2x) ____________    ____    ____   _
 72
65
 73
6
 40
127.00000000000001
 49
63.5
 74
0
 49
-12.699999999999999
 74
0
 49
12.699999999999999
 74
0
 49
-12.699999999999999
 74
0
 49
12.699999999999999
 74
0
 49
-12.699999999999999
 74
0
  0
LTYPE
  5
57
100
AcDbSymbolTableRecord
100
AcDbLinetypeTableRecord
  2
DIVIDEX2
 70
0
  3
Divide (2x) ________  .  .  ________  .  .  _
 72
65
 73
6
 40
63.5
 49
25.399999999999999
 74
0
 49
-12.65
 74
0
 49
0.1
 74
0
 49
-12.6
 74
0
 49
0.1
 74
0
 49
-12.65
 74
0
  0
LTYPE
  5
58
100
AcDbSymbolTableRecord
100
AcDbLinetypeTableRecord
  2
BORDER
 70
0
  3
Border __ __ . __ __ . __ __ . __ __ . __ __ .
 72
65
 73
6
 40
44.449999999999996
 49
12.699999999999999
 74
0
 49
-6.349999999999997
 74
0
 49
12.699999999999999
 74
0
 49
-6.2999999999999972
 74
0
 49
0.1
 74
0
 49
-6.2999999999999972
 74
0
  0
LTYPE
  5
59
100
AcDbSymbolTableRecord
100
AcDbLinetypeTableRecord
  2
DIVIDE2
 70
0
  3
Divide (.5x) __..__..__..__..__..__..__..__.._
 72
65
 73
6
 40
15.874999999999986
 49
6.349999999999997
 74
0
 49
-3.124999999999996
 74
0
 49
0.1
 74
0
 49
-3.074999999999998
 74
0
 49
0.1
 74
0
 49
-3.124999999999996
 74
0
  0
LTYPE
  5
5A
100
AcDbSymbolTableRecord
100
AcDbLinetypeTableRecord
  2
DOT
 70
0
  3
Dot . . . . . . . . . . . . . . . . . . . . . . . .
 72
65
 73
2
 40
6.3499999999999934
 49
0.1
 74
0
 49
-6.2499999999999938
 74
0
  0
LTYPE
  5
5B
100
AcDbSymbolTableRecord
100
AcDbLinetypeTableRecord
  2
DASHDOT
 70
0
  3
Dash dot __ . __ . __ . __ . __ . __ . __ . __
 72
65
 73
4
 40
25.399999999999995
 49
12.699999999999999
 74
0
 49
-6.2999999999999972
 74
0
 49
0.1
 74
0
 49
-6.2999999999999972
 74
0
  0
LTYPE
  5
5C
100
AcDbSymbolTableRecord
100
AcDbLinetypeTableRecord
  2
FENCELINE1
 70
0
  3
Fenceline circle ----0-----0----0-----0----0-----0--
 72
65
 73
4
 40
36.829999999999998
 49
6.349999999999997
 74
0
 49
-2.54
 74
0
 49
-2.54
 74
0
 49
25.399999999999999
 74
0
  0
LTYPE
  5
5D
100
AcDbSymbolTableRecord
100
AcDbLinetypeTableRecord
  2
BATTING
 70
0
  3
Batting SSSSSSSSSSSSSSSSSSSSSSSSSSSSSSSSSSSSSSSSSSSSSSS
 72
65
 73
4
 40
10.16254
 49
0.00254
 74
0
 49
-2.54
 74
0
 49
-5.0800000000000001
 74
0
 49
-2.54
 74
0
  0
LTYPE
  5
5E
100
AcDbSymbolTableRecord
100
AcDbLinetypeTableRecord
  2
ACAD_ISO03W100
 70
0
  3
ISO dash space __    __    __    __    __    __
 72
65
 73
2
 40
30.0
 49
12.0
 74
0
 49
-18.0
 74
0
  0
LTYPE
  5
15
100
AcDbSymbolTableRecord
100
AcDbLinetypeTableRecord
  2
ByLayer
 70
0
  3

 72
65
 73
0
 40
0.0
  0
LTYPE
  5
5F
100
AcDbSymbolTableRecord
100
AcDbLinetypeTableRecord
  2
FENCELINE2
 70
0
  3
Fenceline square ----[]-----[]----[]-----[]----[]---
 72
65
 73
4
 40
36.829999999999998
 49
6.349999999999997
 74
0
 49
-2.54
 74
0
 49
-2.54
 74
0
 49
25.399999999999999
 74
0
  0
ENDTAB
  0
TABLE
  2
LAYER
  5
2
100
AcDbSymbolTable
 70
4
  0
LAYER
  5
60
100
AcDbSymbolTableRecord
100
AcDbLayerTableRecord
  2
grabado linea medio
 70
0
 62
3
420
65280
  6
Continuous
370
-3
390
F
  0
LAYER
  5
61
100
AcDbSymbolTableRecord
100
AcDbLayerTableRecord
  2
mesa de trabajo y auxiliares
 70
0
 62
7
420
16777215
  6
Continuous
370
-3
390
F
  0
LAYER
  5
62
100
AcDbSymbolTableRecord
100
AcDbLayerTableRecord
  2
Corte exterior
 70
0
 62
1
420
16711680
  6
Continuous
370
-3
390
F
  0
LAYER
  5
10
100
AcDbSymbolTableRecord
100
AcDbLayerTableRecord
  2
0
 70
0
 62
7
420
16777215
  6
Continuous
370
-3
390
F
  0
ENDTAB
  0
TABLE
  2
STYLE
  5
3
100
AcDbSymbolTable
 70
1
  0
STYLE
  5
63
100
AcDbSymbolTableRecord
100
AcDbTextStyleTableRecord
  2
Standard
 70
0
 40
0.0
 41
1.0
 50
0.0
 71
0
 42
2.5
  3

  4

1001
ACAD
1000
txt
1071
0
  0
ENDTAB
  0
TABLE
  2
VIEW
  5
6
100
AcDbSymbolTable
 70
0
  0
ENDTAB
  0
TABLE
  2
UCS
  5
7
100
AcDbSymbolTable
 70
0
  0
ENDTAB
  0
TABLE
  2
APPID
  5
9
100
AcDbSymbolTable
 70
1
  0
APPID
  5
12
100
AcDbSymbolTableRecord
100
AcDbRegAppTableRecord
  2
ACAD
 70
0
  0
APPID
  5
64
100
AcDbSymbolTableRecord
100
AcDbRegAppTableRecord
  2
QCAD
 70
0
  0
ENDTAB
  0
TABLE
  2
DIMSTYLE
  5
A
100
AcDbSymbolTable
 70
1
100
AcDbDimStyleTable
 71
0
  0
DIMSTYLE
105
27
100
AcDbSymbolTableRecord
100
AcDbDimStyleTableRecord
  2
Standard
 41
2.5
 42
0.625
 43
3.75
 44
1.25
 70
0
 73
0
 74
0
 77
1
 78
8
140
2.5
141
2.5
143
0.03937007874016
147
0.625
171
3
172
1
271
2
272
2
274
3
278
44
283
0
284
8
340
63
  0
ENDTAB
  0
TABLE
  2
BLOCK_RECORD
  5
1
100
AcDbSymbolTable
 70
1
  0
BLOCK_RECORD
  5
1F
100
AcDbSymbolTableRecord
100
AcDbBlockTableRecord
  2
*Model_Space
340
22
  0
BLOCK_RECORD
  5
1B
100
AcDbSymbolTableRecord
100
AcDbBlockTableRecord
  2
*Paper_Space
340
1E
  0
BLOCK_RECORD
  5
23
100
AcDbSymbolTableRecord
100
AcDbBlockTableRecord
  2
*Paper_Space0
340
26
  0
BLOCK_RECORD
  5
65
100
AcDbSymbolTableRecord
100
AcDbBlockTableRecord
  2
$PAPER_SPACE
340
0
  0
BLOCK_RECORD
  5
66
100
AcDbSymbolTableRecord
100
AcDbBlockTableRecord
  2
A$C2C2949BA
340
0
  0
BLOCK_RECORD
  5
67
100
AcDbSymbolTableRecord
100
AcDbBlockTableRecord
  2
$MODEL_SPACE
340
0
  0
ENDTAB
  0
ENDSEC
  0
SECTION
  2
BLOCKS
  0
BLOCK
  5
20
100
AcDbEntity
  8
0
100
AcDbBlockBegin
  2
*Model_Space
 70
0
 10
0.0
 20
0.0
 30
0.0
  3
*Model_Space
  1

  0
ENDBLK
  5
21
100
AcDbEntity
  8
0
100
AcDbBlockEnd
  0
BLOCK
  5
1C
100
AcDbEntity
 67
1
  8
0
100
AcDbBlockBegin
  2
*Paper_Space
 70
0
 10
0.0
 20
0.0
 30
0.0
  3
*Paper_Space
  1

  0
ENDBLK
  5
1D
100
AcDbEntity
 67
1
  8
0
100
AcDbBlockEnd
  0
BLOCK
  5
24
100
AcDbEntity
  8
0
100
AcDbBlockBegin
  2
*Paper_Space0
 70
0
 10
0.0
 20
0.0
 30
0.0
  3
*Paper_Space0
  1

  0
ENDBLK
  5
25
100
AcDbEntity
  8
0
100
AcDbBlockEnd
  0
BLOCK
  5
68
100
AcDbEntity
  8
0
100
AcDbBlockBegin
  2
$PAPER_SPACE
 70
0
 10
0.0
 20
0.0
 30
0.0
  3
$PAPER_SPACE
  1

  0
ENDBLK
  5
69
100
AcDbEntity
  8
0
100
AcDbBlockEnd
  0
BLOCK
  5
6A
100
AcDbEntity
  8
0
100
AcDbBlockBegin
  2
A$C2C2949BA
 70
0
 10
0.0
 20
0.0
 30
0.0
  3
A$C2C2949BA
  1

  0
ENDBLK
  5
6B
100
AcDbEntity
  8
0
100
AcDbBlockEnd
  0
BLOCK
  5
6C
100
AcDbEntity
  8
0
100
AcDbBlockBegin
  2
$MODEL_SPACE
 70
0
 10
0.0
 20
0.0
 30
0.0
  3
$MODEL_SPACE
  1

  0
ENDBLK
  5
6D
100
AcDbEntity
  8
0
100
AcDbBlockEnd
  0
ENDSEC
  0
SECTION
  2
ENTITIES
  0
LWPOLYLINE
  5
6E
  8
mesa de trabajo y auxiliares
 62
256
370
-1
 48
1.0
  6
ByLayer
100
AcDbEntity
100
AcDbPolyline
 90
8
 70
0
 10
48.835388254098312
 20
71.586338547765649
 30
0.0
 10
48.835388254098312
 20
89.886338547765689
 30
0.0
 10
39.215388254098329
 20
89.886338547765689
 30
0.0
 10
39.215388254098329
 20
106.58633854776571
 30
0.0
 10
26.88205492076499
 20
106.58633854776571
 30
0.0
 10
26.88205492076499
 20
89.886338547765689
 30
0.0
 10
17.262054920764989
 20
89.886338547765689
 30
0.0
 10
17.262054920764989
 20
71.586338547765649
 30
0.0
  0
LWPOLYLINE
  5
6F
  8
mesa de trabajo y auxiliares
 62
256
370
-1
 48
1.0
  6
ByLayer
100
AcDbEntity
100
AcDbPolyline
 90
4
 70
129
 10
0.0
 20
-0.0000000000000284
 30
0.0
 10
150.0
 20
-0.0000000000000284
 30
0.0
 10
150.0
 20
160.0
 30
0.0
 10
0.0
 20
160.0
 30
0.0
  0
LWPOLYLINE
  5
70
  8
mesa de trabajo y auxiliares
 62
256
370
-1
 48
1.0
  6
ByLayer
100
AcDbEntity
100
AcDbPolyline
 90
9
 70
0
 10
28.280646031809841
 20
132.58333333333329
 30
0.0
 10
11.013979365143159
 20
132.58333333333329
 30
0.0
 10
11.013979365143159
 20
112.5833333333333
 30
0.0
 10
55.413979365143177
 20
112.5833333333333
 30
0.0
 10
55.413979365143177
 20
132.58333333333329
 30
0.0
 10
38.14731269847649
 20
132.58333333333329
 30
0.0
 10
38.14731269847649
 20
137.08333333333329
 30
0.0
 10
28.280646031809841
 20
137.08333333333329
 30
0.0
 10
28.280646031809841
 20
132.58333333333329
 30
0.0
  0
LINE
  5
71
100
AcDbEntity
100
AcDbLine
  8
Corte exterior
 62
256
370
-1
 48
1.0
  6
ByLayer
 10
35.049256835368517
 20
47.752026218648119
 30
0.0
 11
35.049256835368517
 21
47.752026218648119
 31
0.0
  0
LWPOLYLINE
  5
72
  8
mesa de trabajo y auxiliares
 62
256
370
-1
 48
1.0
  6
ACAD_ISO02W100
100
AcDbEntity
100
AcDbPolyline
 90
4
 70
129
 10
1.5
 20
0.9999999999999149
 30
0.0
 10
149.5
 20
0.9999999999999149
 30
0.0
 10
149.5
 20
158.9999999999998
 30
0.0
 10
1.5
 20
158.9999999999998
 30
0.0
  0
LINE
  5
73
100
AcDbEntity
100
AcDbLine
  8
Corte exterior
 62
256
370
-1
 48
1.0
  6
ByLayer
 10
87.231488053009471
 20
119.0
 30
0.0
 11
132.0796746906737
 21
119.0
 31
0.0
  0
LINE
  5
74
100
AcDbEntity
100
AcDbLine
  8
Corte exterior
 62
256
370
-1
 48
1.0
  6
ByLayer
 10
70.633333193177592
 20
53.239789899222153
 30
0.0
 11
70.633333193177592
 21
10.56667373181706
 31
0.0
  0
ARC
  5
75
100
AcDbEntity
  8
Corte exterior
 62
256
370
-1
 48
1.0
  6
ByLayer
100
AcDbCircle
 10
132.11450597045581
 20
119.6053651508842
 30
0.0
 40
17.793054012266339
100
AcDbArc
 50
127.65809277784983
 51
128.4716596214931
  0
ARC
  5
76
100
AcDbEntity
  8
Corte exterior
 62
256
370
-1
 48
1.0
  6
ByLayer
100
AcDbCircle
 10
132.341112513057
 20
119.324105925616
 30
0.0
 40
18.154165098706141
100
AcDbArc
 50
119.90988687930719
 51
127.68196190631811
  0
ARC
  5
77
100
AcDbEntity
  8
Corte exterior
 62
256
370
-1
 48
1.0
  6
ByLayer
100
AcDbCircle
 10
132.294897418088
 20
119.4219491304748
 30
0.0
 40
18.046311099736041
100
AcDbArc
 50
110.62872266009362
 51
119.93759936754689
  0
ARC
  5
78
100
AcDbEntity
  8
Corte exterior
 62
256
370
-1
 48
1.0
  6
ByLayer
100
AcDbCircle
 10
132.2854326724075
 20
119.4738788495457
 30
0.0
 40
17.994378898678299
100
AcDbArc
 50
96.389231163225574
 51
110.65877256910581
  0
LINE
  5
79
100
AcDbEntity
100
AcDbLine
  8
Corte exterior
 62
256
370
-1
 48
1.0
  6
ByLayer
 10
130.2829890780057
 20
140.6677607770153
 30
0.0
 11
130.2829795022646
 21
137.35649200452349
 31
0.0
  0
ARC
  5
7A
100
AcDbEntity
  8
Corte exterior
 62
256
370
-1
 48
1.0
  6
ByLayer
100
AcDbCircle
 10
132.36213675336441
 20
162.43449925032539
 30
0.0
 40
21.86581255799636
100
AcDbArc
 50
244.16432074755289
 51
264.54369080034178
  0
ARC
  5
7B
100
AcDbEntity
  8
Corte exterior
 62
256
370
-1
 48
1.0
  6
ByLayer
100
AcDbCircle
 10
120.994104929755
 20
139.21881040316529
 30
0.0
 40
3.9851523629185301
100
AcDbArc
 50
62.516945654849692
 51
234.30831816172531
  0
ARC
  5
7C
100
AcDbEntity
  8
Corte exterior
 62
256
370
-1
 48
1.0
  6
ByLayer
100
AcDbCircle
 10
108.58131522383199
 20
123.8081687517171
 30
0.0
 40
15.810434070705529
100
AcDbArc
 50
37.971435326639259
 51
50.353850517391002
  0
ARC
  5
7D
100
AcDbEntity
  8
Corte exterior
 62
256
370
-1
 48
1.0
  6
ByLayer
100
AcDbCircle
 10
155.98141143803531
 20
123.8075613557473
 30
0.0
 40
15.803417214517291
100
AcDbArc
 50
129.45162715291281
 51
142.0087042760556
  0
ARC
  5
7E
100
AcDbEntity
  8
Corte exterior
 62
256
370
-1
 48
1.0
  6
ByLayer
100
AcDbCircle
 10
143.576406511296
 20
139.21905013703881
 30
0.0
 40
3.98496895880732
100
AcDbArc
 50
306.37032417890049
 51
117.2412281416229
  0
ARC
  5
7F
100
AcDbEntity
  8
Corte exterior
 62
256
370
-1
 48
1.0
  6
ByLayer
100
AcDbCircle
 10
132.20759993653499
 20
162.43451986903469
 30
0.0
 40
21.865695354111011
100
AcDbArc
 50
275.32093025339992
 51
295.88182704625154
  0
LINE
  5
80
100
AcDbEntity
100
AcDbLine
  8
Corte exterior
 62
256
370
-1
 48
1.0
  6
ByLayer
 10
134.23994944297701
 20
137.3617119005944
 30
0.0
 11
134.2353003557111
 21
140.66304623198241
 31
0.0
  0
ARC
  5
81
100
AcDbEntity
  8
Corte exterior
 62
256
370
-1
 48
1.0
  6
ByLayer
100
AcDbCircle
 10
132.28575181198161
 20
119.47380254169479
 30
0.0
 40
17.99433770976848
100
AcDbArc
 50
69.342263982456529
 51
83.765341786982191
  0
ARC
  5
82
100
AcDbEntity
  8
Corte exterior
 62
256
370
-1
 48
1.0
  6
ByLayer
100
AcDbCircle
 10
132.27596792672699
 20
119.4219491304748
 30
0.0
 40
18.046311099736041
100
AcDbArc
 50
60.062400632453127
 51
69.371277339906342
  0
ARC
  5
83
100
AcDbEntity
  8
Corte exterior
 62
256
370
-1
 48
1.0
  6
ByLayer
100
AcDbCircle
 10
132.22975283175799
 20
119.32410592561619
 30
0.0
 40
18.15416509870597
100
AcDbArc
 50
52.318038093681508
 51
60.090113120692457
  0
ARC
  5
84
100
AcDbEntity
  8
Corte exterior
 62
256
370
-1
 48
1.0
  6
ByLayer
100
AcDbCircle
 10
132.17762048715429
 20
119.2462195747096
 30
0.0
 40
18.24767406068311
100
AcDbArc
 50
51.521153460217697
 51
52.337982184122289
  0
ARC
  5
85
100
AcDbEntity
  8
Corte exterior
 62
256
370
-1
 48
1.0
  6
ByLayer
100
AcDbCircle
 10
49.116005222101812
 20
122.5755233761319
 30
0.0
 40
7.9999999999999041
100
AcDbArc
 50
273.58098621956759
 51
266.41901378043241
  0
ARC
  5
86
100
AcDbEntity
  8
Corte exterior
 62
256
370
-1
 48
1.0
  6
ByLayer
100
AcDbCircle
 10
23.11999985984421
 20
122.5755233761319
 30
0.0
 40
7.9999999999999041
100
AcDbArc
 50
273.58098621956759
 51
266.41901378043241
  0
ARC
  5
87
100
AcDbEntity
  8
grabado linea medio
 62
256
370
-1
 48
1.0
  6
ByLayer
100
AcDbCircle
 10
8.6748906091821283
 20
28.226659914597288
 30
0.0
 40
12.76699004021034
100
AcDbArc
 50
235.80663115642653
 51
273.74198742861103
  0
ARC
  5
88
100
AcDbEntity
  8
grabado linea medio
 62
256
370
-1
 48
1.0
  6
ByLayer
100
AcDbCircle
 10
63.265196333663617
 20
28.936665361912919
 30
0.0
 40
13.46499417252199
100
AcDbArc
 50
267.27578093568769
 51
303.17560047927191
  0
CIRCLE
  5
89
100
AcDbEntity
100
AcDbCircle
  8
grabado linea medio
 62
256
370
-1
 48
1.0
  6
ByLayer
 10
55.351456634670747
 20
73.504406419414735
 30
0.0
 40
1.1054809485514561
  0
CIRCLE
  5
8A
100
AcDbEntity
100
AcDbCircle
  8
grabado linea medio
 62
256
370
-1
 48
1.0
  6
ByLayer
 10
16.4469106511877
 20
73.37663043189248
 30
0.0
 40
1.1054809485514561
  0
LINE
  5
8B
100
AcDbEntity
100
AcDbLine
  8
grabado linea medio
 62
256
370
-1
 48
1.0
  6
ByLayer
 10
20.44526652651091
 20
10.332999999998339
 30
0.0
 11
31.95571985984424
 21
10.332999999998339
 31
0.0
  0
LINE
  5
8C
100
AcDbEntity
100
AcDbLine
  8
grabado linea medio
 62
256
370
-1
 48
1.0
  6
ByLayer
 10
51.688066526510823
 20
10.33299999999838
 30
0.0
 11
40.177613193177571
 21
10.33299999999838
 31
0.0
  0
ARC
  5
8D
100
AcDbEntity
  8
grabado linea medio
 62
256
370
-1
 48
1.0
  6
ByLayer
100
AcDbCircle
 10
36.066666526511028
 20
133.4895373069468
 30
0.0
 40
58.296651835386612
100
AcDbArc
 50
236.62885849297058
 51
303.37114150702911
  0
CIRCLE
  5
8E
100
AcDbEntity
100
AcDbCircle
  8
Corte exterior
 62
256
370
-1
 48
1.0
  6
ByLayer
 10
102.99572000000001
 20
87.799999999999983
 30
0.0
 40
4.9333333333333371
  0
ARC
  5
8F
100
AcDbEntity
  8
Corte exterior
 62
256
370
-1
 48
1.0
  6
ByLayer
100
AcDbCircle
 10
90.799343329733489
 20
146.1957383625238
 30
0.0
 40
26.27027805149336
100
AcDbArc
 50
261.09050576854901
 51
279.57681497199138
  0
LINE
  5
90
100
AcDbEntity
100
AcDbLine
  8
Corte exterior
 62
256
370
-1
 48
1.0
  6
ByLayer
 10
70.633333193177577
 20
118.99999999999829
 30
0.0
 11
70.633333193177592
 21
91.764212538050103
 31
0.0
  0
LINE
  5
91
100
AcDbEntity
100
AcDbLine
  8
Corte exterior
 62
256
370
-1
 48
1.0
  6
ByLayer
 10
87.231488053009471
 20
119.0
 30
0.0
 11
70.633333193216799
 21
119.00118370841631
 31
0.0
  0
ARC
  5
92
100
AcDbEntity
  8
Corte exterior
 62
256
370
-1
 48
1.0
  6
ByLayer
100
AcDbCircle
 10
92.171339311525188
 20
147.73029300854381
 30
0.0
 40
28.021107046572549
100
AcDbArc
 50
197.4693879867543
 51
258.80433566628079
  0
LINE
  5
93
100
AcDbEntity
100
AcDbLine
  8
Corte exterior
 62
256
370
-1
 48
1.0
  6
ByLayer
 10
70.633333193177577
 20
118.99999999999829
 30
0.0
 11
70.633333193177549
 21
123.8897283975662
 31
0.0
  0
LINE
  5
94
100
AcDbEntity
100
AcDbLine
  8
Corte exterior
 62
256
370
-1
 48
1.0
  6
ByLayer
 10
83.523373333333339
 20
107.8
 30
0.0
 11
83.523373333333339
 21
110.8
 31
0.0
  0
LINE
  5
95
100
AcDbEntity
100
AcDbLine
  8
Corte exterior
 62
256
370
-1
 48
1.0
  6
ByLayer
 10
105.95572
 20
107.8
 30
0.0
 11
83.523373333333339
 21
107.8
 31
0.0
  0
LINE
  5
96
100
AcDbEntity
100
AcDbLine
  8
Corte exterior
 62
256
370
-1
 48
1.0
  6
ByLayer
 10
105.95572
 20
110.8
 30
0.0
 11
105.95572
 21
107.8
 31
0.0
  0
LINE
  5
97
100
AcDbEntity
100
AcDbLine
  8
Corte exterior
 62
256
370
-1
 48
1.0
  6
ByLayer
 10
83.523373333333339
 20
110.8
 30
0.0
 11
105.95572
 21
110.8
 31
0.0
  0
LINE
  5
98
100
AcDbEntity
100
AcDbLine
  8
Corte exterior
 62
256
370
-1
 48
1.0
  6
ByLayer
 10
114.1776133333333
 20
110.8
 30
0.0
 11
136.60996
 21
110.8
 31
0.0
  0
LINE
  5
99
100
AcDbEntity
100
AcDbLine
  8
Corte exterior
 62
256
370
-1
 48
1.0
  6
ByLayer
 10
114.1776133333333
 20
107.8
 30
0.0
 11
114.1776133333333
 21
110.8
 31
0.0
  0
LINE
  5
9A
100
AcDbEntity
100
AcDbLine
  8
Corte exterior
 62
256
370
-1
 48
1.0
  6
ByLayer
 10
136.60996
 20
107.8
 30
0.0
 11
114.1776133333333
 21
107.8
 31
0.0
  0
LINE
  5
9B
100
AcDbEntity
100
AcDbLine
  8
Corte exterior
 62
256
370
-1
 48
1.0
  6
ByLayer
 10
136.60996
 20
110.8
 30
0.0
 11
136.60996
 21
107.8
 31
0.0
  0
ARC
  5
9C
100
AcDbEntity
  8
Corte exterior
 62
256
370
-1
 48
1.0
  6
ByLayer
100
AcDbCircle
 10
10.51937319317755
 20
8.3396666666649946
 30
0.0
 40
0.9933557044460744
100
AcDbArc
 50
90.384529659584274
 51
180.3845296595849
  0
LINE
  5
9D
100
AcDbEntity
100
AcDbLine
  8
Corte exterior
 62
256
370
-1
 48
1.0
  6
ByLayer
 10
19.458599859844231
 20
9.3329999999983286
 30
0.0
 11
10.51270652651089
 21
9.3329999999983304
 31
0.0
  0
ARC
  5
9E
100
AcDbEntity
  8
Corte exterior
 62
256
370
-1
 48
1.0
  6
ByLayer
100
AcDbCircle
 10
19.45193319317757
 20
10.32633333333164
 30
0.0
 40
0.9933557044460556
100
AcDbArc
 50
270.38452965958328
 51
0.3845296595858448
  0
LINE
  5
9F
100
AcDbEntity
100
AcDbLine
  8
Corte exterior
 62
256
370
-1
 48
1.0
  6
ByLayer
 10
20.445266526510888
 20
24.999999999998341
 30
0.0
 11
20.445266526510888
 21
10.33299999999833
 31
0.0
  0
ARC
  5
A0
100
AcDbEntity
  8
Corte exterior
 62
256
370
-1
 48
1.0
  6
ByLayer
100
AcDbCircle
 10
19.451933193177549
 20
25.00666666666503
 30
0.0
 40
0.9933557044460744
100
AcDbArc
 50
359.61547034041411
 51
89.615470340416465
  0
LINE
  5
A1
100
AcDbEntity
100
AcDbLine
  8
Corte exterior
 62
256
370
-1
 48
1.0
  6
ByLayer
 10
9.5260398598442233
 20
25.999999999998359
 30
0.0
 11
19.458599859844199
 21
25.999999999998359
 31
0.0
  0
LINE
  5
A2
100
AcDbEntity
100
AcDbLine
  8
Corte exterior
 62
256
370
-1
 48
1.0
  6
ByLayer
 10
9.5260398598442233
 20
28.999999999998359
 30
0.0
 11
9.5260398598442233
 21
25.999999999998359
 31
0.0
  0
LINE
  5
A3
100
AcDbEntity
100
AcDbLine
  8
Corte exterior
 62
256
370
-1
 48
1.0
  6
ByLayer
 10
6.8933331931775479
 20
28.999999999998369
 30
0.0
 11
7.0260398598442233
 21
28.999999999998359
 31
0.0
  0
ARC
  5
A4
100
AcDbEntity
  8
Corte exterior
 62
256
370
-1
 48
1.0
  6
ByLayer
100
AcDbCircle
 10
9.4466665265108514
 20
36.946666666665003
 30
0.0
 40
7.9468456355685531
100
AcDbArc
 50
179.61547034041499
 51
269.6154703404157
  0
LINE
  5
A5
100
AcDbEntity
100
AcDbLine
  8
Corte exterior
 62
256
370
-1
 48
1.0
  6
ByLayer
 10
1.499999859844229
 20
123.889728397594
 30
0.0
 11
1.499999859844219
 21
36.999999999998387
 31
0.0
  0
ARC
  5
A6
100
AcDbEntity
  8
Corte exterior
 62
256
370
-1
 48
1.0
  6
ByLayer
100
AcDbCircle
 10
90.538284353875156
 20
146.16970915455721
 30
0.0
 40
26.014056143854521
100
AcDbArc
 50
173.2204049016496
 51
195.26994724424947
  0
LINE
  5
A7
100
AcDbEntity
100
AcDbLine
  8
Corte exterior
 62
256
370
-1
 48
1.0
  6
ByLayer
 10
65.958695797802037
 20
150.4188420688285
 30
0.0
 11
64.706128566772961
 21
149.24067715284329
 31
0.0
  0
LINE
  5
A8
100
AcDbEntity
100
AcDbLine
  8
Corte exterior
 62
256
370
-1
 48
1.0
  6
ByLayer
 10
67.095662048060916
 20
150.6256940366988
 30
0.0
 11
65.958695797802037
 21
150.4188420688285
 31
0.0
  0
ARC
  5
A9
100
AcDbEntity
  8
Corte exterior
 62
256
370
-1
 48
1.0
  6
ByLayer
100
AcDbCircle
 10
111.953941194348
 20
168.7501432021057
 30
0.0
 40
48.381410329956609
100
AcDbArc
 50
202.00057969321358
 51
256.86417400369771
  0
ARC
  5
AA
100
AcDbEntity
  8
Corte exterior
 62
256
370
-1
 48
1.0
  6
ByLayer
100
AcDbCircle
 10
62.686666526510891
 20
36.947459468377907
 30
0.0
 40
7.9468456355686063
100
AcDbArc
 50
270.38452965958442
 51
0.3845296595839492
  0
LINE
  5
AB
100
AcDbEntity
100
AcDbLine
  8
Corte exterior
 62
256
370
-1
 48
1.0
  6
ByLayer
 10
62.60729319317754
 20
29.000792801711221
 30
0.0
 11
62.73999985984419
 21
29.000792801711231
 31
0.0
  0
LINE
  5
AC
100
AcDbEntity
100
AcDbLine
  8
Corte exterior
 62
256
370
-1
 48
1.0
  6
ByLayer
 10
62.60729319317754
 20
28.000792801711221
 30
0.0
 11
62.60729319317754
 21
29.000792801711221
 31
0.0
  0
LINE
  5
AD
100
AcDbEntity
100
AcDbLine
  8
Corte exterior
 62
256
370
-1
 48
1.0
  6
ByLayer
 10
9.5260398598442375
 20
0.9999999999983387
 30
0.0
 11
9.5260398598442375
 21
4.1678304855634147
 31
0.0
  0
LINE
  5
AE
100
AcDbEntity
100
AcDbLine
  8
Corte exterior
 62
256
370
-1
 48
1.0
  6
ByLayer
 10
1.499999859844237
 20
1.0000000000261271
 30
0.0
 11
9.5260398598442375
 21
0.9999999999983387
 31
0.0
  0
LINE
  5
AF
100
AcDbEntity
100
AcDbLine
  8
Corte exterior
 62
256
370
-1
 48
1.0
  6
ByLayer
 10
1.4999998598442399
 20
9.8332500000123915
 30
0.0
 11
1.499999859844237
 21
1.0000000000261271
 31
0.0
  0
LINE
  5
B0
100
AcDbEntity
100
AcDbLine
  8
Corte exterior
 62
256
370
-1
 48
1.0
  6
ByLayer
 10
1.4999998598442259
 20
17.666499999998361
 30
0.0
 11
1.4999998598442399
 21
9.8332500000123915
 31
0.0
  0
ARC
  5
B1
100
AcDbEntity
  8
Corte exterior
 62
256
370
-1
 48
1.0
  6
ByLayer
100
AcDbCircle
 10
8.1805194773223455
 20
17.362989144059931
 30
0.0
 40
6.6874106498092738
100
AcDbArc
 50
82.961240160213791
 51
177.39871415338149
  0
ARC
  5
B2
100
AcDbEntity
  8
Corte exterior
 62
256
370
-1
 48
1.0
  6
ByLayer
100
AcDbCircle
 10
12.99999985984422
 20
18.499999999998359
 30
0.0
 40
6.8007352543676971
100
AcDbArc
 50
82.969294707153338
 51
126.0273733851036
  0
ARC
  5
B3
100
AcDbEntity
  8
Corte exterior
 62
256
370
-1
 48
1.0
  6
ByLayer
100
AcDbCircle
 10
13.71001704648075
 20
24.257117775929729
 30
0.0
 40
1.000000000000008
100
AcDbArc
 50
330.64721835610158
 51
82.969294707153395
  0
ARC
  5
B4
100
AcDbEntity
  8
Corte exterior
 62
256
370
-1
 48
1.0
  6
ByLayer
100
AcDbCircle
 10
11.499999859844239
 20
25.49999999999832
 30
0.0
 40
3.5355339059327271
100
AcDbArc
 50
286.92751306414749
 51
330.64721835610152
  0
ARC
  5
B5
100
AcDbEntity
  8
Corte exterior
 62
256
370
-1
 48
1.0
  6
ByLayer
100
AcDbCircle
 10
13.499999859844261
 20
16.49999999999833
 30
0.0
 40
5.7008771254956949
100
AcDbArc
 50
73.189826329513579
 51
99.802496715245127
  0
ARC
  5
B6
100
AcDbEntity
  8
Corte exterior
 62
256
370
-1
 48
1.0
  6
ByLayer
100
AcDbCircle
 10
14.859501882280609
 20
20.999999999998341
 30
0.0
 40
1.000000000000006
100
AcDbArc
 50
286.81017367048679
 51
73.189826329513579
  0
ARC
  5
B7
100
AcDbEntity
  8
Corte exterior
 62
256
370
-1
 48
1.0
  6
ByLayer
100
AcDbCircle
 10
13.49999985984425
 20
25.499999999998391
 30
0.0
 40
5.7008771254957411
100
AcDbArc
 50
254.744881296942
 51
286.81017367048639
  0
ARC
  5
B8
100
AcDbEntity
  8
Corte exterior
 62
256
370
-1
 48
1.0
  6
ByLayer
100
AcDbCircle
 10
9.4999998598442552
 20
12.49999999999836
 30
0.0
 40
7.9056941504209153
100
AcDbArc
 50
51.595576250774471
 51
71.565051177078146
  0
ARC
  5
B9
100
AcDbEntity
  8
Corte exterior
 62
256
370
-1
 48
1.0
  6
ByLayer
100
AcDbCircle
 10
13.78987429085635
 20
17.91161612323792
 30
0.0
 40
0.9999999999999975
100
AcDbArc
 50
265.27328367388202
 51
51.595576250774471
  0
ARC
  5
BA
100
AcDbEntity
  8
Corte exterior
 62
256
370
-1
 48
1.0
  6
ByLayer
100
AcDbCircle
 10
14.499999859844189
 20
26.499999999998291
 30
0.0
 40
9.6176920308356166
100
AcDbArc
 50
247.89880629073951
 51
265.2732836738823
  0
ARC
  5
BB
100
AcDbEntity
  8
Corte exterior
 62
256
370
-1
 48
1.0
  6
ByLayer
100
AcDbCircle
 10
10.505161542157721
 20
16.662487566602639
 30
0.0
 40
0.9999999999999943
100
AcDbArc
 50
67.89880629073869
 51
167.39480292390064
  0
ARC
  5
BC
100
AcDbEntity
  8
Corte exterior
 62
256
370
-1
 48
1.0
  6
ByLayer
100
AcDbCircle
 10
12.8734447574634
 20
16.132887993527081
 30
0.0
 40
3.4267758643311859
100
AcDbArc
 50
167.39480292390064
 51
190.86615113470521
  0
ARC
  5
BD
100
AcDbEntity
  8
Corte exterior
 62
256
370
-1
 48
1.0
  6
ByLayer
100
AcDbCircle
 10
8.5260398598443974
 20
15.298373039088309
 30
0.0
 40
0.9999999999998372
100
AcDbArc
 50
0.0
 51
10.86615113470822
  0
LINE
  5
BE
100
AcDbEntity
100
AcDbLine
  8
Corte exterior
 62
256
370
-1
 48
1.0
  6
ByLayer
 10
9.5260398598442375
 20
5.1678304855634147
 30
0.0
 11
9.5260398598442375
 21
15.298373039088331
 31
0.0
  0
ARC
  5
BF
100
AcDbEntity
  8
Corte exterior
 62
256
370
-1
 48
1.0
  6
ByLayer
100
AcDbCircle
 10
47.811785252690001
 20
89.632149917448771
 30
0.0
 40
2.9409172216874682
100
AcDbArc
 50
243.5096966015436
 51
306.33558547678348
  0
ARC
  5
C0
100
AcDbEntity
  8
Corte exterior
 62
256
370
-1
 48
1.0
  6
ByLayer
100
AcDbCircle
 10
35.506453990220969
 20
100.1144653643277
 30
0.0
 40
19.03946001633896
100
AcDbArc
 50
225.09986682220998
 51
317.54680216529619
  0
ARC
  5
C1
100
AcDbEntity
  8
Corte exterior
 62
256
370
-1
 48
1.0
  6
ByLayer
100
AcDbCircle
 10
24.535563534225389
 20
90.436038134824273
 30
0.0
 40
4.538087790317288
100
AcDbArc
 50
237.0461339032754
 51
310.78592919496378
  0
ARC
  5
C2
100
AcDbEntity
  8
Corte exterior
 62
256
370
-1
 48
1.0
  6
ByLayer
100
AcDbCircle
 10
30.99999985984422
 20
92.499999999998323
 30
0.0
 40
6.5192024052026349
100
AcDbArc
 50
237.52880770915164
 51
302.47119229084859
  0
ARC
  5
C3
100
AcDbEntity
  8
Corte exterior
 62
256
370
-1
 48
1.0
  6
ByLayer
100
AcDbCircle
 10
37.99999985984423
 20
92.499999999998366
 30
0.0
 40
6.5192024052026634
100
AcDbArc
 50
237.52880770915147
 51
302.47119229084848
  0
ARC
  5
C4
100
AcDbEntity
  8
Corte exterior
 62
256
370
-1
 48
1.0
  6
ByLayer
100
AcDbCircle
 10
43.999999859844209
 20
88.499999999998323
 30
0.0
 40
2.9154759474226291
100
AcDbArc
 50
210.96375653207372
 51
329.03624346792662
  0
ARC
  5
C5
100
AcDbEntity
  8
Corte exterior
 62
256
370
-1
 48
1.0
  6
ByLayer
100
AcDbCircle
 10
109.6185391660968
 20
147.1785548094862
 30
0.0
 40
26.785828488851351
100
AcDbArc
 50
253.55984492178158
 51
296.7128119545352
  0
LINE
  5
C6
100
AcDbEntity
100
AcDbLine
  8
Corte exterior
 62
256
370
-1
 48
1.0
  6
ByLayer
 10
122.40391216738099
 20
124.49748871253369
 30
0.0
 11
121.659271436379
 21
123.2515538643291
 31
0.0
  0
ARC
  5
C7
100
AcDbEntity
  8
Corte exterior
 62
256
370
-1
 48
1.0
  6
ByLayer
100
AcDbCircle
 10
108.82339364339209
 20
123.8430403871652
 30
0.0
 40
13.596278387521339
100
AcDbArc
 50
0.6614547657010447
 51
24.7031235761654
  0
LINE
  5
C8
100
AcDbEntity
100
AcDbLine
  8
Corte exterior
 62
256
370
-1
 48
1.0
  6
ByLayer
 10
122.41876600574101
 20
119.0
 30
0.0
 11
122.41876600574101
 21
124.0000000000001
 31
0.0
  0
LINE
  5
C9
100
AcDbEntity
100
AcDbLine
  8
Corte exterior
 62
256
370
-1
 48
1.0
  6
ByLayer
 10
142.1520993390744
 20
123.9999999999999
 30
0.0
 11
142.1520993390744
 21
119.0
 31
0.0
  0
ARC
  5
CA
100
AcDbEntity
  8
Corte exterior
 62
256
370
-1
 48
1.0
  6
ByLayer
100
AcDbCircle
 10
155.96311480754471
 20
123.7945132004885
 30
0.0
 40
13.812544048621209
100
AcDbArc
 50
129.60729370977481
 51
179.14758927497681
  0
ARC
  5
CB
100
AcDbEntity
  8
Corte exterior
 62
256
370
-1
 48
1.0
  6
ByLayer
100
AcDbCircle
 10
143.57413155914239
 20
139.22048750567279
 30
0.0
 40
5.977387990785628
100
AcDbArc
 50
306.83095212446648
 51
116.8842830573068
  0
ARC
  5
CC
100
AcDbEntity
  8
Corte exterior
 62
256
370
-1
 48
1.0
  6
ByLayer
100
AcDbCircle
 10
132.21357255797511
 20
162.45984223066259
 30
0.0
 40
19.890978201345352
100
AcDbArc
 50
275.82545233291557
 51
295.80150773189331
  0
LINE
  5
CD
100
AcDbEntity
100
AcDbLine
  8
Corte exterior
 62
256
370
-1
 48
1.0
  6
ByLayer
 10
134.22965574467241
 20
144.67130573381019
 30
0.0
 11
134.23247183891269
 21
142.67158663549139
 31
0.0
  0
LINE
  5
CE
100
AcDbEntity
100
AcDbLine
  8
Corte exterior
 62
256
370
-1
 48
1.0
  6
ByLayer
 10
136.32269181698459
 20
146.79262607736979
 30
0.0
 11
134.22965574467241
 21
144.67130573381019
 31
0.0
  0
LINE
  5
CF
100
AcDbEntity
100
AcDbLine
  8
Corte exterior
 62
256
370
-1
 48
1.0
  6
ByLayer
 10
132.83429836313101
 20
150.3281599833025
 30
0.0
 11
136.32269181698459
 21
146.79262607736979
 31
0.0
  0
ARC
  5
D0
100
AcDbEntity
  8
Corte exterior
 62
256
370
-1
 48
1.0
  6
ByLayer
100
AcDbCircle
 10
132.1366196723603
 20
149.6304812925317
 30
0.0
 40
0.9866666666667203
100
AcDbArc
 50
45.000000000001172
 51
135.0
  0
LINE
  5
D1
100
AcDbEntity
100
AcDbLine
  8
Corte exterior
 62
256
370
-1
 48
1.0
  6
ByLayer
 10
127.95054752773591
 20
146.79262607736979
 30
0.0
 11
131.4389409815895
 21
150.3281599833025
 31
0.0
  0
LINE
  5
D2
100
AcDbEntity
100
AcDbLine
  8
Corte exterior
 62
256
370
-1
 48
1.0
  6
ByLayer
 10
130.2829890780057
 20
144.67130573381019
 30
0.0
 11
127.95054752773591
 21
146.79262607736979
 31
0.0
  0
LINE
  5
D3
100
AcDbEntity
100
AcDbLine
  8
Corte exterior
 62
256
370
-1
 48
1.0
  6
ByLayer
 10
130.2829890780057
 20
142.6770563771922
 30
0.0
 11
130.2829890780057
 21
144.67130573381019
 31
0.0
  0
ARC
  5
D4
100
AcDbEntity
  8
Corte exterior
 62
256
370
-1
 48
1.0
  6
ByLayer
100
AcDbCircle
 10
132.35616655771679
 20
162.45981886926731
 30
0.0
 40
19.891097422722449
100
AcDbArc
 50
244.25707801981579
 51
264.01740199488052
  0
ARC
  5
D5
100
AcDbEntity
  8
Corte exterior
 62
256
370
-1
 48
1.0
  6
ByLayer
100
AcDbCircle
 10
120.99661794312441
 20
139.2204276434266
 30
0.0
 40
5.9772707449742146
100
AcDbArc
 50
62.929567340531122
 51
233.16967739610348
  0
ARC
  5
D6
100
AcDbEntity
  8
Corte exterior
 62
256
370
-1
 48
1.0
  6
ByLayer
100
AcDbCircle
 10
106.0592575670277
 20
121.8423473163476
 30
0.0
 40
16.956522496858099
100
AcDbArc
 50
26.942005393659528
 51
47.962825420365149
  0
ARC
  5
D7
100
AcDbEntity
  8
Corte exterior
 62
256
370
-1
 48
1.0
  6
ByLayer
100
AcDbCircle
 10
122.33322615950691
 20
174.1585858488132
 30
0.0
 40
48.395485409082923
100
AcDbArc
 50
213.87448051221207
 51
269.94102299376561
  0
LINE
  5
D8
100
AcDbEntity
100
AcDbLine
  8
Corte exterior
 62
256
370
-1
 48
1.0
  6
ByLayer
 10
81.259142095813587
 20
146.75922336518201
 30
0.0
 11
82.152360345666906
 21
147.1841344098878
 31
0.0
  0
LINE
  5
D9
100
AcDbEntity
100
AcDbLine
  8
Corte exterior
 62
256
370
-1
 48
1.0
  6
ByLayer
 10
80.313836145458353
 20
145.35732115384681
 30
0.0
 11
81.259142095813587
 21
146.75922336518201
 31
0.0
  0
ARC
  5
DA
100
AcDbEntity
  8
Corte exterior
 62
256
370
-1
 48
1.0
  6
ByLayer
100
AcDbCircle
 10
75.516107896950857
 20
138.41895834450091
 30
0.0
 40
8.4355838458663861
100
AcDbArc
 50
11.74584420916192
 51
55.336977732041717
  0
ARC
  5
DB
100
AcDbEntity
  8
Corte exterior
 62
256
370
-1
 48
1.0
  6
ByLayer
100
AcDbCircle
 10
109.6185391660968
 20
147.178554809486
 30
0.0
 40
26.78582848885117
100
AcDbArc
 50
195.24301499021374
 51
251.42081160657401
  0
ARC
  5
DC
100
AcDbEntity
  8
Corte exterior
 62
256
370
-1
 48
1.0
  6
ByLayer
100
AcDbCircle
 10
96.375672510719724
 20
112.0020558933777
 30
0.0
 40
8.3767537115409922
100
AcDbArc
 50
56.65756239943385
 51
100.2486959223135
  0
LINE
  5
DD
100
AcDbEntity
100
AcDbLine
  8
Corte exterior
 62
256
370
-1
 48
1.0
  6
ByLayer
 10
101.9020102161344
 20
120.4175888658706
 30
0.0
 11
100.9798859098148
 21
119.0
 31
0.0
  0
LINE
  5
DE
100
AcDbEntity
100
AcDbLine
  8
Corte exterior
 62
256
370
-1
 48
1.0
  6
ByLayer
 10
101.950327652033
 20
121.4142310252853
 30
0.0
 11
101.9020102161344
 21
120.4175888658706
 31
0.0
  0
ARC
  5
DF
100
AcDbEntity
  8
Corte exterior
 62
256
370
-1
 48
1.0
  6
ByLayer
100
AcDbCircle
 10
111.9539411945555
 20
168.75014320249281
 30
0.0
 40
48.381410330378351
100
AcDbArc
 50
258.04842595326443
 51
258.06712217462132
  0
ARC
  5
E0
100
AcDbEntity
  8
Corte exterior
 62
256
370
-1
 48
1.0
  6
ByLayer
100
AcDbCircle
 10
61.613959859844243
 20
1.993333333303873
 30
0.0
 40
0.9933557044460663
100
AcDbArc
 50
270.38452965958459
 51
0.3845296595848971
  0
LINE
  5
E1
100
AcDbEntity
100
AcDbLine
  8
Corte exterior
 62
256
370
-1
 48
1.0
  6
ByLayer
 10
48.43108028258154
 20
0.9999999999983353
 30
0.0
 11
61.620626526510911
 21
0.9999999999705469
 31
0.0
  0
LINE
  5
E2
100
AcDbEntity
100
AcDbLine
  8
Corte exterior
 62
256
370
-1
 48
1.0
  6
ByLayer
 10
48.43108028258154
 20
3.9999999999983351
 30
0.0
 11
48.43108028258154
 21
0.9999999999983344
 31
0.0
  0
LINE
  5
E3
100
AcDbEntity
100
AcDbLine
  8
Corte exterior
 62
256
370
-1
 48
1.0
  6
ByLayer
 10
45.076413615914873
 20
3.9999999999983351
 30
0.0
 11
48.43108028258154
 21
3.9999999999983351
 31
0.0
  0
LINE
  5
E4
100
AcDbEntity
100
AcDbLine
  8
Corte exterior
 62
256
370
-1
 48
1.0
  6
ByLayer
 10
45.076413615914873
 20
0.9999999999983351
 30
0.0
 11
45.076413615914873
 21
3.9999999999983351
 31
0.0
  0
LINE
  5
E5
100
AcDbEntity
100
AcDbLine
  8
Corte exterior
 62
256
370
-1
 48
1.0
  6
ByLayer
 10
40.177613193177557
 20
0.9999999999983351
 30
0.0
 11
45.07641361591488
 21
0.9999999999983351
 31
0.0
  0
LINE
  5
E6
100
AcDbEntity
100
AcDbLine
  8
Corte exterior
 62
256
370
-1
 48
1.0
  6
ByLayer
 10
40.177613193177557
 20
28.999999999998341
 30
0.0
 11
40.177613193177557
 21
0.9999999999983351
 31
0.0
  0
LINE
  5
E7
100
AcDbEntity
100
AcDbLine
  8
Corte exterior
 62
256
370
-1
 48
1.0
  6
ByLayer
 10
31.95571985984423
 20
28.999999999998341
 30
0.0
 11
40.177613193177557
 21
28.999999999998341
 31
0.0
  0
LINE
  5
E8
100
AcDbEntity
100
AcDbLine
  8
Corte exterior
 62
256
370
-1
 48
1.0
  6
ByLayer
 10
31.95571985984423
 20
0.9999999999983351
 30
0.0
 11
31.95571985984423
 21
28.999999999998341
 31
0.0
  0
LINE
  5
E9
100
AcDbEntity
100
AcDbLine
  8
Corte exterior
 62
256
370
-1
 48
1.0
  6
ByLayer
 10
27.612413615914871
 20
0.9999999999983387
 30
0.0
 11
31.95571985984423
 21
0.9999999999983351
 31
0.0
  0
LINE
  5
EA
100
AcDbEntity
100
AcDbLine
  8
Corte exterior
 62
256
370
-1
 48
1.0
  6
ByLayer
 10
27.612413615914871
 20
3.999999999998332
 30
0.0
 11
27.612413615914871
 21
0.9999999999983318
 31
0.0
  0
LINE
  5
EB
100
AcDbEntity
100
AcDbLine
  8
Corte exterior
 62
256
370
-1
 48
1.0
  6
ByLayer
 10
24.25774694924819
 20
3.9999999999983351
 30
0.0
 11
27.612413615914871
 21
3.999999999998332
 31
0.0
  0
LINE
  5
EC
100
AcDbEntity
100
AcDbLine
  8
Corte exterior
 62
256
370
-1
 48
1.0
  6
ByLayer
 10
24.25774694924819
 20
0.9999999999983351
 30
0.0
 11
24.25774694924819
 21
3.9999999999983351
 31
0.0
  0
LINE
  5
ED
100
AcDbEntity
100
AcDbLine
  8
Corte exterior
 62
256
370
-1
 48
1.0
  6
ByLayer
 10
10.5127065265109
 20
0.9999999999983348
 30
0.0
 11
24.257746949248201
 21
0.9999999999983351
 31
0.0
  0
ARC
  5
EE
100
AcDbEntity
  8
Corte exterior
 62
256
370
-1
 48
1.0
  6
ByLayer
100
AcDbCircle
 10
10.519373193177559
 20
1.9933333333316701
 30
0.0
 40
0.9933557044460759
100
AcDbArc
 50
179.61547034041612
 51
269.6154703404157
  0
LINE
  5
EF
100
AcDbEntity
100
AcDbLine
  8
Corte exterior
 62
256
370
-1
 48
1.0
  6
ByLayer
 10
62.607293193177611
 20
0.9999999999705536
 30
0.0
 11
62.607293193177611
 21
4.4999999999705453
 31
0.0
  0
LINE
  5
F0
100
AcDbEntity
100
AcDbLine
  8
Corte exterior
 62
256
370
-1
 48
1.0
  6
ByLayer
 10
70.63333319317762
 20
0.9999999999705536
 30
0.0
 11
62.607293193177611
 21
0.9999999999705536
 31
0.0
  0
LINE
  5
F1
100
AcDbEntity
100
AcDbLine
  8
Corte exterior
 62
256
370
-1
 48
1.0
  6
ByLayer
 10
70.633333193177592
 20
9.5666737318170565
 30
0.0
 11
70.633333193177592
 21
0.9999999999983387
 31
0.0
  0
LINE
  5
F2
100
AcDbEntity
100
AcDbLine
  8
Corte exterior
 62
256
370
-1
 48
1.0
  6
ByLayer
 10
70.633333193177592
 20
79.299523924794613
 30
0.0
 11
70.633333193177592
 21
54.239789899222153
 31
0.0
  0
LINE
  5
F3
100
AcDbEntity
100
AcDbLine
  8
Corte exterior
 62
256
370
-1
 48
1.0
  6
ByLayer
 10
70.633333193177592
 20
90.764212538050103
 30
0.0
 11
70.633333193177592
 21
79.299523924794613
 31
0.0
  0
ARC
  5
F4
100
AcDbEntity
  8
Corte exterior
 62
256
370
-1
 48
1.0
  6
ByLayer
100
AcDbCircle
 10
61.613959859844208
 20
8.3396666666650088
 30
0.0
 40
0.9933557044460704
100
AcDbArc
 50
359.61547034041411
 51
89.615470340415442
  0
LINE
  5
F5
100
AcDbEntity
100
AcDbLine
  8
Corte exterior
 62
256
370
-1
 48
1.0
  6
ByLayer
 10
52.674733193177559
 20
9.3329999999983322
 30
0.0
 11
61.62062652651089
 21
9.3329999999983357
 31
0.0
  0
ARC
  5
F6
100
AcDbEntity
  8
Corte exterior
 62
256
370
-1
 48
1.0
  6
ByLayer
100
AcDbCircle
 10
52.681399859844198
 20
10.32633333333172
 30
0.0
 40
0.9933557044461252
100
AcDbArc
 50
179.61547034041499
 51
269.61547034041791
  0
LINE
  5
F7
100
AcDbEntity
100
AcDbLine
  8
Corte exterior
 62
256
370
-1
 48
1.0
  6
ByLayer
 10
51.688066526510937
 20
25.000845655158731
 30
0.0
 11
51.688066526510823
 21
10.33299999999838
 31
0.0
  0
ARC
  5
F8
100
AcDbEntity
  8
Corte exterior
 62
256
370
-1
 48
1.0
  6
ByLayer
100
AcDbCircle
 10
52.681468401510962
 20
25.007511969469071
 30
0.0
 40
0.993424242204732
100
AcDbArc
 50
90.973565418819163
 51
180.38448280731279
  0
LINE
  5
F9
100
AcDbEntity
100
AcDbLine
  8
Corte exterior
 62
256
370
-1
 48
1.0
  6
ByLayer
 10
62.60729319317754
 20
26.000792801711221
 30
0.0
 11
52.664589026510953
 21
26.000792801711221
 31
0.0
  0
LINE
  5
FA
100
AcDbEntity
100
AcDbLine
  8
Corte exterior
 62
256
370
-1
 48
1.0
  6
ByLayer
 10
62.60729319317754
 20
28.000792801711221
 30
0.0
 11
62.60729319317754
 21
26.000792801711221
 31
0.0
  0
LINE
  5
FB
100
AcDbEntity
100
AcDbLine
  8
Corte exterior
 62
256
370
-1
 48
1.0
  6
ByLayer
 10
62.607293193177611
 20
0.9999999999705536
 30
0.0
 11
62.607293193177611
 21
3.999999999970544
 31
0.0
  0
LINE
  5
FC
100
AcDbEntity
100
AcDbLine
  8
Corte exterior
 62
256
370
-1
 48
1.0
  6
ByLayer
 10
70.633333193177592
 20
0.9999999999983387
 30
0.0
 11
62.607293193177611
 21
0.9999999999705536
 31
0.0
  0
LINE
  5
FD
100
AcDbEntity
100
AcDbLine
  8
Corte exterior
 62
256
370
-1
 48
1.0
  6
ByLayer
 10
149.5
 20
0.9999999999999143
 30
0.0
 11
70.633333193177592
 21
0.9999999999983387
 31
0.0
  0
LINE
  5
FE
100
AcDbEntity
100
AcDbLine
  8
Corte exterior
 62
256
370
-1
 48
1.0
  6
ByLayer
 10
149.5
 20
0.9999999999999143
 30
0.0
 11
149.5
 21
0.9999999999999143
 31
0.0
  0
LINE
  5
FF
100
AcDbEntity
100
AcDbLine
  8
Corte exterior
 62
256
370
-1
 48
1.0
  6
ByLayer
 10
149.5
 20
119.0
 30
0.0
 11
149.5
 21
0.9999999999999143
 31
0.0
  0
LINE
  5
100
100
AcDbEntity
100
AcDbLine
  8
Corte exterior
 62
256
370
-1
 48
1.0
  6
ByLayer
 10
133.0796746906737
 20
119.0
 30
0.0
 11
149.5
 21
119.0
 31
0.0
  0
ARC
  5
101
100
AcDbEntity
  8
Corte exterior
 62
256
370
-1
 48
1.0
  6
ByLayer
100
AcDbCircle
 10
63.952813575699473
 20
17.362989144032149
 30
0.0
 40
6.687410649809248
100
AcDbArc
 50
2.6012858466184658
 51
97.038759839786053
  0
ARC
  5
102
100
AcDbEntity
  8
Corte exterior
 62
256
370
-1
 48
1.0
  6
ByLayer
100
AcDbCircle
 10
59.13333319317757
 20
18.499999999970552
 30
0.0
 40
6.8007352543677317
100
AcDbArc
 50
53.972626614896107
 51
97.030705292846321
  0
ARC
  5
103
100
AcDbEntity
  8
Corte exterior
 62
256
370
-1
 48
1.0
  6
ByLayer
100
AcDbCircle
 10
58.423316006541071
 20
24.25711777590196
 30
0.0
 40
1.0000000000000111
100
AcDbArc
 50
97.030705292845681
 51
209.3527816438982
  0
ARC
  5
104
100
AcDbEntity
  8
Corte exterior
 62
256
370
-1
 48
1.0
  6
ByLayer
100
AcDbCircle
 10
60.633333193177592
 20
25.499999999970559
 30
0.0
 40
3.5355339059327431
100
AcDbArc
 50
209.35278164389848
 51
253.0724869358537
  0
ARC
  5
105
100
AcDbEntity
  8
Corte exterior
 62
256
370
-1
 48
1.0
  6
ByLayer
100
AcDbCircle
 10
58.63333319317757
 20
16.499999999970509
 30
0.0
 40
5.7008771254957287
100
AcDbArc
 50
80.197503284754134
 51
106.81017367048651
  0
ARC
  5
106
100
AcDbEntity
  8
Corte exterior
 62
256
370
-1
 48
1.0
  6
ByLayer
100
AcDbCircle
 10
57.273831170741197
 20
20.999999999970552
 30
0.0
 40
1.00000000000001
100
AcDbArc
 50
106.81017367048671
 51
253.18982632951318
  0
ARC
  5
107
100
AcDbEntity
  8
Corte exterior
 62
256
370
-1
 48
1.0
  6
ByLayer
100
AcDbCircle
 10
58.633333193177528
 20
25.49999999997064
 30
0.0
 40
5.7008771254957686
100
AcDbArc
 50
253.18982632951403
 51
285.25511870305837
  0
ARC
  5
108
100
AcDbEntity
  8
Corte exterior
 62
256
370
-1
 48
1.0
  6
ByLayer
100
AcDbCircle
 10
62.633333193177592
 20
12.499999999970511
 30
0.0
 40
7.9056941504209881
100
AcDbArc
 50
108.4349488229217
 51
128.40442374922543
  0
ARC
  5
109
100
AcDbEntity
  8
Corte exterior
 62
256
370
-1
 48
1.0
  6
ByLayer
100
AcDbCircle
 10
58.343458762165461
 20
17.911616123210141
 30
0.0
 40
0.9999999999999891
100
AcDbArc
 50
128.40442374922611
 51
274.72671632611781
  0
ARC
  5
10A
100
AcDbEntity
  8
Corte exterior
 62
256
370
-1
 48
1.0
  6
ByLayer
100
AcDbCircle
 10
57.633333193177691
 20
26.499999999970569
 30
0.0
 40
9.617692030835661
100
AcDbArc
 50
274.72671632611718
 51
292.10119370926009
  0
ARC
  5
10B
100
AcDbEntity
  8
Corte exterior
 62
256
370
-1
 48
1.0
  6
ByLayer
100
AcDbCircle
 10
61.628171510864107
 20
16.66248756657486
 30
0.0
 40
0.9999999999999824
100
AcDbArc
 50
12.605197076099159
 51
112.1011937092612
  0
ARC
  5
10C
100
AcDbEntity
  8
Corte exterior
 62
256
370
-1
 48
1.0
  6
ByLayer
100
AcDbCircle
 10
59.259888295558412
 20
16.132887993499299
 30
0.0
 40
3.4267758643311801
100
AcDbArc
 50
349.13384886529479
 51
12.605197076099429
  0
ARC
  5
10D
100
AcDbEntity
  8
Corte exterior
 62
256
370
-1
 48
1.0
  6
ByLayer
100
AcDbCircle
 10
63.607293193177959
 20
15.298373039060619
 30
0.0
 40
1.000000000000355
100
AcDbArc
 50
169.13384886530272
 51
180.0
  0
LINE
  5
10E
100
AcDbEntity
100
AcDbLine
  8
Corte exterior
 62
256
370
-1
 48
1.0
  6
ByLayer
 10
62.607293193177611
 20
4.9999999999705453
 30
0.0
 11
62.607293193177611
 21
15.29837303906055
 31
0.0
  0
LINE
  5
10F
100
AcDbEntity
100
AcDbLine
  8
Corte exterior
 62
256
370
-1
 48
1.0
  6
ByLayer
 10
41.980535012438899
 20
51.934709513125618
 30
0.0
 11
35.57386834577224
 21
51.934709513125618
 31
0.0
  0
LINE
  5
110
100
AcDbEntity
100
AcDbLine
  8
Corte exterior
 62
256
370
-1
 48
1.0
  6
ByLayer
 10
41.980535012438899
 20
54.334709513125603
 30
0.0
 11
41.980535012438899
 21
51.934709513125618
 31
0.0
  0
LINE
  5
111
100
AcDbEntity
100
AcDbLine
  8
Corte exterior
 62
256
370
-1
 48
1.0
  6
ByLayer
 10
38.020435275767582
 20
54.334709513125603
 30
0.0
 11
41.980535012438899
 21
54.334709513125603
 31
0.0
  0
LINE
  5
112
100
AcDbEntity
100
AcDbLine
  8
Corte exterior
 62
256
370
-1
 48
1.0
  6
ByLayer
 10
38.020435275767582
 20
57.752026218648119
 30
0.0
 11
38.020435275767582
 21
54.334709513125603
 31
0.0
  0
LINE
  5
113
100
AcDbEntity
100
AcDbLine
  8
Corte exterior
 62
256
370
-1
 48
1.0
  6
ByLayer
 10
47.160535012438899
 20
57.752026218648119
 30
0.0
 11
38.020435275767582
 21
57.752026218648119
 31
0.0
  0
LINE
  5
114
100
AcDbEntity
100
AcDbLine
  8
Corte exterior
 62
256
370
-1
 48
1.0
  6
ByLayer
 10
47.160535012438899
 20
43.752026218648098
 30
0.0
 11
47.160535012438899
 21
57.752026218648119
 31
0.0
  0
LINE
  5
115
100
AcDbEntity
100
AcDbLine
  8
Corte exterior
 62
256
370
-1
 48
1.0
  6
ByLayer
 10
43.805868345772247
 20
43.752026218648098
 30
0.0
 11
47.160535012438899
 21
43.752026218648098
 31
0.0
  0
LINE
  5
116
100
AcDbEntity
100
AcDbLine
  8
Corte exterior
 62
256
370
-1
 48
1.0
  6
ByLayer
 10
43.805868345772247
 20
47.752026218648119
 30
0.0
 11
43.805868345772247
 21
43.752026218648098
 31
0.0
  0
LINE
  5
117
100
AcDbEntity
100
AcDbLine
  8
Corte exterior
 62
256
370
-1
 48
1.0
  6
ByLayer
 10
26.34186834577223
 20
47.752026218648119
 30
0.0
 11
43.805868345772247
 21
47.752026218648119
 31
0.0
  0
LINE
  5
118
100
AcDbEntity
100
AcDbLine
  8
Corte exterior
 62
256
370
-1
 48
1.0
  6
ByLayer
 10
26.34186834577223
 20
43.752026218648098
 30
0.0
 11
26.34186834577223
 21
47.752026218648119
 31
0.0
  0
LINE
  5
119
100
AcDbEntity
100
AcDbLine
  8
Corte exterior
 62
256
370
-1
 48
1.0
  6
ByLayer
 10
22.987201679105571
 20
43.752026218648098
 30
0.0
 11
26.34186834577223
 21
43.752026218648098
 31
0.0
  0
LINE
  5
11A
100
AcDbEntity
100
AcDbLine
  8
Corte exterior
 62
256
370
-1
 48
1.0
  6
ByLayer
 10
22.987201679105571
 20
57.752026218648119
 30
0.0
 11
22.987201679105571
 21
43.752026218648098
 31
0.0
  0
LINE
  5
11B
100
AcDbEntity
100
AcDbLine
  8
Corte exterior
 62
256
370
-1
 48
1.0
  6
ByLayer
 10
32.113868345772261
 20
57.752026218648119
 30
0.0
 11
22.987201679105571
 21
57.752026218648119
 31
0.0
  0
LINE
  5
11C
100
AcDbEntity
100
AcDbLine
  8
Corte exterior
 62
256
370
-1
 48
1.0
  6
ByLayer
 10
32.113868345772261
 20
54.334709513125603
 30
0.0
 11
32.113868345772261
 21
57.752026218648119
 31
0.0
  0
LINE
  5
11D
100
AcDbEntity
100
AcDbLine
  8
Corte exterior
 62
256
370
-1
 48
1.0
  6
ByLayer
 10
28.167201679105592
 20
54.334709513125603
 30
0.0
 11
32.113868345772261
 21
54.334709513125603
 31
0.0
  0
LINE
  5
11E
100
AcDbEntity
100
AcDbLine
  8
Corte exterior
 62
256
370
-1
 48
1.0
  6
ByLayer
 10
28.167201679105592
 20
51.934709513125618
 30
0.0
 11
28.167201679105592
 21
54.334709513125603
 31
0.0
  0
LINE
  5
11F
100
AcDbEntity
100
AcDbLine
  8
Corte exterior
 62
256
370
-1
 48
1.0
  6
ByLayer
 10
34.57386834577224
 20
51.934709513125618
 30
0.0
 11
28.167201679105592
 21
51.934709513125618
 31
0.0
  0
LINE
  5
120
100
AcDbEntity
100
AcDbLine
  8
Corte exterior
 62
256
370
-1
 48
1.0
  6
ByLayer
 10
51.335388113942528
 20
71.586338547763987
 30
0.0
 11
36.048721447275867
 21
71.586338547763987
 31
0.0
  0
LINE
  5
121
100
AcDbEntity
100
AcDbLine
  8
Corte exterior
 62
256
370
-1
 48
1.0
  6
ByLayer
 10
51.335388113942528
 20
39.586338547764022
 30
0.0
 11
51.335388113942528
 21
71.586338547763987
 31
0.0
  0
LINE
  5
122
100
AcDbEntity
100
AcDbLine
  8
Corte exterior
 62
256
370
-1
 48
1.0
  6
ByLayer
 10
19.762054780609201
 20
39.586338547764022
 30
0.0
 11
51.335388113942528
 21
39.586338547764022
 31
0.0
  0
LINE
  5
123
100
AcDbEntity
100
AcDbLine
  8
Corte exterior
 62
256
370
-1
 48
1.0
  6
ByLayer
 10
19.762054780609201
 20
71.586338547763987
 30
0.0
 11
19.762054780609201
 21
39.586338547764022
 31
0.0
  0
LINE
  5
124
100
AcDbEntity
100
AcDbLine
  8
Corte exterior
 62
256
370
-1
 48
1.0
  6
ByLayer
 10
35.048721447275867
 20
71.586338547763987
 30
0.0
 11
19.762054780609201
 21
71.586338547763987
 31
0.0
  0
ARC
  5
125
100
AcDbEntity
  8
grabado linea medio
 62
256
370
-1
 48
1.0
  6
ByLayer
100
AcDbCircle
 10
35.506453990224799
 20
100.11446536432901
 30
0.0
 40
19.039460016342609
100
AcDbArc
 50
212.7859987479097
 51
225.09986682220449
  0
ARC
  5
126
100
AcDbEntity
  8
grabado linea medio
 62
256
370
-1
 48
1.0
  6
ByLayer
100
AcDbCircle
 10
35.592227374892282
 20
155.94066620575819
 30
0.0
 40
68.065750218569178
100
AcDbArc
 50
256.32455187180449
 51
283.49938567024572
  0
ARC
  5
127
100
AcDbEntity
  8
grabado linea medio
 62
256
370
-1
 48
1.0
  6
ByLayer
100
AcDbCircle
 10
35.506453990226191
 20
100.11446536432589
 30
0.0
 40
19.039460016333891
100
AcDbArc
 50
317.54680216528948
 51
327.03793879414263
  0
ARC
  5
128
100
AcDbEntity
  8
grabado linea medio
 62
256
370
-1
 48
1.0
  6
ByLayer
100
AcDbCircle
 10
0.6444750947043554
 20
62.505741384872799
 30
0.0
 40
16.972110127321869
100
AcDbArc
 50
38.246053673414337
 51
86.805083074031302
  0
LINE
  5
129
100
AcDbEntity
100
AcDbLine
  8
grabado linea medio
 62
256
370
-1
 48
1.0
  6
ByLayer
 10
13.885184861807989
 20
49.01350951146668
 30
0.0
 11
13.973684205877509
 21
73.012154028804119
 31
0.0
  0
ARC
  5
12A
100
AcDbEntity
  8
grabado linea medio
 62
256
370
-1
 48
1.0
  6
ByLayer
100
AcDbCircle
 10
5.1370086901019683
 20
56.137799646036527
 30
0.0
 40
11.28211399750659
100
AcDbArc
 50
251.19372043317054
 51
320.84151291912792
  0
ARC
  5
12B
100
AcDbEntity
  8
grabado linea medio
 62
256
370
-1
 48
1.0
  6
ByLayer
100
AcDbCircle
 10
66.790971370875312
 20
56.351311309991942
 30
0.0
 40
11.282113997506571
100
AcDbArc
 50
219.59034599156973
 51
289.23813847752712
  0
LINE
  5
12C
100
AcDbEntity
100
AcDbLine
  8
grabado linea medio
 62
256
370
-1
 48
1.0
  6
ByLayer
 10
57.827359989909191
 20
73.158581790868652
 30
0.0
 11
58.096741528082582
 21
49.161286018421251
 31
0.0
  0
ARC
  5
12D
100
AcDbEntity
  8
grabado linea medio
 62
256
370
-1
 48
1.0
  6
ByLayer
100
AcDbCircle
 10
71.037174017099915
 20
62.034480150594092
 30
0.0
 40
17.269766180702181
100
AcDbArc
 50
91.33994194549858
 51
139.8989713461155
  0
LINE
  5
12E
100
AcDbEntity
100
AcDbLine
  8
grabado linea medio
 62
256
370
-1
 48
1.0
  6
ByLayer
 10
70.465639522915808
 20
124.542976009266
 30
0.0
 11
61.683115266195813
 21
124.58333333333159
 31
0.0
  0
LINE
  5
12F
100
AcDbEntity
100
AcDbLine
  8
grabado linea medio
 62
256
370
-1
 48
1.0
  6
ByLayer
 10
61.683115266195792
 20
120.58333333333159
 30
0.0
 11
70.633333193177563
 21
120.58333333333169
 31
0.0
  0
ARC
  5
130
100
AcDbEntity
  8
grabado linea medio
 62
256
370
-1
 48
1.0
  6
ByLayer
100
AcDbCircle
 10
49.013333193177502
 20
122.58333333333169
 30
0.0
 40
12.8266666666666
100
AcDbArc
 50
8.9704561942223027
 51
351.02954380577734
  0
LINE
  5
131
100
AcDbEntity
100
AcDbLine
  8
grabado linea medio
 62
256
370
-1
 48
1.0
  6
ByLayer
 10
10.45021778682583
 20
124.58333333333159
 30
0.0
 11
1.678487383635928
 21
124.58333333333159
 31
0.0
  0
ARC
  5
132
100
AcDbEntity
  8
grabado linea medio
 62
256
370
-1
 48
1.0
  6
ByLayer
100
AcDbCircle
 10
23.11999985984421
 20
122.58333333333159
 30
0.0
 40
12.82666666666667
100
AcDbArc
 50
188.97045619422241
 51
171.02954380577748
  0
LINE
  5
133
100
AcDbEntity
100
AcDbLine
  8
grabado linea medio
 62
256
370
-1
 48
1.0
  6
ByLayer
 10
1.499999859844229
 20
120.58333333333159
 30
0.0
 11
10.45021778682583
 21
120.58333333333159
 31
0.0
  0
LINE
  5
134
100
AcDbEntity
100
AcDbLine
  8
grabado linea medio
 62
256
370
-1
 48
1.0
  6
ByLayer
 10
134.25876600574091
 20
124.0
 30
0.0
 11
134.23994944297721
 21
137.3617119005944
 31
0.0
  0
LINE
  5
135
100
AcDbEntity
100
AcDbLine
  8
grabado linea medio
 62
256
370
-1
 48
1.0
  6
ByLayer
 10
140.17916593227591
 20
124.0
 30
0.0
 11
134.25876600574091
 21
124.0
 31
0.0
  0
ARC
  5
136
100
AcDbEntity
  8
grabado linea medio
 62
256
370
-1
 48
1.0
  6
ByLayer
100
AcDbCircle
 10
155.98141143803511
 20
123.80756135574769
 30
0.0
 40
15.80341721451693
100
AcDbArc
 50
142.00870427605619
 51
179.30229048017441
  0
ARC
  5
137
100
AcDbEntity
  8
grabado linea medio
 62
256
370
-1
 48
1.0
  6
ByLayer
100
AcDbCircle
 10
108.58131522383211
 20
123.80816875171691
 30
0.0
 40
15.81043407070551
100
AcDbArc
 50
0.6951985347003876
 51
37.971435326639998
  0
LINE
  5
138
100
AcDbEntity
100
AcDbLine
  8
grabado linea medio
 62
256
370
-1
 48
1.0
  6
ByLayer
 10
130.2829890780057
 20
124.0
 30
0.0
 11
124.3905854877092
 21
124.0
 31
0.0
  0
LINE
  5
139
100
AcDbEntity
100
AcDbLine
  8
grabado linea medio
 62
256
370
-1
 48
1.0
  6
ByLayer
 10
130.2829795022646
 20
137.35649200452349
 30
0.0
 11
130.2829890780057
 21
124.0
 31
0.0
  0
LINE
  5
13A
100
AcDbEntity
100
AcDbLine
  8
0
 62
256
370
-1
 48
1.0
  6
ByLayer
 10
128.04828280846709
 20
82.312204295749211
 30
0.0
 11
128.04828280846709
 21
79.612204295749237
 31
0.0
  0
LINE
  5
13B
100
AcDbEntity
100
AcDbLine
  8
0
 62
256
370
-1
 48
1.0
  6
ByLayer
 10
111.5709494751338
 20
82.312204295749211
 30
0.0
 11
128.04828280846709
 21
82.312204295749211
 31
0.0
  0
LINE
  5
13C
100
AcDbEntity
100
AcDbLine
  8
0
 62
256
370
-1
 48
1.0
  6
ByLayer
 10
111.5709494751338
 20
92.312204295749183
 30
0.0
 11
111.5709494751338
 21
82.312204295749211
 31
0.0
  0
LINE
  5
13D
100
AcDbEntity
100
AcDbLine
  8
0
 62
256
370
-1
 48
1.0
  6
ByLayer
 10
128.04828280846709
 20
92.312204295749183
 30
0.0
 11
111.5709494751338
 21
92.312204295749183
 31
0.0
  0
LINE
  5
13E
100
AcDbEntity
100
AcDbLine
  8
0
 62
256
370
-1
 48
1.0
  6
ByLayer
 10
128.04828280846709
 20
95.012204295749186
 30
0.0
 11
128.04828280846709
 21
92.312204295749183
 31
0.0
  0
LINE
  5
13F
100
AcDbEntity
100
AcDbLine
  8
0
 62
256
370
-1
 48
1.0
  6
ByLayer
 10
147.2882828084673
 20
95.012204295749186
 30
0.0
 11
128.04828280846709
 21
95.012204295749186
 31
0.0
  0
LINE
  5
140
100
AcDbEntity
100
AcDbLine
  8
0
 62
256
370
-1
 48
1.0
  6
ByLayer
 10
147.2882828084673
 20
79.612204295749237
 30
0.0
 11
147.2882828084673
 21
95.012204295749186
 31
0.0
  0
LINE
  5
141
100
AcDbEntity
100
AcDbLine
  8
0
 62
256
370
-1
 48
1.0
  6
ByLayer
 10
128.04828280846709
 20
79.612204295749237
 30
0.0
 11
147.2882828084673
 21
79.612204295749237
 31
0.0
  0
LINE
  5
142
100
AcDbEntity
100
AcDbLine
  8
0
 62
256
370
-1
 48
1.0
  6
ByLayer
 10
133.41733333333329
 20
64.316339928791521
 30
0.0
 11
149.5
 21
64.316339928791521
 31
0.0
  0
LINE
  5
143
100
AcDbEntity
100
AcDbLine
  8
0
 62
256
370
-1
 48
1.0
  6
ByLayer
 10
133.41733333333329
 20
60.816339928791542
 30
0.0
 11
133.41733333333329
 21
64.316339928791521
 31
0.0
  0
LINE
  5
144
100
AcDbEntity
100
AcDbLine
  8
0
 62
256
370
-1
 48
1.0
  6
ByLayer
 10
96.219999999999985
 20
60.816339928791542
 30
0.0
 11
133.41733333333329
 21
60.816339928791542
 31
0.0
  0
LINE
  5
145
100
AcDbEntity
100
AcDbLine
  8
0
 62
256
370
-1
 48
1.0
  6
ByLayer
 10
96.219999999999985
 20
77.81633992879155
 30
0.0
 11
96.219999999999985
 21
60.816339928791542
 31
0.0
  0
LINE
  5
146
100
AcDbEntity
100
AcDbLine
  8
0
 62
256
370
-1
 48
1.0
  6
ByLayer
 10
133.41733333333329
 20
77.81633992879155
 30
0.0
 11
96.219999999999985
 21
77.81633992879155
 31
0.0
  0
LINE
  5
147
100
AcDbEntity
100
AcDbLine
  8
0
 62
256
370
-1
 48
1.0
  6
ByLayer
 10
133.41733333333329
 20
74.31633992879155
 30
0.0
 11
133.41733333333329
 21
77.81633992879155
 31
0.0
  0
LINE
  5
148
100
AcDbEntity
100
AcDbLine
  8
0
 62
256
370
-1
 48
1.0
  6
ByLayer
 10
149.5
 20
74.31633992879155
 30
0.0
 11
133.41733333333329
 21
74.31633992879155
 31
0.0
  0
LINE
  5
149
100
AcDbEntity
100
AcDbLine
  8
0
 62
256
370
-1
 48
1.0
  6
ByLayer
 10
97.009333333333316
 20
58.200000000000003
 30
0.0
 11
97.009333333333316
 21
1.0
 31
0.0
  0
LINE
  5
14A
100
AcDbEntity
100
AcDbLine
  8
0
 62
256
370
-1
 48
1.0
  6
ByLayer
 10
149.5
 20
58.20000000000001
 30
0.0
 11
97.009333333333316
 21
58.200000000000003
 31
0.0
  0
LINE
  5
14B
100
AcDbEntity
100
AcDbLine
  8
0
 62
256
370
-1
 48
1.0
  6
ByLayer
 10
95.299999999999983
 20
98.0
 30
0.0
 11
70.63333333333334
 21
98.0
 31
0.0
  0
LINE
  5
14C
100
AcDbEntity
100
AcDbLine
  8
0
 62
256
370
-1
 48
1.0
  6
ByLayer
 10
95.299999999999983
 20
1.0
 30
0.0
 11
95.299999999999983
 21
98.0
 31
0.0
  0
LINE
  5
14D
100
AcDbEntity
100
AcDbLine
  8
0
 62
256
370
-1
 48
1.0
  6
ByLayer
 10
114.3746666666667
 20
47.700000000000003
 30
0.0
 11
114.3746666666667
 21
1.0
 31
0.0
  0
LINE
  5
14E
100
AcDbEntity
100
AcDbLine
  8
0
 62
256
370
-1
 48
1.0
  6
ByLayer
 10
132.1346666666667
 20
47.700000000000003
 30
0.0
 11
114.3746666666667
 21
47.700000000000003
 31
0.0
  0
LINE
  5
14F
100
AcDbEntity
100
AcDbLine
  8
0
 62
256
370
-1
 48
1.0
  6
ByLayer
 10
132.1346666666667
 20
1.0
 30
0.0
 11
132.1346666666667
 21
47.700000000000003
 31
0.0
  0
LINE
  5
150
100
AcDbEntity
100
AcDbLine
  8
grabado linea medio
 62
256
370
-1
 48
1.0
  6
ByLayer
 10
68.133333193177606
 20
84.804544710611978
 30
0.0
 11
70.623081748905051
 21
84.793104072479537
 31
0.0
  0
LINE
  5
151
100
AcDbEntity
100
AcDbLine
  8
grabado linea medio
 62
256
370
-1
 48
1.0
  6
ByLayer
 10
1.499999859844225
 20
84.804544710612134
 30
0.0
 11
3.9999998598442579
 21
84.804544710612134
 31
0.0
  0
ARC
  5
152
100
AcDbEntity
  8
Corte exterior
 62
256
370
-1
 48
1.0
  6
ByLayer
100
AcDbCircle
 10
36.066666526507397
 20
115.36434797874389
 30
0.0
 40
35.602479628957347
100
AcDbArc
 50
13.854688975035559
 51
166.14531102491827
  0
ENDSEC
  0
SECTION
  2
OBJECTS
  0
DICTIONARY
  5
C
100
AcDbDictionary
280
0
281
1
  3
ACAD_GROUP
350
D
  3
ACAD_LAYOUT
350
1A
  3
ACAD_MLINESTYLE
350
17
  3
ACAD_PLOTSETTINGS
350
19
  3
ACAD_PLOTSTYLENAME
350
E
  3
AcDbVariableDictionary
350
153
  3
QCAD_OBJECTS
350
154
  0
DICTIONARY
  5
D
100
AcDbDictionary
280
0
281
1
  0
ACDBDICTIONARYWDFLT
  5
E
100
AcDbDictionary
281
1
  3
Normal
350
F
100
AcDbDictionaryWithDefault
340
F
  0
ACDBPLACEHOLDER
  5
F
  0
DICTIONARY
  5
17
100
AcDbDictionary
280
0
281
1
  3
Standard
350
18
  0
MLINESTYLE
  5
18
100
AcDbMlineStyle
  2
STANDARD
 70
0
  3

 62
256
 51
90.0
 52
90.0
 71
2
 49
0.5
 62
256
  6
BYLAYER
 49
-0.5
 62
256
  6
BYLAYER
  0
DICTIONARY
  5
19
100
AcDbDictionary
280
0
281
1
  0
DICTIONARY
  5
1A
100
AcDbDictionary
281
1
  3
Layout1
350
1E
  3
Layout2
350
26
  3
Model
350
22
  0
LAYOUT
  5
1E
100
AcDbPlotSettings
  1

  2
none_device
  4

  6

 40
0.0
 41
0.0
 42
0.0
 43
0.0
 44
0.0
 45
0.0
 46
0.0
 47
0.0
 48
0.0
 49
0.0
140
0.0
141
0.0
142
1.0
143
1.0
 70
688
 72
0
 73
0
 74
5
  7

 75
16
147
1.0
148
0.0
149
0.0
100
AcDbLayout
  1
Layout1
 70
1
 71
1
 10
0.0
 20
0.0
 11
420.0
 21
297.0
 12
0.0
 22
0.0
 32
0.0
 14
100000000000000000000.0
 24
100000000000000000000.0
 34
100000000000000000000.0
 15
-100000000000000000000.0
 25
-100000000000000000000.0
 35
-100000000000000000000.0
146
0.0
 13
0.0
 23
0.0
 33
0.0
 16
1.0
 26
0.0
 36
0.0
 17
0.0
 27
1.0
 37
0.0
 76
0
330
1B
  0
LAYOUT
  5
22
100
AcDbPlotSettings
  1

  2
none_device
  4

  6

 40
0.0
 41
0.0
 42
0.0
 43
0.0
 44
0.0
 45
0.0
 46
0.0
 47
0.0
 48
0.0
 49
0.0
140
0.0
141
0.0
142
1.0
143
1.0
 70
1712
 72
0
 73
0
 74
0
  7

 75
0
147
1.0
148
0.0
149
0.0
100
AcDbLayout
  1
Model
 70
1
 71
0
 10
0.0
 20
0.0
 11
12.0
 21
9.0
 12
0.0
 22
0.0
 32
0.0
 14
0.0
 24
0.0
 34
0.0
 15
0.0
 25
0.0
 35
0.0
146
0.0
 13
0.0
 23
0.0
 33
0.0
 16
1.0
 26
0.0
 36
0.0
 17
0.0
 27
1.0
 37
0.0
 76
0
330
1F
  0
LAYOUT
  5
26
100
AcDbPlotSettings
  1

  2
none_device
  4

  6

 40
0.0
 41
0.0
 42
0.0
 43
0.0
 44
0.0
 45
0.0
 46
0.0
 47
0.0
 48
0.0
 49
0.0
140
0.0
141
0.0
142
1.0
143
1.0
 70
688
 72
0
 73
0
 74
5
  7

 75
16
147
1.0
148
0.0
149
0.0
100
AcDbLayout
  1
Layout2
 70
1
 71
2
 10
0.0
 20
0.0
 11
12.0
 21
9.0
 12
0.0
 22
0.0
 32
0.0
 14
0.0
 24
0.0
 34
0.0
 15
0.0
 25
0.0
 35
0.0
146
0.0
 13
0.0
 23
0.0
 33
0.0
 16
1.0
 26
0.0
 36
0.0
 17
0.0
 27
1.0
 37
0.0
 76
0
330
23
  0
DICTIONARY
  5
153
100
AcDbDictionary
281
1
  3
DIMASSOC
350
156
  3
HIDETEXT
350
155
  0
DICTIONARYVAR
  5
155
100
DictionaryVariables
280
0
  1
2
  0
DICTIONARYVAR
  5
156
100
DictionaryVariables
280
0
  1
1
  0
DICTIONARY
  5
154
100
AcDbDictionary
281
1
  3
ACAD_CIP_PREVIOUS_PRODUCT_INFO
350
157
  3
ColorSettings/BackgroundColor
350
158
  3
ColorSettings/ColorMode
350
159
  3
Grid/DisplayGrid00
350
15A
  3
Grid/DisplayGrid01
350
15B
  3
Grid/DisplayGrid02
350
15C
  3
Grid/DisplayGrid03
350
15D
  3
Grid/GridSpacingX00
350
15E
  3
Grid/GridSpacingX01
350
15F
  3
Grid/GridSpacingX02
350
160
  3
Grid/GridSpacingX03
350
161
  3
Grid/GridSpacingY00
350
162
  3
Grid/GridSpacingY01
350
163
  3
Grid/GridSpacingY02
350
164
  3
Grid/GridSpacingY03
350
165
  3
Grid/IsometricGrid00
350
166
  3
Grid/IsometricGrid01
350
167
  3
Grid/IsometricGrid02
350
168
  3
Grid/IsometricGrid03
350
169
  3
Grid/IsometricProjection00
350
16A
  3
Grid/IsometricProjection01
350
16B
  3
Grid/IsometricProjection02
350
16C
  3
Grid/IsometricProjection03
350
16D
  3
Grid/MetaGridSpacingX00
350
16E
  3
Grid/MetaGridSpacingX01
350
16F
  3
Grid/MetaGridSpacingX02
350
170
  3
Grid/MetaGridSpacingX03
350
171
  3
Grid/MetaGridSpacingY00
350
172
  3
Grid/MetaGridSpacingY01
350
173
  3
Grid/MetaGridSpacingY02
350
174
  3
Grid/MetaGridSpacingY03
350
175
  3
MultiPageSettings/Columns
350
176
  3
MultiPageSettings/GlueMarginsBottom
350
177
  3
MultiPageSettings/GlueMarginsLeft
350
178
  3
MultiPageSettings/GlueMarginsRight
350
179
  3
MultiPageSettings/GlueMarginsTop
350
17A
  3
MultiPageSettings/PrintCropMarks
350
17B
  3
MultiPageSettings/Rows
350
17C
  3
PageSettings/OffsetX
350
17D
  3
PageSettings/OffsetY
350
17E
  3
PageSettings/PageOrientation
350
17F
  3
PageSettings/PaperHeight
350
180
  3
PageSettings/PaperWidth
350
181
  3
PageSettings/Scale
350
182
  3
PageSettings/ShowPaperBorders
350
183
  3
QCADVersion
350
184
  3
UnitSettings/PaperUnit
350
185
  3
ViewportCenter
350
186
  3
ViewportHeight
350
187
  3
ViewportWidth
350
188
  0
XRECORD
  5
158
330
154
100
AcDbXrecord
280
1
1000
#ffffff
  0
XRECORD
  5
159
330
154
100
AcDbXrecord
280
1
1000
FullColor
  0
XRECORD
  5
15A
330
154
100
AcDbXrecord
280
1
290
1
  0
XRECORD
  5
15B
330
154
100
AcDbXrecord
280
1
290
1
  0
XRECORD
  5
15C
330
154
100
AcDbXrecord
280
1
290
1
  0
XRECORD
  5
15D
330
154
100
AcDbXrecord
280
1
290
1
  0
XRECORD
  5
15E
330
154
100
AcDbXrecord
280
1
1000
auto
  0
XRECORD
  5
15F
330
154
100
AcDbXrecord
280
1
1000
auto
  0
XRECORD
  5
160
330
154
100
AcDbXrecord
280
1
1000
auto
  0
XRECORD
  5
161
330
154
100
AcDbXrecord
280
1
1000
auto
  0
XRECORD
  5
162
330
154
100
AcDbXrecord
280
1
1000
auto
  0
XRECORD
  5
163
330
154
100
AcDbXrecord
280
1
1000
auto
  0
XRECORD
  5
164
330
154
100
AcDbXrecord
280
1
1000
auto
  0
XRECORD
  5
165
330
154
100
AcDbXrecord
280
1
1000
auto
  0
XRECORD
  5
166
330
154
100
AcDbXrecord
280
1
290
0
  0
XRECORD
  5
167
330
154
100
AcDbXrecord
280
1
290
0
  0
XRECORD
  5
168
330
154
100
AcDbXrecord
280
1
290
0
  0
XRECORD
  5
169
330
154
100
AcDbXrecord
280
1
290
0
  0
XRECORD
  5
16A
330
154
100
AcDbXrecord
280
1
 90
0
  0
XRECORD
  5
16B
330
154
100
AcDbXrecord
280
1
 90
0
  0
XRECORD
  5
16C
330
154
100
AcDbXrecord
280
1
 90
0
  0
XRECORD
  5
16D
330
154
100
AcDbXrecord
280
1
 90
0
  0
XRECORD
  5
16E
330
154
100
AcDbXrecord
280
1
1000
auto
  0
XRECORD
  5
16F
330
154
100
AcDbXrecord
280
1
1000
auto
  0
XRECORD
  5
170
330
154
100
AcDbXrecord
280
1
1000
auto
  0
XRECORD
  5
171
330
154
100
AcDbXrecord
280
1
1000
auto
  0
XRECORD
  5
172
330
154
100
AcDbXrecord
280
1
1000
auto
  0
XRECORD
  5
173
330
154
100
AcDbXrecord
280
1
1000
auto
  0
XRECORD
  5
174
330
154
100
AcDbXrecord
280
1
1000
auto
  0
XRECORD
  5
175
330
154
100
AcDbXrecord
280
1
1000
auto
  0
XRECORD
  5
176
330
154
100
AcDbXrecord
280
1
 90
1
  0
XRECORD
  5
177
330
154
100
AcDbXrecord
280
1
 40
10.0
  0
XRECORD
  5
178
330
154
100
AcDbXrecord
280
1
 40
10.0
  0
XRECORD
  5
179
330
154
100
AcDbXrecord
280
1
 40
10.0
  0
XRECORD
  5
17A
330
154
100
AcDbXrecord
280
1
 40
10.0
  0
XRECORD
  5
17B
330
154
100
AcDbXrecord
280
1
290
0
  0
XRECORD
  5
17C
330
154
100
AcDbXrecord
280
1
 90
1
  0
XRECORD
  5
17D
330
154
100
AcDbXrecord
280
1
 40
0.0
  0
XRECORD
  5
17E
330
154
100
AcDbXrecord
280
1
 40
0.0
  0
XRECORD
  5
17F
330
154
100
AcDbXrecord
280
1
1000
Portrait
  0
XRECORD
  5
180
330
154
100
AcDbXrecord
280
1
 40
279.39999999999998
  0
XRECORD
  5
181
330
154
100
AcDbXrecord
280
1
 40
215.90000000000001
  0
XRECORD
  5
182
330
154
100
AcDbXrecord
280
1
1000
1:1
  0
XRECORD
  5
183
330
154
100
AcDbXrecord
280
1
290
1
  0
XRECORD
  5
184
330
154
100
AcDbXrecord
280
1
1000
3.15.2
  0
XRECORD
  5
185
330
154
100
AcDbXrecord
280
1
 90
4
  0
XRECORD
  5
187
330
154
100
AcDbXrecord
280
1
 40
44.877049198186057
  0
XRECORD
  5
188
330
154
100
AcDbXrecord
280
1
 40
90.298429181794845
  0
ENDSEC
  0
EOF
