999
dxflib 3.12.2.0
  0
SECTION
  2
HEADER
  9
$ACADVER
  1
AC1015
  9
$HANDSEED
  5
FFFF
  9
$ANGBASE
 50
0.0
  9
$ANGDIR
 70
0
  9
$ATTMODE
 70
1
  9
$AUNITS
 70
0
  9
$AUPREC
 70
2
  9
$CECOLOR
 62
256
  9
$CELTSCALE
 40
1.0
  9
$CHAMFERA
 40
0.0
  9
$CHAMFERB
 40
0.0
  9
$CHAMFERC
 40
0.0
  9
$CHAMFERD
 40
0.0
  9
$CMLJUST
 70
0
  9
$CMLSCALE
 40
20.0
  9
$DIMADEC
 70
2
  9
$DIMALT
 70
0
  9
$DIMALTD
 70
3
  9
$DIMALTF
 40
0.0393700787
  9
$DIMALTRND
 40
0.0
  9
$DIMALTTD
 70
3
  9
$DIMALTTZ
 70
0
  9
$DIMALTU
 70
2
  9
$DIMALTZ
 70
0
  9
$DIMAPOST
  1

  9
$DIMASZ
 40
3.556
  9
$DIMATFIT
 70
3
  9
$DIMAUNIT
 70
0
  9
$DIMAZIN
 70
0
  9
$DIMBLK
  1

  9
$DIMBLK1
  1

  9
$DIMBLK2
  1

  9
$DIMCEN
 40
2.5
  9
$DIMCLRD
 70
0
  9
$DIMCLRE
 70
0
  9
$DIMCLRT
 70
0
  9
$DIMDEC
 70
2
  9
$DIMDLE
 40
0.0
  9
$DIMDLI
 40
3.75
  9
$DIMDSEP
 70
44
  9
$DIMEXE
 40
1.0
  9
$DIMEXO
 40
1.0
  9
$DIMFRAC
 70
0
  9
$DIMGAP
 40
1.524
  9
$DIMJUST
 70
0
  9
$DIMLDRBLK
  1

  9
$DIMLFAC
 40
1.0
  9
$DIMLIM
 70
0
  9
$DIMLUNIT
 70
2
  9
$DIMLWD
 70
-2
  9
$DIMLWE
 70
-2
  9
$DIMPOST
  1

  9
$DIMRND
 40
0.0
  9
$DIMSAH
 70
0
  9
$DIMSCALE
 40
1.0
  9
$DIMSD1
 70
0
  9
$DIMSD2
 70
0
  9
$DIMSE1
 70
0
  9
$DIMSE2
 70
0
  9
$DIMSOXD
 70
0
  9
$DIMTAD
 70
1
  9
$DIMTDEC
 70
2
  9
$DIMTFAC
 40
1.0
  9
$DIMTIH
 70
1
  9
$DIMTIX
 70
0
  9
$DIMTM
 40
0.0
  9
$DIMTOFL
 70
1
  9
$DIMTOH
 70
1
  9
$DIMTOL
 70
0
  9
$DIMTOLJ
 70
0
  9
$DIMTP
 40
0.0
  9
$DIMTSZ
 40
0.0
  9
$DIMTVP
 40
0.0
  9
$DIMTXSTY
  7
Standard
  9
$DIMTXT
 40
3.5
  9
$DIMTZIN
 70
1
  9
$DIMUPT
 70
0
  9
$DIMZIN
 70
1
  9
$DISPSILH
 70
0
  9
$DWGCODEPAGE
  3
ANSI_1252
  9
$ELEVATION
 40
0.0
  9
$EXTMAX
 10
141.6494521374
 20
-40.889447815099999
 30
0.0
  9
$EXTMIN
 10
2.0043630132999999
 20
-194.2894478151
 30
0.0
  9
$FILLETRAD
 40
10.0
  9
$FILLMODE
 70
1
  9
$INSBASE
 10
0.0
 20
0.0
 30
0.0
  9
$INSUNITS
 70
4
  9
$LIMCHECK
 70
0
  9
$LIMMAX
 10
420.0
 20
297.0
  9
$LIMMIN
 10
0.0
 20
0.0
  9
$LTSCALE
 40
1.0
  9
$LUNITS
 70
2
  9
$LUPREC
 70
2
  9
$MAXACTVP
 70
64
  9
$MEASUREMENT
 70
1
  9
$MIRRTEXT
 70
1
  9
$ORTHOMODE
 70
0
  9
$PDMODE
 70
0
  9
$PDSIZE
 40
-1.0
  9
$PELEVATION
 40
0.0
  9
$PEXTMAX
 10
-100000000000000000000.0
 20
-100000000000000000000.0
 30
-100000000000000000000.0
  9
$PEXTMIN
 10
100000000000000000000.0
 20
100000000000000000000.0
 30
100000000000000000000.0
  9
$PINSBASE
 10
0.0
 20
0.0
 30
0.0
  9
$PLIMCHECK
 70
0
  9
$PLIMMAX
 10
420.0
 20
297.0
  9
$PLIMMIN
 10
0.0
 20
0.0
  9
$PLINEGEN
 70
0
  9
$PLINEWID
 40
0.0
  9
$PROXYGRAPHICS
 70
1
  9
$PSLTSCALE
 70
1
  9
$PUCSNAME
  2

  9
$PUCSORG
 10
0.0
 20
0.0
 30
0.0
  9
$PUCSXDIR
 10
1.0
 20
0.0
 30
0.0
  9
$PUCSYDIR
 10
0.0
 20
1.0
 30
0.0
  9
$QTEXTMODE
 70
0
  9
$REGENMODE
 70
1
  9
$SHADEDGE
 70
3
  9
$SHADEDIF
 70
70
  9
$SKETCHINC
 40
1.0
  9
$SKPOLY
 70
0
  9
$SPLFRAME
 70
0
  9
$SPLINESEGS
 70
8
  9
$SPLINETYPE
 70
6
  9
$SURFTAB1
 70
6
  9
$SURFTAB2
 70
6
  9
$SURFTYPE
 70
6
  9
$SURFU
 70
6
  9
$SURFV
 70
6
  9
$TEXTSIZE
 40
3.5
  9
$TEXTSTYLE
  7
Standard
  9
$THICKNESS
 40
0.0
  9
$TILEMODE
 70
1
  9
$TRACEWID
 40
1.0
  9
$TREEDEPTH
 70
3020
  9
$UCSNAME
  2

  9
$UCSORG
 10
0.0
 20
0.0
 30
0.0
  9
$UCSXDIR
 10
1.0
 20
0.0
 30
0.0
  9
$UCSYDIR
 10
0.0
 20
1.0
 30
0.0
  9
$UNITMODE
 70
0
  9
$USERI1
 70
0
  9
$USERI2
 70
0
  9
$USERI3
 70
0
  9
$USERI4
 70
0
  9
$USERI5
 70
0
  9
$USERR1
 40
0.0
  9
$USERR2
 40
0.0
  9
$USERR3
 40
0.0
  9
$USERR4
 40
0.0
  9
$USERR5
 40
0.0
  9
$USRTIMER
 70
1
  9
$VISRETAIN
 70
1
  0
ENDSEC
  0
SECTION
  2
TABLES
  0
TABLE
  2
VPORT
  5
8
100
AcDbSymbolTable
 70
1
  0
VPORT
  5
30
100
AcDbSymbolTableRecord
100
AcDbViewportTableRecord
  2
*Active
 70
0
 10
0.0
 20
0.0
 11
1.0
 21
1.0
 12
286.30555555555549
 22
148.5
 13
0.0
 23
0.0
 14
10.0
 24
10.0
 15
10.0
 25
10.0
 16
0.0
 26
0.0
 36
1.0
 17
0.0
 27
0.0
 37
0.0
 40
297.0
 41
1.92798353909465
 42
50.0
 43
0.0
 44
0.0
 50
0.0
 51
0.0
 71
0
 72
100
 73
1
 74
3
 75
1
 76
1
 77
0
 78
0
281
0
 65
1
110
0.0
120
0.0
130
0.0
111
1.0
121
0.0
131
0.0
112
0.0
122
1.0
132
0.0
 79
0
146
0.0
  0
ENDTAB
  0
TABLE
  2
LTYPE
  5
5
100
AcDbSymbolTable
 70
50
  0
LTYPE
  5
16
100
AcDbSymbolTableRecord
100
AcDbLinetypeTableRecord
  2
Continuous
 70
0
  3
Solid line
 72
65
 73
0
 40
0.0
  0
LTYPE
  5
31
100
AcDbSymbolTableRecord
100
AcDbLinetypeTableRecord
  2
ACAD_ISO15W100
 70
0
  3
ISO double-dash triple-dot __ __ . . . __ __ . .
 72
65
 73
10
 40
39.0
 49
12.0
 74
0
 49
-3.0
 74
0
 49
12.0
 74
0
 49
-3.0
 74
0
 49
0.0
 74
0
 49
-3.0
 74
0
 49
0.0
 74
0
 49
-3.0
 74
0
 49
0.0
 74
0
 49
-3.0
 74
0
  0
LTYPE
  5
32
100
AcDbSymbolTableRecord
100
AcDbLinetypeTableRecord
  2
HOT_WATER_SUPPLY
 70
0
  3
Hot water supply ---- HW ---- HW ---- HW ----
 72
65
 73
3
 40
22.859999999999999
 49
12.699999999999999
 74
0
 49
-5.0800000000000001
 74
0
 49
-5.0800000000000001
 74
0
  0
LTYPE
  5
33
100
AcDbSymbolTableRecord
100
AcDbLinetypeTableRecord
  2
DIVIDE
 70
0
  3
Divide ____ . . ____ . . ____ . . ____ . . ____
 72
65
 73
6
 40
31.75
 49
12.699999999999999
 74
0
 49
-6.3499999999999996
 74
0
 49
0.0
 74
0
 49
-6.3499999999999996
 74
0
 49
0.0
 74
0
 49
-6.3499999999999996
 74
0
  0
LTYPE
  5
34
100
AcDbSymbolTableRecord
100
AcDbLinetypeTableRecord
  2
ACAD_ISO10W100
 70
0
  3
ISO dash dot __ . __ . __ . __ . __ . __ . __ . 
 72
65
 73
4
 40
18.0
 49
12.0
 74
0
 49
-3.0
 74
0
 49
0.0
 74
0
 49
-3.0
 74
0
  0
LTYPE
  5
35
100
AcDbSymbolTableRecord
100
AcDbLinetypeTableRecord
  2
GAS_LINE
 70
0
  3
Gas line ----GAS----GAS----GAS----GAS----GAS----GAS--
 72
65
 73
3
 40
24.130000000000003
 49
12.699999999999999
 74
0
 49
-5.0800000000000001
 74
0
 49
-6.3499999999999996
 74
0
  0
LTYPE
  5
36
100
AcDbSymbolTableRecord
100
AcDbLinetypeTableRecord
  2
ACAD_ISO04W100
 70
0
  3
ISO long-dash dot ____ . ____ . ____ . ____ . _
 72
65
 73
4
 40
30.0
 49
24.0
 74
0
 49
-3.0
 74
0
 49
0.0
 74
0
 49
-3.0
 74
0
  0
LTYPE
  5
14
100
AcDbSymbolTableRecord
100
AcDbLinetypeTableRecord
  2
ByBlock
 70
0
  3

 72
65
 73
0
 40
0.0
  0
LTYPE
  5
37
100
AcDbSymbolTableRecord
100
AcDbLinetypeTableRecord
  2
CENTER2
 70
0
  3
Center (.5x) ___ _ ___ _ ___ _ ___ _ ___ _ ___
 72
65
 73
4
 40
28.575000000000003
 49
19.050000000000001
 74
0
 49
-3.1749999999999998
 74
0
 49
3.1749999999999998
 74
0
 49
-3.1749999999999998
 74
0
  0
LTYPE
  5
38
100
AcDbSymbolTableRecord
100
AcDbLinetypeTableRecord
  2
ACAD_ISO11W100
 70
0
  3
ISO double-dash dot __ __ . __ __ . __ __ . __ _
 72
65
 73
6
 40
33.0
 49
12.0
 74
0
 49
-3.0
 74
0
 49
12.0
 74
0
 49
-3.0
 74
0
 49
0.0
 74
0
 49
-3.0
 74
0
  0
LTYPE
  5
39
100
AcDbSymbolTableRecord
100
AcDbLinetypeTableRecord
  2
HIDDEN2
 70
0
  3
Hidden (.5x) _ _ _ _ _ _ _ _ _ _ _ _ _ _ _ _ _ 
 72
65
 73
2
 40
4.7624999999999993
 49
3.1749999999999998
 74
0
 49
-1.5874999999999999
 74
0
  0
LTYPE
  5
3A
100
AcDbSymbolTableRecord
100
AcDbLinetypeTableRecord
  2
BORDERX2
 70
0
  3
Border (2x) ____  ____  .  ____  ____  .  ___
 72
65
 73
6
 40
88.899999999999991
 49
25.399999999999999
 74
0
 49
-12.699999999999999
 74
0
 49
25.399999999999999
 74
0
 49
-12.699999999999999
 74
0
 49
0.0
 74
0
 49
-12.699999999999999
 74
0
  0
LTYPE
  5
3B
100
AcDbSymbolTableRecord
100
AcDbLinetypeTableRecord
  2
ACAD_ISO05W100
 70
0
  3
ISO long-dash double-dot ____ .. ____ .. ____ . 
 72
65
 73
6
 40
33.0
 49
24.0
 74
0
 49
-3.0
 74
0
 49
0.0
 74
0
 49
-3.0
 74
0
 49
0.0
 74
0
 49
-3.0
 74
0
  0
LTYPE
  5
3C
100
AcDbSymbolTableRecord
100
AcDbLinetypeTableRecord
  2
DASHDOTX2
 70
0
  3
Dash dot (2x) ____  .  ____  .  ____  .  ___
 72
65
 73
4
 40
50.799999999999997
 49
25.399999999999999
 74
0
 49
-12.699999999999999
 74
0
 49
0.0
 74
0
 49
-12.699999999999999
 74
0
  0
LTYPE
  5
3D
100
AcDbSymbolTableRecord
100
AcDbLinetypeTableRecord
  2
HIDDENX2
 70
0
  3
Hidden (2x) ____ ____ ____ ____ ____ ____ ____ 
 72
65
 73
2
 40
19.049999999999997
 49
12.699999999999999
 74
0
 49
-6.3499999999999996
 74
0
  0
LTYPE
  5
3E
100
AcDbSymbolTableRecord
100
AcDbLinetypeTableRecord
  2
CENTERX2
 70
0
  3
Center (2x) ________  __  ________  __  _____
 72
65
 73
4
 40
20.319999999999997
 49
12.699999999999999
 74
0
 49
-2.54
 74
0
 49
2.54
 74
0
 49
-2.54
 74
0
  0
LTYPE
  5
3F
100
AcDbSymbolTableRecord
100
AcDbLinetypeTableRecord
  2
BORDER2
 70
0
  3
Border (.5x) __.__.__.__.__.__.__.__.__.__.__.
 72
65
 73
6
 40
22.224999999999998
 49
6.3499999999999996
 74
0
 49
-3.1749999999999998
 74
0
 49
6.3499999999999996
 74
0
 49
-3.1749999999999998
 74
0
 49
0.0
 74
0
 49
-3.1749999999999998
 74
0
  0
LTYPE
  5
40
100
AcDbSymbolTableRecord
100
AcDbLinetypeTableRecord
  2
DASHDOT2
 70
0
  3
Dash dot (.5x) _._._._._._._._._._._._._._._.
 72
65
 73
4
 40
12.699999999999999
 49
6.3499999999999996
 74
0
 49
-3.1749999999999998
 74
0
 49
0.0
 74
0
 49
-3.1749999999999998
 74
0
  0
LTYPE
  5
41
100
AcDbSymbolTableRecord
100
AcDbLinetypeTableRecord
  2
ACAD_ISO12W100
 70
0
  3
ISO dash double-dot __ . . __ . . __ . . __ . . 
 72
65
 73
6
 40
21.0
 49
12.0
 74
0
 49
-3.0
 74
0
 49
0.0
 74
0
 49
-3.0
 74
0
 49
0.0
 74
0
 49
-3.0
 74
0
  0
LTYPE
  5
42
100
AcDbSymbolTableRecord
100
AcDbLinetypeTableRecord
  2
ACAD_ISO07W100
 70
0
  3
ISO dot . . . . . . . . . . . . . . . . . . . . 
 72
65
 73
2
 40
3.0
 49
0.0
 74
0
 49
-3.0
 74
0
  0
LTYPE
  5
43
100
AcDbSymbolTableRecord
100
AcDbLinetypeTableRecord
  2
ACAD_ISO06W100
 70
0
  3
ISO long-dash triple-dot ____ ... ____ ... ____
 72
65
 73
8
 40
36.0
 49
24.0
 74
0
 49
-3.0
 74
0
 49
0.0
 74
0
 49
-3.0
 74
0
 49
0.0
 74
0
 49
-3.0
 74
0
 49
0.0
 74
0
 49
-3.0
 74
0
  0
LTYPE
  5
44
100
AcDbSymbolTableRecord
100
AcDbLinetypeTableRecord
  2
CENTER
 70
0
  3
Center ____ _ ____ _ ____ _ ____ _ ____ _ ____
 72
65
 73
4
 40
10.159999999999998
 49
6.3499999999999996
 74
0
 49
-1.27
 74
0
 49
1.27
 74
0
 49
-1.27
 74
0
  0
LTYPE
  5
45
100
AcDbSymbolTableRecord
100
AcDbLinetypeTableRecord
  2
HIDDEN
 70
0
  3
Hidden __ __ __ __ __ __ __ __ __ __ __ __ __ __
 72
65
 73
2
 40
1.905
 49
1.27
 74
0
 49
-0.635
 74
0
  0
LTYPE
  5
46
100
AcDbSymbolTableRecord
100
AcDbLinetypeTableRecord
  2
DOTX2
 70
0
  3
Dot (2x) .  .  .  .  .  .  .  .  .  .  .  .  .  .
 72
65
 73
2
 40
12.699999999999999
 49
0.0
 74
0
 49
-12.699999999999999
 74
0
  0
LTYPE
  5
47
100
AcDbSymbolTableRecord
100
AcDbLinetypeTableRecord
  2
PHANTOM
 70
0
  3
Phantom ______  __  __  ______  __  __  ______
 72
65
 73
6
 40
12.699999999999998
 49
6.3499999999999996
 74
0
 49
-1.27
 74
0
 49
1.27
 74
0
 49
-1.27
 74
0
 49
1.27
 74
0
 49
-1.27
 74
0
  0
LTYPE
  5
48
100
AcDbSymbolTableRecord
100
AcDbLinetypeTableRecord
  2
ACAD_ISO08W100
 70
0
  3
ISO long-dash short-dash ____ __ ____ __ ____ _
 72
65
 73
4
 40
36.0
 49
24.0
 74
0
 49
-3.0
 74
0
 49
6.0
 74
0
 49
-3.0
 74
0
  0
LTYPE
  5
49
100
AcDbSymbolTableRecord
100
AcDbLinetypeTableRecord
  2
DASHEDX2
 70
0
  3
Dashed (2x) ____  ____  ____  ____  ____  ___
 72
65
 73
2
 40
38.099999999999994
 49
25.399999999999999
 74
0
 49
-12.699999999999999
 74
0
  0
LTYPE
  5
4A
100
AcDbSymbolTableRecord
100
AcDbLinetypeTableRecord
  2
DRAINAGE
 70
0
  3
Drainage ---->---->---->----
 72
65
 73
2
 40
10.16
 49
5.0800000000000001
 74
0
 49
5.0800000000000001
 74
0
  0
LTYPE
  5
4B
100
AcDbSymbolTableRecord
100
AcDbLinetypeTableRecord
  2
ACAD_ISO02W100
 70
0
  3
ISO dash __ __ __ __ __ __ __ __ __ __ __ __ __
 72
65
 73
2
 40
15.0
 49
12.0
 74
0
 49
-3.0
 74
0
  0
LTYPE
  5
4C
100
AcDbSymbolTableRecord
100
AcDbLinetypeTableRecord
  2
PHANTOM2
 70
0
  3
Phantom (.5x) ___ _ _ ___ _ _ ___ _ _ ___ _ _
 72
65
 73
6
 40
31.750000000000004
 49
15.875
 74
0
 49
-3.1749999999999998
 74
0
 49
3.1749999999999998
 74
0
 49
-3.1749999999999998
 74
0
 49
3.1749999999999998
 74
0
 49
-3.1749999999999998
 74
0
  0
LTYPE
  5
4D
100
AcDbSymbolTableRecord
100
AcDbLinetypeTableRecord
  2
DASHED2
 70
0
  3
Dashed (.5x) _ _ _ _ _ _ _ _ _ _ _ _ _ _ _ _ _ 
 72
65
 73
2
 40
9.5249999999999986
 49
6.3499999999999996
 74
0
 49
-3.1749999999999998
 74
0
  0
LTYPE
  5
4E
100
AcDbSymbolTableRecord
100
AcDbLinetypeTableRecord
  2
ACAD_ISO09W100
 70
0
  3
ISO long-dash double-short-dash ____ __ __ ____
 72
65
 73
6
 40
45.0
 49
24.0
 74
0
 49
-3.0
 74
0
 49
6.0
 74
0
 49
-3.0
 74
0
 49
6.0
 74
0
 49
-3.0
 74
0
  0
LTYPE
  5
4F
100
AcDbSymbolTableRecord
100
AcDbLinetypeTableRecord
  2
ACAD_ISO13W100
 70
0
  3
ISO double-dash double-dot __ __ . . __ __ . . _
 72
65
 73
8
 40
36.0
 49
12.0
 74
0
 49
-3.0
 74
0
 49
12.0
 74
0
 49
-3.0
 74
0
 49
0.0
 74
0
 49
-3.0
 74
0
 49
0.0
 74
0
 49
-3.0
 74
0
  0
LTYPE
  5
50
100
AcDbSymbolTableRecord
100
AcDbLinetypeTableRecord
  2
TRACKS
 70
0
  3
Tracks -|-|-|-|-|-|-|-|-|-|-|-|-|-|-|-|-|-|-|-|-|-|-|-|-
 72
65
 73
2
 40
7.6200000000000001
 49
3.8100000000000001
 74
0
 49
3.8100000000000001
 74
0
  0
LTYPE
  5
51
100
AcDbSymbolTableRecord
100
AcDbLinetypeTableRecord
  2
DRAINAGE2
 70
0
  3
Drainage reversed----<----<----<----
 72
65
 73
2
 40
10.16
 49
5.0800000000000001
 74
0
 49
5.0800000000000001
 74
0
  0
LTYPE
  5
52
100
AcDbSymbolTableRecord
100
AcDbLinetypeTableRecord
  2
DOT2
 70
0
  3
Dot (.5x) ........................................
 72
65
 73
2
 40
0.635
 49
0.1
 74
0
 49
-0.535
 74
0
  0
LTYPE
  5
53
100
AcDbSymbolTableRecord
100
AcDbLinetypeTableRecord
  2
ZIGZAG
 70
0
  3
Zig zag /\/\/\/\/\/\/\/\/\/\/\/\/\/\/\/\/\/\/\/\/\/\/\/
 72
65
 73
4
 40
20.32254
 49
0.00254
 74
0
 49
-5.0800000000000001
 74
0
 49
-10.16
 74
0
 49
-5.0800000000000001
 74
0
  0
LTYPE
  5
54
100
AcDbSymbolTableRecord
100
AcDbLinetypeTableRecord
  2
DASHED
 70
0
  3
Dashed __ __ __ __ __ __ __ __ __ __ __ __ __ _
 72
65
 73
2
 40
19.049999999999997
 49
12.699999999999999
 74
0
 49
-6.3499999999999996
 74
0
  0
LTYPE
  5
55
100
AcDbSymbolTableRecord
100
AcDbLinetypeTableRecord
  2
ACAD_ISO14W100
 70
0
  3
ISO dash triple-dot __ . . . __ . . . __ . . . _
 72
65
 73
8
 40
24.0
 49
12.0
 74
0
 49
-3.0
 74
0
 49
0.0
 74
0
 49
-3.0
 74
0
 49
0.0
 74
0
 49
-3.0
 74
0
 49
0.0
 74
0
 49
-3.0
 74
0
  0
LTYPE
  5
56
100
AcDbSymbolTableRecord
100
AcDbLinetypeTableRecord
  2
PHANTOMX2
 70
0
  3
Phantom (2x) ____________    ____    ____   _
 72
65
 73
6
 40
127.00000000000001
 49
63.5
 74
0
 49
-12.699999999999999
 74
0
 49
12.699999999999999
 74
0
 49
-12.699999999999999
 74
0
 49
12.699999999999999
 74
0
 49
-12.699999999999999
 74
0
  0
LTYPE
  5
57
100
AcDbSymbolTableRecord
100
AcDbLinetypeTableRecord
  2
DIVIDEX2
 70
0
  3
Divide (2x) ________  .  .  ________  .  .  _
 72
65
 73
6
 40
63.5
 49
25.399999999999999
 74
0
 49
-12.699999999999999
 74
0
 49
0.0
 74
0
 49
-12.699999999999999
 74
0
 49
0.0
 74
0
 49
-12.699999999999999
 74
0
  0
LTYPE
  5
58
100
AcDbSymbolTableRecord
100
AcDbLinetypeTableRecord
  2
BORDER
 70
0
  3
Border __ __ . __ __ . __ __ . __ __ . __ __ .
 72
65
 73
6
 40
44.449999999999996
 49
12.699999999999999
 74
0
 49
-6.3499999999999996
 74
0
 49
12.699999999999999
 74
0
 49
-6.3499999999999996
 74
0
 49
0.0
 74
0
 49
-6.3499999999999996
 74
0
  0
LTYPE
  5
59
100
AcDbSymbolTableRecord
100
AcDbLinetypeTableRecord
  2
DIVIDE2
 70
0
  3
Divide (.5x) __..__..__..__..__..__..__..__.._
 72
65
 73
6
 40
15.875
 49
6.3499999999999996
 74
0
 49
-3.1749999999999998
 74
0
 49
0.0
 74
0
 49
-3.1749999999999998
 74
0
 49
0.0
 74
0
 49
-3.1749999999999998
 74
0
  0
LTYPE
  5
5A
100
AcDbSymbolTableRecord
100
AcDbLinetypeTableRecord
  2
DOT
 70
0
  3
Dot . . . . . . . . . . . . . . . . . . . . . . . .
 72
65
 73
2
 40
6.3499999999999996
 49
0.0
 74
0
 49
-6.3499999999999996
 74
0
  0
LTYPE
  5
5B
100
AcDbSymbolTableRecord
100
AcDbLinetypeTableRecord
  2
DASHDOT
 70
0
  3
Dash dot __ . __ . __ . __ . __ . __ . __ . __
 72
65
 73
4
 40
25.399999999999999
 49
12.699999999999999
 74
0
 49
-6.3499999999999996
 74
0
 49
0.0
 74
0
 49
-6.3499999999999996
 74
0
  0
LTYPE
  5
5C
100
AcDbSymbolTableRecord
100
AcDbLinetypeTableRecord
  2
FENCELINE1
 70
0
  3
Fenceline circle ----0-----0----0-----0----0-----0--
 72
65
 73
4
 40
36.829999999999998
 49
6.3499999999999996
 74
0
 49
-2.54
 74
0
 49
-2.54
 74
0
 49
25.399999999999999
 74
0
  0
LTYPE
  5
5D
100
AcDbSymbolTableRecord
100
AcDbLinetypeTableRecord
  2
BATTING
 70
0
  3
Batting SSSSSSSSSSSSSSSSSSSSSSSSSSSSSSSSSSSSSSSSSSSSSSS
 72
65
 73
4
 40
10.16254
 49
0.00254
 74
0
 49
-2.54
 74
0
 49
-5.0800000000000001
 74
0
 49
-2.54
 74
0
  0
LTYPE
  5
5E
100
AcDbSymbolTableRecord
100
AcDbLinetypeTableRecord
  2
ACAD_ISO03W100
 70
0
  3
ISO dash space __    __    __    __    __    __
 72
65
 73
2
 40
30.0
 49
12.0
 74
0
 49
-18.0
 74
0
  0
LTYPE
  5
15
100
AcDbSymbolTableRecord
100
AcDbLinetypeTableRecord
  2
ByLayer
 70
0
  3

 72
65
 73
0
 40
0.0
  0
LTYPE
  5
5F
100
AcDbSymbolTableRecord
100
AcDbLinetypeTableRecord
  2
FENCELINE2
 70
0
  3
Fenceline square ----[]-----[]----[]-----[]----[]---
 72
65
 73
4
 40
36.829999999999998
 49
6.3499999999999996
 74
0
 49
-2.54
 74
0
 49
-2.54
 74
0
 49
25.399999999999999
 74
0
  0
ENDTAB
  0
TABLE
  2
LAYER
  5
2
100
AcDbSymbolTable
 70
1
  0
LAYER
  5
10
100
AcDbSymbolTableRecord
100
AcDbLayerTableRecord
  2
0
 70
0
 62
7
420
16777215
  6
Continuous
370
-3
390
F
  0
ENDTAB
  0
TABLE
  2
STYLE
  5
3
100
AcDbSymbolTable
 70
1
  0
STYLE
  5
60
100
AcDbSymbolTableRecord
100
AcDbTextStyleTableRecord
  2
Standard
 70
0
 40
0.0
 41
1.0
 50
0.0
 71
0
 42
2.5
  3

  4

1001
ACAD
1000
txt
1071
0
  0
ENDTAB
  0
TABLE
  2
VIEW
  5
6
100
AcDbSymbolTable
 70
0
  0
ENDTAB
  0
TABLE
  2
UCS
  5
7
100
AcDbSymbolTable
 70
0
  0
ENDTAB
  0
TABLE
  2
APPID
  5
9
100
AcDbSymbolTable
 70
1
  0
APPID
  5
12
100
AcDbSymbolTableRecord
100
AcDbRegAppTableRecord
  2
ACAD
 70
0
  0
APPID
  5
61
100
AcDbSymbolTableRecord
100
AcDbRegAppTableRecord
  2
QCAD
 70
0
  0
ENDTAB
  0
TABLE
  2
DIMSTYLE
  5
A
100
AcDbSymbolTable
 70
1
100
AcDbDimStyleTable
 71
0
  0
DIMSTYLE
105
27
100
AcDbSymbolTableRecord
100
AcDbDimStyleTableRecord
  2
Standard
 41
3.556
 42
1.0
 43
3.75
 44
1.0
 70
0
 73
0
 74
0
 77
1
 78
8
140
3.5
141
2.5
143
0.03937007874016
147
1.524
171
3
172
1
271
2
272
2
274
3
278
44
283
0
284
8
340
60
  0
ENDTAB
  0
TABLE
  2
BLOCK_RECORD
  5
1
100
AcDbSymbolTable
 70
1
  0
BLOCK_RECORD
  5
1F
100
AcDbSymbolTableRecord
100
AcDbBlockTableRecord
  2
*Model_Space
340
22
  0
BLOCK_RECORD
  5
1B
100
AcDbSymbolTableRecord
100
AcDbBlockTableRecord
  2
*Paper_Space
340
1E
  0
BLOCK_RECORD
  5
23
100
AcDbSymbolTableRecord
100
AcDbBlockTableRecord
  2
*Paper_Space0
340
26
  0
ENDTAB
  0
ENDSEC
  0
SECTION
  2
BLOCKS
  0
BLOCK
  5
20
100
AcDbEntity
  8
0
100
AcDbBlockBegin
  2
*Model_Space
 70
0
 10
0.0
 20
0.0
 30
0.0
  3
*Model_Space
  1

  0
ENDBLK
  5
21
100
AcDbEntity
  8
0
100
AcDbBlockEnd
  0
BLOCK
  5
1C
100
AcDbEntity
 67
1
  8
0
100
AcDbBlockBegin
  2
*Paper_Space
 70
0
 10
0.0
 20
0.0
 30
0.0
  3
*Paper_Space
  1

  0
ENDBLK
  5
1D
100
AcDbEntity
 67
1
  8
0
100
AcDbBlockEnd
  0
BLOCK
  5
24
100
AcDbEntity
  8
0
100
AcDbBlockBegin
  2
*Paper_Space0
 70
0
 10
0.0
 20
0.0
 30
0.0
  3
*Paper_Space0
  1

  0
ENDBLK
  5
25
100
AcDbEntity
  8
0
100
AcDbBlockEnd
  0
ENDSEC
  0
SECTION
  2
ENTITIES
  0
CIRCLE
  5
62
100
AcDbEntity
100
AcDbCircle
  8
0
 62
7
420
16777215
370
25
 48
1.0
  6
Continuous
 10
98.890525556
 20
-155.6980963659
 30
0.0
 40
0.4676406066489446
  0
CIRCLE
  5
63
100
AcDbEntity
100
AcDbCircle
  8
0
 62
7
420
16777215
370
25
 48
1.0
  6
Continuous
 10
92.890525556
 20
-155.6980963659
 30
0.0
 40
0.5000000000000249
  0
CIRCLE
  5
64
100
AcDbEntity
100
AcDbCircle
  8
0
 62
7
420
16777215
370
25
 48
1.0
  6
Continuous
 10
104.97552555599999
 20
-155.6980963659
 30
0.0
 40
2.00000000000002
  0
CIRCLE
  5
65
100
AcDbEntity
100
AcDbCircle
  8
0
 62
7
420
16777215
370
25
 48
1.0
  6
Continuous
 10
131.5776237911
 20
-161.8676281166
 30
0.0
 40
0.4676406066488994
  0
CIRCLE
  5
66
100
AcDbEntity
100
AcDbCircle
  8
0
 62
7
420
16777215
370
25
 48
1.0
  6
Continuous
 10
133.82482838639999
 20
-156.21278094740001
 30
0.0
 40
2.0
  0
CIRCLE
  5
67
100
AcDbEntity
100
AcDbCircle
  8
0
 62
7
420
16777215
370
25
 48
1.0
  6
Continuous
 10
129.36180989269999
 20
-167.44348399419999
 30
0.0
 40
0.5
  0
CIRCLE
  5
68
100
AcDbEntity
100
AcDbCircle
  8
0
 62
7
420
16777215
370
25
 48
1.0
  6
Continuous
 10
89.076907575299998
 20
-89.032550644200001
 30
0.0
 40
8.0000000000072191
  0
CIRCLE
  5
69
100
AcDbEntity
100
AcDbCircle
  8
0
 62
7
420
16777215
370
25
 48
1.0
  6
Continuous
 10
114.5769075753
 20
-89.032550644200001
 30
0.0
 40
8.0000000000071765
  0
CIRCLE
  5
6A
100
AcDbEntity
100
AcDbCircle
  8
0
 62
7
420
16777215
370
25
 48
1.0
  6
Continuous
 10
101.8269075754
 20
-109.0325506442
 30
0.0
 40
6.0000000000000426
  0
CIRCLE
  5
6B
100
AcDbEntity
100
AcDbCircle
  8
0
 62
7
420
16777215
370
25
 48
1.0
  6
Continuous
 10
7.2743630133000003
 20
-105.9805617506
 30
0.0
 40
1.2999999999999969
  0
CIRCLE
  5
6C
100
AcDbEntity
100
AcDbCircle
  8
0
 62
7
420
16777215
370
25
 48
1.0
  6
Continuous
 10
6.0043630132999999
 20
-154.24056175059999
 30
0.0
 40
1.2999999999999829
  0
CIRCLE
  5
6D
100
AcDbEntity
100
AcDbCircle
  8
0
 62
7
420
16777215
370
25
 48
1.0
  6
Continuous
 10
58.074363013300001
 20
-121.2205617506
 30
0.0
 40
1.2999999999999969
  0
CIRCLE
  5
6E
100
AcDbEntity
100
AcDbCircle
  8
0
 62
7
420
16777215
370
25
 48
1.0
  6
Continuous
 10
58.074363013300001
 20
-149.16056175060001
 30
0.0
 40
1.3000000000000109
  0
CIRCLE
  5
6F
100
AcDbEntity
100
AcDbCircle
  8
0
 62
7
420
16777215
370
25
 48
1.0
  6
Continuous
 10
36.104363013300002
 20
-52.789447815099997
 30
0.0
 40
0.4999999999999929
  0
CIRCLE
  5
70
100
AcDbEntity
100
AcDbCircle
  8
0
 62
7
420
16777215
370
25
 48
1.0
  6
Continuous
 10
8.8043630132999997
 20
-52.789447815099997
 30
0.0
 40
0.4999999999999982
  0
CIRCLE
  5
71
100
AcDbEntity
100
AcDbCircle
  8
0
 62
7
420
16777215
370
25
 48
1.0
  6
Continuous
 10
4.2043630133000001
 20
-49.389447815099999
 30
0.0
 40
0.5000000000000036
  0
CIRCLE
  5
72
100
AcDbEntity
100
AcDbCircle
  8
0
 62
7
420
16777215
370
25
 48
1.0
  6
Continuous
 10
31.504363013300001
 20
-49.389447815099999
 30
0.0
 40
0.5000000000000071
  0
CIRCLE
  5
73
100
AcDbEntity
100
AcDbCircle
  8
0
 62
7
420
16777215
370
25
 48
1.0
  6
Continuous
 10
67.804363013300005
 20
-49.389447815099999
 30
0.0
 40
0.5000000000000142
  0
CIRCLE
  5
74
100
AcDbEntity
100
AcDbCircle
  8
0
 62
7
420
16777215
370
25
 48
1.0
  6
Continuous
 10
40.504363013300001
 20
-49.389447815099999
 30
0.0
 40
0.5000000000000071
  0
CIRCLE
  5
75
100
AcDbEntity
100
AcDbCircle
  8
0
 62
7
420
16777215
370
25
 48
1.0
  6
Continuous
 10
45.104363013300002
 20
-52.789447815099997
 30
0.0
 40
0.4999999999999929
  0
CIRCLE
  5
76
100
AcDbEntity
100
AcDbCircle
  8
0
 62
7
420
16777215
370
25
 48
1.0
  6
Continuous
 10
72.404363013299999
 20
-52.789447815099997
 30
0.0
 40
0.5
  0
CIRCLE
  5
77
100
AcDbEntity
100
AcDbCircle
  8
0
 62
7
420
16777215
370
25
 48
1.0
  6
Continuous
 10
104.99858782699999
 20
-164.6980963659
 30
0.0
 40
0.4676406066489314
  0
CIRCLE
  5
78
100
AcDbEntity
100
AcDbCircle
  8
0
 62
7
420
16777215
370
25
 48
1.0
  6
Continuous
 10
98.998587826999994
 20
-164.6980963659
 30
0.0
 40
0.4999999999999852
  0
CIRCLE
  5
79
100
AcDbEntity
100
AcDbCircle
  8
0
 62
7
420
16777215
370
25
 48
1.0
  6
Continuous
 10
111.083587827
 20
-164.6980963659
 30
0.0
 40
2.00000000000002
  0
CIRCLE
  5
7A
100
AcDbEntity
100
AcDbCircle
  8
0
 62
7
420
16777215
370
25
 48
1.0
  6
Continuous
 10
125.4695615201
 20
-152.8676281166
 30
0.0
 40
0.4676406066488994
  0
CIRCLE
  5
7B
100
AcDbEntity
100
AcDbCircle
  8
0
 62
7
420
16777215
370
25
 48
1.0
  6
Continuous
 10
127.71676611540001
 20
-147.21278094740001
 30
0.0
 40
2.0
  0
CIRCLE
  5
7C
100
AcDbEntity
100
AcDbCircle
  8
0
 62
7
420
16777215
370
25
 48
1.0
  6
Continuous
 10
123.2537476217
 20
-158.44348399419999
 30
0.0
 40
0.4999999999999716
  0
LINE
  5
7D
100
AcDbEntity
100
AcDbLine
  8
0
 62
7
420
16777215
370
25
 48
1.0
  6
Continuous
 10
81.565577448499994
 20
-160.1980963659
 30
0.0
 11
111.083587827
 21
-160.1980963659
 31
0.0
  0
LINE
  5
7E
100
AcDbEntity
100
AcDbLine
  8
0
 62
7
420
16777215
370
25
 48
1.0
  6
Continuous
 10
68.430533376100001
 20
-188.12758739130001
 30
0.0
 11
78.777649509699998
 21
-162.09018941670001
 31
0.0
  0
LINE
  5
7F
100
AcDbEntity
100
AcDbLine
  8
0
 62
7
420
16777215
370
25
 48
1.0
  6
Continuous
 10
62.3224711051
 20
-179.12758739130001
 30
0.0
 11
72.293633647899995
 21
-154.03623594210001
 31
0.0
  0
LINE
  5
80
100
AcDbEntity
100
AcDbLine
  8
0
 62
7
420
16777215
370
25
 48
1.0
  6
Continuous
 10
76.475525555999994
 20
-151.1980963659
 30
0.0
 11
104.97552555599999
 21
-151.1980963659
 31
0.0
  0
LINE
  5
81
100
AcDbEntity
100
AcDbLine
  8
0
 62
7
420
16777215
370
25
 48
1.0
  6
Continuous
 10
127.48160427720001
 20
-184.35995678969999
 30
0.0
 11
138.0067202946
 21
-157.8746413712
 31
0.0
  0
LINE
  5
82
100
AcDbEntity
100
AcDbLine
  8
0
 62
7
420
16777215
370
25
 48
1.0
  6
Continuous
 10
96.299712369000005
 20
-187.1980963659
 30
0.0
 11
123.29971236900001
 21
-187.1980963659
 31
0.0
  0
LINE
  5
83
100
AcDbEntity
100
AcDbLine
  8
0
 62
7
420
16777215
370
25
 48
1.0
  6
Continuous
 10
90.191650097999997
 20
-178.1980963659
 30
0.0
 11
118.20966047650001
 21
-178.1980963659
 31
0.0
  0
LINE
  5
84
100
AcDbEntity
100
AcDbLine
  8
0
 62
7
420
16777215
370
25
 48
1.0
  6
Continuous
 10
120.9975884153
 20
-176.30600331510001
 30
0.0
 11
131.89865802360001
 21
-148.8746413712
 31
0.0
  0
LINE
  5
85
100
AcDbEntity
100
AcDbLine
  8
0
 62
7
420
16777215
370
25
 48
1.0
  6
Continuous
 10
109.2419710848
 20
-122.1052779716
 30
0.0
 11
104.9118440659
 21
-119.6052779715
 31
0.0
  0
LINE
  5
86
100
AcDbEntity
100
AcDbLine
  8
0
 62
7
420
16777215
370
25
 48
1.0
  6
Continuous
 10
104.9118440659
 20
-119.6052779715
 30
0.0
 11
102.4118440659
 21
-123.9354049904
 31
0.0
  0
LINE
  5
87
100
AcDbEntity
100
AcDbLine
  8
0
 62
7
420
16777215
370
25
 48
1.0
  6
Continuous
 10
102.4118440659
 20
-123.9354049904
 30
0.0
 11
106.7419710849
 21
-126.4354049905
 31
0.0
  0
LINE
  5
88
100
AcDbEntity
100
AcDbLine
  8
0
 62
7
420
16777215
370
25
 48
1.0
  6
Continuous
 10
106.7419710849
 20
-126.4354049905
 30
0.0
 11
109.2419710848
 21
-122.1052779716
 31
0.0
  0
LINE
  5
89
100
AcDbEntity
100
AcDbLine
  8
0
 62
7
420
16777215
370
25
 48
1.0
  6
Continuous
 10
96.911844065899999
 20
-126.4354049905
 30
0.0
 11
101.2419710849
 21
-123.9354049904
 31
0.0
  0
LINE
  5
8A
100
AcDbEntity
100
AcDbLine
  8
0
 62
7
420
16777215
370
25
 48
1.0
  6
Continuous
 10
101.2419710849
 20
-123.9354049904
 30
0.0
 11
98.741971084900001
 21
-119.6052779715
 31
0.0
  0
LINE
  5
8B
100
AcDbEntity
100
AcDbLine
  8
0
 62
7
420
16777215
370
25
 48
1.0
  6
Continuous
 10
98.741971084900001
 20
-119.6052779715
 30
0.0
 11
94.411844065899999
 21
-122.1052779716
 31
0.0
  0
LINE
  5
8C
100
AcDbEntity
100
AcDbLine
  8
0
 62
7
420
16777215
370
25
 48
1.0
  6
Continuous
 10
94.411844065899999
 20
-122.1052779716
 30
0.0
 11
96.911844065899999
 21
-126.4354049905
 31
0.0
  0
LINE
  5
8D
100
AcDbEntity
100
AcDbLine
  8
0
 62
7
420
16777215
370
25
 48
1.0
  6
Continuous
 10
107.3269075754
 20
-127.4485447113
 30
0.0
 11
107.3269075754
 21
-132.4485447113
 31
0.0
  0
LINE
  5
8E
100
AcDbEntity
100
AcDbLine
  8
0
 62
7
420
16777215
370
25
 48
1.0
  6
Continuous
 10
107.3269075754
 20
-132.4485447113
 30
0.0
 11
112.3269075754
 21
-132.4485447113
 31
0.0
  0
LINE
  5
8F
100
AcDbEntity
100
AcDbLine
  8
0
 62
7
420
16777215
370
25
 48
1.0
  6
Continuous
 10
112.3269075754
 20
-132.4485447113
 30
0.0
 11
112.3269075754
 21
-127.4485447113
 31
0.0
  0
LINE
  5
90
100
AcDbEntity
100
AcDbLine
  8
0
 62
7
420
16777215
370
25
 48
1.0
  6
Continuous
 10
112.3269075754
 20
-127.4485447113
 30
0.0
 11
107.3269075754
 21
-127.4485447113
 31
0.0
  0
LINE
  5
91
100
AcDbEntity
100
AcDbLine
  8
0
 62
7
420
16777215
370
25
 48
1.0
  6
Continuous
 10
94.411844065899999
 20
-137.791811451
 30
0.0
 11
98.741971084900001
 21
-140.29181145109999
 31
0.0
  0
LINE
  5
92
100
AcDbEntity
100
AcDbLine
  8
0
 62
7
420
16777215
370
25
 48
1.0
  6
Continuous
 10
98.741971084900001
 20
-140.29181145109999
 30
0.0
 11
101.2419710848
 21
-135.9616844322
 31
0.0
  0
LINE
  5
93
100
AcDbEntity
100
AcDbLine
  8
0
 62
7
420
16777215
370
25
 48
1.0
  6
Continuous
 10
101.2419710848
 20
-135.9616844322
 30
0.0
 11
96.911844065899999
 21
-133.46168443209999
 31
0.0
  0
LINE
  5
94
100
AcDbEntity
100
AcDbLine
  8
0
 62
7
420
16777215
370
25
 48
1.0
  6
Continuous
 10
96.911844065899999
 20
-133.46168443209999
 30
0.0
 11
94.411844065899999
 21
-137.791811451
 31
0.0
  0
LINE
  5
95
100
AcDbEntity
100
AcDbLine
  8
0
 62
7
420
16777215
370
25
 48
1.0
  6
Continuous
 10
106.7419710849
 20
-133.46168443209999
 30
0.0
 11
102.4118440659
 21
-135.9616844322
 31
0.0
  0
LINE
  5
96
100
AcDbEntity
100
AcDbLine
  8
0
 62
7
420
16777215
370
25
 48
1.0
  6
Continuous
 10
102.4118440659
 20
-135.9616844322
 30
0.0
 11
104.9118440659
 21
-140.29181145109999
 31
0.0
  0
LINE
  5
97
100
AcDbEntity
100
AcDbLine
  8
0
 62
7
420
16777215
370
25
 48
1.0
  6
Continuous
 10
104.9118440659
 20
-140.29181145109999
 30
0.0
 11
109.2419710849
 21
-137.791811451
 31
0.0
  0
LINE
  5
98
100
AcDbEntity
100
AcDbLine
  8
0
 62
7
420
16777215
370
25
 48
1.0
  6
Continuous
 10
109.2419710849
 20
-137.791811451
 30
0.0
 11
106.7419710849
 21
-133.46168443209999
 31
0.0
  0
LINE
  5
99
100
AcDbEntity
100
AcDbLine
  8
0
 62
7
420
16777215
370
25
 48
1.0
  6
Continuous
 10
91.3269075754
 20
-127.4485447113
 30
0.0
 11
91.3269075754
 21
-132.4485447113
 31
0.0
  0
LINE
  5
9A
100
AcDbEntity
100
AcDbLine
  8
0
 62
7
420
16777215
370
25
 48
1.0
  6
Continuous
 10
91.3269075754
 20
-132.4485447113
 30
0.0
 11
96.3269075754
 21
-132.4485447113
 31
0.0
  0
LINE
  5
9B
100
AcDbEntity
100
AcDbLine
  8
0
 62
7
420
16777215
370
25
 48
1.0
  6
Continuous
 10
96.3269075754
 20
-132.4485447113
 30
0.0
 11
96.3269075754
 21
-127.4485447113
 31
0.0
  0
LINE
  5
9C
100
AcDbEntity
100
AcDbLine
  8
0
 62
7
420
16777215
370
25
 48
1.0
  6
Continuous
 10
96.3269075754
 20
-127.4485447113
 30
0.0
 11
91.3269075754
 21
-127.4485447113
 31
0.0
  0
LINE
  5
9D
100
AcDbEntity
100
AcDbLine
  8
0
 62
7
420
16777215
370
25
 48
1.0
  6
Continuous
 10
99.3269075754
 20
-127.4485447113
 30
0.0
 11
99.3269075754
 21
-132.4485447113
 31
0.0
  0
LINE
  5
9E
100
AcDbEntity
100
AcDbLine
  8
0
 62
7
420
16777215
370
25
 48
1.0
  6
Continuous
 10
99.3269075754
 20
-132.4485447113
 30
0.0
 11
104.3269075754
 21
-132.4485447113
 31
0.0
  0
LINE
  5
9F
100
AcDbEntity
100
AcDbLine
  8
0
 62
7
420
16777215
370
25
 48
1.0
  6
Continuous
 10
104.3269075754
 20
-132.4485447113
 30
0.0
 11
104.3269075754
 21
-127.4485447113
 31
0.0
  0
LINE
  5
A0
100
AcDbEntity
100
AcDbLine
  8
0
 62
7
420
16777215
370
25
 48
1.0
  6
Continuous
 10
104.3269075754
 20
-127.4485447113
 30
0.0
 11
99.3269075754
 21
-127.4485447113
 31
0.0
  0
LINE
  5
A1
100
AcDbEntity
100
AcDbLine
  8
0
 62
7
420
16777215
370
25
 48
1.0
  6
Continuous
 10
136.14086506370001
 20
-101.7379986041
 30
0.0
 11
138.50739983790001
 21
-94.868144745500004
 31
0.0
  0
LINE
  5
A2
100
AcDbEntity
100
AcDbLine
  8
0
 62
7
420
16777215
370
25
 48
1.0
  6
Continuous
 10
140.33707784960001
 20
-108.2354788385
 30
0.0
 11
136.14086506370001
 21
-101.7379986041
 31
0.0
  0
LINE
  5
A3
100
AcDbEntity
100
AcDbLine
  8
0
 62
7
420
16777215
370
25
 48
1.0
  6
Continuous
 10
136.14086506370001
 20
-115.5997696331
 30
0.0
 11
140.33707784960001
 21
-108.2354788385
 31
0.0
  0
LINE
  5
A4
100
AcDbEntity
100
AcDbLine
  8
0
 62
7
420
16777215
370
25
 48
1.0
  6
Continuous
 10
140.00252583080001
 20
-117.8001648561
 30
0.0
 11
136.14086506370001
 21
-115.5997696331
 31
0.0
  0
LINE
  5
A5
100
AcDbEntity
100
AcDbLine
  8
0
 62
7
420
16777215
370
25
 48
1.0
  6
Continuous
 10
133.66942882910001
 20
-128.91465554819999
 30
0.0
 11
140.00252583080001
 21
-117.8001648561
 31
0.0
  0
LINE
  5
A6
100
AcDbEntity
100
AcDbLine
  8
0
 62
7
420
16777215
370
25
 48
1.0
  6
Continuous
 10
136.41566109359999
 20
-133.46168443209999
 30
0.0
 11
133.66942882910001
 21
-128.91465554819999
 31
0.0
  0
LINE
  5
A7
100
AcDbEntity
100
AcDbLine
  8
0
 62
7
420
16777215
370
25
 48
1.0
  6
Continuous
 10
120.8269075753
 20
-146.55762570510001
 30
0.0
 11
120.8269075753
 21
-143.55762570510001
 31
0.0
  0
LINE
  5
A8
100
AcDbEntity
100
AcDbLine
  8
0
 62
7
420
16777215
370
25
 48
1.0
  6
Continuous
 10
110.8269075754
 20
-146.55762570510001
 30
0.0
 11
120.8269075753
 21
-146.55762570510001
 31
0.0
  0
LINE
  5
A9
100
AcDbEntity
100
AcDbLine
  8
0
 62
7
420
16777215
370
25
 48
1.0
  6
Continuous
 10
110.8269075754
 20
-143.55762570510001
 30
0.0
 11
110.8269075754
 21
-146.55762570510001
 31
0.0
  0
LINE
  5
AA
100
AcDbEntity
100
AcDbLine
  8
0
 62
7
420
16777215
370
25
 48
1.0
  6
Continuous
 10
92.826907575299998
 20
-143.55762570510001
 30
0.0
 11
110.8269075754
 21
-143.55762570510001
 31
0.0
  0
LINE
  5
AB
100
AcDbEntity
100
AcDbLine
  8
0
 62
7
420
16777215
370
25
 48
1.0
  6
Continuous
 10
92.8269075754
 20
-146.55762570510001
 30
0.0
 11
92.826907575299998
 21
-143.55762570510001
 31
0.0
  0
LINE
  5
AC
100
AcDbEntity
100
AcDbLine
  8
0
 62
7
420
16777215
370
25
 48
1.0
  6
Continuous
 10
69.984386321499997
 20
-128.91465554819999
 30
0.0
 11
67.238154057000003
 21
-133.46168443209999
 31
0.0
  0
LINE
  5
AD
100
AcDbEntity
100
AcDbLine
  8
0
 62
7
420
16777215
370
25
 48
1.0
  6
Continuous
 10
63.651289319900002
 20
-117.8001648561
 30
0.0
 11
69.984386321499997
 21
-128.91465554819999
 31
0.0
  0
LINE
  5
AE
100
AcDbEntity
100
AcDbLine
  8
0
 62
7
420
16777215
370
25
 48
1.0
  6
Continuous
 10
67.512950086900005
 20
-115.5997696331
 30
0.0
 11
63.651289319900002
 21
-117.8001648561
 31
0.0
  0
LINE
  5
AF
100
AcDbEntity
100
AcDbLine
  8
0
 62
7
420
16777215
370
25
 48
1.0
  6
Continuous
 10
63.316737301099998
 20
-108.2354788385
 30
0.0
 11
67.512950086900005
 21
-115.5997696331
 31
0.0
  0
LINE
  5
B0
100
AcDbEntity
100
AcDbLine
  8
0
 62
7
420
16777215
370
25
 48
1.0
  6
Continuous
 10
67.512950086900005
 20
-101.7379986041
 30
0.0
 11
63.316737301099998
 21
-108.2354788385
 31
0.0
  0
LINE
  5
B1
100
AcDbEntity
100
AcDbLine
  8
0
 62
7
420
16777215
370
25
 48
1.0
  6
Continuous
 10
65.146415312800002
 20
-94.868144745500004
 30
0.0
 11
67.512950086900005
 21
-101.7379986041
 31
0.0
  0
LINE
  5
B2
100
AcDbEntity
100
AcDbLine
  8
0
 62
7
420
16777215
370
25
 48
1.0
  6
Continuous
 10
82.8269075754
 20
-146.55762570510001
 30
0.0
 11
92.8269075754
 21
-146.55762570510001
 31
0.0
  0
LINE
  5
B3
100
AcDbEntity
100
AcDbLine
  8
0
 62
7
420
16777215
370
25
 48
1.0
  6
Continuous
 10
82.8269075754
 20
-143.55762570510001
 30
0.0
 11
82.8269075754
 21
-146.55762570510001
 31
0.0
  0
LINE
  5
B4
100
AcDbEntity
100
AcDbLine
  8
0
 62
7
420
16777215
370
25
 48
1.0
  6
Continuous
 10
54.704363013299997
 20
-189.8894478151
 30
0.0
 11
57.704363013299997
 21
-189.8894478151
 31
0.0
  0
LINE
  5
B5
100
AcDbEntity
100
AcDbLine
  8
0
 62
7
420
16777215
370
25
 48
1.0
  6
Continuous
 10
57.704363013299997
 20
-189.8894478151
 30
0.0
 11
57.704363013299997
 21
-185.2894478151
 31
0.0
  0
LINE
  5
B6
100
AcDbEntity
100
AcDbLine
  8
0
 62
7
420
16777215
370
25
 48
1.0
  6
Continuous
 10
57.704363013299997
 20
-185.2894478151
 30
0.0
 11
54.704363013299997
 21
-185.2894478151
 31
0.0
  0
LINE
  5
B7
100
AcDbEntity
100
AcDbLine
  8
0
 62
7
420
16777215
370
25
 48
1.0
  6
Continuous
 10
54.704363013299997
 20
-185.2894478151
 30
0.0
 11
54.704363013299997
 21
-189.8894478151
 31
0.0
  0
LINE
  5
B8
100
AcDbEntity
100
AcDbLine
  8
0
 62
7
420
16777215
370
25
 48
1.0
  6
Continuous
 10
57.704363013299997
 20
-158.18944781510001
 30
0.0
 11
54.704363013299997
 21
-158.18944781510001
 31
0.0
  0
LINE
  5
B9
100
AcDbEntity
100
AcDbLine
  8
0
 62
7
420
16777215
370
25
 48
1.0
  6
Continuous
 10
54.704363013299997
 20
-158.18944781510001
 30
0.0
 11
54.704363013299997
 21
-162.7894478151
 31
0.0
  0
LINE
  5
BA
100
AcDbEntity
100
AcDbLine
  8
0
 62
7
420
16777215
370
25
 48
1.0
  6
Continuous
 10
54.704363013299997
 20
-162.7894478151
 30
0.0
 11
57.704363013299997
 21
-162.7894478151
 31
0.0
  0
LINE
  5
BB
100
AcDbEntity
100
AcDbLine
  8
0
 62
7
420
16777215
370
25
 48
1.0
  6
Continuous
 10
57.704363013299997
 20
-162.7894478151
 30
0.0
 11
57.704363013299997
 21
-158.18944781510001
 31
0.0
  0
LINE
  5
BC
100
AcDbEntity
100
AcDbLine
  8
0
 62
7
420
16777215
370
25
 48
1.0
  6
Continuous
 10
6.3043630132999997
 20
-185.2894478151
 30
0.0
 11
6.3043630132999997
 21
-189.8894478151
 31
0.0
  0
LINE
  5
BD
100
AcDbEntity
100
AcDbLine
  8
0
 62
7
420
16777215
370
25
 48
1.0
  6
Continuous
 10
6.3043630132999997
 20
-189.8894478151
 30
0.0
 11
9.3043630132999997
 21
-189.8894478151
 31
0.0
  0
LINE
  5
BE
100
AcDbEntity
100
AcDbLine
  8
0
 62
7
420
16777215
370
25
 48
1.0
  6
Continuous
 10
9.3043630132999997
 20
-189.8894478151
 30
0.0
 11
9.3043630132999997
 21
-185.2894478151
 31
0.0
  0
LINE
  5
BF
100
AcDbEntity
100
AcDbLine
  8
0
 62
7
420
16777215
370
25
 48
1.0
  6
Continuous
 10
9.3043630132999997
 20
-185.2894478151
 30
0.0
 11
6.3043630132999997
 21
-185.2894478151
 31
0.0
  0
LINE
  5
C0
100
AcDbEntity
100
AcDbLine
  8
0
 62
7
420
16777215
370
25
 48
1.0
  6
Continuous
 10
6.3043630132999997
 20
-158.18944781510001
 30
0.0
 11
6.3043630132999997
 21
-162.7894478151
 31
0.0
  0
LINE
  5
C1
100
AcDbEntity
100
AcDbLine
  8
0
 62
7
420
16777215
370
25
 48
1.0
  6
Continuous
 10
6.3043630132999997
 20
-162.7894478151
 30
0.0
 11
9.3043630132999997
 21
-162.7894478151
 31
0.0
  0
LINE
  5
C2
100
AcDbEntity
100
AcDbLine
  8
0
 62
7
420
16777215
370
25
 48
1.0
  6
Continuous
 10
9.3043630132999997
 20
-162.7894478151
 30
0.0
 11
9.3043630132999997
 21
-158.18944781510001
 31
0.0
  0
LINE
  5
C3
100
AcDbEntity
100
AcDbLine
  8
0
 62
7
420
16777215
370
25
 48
1.0
  6
Continuous
 10
9.3043630132999997
 20
-158.18944781510001
 30
0.0
 11
6.3043630132999997
 21
-158.18944781510001
 31
0.0
  0
LINE
  5
C4
100
AcDbEntity
100
AcDbLine
  8
0
 62
7
420
16777215
370
25
 48
1.0
  6
Continuous
 10
57.704363013299997
 20
-74.289447815100004
 30
0.0
 11
57.704363013299997
 21
-69.689447815099996
 31
0.0
  0
LINE
  5
C5
100
AcDbEntity
100
AcDbLine
  8
0
 62
7
420
16777215
370
25
 48
1.0
  6
Continuous
 10
57.704363013299997
 20
-69.689447815099996
 30
0.0
 11
54.704363013299997
 21
-69.689447815099996
 31
0.0
  0
LINE
  5
C6
100
AcDbEntity
100
AcDbLine
  8
0
 62
7
420
16777215
370
25
 48
1.0
  6
Continuous
 10
54.704363013299997
 20
-69.689447815099996
 30
0.0
 11
54.704363013299997
 21
-74.289447815100004
 31
0.0
  0
LINE
  5
C7
100
AcDbEntity
100
AcDbLine
  8
0
 62
7
420
16777215
370
25
 48
1.0
  6
Continuous
 10
54.704363013299997
 20
-74.289447815100004
 30
0.0
 11
57.704363013299997
 21
-74.289447815100004
 31
0.0
  0
LINE
  5
C8
100
AcDbEntity
100
AcDbLine
  8
0
 62
7
420
16777215
370
25
 48
1.0
  6
Continuous
 10
54.704363013299997
 20
-101.3894478151
 30
0.0
 11
57.704363013299997
 21
-101.3894478151
 31
0.0
  0
LINE
  5
C9
100
AcDbEntity
100
AcDbLine
  8
0
 62
7
420
16777215
370
25
 48
1.0
  6
Continuous
 10
57.704363013299997
 20
-101.3894478151
 30
0.0
 11
57.704363013299997
 21
-96.789447815100004
 31
0.0
  0
LINE
  5
CA
100
AcDbEntity
100
AcDbLine
  8
0
 62
7
420
16777215
370
25
 48
1.0
  6
Continuous
 10
57.704363013299997
 20
-96.789447815100004
 30
0.0
 11
54.704363013299997
 21
-96.789447815100004
 31
0.0
  0
LINE
  5
CB
100
AcDbEntity
100
AcDbLine
  8
0
 62
7
420
16777215
370
25
 48
1.0
  6
Continuous
 10
54.704363013299997
 20
-96.789447815100004
 30
0.0
 11
54.704363013299997
 21
-101.3894478151
 31
0.0
  0
LINE
  5
CC
100
AcDbEntity
100
AcDbLine
  8
0
 62
7
420
16777215
370
25
 48
1.0
  6
Continuous
 10
6.3043630132999997
 20
-96.789447815100004
 30
0.0
 11
6.3043630132999997
 21
-101.3894478151
 31
0.0
  0
LINE
  5
CD
100
AcDbEntity
100
AcDbLine
  8
0
 62
7
420
16777215
370
25
 48
1.0
  6
Continuous
 10
6.3043630132999997
 20
-101.3894478151
 30
0.0
 11
9.3043630132999997
 21
-101.3894478151
 31
0.0
  0
LINE
  5
CE
100
AcDbEntity
100
AcDbLine
  8
0
 62
7
420
16777215
370
25
 48
1.0
  6
Continuous
 10
9.3043630132999997
 20
-101.3894478151
 30
0.0
 11
9.3043630132999997
 21
-96.789447815100004
 31
0.0
  0
LINE
  5
CF
100
AcDbEntity
100
AcDbLine
  8
0
 62
7
420
16777215
370
25
 48
1.0
  6
Continuous
 10
9.3043630132999997
 20
-96.789447815100004
 30
0.0
 11
6.3043630132999997
 21
-96.789447815100004
 31
0.0
  0
LINE
  5
D0
100
AcDbEntity
100
AcDbLine
  8
0
 62
7
420
16777215
370
25
 48
1.0
  6
Continuous
 10
6.3043630132999997
 20
-69.689447815099996
 30
0.0
 11
6.3043630132999997
 21
-74.289447815100004
 31
0.0
  0
LINE
  5
D1
100
AcDbEntity
100
AcDbLine
  8
0
 62
7
420
16777215
370
25
 48
1.0
  6
Continuous
 10
6.3043630132999997
 20
-74.289447815100004
 30
0.0
 11
9.3043630132999997
 21
-74.289447815100004
 31
0.0
  0
LINE
  5
D2
100
AcDbEntity
100
AcDbLine
  8
0
 62
7
420
16777215
370
25
 48
1.0
  6
Continuous
 10
9.3043630132999997
 20
-74.289447815100004
 30
0.0
 11
9.3043630132999997
 21
-69.689447815099996
 31
0.0
  0
LINE
  5
D3
100
AcDbEntity
100
AcDbLine
  8
0
 62
7
420
16777215
370
25
 48
1.0
  6
Continuous
 10
9.3043630132999997
 20
-69.689447815099996
 30
0.0
 11
6.3043630132999997
 21
-69.689447815099996
 31
0.0
  0
LINE
  5
D4
100
AcDbEntity
100
AcDbLine
  8
0
 62
7
420
16777215
370
25
 48
1.0
  6
Continuous
 10
41.004363013300001
 20
-65.289447815100004
 30
0.0
 11
41.004363013300001
 21
-68.289447815100004
 31
0.0
  0
LINE
  5
D5
100
AcDbEntity
100
AcDbLine
  8
0
 62
7
420
16777215
370
25
 48
1.0
  6
Continuous
 10
41.004363013300001
 20
-68.289447815100004
 30
0.0
 11
51.004363013300001
 21
-68.289447815100004
 31
0.0
  0
LINE
  5
D6
100
AcDbEntity
100
AcDbLine
  8
0
 62
7
420
16777215
370
25
 48
1.0
  6
Continuous
 10
51.004363013300001
 20
-68.289447815100004
 30
0.0
 11
51.004363013300001
 21
-65.289447815100004
 31
0.0
  0
LINE
  5
D7
100
AcDbEntity
100
AcDbLine
  8
0
 62
7
420
16777215
370
25
 48
1.0
  6
Continuous
 10
51.004363013300001
 20
-65.289447815100004
 30
0.0
 11
41.004363013300001
 21
-65.289447815100004
 31
0.0
  0
LINE
  5
D8
100
AcDbEntity
100
AcDbLine
  8
0
 62
7
420
16777215
370
25
 48
1.0
  6
Continuous
 10
23.004363013300001
 20
-65.289447815100004
 30
0.0
 11
13.004363013300001
 21
-65.289447815100004
 31
0.0
  0
LINE
  5
D9
100
AcDbEntity
100
AcDbLine
  8
0
 62
7
420
16777215
370
25
 48
1.0
  6
Continuous
 10
13.004363013300001
 20
-65.289447815100004
 30
0.0
 11
13.004363013300001
 21
-68.289447815100004
 31
0.0
  0
LINE
  5
DA
100
AcDbEntity
100
AcDbLine
  8
0
 62
7
420
16777215
370
25
 48
1.0
  6
Continuous
 10
13.004363013300001
 20
-68.289447815100004
 30
0.0
 11
23.004363013300001
 21
-68.289447815100004
 31
0.0
  0
LINE
  5
DB
100
AcDbEntity
100
AcDbLine
  8
0
 62
7
420
16777215
370
25
 48
1.0
  6
Continuous
 10
23.004363013300001
 20
-68.289447815100004
 30
0.0
 11
23.004363013300001
 21
-65.289447815100004
 31
0.0
  0
LINE
  5
DC
100
AcDbEntity
100
AcDbLine
  8
0
 62
7
420
16777215
370
25
 48
1.0
  6
Continuous
 10
74.604363013300002
 20
-61.289447815099997
 30
0.0
 11
6.6043630133000004
 21
-61.289447815099997
 31
0.0
  0
LINE
  5
DD
100
AcDbEntity
100
AcDbLine
  8
0
 62
7
420
16777215
370
25
 48
1.0
  6
Continuous
 10
62.004363013300001
 20
-189.2894478151
 30
0.0
 11
62.004363013300001
 21
-66.289447815100004
 31
0.0
  0
LINE
  5
DE
100
AcDbEntity
100
AcDbLine
  8
0
 62
7
420
16777215
370
25
 48
1.0
  6
Continuous
 10
2.0043630132999999
 20
-66.289447815100004
 30
0.0
 11
2.0043630132999999
 21
-189.2894478151
 31
0.0
  0
LINE
  5
DF
100
AcDbEntity
100
AcDbLine
  8
0
 62
7
420
16777215
370
25
 48
1.0
  6
Continuous
 10
7.0043630132999999
 20
-194.2894478151
 30
0.0
 11
57.004363013300001
 21
-194.2894478151
 31
0.0
  0
LINE
  5
E0
100
AcDbEntity
100
AcDbLine
  8
0
 62
7
420
16777215
370
25
 48
1.0
  6
Continuous
 10
6.6043630133000004
 20
-43.889447815099999
 30
0.0
 11
29.104363013299999
 21
-43.889447815099999
 31
0.0
  0
LINE
  5
E1
100
AcDbEntity
100
AcDbLine
  8
0
 62
7
420
16777215
370
25
 48
1.0
  6
Continuous
 10
11.2043630133
 20
-58.289447815099997
 30
0.0
 11
11.2043630133
 21
-43.889447815099999
 31
0.0
  0
LINE
  5
E2
100
AcDbEntity
100
AcDbLine
  8
0
 62
7
420
16777215
370
25
 48
1.0
  6
Continuous
 10
33.704363013299997
 20
-58.289447815099997
 30
0.0
 11
11.2043630133
 21
-58.289447815099997
 31
0.0
  0
LINE
  5
E3
100
AcDbEntity
100
AcDbLine
  8
0
 62
7
420
16777215
370
25
 48
1.0
  6
Continuous
 10
33.704363013299997
 20
-58.289447815099997
 30
0.0
 11
33.704363013299997
 21
-40.889447815099999
 31
0.0
  0
LINE
  5
E4
100
AcDbEntity
100
AcDbLine
  8
0
 62
7
420
16777215
370
25
 48
1.0
  6
Continuous
 10
38.304363013299998
 20
-43.889447815099999
 30
0.0
 11
33.704363013299997
 21
-43.889447815099999
 31
0.0
  0
LINE
  5
E5
100
AcDbEntity
100
AcDbLine
  8
0
 62
7
420
16777215
370
25
 48
1.0
  6
Continuous
 10
38.304363013299998
 20
-40.889447815099999
 30
0.0
 11
38.304363013299998
 21
-61.289447815099997
 31
0.0
  0
LINE
  5
E6
100
AcDbEntity
100
AcDbLine
  8
0
 62
7
420
16777215
370
25
 48
1.0
  6
Continuous
 10
6.6043630133000004
 20
-43.889447815099999
 30
0.0
 11
6.6043630133000004
 21
-61.289447815099997
 31
0.0
  0
LINE
  5
E7
100
AcDbEntity
100
AcDbLine
  8
0
 62
7
420
16777215
370
25
 48
1.0
  6
Continuous
 10
2.0043630132999999
 20
-58.289447815099997
 30
0.0
 11
6.6043630133000004
 21
-58.289447815099997
 31
0.0
  0
LINE
  5
E8
100
AcDbEntity
100
AcDbLine
  8
0
 62
7
420
16777215
370
25
 48
1.0
  6
Continuous
 10
2.0043630132999999
 20
-40.889447815099999
 30
0.0
 11
2.0043630132999999
 21
-58.289447815099997
 31
0.0
  0
LINE
  5
E9
100
AcDbEntity
100
AcDbLine
  8
0
 62
7
420
16777215
370
25
 48
1.0
  6
Continuous
 10
29.104363013299999
 20
-43.889447815099999
 30
0.0
 11
29.104363013299999
 21
-58.289447815099997
 31
0.0
  0
LINE
  5
EA
100
AcDbEntity
100
AcDbLine
  8
0
 62
7
420
16777215
370
25
 48
1.0
  6
Continuous
 10
33.704363013299997
 20
-40.889447815099999
 30
0.0
 11
2.0043630132999999
 21
-40.889447815099999
 31
0.0
  0
LINE
  5
EB
100
AcDbEntity
100
AcDbLine
  8
0
 62
7
420
16777215
370
25
 48
1.0
  6
Continuous
 10
70.004363013299994
 20
-40.889447815099999
 30
0.0
 11
38.304363013299998
 21
-40.889447815099999
 31
0.0
  0
LINE
  5
EC
100
AcDbEntity
100
AcDbLine
  8
0
 62
7
420
16777215
370
25
 48
1.0
  6
Continuous
 10
47.504363013300001
 20
-58.289447815099997
 30
0.0
 11
70.004363013299994
 21
-58.289447815099997
 31
0.0
  0
LINE
  5
ED
100
AcDbEntity
100
AcDbLine
  8
0
 62
7
420
16777215
370
25
 48
1.0
  6
Continuous
 10
65.404363013299999
 20
-43.889447815099999
 30
0.0
 11
65.404363013299999
 21
-58.289447815099997
 31
0.0
  0
LINE
  5
EE
100
AcDbEntity
100
AcDbLine
  8
0
 62
7
420
16777215
370
25
 48
1.0
  6
Continuous
 10
38.304363013299998
 20
-58.289447815099997
 30
0.0
 11
42.904363013299999
 21
-58.289447815099997
 31
0.0
  0
LINE
  5
EF
100
AcDbEntity
100
AcDbLine
  8
0
 62
7
420
16777215
370
25
 48
1.0
  6
Continuous
 10
42.904363013299999
 20
-43.889447815099999
 30
0.0
 11
65.404363013299999
 21
-43.889447815099999
 31
0.0
  0
LINE
  5
F0
100
AcDbEntity
100
AcDbLine
  8
0
 62
7
420
16777215
370
25
 48
1.0
  6
Continuous
 10
70.004363013299994
 20
-58.289447815099997
 30
0.0
 11
70.004363013299994
 21
-40.889447815099999
 31
0.0
  0
LINE
  5
F1
100
AcDbEntity
100
AcDbLine
  8
0
 62
7
420
16777215
370
25
 48
1.0
  6
Continuous
 10
42.904363013299999
 20
-61.289447815099997
 30
0.0
 11
42.904363013299999
 21
-43.889447815099999
 31
0.0
  0
LINE
  5
F2
100
AcDbEntity
100
AcDbLine
  8
0
 62
7
420
16777215
370
25
 48
1.0
  6
Continuous
 10
47.504363013300001
 20
-43.889447815099999
 30
0.0
 11
47.504363013300001
 21
-58.289447815099997
 31
0.0
  0
LINE
  5
F3
100
AcDbEntity
100
AcDbLine
  8
0
 62
7
420
16777215
370
25
 48
1.0
  6
Continuous
 10
70.004363013299994
 20
-43.889447815099999
 30
0.0
 11
74.604363013300002
 21
-43.889447815099999
 31
0.0
  0
LINE
  5
F4
100
AcDbEntity
100
AcDbLine
  8
0
 62
7
420
16777215
370
25
 48
1.0
  6
Continuous
 10
74.604363013300002
 20
-43.889447815099999
 30
0.0
 11
74.604363013300002
 21
-61.289447815099997
 31
0.0
  0
LINE
  5
F5
100
AcDbEntity
100
AcDbLine
  8
0
 62
7
420
16777215
370
25
 48
1.0
  6
Continuous
 10
112.1015982055
 20
-169.1980963659
 30
0.0
 11
87.673639719500002
 21
-169.1980963659
 31
0.0
  0
LINE
  5
F6
100
AcDbEntity
100
AcDbLine
  8
0
 62
7
420
16777215
370
25
 48
1.0
  6
Continuous
 10
84.885711780700007
 20
-171.09018941670001
 30
0.0
 11
76.794317192400001
 21
-191.4513082389
 31
0.0
  0
LINE
  5
F7
100
AcDbEntity
100
AcDbLine
  8
0
 62
7
420
16777215
370
25
 48
1.0
  6
Continuous
 10
123.53487420720001
 20
-145.55092052360001
 30
0.0
 11
114.88952614430001
 21
-167.30600331510001
 31
0.0
  0
ARC
  5
F8
100
AcDbEntity
  8
0
 62
7
420
16777215
370
25
 48
1.0
  6
Continuous
100
AcDbCircle
 10
81.565577448499994
 20
-163.1980963659
 30
0.0
 40
2.9999999999999152
100
AcDbArc
 50
90.0
 51
158.3274042315
  0
ARC
  5
F9
100
AcDbEntity
  8
0
 62
7
420
16777215
370
25
 48
1.0
  6
Continuous
100
AcDbCircle
 10
76.475525555999994
 20
-155.6980963659
 30
0.0
 40
4.5000000000001421
100
AcDbArc
 50
90.0
 51
158.3274042315
  0
ARC
  5
FA
100
AcDbEntity
  8
0
 62
7
420
16777215
370
25
 48
1.0
  6
Continuous
100
AcDbCircle
 10
104.97552555599999
 20
-155.6980963659
 30
0.0
 40
4.5000000000000284
100
AcDbArc
 50
270.0
 51
90.0
  0
ARC
  5
FB
100
AcDbEntity
  8
0
 62
7
420
16777215
370
25
 48
1.0
  6
Continuous
100
AcDbCircle
 10
66.504363013299994
 20
-180.7894478151
 30
0.0
 40
4.4999999999999938
100
AcDbArc
 50
158.3274042315
 51
338.3274042315
  0
ARC
  5
FC
100
AcDbEntity
  8
0
 62
7
420
16777215
370
25
 48
1.0
  6
Continuous
100
AcDbCircle
 10
123.29971236900001
 20
-182.6980963659
 30
0.0
 40
4.5000000000000524
100
AcDbArc
 50
270.0
 51
338.3274042315
  0
ARC
  5
FD
100
AcDbEntity
  8
0
 62
7
420
16777215
370
25
 48
1.0
  6
Continuous
100
AcDbCircle
 10
96.299712369000005
 20
-182.6980963659
 30
0.0
 40
4.5000000000000284
100
AcDbArc
 50
90.0
 51
270.0
  0
ARC
  5
FE
100
AcDbEntity
  8
0
 62
7
420
16777215
370
25
 48
1.0
  6
Continuous
100
AcDbCircle
 10
118.20966047650001
 20
-175.1980963659
 30
0.0
 40
2.9999999999999831
100
AcDbArc
 50
270.0
 51
338.3274042315
  0
ARC
  5
FF
100
AcDbEntity
  8
0
 62
7
420
16777215
370
25
 48
1.0
  6
Continuous
100
AcDbCircle
 10
133.82482838639999
 20
-156.21278094740001
 30
0.0
 40
4.5000000000000151
100
AcDbArc
 50
338.3274042315
 51
158.3274042315
  0
ARC
  5
100
100
AcDbEntity
  8
0
 62
7
420
16777215
370
25
 48
1.0
  6
Continuous
100
AcDbCircle
 10
63.494726477699999
 20
-85.462868699500007
 30
0.0
 40
12.597732975228549
100
AcDbArc
 50
30.302787765900007
 51
76.684395290799998
  0
ARC
  5
101
100
AcDbEntity
  8
0
 62
7
420
16777215
370
25
 48
1.0
  6
Continuous
100
AcDbCircle
 10
87.635049261099994
 20
-77.230167478799999
 30
0.0
 40
21.617157921222869
100
AcDbArc
 50
169.26554701900002
 51
207.27729173009999
  0
ARC
  5
102
100
AcDbEntity
  8
0
 62
7
420
16777215
370
25
 48
1.0
  6
Continuous
100
AcDbCircle
 10
85.593300898999999
 20
-93.639319706999999
 30
0.0
 40
18.361353360549369
100
AcDbArc
 50
127.67473620059999
 51
159.26066587540001
  0
ARC
  5
103
100
AcDbEntity
  8
0
 62
7
420
16777215
370
25
 48
1.0
  6
Continuous
100
AcDbCircle
 10
140.15908867300001
 20
-85.462868699500007
 30
0.0
 40
12.597732975228469
100
AcDbArc
 50
103.31560470919999
 51
149.69721223409999
  0
ARC
  5
104
100
AcDbEntity
  8
0
 62
7
420
16777215
370
25
 48
1.0
  6
Continuous
100
AcDbCircle
 10
118.0605142517
 20
-93.639319706999999
 30
0.0
 40
18.361353360549181
100
AcDbArc
 50
20.739334124599999
 51
52.325263799399998
  0
ARC
  5
105
100
AcDbEntity
  8
0
 62
7
420
16777215
370
25
 48
1.0
  6
Continuous
100
AcDbCircle
 10
116.0187658896
 20
-77.230167478799999
 30
0.0
 40
21.617157921223001
100
AcDbArc
 50
332.72270827
 51
10.734452981
  0
ARC
  5
106
100
AcDbEntity
  8
0
 62
7
420
16777215
370
25
 48
1.0
  6
Continuous
100
AcDbCircle
 10
121.8485767813
 20
-128.05217855960001
 30
0.0
 40
15.539070086322599
100
AcDbArc
 50
266.23017399290001
 51
339.62745486099999
  0
ARC
  5
107
100
AcDbEntity
  8
0
 62
7
420
16777215
370
25
 48
1.0
  6
Continuous
100
AcDbCircle
 10
81.805238369400001
 20
-128.05217855960001
 30
0.0
 40
15.539070086320921
100
AcDbArc
 50
200.37254513900004
 51
273.76982600709999
  0
ARC
  5
108
100
AcDbEntity
  8
0
 62
7
420
16777215
370
25
 48
1.0
  6
Continuous
100
AcDbCircle
 10
124.4747945515
 20
-75.305470248299997
 30
0.0
 40
62.470431538230862
100
AcDbArc
 50
169.8031789634
 51
198.24922389490004
  0
ARC
  5
109
100
AcDbEntity
  8
0
 62
7
420
16777215
370
25
 48
1.0
  6
Continuous
100
AcDbCircle
 10
52.569443766100001
 20
-101.7379986041
 30
0.0
 40
38.913183768407997
100
AcDbArc
 50
44.573222796700001
 51
74.465592240500001
  0
ARC
  5
10A
100
AcDbEntity
  8
0
 62
7
420
16777215
370
25
 48
1.0
  6
Continuous
100
AcDbCircle
 10
101.8269075753
 20
-132.82404233739999
 30
0.0
 40
62.241212821730052
100
AcDbArc
 50
69.755149563200007
 51
110.24485043679999
  0
ARC
  5
10B
100
AcDbEntity
  8
0
 62
7
420
16777215
370
25
 48
1.0
  6
Continuous
100
AcDbCircle
 10
151.08437138459999
 20
-101.7379986041
 30
0.0
 40
38.913183768408317
100
AcDbArc
 50
105.5344077595
 51
135.42677720329999
  0
ARC
  5
10C
100
AcDbEntity
  8
0
 62
7
420
16777215
370
25
 48
1.0
  6
Continuous
100
AcDbCircle
 10
79.179020599200001
 20
-75.305470248299997
 30
0.0
 40
62.470431538231757
100
AcDbArc
 50
341.75077610509999
 51
10.196821036599999
  0
ARC
  5
10D
100
AcDbEntity
  8
0
 62
7
420
16777215
370
25
 48
1.0
  6
Continuous
100
AcDbCircle
 10
7.0043630132999999
 20
-66.289447815100004
 30
0.0
 40
5.0000000000000071
100
AcDbArc
 50
90.0
 51
180.0
  0
ARC
  5
10E
100
AcDbEntity
  8
0
 62
7
420
16777215
370
25
 48
1.0
  6
Continuous
100
AcDbCircle
 10
57.004363013300001
 20
-66.289447815100004
 30
0.0
 40
5.0
100
AcDbArc
 50
0.0
 51
90.0
  0
ARC
  5
10F
100
AcDbEntity
  8
0
 62
7
420
16777215
370
25
 48
1.0
  6
Continuous
100
AcDbCircle
 10
57.004363013300001
 20
-189.2894478151
 30
0.0
 40
5.0000000000000924
100
AcDbArc
 50
270.0
 51
0.0
  0
ARC
  5
110
100
AcDbEntity
  8
0
 62
7
420
16777215
370
25
 48
1.0
  6
Continuous
100
AcDbCircle
 10
7.0043630132999999
 20
-189.2894478151
 30
0.0
 40
4.9999999999998659
100
AcDbArc
 50
180.0
 51
270.0
  0
ARC
  5
111
100
AcDbEntity
  8
0
 62
7
420
16777215
370
25
 48
1.0
  6
Continuous
100
AcDbCircle
 10
87.673639719500002
 20
-172.1980963659
 30
0.0
 40
3.0000000000000302
100
AcDbArc
 50
90.0
 51
158.3274042315
  0
ARC
  5
112
100
AcDbEntity
  8
0
 62
7
420
16777215
370
25
 48
1.0
  6
Continuous
100
AcDbCircle
 10
82.583587827000002
 20
-164.6980963659
 30
0.0
 40
4.5000000000000018
100
AcDbArc
 50
90.0
 51
158.3274042315
  0
ARC
  5
113
100
AcDbEntity
  8
0
 62
7
420
16777215
370
25
 48
1.0
  6
Continuous
100
AcDbCircle
 10
111.083587827
 20
-164.6980963659
 30
0.0
 40
4.5
100
AcDbArc
 50
270.0
 51
90.0
  0
ARC
  5
114
100
AcDbEntity
  8
0
 62
7
420
16777215
370
25
 48
1.0
  6
Continuous
100
AcDbCircle
 10
72.6124252842
 20
-189.7894478151
 30
0.0
 40
4.4999999999999956
100
AcDbArc
 50
158.3274042315
 51
338.3274042315
  0
ARC
  5
115
100
AcDbEntity
  8
0
 62
7
420
16777215
370
25
 48
1.0
  6
Continuous
100
AcDbCircle
 10
117.191650098
 20
-173.6980963659
 30
0.0
 40
4.5
100
AcDbArc
 50
270.0
 51
338.3274042315
  0
ARC
  5
116
100
AcDbEntity
  8
0
 62
7
420
16777215
370
25
 48
1.0
  6
Continuous
100
AcDbCircle
 10
90.191650097999997
 20
-173.6980963659
 30
0.0
 40
4.4999999999999716
100
AcDbArc
 50
90.0
 51
270.0
  0
ARC
  5
117
100
AcDbEntity
  8
0
 62
7
420
16777215
370
25
 48
1.0
  6
Continuous
100
AcDbCircle
 10
112.1015982055
 20
-166.1980963659
 30
0.0
 40
2.999999999999972
100
AcDbArc
 50
270.0
 51
338.3274042315
  0
ARC
  5
118
100
AcDbEntity
  8
0
 62
7
420
16777215
370
25
 48
1.0
  6
Continuous
100
AcDbCircle
 10
127.71676611540001
 20
-147.21278094740001
 30
0.0
 40
4.4999999999999991
100
AcDbArc
 50
338.3274042315
 51
158.3274042315
  0
ENDSEC
  0
SECTION
  2
OBJECTS
  0
DICTIONARY
  5
C
100
AcDbDictionary
280
0
281
1
  3
ACAD_GROUP
350
D
  3
ACAD_LAYOUT
350
1A
  3
ACAD_MLINESTYLE
350
17
  3
ACAD_PLOTSETTINGS
350
19
  3
ACAD_PLOTSTYLENAME
350
E
  3
AcDbVariableDictionary
350
119
  3
QCAD_OBJECTS
350
11A
  0
DICTIONARY
  5
D
100
AcDbDictionary
280
0
281
1
  0
ACDBDICTIONARYWDFLT
  5
E
100
AcDbDictionary
281
1
  3
Normal
350
F
100
AcDbDictionaryWithDefault
340
F
  0
ACDBPLACEHOLDER
  5
F
  0
DICTIONARY
  5
17
100
AcDbDictionary
280
0
281
1
  3
Standard
350
18
  0
MLINESTYLE
  5
18
100
AcDbMlineStyle
  2
STANDARD
 70
0
  3

 62
256
 51
90.0
 52
90.0
 71
2
 49
0.5
 62
256
  6
BYLAYER
 49
-0.5
 62
256
  6
BYLAYER
  0
DICTIONARY
  5
19
100
AcDbDictionary
280
0
281
1
  0
DICTIONARY
  5
1A
100
AcDbDictionary
281
1
  3
Layout1
350
1E
  3
Layout2
350
26
  3
Model
350
22
  0
LAYOUT
  5
1E
100
AcDbPlotSettings
  1

  2
none_device
  4

  6

 40
0.0
 41
0.0
 42
0.0
 43
0.0
 44
0.0
 45
0.0
 46
0.0
 47
0.0
 48
0.0
 49
0.0
140
0.0
141
0.0
142
1.0
143
1.0
 70
688
 72
0
 73
0
 74
5
  7

 75
16
147
1.0
148
0.0
149
0.0
100
AcDbLayout
  1
Layout1
 70
1
 71
1
 10
0.0
 20
0.0
 11
420.0
 21
297.0
 12
0.0
 22
0.0
 32
0.0
 14
100000000000000000000.0
 24
100000000000000000000.0
 34
100000000000000000000.0
 15
-100000000000000000000.0
 25
-100000000000000000000.0
 35
-100000000000000000000.0
146
0.0
 13
0.0
 23
0.0
 33
0.0
 16
1.0
 26
0.0
 36
0.0
 17
0.0
 27
1.0
 37
0.0
 76
0
330
1B
  0
LAYOUT
  5
22
100
AcDbPlotSettings
  1

  2
none_device
  4

  6

 40
0.0
 41
0.0
 42
0.0
 43
0.0
 44
0.0
 45
0.0
 46
0.0
 47
0.0
 48
0.0
 49
0.0
140
0.0
141
0.0
142
1.0
143
1.0
 70
1712
 72
0
 73
0
 74
0
  7

 75
0
147
1.0
148
0.0
149
0.0
100
AcDbLayout
  1
Model
 70
1
 71
0
 10
0.0
 20
0.0
 11
12.0
 21
9.0
 12
0.0
 22
0.0
 32
0.0
 14
0.0
 24
0.0
 34
0.0
 15
0.0
 25
0.0
 35
0.0
146
0.0
 13
0.0
 23
0.0
 33
0.0
 16
1.0
 26
0.0
 36
0.0
 17
0.0
 27
1.0
 37
0.0
 76
0
330
1F
  0
LAYOUT
  5
26
100
AcDbPlotSettings
  1

  2
none_device
  4

  6

 40
0.0
 41
0.0
 42
0.0
 43
0.0
 44
0.0
 45
0.0
 46
0.0
 47
0.0
 48
0.0
 49
0.0
140
0.0
141
0.0
142
1.0
143
1.0
 70
688
 72
0
 73
0
 74
5
  7

 75
16
147
1.0
148
0.0
149
0.0
100
AcDbLayout
  1
Layout2
 70
1
 71
2
 10
0.0
 20
0.0
 11
12.0
 21
9.0
 12
0.0
 22
0.0
 32
0.0
 14
0.0
 24
0.0
 34
0.0
 15
0.0
 25
0.0
 35
0.0
146
0.0
 13
0.0
 23
0.0
 33
0.0
 16
1.0
 26
0.0
 36
0.0
 17
0.0
 27
1.0
 37
0.0
 76
0
330
23
  0
DICTIONARY
  5
119
100
AcDbDictionary
281
1
  3
DIMASSOC
350
11C
  3
HIDETEXT
350
11B
  0
DICTIONARYVAR
  5
11B
100
DictionaryVariables
280
0
  1
2
  0
DICTIONARYVAR
  5
11C
100
DictionaryVariables
280
0
  1
1
  0
DICTIONARY
  5
11A
100
AcDbDictionary
281
1
  3
ColorSettings/BackgroundColor
350
11D
  3
ColorSettings/ColorMode
350
11E
  3
Grid/DisplayGrid00
350
11F
  3
Grid/DisplayGrid01
350
120
  3
Grid/DisplayGrid02
350
121
  3
Grid/DisplayGrid03
350
122
  3
Grid/GridSpacingX00
350
123
  3
Grid/GridSpacingX01
350
124
  3
Grid/GridSpacingX02
350
125
  3
Grid/GridSpacingX03
350
126
  3
Grid/GridSpacingY00
350
127
  3
Grid/GridSpacingY01
350
128
  3
Grid/GridSpacingY02
350
129
  3
Grid/GridSpacingY03
350
12A
  3
Grid/IsometricGrid00
350
12B
  3
Grid/IsometricGrid01
350
12C
  3
Grid/IsometricGrid02
350
12D
  3
Grid/IsometricGrid03
350
12E
  3
Grid/IsometricProjection00
350
12F
  3
Grid/IsometricProjection01
350
130
  3
Grid/IsometricProjection02
350
131
  3
Grid/IsometricProjection03
350
132
  3
Grid/MetaGridSpacingX00
350
133
  3
Grid/MetaGridSpacingX01
350
134
  3
Grid/MetaGridSpacingX02
350
135
  3
Grid/MetaGridSpacingX03
350
136
  3
Grid/MetaGridSpacingY00
350
137
  3
Grid/MetaGridSpacingY01
350
138
  3
Grid/MetaGridSpacingY02
350
139
  3
Grid/MetaGridSpacingY03
350
13A
  3
MultiPageSettings/Columns
350
13B
  3
MultiPageSettings/GlueMarginsBottom
350
13C
  3
MultiPageSettings/GlueMarginsLeft
350
13D
  3
MultiPageSettings/GlueMarginsRight
350
13E
  3
MultiPageSettings/GlueMarginsTop
350
13F
  3
MultiPageSettings/PrintCropMarks
350
140
  3
MultiPageSettings/Rows
350
141
  3
PageSettings/OffsetX
350
142
  3
PageSettings/OffsetY
350
143
  3
PageSettings/PageOrientation
350
144
  3
PageSettings/PaperHeight
350
145
  3
PageSettings/PaperWidth
350
146
  3
PageSettings/Scale
350
147
  3
PageSettings/ShowPaperBorders
350
148
  3
UnitSettings/PaperUnit
350
149
  3
ViewportCenter
350
14A
  3
ViewportHeight
350
14B
  3
ViewportWidth
350
14C
  0
XRECORD
  5
11D
330
11A
100
AcDbXrecord
280
1
1000
Blanca
  0
XRECORD
  5
11E
330
11A
100
AcDbXrecord
280
1
1000
FullColor
  0
XRECORD
  5
11F
330
11A
100
AcDbXrecord
280
1
290
1
  0
XRECORD
  5
120
330
11A
100
AcDbXrecord
280
1
290
1
  0
XRECORD
  5
121
330
11A
100
AcDbXrecord
280
1
290
1
  0
XRECORD
  5
122
330
11A
100
AcDbXrecord
280
1
290
1
  0
XRECORD
  5
123
330
11A
100
AcDbXrecord
280
1
1000
auto
  0
XRECORD
  5
124
330
11A
100
AcDbXrecord
280
1
1000
auto
  0
XRECORD
  5
125
330
11A
100
AcDbXrecord
280
1
1000
auto
  0
XRECORD
  5
126
330
11A
100
AcDbXrecord
280
1
1000
auto
  0
XRECORD
  5
127
330
11A
100
AcDbXrecord
280
1
1000
auto
  0
XRECORD
  5
128
330
11A
100
AcDbXrecord
280
1
1000
auto
  0
XRECORD
  5
129
330
11A
100
AcDbXrecord
280
1
1000
auto
  0
XRECORD
  5
12A
330
11A
100
AcDbXrecord
280
1
1000
auto
  0
XRECORD
  5
12B
330
11A
100
AcDbXrecord
280
1
290
0
  0
XRECORD
  5
12C
330
11A
100
AcDbXrecord
280
1
290
0
  0
XRECORD
  5
12D
330
11A
100
AcDbXrecord
280
1
290
0
  0
XRECORD
  5
12E
330
11A
100
AcDbXrecord
280
1
290
0
  0
XRECORD
  5
12F
330
11A
100
AcDbXrecord
280
1
 90
0
  0
XRECORD
  5
130
330
11A
100
AcDbXrecord
280
1
 90
0
  0
XRECORD
  5
131
330
11A
100
AcDbXrecord
280
1
 90
0
  0
XRECORD
  5
132
330
11A
100
AcDbXrecord
280
1
 90
0
  0
XRECORD
  5
133
330
11A
100
AcDbXrecord
280
1
1000
auto
  0
XRECORD
  5
134
330
11A
100
AcDbXrecord
280
1
1000
auto
  0
XRECORD
  5
135
330
11A
100
AcDbXrecord
280
1
1000
auto
  0
XRECORD
  5
136
330
11A
100
AcDbXrecord
280
1
1000
auto
  0
XRECORD
  5
137
330
11A
100
AcDbXrecord
280
1
1000
auto
  0
XRECORD
  5
138
330
11A
100
AcDbXrecord
280
1
1000
auto
  0
XRECORD
  5
139
330
11A
100
AcDbXrecord
280
1
1000
auto
  0
XRECORD
  5
13A
330
11A
100
AcDbXrecord
280
1
1000
auto
  0
XRECORD
  5
13B
330
11A
100
AcDbXrecord
280
1
 90
1
  0
XRECORD
  5
13C
330
11A
100
AcDbXrecord
280
1
 40
10.0
  0
XRECORD
  5
13D
330
11A
100
AcDbXrecord
280
1
 40
10.0
  0
XRECORD
  5
13E
330
11A
100
AcDbXrecord
280
1
 40
10.0
  0
XRECORD
  5
13F
330
11A
100
AcDbXrecord
280
1
 40
10.0
  0
XRECORD
  5
140
330
11A
100
AcDbXrecord
280
1
290
0
  0
XRECORD
  5
141
330
11A
100
AcDbXrecord
280
1
 90
1
  0
XRECORD
  5
142
330
11A
100
AcDbXrecord
280
1
 40
0.0
  0
XRECORD
  5
143
330
11A
100
AcDbXrecord
280
1
 40
0.0
  0
XRECORD
  5
144
330
11A
100
AcDbXrecord
280
1
1000
Portrait
  0
XRECORD
  5
145
330
11A
100
AcDbXrecord
280
1
 40
297.0
  0
XRECORD
  5
146
330
11A
100
AcDbXrecord
280
1
 40
210.0
  0
XRECORD
  5
147
330
11A
100
AcDbXrecord
280
1
1000
1:1
  0
XRECORD
  5
148
330
11A
100
AcDbXrecord
280
1
290
1
  0
XRECORD
  5
149
330
11A
100
AcDbXrecord
280
1
 90
4
  0
XRECORD
  5
14B
330
11A
100
AcDbXrecord
280
1
 40
182.34861234892873
  0
XRECORD
  5
14C
330
11A
100
AcDbXrecord
280
1
 40
354.34922062284153
  0
ENDSEC
  0
EOF
