solid base
   facet normal -1.000000e+00 0.000000e+00 0.000000e+00
      outer loop
         vertex 4.383548e+01 0.000000e+00 3.000000e+00
         vertex 4.383548e+01 3.493536e+00 3.000000e+00
         vertex 4.383548e+01 0.000000e+00 0.000000e+00
      endloop
   endfacet
   facet normal -1.000000e+00 0.000000e+00 0.000000e+00
      outer loop
         vertex 4.383548e+01 0.000000e+00 0.000000e+00
         vertex 4.383548e+01 3.493536e+00 3.000000e+00
         vertex 4.383548e+01 3.493536e+00 0.000000e+00
      endloop
   endfacet
   facet normal -0.000000e+00 -1.000000e+00 -0.000000e+00
      outer loop
         vertex 5.388548e+01 0.000000e+00 3.000000e+00
         vertex 4.383548e+01 0.000000e+00 3.000000e+00
         vertex 5.388548e+01 0.000000e+00 0.000000e+00
      endloop
   endfacet
   facet normal 0.000000e+00 -1.000000e+00 0.000000e+00
      outer loop
         vertex 5.388548e+01 0.000000e+00 0.000000e+00
         vertex 4.383548e+01 0.000000e+00 3.000000e+00
         vertex 4.383548e+01 0.000000e+00 0.000000e+00
      endloop
   endfacet
   facet normal 1.000000e+00 0.000000e+00 0.000000e+00
      outer loop
         vertex 5.388548e+01 3.500000e+00 3.000000e+00
         vertex 5.388548e+01 0.000000e+00 3.000000e+00
         vertex 5.388548e+01 3.500000e+00 0.000000e+00
      endloop
   endfacet
   facet normal 1.000000e+00 0.000000e+00 0.000000e+00
      outer loop
         vertex 5.388548e+01 3.500000e+00 0.000000e+00
         vertex 5.388548e+01 0.000000e+00 3.000000e+00
         vertex 5.388548e+01 0.000000e+00 0.000000e+00
      endloop
   endfacet
   facet normal -0.000000e+00 -1.000000e+00 -0.000000e+00
      outer loop
         vertex 5.888548e+01 3.500000e+00 3.000000e+00
         vertex 5.388548e+01 3.500000e+00 3.000000e+00
         vertex 5.888548e+01 3.500000e+00 0.000000e+00
      endloop
   endfacet
   facet normal 0.000000e+00 -1.000000e+00 0.000000e+00
      outer loop
         vertex 5.888548e+01 3.500000e+00 0.000000e+00
         vertex 5.388548e+01 3.500000e+00 3.000000e+00
         vertex 5.388548e+01 3.500000e+00 0.000000e+00
      endloop
   endfacet
   facet normal -1.000000e+00 0.000000e+00 0.000000e+00
      outer loop
         vertex 5.888548e+01 0.000000e+00 3.000000e+00
         vertex 5.888548e+01 3.500000e+00 3.000000e+00
         vertex 5.888548e+01 0.000000e+00 0.000000e+00
      endloop
   endfacet
   facet normal -1.000000e+00 0.000000e+00 0.000000e+00
      outer loop
         vertex 5.888548e+01 0.000000e+00 0.000000e+00
         vertex 5.888548e+01 3.500000e+00 3.000000e+00
         vertex 5.888548e+01 3.500000e+00 0.000000e+00
      endloop
   endfacet
   facet normal -0.000000e+00 -1.000000e+00 -0.000000e+00
      outer loop
         vertex 6.893548e+01 0.000000e+00 3.000000e+00
         vertex 5.888548e+01 0.000000e+00 3.000000e+00
         vertex 6.893548e+01 0.000000e+00 0.000000e+00
      endloop
   endfacet
   facet normal 0.000000e+00 -1.000000e+00 0.000000e+00
      outer loop
         vertex 6.893548e+01 0.000000e+00 0.000000e+00
         vertex 5.888548e+01 0.000000e+00 3.000000e+00
         vertex 5.888548e+01 0.000000e+00 0.000000e+00
      endloop
   endfacet
   facet normal 1.000000e+00 0.000000e+00 0.000000e+00
      outer loop
         vertex 6.893548e+01 3.493536e+00 3.000000e+00
         vertex 6.893548e+01 0.000000e+00 3.000000e+00
         vertex 6.893548e+01 3.493536e+00 0.000000e+00
      endloop
   endfacet
   facet normal 1.000000e+00 0.000000e+00 0.000000e+00
      outer loop
         vertex 6.893548e+01 3.493536e+00 0.000000e+00
         vertex 6.893548e+01 0.000000e+00 3.000000e+00
         vertex 6.893548e+01 0.000000e+00 0.000000e+00
      endloop
   endfacet
   facet normal 6.652759e-05 -1.000000e+00 0.000000e+00
      outer loop
         vertex 9.788550e+01 3.495462e+00 3.000000e+00
         vertex 6.893548e+01 3.493536e+00 3.000000e+00
         vertex 9.788550e+01 3.495462e+00 8.673617e-16
      endloop
   endfacet
   facet normal 6.652759e-05 -1.000000e+00 0.000000e+00
      outer loop
         vertex 9.788550e+01 3.495462e+00 8.673617e-16
         vertex 6.893548e+01 3.493536e+00 3.000000e+00
         vertex 6.893548e+01 3.493536e+00 8.673617e-16
      endloop
   endfacet
   facet normal 1.000000e+00 0.000000e+00 0.000000e+00
      outer loop
         vertex 9.788550e+01 1.241923e+02 3.000000e+00
         vertex 9.788550e+01 3.495462e+00 3.000000e+00
         vertex 9.788550e+01 1.241923e+02 0.000000e+00
      endloop
   endfacet
   facet normal 1.000000e+00 0.000000e+00 0.000000e+00
      outer loop
         vertex 9.788550e+01 1.241923e+02 0.000000e+00
         vertex 9.788550e+01 3.495462e+00 3.000000e+00
         vertex 9.788550e+01 3.495462e+00 0.000000e+00
      endloop
   endfacet
   facet normal 2.692981e-07 1.000000e+00 0.000000e+00
      outer loop
         vertex 1.488550e+01 1.241924e+02 3.000000e+00
         vertex 9.788550e+01 1.241923e+02 3.000000e+00
         vertex 1.488550e+01 1.241924e+02 0.000000e+00
      endloop
   endfacet
   facet normal 2.692981e-07 1.000000e+00 0.000000e+00
      outer loop
         vertex 1.488550e+01 1.241924e+02 0.000000e+00
         vertex 9.788550e+01 1.241923e+02 3.000000e+00
         vertex 9.788550e+01 1.241923e+02 0.000000e+00
      endloop
   endfacet
   facet normal -1.000000e+00 1.983582e-07 0.000000e+00
      outer loop
         vertex 1.488550e+01 1.241924e+02 3.000000e+00
         vertex 1.488550e+01 1.241924e+02 -1.734723e-15
         vertex 1.488548e+01 3.028924e+01 3.000000e+00
      endloop
   endfacet
   facet normal -1.000000e+00 1.983582e-07 0.000000e+00
      outer loop
         vertex 1.488548e+01 3.028924e+01 3.000000e+00
         vertex 1.488550e+01 1.241924e+02 -1.734723e-15
         vertex 1.488548e+01 3.028924e+01 -1.734723e-15
      endloop
   endfacet
   facet normal -1.000000e+00 1.961001e-07 0.000000e+00
      outer loop
         vertex 1.488548e+01 3.028924e+01 3.000000e+00
         vertex 1.488548e+01 3.028924e+01 -1.734723e-15
         vertex 1.488548e+01 1.129236e+01 3.000000e+00
      endloop
   endfacet
   facet normal -1.000000e+00 1.961001e-07 0.000000e+00
      outer loop
         vertex 1.488548e+01 1.129236e+01 3.000000e+00
         vertex 1.488548e+01 3.028924e+01 -1.734723e-15
         vertex 1.488548e+01 1.129236e+01 -1.734723e-15
      endloop
   endfacet
   facet normal -0.000000e+00 -1.000000e+00 -0.000000e+00
      outer loop
         vertex 2.668548e+01 1.129236e+01 3.000000e+00
         vertex 1.488548e+01 1.129236e+01 3.000000e+00
         vertex 2.668548e+01 1.129236e+01 0.000000e+00
      endloop
   endfacet
   facet normal 0.000000e+00 -1.000000e+00 0.000000e+00
      outer loop
         vertex 2.668548e+01 1.129236e+01 0.000000e+00
         vertex 1.488548e+01 1.129236e+01 3.000000e+00
         vertex 1.488548e+01 1.129236e+01 0.000000e+00
      endloop
   endfacet
   facet normal -1.000000e+00 0.000000e+00 0.000000e+00
      outer loop
         vertex 2.668548e+01 8.292355e+00 3.000000e+00
         vertex 2.668548e+01 1.129236e+01 3.000000e+00
         vertex 2.668548e+01 8.292355e+00 0.000000e+00
      endloop
   endfacet
   facet normal -1.000000e+00 0.000000e+00 0.000000e+00
      outer loop
         vertex 2.668548e+01 8.292355e+00 0.000000e+00
         vertex 2.668548e+01 1.129236e+01 3.000000e+00
         vertex 2.668548e+01 1.129236e+01 0.000000e+00
      endloop
   endfacet
   facet normal -0.000000e+00 1.000000e+00 0.000000e+00
      outer loop
         vertex 1.488548e+01 8.292355e+00 3.000000e+00
         vertex 2.668548e+01 8.292355e+00 3.000000e+00
         vertex 1.488548e+01 8.292355e+00 0.000000e+00
      endloop
   endfacet
   facet normal 0.000000e+00 1.000000e+00 0.000000e+00
      outer loop
         vertex 1.488548e+01 8.292355e+00 0.000000e+00
         vertex 2.668548e+01 8.292355e+00 3.000000e+00
         vertex 2.668548e+01 8.292355e+00 0.000000e+00
      endloop
   endfacet
   facet normal -1.000000e+00 3.888252e-07 0.000000e+00
      outer loop
         vertex 1.488548e+01 3.501911e+00 3.000000e+00
         vertex 1.488548e+01 8.292355e+00 3.000000e+00
         vertex 1.488548e+01 3.501911e+00 0.000000e+00
      endloop
   endfacet
   facet normal -1.000000e+00 3.888252e-07 0.000000e+00
      outer loop
         vertex 1.488548e+01 3.501911e+00 0.000000e+00
         vertex 1.488548e+01 8.292355e+00 3.000000e+00
         vertex 1.488548e+01 8.292355e+00 0.000000e+00
      endloop
   endfacet
   facet normal 9.985337e-01 -5.413287e-02 0.000000e+00
      outer loop
         vertex 5.138551e+01 5.349235e+01 3.000000e+00
         vertex 5.138551e+01 5.349235e+01 0.000000e+00
         vertex 5.141481e+01 5.403294e+01 3.000000e+00
      endloop
   endfacet
   facet normal 9.985337e-01 -5.413287e-02 0.000000e+00
      outer loop
         vertex 5.141481e+01 5.403294e+01 3.000000e+00
         vertex 5.138551e+01 5.349235e+01 0.000000e+00
         vertex 5.141481e+01 5.403294e+01 0.000000e+00
      endloop
   endfacet
   facet normal 9.868260e-01 -1.617851e-01 0.000000e+00
      outer loop
         vertex 5.141481e+01 5.403294e+01 3.000000e+00
         vertex 5.141481e+01 5.403294e+01 0.000000e+00
         vertex 5.150240e+01 5.456720e+01 3.000000e+00
      endloop
   endfacet
   facet normal 9.868260e-01 -1.617851e-01 0.000000e+00
      outer loop
         vertex 5.150240e+01 5.456720e+01 3.000000e+00
         vertex 5.141481e+01 5.403294e+01 0.000000e+00
         vertex 5.150240e+01 5.456720e+01 0.000000e+00
      endloop
   endfacet
   facet normal 9.635505e-01 -2.675266e-01 0.000000e+00
      outer loop
         vertex 5.150240e+01 5.456720e+01 3.000000e+00
         vertex 5.150240e+01 5.456720e+01 0.000000e+00
         vertex 5.164724e+01 5.508886e+01 3.000000e+00
      endloop
   endfacet
   facet normal 9.635505e-01 -2.675266e-01 0.000000e+00
      outer loop
         vertex 5.164724e+01 5.508886e+01 3.000000e+00
         vertex 5.150240e+01 5.456720e+01 0.000000e+00
         vertex 5.164724e+01 5.508886e+01 0.000000e+00
      endloop
   endfacet
   facet normal 9.289756e-01 -3.701411e-01 0.000000e+00
      outer loop
         vertex 5.164724e+01 5.508886e+01 3.000000e+00
         vertex 5.164724e+01 5.508886e+01 0.000000e+00
         vertex 5.184763e+01 5.559179e+01 3.000000e+00
      endloop
   endfacet
   facet normal 9.289756e-01 -3.701411e-01 0.000000e+00
      outer loop
         vertex 5.184763e+01 5.559179e+01 3.000000e+00
         vertex 5.164724e+01 5.508886e+01 0.000000e+00
         vertex 5.184763e+01 5.559179e+01 0.000000e+00
      endloop
   endfacet
   facet normal 8.835116e-01 -4.684093e-01 0.000000e+00
      outer loop
         vertex 5.184763e+01 5.559179e+01 3.000000e+00
         vertex 5.184763e+01 5.559179e+01 0.000000e+00
         vertex 5.210122e+01 5.607012e+01 3.000000e+00
      endloop
   endfacet
   facet normal 8.835116e-01 -4.684093e-01 0.000000e+00
      outer loop
         vertex 5.210122e+01 5.607012e+01 3.000000e+00
         vertex 5.184763e+01 5.559179e+01 0.000000e+00
         vertex 5.210122e+01 5.607012e+01 0.000000e+00
      endloop
   endfacet
   facet normal 8.276899e-01 -5.611858e-01 0.000000e+00
      outer loop
         vertex 5.210122e+01 5.607012e+01 3.000000e+00
         vertex 5.210122e+01 5.607012e+01 0.000000e+00
         vertex 5.240504e+01 5.651822e+01 3.000000e+00
      endloop
   endfacet
   facet normal 8.276899e-01 -5.611858e-01 0.000000e+00
      outer loop
         vertex 5.240504e+01 5.651822e+01 3.000000e+00
         vertex 5.210122e+01 5.607012e+01 0.000000e+00
         vertex 5.240504e+01 5.651822e+01 0.000000e+00
      endloop
   endfacet
   facet normal 7.621633e-01 -6.473848e-01 0.000000e+00
      outer loop
         vertex 5.240504e+01 5.651822e+01 3.000000e+00
         vertex 5.240504e+01 5.651822e+01 0.000000e+00
         vertex 5.275553e+01 5.693085e+01 3.000000e+00
      endloop
   endfacet
   facet normal 7.621633e-01 -6.473848e-01 0.000000e+00
      outer loop
         vertex 5.275553e+01 5.693085e+01 3.000000e+00
         vertex 5.240504e+01 5.651822e+01 0.000000e+00
         vertex 5.275553e+01 5.693085e+01 0.000000e+00
      endloop
   endfacet
   facet normal 6.876977e-01 -7.259972e-01 0.000000e+00
      outer loop
         vertex 5.275553e+01 5.693085e+01 3.000000e+00
         vertex 5.275553e+01 5.693085e+01 0.000000e+00
         vertex 5.314858e+01 5.730316e+01 3.000000e+00
      endloop
   endfacet
   facet normal 6.876977e-01 -7.259972e-01 0.000000e+00
      outer loop
         vertex 5.314858e+01 5.730316e+01 3.000000e+00
         vertex 5.275553e+01 5.693085e+01 0.000000e+00
         vertex 5.314858e+01 5.730316e+01 0.000000e+00
      endloop
   endfacet
   facet normal 6.051751e-01 -7.960924e-01 0.000000e+00
      outer loop
         vertex 5.314858e+01 5.730316e+01 3.000000e+00
         vertex 5.314858e+01 5.730316e+01 0.000000e+00
         vertex 5.357957e+01 5.763079e+01 3.000000e+00
      endloop
   endfacet
   facet normal 6.051751e-01 -7.960924e-01 0.000000e+00
      outer loop
         vertex 5.357957e+01 5.763079e+01 3.000000e+00
         vertex 5.314858e+01 5.730316e+01 0.000000e+00
         vertex 5.357957e+01 5.763079e+01 0.000000e+00
      endloop
   endfacet
   facet normal 5.155523e-01 -8.568581e-01 0.000000e+00
      outer loop
         vertex 5.357957e+01 5.763079e+01 3.000000e+00
         vertex 5.357957e+01 5.763079e+01 0.000000e+00
         vertex 5.404346e+01 5.790991e+01 3.000000e+00
      endloop
   endfacet
   facet normal 5.155523e-01 -8.568581e-01 0.000000e+00
      outer loop
         vertex 5.404346e+01 5.790991e+01 3.000000e+00
         vertex 5.357957e+01 5.763079e+01 0.000000e+00
         vertex 5.404346e+01 5.790991e+01 0.000000e+00
      endloop
   endfacet
   facet normal 4.198914e-01 -9.075743e-01 0.000000e+00
      outer loop
         vertex 5.404346e+01 5.790991e+01 3.000000e+00
         vertex 5.404346e+01 5.790991e+01 0.000000e+00
         vertex 5.453482e+01 5.813723e+01 3.000000e+00
      endloop
   endfacet
   facet normal 4.198914e-01 -9.075743e-01 0.000000e+00
      outer loop
         vertex 5.453482e+01 5.813723e+01 3.000000e+00
         vertex 5.404346e+01 5.790991e+01 0.000000e+00
         vertex 5.453482e+01 5.813723e+01 0.000000e+00
      endloop
   endfacet
   facet normal 3.193029e-01 -9.476527e-01 0.000000e+00
      outer loop
         vertex 5.453482e+01 5.813723e+01 3.000000e+00
         vertex 5.453482e+01 5.813723e+01 0.000000e+00
         vertex 5.504786e+01 5.831010e+01 3.000000e+00
      endloop
   endfacet
   facet normal 3.193029e-01 -9.476527e-01 0.000000e+00
      outer loop
         vertex 5.504786e+01 5.831010e+01 3.000000e+00
         vertex 5.453482e+01 5.813723e+01 0.000000e+00
         vertex 5.504786e+01 5.831010e+01 0.000000e+00
      endloop
   endfacet
   facet normal 2.149680e-01 -9.766211e-01 0.000000e+00
      outer loop
         vertex 5.504786e+01 5.831010e+01 3.000000e+00
         vertex 5.504786e+01 5.831010e+01 0.000000e+00
         vertex 5.557660e+01 5.842648e+01 3.000000e+00
      endloop
   endfacet
   facet normal 2.149680e-01 -9.766211e-01 0.000000e+00
      outer loop
         vertex 5.557660e+01 5.842648e+01 3.000000e+00
         vertex 5.504786e+01 5.831010e+01 0.000000e+00
         vertex 5.557660e+01 5.842648e+01 0.000000e+00
      endloop
   endfacet
   facet normal 1.081176e-01 -9.941381e-01 0.000000e+00
      outer loop
         vertex 5.557660e+01 5.842648e+01 3.000000e+00
         vertex 5.557660e+01 5.842648e+01 0.000000e+00
         vertex 5.611481e+01 5.848501e+01 3.000000e+00
      endloop
   endfacet
   facet normal 1.081176e-01 -9.941381e-01 0.000000e+00
      outer loop
         vertex 5.611481e+01 5.848501e+01 3.000000e+00
         vertex 5.557660e+01 5.842648e+01 0.000000e+00
         vertex 5.611481e+01 5.848501e+01 0.000000e+00
      endloop
   endfacet
   facet normal 0.000000e+00 -1.000000e+00 0.000000e+00
      outer loop
         vertex 5.611481e+01 5.848501e+01 3.000000e+00
         vertex 5.611481e+01 5.848501e+01 0.000000e+00
         vertex 5.665620e+01 5.848501e+01 3.000000e+00
      endloop
   endfacet
   facet normal 0.000000e+00 -1.000000e+00 -0.000000e+00
      outer loop
         vertex 5.665620e+01 5.848501e+01 3.000000e+00
         vertex 5.611481e+01 5.848501e+01 0.000000e+00
         vertex 5.665620e+01 5.848501e+01 0.000000e+00
      endloop
   endfacet
   facet normal -1.081176e-01 -9.941381e-01 -0.000000e+00
      outer loop
         vertex 5.665620e+01 5.848501e+01 3.000000e+00
         vertex 5.665620e+01 5.848501e+01 0.000000e+00
         vertex 5.719442e+01 5.842648e+01 3.000000e+00
      endloop
   endfacet
   facet normal -1.081176e-01 -9.941381e-01 -0.000000e+00
      outer loop
         vertex 5.719442e+01 5.842648e+01 3.000000e+00
         vertex 5.665620e+01 5.848501e+01 0.000000e+00
         vertex 5.719442e+01 5.842648e+01 0.000000e+00
      endloop
   endfacet
   facet normal -2.149694e-01 -9.766208e-01 -0.000000e+00
      outer loop
         vertex 5.719442e+01 5.842648e+01 3.000000e+00
         vertex 5.719442e+01 5.842648e+01 0.000000e+00
         vertex 5.772315e+01 5.831010e+01 3.000000e+00
      endloop
   endfacet
   facet normal -2.149694e-01 -9.766208e-01 -0.000000e+00
      outer loop
         vertex 5.772315e+01 5.831010e+01 3.000000e+00
         vertex 5.719442e+01 5.842648e+01 0.000000e+00
         vertex 5.772315e+01 5.831010e+01 0.000000e+00
      endloop
   endfacet
   facet normal -3.193009e-01 -9.476534e-01 -0.000000e+00
      outer loop
         vertex 5.772315e+01 5.831010e+01 3.000000e+00
         vertex 5.772315e+01 5.831010e+01 0.000000e+00
         vertex 5.823620e+01 5.813723e+01 3.000000e+00
      endloop
   endfacet
   facet normal -3.193009e-01 -9.476534e-01 -0.000000e+00
      outer loop
         vertex 5.823620e+01 5.813723e+01 3.000000e+00
         vertex 5.772315e+01 5.831010e+01 0.000000e+00
         vertex 5.823620e+01 5.813723e+01 0.000000e+00
      endloop
   endfacet
   facet normal -4.198914e-01 -9.075743e-01 -0.000000e+00
      outer loop
         vertex 5.823620e+01 5.813723e+01 3.000000e+00
         vertex 5.823620e+01 5.813723e+01 0.000000e+00
         vertex 5.872755e+01 5.790991e+01 3.000000e+00
      endloop
   endfacet
   facet normal -4.198914e-01 -9.075743e-01 -0.000000e+00
      outer loop
         vertex 5.872755e+01 5.790991e+01 3.000000e+00
         vertex 5.823620e+01 5.813723e+01 0.000000e+00
         vertex 5.872755e+01 5.790991e+01 0.000000e+00
      endloop
   endfacet
   facet normal -5.155553e-01 -8.568563e-01 -0.000000e+00
      outer loop
         vertex 5.872755e+01 5.790991e+01 3.000000e+00
         vertex 5.872755e+01 5.790991e+01 0.000000e+00
         vertex 5.919144e+01 5.763079e+01 3.000000e+00
      endloop
   endfacet
   facet normal -5.155553e-01 -8.568563e-01 -0.000000e+00
      outer loop
         vertex 5.919144e+01 5.763079e+01 3.000000e+00
         vertex 5.872755e+01 5.790991e+01 0.000000e+00
         vertex 5.919144e+01 5.763079e+01 0.000000e+00
      endloop
   endfacet
   facet normal -6.051718e-01 -7.960949e-01 -0.000000e+00
      outer loop
         vertex 5.919144e+01 5.763079e+01 3.000000e+00
         vertex 5.919144e+01 5.763079e+01 0.000000e+00
         vertex 5.962244e+01 5.730316e+01 3.000000e+00
      endloop
   endfacet
   facet normal -6.051718e-01 -7.960949e-01 -0.000000e+00
      outer loop
         vertex 5.962244e+01 5.730316e+01 3.000000e+00
         vertex 5.919144e+01 5.763079e+01 0.000000e+00
         vertex 5.962244e+01 5.730316e+01 0.000000e+00
      endloop
   endfacet
   facet normal -6.877011e-01 -7.259939e-01 -0.000000e+00
      outer loop
         vertex 5.962244e+01 5.730316e+01 3.000000e+00
         vertex 5.962244e+01 5.730316e+01 0.000000e+00
         vertex 6.001548e+01 5.693085e+01 3.000000e+00
      endloop
   endfacet
   facet normal -6.877011e-01 -7.259939e-01 -0.000000e+00
      outer loop
         vertex 6.001548e+01 5.693085e+01 3.000000e+00
         vertex 5.962244e+01 5.730316e+01 0.000000e+00
         vertex 6.001548e+01 5.693085e+01 0.000000e+00
      endloop
   endfacet
   facet normal -7.621599e-01 -6.473888e-01 -0.000000e+00
      outer loop
         vertex 6.001548e+01 5.693085e+01 3.000000e+00
         vertex 6.001548e+01 5.693085e+01 0.000000e+00
         vertex 6.036597e+01 5.651822e+01 3.000000e+00
      endloop
   endfacet
   facet normal -7.621599e-01 -6.473888e-01 -0.000000e+00
      outer loop
         vertex 6.036597e+01 5.651822e+01 3.000000e+00
         vertex 6.001548e+01 5.693085e+01 0.000000e+00
         vertex 6.036597e+01 5.651822e+01 0.000000e+00
      endloop
   endfacet
   facet normal -8.276899e-01 -5.611858e-01 -0.000000e+00
      outer loop
         vertex 6.036597e+01 5.651822e+01 3.000000e+00
         vertex 6.036597e+01 5.651822e+01 0.000000e+00
         vertex 6.066979e+01 5.607012e+01 3.000000e+00
      endloop
   endfacet
   facet normal -8.276899e-01 -5.611858e-01 -0.000000e+00
      outer loop
         vertex 6.066979e+01 5.607012e+01 3.000000e+00
         vertex 6.036597e+01 5.651822e+01 0.000000e+00
         vertex 6.066979e+01 5.607012e+01 0.000000e+00
      endloop
   endfacet
   facet normal -8.835116e-01 -4.684093e-01 -0.000000e+00
      outer loop
         vertex 6.066979e+01 5.607012e+01 3.000000e+00
         vertex 6.066979e+01 5.607012e+01 0.000000e+00
         vertex 6.092338e+01 5.559179e+01 3.000000e+00
      endloop
   endfacet
   facet normal -8.835116e-01 -4.684093e-01 -0.000000e+00
      outer loop
         vertex 6.092338e+01 5.559179e+01 3.000000e+00
         vertex 6.066979e+01 5.607012e+01 0.000000e+00
         vertex 6.092338e+01 5.559179e+01 0.000000e+00
      endloop
   endfacet
   facet normal -9.289779e-01 -3.701352e-01 -0.000000e+00
      outer loop
         vertex 6.092338e+01 5.559179e+01 3.000000e+00
         vertex 6.092338e+01 5.559179e+01 0.000000e+00
         vertex 6.112377e+01 5.508886e+01 3.000000e+00
      endloop
   endfacet
   facet normal -9.289779e-01 -3.701352e-01 -0.000000e+00
      outer loop
         vertex 6.112377e+01 5.508886e+01 3.000000e+00
         vertex 6.092338e+01 5.559179e+01 0.000000e+00
         vertex 6.112377e+01 5.508886e+01 0.000000e+00
      endloop
   endfacet
   facet normal -9.635487e-01 -2.675330e-01 -0.000000e+00
      outer loop
         vertex 6.112377e+01 5.508886e+01 3.000000e+00
         vertex 6.112377e+01 5.508886e+01 0.000000e+00
         vertex 6.126861e+01 5.456720e+01 3.000000e+00
      endloop
   endfacet
   facet normal -9.635487e-01 -2.675330e-01 -0.000000e+00
      outer loop
         vertex 6.126861e+01 5.456720e+01 3.000000e+00
         vertex 6.112377e+01 5.508886e+01 0.000000e+00
         vertex 6.126861e+01 5.456720e+01 0.000000e+00
      endloop
   endfacet
   facet normal -9.868271e-01 -1.617784e-01 -0.000000e+00
      outer loop
         vertex 6.126861e+01 5.456720e+01 3.000000e+00
         vertex 6.126861e+01 5.456720e+01 0.000000e+00
         vertex 6.135619e+01 5.403294e+01 3.000000e+00
      endloop
   endfacet
   facet normal -9.868271e-01 -1.617784e-01 -0.000000e+00
      outer loop
         vertex 6.135619e+01 5.403294e+01 3.000000e+00
         vertex 6.126861e+01 5.456720e+01 0.000000e+00
         vertex 6.135619e+01 5.403294e+01 0.000000e+00
      endloop
   endfacet
   facet normal -9.985334e-01 -5.413973e-02 -0.000000e+00
      outer loop
         vertex 6.135619e+01 5.403294e+01 3.000000e+00
         vertex 6.135619e+01 5.403294e+01 0.000000e+00
         vertex 6.138550e+01 5.349235e+01 3.000000e+00
      endloop
   endfacet
   facet normal -9.985334e-01 -5.413973e-02 -0.000000e+00
      outer loop
         vertex 6.138550e+01 5.349235e+01 3.000000e+00
         vertex 6.135619e+01 5.403294e+01 0.000000e+00
         vertex 6.138550e+01 5.349235e+01 0.000000e+00
      endloop
   endfacet
   facet normal -9.985334e-01 5.413955e-02 0.000000e+00
      outer loop
         vertex 6.138550e+01 5.349235e+01 3.000000e+00
         vertex 6.138550e+01 5.349235e+01 0.000000e+00
         vertex 6.135619e+01 5.295175e+01 3.000000e+00
      endloop
   endfacet
   facet normal -9.985334e-01 5.413955e-02 0.000000e+00
      outer loop
         vertex 6.135619e+01 5.295175e+01 3.000000e+00
         vertex 6.138550e+01 5.349235e+01 0.000000e+00
         vertex 6.135619e+01 5.295175e+01 0.000000e+00
      endloop
   endfacet
   facet normal -9.868270e-01 1.617790e-01 0.000000e+00
      outer loop
         vertex 6.135619e+01 5.295175e+01 3.000000e+00
         vertex 6.135619e+01 5.295175e+01 0.000000e+00
         vertex 6.126861e+01 5.241750e+01 3.000000e+00
      endloop
   endfacet
   facet normal -9.868270e-01 1.617790e-01 0.000000e+00
      outer loop
         vertex 6.126861e+01 5.241750e+01 3.000000e+00
         vertex 6.135619e+01 5.295175e+01 0.000000e+00
         vertex 6.126861e+01 5.241750e+01 0.000000e+00
      endloop
   endfacet
   facet normal -9.635490e-01 2.675321e-01 0.000000e+00
      outer loop
         vertex 6.126861e+01 5.241750e+01 3.000000e+00
         vertex 6.126861e+01 5.241750e+01 0.000000e+00
         vertex 6.112377e+01 5.189584e+01 3.000000e+00
      endloop
   endfacet
   facet normal -9.635490e-01 2.675321e-01 0.000000e+00
      outer loop
         vertex 6.112377e+01 5.189584e+01 3.000000e+00
         vertex 6.126861e+01 5.241750e+01 0.000000e+00
         vertex 6.112377e+01 5.189584e+01 0.000000e+00
      endloop
   endfacet
   facet normal -9.289777e-01 3.701357e-01 0.000000e+00
      outer loop
         vertex 6.112377e+01 5.189584e+01 3.000000e+00
         vertex 6.112377e+01 5.189584e+01 0.000000e+00
         vertex 6.092338e+01 5.139290e+01 3.000000e+00
      endloop
   endfacet
   facet normal -9.289777e-01 3.701357e-01 0.000000e+00
      outer loop
         vertex 6.092338e+01 5.139290e+01 3.000000e+00
         vertex 6.112377e+01 5.189584e+01 0.000000e+00
         vertex 6.092338e+01 5.139290e+01 0.000000e+00
      endloop
   endfacet
   facet normal -8.835116e-01 4.684093e-01 0.000000e+00
      outer loop
         vertex 6.092338e+01 5.139290e+01 3.000000e+00
         vertex 6.092338e+01 5.139290e+01 0.000000e+00
         vertex 6.066979e+01 5.091458e+01 3.000000e+00
      endloop
   endfacet
   facet normal -8.835116e-01 4.684093e-01 0.000000e+00
      outer loop
         vertex 6.066979e+01 5.091458e+01 3.000000e+00
         vertex 6.092338e+01 5.139290e+01 0.000000e+00
         vertex 6.066979e+01 5.091458e+01 0.000000e+00
      endloop
   endfacet
   facet normal -8.276899e-01 5.611858e-01 0.000000e+00
      outer loop
         vertex 6.066979e+01 5.091458e+01 3.000000e+00
         vertex 6.066979e+01 5.091458e+01 0.000000e+00
         vertex 6.036597e+01 5.046648e+01 3.000000e+00
      endloop
   endfacet
   facet normal -8.276899e-01 5.611858e-01 0.000000e+00
      outer loop
         vertex 6.036597e+01 5.046648e+01 3.000000e+00
         vertex 6.066979e+01 5.091458e+01 0.000000e+00
         vertex 6.036597e+01 5.046648e+01 0.000000e+00
      endloop
   endfacet
   facet normal -7.621599e-01 6.473888e-01 0.000000e+00
      outer loop
         vertex 6.036597e+01 5.046648e+01 3.000000e+00
         vertex 6.036597e+01 5.046648e+01 0.000000e+00
         vertex 6.001548e+01 5.005385e+01 3.000000e+00
      endloop
   endfacet
   facet normal -7.621599e-01 6.473888e-01 0.000000e+00
      outer loop
         vertex 6.001548e+01 5.005385e+01 3.000000e+00
         vertex 6.036597e+01 5.046648e+01 0.000000e+00
         vertex 6.001548e+01 5.005385e+01 0.000000e+00
      endloop
   endfacet
   facet normal -6.877011e-01 7.259939e-01 0.000000e+00
      outer loop
         vertex 6.001548e+01 5.005385e+01 3.000000e+00
         vertex 6.001548e+01 5.005385e+01 0.000000e+00
         vertex 5.962244e+01 4.968154e+01 3.000000e+00
      endloop
   endfacet
   facet normal -6.877011e-01 7.259939e-01 0.000000e+00
      outer loop
         vertex 5.962244e+01 4.968154e+01 3.000000e+00
         vertex 6.001548e+01 5.005385e+01 0.000000e+00
         vertex 5.962244e+01 4.968154e+01 0.000000e+00
      endloop
   endfacet
   facet normal -6.051729e-01 7.960941e-01 0.000000e+00
      outer loop
         vertex 5.962244e+01 4.968154e+01 3.000000e+00
         vertex 5.962244e+01 4.968154e+01 0.000000e+00
         vertex 5.919144e+01 4.935390e+01 3.000000e+00
      endloop
   endfacet
   facet normal -6.051729e-01 7.960941e-01 0.000000e+00
      outer loop
         vertex 5.919144e+01 4.935390e+01 3.000000e+00
         vertex 5.962244e+01 4.968154e+01 0.000000e+00
         vertex 5.919144e+01 4.935390e+01 0.000000e+00
      endloop
   endfacet
   facet normal -5.155553e-01 8.568563e-01 0.000000e+00
      outer loop
         vertex 5.919144e+01 4.935390e+01 3.000000e+00
         vertex 5.919144e+01 4.935390e+01 0.000000e+00
         vertex 5.872755e+01 4.907479e+01 3.000000e+00
      endloop
   endfacet
   facet normal -5.155553e-01 8.568563e-01 0.000000e+00
      outer loop
         vertex 5.872755e+01 4.907479e+01 3.000000e+00
         vertex 5.919144e+01 4.935390e+01 0.000000e+00
         vertex 5.872755e+01 4.907479e+01 0.000000e+00
      endloop
   endfacet
   facet normal -4.198886e-01 9.075756e-01 0.000000e+00
      outer loop
         vertex 5.872755e+01 4.907479e+01 3.000000e+00
         vertex 5.872755e+01 4.907479e+01 0.000000e+00
         vertex 5.823620e+01 4.884746e+01 3.000000e+00
      endloop
   endfacet
   facet normal -4.198886e-01 9.075756e-01 0.000000e+00
      outer loop
         vertex 5.823620e+01 4.884746e+01 3.000000e+00
         vertex 5.872755e+01 4.907479e+01 0.000000e+00
         vertex 5.823620e+01 4.884746e+01 0.000000e+00
      endloop
   endfacet
   facet normal -3.193009e-01 9.476534e-01 0.000000e+00
      outer loop
         vertex 5.823620e+01 4.884746e+01 3.000000e+00
         vertex 5.823620e+01 4.884746e+01 0.000000e+00
         vertex 5.772315e+01 4.867460e+01 3.000000e+00
      endloop
   endfacet
   facet normal -3.193009e-01 9.476534e-01 0.000000e+00
      outer loop
         vertex 5.772315e+01 4.867460e+01 3.000000e+00
         vertex 5.823620e+01 4.884746e+01 0.000000e+00
         vertex 5.772315e+01 4.867460e+01 0.000000e+00
      endloop
   endfacet
   facet normal -2.149711e-01 9.766204e-01 0.000000e+00
      outer loop
         vertex 5.772315e+01 4.867460e+01 3.000000e+00
         vertex 5.772315e+01 4.867460e+01 0.000000e+00
         vertex 5.719442e+01 4.855822e+01 3.000000e+00
      endloop
   endfacet
   facet normal -2.149711e-01 9.766204e-01 0.000000e+00
      outer loop
         vertex 5.719442e+01 4.855822e+01 3.000000e+00
         vertex 5.772315e+01 4.867460e+01 0.000000e+00
         vertex 5.719442e+01 4.855822e+01 0.000000e+00
      endloop
   endfacet
   facet normal -1.081193e-01 9.941379e-01 0.000000e+00
      outer loop
         vertex 5.719442e+01 4.855822e+01 3.000000e+00
         vertex 5.719442e+01 4.855822e+01 0.000000e+00
         vertex 5.665620e+01 4.849968e+01 3.000000e+00
      endloop
   endfacet
   facet normal -1.081193e-01 9.941379e-01 0.000000e+00
      outer loop
         vertex 5.665620e+01 4.849968e+01 3.000000e+00
         vertex 5.719442e+01 4.855822e+01 0.000000e+00
         vertex 5.665620e+01 4.849968e+01 0.000000e+00
      endloop
   endfacet
   facet normal 0.000000e+00 1.000000e+00 0.000000e+00
      outer loop
         vertex 5.665620e+01 4.849968e+01 3.000000e+00
         vertex 5.665620e+01 4.849968e+01 0.000000e+00
         vertex 5.611481e+01 4.849968e+01 3.000000e+00
      endloop
   endfacet
   facet normal 0.000000e+00 1.000000e+00 0.000000e+00
      outer loop
         vertex 5.611481e+01 4.849968e+01 3.000000e+00
         vertex 5.665620e+01 4.849968e+01 0.000000e+00
         vertex 5.611481e+01 4.849968e+01 0.000000e+00
      endloop
   endfacet
   facet normal 1.081193e-01 9.941379e-01 0.000000e+00
      outer loop
         vertex 5.611481e+01 4.849968e+01 3.000000e+00
         vertex 5.611481e+01 4.849968e+01 0.000000e+00
         vertex 5.557660e+01 4.855822e+01 3.000000e+00
      endloop
   endfacet
   facet normal 1.081193e-01 9.941379e-01 0.000000e+00
      outer loop
         vertex 5.557660e+01 4.855822e+01 3.000000e+00
         vertex 5.611481e+01 4.849968e+01 0.000000e+00
         vertex 5.557660e+01 4.855822e+01 0.000000e+00
      endloop
   endfacet
   facet normal 2.149696e-01 9.766207e-01 0.000000e+00
      outer loop
         vertex 5.557660e+01 4.855822e+01 3.000000e+00
         vertex 5.557660e+01 4.855822e+01 0.000000e+00
         vertex 5.504786e+01 4.867460e+01 3.000000e+00
      endloop
   endfacet
   facet normal 2.149696e-01 9.766207e-01 0.000000e+00
      outer loop
         vertex 5.504786e+01 4.867460e+01 3.000000e+00
         vertex 5.557660e+01 4.855822e+01 0.000000e+00
         vertex 5.504786e+01 4.867460e+01 0.000000e+00
      endloop
   endfacet
   facet normal 3.193029e-01 9.476527e-01 0.000000e+00
      outer loop
         vertex 5.504786e+01 4.867460e+01 3.000000e+00
         vertex 5.504786e+01 4.867460e+01 0.000000e+00
         vertex 5.453482e+01 4.884746e+01 3.000000e+00
      endloop
   endfacet
   facet normal 3.193029e-01 9.476527e-01 0.000000e+00
      outer loop
         vertex 5.453482e+01 4.884746e+01 3.000000e+00
         vertex 5.504786e+01 4.867460e+01 0.000000e+00
         vertex 5.453482e+01 4.884746e+01 0.000000e+00
      endloop
   endfacet
   facet normal 4.198886e-01 9.075756e-01 0.000000e+00
      outer loop
         vertex 5.453482e+01 4.884746e+01 3.000000e+00
         vertex 5.453482e+01 4.884746e+01 0.000000e+00
         vertex 5.404346e+01 4.907479e+01 3.000000e+00
      endloop
   endfacet
   facet normal 4.198886e-01 9.075756e-01 0.000000e+00
      outer loop
         vertex 5.404346e+01 4.907479e+01 3.000000e+00
         vertex 5.453482e+01 4.884746e+01 0.000000e+00
         vertex 5.404346e+01 4.907479e+01 0.000000e+00
      endloop
   endfacet
   facet normal 5.155523e-01 8.568581e-01 0.000000e+00
      outer loop
         vertex 5.404346e+01 4.907479e+01 3.000000e+00
         vertex 5.404346e+01 4.907479e+01 0.000000e+00
         vertex 5.357957e+01 4.935390e+01 3.000000e+00
      endloop
   endfacet
   facet normal 5.155523e-01 8.568581e-01 0.000000e+00
      outer loop
         vertex 5.357957e+01 4.935390e+01 3.000000e+00
         vertex 5.404346e+01 4.907479e+01 0.000000e+00
         vertex 5.357957e+01 4.935390e+01 0.000000e+00
      endloop
   endfacet
   facet normal 6.051762e-01 7.960915e-01 0.000000e+00
      outer loop
         vertex 5.357957e+01 4.935390e+01 3.000000e+00
         vertex 5.357957e+01 4.935390e+01 0.000000e+00
         vertex 5.314858e+01 4.968154e+01 3.000000e+00
      endloop
   endfacet
   facet normal 6.051762e-01 7.960915e-01 0.000000e+00
      outer loop
         vertex 5.314858e+01 4.968154e+01 3.000000e+00
         vertex 5.357957e+01 4.935390e+01 0.000000e+00
         vertex 5.314858e+01 4.968154e+01 0.000000e+00
      endloop
   endfacet
   facet normal 6.876977e-01 7.259972e-01 0.000000e+00
      outer loop
         vertex 5.314858e+01 4.968154e+01 3.000000e+00
         vertex 5.314858e+01 4.968154e+01 0.000000e+00
         vertex 5.275553e+01 5.005385e+01 3.000000e+00
      endloop
   endfacet
   facet normal 6.876977e-01 7.259972e-01 0.000000e+00
      outer loop
         vertex 5.275553e+01 5.005385e+01 3.000000e+00
         vertex 5.314858e+01 4.968154e+01 0.000000e+00
         vertex 5.275553e+01 5.005385e+01 0.000000e+00
      endloop
   endfacet
   facet normal 7.621633e-01 6.473848e-01 0.000000e+00
      outer loop
         vertex 5.275553e+01 5.005385e+01 3.000000e+00
         vertex 5.275553e+01 5.005385e+01 0.000000e+00
         vertex 5.240504e+01 5.046648e+01 3.000000e+00
      endloop
   endfacet
   facet normal 7.621633e-01 6.473848e-01 0.000000e+00
      outer loop
         vertex 5.240504e+01 5.046648e+01 3.000000e+00
         vertex 5.275553e+01 5.005385e+01 0.000000e+00
         vertex 5.240504e+01 5.046648e+01 0.000000e+00
      endloop
   endfacet
   facet normal 8.276899e-01 5.611858e-01 0.000000e+00
      outer loop
         vertex 5.240504e+01 5.046648e+01 3.000000e+00
         vertex 5.240504e+01 5.046648e+01 0.000000e+00
         vertex 5.210122e+01 5.091458e+01 3.000000e+00
      endloop
   endfacet
   facet normal 8.276899e-01 5.611858e-01 0.000000e+00
      outer loop
         vertex 5.210122e+01 5.091458e+01 3.000000e+00
         vertex 5.240504e+01 5.046648e+01 0.000000e+00
         vertex 5.210122e+01 5.091458e+01 0.000000e+00
      endloop
   endfacet
   facet normal 8.835116e-01 4.684093e-01 0.000000e+00
      outer loop
         vertex 5.210122e+01 5.091458e+01 3.000000e+00
         vertex 5.210122e+01 5.091458e+01 0.000000e+00
         vertex 5.184763e+01 5.139290e+01 3.000000e+00
      endloop
   endfacet
   facet normal 8.835116e-01 4.684093e-01 0.000000e+00
      outer loop
         vertex 5.184763e+01 5.139290e+01 3.000000e+00
         vertex 5.210122e+01 5.091458e+01 0.000000e+00
         vertex 5.184763e+01 5.139290e+01 0.000000e+00
      endloop
   endfacet
   facet normal 9.289753e-01 3.701417e-01 0.000000e+00
      outer loop
         vertex 5.184763e+01 5.139290e+01 3.000000e+00
         vertex 5.184763e+01 5.139290e+01 0.000000e+00
         vertex 5.164724e+01 5.189584e+01 3.000000e+00
      endloop
   endfacet
   facet normal 9.289753e-01 3.701417e-01 0.000000e+00
      outer loop
         vertex 5.164724e+01 5.189584e+01 3.000000e+00
         vertex 5.184763e+01 5.139290e+01 0.000000e+00
         vertex 5.164724e+01 5.189584e+01 0.000000e+00
      endloop
   endfacet
   facet normal 9.635507e-01 2.675257e-01 0.000000e+00
      outer loop
         vertex 5.164724e+01 5.189584e+01 3.000000e+00
         vertex 5.164724e+01 5.189584e+01 0.000000e+00
         vertex 5.150240e+01 5.241750e+01 3.000000e+00
      endloop
   endfacet
   facet normal 9.635507e-01 2.675257e-01 0.000000e+00
      outer loop
         vertex 5.150240e+01 5.241750e+01 3.000000e+00
         vertex 5.164724e+01 5.189584e+01 0.000000e+00
         vertex 5.150240e+01 5.241750e+01 0.000000e+00
      endloop
   endfacet
   facet normal 9.868259e-01 1.617857e-01 0.000000e+00
      outer loop
         vertex 5.150240e+01 5.241750e+01 3.000000e+00
         vertex 5.150240e+01 5.241750e+01 0.000000e+00
         vertex 5.141481e+01 5.295175e+01 3.000000e+00
      endloop
   endfacet
   facet normal 9.868259e-01 1.617857e-01 0.000000e+00
      outer loop
         vertex 5.141481e+01 5.295175e+01 3.000000e+00
         vertex 5.150240e+01 5.241750e+01 0.000000e+00
         vertex 5.141481e+01 5.295175e+01 0.000000e+00
      endloop
   endfacet
   facet normal 9.985338e-01 5.413269e-02 0.000000e+00
      outer loop
         vertex 5.141481e+01 5.295175e+01 3.000000e+00
         vertex 5.141481e+01 5.295175e+01 0.000000e+00
         vertex 5.138551e+01 5.349235e+01 3.000000e+00
      endloop
   endfacet
   facet normal 9.985338e-01 5.413269e-02 0.000000e+00
      outer loop
         vertex 5.138551e+01 5.349235e+01 3.000000e+00
         vertex 5.141481e+01 5.295175e+01 0.000000e+00
         vertex 5.138551e+01 5.349235e+01 0.000000e+00
      endloop
   endfacet
   facet normal -2.892729e-04 -1.000000e+00 -0.000000e+00
      outer loop
         vertex 4.383548e+01 3.493536e+00 3.000000e+00
         vertex 1.488548e+01 3.501911e+00 3.000000e+00
         vertex 4.383548e+01 3.493536e+00 0.000000e+00
      endloop
   endfacet
   facet normal -2.892729e-04 -1.000000e+00 0.000000e+00
      outer loop
         vertex 4.383548e+01 3.493536e+00 0.000000e+00
         vertex 1.488548e+01 3.501911e+00 3.000000e+00
         vertex 1.488548e+01 3.501911e+00 0.000000e+00
      endloop
   endfacet
   facet normal 0.000000e+00 -0.000000e+00 1.000000e+00
      outer loop
         vertex 6.893548e+01 3.493536e+00 3.000000e+00
         vertex 9.788550e+01 3.495462e+00 3.000000e+00
         vertex 6.135619e+01 5.295175e+01 3.000000e+00
      endloop
   endfacet
   facet normal -0.000000e+00 0.000000e+00 1.000000e+00
      outer loop
         vertex 6.135619e+01 5.295175e+01 3.000000e+00
         vertex 9.788550e+01 3.495462e+00 3.000000e+00
         vertex 6.138550e+01 5.349235e+01 3.000000e+00
      endloop
   endfacet
   facet normal -0.000000e+00 0.000000e+00 1.000000e+00
      outer loop
         vertex 1.488548e+01 8.292355e+00 3.000000e+00
         vertex 1.488548e+01 3.501911e+00 3.000000e+00
         vertex 2.668548e+01 8.292355e+00 3.000000e+00
      endloop
   endfacet
   facet normal 0.000000e+00 0.000000e+00 1.000000e+00
      outer loop
         vertex 2.668548e+01 8.292355e+00 3.000000e+00
         vertex 1.488548e+01 3.501911e+00 3.000000e+00
         vertex 4.383548e+01 3.493536e+00 3.000000e+00
      endloop
   endfacet
   facet normal 0.000000e+00 0.000000e+00 1.000000e+00
      outer loop
         vertex 6.112377e+01 5.189584e+01 3.000000e+00
         vertex 6.092338e+01 5.139290e+01 3.000000e+00
         vertex 5.888548e+01 3.500000e+00 3.000000e+00
      endloop
   endfacet
   facet normal 0.000000e+00 -0.000000e+00 1.000000e+00
      outer loop
         vertex 5.888548e+01 3.500000e+00 3.000000e+00
         vertex 6.092338e+01 5.139290e+01 3.000000e+00
         vertex 5.388548e+01 3.500000e+00 3.000000e+00
      endloop
   endfacet
   facet normal 0.000000e+00 0.000000e+00 1.000000e+00
      outer loop
         vertex 5.888548e+01 0.000000e+00 3.000000e+00
         vertex 6.893548e+01 0.000000e+00 3.000000e+00
         vertex 5.888548e+01 3.500000e+00 3.000000e+00
      endloop
   endfacet
   facet normal 0.000000e+00 0.000000e+00 1.000000e+00
      outer loop
         vertex 5.888548e+01 3.500000e+00 3.000000e+00
         vertex 6.893548e+01 0.000000e+00 3.000000e+00
         vertex 6.893548e+01 3.493536e+00 3.000000e+00
      endloop
   endfacet
   facet normal -0.000000e+00 0.000000e+00 1.000000e+00
      outer loop
         vertex 6.066979e+01 5.607012e+01 3.000000e+00
         vertex 6.092338e+01 5.559179e+01 3.000000e+00
         vertex 9.788550e+01 1.241923e+02 3.000000e+00
      endloop
   endfacet
   facet normal 0.000000e+00 0.000000e+00 1.000000e+00
      outer loop
         vertex 6.893548e+01 3.493536e+00 3.000000e+00
         vertex 6.135619e+01 5.295175e+01 3.000000e+00
         vertex 5.888548e+01 3.500000e+00 3.000000e+00
      endloop
   endfacet
   facet normal 0.000000e+00 0.000000e+00 1.000000e+00
      outer loop
         vertex 5.888548e+01 3.500000e+00 3.000000e+00
         vertex 6.135619e+01 5.295175e+01 3.000000e+00
         vertex 6.126861e+01 5.241750e+01 3.000000e+00
      endloop
   endfacet
   facet normal 0.000000e+00 0.000000e+00 1.000000e+00
      outer loop
         vertex 5.888548e+01 3.500000e+00 3.000000e+00
         vertex 6.126861e+01 5.241750e+01 3.000000e+00
         vertex 6.112377e+01 5.189584e+01 3.000000e+00
      endloop
   endfacet
   facet normal 0.000000e+00 0.000000e+00 1.000000e+00
      outer loop
         vertex 6.092338e+01 5.139290e+01 3.000000e+00
         vertex 6.066979e+01 5.091458e+01 3.000000e+00
         vertex 5.388548e+01 3.500000e+00 3.000000e+00
      endloop
   endfacet
   facet normal 0.000000e+00 0.000000e+00 1.000000e+00
      outer loop
         vertex 5.388548e+01 3.500000e+00 3.000000e+00
         vertex 6.066979e+01 5.091458e+01 3.000000e+00
         vertex 6.036597e+01 5.046648e+01 3.000000e+00
      endloop
   endfacet
   facet normal 0.000000e+00 0.000000e+00 1.000000e+00
      outer loop
         vertex 5.388548e+01 3.500000e+00 3.000000e+00
         vertex 6.036597e+01 5.046648e+01 3.000000e+00
         vertex 6.001548e+01 5.005385e+01 3.000000e+00
      endloop
   endfacet
   facet normal 0.000000e+00 0.000000e+00 1.000000e+00
      outer loop
         vertex 5.872755e+01 4.907479e+01 3.000000e+00
         vertex 5.823620e+01 4.884746e+01 3.000000e+00
         vertex 1.488548e+01 1.129236e+01 3.000000e+00
      endloop
   endfacet
   facet normal 0.000000e+00 -0.000000e+00 1.000000e+00
      outer loop
         vertex 5.314858e+01 5.730316e+01 3.000000e+00
         vertex 5.357957e+01 5.763079e+01 3.000000e+00
         vertex 1.488550e+01 1.241924e+02 3.000000e+00
      endloop
   endfacet
   facet normal -0.000000e+00 0.000000e+00 1.000000e+00
      outer loop
         vertex 5.719442e+01 5.842648e+01 3.000000e+00
         vertex 5.772315e+01 5.831010e+01 3.000000e+00
         vertex 9.788550e+01 1.241923e+02 3.000000e+00
      endloop
   endfacet
   facet normal 0.000000e+00 0.000000e+00 1.000000e+00
      outer loop
         vertex 9.788550e+01 1.241923e+02 3.000000e+00
         vertex 5.772315e+01 5.831010e+01 3.000000e+00
         vertex 5.823620e+01 5.813723e+01 3.000000e+00
      endloop
   endfacet
   facet normal 0.000000e+00 0.000000e+00 1.000000e+00
      outer loop
         vertex 4.383548e+01 0.000000e+00 3.000000e+00
         vertex 5.388548e+01 0.000000e+00 3.000000e+00
         vertex 4.383548e+01 3.493536e+00 3.000000e+00
      endloop
   endfacet
   facet normal -0.000000e+00 0.000000e+00 1.000000e+00
      outer loop
         vertex 4.383548e+01 3.493536e+00 3.000000e+00
         vertex 5.388548e+01 0.000000e+00 3.000000e+00
         vertex 5.388548e+01 3.500000e+00 3.000000e+00
      endloop
   endfacet
   facet normal 0.000000e+00 -0.000000e+00 1.000000e+00
      outer loop
         vertex 4.383548e+01 3.493536e+00 3.000000e+00
         vertex 5.388548e+01 3.500000e+00 3.000000e+00
         vertex 2.668548e+01 8.292355e+00 3.000000e+00
      endloop
   endfacet
   facet normal -0.000000e+00 0.000000e+00 1.000000e+00
      outer loop
         vertex 2.668548e+01 8.292355e+00 3.000000e+00
         vertex 5.388548e+01 3.500000e+00 3.000000e+00
         vertex 6.001548e+01 5.005385e+01 3.000000e+00
      endloop
   endfacet
   facet normal 0.000000e+00 0.000000e+00 1.000000e+00
      outer loop
         vertex 2.668548e+01 8.292355e+00 3.000000e+00
         vertex 6.001548e+01 5.005385e+01 3.000000e+00
         vertex 2.668548e+01 1.129236e+01 3.000000e+00
      endloop
   endfacet
   facet normal 0.000000e+00 0.000000e+00 1.000000e+00
      outer loop
         vertex 2.668548e+01 1.129236e+01 3.000000e+00
         vertex 6.001548e+01 5.005385e+01 3.000000e+00
         vertex 5.962244e+01 4.968154e+01 3.000000e+00
      endloop
   endfacet
   facet normal 0.000000e+00 -0.000000e+00 1.000000e+00
      outer loop
         vertex 2.668548e+01 1.129236e+01 3.000000e+00
         vertex 5.962244e+01 4.968154e+01 3.000000e+00
         vertex 1.488548e+01 1.129236e+01 3.000000e+00
      endloop
   endfacet
   facet normal 0.000000e+00 0.000000e+00 1.000000e+00
      outer loop
         vertex 1.488548e+01 1.129236e+01 3.000000e+00
         vertex 5.962244e+01 4.968154e+01 3.000000e+00
         vertex 5.919144e+01 4.935390e+01 3.000000e+00
      endloop
   endfacet
   facet normal 0.000000e+00 0.000000e+00 1.000000e+00
      outer loop
         vertex 1.488548e+01 1.129236e+01 3.000000e+00
         vertex 5.919144e+01 4.935390e+01 3.000000e+00
         vertex 5.872755e+01 4.907479e+01 3.000000e+00
      endloop
   endfacet
   facet normal 0.000000e+00 0.000000e+00 1.000000e+00
      outer loop
         vertex 5.823620e+01 4.884746e+01 3.000000e+00
         vertex 5.772315e+01 4.867460e+01 3.000000e+00
         vertex 1.488548e+01 1.129236e+01 3.000000e+00
      endloop
   endfacet
   facet normal 0.000000e+00 0.000000e+00 1.000000e+00
      outer loop
         vertex 1.488548e+01 1.129236e+01 3.000000e+00
         vertex 5.772315e+01 4.867460e+01 3.000000e+00
         vertex 5.719442e+01 4.855822e+01 3.000000e+00
      endloop
   endfacet
   facet normal 0.000000e+00 0.000000e+00 1.000000e+00
      outer loop
         vertex 1.488548e+01 1.129236e+01 3.000000e+00
         vertex 5.719442e+01 4.855822e+01 3.000000e+00
         vertex 5.665620e+01 4.849968e+01 3.000000e+00
      endloop
   endfacet
   facet normal 0.000000e+00 0.000000e+00 1.000000e+00
      outer loop
         vertex 5.665620e+01 4.849968e+01 3.000000e+00
         vertex 5.611481e+01 4.849968e+01 3.000000e+00
         vertex 1.488548e+01 1.129236e+01 3.000000e+00
      endloop
   endfacet
   facet normal 0.000000e+00 0.000000e+00 1.000000e+00
      outer loop
         vertex 1.488548e+01 1.129236e+01 3.000000e+00
         vertex 5.611481e+01 4.849968e+01 3.000000e+00
         vertex 5.557660e+01 4.855822e+01 3.000000e+00
      endloop
   endfacet
   facet normal 0.000000e+00 0.000000e+00 1.000000e+00
      outer loop
         vertex 1.488548e+01 1.129236e+01 3.000000e+00
         vertex 5.557660e+01 4.855822e+01 3.000000e+00
         vertex 5.504786e+01 4.867460e+01 3.000000e+00
      endloop
   endfacet
   facet normal 0.000000e+00 0.000000e+00 1.000000e+00
      outer loop
         vertex 5.504786e+01 4.867460e+01 3.000000e+00
         vertex 5.453482e+01 4.884746e+01 3.000000e+00
         vertex 1.488548e+01 1.129236e+01 3.000000e+00
      endloop
   endfacet
   facet normal 0.000000e+00 0.000000e+00 1.000000e+00
      outer loop
         vertex 1.488548e+01 1.129236e+01 3.000000e+00
         vertex 5.453482e+01 4.884746e+01 3.000000e+00
         vertex 5.404346e+01 4.907479e+01 3.000000e+00
      endloop
   endfacet
   facet normal 0.000000e+00 0.000000e+00 1.000000e+00
      outer loop
         vertex 1.488548e+01 1.129236e+01 3.000000e+00
         vertex 5.404346e+01 4.907479e+01 3.000000e+00
         vertex 5.357957e+01 4.935390e+01 3.000000e+00
      endloop
   endfacet
   facet normal -0.000000e+00 0.000000e+00 1.000000e+00
      outer loop
         vertex 5.823620e+01 5.813723e+01 3.000000e+00
         vertex 5.872755e+01 5.790991e+01 3.000000e+00
         vertex 9.788550e+01 1.241923e+02 3.000000e+00
      endloop
   endfacet
   facet normal 0.000000e+00 0.000000e+00 1.000000e+00
      outer loop
         vertex 9.788550e+01 1.241923e+02 3.000000e+00
         vertex 5.872755e+01 5.790991e+01 3.000000e+00
         vertex 5.919144e+01 5.763079e+01 3.000000e+00
      endloop
   endfacet
   facet normal 0.000000e+00 0.000000e+00 1.000000e+00
      outer loop
         vertex 9.788550e+01 1.241923e+02 3.000000e+00
         vertex 5.919144e+01 5.763079e+01 3.000000e+00
         vertex 5.962244e+01 5.730316e+01 3.000000e+00
      endloop
   endfacet
   facet normal -0.000000e+00 0.000000e+00 1.000000e+00
      outer loop
         vertex 6.092338e+01 5.559179e+01 3.000000e+00
         vertex 6.112377e+01 5.508886e+01 3.000000e+00
         vertex 9.788550e+01 1.241923e+02 3.000000e+00
      endloop
   endfacet
   facet normal 0.000000e+00 0.000000e+00 1.000000e+00
      outer loop
         vertex 9.788550e+01 1.241923e+02 3.000000e+00
         vertex 6.112377e+01 5.508886e+01 3.000000e+00
         vertex 6.126861e+01 5.456720e+01 3.000000e+00
      endloop
   endfacet
   facet normal 0.000000e+00 0.000000e+00 1.000000e+00
      outer loop
         vertex 9.788550e+01 1.241923e+02 3.000000e+00
         vertex 6.126861e+01 5.456720e+01 3.000000e+00
         vertex 9.788550e+01 3.495462e+00 3.000000e+00
      endloop
   endfacet
   facet normal 0.000000e+00 0.000000e+00 1.000000e+00
      outer loop
         vertex 9.788550e+01 3.495462e+00 3.000000e+00
         vertex 6.126861e+01 5.456720e+01 3.000000e+00
         vertex 6.135619e+01 5.403294e+01 3.000000e+00
      endloop
   endfacet
   facet normal 0.000000e+00 0.000000e+00 1.000000e+00
      outer loop
         vertex 9.788550e+01 3.495462e+00 3.000000e+00
         vertex 6.135619e+01 5.403294e+01 3.000000e+00
         vertex 6.138550e+01 5.349235e+01 3.000000e+00
      endloop
   endfacet
   facet normal 0.000000e+00 0.000000e+00 1.000000e+00
      outer loop
         vertex 5.240504e+01 5.046648e+01 3.000000e+00
         vertex 1.488548e+01 3.028924e+01 3.000000e+00
         vertex 5.275553e+01 5.005385e+01 3.000000e+00
      endloop
   endfacet
   facet normal 0.000000e+00 0.000000e+00 1.000000e+00
      outer loop
         vertex 5.275553e+01 5.005385e+01 3.000000e+00
         vertex 1.488548e+01 3.028924e+01 3.000000e+00
         vertex 1.488548e+01 1.129236e+01 3.000000e+00
      endloop
   endfacet
   facet normal 0.000000e+00 0.000000e+00 1.000000e+00
      outer loop
         vertex 5.275553e+01 5.005385e+01 3.000000e+00
         vertex 1.488548e+01 1.129236e+01 3.000000e+00
         vertex 5.314858e+01 4.968154e+01 3.000000e+00
      endloop
   endfacet
   facet normal 0.000000e+00 0.000000e+00 1.000000e+00
      outer loop
         vertex 5.314858e+01 4.968154e+01 3.000000e+00
         vertex 1.488548e+01 1.129236e+01 3.000000e+00
         vertex 5.357957e+01 4.935390e+01 3.000000e+00
      endloop
   endfacet
   facet normal 0.000000e+00 0.000000e+00 1.000000e+00
      outer loop
         vertex 1.488550e+01 1.241924e+02 3.000000e+00
         vertex 5.184763e+01 5.559179e+01 3.000000e+00
         vertex 5.210122e+01 5.607012e+01 3.000000e+00
      endloop
   endfacet
   facet normal 0.000000e+00 -0.000000e+00 1.000000e+00
      outer loop
         vertex 5.357957e+01 5.763079e+01 3.000000e+00
         vertex 5.404346e+01 5.790991e+01 3.000000e+00
         vertex 1.488550e+01 1.241924e+02 3.000000e+00
      endloop
   endfacet
   facet normal 0.000000e+00 0.000000e+00 1.000000e+00
      outer loop
         vertex 1.488550e+01 1.241924e+02 3.000000e+00
         vertex 5.404346e+01 5.790991e+01 3.000000e+00
         vertex 5.453482e+01 5.813723e+01 3.000000e+00
      endloop
   endfacet
   facet normal 0.000000e+00 0.000000e+00 1.000000e+00
      outer loop
         vertex 1.488550e+01 1.241924e+02 3.000000e+00
         vertex 5.453482e+01 5.813723e+01 3.000000e+00
         vertex 5.504786e+01 5.831010e+01 3.000000e+00
      endloop
   endfacet
   facet normal 0.000000e+00 -0.000000e+00 1.000000e+00
      outer loop
         vertex 5.504786e+01 5.831010e+01 3.000000e+00
         vertex 5.557660e+01 5.842648e+01 3.000000e+00
         vertex 1.488550e+01 1.241924e+02 3.000000e+00
      endloop
   endfacet
   facet normal 0.000000e+00 0.000000e+00 1.000000e+00
      outer loop
         vertex 1.488550e+01 1.241924e+02 3.000000e+00
         vertex 5.557660e+01 5.842648e+01 3.000000e+00
         vertex 5.611481e+01 5.848501e+01 3.000000e+00
      endloop
   endfacet
   facet normal 0.000000e+00 0.000000e+00 1.000000e+00
      outer loop
         vertex 1.488550e+01 1.241924e+02 3.000000e+00
         vertex 5.611481e+01 5.848501e+01 3.000000e+00
         vertex 9.788550e+01 1.241923e+02 3.000000e+00
      endloop
   endfacet
   facet normal 0.000000e+00 0.000000e+00 1.000000e+00
      outer loop
         vertex 9.788550e+01 1.241923e+02 3.000000e+00
         vertex 5.611481e+01 5.848501e+01 3.000000e+00
         vertex 5.665620e+01 5.848501e+01 3.000000e+00
      endloop
   endfacet
   facet normal 0.000000e+00 0.000000e+00 1.000000e+00
      outer loop
         vertex 9.788550e+01 1.241923e+02 3.000000e+00
         vertex 5.665620e+01 5.848501e+01 3.000000e+00
         vertex 5.719442e+01 5.842648e+01 3.000000e+00
      endloop
   endfacet
   facet normal -0.000000e+00 0.000000e+00 1.000000e+00
      outer loop
         vertex 5.962244e+01 5.730316e+01 3.000000e+00
         vertex 6.001548e+01 5.693085e+01 3.000000e+00
         vertex 9.788550e+01 1.241923e+02 3.000000e+00
      endloop
   endfacet
   facet normal 0.000000e+00 0.000000e+00 1.000000e+00
      outer loop
         vertex 9.788550e+01 1.241923e+02 3.000000e+00
         vertex 6.001548e+01 5.693085e+01 3.000000e+00
         vertex 6.036597e+01 5.651822e+01 3.000000e+00
      endloop
   endfacet
   facet normal 0.000000e+00 0.000000e+00 1.000000e+00
      outer loop
         vertex 9.788550e+01 1.241923e+02 3.000000e+00
         vertex 6.036597e+01 5.651822e+01 3.000000e+00
         vertex 6.066979e+01 5.607012e+01 3.000000e+00
      endloop
   endfacet
   facet normal 0.000000e+00 0.000000e+00 1.000000e+00
      outer loop
         vertex 5.240504e+01 5.046648e+01 3.000000e+00
         vertex 5.210122e+01 5.091458e+01 3.000000e+00
         vertex 1.488548e+01 3.028924e+01 3.000000e+00
      endloop
   endfacet
   facet normal 0.000000e+00 0.000000e+00 1.000000e+00
      outer loop
         vertex 1.488548e+01 3.028924e+01 3.000000e+00
         vertex 5.210122e+01 5.091458e+01 3.000000e+00
         vertex 5.184763e+01 5.139290e+01 3.000000e+00
      endloop
   endfacet
   facet normal 0.000000e+00 0.000000e+00 1.000000e+00
      outer loop
         vertex 1.488548e+01 3.028924e+01 3.000000e+00
         vertex 5.184763e+01 5.139290e+01 3.000000e+00
         vertex 5.164724e+01 5.189584e+01 3.000000e+00
      endloop
   endfacet
   facet normal 0.000000e+00 -0.000000e+00 1.000000e+00
      outer loop
         vertex 5.210122e+01 5.607012e+01 3.000000e+00
         vertex 5.240504e+01 5.651822e+01 3.000000e+00
         vertex 1.488550e+01 1.241924e+02 3.000000e+00
      endloop
   endfacet
   facet normal 0.000000e+00 0.000000e+00 1.000000e+00
      outer loop
         vertex 1.488550e+01 1.241924e+02 3.000000e+00
         vertex 5.240504e+01 5.651822e+01 3.000000e+00
         vertex 5.275553e+01 5.693085e+01 3.000000e+00
      endloop
   endfacet
   facet normal 0.000000e+00 0.000000e+00 1.000000e+00
      outer loop
         vertex 1.488550e+01 1.241924e+02 3.000000e+00
         vertex 5.275553e+01 5.693085e+01 3.000000e+00
         vertex 5.314858e+01 5.730316e+01 3.000000e+00
      endloop
   endfacet
   facet normal 0.000000e+00 0.000000e+00 1.000000e+00
      outer loop
         vertex 5.164724e+01 5.189584e+01 3.000000e+00
         vertex 5.150240e+01 5.241750e+01 3.000000e+00
         vertex 1.488548e+01 3.028924e+01 3.000000e+00
      endloop
   endfacet
   facet normal 0.000000e+00 0.000000e+00 1.000000e+00
      outer loop
         vertex 1.488548e+01 3.028924e+01 3.000000e+00
         vertex 5.150240e+01 5.241750e+01 3.000000e+00
         vertex 5.141481e+01 5.295175e+01 3.000000e+00
      endloop
   endfacet
   facet normal 0.000000e+00 0.000000e+00 1.000000e+00
      outer loop
         vertex 1.488548e+01 3.028924e+01 3.000000e+00
         vertex 5.141481e+01 5.295175e+01 3.000000e+00
         vertex 5.138551e+01 5.349235e+01 3.000000e+00
      endloop
   endfacet
   facet normal 0.000000e+00 -0.000000e+00 1.000000e+00
      outer loop
         vertex 5.138551e+01 5.349235e+01 3.000000e+00
         vertex 5.141481e+01 5.403294e+01 3.000000e+00
         vertex 1.488548e+01 3.028924e+01 3.000000e+00
      endloop
   endfacet
   facet normal 0.000000e+00 0.000000e+00 1.000000e+00
      outer loop
         vertex 1.488548e+01 3.028924e+01 3.000000e+00
         vertex 5.141481e+01 5.403294e+01 3.000000e+00
         vertex 5.150240e+01 5.456720e+01 3.000000e+00
      endloop
   endfacet
   facet normal 0.000000e+00 0.000000e+00 1.000000e+00
      outer loop
         vertex 1.488548e+01 3.028924e+01 3.000000e+00
         vertex 5.150240e+01 5.456720e+01 3.000000e+00
         vertex 1.488550e+01 1.241924e+02 3.000000e+00
      endloop
   endfacet
   facet normal 0.000000e+00 0.000000e+00 1.000000e+00
      outer loop
         vertex 1.488550e+01 1.241924e+02 3.000000e+00
         vertex 5.150240e+01 5.456720e+01 3.000000e+00
         vertex 5.164724e+01 5.508886e+01 3.000000e+00
      endloop
   endfacet
   facet normal 0.000000e+00 0.000000e+00 1.000000e+00
      outer loop
         vertex 1.488550e+01 1.241924e+02 3.000000e+00
         vertex 5.164724e+01 5.508886e+01 3.000000e+00
         vertex 5.184763e+01 5.559179e+01 3.000000e+00
      endloop
   endfacet
   facet normal 0.000000e+00 0.000000e+00 -1.000000e+00
      outer loop
         vertex 2.668548e+01 1.129236e+01 0.000000e+00
         vertex 1.488548e+01 1.129236e+01 0.000000e+00
         vertex 1.488548e+01 3.028924e+01 0.000000e+00
      endloop
   endfacet
   facet normal 0.000000e+00 -0.000000e+00 -1.000000e+00
      outer loop
         vertex 9.788550e+01 1.241923e+02 0.000000e+00
         vertex 9.788550e+01 3.495462e+00 0.000000e+00
         vertex 6.893548e+01 3.493536e+00 0.000000e+00
      endloop
   endfacet
   facet normal 0.000000e+00 0.000000e+00 -1.000000e+00
      outer loop
         vertex 6.893548e+01 0.000000e+00 0.000000e+00
         vertex 5.888548e+01 0.000000e+00 0.000000e+00
         vertex 6.893548e+01 3.493536e+00 0.000000e+00
      endloop
   endfacet
   facet normal -0.000000e+00 0.000000e+00 -1.000000e+00
      outer loop
         vertex 6.893548e+01 3.493536e+00 0.000000e+00
         vertex 5.888548e+01 0.000000e+00 0.000000e+00
         vertex 5.888548e+01 3.500000e+00 0.000000e+00
      endloop
   endfacet
   facet normal 0.000000e+00 0.000000e+00 -1.000000e+00
      outer loop
         vertex 6.893548e+01 3.493536e+00 0.000000e+00
         vertex 5.888548e+01 3.500000e+00 0.000000e+00
         vertex 9.788550e+01 1.241923e+02 0.000000e+00
      endloop
   endfacet
   facet normal 0.000000e+00 0.000000e+00 -1.000000e+00
      outer loop
         vertex 5.388548e+01 0.000000e+00 0.000000e+00
         vertex 4.383548e+01 0.000000e+00 0.000000e+00
         vertex 5.388548e+01 3.500000e+00 0.000000e+00
      endloop
   endfacet
   facet normal 0.000000e+00 0.000000e+00 -1.000000e+00
      outer loop
         vertex 5.388548e+01 3.500000e+00 0.000000e+00
         vertex 4.383548e+01 0.000000e+00 0.000000e+00
         vertex 4.383548e+01 3.493536e+00 0.000000e+00
      endloop
   endfacet
   facet normal 0.000000e+00 0.000000e+00 -1.000000e+00
      outer loop
         vertex 1.488548e+01 3.028924e+01 0.000000e+00
         vertex 5.388548e+01 3.500000e+00 0.000000e+00
         vertex 2.668548e+01 1.129236e+01 0.000000e+00
      endloop
   endfacet
   facet normal 0.000000e+00 0.000000e+00 -1.000000e+00
      outer loop
         vertex 2.668548e+01 1.129236e+01 0.000000e+00
         vertex 5.388548e+01 3.500000e+00 0.000000e+00
         vertex 4.383548e+01 3.493536e+00 0.000000e+00
      endloop
   endfacet
   facet normal 0.000000e+00 0.000000e+00 -1.000000e+00
      outer loop
         vertex 2.668548e+01 1.129236e+01 0.000000e+00
         vertex 4.383548e+01 3.493536e+00 0.000000e+00
         vertex 2.668548e+01 8.292355e+00 0.000000e+00
      endloop
   endfacet
   facet normal 0.000000e+00 -0.000000e+00 -1.000000e+00
      outer loop
         vertex 2.668548e+01 8.292355e+00 0.000000e+00
         vertex 4.383548e+01 3.493536e+00 0.000000e+00
         vertex 1.488548e+01 3.501911e+00 0.000000e+00
      endloop
   endfacet
   facet normal -0.000000e+00 0.000000e+00 -1.000000e+00
      outer loop
         vertex 2.668548e+01 8.292355e+00 0.000000e+00
         vertex 1.488548e+01 3.501911e+00 0.000000e+00
         vertex 1.488548e+01 8.292355e+00 0.000000e+00
      endloop
   endfacet
   facet normal 0.000000e+00 0.000000e+00 -1.000000e+00
      outer loop
         vertex 5.141481e+01 5.403294e+01 0.000000e+00
         vertex 5.138551e+01 5.349235e+01 0.000000e+00
         vertex 1.488548e+01 3.028924e+01 0.000000e+00
      endloop
   endfacet
   facet normal 0.000000e+00 0.000000e+00 -1.000000e+00
      outer loop
         vertex 1.488548e+01 3.028924e+01 0.000000e+00
         vertex 5.138551e+01 5.349235e+01 0.000000e+00
         vertex 5.141481e+01 5.295175e+01 0.000000e+00
      endloop
   endfacet
   facet normal 0.000000e+00 -0.000000e+00 -1.000000e+00
      outer loop
         vertex 5.141481e+01 5.295175e+01 0.000000e+00
         vertex 5.150240e+01 5.241750e+01 0.000000e+00
         vertex 1.488548e+01 3.028924e+01 0.000000e+00
      endloop
   endfacet
   facet normal 0.000000e+00 0.000000e+00 -1.000000e+00
      outer loop
         vertex 1.488548e+01 3.028924e+01 0.000000e+00
         vertex 5.150240e+01 5.241750e+01 0.000000e+00
         vertex 5.164724e+01 5.189584e+01 0.000000e+00
      endloop
   endfacet
   facet normal 0.000000e+00 0.000000e+00 -1.000000e+00
      outer loop
         vertex 1.488548e+01 3.028924e+01 0.000000e+00
         vertex 5.164724e+01 5.189584e+01 0.000000e+00
         vertex 5.184763e+01 5.139290e+01 0.000000e+00
      endloop
   endfacet
   facet normal 0.000000e+00 -0.000000e+00 -1.000000e+00
      outer loop
         vertex 5.962244e+01 4.968154e+01 0.000000e+00
         vertex 6.001548e+01 5.005385e+01 0.000000e+00
         vertex 5.888548e+01 3.500000e+00 0.000000e+00
      endloop
   endfacet
   facet normal 0.000000e+00 0.000000e+00 -1.000000e+00
      outer loop
         vertex 5.888548e+01 3.500000e+00 0.000000e+00
         vertex 6.001548e+01 5.005385e+01 0.000000e+00
         vertex 6.036597e+01 5.046648e+01 0.000000e+00
      endloop
   endfacet
   facet normal 0.000000e+00 0.000000e+00 -1.000000e+00
      outer loop
         vertex 5.888548e+01 3.500000e+00 0.000000e+00
         vertex 6.036597e+01 5.046648e+01 0.000000e+00
         vertex 6.066979e+01 5.091458e+01 0.000000e+00
      endloop
   endfacet
   facet normal 0.000000e+00 -0.000000e+00 -1.000000e+00
      outer loop
         vertex 5.184763e+01 5.139290e+01 0.000000e+00
         vertex 5.210122e+01 5.091458e+01 0.000000e+00
         vertex 1.488548e+01 3.028924e+01 0.000000e+00
      endloop
   endfacet
   facet normal 0.000000e+00 0.000000e+00 -1.000000e+00
      outer loop
         vertex 1.488548e+01 3.028924e+01 0.000000e+00
         vertex 5.210122e+01 5.091458e+01 0.000000e+00
         vertex 5.240504e+01 5.046648e+01 0.000000e+00
      endloop
   endfacet
   facet normal 0.000000e+00 0.000000e+00 -1.000000e+00
      outer loop
         vertex 1.488548e+01 3.028924e+01 0.000000e+00
         vertex 5.240504e+01 5.046648e+01 0.000000e+00
         vertex 5.275553e+01 5.005385e+01 0.000000e+00
      endloop
   endfacet
   facet normal 0.000000e+00 0.000000e+00 -1.000000e+00
      outer loop
         vertex 5.388548e+01 3.500000e+00 0.000000e+00
         vertex 5.453482e+01 4.884746e+01 0.000000e+00
         vertex 5.504786e+01 4.867460e+01 0.000000e+00
      endloop
   endfacet
   facet normal 0.000000e+00 0.000000e+00 -1.000000e+00
      outer loop
         vertex 9.788550e+01 1.241923e+02 0.000000e+00
         vertex 6.126861e+01 5.456720e+01 0.000000e+00
         vertex 6.112377e+01 5.508886e+01 0.000000e+00
      endloop
   endfacet
   facet normal 0.000000e+00 0.000000e+00 -1.000000e+00
      outer loop
         vertex 5.919144e+01 5.763079e+01 0.000000e+00
         vertex 5.872755e+01 5.790991e+01 0.000000e+00
         vertex 9.788550e+01 1.241923e+02 0.000000e+00
      endloop
   endfacet
   facet normal 0.000000e+00 0.000000e+00 -1.000000e+00
      outer loop
         vertex 9.788550e+01 1.241923e+02 0.000000e+00
         vertex 5.872755e+01 5.790991e+01 0.000000e+00
         vertex 5.823620e+01 5.813723e+01 0.000000e+00
      endloop
   endfacet
   facet normal 0.000000e+00 0.000000e+00 -1.000000e+00
      outer loop
         vertex 9.788550e+01 1.241923e+02 0.000000e+00
         vertex 5.823620e+01 5.813723e+01 0.000000e+00
         vertex 5.772315e+01 5.831010e+01 0.000000e+00
      endloop
   endfacet
   facet normal -0.000000e+00 0.000000e+00 -1.000000e+00
      outer loop
         vertex 5.404346e+01 5.790991e+01 0.000000e+00
         vertex 5.357957e+01 5.763079e+01 0.000000e+00
         vertex 1.488550e+01 1.241924e+02 0.000000e+00
      endloop
   endfacet
   facet normal 0.000000e+00 0.000000e+00 -1.000000e+00
      outer loop
         vertex 1.488550e+01 1.241924e+02 0.000000e+00
         vertex 5.357957e+01 5.763079e+01 0.000000e+00
         vertex 5.314858e+01 5.730316e+01 0.000000e+00
      endloop
   endfacet
   facet normal 0.000000e+00 -0.000000e+00 -1.000000e+00
      outer loop
         vertex 5.275553e+01 5.005385e+01 0.000000e+00
         vertex 5.314858e+01 4.968154e+01 0.000000e+00
         vertex 1.488548e+01 3.028924e+01 0.000000e+00
      endloop
   endfacet
   facet normal 0.000000e+00 0.000000e+00 -1.000000e+00
      outer loop
         vertex 1.488548e+01 3.028924e+01 0.000000e+00
         vertex 5.314858e+01 4.968154e+01 0.000000e+00
         vertex 5.357957e+01 4.935390e+01 0.000000e+00
      endloop
   endfacet
   facet normal 0.000000e+00 0.000000e+00 -1.000000e+00
      outer loop
         vertex 1.488548e+01 3.028924e+01 0.000000e+00
         vertex 5.357957e+01 4.935390e+01 0.000000e+00
         vertex 5.388548e+01 3.500000e+00 0.000000e+00
      endloop
   endfacet
   facet normal 0.000000e+00 0.000000e+00 -1.000000e+00
      outer loop
         vertex 5.388548e+01 3.500000e+00 0.000000e+00
         vertex 5.357957e+01 4.935390e+01 0.000000e+00
         vertex 5.404346e+01 4.907479e+01 0.000000e+00
      endloop
   endfacet
   facet normal 0.000000e+00 0.000000e+00 -1.000000e+00
      outer loop
         vertex 5.388548e+01 3.500000e+00 0.000000e+00
         vertex 5.404346e+01 4.907479e+01 0.000000e+00
         vertex 5.453482e+01 4.884746e+01 0.000000e+00
      endloop
   endfacet
   facet normal 0.000000e+00 0.000000e+00 -1.000000e+00
      outer loop
         vertex 6.135619e+01 5.295175e+01 0.000000e+00
         vertex 6.138550e+01 5.349235e+01 0.000000e+00
         vertex 9.788550e+01 1.241923e+02 0.000000e+00
      endloop
   endfacet
   facet normal 0.000000e+00 0.000000e+00 -1.000000e+00
      outer loop
         vertex 9.788550e+01 1.241923e+02 0.000000e+00
         vertex 6.138550e+01 5.349235e+01 0.000000e+00
         vertex 6.135619e+01 5.403294e+01 0.000000e+00
      endloop
   endfacet
   facet normal 0.000000e+00 0.000000e+00 -1.000000e+00
      outer loop
         vertex 9.788550e+01 1.241923e+02 0.000000e+00
         vertex 6.135619e+01 5.403294e+01 0.000000e+00
         vertex 6.126861e+01 5.456720e+01 0.000000e+00
      endloop
   endfacet
   facet normal 0.000000e+00 0.000000e+00 -1.000000e+00
      outer loop
         vertex 6.112377e+01 5.508886e+01 0.000000e+00
         vertex 6.092338e+01 5.559179e+01 0.000000e+00
         vertex 9.788550e+01 1.241923e+02 0.000000e+00
      endloop
   endfacet
   facet normal 0.000000e+00 0.000000e+00 -1.000000e+00
      outer loop
         vertex 9.788550e+01 1.241923e+02 0.000000e+00
         vertex 6.092338e+01 5.559179e+01 0.000000e+00
         vertex 6.066979e+01 5.607012e+01 0.000000e+00
      endloop
   endfacet
   facet normal 0.000000e+00 0.000000e+00 -1.000000e+00
      outer loop
         vertex 9.788550e+01 1.241923e+02 0.000000e+00
         vertex 6.066979e+01 5.607012e+01 0.000000e+00
         vertex 6.036597e+01 5.651822e+01 0.000000e+00
      endloop
   endfacet
   facet normal 0.000000e+00 0.000000e+00 -1.000000e+00
      outer loop
         vertex 5.772315e+01 5.831010e+01 0.000000e+00
         vertex 5.719442e+01 5.842648e+01 0.000000e+00
         vertex 9.788550e+01 1.241923e+02 0.000000e+00
      endloop
   endfacet
   facet normal 0.000000e+00 0.000000e+00 -1.000000e+00
      outer loop
         vertex 9.788550e+01 1.241923e+02 0.000000e+00
         vertex 5.719442e+01 5.842648e+01 0.000000e+00
         vertex 5.665620e+01 5.848501e+01 0.000000e+00
      endloop
   endfacet
   facet normal -0.000000e+00 0.000000e+00 -1.000000e+00
      outer loop
         vertex 9.788550e+01 1.241923e+02 0.000000e+00
         vertex 5.665620e+01 5.848501e+01 0.000000e+00
         vertex 1.488550e+01 1.241924e+02 0.000000e+00
      endloop
   endfacet
   facet normal 0.000000e+00 0.000000e+00 -1.000000e+00
      outer loop
         vertex 1.488550e+01 1.241924e+02 0.000000e+00
         vertex 5.665620e+01 5.848501e+01 0.000000e+00
         vertex 5.611481e+01 5.848501e+01 0.000000e+00
      endloop
   endfacet
   facet normal 0.000000e+00 0.000000e+00 -1.000000e+00
      outer loop
         vertex 1.488550e+01 1.241924e+02 0.000000e+00
         vertex 5.611481e+01 5.848501e+01 0.000000e+00
         vertex 5.557660e+01 5.842648e+01 0.000000e+00
      endloop
   endfacet
   facet normal -0.000000e+00 0.000000e+00 -1.000000e+00
      outer loop
         vertex 5.314858e+01 5.730316e+01 0.000000e+00
         vertex 5.275553e+01 5.693085e+01 0.000000e+00
         vertex 1.488550e+01 1.241924e+02 0.000000e+00
      endloop
   endfacet
   facet normal 0.000000e+00 0.000000e+00 -1.000000e+00
      outer loop
         vertex 1.488550e+01 1.241924e+02 0.000000e+00
         vertex 5.275553e+01 5.693085e+01 0.000000e+00
         vertex 5.240504e+01 5.651822e+01 0.000000e+00
      endloop
   endfacet
   facet normal 0.000000e+00 0.000000e+00 -1.000000e+00
      outer loop
         vertex 1.488550e+01 1.241924e+02 0.000000e+00
         vertex 5.240504e+01 5.651822e+01 0.000000e+00
         vertex 5.210122e+01 5.607012e+01 0.000000e+00
      endloop
   endfacet
   facet normal 0.000000e+00 0.000000e+00 -1.000000e+00
      outer loop
         vertex 5.719442e+01 4.855822e+01 0.000000e+00
         vertex 5.772315e+01 4.867460e+01 0.000000e+00
         vertex 5.888548e+01 3.500000e+00 0.000000e+00
      endloop
   endfacet
   facet normal 0.000000e+00 0.000000e+00 -1.000000e+00
      outer loop
         vertex 5.888548e+01 3.500000e+00 0.000000e+00
         vertex 5.772315e+01 4.867460e+01 0.000000e+00
         vertex 5.823620e+01 4.884746e+01 0.000000e+00
      endloop
   endfacet
   facet normal 0.000000e+00 -0.000000e+00 -1.000000e+00
      outer loop
         vertex 6.066979e+01 5.091458e+01 0.000000e+00
         vertex 6.092338e+01 5.139290e+01 0.000000e+00
         vertex 5.888548e+01 3.500000e+00 0.000000e+00
      endloop
   endfacet
   facet normal 0.000000e+00 0.000000e+00 -1.000000e+00
      outer loop
         vertex 5.888548e+01 3.500000e+00 0.000000e+00
         vertex 6.092338e+01 5.139290e+01 0.000000e+00
         vertex 6.112377e+01 5.189584e+01 0.000000e+00
      endloop
   endfacet
   facet normal 0.000000e+00 0.000000e+00 -1.000000e+00
      outer loop
         vertex 5.888548e+01 3.500000e+00 0.000000e+00
         vertex 6.112377e+01 5.189584e+01 0.000000e+00
         vertex 9.788550e+01 1.241923e+02 0.000000e+00
      endloop
   endfacet
   facet normal 0.000000e+00 0.000000e+00 -1.000000e+00
      outer loop
         vertex 9.788550e+01 1.241923e+02 0.000000e+00
         vertex 6.112377e+01 5.189584e+01 0.000000e+00
         vertex 6.126861e+01 5.241750e+01 0.000000e+00
      endloop
   endfacet
   facet normal 0.000000e+00 0.000000e+00 -1.000000e+00
      outer loop
         vertex 9.788550e+01 1.241923e+02 0.000000e+00
         vertex 6.126861e+01 5.241750e+01 0.000000e+00
         vertex 6.135619e+01 5.295175e+01 0.000000e+00
      endloop
   endfacet
   facet normal 0.000000e+00 0.000000e+00 -1.000000e+00
      outer loop
         vertex 6.036597e+01 5.651822e+01 0.000000e+00
         vertex 6.001548e+01 5.693085e+01 0.000000e+00
         vertex 9.788550e+01 1.241923e+02 0.000000e+00
      endloop
   endfacet
   facet normal 0.000000e+00 0.000000e+00 -1.000000e+00
      outer loop
         vertex 9.788550e+01 1.241923e+02 0.000000e+00
         vertex 6.001548e+01 5.693085e+01 0.000000e+00
         vertex 5.962244e+01 5.730316e+01 0.000000e+00
      endloop
   endfacet
   facet normal 0.000000e+00 0.000000e+00 -1.000000e+00
      outer loop
         vertex 9.788550e+01 1.241923e+02 0.000000e+00
         vertex 5.962244e+01 5.730316e+01 0.000000e+00
         vertex 5.919144e+01 5.763079e+01 0.000000e+00
      endloop
   endfacet
   facet normal -0.000000e+00 0.000000e+00 -1.000000e+00
      outer loop
         vertex 5.557660e+01 5.842648e+01 0.000000e+00
         vertex 5.504786e+01 5.831010e+01 0.000000e+00
         vertex 1.488550e+01 1.241924e+02 0.000000e+00
      endloop
   endfacet
   facet normal 0.000000e+00 0.000000e+00 -1.000000e+00
      outer loop
         vertex 1.488550e+01 1.241924e+02 0.000000e+00
         vertex 5.504786e+01 5.831010e+01 0.000000e+00
         vertex 5.453482e+01 5.813723e+01 0.000000e+00
      endloop
   endfacet
   facet normal 0.000000e+00 0.000000e+00 -1.000000e+00
      outer loop
         vertex 1.488550e+01 1.241924e+02 0.000000e+00
         vertex 5.453482e+01 5.813723e+01 0.000000e+00
         vertex 5.404346e+01 5.790991e+01 0.000000e+00
      endloop
   endfacet
   facet normal -0.000000e+00 0.000000e+00 -1.000000e+00
      outer loop
         vertex 5.210122e+01 5.607012e+01 0.000000e+00
         vertex 5.184763e+01 5.559179e+01 0.000000e+00
         vertex 1.488550e+01 1.241924e+02 0.000000e+00
      endloop
   endfacet
   facet normal 0.000000e+00 0.000000e+00 -1.000000e+00
      outer loop
         vertex 1.488550e+01 1.241924e+02 0.000000e+00
         vertex 5.184763e+01 5.559179e+01 0.000000e+00
         vertex 5.164724e+01 5.508886e+01 0.000000e+00
      endloop
   endfacet
   facet normal 0.000000e+00 -0.000000e+00 -1.000000e+00
      outer loop
         vertex 1.488550e+01 1.241924e+02 0.000000e+00
         vertex 5.164724e+01 5.508886e+01 0.000000e+00
         vertex 1.488548e+01 3.028924e+01 0.000000e+00
      endloop
   endfacet
   facet normal 0.000000e+00 0.000000e+00 -1.000000e+00
      outer loop
         vertex 1.488548e+01 3.028924e+01 0.000000e+00
         vertex 5.164724e+01 5.508886e+01 0.000000e+00
         vertex 5.150240e+01 5.456720e+01 0.000000e+00
      endloop
   endfacet
   facet normal 0.000000e+00 0.000000e+00 -1.000000e+00
      outer loop
         vertex 1.488548e+01 3.028924e+01 0.000000e+00
         vertex 5.150240e+01 5.456720e+01 0.000000e+00
         vertex 5.141481e+01 5.403294e+01 0.000000e+00
      endloop
   endfacet
   facet normal 0.000000e+00 0.000000e+00 -1.000000e+00
      outer loop
         vertex 5.823620e+01 4.884746e+01 0.000000e+00
         vertex 5.872755e+01 4.907479e+01 0.000000e+00
         vertex 5.888548e+01 3.500000e+00 0.000000e+00
      endloop
   endfacet
   facet normal 0.000000e+00 0.000000e+00 -1.000000e+00
      outer loop
         vertex 5.888548e+01 3.500000e+00 0.000000e+00
         vertex 5.872755e+01 4.907479e+01 0.000000e+00
         vertex 5.919144e+01 4.935390e+01 0.000000e+00
      endloop
   endfacet
   facet normal 0.000000e+00 0.000000e+00 -1.000000e+00
      outer loop
         vertex 5.888548e+01 3.500000e+00 0.000000e+00
         vertex 5.919144e+01 4.935390e+01 0.000000e+00
         vertex 5.962244e+01 4.968154e+01 0.000000e+00
      endloop
   endfacet
   facet normal 0.000000e+00 -0.000000e+00 -1.000000e+00
      outer loop
         vertex 5.504786e+01 4.867460e+01 0.000000e+00
         vertex 5.557660e+01 4.855822e+01 0.000000e+00
         vertex 5.388548e+01 3.500000e+00 0.000000e+00
      endloop
   endfacet
   facet normal 0.000000e+00 0.000000e+00 -1.000000e+00
      outer loop
         vertex 5.388548e+01 3.500000e+00 0.000000e+00
         vertex 5.557660e+01 4.855822e+01 0.000000e+00
         vertex 5.611481e+01 4.849968e+01 0.000000e+00
      endloop
   endfacet
   facet normal 0.000000e+00 0.000000e+00 -1.000000e+00
      outer loop
         vertex 5.388548e+01 3.500000e+00 0.000000e+00
         vertex 5.611481e+01 4.849968e+01 0.000000e+00
         vertex 5.888548e+01 3.500000e+00 0.000000e+00
      endloop
   endfacet
   facet normal 0.000000e+00 0.000000e+00 -1.000000e+00
      outer loop
         vertex 5.888548e+01 3.500000e+00 0.000000e+00
         vertex 5.611481e+01 4.849968e+01 0.000000e+00
         vertex 5.665620e+01 4.849968e+01 0.000000e+00
      endloop
   endfacet
   facet normal 0.000000e+00 0.000000e+00 -1.000000e+00
      outer loop
         vertex 5.888548e+01 3.500000e+00 0.000000e+00
         vertex 5.665620e+01 4.849968e+01 0.000000e+00
         vertex 5.719442e+01 4.855822e+01 0.000000e+00
      endloop
   endfacet
endsolid