999
dxflib 3.12.2.0
  0
SECTION
  2
HEADER
  9
$ACADVER
  1
AC1015
  9
$HANDSEED
  5
FFFF
  9
$DIMADEC
 70
0
  9
$DIMASZ
 40
2.5
  9
$DIMAUNIT
 70
0
  9
$DIMAZIN
 70
2
  9
$DIMDEC
 70
4
  9
$DIMEXE
 40
1.25
  9
$DIMEXO
 40
0.625
  9
$DIMGAP
 40
0.625
  9
$DIMLUNIT
 70
2
  9
$DIMSCALE
 40
1.0
  9
$DIMTSZ
 40
0.0
  9
$DIMTXT
 40
2.5
  9
$DIMZIN
 70
8
  9
$DWGCODEPAGE
  3
ANSI_1252
  9
$INSUNITS
 70
4
  9
$LTSCALE
 40
1.0
  9
$MEASUREMENT
 70
1
  9
$PDMODE
 70
0
  9
$PDSIZE
 40
0
  0
ENDSEC
  0
SECTION
  2
TABLES
  0
TABLE
  2
VPORT
  5
8
100
AcDbSymbolTable
 70
1
  0
VPORT
  5
30
100
AcDbSymbolTableRecord
100
AcDbViewportTableRecord
  2
*Active
 70
0
 10
0.0
 20
0.0
 11
1.0
 21
1.0
 12
286.30555555555549
 22
148.5
 13
0.0
 23
0.0
 14
10.0
 24
10.0
 15
10.0
 25
10.0
 16
0.0
 26
0.0
 36
1.0
 17
0.0
 27
0.0
 37
0.0
 40
297.0
 41
1.92798353909465
 42
50.0
 43
0.0
 44
0.0
 50
0.0
 51
0.0
 71
0
 72
100
 73
1
 74
3
 75
1
 76
1
 77
0
 78
0
281
0
 65
1
110
0.0
120
0.0
130
0.0
111
1.0
121
0.0
131
0.0
112
0.0
122
1.0
132
0.0
 79
0
146
0.0
  0
ENDTAB
  0
TABLE
  2
LTYPE
  5
5
100
AcDbSymbolTable
 70
50
  0
LTYPE
  5
16
100
AcDbSymbolTableRecord
100
AcDbLinetypeTableRecord
  2
Continuous
 70
0
  3
Solid line
 72
65
 73
0
 40
0.0
  0
LTYPE
  5
31
100
AcDbSymbolTableRecord
100
AcDbLinetypeTableRecord
  2
ACAD_ISO15W100
 70
0
  3
ISO double-dash triple-dot __ __ . . . __ __ . .
 72
65
 73
10
 40
39.0
 49
12.0
 74
0
 49
-3.0
 74
0
 49
12.0
 74
0
 49
-3.0
 74
0
 49
0.0
 74
0
 49
-3.0
 74
0
 49
0.0
 74
0
 49
-3.0
 74
0
 49
0.0
 74
0
 49
-3.0
 74
0
  0
LTYPE
  5
32
100
AcDbSymbolTableRecord
100
AcDbLinetypeTableRecord
  2
HOT_WATER_SUPPLY
 70
0
  3
Hot water supply ---- HW ---- HW ---- HW ----
 72
65
 73
3
 40
22.859999999999999
 49
12.699999999999999
 74
0
 49
-5.0800000000000001
 74
0
 49
-5.0800000000000001
 74
0
  0
LTYPE
  5
33
100
AcDbSymbolTableRecord
100
AcDbLinetypeTableRecord
  2
DIVIDE
 70
0
  3
Divide ____ . . ____ . . ____ . . ____ . . ____
 72
65
 73
6
 40
31.75
 49
12.699999999999999
 74
0
 49
-6.3499999999999996
 74
0
 49
0.0
 74
0
 49
-6.3499999999999996
 74
0
 49
0.0
 74
0
 49
-6.3499999999999996
 74
0
  0
LTYPE
  5
34
100
AcDbSymbolTableRecord
100
AcDbLinetypeTableRecord
  2
ACAD_ISO10W100
 70
0
  3
ISO dash dot __ . __ . __ . __ . __ . __ . __ . 
 72
65
 73
4
 40
18.0
 49
12.0
 74
0
 49
-3.0
 74
0
 49
0.0
 74
0
 49
-3.0
 74
0
  0
LTYPE
  5
35
100
AcDbSymbolTableRecord
100
AcDbLinetypeTableRecord
  2
GAS_LINE
 70
0
  3
Gas line ----GAS----GAS----GAS----GAS----GAS----GAS--
 72
65
 73
3
 40
24.130000000000003
 49
12.699999999999999
 74
0
 49
-5.0800000000000001
 74
0
 49
-6.3499999999999996
 74
0
  0
LTYPE
  5
36
100
AcDbSymbolTableRecord
100
AcDbLinetypeTableRecord
  2
ACAD_ISO04W100
 70
0
  3
ISO long-dash dot ____ . ____ . ____ . ____ . _
 72
65
 73
4
 40
30.0
 49
24.0
 74
0
 49
-3.0
 74
0
 49
0.0
 74
0
 49
-3.0
 74
0
  0
LTYPE
  5
37
100
AcDbSymbolTableRecord
100
AcDbLinetypeTableRecord
  2
CENTER2
 70
0
  3
Center (.5x) ___ _ ___ _ ___ _ ___ _ ___ _ ___
 72
65
 73
4
 40
28.575000000000003
 49
19.050000000000001
 74
0
 49
-3.1749999999999998
 74
0
 49
3.1749999999999998
 74
0
 49
-3.1749999999999998
 74
0
  0
LTYPE
  5
38
100
AcDbSymbolTableRecord
100
AcDbLinetypeTableRecord
  2
ACAD_ISO11W100
 70
0
  3
ISO double-dash dot __ __ . __ __ . __ __ . __ _
 72
65
 73
6
 40
33.0
 49
12.0
 74
0
 49
-3.0
 74
0
 49
12.0
 74
0
 49
-3.0
 74
0
 49
0.0
 74
0
 49
-3.0
 74
0
  0
LTYPE
  5
39
100
AcDbSymbolTableRecord
100
AcDbLinetypeTableRecord
  2
HIDDEN2
 70
0
  3
Hidden (.5x) _ _ _ _ _ _ _ _ _ _ _ _ _ _ _ _ _ 
 72
65
 73
2
 40
4.7624999999999993
 49
3.1749999999999998
 74
0
 49
-1.5874999999999999
 74
0
  0
LTYPE
  5
3A
100
AcDbSymbolTableRecord
100
AcDbLinetypeTableRecord
  2
BORDERX2
 70
0
  3
Border (2x) ____  ____  .  ____  ____  .  ___
 72
65
 73
6
 40
88.899999999999991
 49
25.399999999999999
 74
0
 49
-12.699999999999999
 74
0
 49
25.399999999999999
 74
0
 49
-12.699999999999999
 74
0
 49
0.0
 74
0
 49
-12.699999999999999
 74
0
  0
LTYPE
  5
3B
100
AcDbSymbolTableRecord
100
AcDbLinetypeTableRecord
  2
ACAD_ISO05W100
 70
0
  3
ISO long-dash double-dot ____ .. ____ .. ____ . 
 72
65
 73
6
 40
33.0
 49
24.0
 74
0
 49
-3.0
 74
0
 49
0.0
 74
0
 49
-3.0
 74
0
 49
0.0
 74
0
 49
-3.0
 74
0
  0
LTYPE
  5
3C
100
AcDbSymbolTableRecord
100
AcDbLinetypeTableRecord
  2
DASHDOTX2
 70
0
  3
Dash dot (2x) ____  .  ____  .  ____  .  ___
 72
65
 73
4
 40
50.799999999999997
 49
25.399999999999999
 74
0
 49
-12.699999999999999
 74
0
 49
0.0
 74
0
 49
-12.699999999999999
 74
0
  0
LTYPE
  5
3D
100
AcDbSymbolTableRecord
100
AcDbLinetypeTableRecord
  2
HIDDENX2
 70
0
  3
Hidden (2x) ____ ____ ____ ____ ____ ____ ____ 
 72
65
 73
2
 40
19.049999999999997
 49
12.699999999999999
 74
0
 49
-6.3499999999999996
 74
0
  0
LTYPE
  5
3E
100
AcDbSymbolTableRecord
100
AcDbLinetypeTableRecord
  2
CENTERX2
 70
0
  3
Center (2x) ________  __  ________  __  _____
 72
65
 73
4
 40
101.60000000000001
 49
63.5
 74
0
 49
-12.699999999999999
 74
0
 49
12.699999999999999
 74
0
 49
-12.699999999999999
 74
0
  0
LTYPE
  5
3F
100
AcDbSymbolTableRecord
100
AcDbLinetypeTableRecord
  2
BORDER2
 70
0
  3
Border (.5x) __.__.__.__.__.__.__.__.__.__.__.
 72
65
 73
6
 40
22.224999999999998
 49
6.3499999999999996
 74
0
 49
-3.1749999999999998
 74
0
 49
6.3499999999999996
 74
0
 49
-3.1749999999999998
 74
0
 49
0.0
 74
0
 49
-3.1749999999999998
 74
0
  0
LTYPE
  5
40
100
AcDbSymbolTableRecord
100
AcDbLinetypeTableRecord
  2
DASHDOT2
 70
0
  3
Dash dot (.5x) _._._._._._._._._._._._._._._.
 72
65
 73
4
 40
12.699999999999999
 49
6.3499999999999996
 74
0
 49
-3.1749999999999998
 74
0
 49
0.0
 74
0
 49
-3.1749999999999998
 74
0
  0
LTYPE
  5
41
100
AcDbSymbolTableRecord
100
AcDbLinetypeTableRecord
  2
ACAD_ISO12W100
 70
0
  3
ISO dash double-dot __ . . __ . . __ . . __ . . 
 72
65
 73
6
 40
21.0
 49
12.0
 74
0
 49
-3.0
 74
0
 49
0.0
 74
0
 49
-3.0
 74
0
 49
0.0
 74
0
 49
-3.0
 74
0
  0
LTYPE
  5
42
100
AcDbSymbolTableRecord
100
AcDbLinetypeTableRecord
  2
ACAD_ISO07W100
 70
0
  3
ISO dot . . . . . . . . . . . . . . . . . . . . 
 72
65
 73
2
 40
3.0
 49
0.0
 74
0
 49
-3.0
 74
0
  0
LTYPE
  5
43
100
AcDbSymbolTableRecord
100
AcDbLinetypeTableRecord
  2
ACAD_ISO06W100
 70
0
  3
ISO long-dash triple-dot ____ ... ____ ... ____
 72
65
 73
8
 40
36.0
 49
24.0
 74
0
 49
-3.0
 74
0
 49
0.0
 74
0
 49
-3.0
 74
0
 49
0.0
 74
0
 49
-3.0
 74
0
 49
0.0
 74
0
 49
-3.0
 74
0
  0
LTYPE
  5
44
100
AcDbSymbolTableRecord
100
AcDbLinetypeTableRecord
  2
CENTER
 70
0
  3
Center ____ _ ____ _ ____ _ ____ _ ____ _ ____
 72
65
 73
4
 40
50.800000000000004
 49
31.75
 74
0
 49
-6.3499999999999996
 74
0
 49
6.3499999999999996
 74
0
 49
-6.3499999999999996
 74
0
  0
LTYPE
  5
45
100
AcDbSymbolTableRecord
100
AcDbLinetypeTableRecord
  2
HIDDEN
 70
0
  3
Hidden __ __ __ __ __ __ __ __ __ __ __ __ __ __
 72
65
 73
2
 40
9.5249999999999986
 49
6.3499999999999996
 74
0
 49
-3.1749999999999998
 74
0
  0
LTYPE
  5
46
100
AcDbSymbolTableRecord
100
AcDbLinetypeTableRecord
  2
DOTX2
 70
0
  3
Dot (2x) .  .  .  .  .  .  .  .  .  .  .  .  .  .
 72
65
 73
2
 40
12.699999999999999
 49
0.0
 74
0
 49
-12.699999999999999
 74
0
  0
LTYPE
  5
47
100
AcDbSymbolTableRecord
100
AcDbLinetypeTableRecord
  2
PHANTOM
 70
0
  3
Phantom ______  __  __  ______  __  __  ______ 
 72
65
 73
6
 40
63.500000000000007
 49
31.75
 74
0
 49
-6.3499999999999996
 74
0
 49
6.3499999999999996
 74
0
 49
-6.3499999999999996
 74
0
 49
6.3499999999999996
 74
0
 49
-6.3499999999999996
 74
0
  0
LTYPE
  5
48
100
AcDbSymbolTableRecord
100
AcDbLinetypeTableRecord
  2
ACAD_ISO08W100
 70
0
  3
ISO long-dash short-dash ____ __ ____ __ ____ _
 72
65
 73
4
 40
36.0
 49
24.0
 74
0
 49
-3.0
 74
0
 49
6.0
 74
0
 49
-3.0
 74
0
  0
LTYPE
  5
49
100
AcDbSymbolTableRecord
100
AcDbLinetypeTableRecord
  2
DASHEDX2
 70
0
  3
Dashed (2x) ____  ____  ____  ____  ____  ___
 72
65
 73
2
 40
38.099999999999994
 49
25.399999999999999
 74
0
 49
-12.699999999999999
 74
0
  0
LTYPE
  5
4A
100
AcDbSymbolTableRecord
100
AcDbLinetypeTableRecord
  2
DRAINAGE
 70
0
  3
Drainage ---->---->---->----
 72
65
 73
2
 40
10.16
 49
5.0800000000000001
 74
0
 49
5.0800000000000001
 74
0
  0
LTYPE
  5
4B
100
AcDbSymbolTableRecord
100
AcDbLinetypeTableRecord
  2
ACAD_ISO02W100
 70
0
  3
ISO dash __ __ __ __ __ __ __ __ __ __ __ __ __
 72
65
 73
2
 40
15.0
 49
12.0
 74
0
 49
-3.0
 74
0
  0
LTYPE
  5
4C
100
AcDbSymbolTableRecord
100
AcDbLinetypeTableRecord
  2
PHANTOM2
 70
0
  3
Phantom (.5x) ___ _ _ ___ _ _ ___ _ _ ___ _ _
 72
65
 73
6
 40
31.750000000000004
 49
15.875
 74
0
 49
-3.1749999999999998
 74
0
 49
3.1749999999999998
 74
0
 49
-3.1749999999999998
 74
0
 49
3.1749999999999998
 74
0
 49
-3.1749999999999998
 74
0
  0
LTYPE
  5
4D
100
AcDbSymbolTableRecord
100
AcDbLinetypeTableRecord
  2
DASHED2
 70
0
  3
Dashed (.5x) _ _ _ _ _ _ _ _ _ _ _ _ _ _ _ _ _ 
 72
65
 73
2
 40
9.5249999999999986
 49
6.3499999999999996
 74
0
 49
-3.1749999999999998
 74
0
  0
LTYPE
  5
4E
100
AcDbSymbolTableRecord
100
AcDbLinetypeTableRecord
  2
ACAD_ISO09W100
 70
0
  3
ISO long-dash double-short-dash ____ __ __ ____
 72
65
 73
6
 40
45.0
 49
24.0
 74
0
 49
-3.0
 74
0
 49
6.0
 74
0
 49
-3.0
 74
0
 49
6.0
 74
0
 49
-3.0
 74
0
  0
LTYPE
  5
4F
100
AcDbSymbolTableRecord
100
AcDbLinetypeTableRecord
  2
ACAD_ISO13W100
 70
0
  3
ISO double-dash double-dot __ __ . . __ __ . . _
 72
65
 73
8
 40
36.0
 49
12.0
 74
0
 49
-3.0
 74
0
 49
12.0
 74
0
 49
-3.0
 74
0
 49
0.0
 74
0
 49
-3.0
 74
0
 49
0.0
 74
0
 49
-3.0
 74
0
  0
LTYPE
  5
50
100
AcDbSymbolTableRecord
100
AcDbLinetypeTableRecord
  2
TRACKS
 70
0
  3
Tracks -|-|-|-|-|-|-|-|-|-|-|-|-|-|-|-|-|-|-|-|-|-|-|-|-
 72
65
 73
2
 40
7.6200000000000001
 49
3.8100000000000001
 74
0
 49
3.8100000000000001
 74
0
  0
LTYPE
  5
51
100
AcDbSymbolTableRecord
100
AcDbLinetypeTableRecord
  2
DRAINAGE2
 70
0
  3
Drainage reversed----<----<----<----
 72
65
 73
2
 40
10.16
 49
5.0800000000000001
 74
0
 49
5.0800000000000001
 74
0
  0
LTYPE
  5
52
100
AcDbSymbolTableRecord
100
AcDbLinetypeTableRecord
  2
DOT2
 70
0
  3
Dot (.5x) ........................................
 72
65
 73
2
 40
3.1749999999999998
 49
0.0
 74
0
 49
-3.1749999999999998
 74
0
  0
LTYPE
  5
53
100
AcDbSymbolTableRecord
100
AcDbLinetypeTableRecord
  2
ZIGZAG
 70
0
  3
Zig zag /\/\/\/\/\/\/\/\/\/\/\/\/\/\/\/\/\/\/\/\/\/\/\/
 72
65
 73
4
 40
20.32254
 49
0.00254
 74
0
 49
-5.0800000000000001
 74
0
 49
-10.16
 74
0
 49
-5.0800000000000001
 74
0
  0
LTYPE
  5
54
100
AcDbSymbolTableRecord
100
AcDbLinetypeTableRecord
  2
DASHED
 70
0
  3
Dashed __ __ __ __ __ __ __ __ __ __ __ __ __ _
 72
65
 73
2
 40
19.049999999999997
 49
12.699999999999999
 74
0
 49
-6.3499999999999996
 74
0
  0
LTYPE
  5
55
100
AcDbSymbolTableRecord
100
AcDbLinetypeTableRecord
  2
ACAD_ISO14W100
 70
0
  3
ISO dash triple-dot __ . . . __ . . . __ . . . _
 72
65
 73
8
 40
24.0
 49
12.0
 74
0
 49
-3.0
 74
0
 49
0.0
 74
0
 49
-3.0
 74
0
 49
0.0
 74
0
 49
-3.0
 74
0
 49
0.0
 74
0
 49
-3.0
 74
0
  0
LTYPE
  5
15
100
AcDbSymbolTableRecord
100
AcDbLinetypeTableRecord
  2
BYLAYER
 70
0
  3

 72
65
 73
0
 40
0.0
  0
LTYPE
  5
56
100
AcDbSymbolTableRecord
100
AcDbLinetypeTableRecord
  2
PHANTOMX2
 70
0
  3
Phantom (2x) ____________    ____    ____   _
 72
65
 73
6
 40
127.00000000000001
 49
63.5
 74
0
 49
-12.699999999999999
 74
0
 49
12.699999999999999
 74
0
 49
-12.699999999999999
 74
0
 49
12.699999999999999
 74
0
 49
-12.699999999999999
 74
0
  0
LTYPE
  5
14
100
AcDbSymbolTableRecord
100
AcDbLinetypeTableRecord
  2
BYBLOCK
 70
0
  3

 72
65
 73
0
 40
0.0
  0
LTYPE
  5
57
100
AcDbSymbolTableRecord
100
AcDbLinetypeTableRecord
  2
DIVIDEX2
 70
0
  3
Divide (2x) ________  .  .  ________  .  .  _
 72
65
 73
6
 40
63.5
 49
25.399999999999999
 74
0
 49
-12.699999999999999
 74
0
 49
0.0
 74
0
 49
-12.699999999999999
 74
0
 49
0.0
 74
0
 49
-12.699999999999999
 74
0
  0
LTYPE
  5
58
100
AcDbSymbolTableRecord
100
AcDbLinetypeTableRecord
  2
BORDER
 70
0
  3
Border __ __ . __ __ . __ __ . __ __ . __ __ .
 72
65
 73
6
 40
44.449999999999996
 49
12.699999999999999
 74
0
 49
-6.3499999999999996
 74
0
 49
12.699999999999999
 74
0
 49
-6.3499999999999996
 74
0
 49
0.0
 74
0
 49
-6.3499999999999996
 74
0
  0
LTYPE
  5
59
100
AcDbSymbolTableRecord
100
AcDbLinetypeTableRecord
  2
DIVIDE2
 70
0
  3
Divide (.5x) __..__..__..__..__..__..__..__.._
 72
65
 73
6
 40
15.875
 49
6.3499999999999996
 74
0
 49
-3.1749999999999998
 74
0
 49
0.0
 74
0
 49
-3.1749999999999998
 74
0
 49
0.0
 74
0
 49
-3.1749999999999998
 74
0
  0
LTYPE
  5
5A
100
AcDbSymbolTableRecord
100
AcDbLinetypeTableRecord
  2
DOT
 70
0
  3
Dot . . . . . . . . . . . . . . . . . . . . . . . .
 72
65
 73
2
 40
6.3499999999999996
 49
0.0
 74
0
 49
-6.3499999999999996
 74
0
  0
LTYPE
  5
5B
100
AcDbSymbolTableRecord
100
AcDbLinetypeTableRecord
  2
DASHDOT
 70
0
  3
Dash dot __ . __ . __ . __ . __ . __ . __ . __
 72
65
 73
4
 40
25.399999999999999
 49
12.699999999999999
 74
0
 49
-6.3499999999999996
 74
0
 49
0.0
 74
0
 49
-6.3499999999999996
 74
0
  0
LTYPE
  5
5C
100
AcDbSymbolTableRecord
100
AcDbLinetypeTableRecord
  2
FENCELINE1
 70
0
  3
Fenceline circle ----0-----0----0-----0----0-----0--
 72
65
 73
4
 40
36.829999999999998
 49
6.3499999999999996
 74
0
 49
-2.54
 74
0
 49
-2.54
 74
0
 49
25.399999999999999
 74
0
  0
LTYPE
  5
5D
100
AcDbSymbolTableRecord
100
AcDbLinetypeTableRecord
  2
BATTING
 70
0
  3
Batting SSSSSSSSSSSSSSSSSSSSSSSSSSSSSSSSSSSSSSSSSSSSSSS
 72
65
 73
4
 40
10.16254
 49
0.00254
 74
0
 49
-2.54
 74
0
 49
-5.0800000000000001
 74
0
 49
-2.54
 74
0
  0
LTYPE
  5
5E
100
AcDbSymbolTableRecord
100
AcDbLinetypeTableRecord
  2
ACAD_ISO03W100
 70
0
  3
ISO dash space __    __    __    __    __    __
 72
65
 73
2
 40
30.0
 49
12.0
 74
0
 49
-18.0
 74
0
  0
LTYPE
  5
5F
100
AcDbSymbolTableRecord
100
AcDbLinetypeTableRecord
  2
FENCELINE2
 70
0
  3
Fenceline square ----[]-----[]----[]-----[]----[]---
 72
65
 73
4
 40
36.829999999999998
 49
6.3499999999999996
 74
0
 49
-2.54
 74
0
 49
-2.54
 74
0
 49
25.399999999999999
 74
0
  0
ENDTAB
  0
TABLE
  2
LAYER
  5
2
100
AcDbSymbolTable
 70
2
  0
LAYER
  5
60
100
AcDbSymbolTableRecord
100
AcDbLayerTableRecord
  2
Corte exterior
 70
0
 62
1
420
16711680
  6
Continuous
370
-3
390
F
  0
LAYER
  5
10
100
AcDbSymbolTableRecord
100
AcDbLayerTableRecord
  2
0
 70
0
 62
7
420
16777215
  6
Continuous
370
25
390
F
  0
ENDTAB
  0
TABLE
  2
STYLE
  5
3
100
AcDbSymbolTable
 70
1
  0
STYLE
  5
61
100
AcDbSymbolTableRecord
100
AcDbTextStyleTableRecord
  2
Standard
 70
0
 40
0.0
 41
1.0
 50
0.0
 71
0
 42
2.5
  3

  4

1001
ACAD
1000
txt
1071
0
  0
ENDTAB
  0
TABLE
  2
VIEW
  5
6
100
AcDbSymbolTable
 70
0
  0
ENDTAB
  0
TABLE
  2
UCS
  5
7
100
AcDbSymbolTable
 70
0
  0
ENDTAB
  0
TABLE
  2
APPID
  5
9
100
AcDbSymbolTable
 70
1
  0
APPID
  5
12
100
AcDbSymbolTableRecord
100
AcDbRegAppTableRecord
  2
ACAD
 70
0
  0
APPID
  5
62
100
AcDbSymbolTableRecord
100
AcDbRegAppTableRecord
  2
QCAD
 70
0
  0
ENDTAB
  0
TABLE
  2
DIMSTYLE
  5
A
100
AcDbSymbolTable
 70
1
100
AcDbDimStyleTable
 71
0
  0
DIMSTYLE
105
27
100
AcDbSymbolTableRecord
100
AcDbDimStyleTableRecord
  2
Standard
 41
2.5
 42
0.625
 43
3.75
 44
1.25
 70
0
 73
0
 74
0
 77
1
 78
8
140
2.5
141
2.5
143
0.03937007874016
147
0.625
171
3
172
1
271
2
272
2
274
3
278
44
283
0
284
8
340
61
  0
ENDTAB
  0
TABLE
  2
BLOCK_RECORD
  5
1
100
AcDbSymbolTable
 70
1
  0
BLOCK_RECORD
  5
1F
100
AcDbSymbolTableRecord
100
AcDbBlockTableRecord
  2
*Model_Space
340
22
  0
BLOCK_RECORD
  5
1B
100
AcDbSymbolTableRecord
100
AcDbBlockTableRecord
  2
*Paper_Space
340
1E
  0
BLOCK_RECORD
  5
23
100
AcDbSymbolTableRecord
100
AcDbBlockTableRecord
  2
*Paper_Space0
340
26
  0
ENDTAB
  0
ENDSEC
  0
SECTION
  2
BLOCKS
  0
BLOCK
  5
20
100
AcDbEntity
  8
0
100
AcDbBlockBegin
  2
*Model_Space
 70
0
 10
0.0
 20
0.0
 30
0.0
  3
*Model_Space
  1

  0
ENDBLK
  5
21
100
AcDbEntity
  8
0
100
AcDbBlockEnd
  0
BLOCK
  5
1C
100
AcDbEntity
 67
1
  8
0
100
AcDbBlockBegin
  2
*Paper_Space
 70
0
 10
0.0
 20
0.0
 30
0.0
  3
*Paper_Space
  1

  0
ENDBLK
  5
1D
100
AcDbEntity
 67
1
  8
0
100
AcDbBlockEnd
  0
BLOCK
  5
24
100
AcDbEntity
  8
0
100
AcDbBlockBegin
  2
*Paper_Space0
 70
0
 10
0.0
 20
0.0
 30
0.0
  3
*Paper_Space0
  1

  0
ENDBLK
  5
25
100
AcDbEntity
  8
0
100
AcDbBlockEnd
  0
ENDSEC
  0
SECTION
  2
ENTITIES
  0
CIRCLE
  5
63
100
AcDbEntity
100
AcDbCircle
  8
Corte exterior
 62
256
370
-1
 48
1.0
  6
BYLAYER
 10
64.0
 20
28.0
 30
0.0
 40
1.5
  0
ARC
  5
64
100
AcDbEntity
  8
0
 62
256
370
-1
 48
1.0
  6
BYLAYER
100
AcDbCircle
 10
64.0
 20
28.0
 30
0.0
 40
11.9
100
AcDbArc
 50
92.822864149878015
 51
140.90724601942102
  0
ARC
  5
65
100
AcDbEntity
  8
0
 62
256
370
-1
 48
1.0
  6
BYLAYER
100
AcDbCircle
 10
66.203735644257534
 20
31.786553928389424
 30
0.0
 40
2.3065272445358751
100
AcDbArc
 50
115.33891658472167
 51
177.18078131963065
  0
ARC
  5
66
100
AcDbEntity
  8
0
 62
256
370
-1
 48
1.0
  6
BYLAYER
100
AcDbCircle
 10
66.42750058174741
 20
36.098790821662988
 30
0.0
 40
2.5354557445860162
100
AcDbArc
 50
241.47225819469065
 51
285.84735831349087
  0
ARC
  5
67
100
AcDbEntity
  8
0
 62
256
370
-1
 48
1.0
  6
BYLAYER
100
AcDbCircle
 10
66.083836351154758
 20
33.707660608183431
 30
0.0
 40
1.0371444943541932
100
AcDbArc
 50
292.58127451957404
 51
357.3495923570909
  0
ARC
  5
68
100
AcDbEntity
  8
0
 62
256
370
-1
 48
1.0
  6
BYLAYER
100
AcDbCircle
 10
67.54184030794525
 20
31.400000000000006
 30
0.0
 40
1.7162865718736295
100
AcDbArc
 50
128.13126109866894
 51
196.93739671509888
  0
ARC
  5
69
100
AcDbEntity
  8
0
 62
256
370
-1
 48
1.0
  6
BYLAYER
100
AcDbCircle
 10
65.942849203888045
 20
33.485698407775971
 30
0.0
 40
2.5860534237035773
100
AcDbArc
 50
217.81929446306816
 51
269.05060318277458
  0
ARC
  5
6A
100
AcDbEntity
  8
0
 62
256
370
-1
 48
1.0
  6
BYLAYER
100
AcDbCircle
 10
68.486137873977299
 20
27.391496847543266
 30
0.0
 40
2.188930130506026
100
AcDbArc
 50
136.4370678397577
 51
172.43281921719688
  0
ARC
  5
6B
100
AcDbEntity
  8
0
 62
256
370
-1
 48
1.0
  6
BYLAYER
100
AcDbCircle
 10
68.094077599124745
 20
32.910221998877404
 30
0.0
 40
4.1842205717447367
100
AcDbArc
 50
253.41865378993424
 51
276.76678056507473
  0
ARC
  5
6C
100
AcDbEntity
  8
0
 62
256
370
-1
 48
1.0
  6
BYLAYER
100
AcDbCircle
 10
67.573733048307389
 20
30.116980312346556
 30
0.0
 40
1.6974956802850862
100
AcDbArc
 50
306.6536129672636
 51
352.96314111082194
  0
ARC
  5
6D
100
AcDbEntity
  8
0
 62
256
370
-1
 48
1.0
  6
BYLAYER
100
AcDbCircle
 10
69.574089232510175
 20
32.896701920063634
 30
0.0
 40
3.0043058229590041
100
AcDbArc
 50
236.4965630175858
 51
263.96909962883058
  0
ARC
  5
6E
100
AcDbEntity
  8
0
 62
256
370
-1
 48
1.0
  6
BYLAYER
100
AcDbCircle
 10
66.162910357649935
 20
32.514683453353626
 30
0.0
 40
2.7532041868693709
100
AcDbArc
 50
309.54283800653002
 51
343.07702694150737
  0
ARC
  5
6F
100
AcDbEntity
  8
0
 62
256
370
-1
 48
1.0
  6
BYLAYER
100
AcDbCircle
 10
62.418170928901844
 20
20.599428386022595
 30
0.0
 40
12.814267325274944
100
AcDbArc
 50
45.245520723403999
 51
60.146582720629326
  0
ARC
  5
70
100
AcDbEntity
  8
0
 62
256
370
-1
 48
1.0
  6
BYLAYER
100
AcDbCircle
 10
72.167855938497013
 20
30.599850287251002
 30
0.0
 40
1.1577717258926592
100
AcDbArc
 50
231.06801857212059
 51
275.53349295989528
  0
ARC
  5
71
100
AcDbEntity
  8
0
 62
256
370
-1
 48
1.0
  6
BYLAYER
100
AcDbCircle
 10
72.430969420500674
 20
29.044246896213338
 30
0.0
 40
0.4307386476314147
100
AcDbArc
 50
110.58870727254424
 51
222.15730300766938
  0
ARC
  5
72
100
AcDbEntity
  8
0
 62
256
370
-1
 48
1.0
  6
BYLAYER
100
AcDbCircle
 10
73.39104905394413
 20
29.337844065606589
 30
0.0
 40
1.4058336778605747
100
AcDbArc
 50
204.48681460226695
 51
326.71577468774262
  0
ARC
  5
73
100
AcDbEntity
  8
0
 62
256
370
-1
 48
1.0
  6
BYLAYER
100
AcDbCircle
 10
73.567632776972488
 20
28.843973229679023
 30
0.0
 40
1.0365113587766241
100
AcDbArc
 50
344.46300924163035
 51
19.974665380204723
  0
ARC
  5
74
100
AcDbEntity
  8
0
 62
256
370
-1
 48
1.0
  6
BYLAYER
100
AcDbCircle
 10
74.799999999999983
 20
29.438017804145915
 30
0.0
 40
0.352499696339776
100
AcDbArc
 50
222.90302282978053
 51
286.48045120346734
  0
ARC
  5
75
100
AcDbEntity
  8
0
 62
256
370
-1
 48
1.0
  6
BYLAYER
100
AcDbCircle
 10
74.760133249749856
 20
29.539866750250155
 30
0.0
 40
0.4615684844106562
100
AcDbArc
 50
287.63937738584463
 51
342.36062261415424
  0
ARC
  5
76
100
AcDbEntity
  8
0
 62
256
370
-1
 48
1.0
  6
BYLAYER
100
AcDbCircle
 10
71.897820299448881
 20
29.713070461398587
 30
0.0
 40
3.3169871703900524
100
AcDbArc
 50
271.41462912683755
 51
354.5841346608122
  0
ARC
  5
77
100
AcDbEntity
  8
0
 62
256
370
-1
 48
1.0
  6
BYLAYER
100
AcDbCircle
 10
72.499999999999972
 20
27.536586519557602
 30
0.0
 40
1.2526556671135261
100
AcDbArc
 50
245.45857561939243
 51
279.18720812075338
  0
ARC
  5
78
100
AcDbEntity
  8
0
 62
256
370
-1
 48
1.0
  6
BYLAYER
100
AcDbCircle
 10
72.105555555555554
 20
27.827777777777811
 30
0.0
 40
1.6393502175565091
100
AcDbArc
 50
240.5682072780784
 51
291.26055916197083
  0
ARC
  5
79
100
AcDbEntity
  8
0
 62
256
370
-1
 48
1.0
  6
BYLAYER
100
AcDbCircle
 10
66.729999999998682
 20
16.42499999999589
 30
0.0
 40
10.972033767724819
100
AcDbArc
 50
65.385336066731583
 51
79.125320683154683
  0
ARC
  5
7A
100
AcDbEntity
  8
0
 62
256
370
-1
 48
1.0
  6
BYLAYER
100
AcDbCircle
 10
68.443181818181785
 20
25.718181818181819
 30
0.0
 40
1.5241733296587068
100
AcDbArc
 50
76.461067264817203
 51
144.65102317434872
  0
ARC
  5
7B
100
AcDbEntity
  8
0
 62
256
370
-1
 48
1.0
  6
BYLAYER
100
AcDbCircle
 10
66.687231742036403
 20
26.827128697062818
 30
0.0
 40
0.5608196959848054
100
AcDbArc
 50
254.61902170786925
 51
336.10923933974442
  0
ARC
  5
7C
100
AcDbEntity
  8
0
 62
256
370
-1
 48
1.0
  6
BYLAYER
100
AcDbCircle
 10
62.299351131029368
 20
21.360815757677585
 30
0.0
 40
6.4985820387867319
100
AcDbArc
 50
49.283530179368491
 51
58.564446707895954
  0
ARC
  5
7D
100
AcDbEntity
  8
0
 62
256
370
-1
 48
1.0
  6
BYLAYER
100
AcDbCircle
 10
65.048510749122613
 20
28.066064791209044
 30
0.0
 40
1.3253119219703071
100
AcDbArc
 50
298.88052647559851
 51
343.05301610635189
  0
ARC
  5
7E
100
AcDbEntity
  8
0
 62
256
370
-1
 48
1.0
  6
BYLAYER
100
AcDbCircle
 10
62.003303957703139
 20
33.198458708559059
 30
0.0
 40
0.5218967569272445
100
AcDbArc
 50
88.501857826730387
 51
158.50215974345696
  0
ARC
  5
7F
100
AcDbEntity
  8
0
 62
256
370
-1
 48
1.0
  6
BYLAYER
100
AcDbCircle
 10
60.592834910189254
 20
32.33269146551882
 30
0.0
 40
1.4045298789478466
100
AcDbArc
 50
48.814588193747916
 51
71.901180518966029
  0
ARC
  5
80
100
AcDbEntity
  8
0
 62
256
370
-1
 48
1.0
  6
BYLAYER
100
AcDbCircle
 10
61.016273655346566
 20
34.190535806681112
 30
0.0
 40
0.5229664374601806
100
AcDbArc
 50
271.41215014062357
 51
326.36101339319447
  0
ARC
  5
81
100
AcDbEntity
  8
0
 62
256
370
-1
 48
1.0
  6
BYLAYER
100
AcDbCircle
 10
60.814598189151411
 20
33.496872047353435
 30
0.0
 40
0.7543483886445658
100
AcDbArc
 50
32.378605601414918
 51
92.515771245151456
  0
ARC
  5
82
100
AcDbEntity
  8
0
 62
256
370
-1
 48
1.0
  6
BYLAYER
100
AcDbCircle
 10
63.050602398433654
 20
30.708155644392548
 30
0.0
 40
4.2067854039530159
100
AcDbArc
 50
122.64241248323935
 51
197.26096210821734
  0
ARC
  5
83
100
AcDbEntity
  8
0
 62
256
370
-1
 48
1.0
  6
BYLAYER
100
AcDbCircle
 10
58.612377702649752
 20
26.694355103081222
 30
0.0
 40
2.7973909750076063
100
AcDbArc
 50
53.612537567606786
 51
81.346331226598977
  0
ARC
  5
84
100
AcDbEntity
  8
0
 62
256
370
-1
 48
1.0
  6
BYLAYER
100
AcDbCircle
 10
59.960731832326729
 20
28.820424829635471
 30
0.0
 40
0.3356805551278022
100
AcDbArc
 50
297.12768112719704
 51
22.027241427477701
  0
ARC
  5
85
100
AcDbEntity
  8
0
 62
256
370
-1
 48
1.0
  6
BYLAYER
100
AcDbCircle
 10
59.799999999999983
 20
27.996120224566823
 30
0.0
 40
0.6121035722630738
100
AcDbArc
 50
59.159617939791971
 51
99.402618194959629
  0
ARC
  5
86
100
AcDbEntity
  8
0
 62
256
370
-1
 48
1.0
  6
BYLAYER
100
AcDbCircle
 10
63.313077042513868
 20
29.625970817648806
 30
0.0
 40
3.7559209035612442
100
AcDbArc
 50
195.85244706694144
 51
287.50935030089107
  0
ARC
  5
87
100
AcDbEntity
  8
0
 62
256
370
-1
 48
1.0
  6
BYLAYER
100
AcDbCircle
 10
64.982580758654933
 20
24.577967228277288
 30
0.0
 40
1.5622125900373609
100
AcDbArc
 50
67.675723721611902
 51
110.20245289785908
  0
ARC
  5
88
100
AcDbEntity
  8
0
 62
256
370
-1
 48
1.0
  6
BYLAYER
100
AcDbCircle
 10
65.815205694985167
 20
25.157432046749477
 30
0.0
 40
0.8981040686744721
100
AcDbArc
 50
105.44793831082417
 51
169.13726465856826
  0
ARC
  5
89
100
AcDbEntity
  8
0
 62
256
370
-1
 48
1.0
  6
BYLAYER
100
AcDbCircle
 10
65.340654860335889
 20
24.156402436267228
 30
0.0
 40
1.239188157483684
100
AcDbArc
 50
109.19671453814789
 51
201.35019868373664
  0
ARC
  5
8A
100
AcDbEntity
  8
0
 62
256
370
-1
 48
1.0
  6
BYLAYER
100
AcDbCircle
 10
63.76654649575849
 20
23.616679991817165
 30
0.0
 40
0.429201463299395
100
AcDbArc
 50
301.02509589303509
 51
11.909730855478561
  0
ARC
  5
8B
100
AcDbEntity
  8
0
 62
256
370
-1
 48
1.0
  6
BYLAYER
100
AcDbCircle
 10
65.109301034670693
 20
24.119948537273302
 30
0.0
 40
1.4200738251477851
100
AcDbArc
 50
170.66452356883511
 51
217.83554182677267
  0
ARC
  5
8C
100
AcDbEntity
  8
0
 62
256
370
-1
 48
1.0
  6
BYLAYER
100
AcDbCircle
 10
63.509066303705083
 20
23.757210361448358
 30
0.0
 40
0.6255802452017453
100
AcDbArc
 50
71.454640638290869
 51
166.8058470617259
  0
ARC
  5
8D
100
AcDbEntity
  8
0
 62
256
370
-1
 48
1.0
  6
BYLAYER
100
AcDbCircle
 10
62.108418951703413
 20
22.247291380052417
 30
0.0
 40
1.8324972956245531
100
AcDbArc
 50
64.407450962476418
 51
119.4310960166757
  0
ARC
  5
8E
100
AcDbEntity
  8
0
 62
256
370
-1
 48
1.0
  6
BYLAYER
100
AcDbCircle
 10
59.277681706773592
 20
24.838865049281111
 30
0.0
 40
2.1719055702991583
100
AcDbArc
 50
273.88167308885926
 51
332.71716798551159
  0
ARC
  5
8F
100
AcDbEntity
  8
0
 62
256
370
-1
 48
1.0
  6
BYLAYER
100
AcDbCircle
 10
58.388121822111685
 20
24.127766101658779
 30
0.0
 40
3.2681023968070324
100
AcDbArc
 50
279.01125971817595
 51
327.6660054557351
  0
ARC
  5
90
100
AcDbEntity
  8
0
 62
256
370
-1
 48
1.0
  6
BYLAYER
100
AcDbCircle
 10
61.232358018111967
 20
22.242779062616705
 30
0.0
 40
0.1601399426557784
100
AcDbArc
 50
323.1158706819769
 51
121.16393538538169
  0
ARC
  5
91
100
AcDbEntity
  8
0
 62
256
370
-1
 48
1.0
  6
BYLAYER
100
AcDbCircle
 10
59.528082909130234
 20
22.330469825809246
 30
0.0
 40
1.841559045375698
100
AcDbArc
 50
261.82233146432588
 51
354.27175359932778
  0
ARC
  5
92
100
AcDbEntity
  8
0
 62
256
370
-1
 48
1.0
  6
BYLAYER
100
AcDbCircle
 10
59.575645522748175
 20
22.543835792977262
 30
0.0
 40
2.0595888521224257
100
AcDbArc
 50
236.75776105977562
 51
261.35693784024545
  0
ARC
  5
93
100
AcDbEntity
  8
0
 62
256
370
-1
 48
1.0
  6
BYLAYER
100
AcDbCircle
 10
58.75
 20
20.418966740625422
 30
0.0
 40
0.5038779580657505
100
AcDbArc
 50
72.681020156601235
 51
127.01971574263787
  0
ARC
  5
94
100
AcDbEntity
  8
0
 62
256
370
-1
 48
1.0
  6
BYLAYER
100
AcDbCircle
 10
58.047585666054829
 20
22.926810750458884
 30
0.0
 40
1.4005118281407511
100
AcDbArc
 50
312.8473419432118
 51
349.51473382780136
  0
ARC
  5
95
100
AcDbEntity
  8
0
 62
256
370
-1
 48
1.0
  6
BYLAYER
100
AcDbCircle
 10
58.949999999999989
 20
22.25
 30
0.0
 40
0.3535533905932738
100
AcDbArc
 50
135.0
 51
278.13010235415794
  0
ARC
  5
96
100
AcDbEntity
  8
0
 62
256
370
-1
 48
1.0
  6
BYLAYER
100
AcDbCircle
 10
58.200000000000017
 20
21.750000000000057
 30
0.0
 40
0.9013878188659421
100
AcDbArc
 50
56.309932474019718
 51
109.4400348281782
  0
ARC
  5
97
100
AcDbEntity
  8
0
 62
256
370
-1
 48
1.0
  6
BYLAYER
100
AcDbCircle
 10
57.049999999999983
 20
22.650000000000063
 30
0.0
 40
0.8514693182964002
100
AcDbArc
 50
273.36646066343025
 51
356.63353933656572
  0
ARC
  5
98
100
AcDbEntity
  8
0
 62
256
370
-1
 48
1.0
  6
BYLAYER
100
AcDbCircle
 10
57.848630426308119
 20
26.047260852616205
 30
0.0
 40
4.3127337345772263
100
AcDbArc
 50
203.65960679652824
 51
260.0036143761323
  0
ARC
  5
99
100
AcDbEntity
  8
0
 62
256
370
-1
 48
1.0
  6
BYLAYER
100
AcDbCircle
 10
53.141899046947685
 20
24.576020199717533
 30
0.0
 40
0.7997613305823093
100
AcDbArc
 50
273.55385048945345
 51
341.06879907806285
  0
ARC
  5
9A
100
AcDbEntity
  8
0
 62
256
370
-1
 48
1.0
  6
BYLAYER
100
AcDbCircle
 10
54.532313245562392
 20
24.261722220448064
 30
0.0
 40
1.4254946031052536
100
AcDbArc
 50
136.77613029133087
 51
199.84513135779343
  0
ARC
  5
9B
100
AcDbEntity
  8
0
 62
256
370
-1
 48
1.0
  6
BYLAYER
100
AcDbCircle
 10
48.132813919290498
 20
25.06549459871357
 30
0.0
 40
5.363539071829968
100
AcDbArc
 50
1.8428136331456362
 51
39.269276806022248
  0
ARC
  5
9C
100
AcDbEntity
  8
0
 62
256
370
-1
 48
1.0
  6
BYLAYER
100
AcDbCircle
 10
53.785858237815717
 20
28.614821088534597
 30
0.0
 40
1.5086218447320294
100
AcDbArc
 50
92.496006688449953
 51
185.87382556178764
  0
ARC
  5
9D
100
AcDbEntity
  8
0
 62
256
370
-1
 48
1.0
  6
BYLAYER
100
AcDbCircle
 10
59.349153564491843
 20
29.370856059755226
 30
0.0
 40
5.6788928843038464
100
AcDbArc
 50
141.57795341840861
 51
172.39912759597334
  0
ARC
  5
9E
100
AcDbEntity
  8
0
 62
256
370
-1
 48
1.0
  6
BYLAYER
100
AcDbCircle
 10
56.670927807175389
 20
28.783591463419725
 30
0.0
 40
4.4811833859213994
100
AcDbArc
 50
101.25488811456395
 51
113.27794890284467
  0
ARC
  5
9F
100
AcDbEntity
  8
0
 62
256
370
-1
 48
1.0
  6
BYLAYER
100
AcDbCircle
 10
55.802851653751389
 20
33.237068984765074
 30
0.0
 40
0.0588373848394893
100
AcDbArc
 50
263.6237395255896
 51
136.84913160090642
  0
ARC
  5
A0
100
AcDbEntity
  8
0
 62
256
370
-1
 48
1.0
  6
BYLAYER
100
AcDbCircle
 10
55.440834419062782
 20
31.482079533280313
 30
0.0
 40
1.8233675320436873
100
AcDbArc
 50
79.921252947931251
 51
117.46093192504473
  0
ARC
  5
A1
100
AcDbEntity
  8
0
 62
256
370
-1
 48
1.0
  6
BYLAYER
100
AcDbCircle
 10
54.183333333333394
 20
33.416666666666629
 30
0.0
 40
0.523343948936887
100
AcDbArc
 50
260.83765295427037
 51
322.76516601842377
  0
ARC
  5
A2
100
AcDbEntity
  8
0
 62
256
370
-1
 48
1.0
  6
BYLAYER
100
AcDbCircle
 10
55.753641385604965
 20
33.450790392481423
 30
0.0
 40
1.7429572251307166
100
AcDbArc
 50
111.31792327716879
 51
198.42174466208004
  0
ARC
  5
A3
100
AcDbEntity
  8
0
 62
256
370
-1
 48
1.0
  6
BYLAYER
100
AcDbCircle
 10
55.989079779348003
 20
28.681527090364767
 30
0.0
 40
6.4517651503315863
100
AcDbArc
 50
82.25850375794316
 51
97.741496242061913
  0
ARC
  5
A4
100
AcDbEntity
  8
0
 62
256
370
-1
 48
1.0
  6
BYLAYER
100
AcDbCircle
 10
56.878363202764433
 20
35.171065211758417
 30
0.0
 40
0.0986661099367259
100
AcDbArc
 50
258.1828631472423
 51
30.807009862727138
  0
ARC
  5
A5
100
AcDbEntity
  8
0
 62
256
370
-1
 48
1.0
  6
BYLAYER
100
AcDbCircle
 10
55.099999999999994
 20
29.414082798278713
 30
0.0
 40
6.099048137718464
100
AcDbArc
 50
72.213251522958927
 51
93.157127072997071
  0
ARC
  5
A6
100
AcDbEntity
  8
0
 62
256
370
-1
 48
1.0
  6
BYLAYER
100
AcDbCircle
 10
66.709193955950639
 20
28.858939331626573
 30
0.0
 40
11.209021675156048
100
AcDbArc
 50
134.16190390461622
 51
144.95685854901575
  0
ARC
  5
A7
100
AcDbEntity
  8
0
 62
256
370
-1
 48
1.0
  6
BYLAYER
100
AcDbCircle
 10
58.995716643227041
 20
37.064457761147139
 30
0.0
 40
0.1902840797128987
100
AcDbArc
 50
107.94961903918258
 51
239.8000154667705
  0
ARC
  5
A8
100
AcDbEntity
  8
0
 62
256
370
-1
 48
1.0
  6
BYLAYER
100
AcDbCircle
 10
63.181062178695157
 20
30.893704115416853
 30
0.0
 40
7.6391419575353083
100
AcDbArc
 50
118.68763974670742
 51
123.74916578198555
  0
ARC
  5
A9
100
AcDbEntity
  8
0
 62
256
370
-1
 48
1.0
  6
BYLAYER
100
AcDbCircle
 10
59.66860695731026
 20
37.600298813803278
 30
0.0
 40
0.1546807211480139
100
AcDbArc
 50
181.91146374088353
 51
293.10713514536343
  0
ARC
  5
AA
100
AcDbEntity
  8
0
 62
256
370
-1
 48
1.0
  6
BYLAYER
100
AcDbCircle
 10
59.577938861464048
 20
44.615862870749766
 30
0.0
 40
7.1594355764134789
100
AcDbArc
 50
271.21150178596139
 51
301.32433149227779
  0
ARC
  5
AB
100
AcDbEntity
  8
0
 62
256
370
-1
 48
1.0
  6
BYLAYER
100
AcDbCircle
 10
61.140605137057292
 20
39.375048082558692
 30
0.0
 40
2.3299560770308303
100
AcDbArc
 50
337.94081207106979
 51
12.656647306862395
  0
ARC
  5
AC
100
AcDbEntity
  8
0
 62
256
370
-1
 48
1.0
  6
BYLAYER
100
AcDbCircle
 10
62.311944752211986
 20
37.260675221156816
 30
0.0
 40
0.6538191926253882
100
AcDbArc
 50
122.91346608480011
 51
176.32828189245737
  0
ARC
  5
AD
100
AcDbEntity
  8
0
 62
256
370
-1
 48
1.0
  6
BYLAYER
100
AcDbCircle
 10
61.158146901019506
 20
37.034005983594142
 30
0.0
 40
0.5687143389285149
100
AcDbArc
 50
349.87273471078191
 51
28.176366612863273
  0
ARC
  5
AE
100
AcDbEntity
  8
0
 62
256
370
-1
 48
1.0
  6
BYLAYER
100
AcDbCircle
 10
62.127668083216406
 20
37.964670722514228
 30
0.0
 40
0.230867245102745
100
AcDbArc
 50
222.21377701538785
 51
325.53008092434578
  0
ARC
  5
AF
100
AcDbEntity
  8
0
 62
256
370
-1
 48
1.0
  6
BYLAYER
100
AcDbCircle
 10
61.718000452676421
 20
37.284005983594142
 30
0.0
 40
0.8139410298049976
100
AcDbArc
 50
349.38034472384459
 51
42.510447077998883
  0
ARC
  5
B0
100
AcDbEntity
  8
0
 62
256
370
-1
 48
1.0
  6
BYLAYER
100
AcDbCircle
 10
62.968000452676279
 20
35.284005983594682
 30
0.0
 40
1.9039432764654129
100
AcDbArc
 50
103.67130713219522
 51
119.93151184051226
  0
ARC
  5
B1
100
AcDbEntity
  8
0
 62
256
370
-1
 48
1.0
  6
BYLAYER
100
AcDbCircle
 10
62.218000452676449
 20
36.909005983594113
 30
0.0
 40
0.2015564437074461
100
AcDbArc
 50
172.87498365109718
 51
299.74488129694322
  0
ARC
  5
B2
100
AcDbEntity
  8
0
 62
256
370
-1
 48
1.0
  6
BYLAYER
100
AcDbCircle
 10
62.463942283437206
 20
36.536035068213778
 30
0.0
 40
0.2459502008584999
100
AcDbArc
 50
126.39720315969072
 51
232.02846672561387
  0
ARC
  5
B3
100
AcDbEntity
  8
0
 62
256
370
-1
 48
1.0
  6
BYLAYER
100
AcDbCircle
 10
62.204802444500103
 20
36.154975613654045
 30
0.0
 40
0.2160035892078855
100
AcDbArc
 50
60.057476093612415
 51
181.3419690080201
  0
ARC
  5
B4
100
AcDbEntity
  8
0
 62
256
370
-1
 48
1.0
  6
BYLAYER
100
AcDbCircle
 10
61.574046846643142
 20
35.98400598359413
 30
0.0
 40
0.4467603432601898
100
AcDbArc
 50
353.57417593747323
 51
21.79979044833722
  0
ARC
  5
B5
100
AcDbEntity
  8
0
 62
256
370
-1
 48
1.0
  6
BYLAYER
100
AcDbCircle
 10
62.0680004526765
 20
36.084005983594153
 30
0.0
 40
0.1581138830084729
100
AcDbArc
 50
161.56505117709102
 51
251.56505117705845
  0
ARC
  5
B6
100
AcDbEntity
  8
0
 62
256
370
-1
 48
1.0
  6
BYLAYER
100
AcDbCircle
 10
56.543704416166349
 20
34.799999999999983
 30
0.0
 40
5.5787472262981463
100
AcDbArc
 50
348.83937844562774
 51
5.1420832789412154
  0
ARC
  5
B7
100
AcDbEntity
  8
0
 62
256
370
-1
 48
1.0
  6
BYLAYER
100
AcDbCircle
 10
62.0
 20
35.749999999999943
 30
0.0
 40
0.4609772228646043
100
AcDbArc
 50
229.3987053549894
 51
282.52880770915192
  0
ARC
  5
B8
100
AcDbEntity
  8
0
 62
256
370
-1
 48
1.0
  6
BYLAYER
100
AcDbCircle
 10
60.37316798471295
 20
36.067888010191297
 30
0.0
 40
1.4854486160577731
100
AcDbArc
 50
319.33919716575639
 51
333.28066778228833
  0
ARC
  5
B9
100
AcDbEntity
  8
0
 62
256
370
-1
 48
1.0
  6
BYLAYER
100
AcDbCircle
 10
58.349999999999739
 20
33.550000000000011
 30
0.0
 40
3.5106979363086279
100
AcDbArc
 50
10.669782804495595
 51
26.200114841345211
  0
ARC
  5
BA
100
AcDbEntity
  8
0
 62
256
370
-1
 48
1.0
  6
BYLAYER
100
AcDbCircle
 10
62.650000000000261
 20
35.750000000000256
 30
0.0
 40
1.7677669529667233
100
AcDbArc
 50
208.73979529169097
 51
241.26020470830818
  0
ARC
  5
BB
100
AcDbEntity
  8
0
 62
256
370
-1
 48
1.0
  6
BYLAYER
100
AcDbCircle
 10
62.600169489397189
 20
34.793686441476012
 30
0.0
 40
1.5039318700141486
100
AcDbArc
 50
116.9742737746915
 51
175.94635703854684
  0
ARC
  5
BC
100
AcDbEntity
  8
0
 62
256
370
-1
 48
1.0
  6
BYLAYER
100
AcDbCircle
 10
61.010492671057619
 20
37.475969877225992
 30
0.0
 40
0.8912306789220293
100
AcDbArc
 50
253.39762164407631
 51
322.5472251487368
  0
ARC
  5
BD
100
AcDbEntity
  8
0
 62
256
370
-1
 48
1.0
  6
BYLAYER
100
AcDbCircle
 10
60.803936497360212
 20
37.473811840640622
 30
0.0
 40
0.8532743096288554
100
AcDbArc
 50
208.16096803629938
 51
266.76889764783311
  0
ARC
  5
BE
100
AcDbEntity
  8
0
 62
256
370
-1
 48
1.0
  6
BYLAYER
100
AcDbCircle
 10
60.09874753854038
 20
36.876605762519176
 30
0.0
 40
0.2001196502674452
100
AcDbArc
 50
103.60665401989274
 51
245.33826567679773
  0
ARC
  5
BF
100
AcDbEntity
  8
0
 62
256
370
-1
 48
1.0
  6
BYLAYER
100
AcDbCircle
 10
59.82706098053464
 20
36.069481144928375
 30
0.0
 40
0.6529637004865545
100
AcDbArc
 50
16.750264505021654
 51
73.249735494975255
  0
ARC
  5
C0
100
AcDbEntity
  8
0
 62
256
370
-1
 48
1.0
  6
BYLAYER
100
AcDbCircle
 10
60.381873757462273
 20
37.854764192518246
 30
0.0
 40
1.5986513330653251
100
AcDbArc
 50
245.21602485210775
 51
272.52559656867368
  0
ARC
  5
C1
100
AcDbEntity
  8
0
 62
256
370
-1
 48
1.0
  6
BYLAYER
100
AcDbCircle
 10
59.317141451205629
 20
34.855387027478713
 30
0.0
 40
1.5974682972385845
100
AcDbArc
 50
75.699722550812012
 51
91.959927259126871
  0
ARC
  5
C2
100
AcDbEntity
  8
0
 62
256
370
-1
 48
1.0
  6
BYLAYER
100
AcDbCircle
 10
59.233831227246696
 20
36.178597218747626
 30
0.0
 40
0.2748237398422293
100
AcDbArc
 50
340.68421387732957
 51
84.010673121558582
  0
ARC
  5
C3
100
AcDbEntity
  8
0
 62
256
370
-1
 48
1.0
  6
BYLAYER
100
AcDbCircle
 10
59.093641968940773
 20
36.319212137773604
 30
0.0
 40
0.4617748678652485
100
AcDbArc
 50
245.20689694509778
 51
329.90938952944191
  0
ARC
  5
C4
100
AcDbEntity
  8
0
 62
256
370
-1
 48
1.0
  6
BYLAYER
100
AcDbCircle
 10
58.713544312988404
 20
35.674429422259038
 30
0.0
 40
0.2926564688527645
100
AcDbArc
 50
50.423008177144737
 51
127.83032199024309
  0
ARC
  5
C5
100
AcDbEntity
  8
0
 62
256
370
-1
 48
1.0
  6
BYLAYER
100
AcDbCircle
 10
57.765124471065405
 20
35.971341870434458
 30
0.0
 40
0.7717334023768129
100
AcDbArc
 50
273.90900976186697
 51
355.11159905187213
  0
ARC
  5
C6
100
AcDbEntity
  8
0
 62
256
370
-1
 48
1.0
  6
BYLAYER
100
AcDbCircle
 10
57.87098879162528
 20
35.845926145645052
 30
0.0
 40
0.6467185876850289
100
AcDbArc
 50
238.4028217457695
 51
265.27667226932721
  0
LINE
  5
C7
100
AcDbEntity
100
AcDbLine
  8
0
 62
256
370
-1
 48
1.0
  6
BYLAYER
 10
57.37826063554337
 20
33.919566186922196
 30
0.0
 11
58.304857265981155
 21
34.741265085612326
 31
0.0
  0
LINE
  5
C8
100
AcDbEntity
100
AcDbLine
  8
0
 62
256
370
-1
 48
1.0
  6
BYLAYER
 10
58.768155581200119
 20
35.152114534957434
 30
0.0
 11
58.768155581200119
 21
35.152114534957434
 31
0.0
  0
LINE
  5
C9
100
AcDbEntity
100
AcDbLine
  8
0
 62
256
370
-1
 48
1.0
  6
BYLAYER
 10
58.304857265981155
 20
34.741265085612326
 30
0.0
 11
58.549618640059066
 21
34.636367353864671
 31
0.0
  0
LINE
  5
CA
100
AcDbEntity
100
AcDbLine
  8
0
 62
256
370
-1
 48
1.0
  6
BYLAYER
 10
59.01291695527803
 20
35.047216803209778
 30
0.0
 11
59.01291695527803
 21
35.047216803209778
 31
0.0
  0
LINE
  5
CB
100
AcDbEntity
100
AcDbLine
  8
0
 62
256
370
-1
 48
1.0
  6
BYLAYER
 10
58.549618640059066
 20
34.636367353864671
 30
0.0
 11
58.479686818893953
 21
34.181810516291392
 31
0.0
  0
LINE
  5
CC
100
AcDbEntity
100
AcDbLine
  8
0
 62
256
370
-1
 48
1.0
  6
BYLAYER
 10
58.479686818893953
 20
34.181810516291392
 30
0.0
 11
58.262606790693951
 21
34.195570249622477
 31
0.0
  0
LINE
  5
CD
100
AcDbEntity
100
AcDbLine
  8
0
 62
256
370
-1
 48
1.0
  6
BYLAYER
 10
58.262606790693951
 20
34.195570249622477
 30
0.0
 11
57.989435614267705
 21
33.841459465366256
 31
0.0
  0
LINE
  5
CE
100
AcDbEntity
100
AcDbLine
  8
0
 62
256
370
-1
 48
1.0
  6
BYLAYER
 10
57.989435614267705
 20
33.841459465366256
 30
0.0
 11
57.37826063554337
 21
33.919566186922196
 31
0.0
  0
LINE
  5
CF
100
AcDbEntity
100
AcDbLine
  8
0
 62
256
370
-1
 48
1.0
  6
BYLAYER
 10
56.699588499057597
 20
33.006619211948873
 30
0.0
 11
56.39606496969509
 21
32.632273525735144
 31
0.0
  0
LINE
  5
D0
100
AcDbEntity
100
AcDbLine
  8
0
 62
256
370
-1
 48
1.0
  6
BYLAYER
 10
56.39606496969509
 20
32.632273525735144
 30
0.0
 11
56.39606496969509
 21
32.632273525735144
 31
0.0
  0
LINE
  5
D1
100
AcDbEntity
100
AcDbLine
  8
0
 62
256
370
-1
 48
1.0
  6
BYLAYER
 10
56.39606496969509
 20
32.632273525735144
 30
0.0
 11
56.810880459823835
 21
32.531099015947632
 31
0.0
  0
LINE
  5
D2
100
AcDbEntity
100
AcDbLine
  8
0
 62
256
370
-1
 48
1.0
  6
BYLAYER
 10
56.810880459823835
 20
32.531099015947632
 30
0.0
 11
57.31675300876131
 21
32.318632545393911
 31
0.0
  0
LINE
  5
D3
100
AcDbEntity
100
AcDbLine
  8
0
 62
256
370
-1
 48
1.0
  6
BYLAYER
 10
57.31675300876131
 20
32.318632545393911
 30
0.0
 11
57.31675300876131
 21
32.318632545393911
 31
0.0
  0
LINE
  5
D4
100
AcDbEntity
100
AcDbLine
  8
0
 62
256
370
-1
 48
1.0
  6
BYLAYER
 10
57.31675300876131
 20
32.318632545393911
 30
0.0
 11
57.488749675400044
 21
32.571568819862648
 31
0.0
  0
LINE
  5
D5
100
AcDbEntity
100
AcDbLine
  8
0
 62
256
370
-1
 48
1.0
  6
BYLAYER
 10
57.488749675400044
 20
32.571568819862648
 30
0.0
 11
57.579806734208802
 21
32.83462254531014
 31
0.0
  0
LINE
  5
D6
100
AcDbEntity
100
AcDbLine
  8
0
 62
256
370
-1
 48
1.0
  6
BYLAYER
 10
57.579806734208802
 20
32.83462254531014
 30
0.0
 11
57.579806734208802
 21
32.83462254531014
 31
0.0
  0
LINE
  5
D7
100
AcDbEntity
100
AcDbLine
  8
0
 62
256
370
-1
 48
1.0
  6
BYLAYER
 10
57.579806734208802
 20
32.83462254531014
 30
0.0
 11
56.699588499057597
 21
33.006619211948873
 31
0.0
  0
LINE
  5
D8
100
AcDbEntity
100
AcDbLine
  8
0
 62
256
370
-1
 48
1.0
  6
BYLAYER
 10
62.796765012783283
 20
36.946376120633829
 30
0.0
 11
62.503358934399557
 21
36.744027101058833
 31
0.0
  0
LINE
  5
D9
100
AcDbEntity
100
AcDbLine
  8
0
 62
256
370
-1
 48
1.0
  6
BYLAYER
 10
62.503358934399557
 20
36.744027101058833
 30
0.0
 11
62.503358934399557
 21
36.744027101058833
 31
0.0
  0
LINE
  5
DA
100
AcDbEntity
100
AcDbLine
  8
0
 62
256
370
-1
 48
1.0
  6
BYLAYER
 10
62.503358934399557
 20
36.744027101058833
 30
0.0
 11
62.900000000000006
 21
35.900000000000006
 31
0.0
  0
LINE
  5
DB
100
AcDbEntity
100
AcDbLine
  8
0
 62
256
370
-1
 48
1.0
  6
BYLAYER
 10
62.900000000000006
 20
35.900000000000006
 30
0.0
 11
62.900000000000006
 21
35.900000000000006
 31
0.0
  0
LINE
  5
DC
100
AcDbEntity
100
AcDbLine
  8
0
 62
256
370
-1
 48
1.0
  6
BYLAYER
 10
62.900000000000006
 20
35.900000000000006
 30
0.0
 11
63.009231483337032
 21
36.035805532546362
 31
0.0
  0
LINE
  5
DD
100
AcDbEntity
100
AcDbLine
  8
0
 62
256
370
-1
 48
1.0
  6
BYLAYER
 10
63.009231483337032
 20
36.035805532546362
 30
0.0
 11
63.009231483337032
 21
36.035805532546362
 31
0.0
  0
LINE
  5
DE
100
AcDbEntity
100
AcDbLine
  8
0
 62
256
370
-1
 48
1.0
  6
BYLAYER
 10
63.009231483337032
 20
36.035805532546362
 30
0.0
 11
62.978879130400799
 21
36.369681414845104
 31
0.0
  0
LINE
  5
DF
100
AcDbEntity
100
AcDbLine
  8
0
 62
256
370
-1
 48
1.0
  6
BYLAYER
 10
62.978879130400799
 20
36.369681414845104
 30
0.0
 11
62.978879130400799
 21
36.369681414845104
 31
0.0
  0
LINE
  5
E0
100
AcDbEntity
100
AcDbLine
  8
0
 62
256
370
-1
 48
1.0
  6
BYLAYER
 10
62.978879130400799
 20
36.369681414845104
 30
0.0
 11
62.796765012783283
 21
36.946376120633829
 31
0.0
  0
LINE
  5
E1
100
AcDbEntity
100
AcDbLine
  8
0
 62
256
370
-1
 48
1.0
  6
BYLAYER
 10
63.039583836273295
 20
36.551795532462592
 30
0.0
 11
63.24193285584829
 21
36.612500238335087
 31
0.0
  0
LINE
  5
E2
100
AcDbEntity
100
AcDbLine
  8
0
 62
256
370
-1
 48
1.0
  6
BYLAYER
 10
63.24193285584829
 20
36.612500238335087
 30
0.0
 11
63.252050306827016
 21
36.420268669738846
 31
0.0
  0
LINE
  5
E3
100
AcDbEntity
100
AcDbLine
  8
0
 62
256
370
-1
 48
1.0
  6
BYLAYER
 10
63.252050306827016
 20
36.420268669738846
 30
0.0
 11
63.12052344410327
 21
36.35956396386635
 31
0.0
  0
LINE
  5
E4
100
AcDbEntity
100
AcDbLine
  8
0
 62
256
370
-1
 48
1.0
  6
BYLAYER
 10
63.12052344410327
 20
36.35956396386635
 30
0.0
 11
63.039583836273295
 21
36.551795532462592
 31
0.0
  0
LINE
  5
E5
100
AcDbEntity
100
AcDbLine
  8
0
 62
256
370
-1
 48
1.0
  6
BYLAYER
 10
64.294163945559774
 20
35.056533405332829
 30
0.0
 11
64.503959409055113
 21
35.245349322478631
 31
0.0
  0
LINE
  5
E6
100
AcDbEntity
100
AcDbLine
  8
0
 62
256
370
-1
 48
1.0
  6
BYLAYER
 10
64.503959409055113
 20
35.245349322478631
 30
0.0
 11
64.587877594453261
 21
35.035553858983292
 31
0.0
  0
LINE
  5
E7
100
AcDbEntity
100
AcDbLine
  8
0
 62
256
370
-1
 48
1.0
  6
BYLAYER
 10
64.587877594453261
 20
35.035553858983292
 30
0.0
 11
64.378082130957893
 21
34.825758395487924
 31
0.0
  0
LINE
  5
E8
100
AcDbEntity
100
AcDbLine
  8
0
 62
256
370
-1
 48
1.0
  6
BYLAYER
 10
64.378082130957893
 20
34.825758395487924
 30
0.0
 11
64.294163945559774
 21
35.056533405332829
 31
0.0
  0
ENDSEC
  0
SECTION
  2
OBJECTS
  0
DICTIONARY
  5
C
100
AcDbDictionary
280
0
281
1
  3
ACAD_GROUP
350
D
  3
ACAD_LAYOUT
350
1A
  3
ACAD_MLINESTYLE
350
17
  3
ACAD_PLOTSETTINGS
350
19
  3
ACAD_PLOTSTYLENAME
350
E
  3
AcDbVariableDictionary
350
E9
  3
QCAD_OBJECTS
350
EA
  0
DICTIONARY
  5
D
100
AcDbDictionary
280
0
281
1
  0
ACDBDICTIONARYWDFLT
  5
E
100
AcDbDictionary
281
1
  3
Normal
350
F
100
AcDbDictionaryWithDefault
340
F
  0
ACDBPLACEHOLDER
  5
F
  0
DICTIONARY
  5
17
100
AcDbDictionary
280
0
281
1
  3
Standard
350
18
  0
MLINESTYLE
  5
18
100
AcDbMlineStyle
  2
STANDARD
 70
0
  3

 62
256
 51
90.0
 52
90.0
 71
2
 49
0.5
 62
256
  6
BYLAYER
 49
-0.5
 62
256
  6
BYLAYER
  0
DICTIONARY
  5
19
100
AcDbDictionary
280
0
281
1
  0
DICTIONARY
  5
1A
100
AcDbDictionary
281
1
  3
Layout1
350
1E
  3
Layout2
350
26
  3
Model
350
22
  0
LAYOUT
  5
1E
100
AcDbPlotSettings
  1

  2
none_device
  4

  6

 40
0.0
 41
0.0
 42
0.0
 43
0.0
 44
0.0
 45
0.0
 46
0.0
 47
0.0
 48
0.0
 49
0.0
140
0.0
141
0.0
142
1.0
143
1.0
 70
688
 72
0
 73
0
 74
5
  7

 75
16
147
1.0
148
0.0
149
0.0
100
AcDbLayout
  1
Layout1
 70
1
 71
1
 10
0.0
 20
0.0
 11
420.0
 21
297.0
 12
0.0
 22
0.0
 32
0.0
 14
100000000000000000000.0
 24
100000000000000000000.0
 34
100000000000000000000.0
 15
-100000000000000000000.0
 25
-100000000000000000000.0
 35
-100000000000000000000.0
146
0.0
 13
0.0
 23
0.0
 33
0.0
 16
1.0
 26
0.0
 36
0.0
 17
0.0
 27
1.0
 37
0.0
 76
0
330
1B
  0
LAYOUT
  5
22
100
AcDbPlotSettings
  1

  2
none_device
  4

  6

 40
0.0
 41
0.0
 42
0.0
 43
0.0
 44
0.0
 45
0.0
 46
0.0
 47
0.0
 48
0.0
 49
0.0
140
0.0
141
0.0
142
1.0
143
1.0
 70
1712
 72
0
 73
0
 74
0
  7

 75
0
147
1.0
148
0.0
149
0.0
100
AcDbLayout
  1
Model
 70
1
 71
0
 10
0.0
 20
0.0
 11
12.0
 21
9.0
 12
0.0
 22
0.0
 32
0.0
 14
0.0
 24
0.0
 34
0.0
 15
0.0
 25
0.0
 35
0.0
146
0.0
 13
0.0
 23
0.0
 33
0.0
 16
1.0
 26
0.0
 36
0.0
 17
0.0
 27
1.0
 37
0.0
 76
0
330
1F
  0
LAYOUT
  5
26
100
AcDbPlotSettings
  1

  2
none_device
  4

  6

 40
0.0
 41
0.0
 42
0.0
 43
0.0
 44
0.0
 45
0.0
 46
0.0
 47
0.0
 48
0.0
 49
0.0
140
0.0
141
0.0
142
1.0
143
1.0
 70
688
 72
0
 73
0
 74
5
  7

 75
16
147
1.0
148
0.0
149
0.0
100
AcDbLayout
  1
Layout2
 70
1
 71
2
 10
0.0
 20
0.0
 11
12.0
 21
9.0
 12
0.0
 22
0.0
 32
0.0
 14
0.0
 24
0.0
 34
0.0
 15
0.0
 25
0.0
 35
0.0
146
0.0
 13
0.0
 23
0.0
 33
0.0
 16
1.0
 26
0.0
 36
0.0
 17
0.0
 27
1.0
 37
0.0
 76
0
330
23
  0
DICTIONARY
  5
E9
100
AcDbDictionary
281
1
  3
DIMASSOC
350
EC
  3
HIDETEXT
350
EB
  0
DICTIONARYVAR
  5
EB
100
DictionaryVariables
280
0
  1
2
  0
DICTIONARYVAR
  5
EC
100
DictionaryVariables
280
0
  1
1
  0
DICTIONARY
  5
EA
100
AcDbDictionary
281
1
  3
ColorSettings/BackgroundColor
350
ED
  3
ColorSettings/ColorMode
350
EE
  3
Grid/DisplayGrid00
350
EF
  3
Grid/DisplayGrid01
350
F0
  3
Grid/DisplayGrid02
350
F1
  3
Grid/DisplayGrid03
350
F2
  3
Grid/GridSpacingX00
350
F3
  3
Grid/GridSpacingX01
350
F4
  3
Grid/GridSpacingX02
350
F5
  3
Grid/GridSpacingX03
350
F6
  3
Grid/GridSpacingY00
350
F7
  3
Grid/GridSpacingY01
350
F8
  3
Grid/GridSpacingY02
350
F9
  3
Grid/GridSpacingY03
350
FA
  3
Grid/IsometricGrid00
350
FB
  3
Grid/IsometricGrid01
350
FC
  3
Grid/IsometricGrid02
350
FD
  3
Grid/IsometricGrid03
350
FE
  3
Grid/IsometricProjection00
350
FF
  3
Grid/IsometricProjection01
350
100
  3
Grid/IsometricProjection02
350
101
  3
Grid/IsometricProjection03
350
102
  3
Grid/MetaGridSpacingX00
350
103
  3
Grid/MetaGridSpacingX01
350
104
  3
Grid/MetaGridSpacingX02
350
105
  3
Grid/MetaGridSpacingX03
350
106
  3
Grid/MetaGridSpacingY00
350
107
  3
Grid/MetaGridSpacingY01
350
108
  3
Grid/MetaGridSpacingY02
350
109
  3
Grid/MetaGridSpacingY03
350
10A
  3
MultiPageSettings/Columns
350
10B
  3
MultiPageSettings/GlueMarginsBottom
350
10C
  3
MultiPageSettings/GlueMarginsLeft
350
10D
  3
MultiPageSettings/GlueMarginsRight
350
10E
  3
MultiPageSettings/GlueMarginsTop
350
10F
  3
MultiPageSettings/PrintCropMarks
350
110
  3
MultiPageSettings/Rows
350
111
  3
PageSettings/OffsetX
350
112
  3
PageSettings/OffsetY
350
113
  3
PageSettings/PageOrientation
350
114
  3
PageSettings/PaperHeight
350
115
  3
PageSettings/PaperWidth
350
116
  3
PageSettings/Scale
350
117
  3
PageSettings/ShowPaperBorders
350
118
  3
UnitSettings/PaperUnit
350
119
  3
ViewportCenter
350
11A
  3
ViewportHeight
350
11B
  3
ViewportWidth
350
11C
  0
XRECORD
  5
ED
330
EA
100
AcDbXrecord
280
1
1000
Blanca
  0
XRECORD
  5
EE
330
EA
100
AcDbXrecord
280
1
1000
FullColor
  0
XRECORD
  5
EF
330
EA
100
AcDbXrecord
280
1
290
1
  0
XRECORD
  5
F0
330
EA
100
AcDbXrecord
280
1
290
1
  0
XRECORD
  5
F1
330
EA
100
AcDbXrecord
280
1
290
1
  0
XRECORD
  5
F2
330
EA
100
AcDbXrecord
280
1
290
1
  0
XRECORD
  5
F3
330
EA
100
AcDbXrecord
280
1
1000
auto
  0
XRECORD
  5
F4
330
EA
100
AcDbXrecord
280
1
1000
auto
  0
XRECORD
  5
F5
330
EA
100
AcDbXrecord
280
1
1000
auto
  0
XRECORD
  5
F6
330
EA
100
AcDbXrecord
280
1
1000
auto
  0
XRECORD
  5
F7
330
EA
100
AcDbXrecord
280
1
1000
auto
  0
XRECORD
  5
F8
330
EA
100
AcDbXrecord
280
1
1000
auto
  0
XRECORD
  5
F9
330
EA
100
AcDbXrecord
280
1
1000
auto
  0
XRECORD
  5
FA
330
EA
100
AcDbXrecord
280
1
1000
auto
  0
XRECORD
  5
FB
330
EA
100
AcDbXrecord
280
1
290
0
  0
XRECORD
  5
FC
330
EA
100
AcDbXrecord
280
1
290
0
  0
XRECORD
  5
FD
330
EA
100
AcDbXrecord
280
1
290
0
  0
XRECORD
  5
FE
330
EA
100
AcDbXrecord
280
1
290
0
  0
XRECORD
  5
FF
330
EA
100
AcDbXrecord
280
1
 90
0
  0
XRECORD
  5
100
330
EA
100
AcDbXrecord
280
1
 90
0
  0
XRECORD
  5
101
330
EA
100
AcDbXrecord
280
1
 90
0
  0
XRECORD
  5
102
330
EA
100
AcDbXrecord
280
1
 90
0
  0
XRECORD
  5
103
330
EA
100
AcDbXrecord
280
1
1000
auto
  0
XRECORD
  5
104
330
EA
100
AcDbXrecord
280
1
1000
auto
  0
XRECORD
  5
105
330
EA
100
AcDbXrecord
280
1
1000
auto
  0
XRECORD
  5
106
330
EA
100
AcDbXrecord
280
1
1000
auto
  0
XRECORD
  5
107
330
EA
100
AcDbXrecord
280
1
1000
auto
  0
XRECORD
  5
108
330
EA
100
AcDbXrecord
280
1
1000
auto
  0
XRECORD
  5
109
330
EA
100
AcDbXrecord
280
1
1000
auto
  0
XRECORD
  5
10A
330
EA
100
AcDbXrecord
280
1
1000
auto
  0
XRECORD
  5
10B
330
EA
100
AcDbXrecord
280
1
 90
1
  0
XRECORD
  5
10C
330
EA
100
AcDbXrecord
280
1
 40
10.0
  0
XRECORD
  5
10D
330
EA
100
AcDbXrecord
280
1
 40
10.0
  0
XRECORD
  5
10E
330
EA
100
AcDbXrecord
280
1
 40
10.0
  0
XRECORD
  5
10F
330
EA
100
AcDbXrecord
280
1
 40
10.0
  0
XRECORD
  5
110
330
EA
100
AcDbXrecord
280
1
290
0
  0
XRECORD
  5
111
330
EA
100
AcDbXrecord
280
1
 90
1
  0
XRECORD
  5
112
330
EA
100
AcDbXrecord
280
1
 40
0.0
  0
XRECORD
  5
113
330
EA
100
AcDbXrecord
280
1
 40
0.0
  0
XRECORD
  5
114
330
EA
100
AcDbXrecord
280
1
1000
Portrait
  0
XRECORD
  5
115
330
EA
100
AcDbXrecord
280
1
 40
297.0
  0
XRECORD
  5
116
330
EA
100
AcDbXrecord
280
1
 40
210.0
  0
XRECORD
  5
117
330
EA
100
AcDbXrecord
280
1
1000
1:1
  0
XRECORD
  5
118
330
EA
100
AcDbXrecord
280
1
290
1
  0
XRECORD
  5
119
330
EA
100
AcDbXrecord
280
1
 90
4
  0
XRECORD
  5
11B
330
EA
100
AcDbXrecord
280
1
 40
44.722222222222221
  0
XRECORD
  5
11C
330
EA
100
AcDbXrecord
280
1
 40
104.30555555555556
  0
ENDSEC
  0
EOF
