<?xml version="1.0" encoding="UTF-8" standalone="no"?>
<!-- Created with Inkscape (http://www.inkscape.org/) -->

<svg
   xmlns:dc="http://purl.org/dc/elements/1.1/"
   xmlns:cc="http://creativecommons.org/ns#"
   xmlns:rdf="http://www.w3.org/1999/02/22-rdf-syntax-ns#"
   xmlns:svg="http://www.w3.org/2000/svg"
   xmlns="http://www.w3.org/2000/svg"
   xmlns:sodipodi="http://sodipodi.sourceforge.net/DTD/sodipodi-0.dtd"
   xmlns:inkscape="http://www.inkscape.org/namespaces/inkscape"
   width="210mm"
   height="297mm"
   viewBox="0 0 210 297"
   version="1.1"
   id="svg5836"
   inkscape:version="0.92.1 r15371"
   sodipodi:docname="goku_cola.svg">
  <defs
     id="defs5830" />
  <sodipodi:namedview
     id="base"
     pagecolor="#ffffff"
     bordercolor="#666666"
     borderopacity="1.0"
     inkscape:pageopacity="0.0"
     inkscape:pageshadow="2"
     inkscape:zoom="0.35"
     inkscape:cx="-292.85714"
     inkscape:cy="560"
     inkscape:document-units="mm"
     inkscape:current-layer="layer1"
     showgrid="false"
     inkscape:window-width="1366"
     inkscape:window-height="705"
     inkscape:window-x="-8"
     inkscape:window-y="-8"
     inkscape:window-maximized="1" />
  <metadata
     id="metadata5833">
    <rdf:RDF>
      <cc:Work
         rdf:about="">
        <dc:format>image/svg+xml</dc:format>
        <dc:type
           rdf:resource="http://purl.org/dc/dcmitype/StillImage" />
        <dc:title></dc:title>
      </cc:Work>
    </rdf:RDF>
  </metadata>
  <g
     inkscape:label="Layer 1"
     inkscape:groupmode="layer"
     id="layer1">
    <path
       id="path4533"
       style="fill:none;stroke:#ff0000;stroke-width:0.26458332"
       d="m 133.83641,190.0773 h 9.42097 v -3.5 h -10 v -2 h 10 v -3.5 h -27.35133 a 3.4784199,3.4784199 0 0 1 -3.58862,-2.71781 3.9999999,3.9999999 0 0 0 -0.22676,-0.70432 25.760111,25.760111 0 0 0 -40.106308,-9.71871 2.0171907,2.0171907 0 0 0 2.67678,2.99231 23.695468,23.695468 0 0 1 31.199018,4.84262 7,7 0 0 1 1.55656,3.75004 3.9999999,3.9999999 0 0 0 0.21176,0.94469 14.516318,14.516318 0 0 0 12.61012,9.61118 z"
       inkscape:connector-curvature="0" />
  </g>
</svg>
