<?xml version="1.0" encoding="UTF-8" standalone="no"?>
<!-- Created with Inkscape (http://www.inkscape.org/) -->

<svg
   xmlns:dc="http://purl.org/dc/elements/1.1/"
   xmlns:cc="http://creativecommons.org/ns#"
   xmlns:rdf="http://www.w3.org/1999/02/22-rdf-syntax-ns#"
   xmlns:svg="http://www.w3.org/2000/svg"
   xmlns="http://www.w3.org/2000/svg"
   xmlns:sodipodi="http://sodipodi.sourceforge.net/DTD/sodipodi-0.dtd"
   xmlns:inkscape="http://www.inkscape.org/namespaces/inkscape"
   width="210mm"
   height="297mm"
   viewBox="0 0 210 297"
   version="1.1"
   id="svg4647"
   inkscape:version="0.92.1 r15371"
   sodipodi:docname="goku_frontal.svg">
  <defs
     id="defs4641" />
  <sodipodi:namedview
     id="base"
     pagecolor="#ffffff"
     bordercolor="#666666"
     borderopacity="1.0"
     inkscape:pageopacity="0.0"
     inkscape:pageshadow="2"
     inkscape:zoom="0.35"
     inkscape:cx="-292.85714"
     inkscape:cy="560"
     inkscape:document-units="mm"
     inkscape:current-layer="layer1"
     showgrid="false"
     inkscape:window-width="1366"
     inkscape:window-height="705"
     inkscape:window-x="-8"
     inkscape:window-y="-8"
     inkscape:window-maximized="1" />
  <metadata
     id="metadata4644">
    <rdf:RDF>
      <cc:Work
         rdf:about="">
        <dc:format>image/svg+xml</dc:format>
        <dc:type
           rdf:resource="http://purl.org/dc/dcmitype/StillImage" />
        <dc:title></dc:title>
      </cc:Work>
    </rdf:RDF>
  </metadata>
  <g
     inkscape:label="Layer 1"
     inkscape:groupmode="layer"
     id="layer1">
    <path
       id="path4515"
       style="fill:none;stroke:#ff0000;stroke-width:0.26458332"
       d="m 105.78976,119.31551 a 8.0000001,8.0000001 0 1 0 -15.999996,0 8.0000001,8.0000001 0 1 0 15.999996,0 z"
       inkscape:connector-curvature="0" />
    <path
       id="path4517"
       style="fill:none;stroke:#ff0000;stroke-width:0.26458332"
       d="m 131.78976,119.31551 a 8.0000001,8.0000001 0 1 0 -16,0 8.0000001,8.0000001 0 1 0 16,0 z"
       inkscape:connector-curvature="0" />
    <path
       id="path4519"
       style="fill:none;stroke:#ff0000;stroke-width:0.26458332"
       d="m 79.981324,191.65999 0.46963,1.43816 a 1.9346913,1.9346913 0 0 0 1.11696,0.87948 6.3135457,6.3135457 0 0 0 5.67892,-0.10367 0.67792282,0.67792282 0 0 0 -0.27045,-1.18001 l -0.89239,-0.56637 a 0.87178568,0.87178568 0 0 1 -0.24471,-1.04175 l 0.4495,-1.21301 a 4.3366455,4.3366455 0 0 0 1.01942,2.59337 0.70643644,0.70643644 0 0 0 0.97788,-0.1027 14.344217,14.344217 0 0 0 -0.73028,-4.86966 16.6266,16.6266 0 0 0 0.5947,-10.62026 51.313154,51.313154 0 0 0 0.83584,-10.35377 l 0.73475,9.74996 2.56741,5.5678 -1.7602,36.72115 -11.86113,7.46347 a 1.0000001,1.0000001 0 0 0 0.28551,1.81539 h 19.83708 v -4.00003 h 2.999996 v 4.00003 a 3.8223915,3.8223915 0 0 0 3.61095,-1.89892 l 5.38905,-20.73381 5.38905,20.73381 a 3.8223915,3.8223915 0 0 0 3.61095,1.89892 v -4.00003 h 3 v 4.00003 h 19.83708 a 1.0000001,1.0000001 0 0 0 0.28551,-1.81539 l -11.86112,-7.46347 -1.50185,-22.70178 5.51215,5.77805 2.22697,-2.79741 -8.09882,-8.41782 0.44695,-5.6915 0.007,-4.55319 0.93949,-2.19215 1.27522,-1.71315 0.21857,-6.02443 a 16.261446,16.261446 0 0 0 1.31261,6.48163 17.049328,17.049328 0 0 0 0.58005,10.73096 14.415734,14.415734 0 0 0 -0.72274,4.87079 0.77960061,0.77960061 0 0 0 0.97804,0.10117 4.4456464,4.4456464 0 0 0 1.0154,-2.59493 l 0.45138,1.21231 a 1.0000001,1.0000001 0 0 1 -0.47327,1.19599 l -1.02326,0.69523 a 0.6065049,0.6065049 0 0 0 0.0933,0.89908 6.2042992,6.2042992 0 0 0 6.78365,-0.75838 12.111878,12.111878 0 0 0 0.8017,-5.55523 16.995609,16.995609 0 0 0 0.41465,-10.68639 24.940946,24.940946 0 0 0 -0.95394,-15.2422 l -0.001,-2.46511 -0.14357,-2.46093 a 10,10 0 0 0 -5.52996,-6.11463 l -14.82131,-2.29301 -0.94735,-2.88413 7.38579,-2.13987 a 3.0000001,3.0000001 0 0 0 2.07547,-2.16356 l 1.4383,-5.8422 10.93171,1.72539 -6.26456,-4.69842 7.83091,2.52014 -3.65454,-9.65478 a 12.819612,12.819612 0 0 1 12.35362,-13.13046 5.8349756,5.8349756 0 0 0 -8.59732,-2.90486 17.105134,17.105134 0 0 1 13.02665,-7.35689 14.748364,14.748364 0 0 0 -13.9085,4.57379 21.442421,21.442421 0 0 0 -14.13453,-12.743351 23.684787,23.684787 0 0 0 -25.34083,-23.686149 13.875822,13.875822 0 0 1 -2.11406,21.769563 19.36727,19.36727 0 0 0 -12.803266,-9.784329 13.846919,13.846919 0 0 0 -9.53762,4.56738 11.300181,11.300181 0 0 1 11.69984,11.294994 12.569521,12.569521 0 0 0 -11.88756,4.002892 17.627226,17.627226 0 0 1 7.03901,11.73507 7.8561036,7.8561036 0 0 0 -7.13396,-4.52388 17.788153,17.788153 0 0 1 6.28535,8.92023 2.8816205,2.8816205 0 0 0 -1.074,3.0943 20.421689,20.421689 0 0 0 6.78569,12.51229 l 2.14745,8.22755 a 2.7929687,2.7929687 0 0 0 1.86283,1.54529 l 7.279616,2.10911 -0.95592,2.93054 -10.416056,1.62797 -8.25223,-8.57726 -2.43622,2.08819 6.77408,7.10087 a 8.6210317,8.6210317 0 0 0 -6.11196,7.7371 l -0.0333,3.38851 a 23.280791,23.280791 0 0 0 -0.93035,15.24365 16.584972,16.584972 0 0 0 0.4106,10.63082 12.517149,12.517149 0 0 0 0.36509,4.19973"
       inkscape:connector-curvature="0" />
    <path
       id="path4521"
       style="fill:none;stroke:#ff0000;stroke-width:0.26458332"
       d="m 143.28849,134.77903 v 0"
       inkscape:connector-curvature="0" />
    <path
       id="path4523"
       style="fill:none;stroke:#ff0000;stroke-width:0.26458332"
       d="m 135.45759,132.25889 v 0"
       inkscape:connector-curvature="0" />
    <path
       id="path4525"
       style="fill:none;stroke:#ff0000;stroke-width:0.26458332"
       d="m 141.72215,136.95731 v 0"
       inkscape:connector-curvature="0" />
    <path
       id="path4527"
       style="fill:none;stroke:#ff0000;stroke-width:0.26458332"
       d="m 130.79044,135.23192 v 0"
       inkscape:connector-curvature="0" />
    <path
       id="path4529"
       style="fill:none;stroke:#ff0000;stroke-width:0.26458332"
       d="m 119.89088,145.37755 v 0"
       inkscape:connector-curvature="0" />
    <path
       id="path4531"
       style="fill:none;stroke:#ff0000;stroke-width:0.26458332"
       d="m 126.78976,163.15952 v 32 H 94.789764 v -32 z"
       inkscape:connector-curvature="0" />
  </g>
</svg>
