<?xml version="1.0" encoding="UTF-8" standalone="no"?>
<!-- Created with Inkscape (http://www.inkscape.org/) -->

<svg
   xmlns:dc="http://purl.org/dc/elements/1.1/"
   xmlns:cc="http://creativecommons.org/ns#"
   xmlns:rdf="http://www.w3.org/1999/02/22-rdf-syntax-ns#"
   xmlns:svg="http://www.w3.org/2000/svg"
   xmlns="http://www.w3.org/2000/svg"
   xmlns:sodipodi="http://sodipodi.sourceforge.net/DTD/sodipodi-0.dtd"
   xmlns:inkscape="http://www.inkscape.org/namespaces/inkscape"
   width="210mm"
   height="297mm"
   viewBox="0 0 210 297"
   version="1.1"
   id="svg7673"
   inkscape:version="0.92.1 r15371"
   sodipodi:docname="goku_frontal_detalles.svg">
  <defs
     id="defs7667" />
  <sodipodi:namedview
     id="base"
     pagecolor="#ffffff"
     bordercolor="#666666"
     borderopacity="1.0"
     inkscape:pageopacity="0.0"
     inkscape:pageshadow="2"
     inkscape:zoom="1.1226248"
     inkscape:cx="392.89583"
     inkscape:cy="527.93174"
     inkscape:document-units="mm"
     inkscape:current-layer="layer1"
     showgrid="false"
     inkscape:window-width="1366"
     inkscape:window-height="705"
     inkscape:window-x="-8"
     inkscape:window-y="-8"
     inkscape:window-maximized="1" />
  <metadata
     id="metadata7670">
    <rdf:RDF>
      <cc:Work
         rdf:about="">
        <dc:format>image/svg+xml</dc:format>
        <dc:type
           rdf:resource="http://purl.org/dc/dcmitype/StillImage" />
        <dc:title></dc:title>
      </cc:Work>
    </rdf:RDF>
  </metadata>
  <g
     inkscape:label="Layer 1"
     inkscape:groupmode="layer"
     id="layer1">
    <path
       id="path7147"
       style="fill:none;stroke:#00ff00;stroke-width:0.26458332"
       d="m 80.713443,123.45304 a 4.4204729,1.6779769 64.578238 0 0 1.89809,7.70981"
       inkscape:connector-curvature="0" />
    <path
       id="path7149"
       style="fill:none;stroke:#00ff00;stroke-width:0.26458332"
       d="m 125.36087,131.16285 a 1.6779783,4.4204765 25.42176 0 0 1.89808,-7.70981"
       inkscape:connector-curvature="0" />
    <path
       id="path7151"
       style="fill:none;stroke:#00ff00;stroke-width:0.26458332"
       d="m 121.57042,95.074375 a 22.437301,22.437301 0 0 0 -3.65683,-0.788104"
       inkscape:connector-curvature="0" />
    <path
       id="path7153"
       style="fill:none;stroke:#00ff00;stroke-width:0.26458332"
       d="m 114.03467,149.77358 0.94535,2.87722"
       inkscape:connector-curvature="0" />
    <path
       id="path7155"
       style="fill:none;stroke:#00ff00;stroke-width:0.26458332"
       d="m 93.822992,149.78923 -0.940895,2.87867"
       inkscape:connector-curvature="0" />
    <path
       id="path7157"
       style="fill:none;stroke:#00ff00;stroke-width:0.26458332"
       d="m 83.406934,151.4172 -3.914371,0.6118"
       inkscape:connector-curvature="0" />
    <path
       id="path7165"
       style="fill:none;stroke:#00ff00;stroke-width:0.26458332"
       d="m 123.24522,107.21396 a 24.067359,24.067359 0 0 0 -3.99615,0.53099"
       inkscape:connector-curvature="0" />
    <path
       id="path7167"
       style="fill:none;stroke:#00ff00;stroke-width:0.26458332"
       d="m 123.77965,179.49481 -3.75885,-0.38014"
       inkscape:connector-curvature="0" />
    <path
       id="path7169"
       style="fill:none;stroke:#00ff00;stroke-width:0.26458332"
       d="m 84.484941,180.34946 3.518178,-1.11564"
       inkscape:connector-curvature="0" />
    <path
       id="path7171"
       style="fill:none;stroke:#00ff00;stroke-width:0.26458332"
       d="m 122.38612,191.93165 0.3597,5.43718"
       inkscape:connector-curvature="0" />
    <path
       id="path7173"
       style="fill:none;stroke:#00ff00;stroke-width:0.26458332"
       d="m 107.48494,140.34946 a 8.1927207,8.1927207 0 0 0 -6,1"
       inkscape:connector-curvature="0" />
    <path
       id="path7175"
       style="fill:none;stroke:#00ff00;stroke-width:0.26458332"
       d="m 86.527075,150.92009 3.837572,8.95738"
       inkscape:connector-curvature="0" />
    <path
       id="path7177"
       style="fill:none;stroke:#00ff00;stroke-width:0.26458332"
       d="m 126.34042,186.20074 9.52668,-0.0302"
       inkscape:connector-curvature="0" />
    <path
       id="path7179"
       style="fill:none;stroke:#00ff00;stroke-width:0.26458332"
       d="m 81.583023,186.18957 -9.543071,-0.007"
       inkscape:connector-curvature="0" />
    <path
       id="path7181"
       style="fill:none;stroke:#00ff00;stroke-width:0.26458332"
       d="m 127.1087,188.71308 h 8.07895"
       inkscape:connector-curvature="0" />
    <path
       id="path7183"
       style="fill:none;stroke:#00ff00;stroke-width:0.26458332"
       d="M 80.8637,188.71308 H 72.713282"
       inkscape:connector-curvature="0" />
    <path
       id="path7185"
       style="fill:none;stroke:#00ff00;stroke-width:0.26458332"
       d="m 124.24766,220.07061 -16.71828,0.27816"
       inkscape:connector-curvature="0" />
    <path
       id="path7187"
       style="fill:none;stroke:#00ff00;stroke-width:0.26458332"
       d="m 83.724738,220.07061 16.718282,0.27816"
       inkscape:connector-curvature="0" />
    <path
       id="path7189"
       style="fill:none;stroke:#00ff00;stroke-width:0.26458332"
       d="M 123.93533,215.34946 H 106.22998"
       inkscape:connector-curvature="0" />
    <path
       id="path7191"
       style="fill:none;stroke:#00ff00;stroke-width:0.26458332"
       d="M 123.74033,212.99332 H 105.61758"
       inkscape:connector-curvature="0" />
    <path
       id="path7193"
       style="fill:none;stroke:#00ff00;stroke-width:0.26458332"
       d="M 84.037068,215.34946 H 101.74242"
       inkscape:connector-curvature="0" />
    <path
       id="path7195"
       style="fill:none;stroke:#00ff00;stroke-width:0.26458332"
       d="M 84.232074,212.99332 H 102.35481"
       inkscape:connector-curvature="0" />
    <path
       id="path7197"
       style="fill:none;stroke:#00ff00;stroke-width:0.26458332"
       d="m 125.27343,171.75723 8.34971,-15.48603"
       inkscape:connector-curvature="0" />
    <path
       id="path7199"
       style="fill:none;stroke:#00ff00;stroke-width:0.26458332"
       d="M 82.169827,167.97663 74.349262,156.2712"
       inkscape:connector-curvature="0" />
    <path
       id="path7201"
       style="fill:none;stroke:#00ff00;stroke-width:0.26458332"
       d="m 130.98809,161.15836 -0.50063,-8.22484"
       inkscape:connector-curvature="0" />
    <path
       id="path7203"
       style="fill:none;stroke:#00ff00;stroke-width:0.26458332"
       d="m 77.484942,160.88844 v -7.95492"
       inkscape:connector-curvature="0" />
    <path
       id="path7205"
       style="fill:none;stroke:#00ff00;stroke-width:0.26458332"
       d="m 122.45625,191.0387 -2.47005,0.0108"
       inkscape:connector-curvature="0" />
    <path
       id="path7207"
       style="fill:none;stroke:#00ff00;stroke-width:0.26458332"
       d="m 122.83337,186.05074 -2.84717,-10e-4"
       inkscape:connector-curvature="0" />
    <path
       id="path7209"
       style="fill:none;stroke:#00ff00;stroke-width:0.26458332"
       d="m 85.288068,191.00924 2.698131,0.0402"
       inkscape:connector-curvature="0" />
    <path
       id="path7211"
       style="fill:none;stroke:#00ff00;stroke-width:0.26458332"
       d="m 85.484942,186.04946 h 2.501257"
       inkscape:connector-curvature="0" />
    <path
       id="path7213"
       style="fill:none;stroke:#00ff00;stroke-width:0.26458332"
       d="m 88.345797,196.67142 a 4.2453517,4.2453517 0 0 0 1.139145,2.67803 11.52443,11.52443 0 0 1 1.912226,2.1"
       inkscape:connector-curvature="0" />
    <path
       id="path7215"
       style="fill:none;stroke:#00ff00;stroke-width:0.26458332"
       d="m 90.408586,204.34946 a 18.715709,18.715709 0 0 1 1.076357,4 l 1.999999,-0.99999 a 11.52443,11.52443 0 0 0 -0.602753,-3.00001"
       inkscape:connector-curvature="0" />
    <path
       id="path7217"
       style="fill:none;stroke:#00ff00;stroke-width:0.26458332"
       d="m 88.97056,201.44945 a 18.715709,18.715709 0 0 0 -1.485617,-2.1 10.393757,10.393757 0 0 1 -0.519229,-8.30913"
       inkscape:connector-curvature="0" />
    <path
       id="path7219"
       style="fill:none;stroke:#00ff00;stroke-width:0.26458332"
       d="m 93.493678,201.44945 a 12.886858,12.886858 0 0 1 -0.658767,-2.02137 1.9999999,1.9999999 0 0 0 -0.172744,-0.46384 34.305943,34.305943 0 0 0 -1.309957,-2.29282"
       inkscape:connector-curvature="0" />
    <path
       id="path7221"
       style="fill:none;stroke:#00ff00;stroke-width:0.26458332"
       d="m 94.039492,196.67142 a 12.610763,12.610763 0 0 1 0.917179,2.20821 12.832147,12.832147 0 0 0 1.009766,2.56982"
       inkscape:connector-curvature="0" />
    <path
       id="path7223"
       style="fill:none;stroke:#00ff00;stroke-width:0.26458332"
       d="m 96.4862,202.35144 a 12.832147,12.832147 0 0 0 3.99874,3.99801 l -1.999998,1.00002 a 12.886858,12.886858 0 0 1 -3.298817,-3.00001"
       inkscape:connector-curvature="0" />
    <path
       id="path7227"
       style="fill:none;stroke:#00ff00;stroke-width:0.26458332"
       d="m 90.367904,159.87747 13.618296,3.51726 13.62155,-3.51726 3.83757,-8.95738"
       inkscape:connector-curvature="0" />
    <path
       id="path7229"
       style="fill:none;stroke:#00ff00;stroke-width:0.26458332"
       d="m 94.77891,146.85869 8.09415,2.34511 a 3.9999999,3.9999999 0 0 0 2.22627,0 l 7.98799,-2.31435"
       inkscape:connector-curvature="0" />
    <path
       id="path7231"
       style="fill:none;stroke:#00ff00;stroke-width:0.26458332"
       d="m 124.99894,107.19326 a 6.2450934,6.2450934 0 0 1 0.61395,0.023 l -1.0441,6.09055 a 62.373475,62.373475 0 0 0 -16.00944,-0.87008 27.424893,27.424893 0 0 1 9.79376,-4.48061"
       inkscape:connector-curvature="0" />
    <path
       id="path7233"
       style="fill:none;stroke:#00ff00;stroke-width:0.26458332"
       d="m 82.207112,107.44455 a 27.424893,27.424893 0 0 1 17.100354,5.03532 62.373475,62.373475 0 0 0 -16.000619,1.01944 l -1.100886,-6.08054"
       inkscape:connector-curvature="0" />
    <path
       id="path7235"
       style="fill:none;stroke:#00ff00;stroke-width:0.26458332"
       d="m 78.625929,114.9738 q 0.569235,2.31217 1.138473,4.62434 -1.183656,-0.66941 -1.963584,-0.24109"
       inkscape:connector-curvature="0" />
    <path
       id="path7237"
       style="fill:none;stroke:#00ff00;stroke-width:0.26458332"
       d="m 127.3236,161.38518 a 3.800729,3.800729 0 1 0 -7.60145,0 3.800729,3.800729 0 1 0 7.60145,0 z"
       inkscape:connector-curvature="0" />
    <path
       id="path7239"
       style="fill:none;stroke:#00ff00;stroke-width:0.26458332"
       d="m 121.94335,159.01217 c 0.29747,0.20595 0.49197,0.11442 0.59685,0.0248 0.10488,-0.0896 0.12013,-0.17734 0.096,-0.29161 -0.0242,-0.11427 -0.0877,-0.25509 -0.11947,-0.32549 -0.0318,-0.0704 -0.0318,-0.0704 0.0134,-0.0858 0.0451,-0.0154 0.13536,-0.0462 0.17857,-0.0597 0.0432,-0.0135 0.0394,-0.01 0.0566,0.0189 0.0172,0.0286 0.0553,0.082 0.13158,0.10294 0.0763,0.0209 0.19069,0.01 0.32417,-0.021 0.13348,-0.0305 0.28603,-0.0801 0.44812,-0.0896 0.16208,-0.01 0.3337,0.021 0.44049,0.0686 0.10678,0.0477 0.14873,0.1125 0.0972,0.25171 -0.0515,0.1392 -0.19641,0.35277 -0.26849,0.46002 -0.0721,0.10726 -0.0713,0.1082 0.17468,0.10629 0.24599,-0.002 0.73719,-0.007 0.97971,-0.001 0.24252,0.006 0.23636,0.0218 0.29928,0.14578 0.0629,0.12394 0.19495,0.3557 0.26286,0.51925 0.0679,0.16355 0.0717,0.2589 0.005,0.38666 -0.0667,0.12775 -0.20404,0.28793 -0.27269,0.36802 -0.0686,0.0801 -0.0686,0.0801 -0.297,0.0845 -0.22837,0.004 -0.68509,0.0132 -0.9221,0.0254 -0.237,0.0122 -0.25429,0.0278 -0.2622,0.14642 -0.008,0.11862 -0.006,0.34027 -0.006,0.45109 7.9e-4,0.11082 7.9e-4,0.11082 0.26475,0.10085 0.264,-0.01 0.79202,-0.0299 1.05603,-0.0399 0.26401,-0.01 0.26401,-0.01 0.35192,0.0356 0.0879,0.0456 0.26371,0.13667 0.35161,0.21386 0.0879,0.0772 0.0879,0.14045 0.0919,0.33816 0.004,0.1977 0.0119,0.52984 -0.0118,0.68405 -0.0237,0.15421 -0.0791,0.13049 -0.4389,0.13049 -0.35983,0 -1.02411,0.0237 -1.37648,0.0758 -0.35236,0.0521 -0.3928,0.13248 -0.3928,0.38896 0,0.25648 0.0404,0.68902 0.0553,0.91267 0.0148,0.22364 0.004,0.23839 0.19788,0.22258 0.19375,-0.0158 0.59198,-0.0622 0.83459,-0.18424 0.24261,-0.12205 0.3296,-0.31975 0.37165,-0.41852 0.042,-0.0988 0.0391,-0.0986 0.0532,-0.017 0.0141,0.0816 0.0451,0.24462 0.028,0.40203 -0.0171,0.15741 -0.0822,0.30919 -0.30701,0.42901 -0.22479,0.11983 -0.60922,0.20769 -0.90302,0.24064 -0.29381,0.033 -0.49701,0.011 -0.68648,-0.0769 -0.18946,-0.0879 -0.3652,-0.24164 -0.43385,-0.5327 -0.0686,-0.29107 -0.0302,-0.71943 -0.0188,-0.94415 0.0114,-0.22473 -0.004,-0.24582 -0.27344,-0.23758 -0.26909,0.008 -0.79158,0.0458 -1.09126,0.0646 -0.29969,0.0188 -0.37657,0.0188 -0.46719,-0.0334 -0.0906,-0.0522 -0.19496,-0.15652 -0.24713,-0.43111 -0.0522,-0.27459 -0.0522,-0.71942 -0.0595,-0.93523 -0.007,-0.21581 -0.0221,-0.20259 0.35135,-0.20259 0.37345,0 1.13506,-0.0132 1.52458,-0.0329 0.38952,-0.0197 0.40696,-0.0459 0.4097,-0.17223 0.003,-0.12631 -0.009,-0.35272 -0.0152,-0.46593 -0.006,-0.11321 -0.006,-0.11321 -0.29703,-0.11596 -0.29107,-0.003 -0.8732,-0.008 -1.17569,-0.0244 -0.30248,-0.0162 -0.32532,-0.043 -0.32532,-0.28738 0,-0.24438 0.0228,-0.70632 0.0174,-0.92022 -0.005,-0.2139 -0.039,-0.17977 0.0928,-0.16329 0.1318,0.0165 0.42906,0.0153 0.57769,0.0147 0.14863,-5.3e-4 0.14863,-5.3e-4 0.10987,-0.03 -0.0388,-0.0294 -0.11627,-0.0882 -0.17487,-0.27439"
       inkscape:connector-curvature="0" />
    <path
       id="path7241"
       style="fill:none;stroke:#00ff00;stroke-width:0.26458332"
       d="m 104.38349,131.01455 c -1.31227,3.23171 -1.34149,3.26111 -1.06606,3.50594 0.27543,0.24482 0.85551,0.70508 2.20206,0.58266"
       inkscape:connector-curvature="0" />
    <path
       id="path7243"
       style="fill:none;stroke:#00ff00;stroke-width:0.26458332"
       d="m 123.16254,158.59673 0.64071,-0.0114 -0.13729,0.42333 -0.68727,-1e-5 z"
       inkscape:connector-curvature="0" />
    <path
       id="path7245"
       style="fill:none;stroke:#00ff00;stroke-width:0.26458332"
       d="m 123.02047,162.32029 v 0.26315 h -1.71618 v -0.26315 z"
       inkscape:connector-curvature="0" />
    <path
       id="path7247"
       style="fill:none;stroke:#00ff00;stroke-width:0.26458332"
       d="m 125.60701,162.27846 v 0.26361 h -1.61458 v -0.26361 z"
       inkscape:connector-curvature="0" />
    <path
       id="path7249"
       style="fill:none;stroke:#00ff00;stroke-width:0.26458332"
       d="m 125.59053,161.7842 v 0.26361 h -1.69696 v -0.26361 z"
       inkscape:connector-curvature="0" />
    <path
       id="path7251"
       style="fill:none;stroke:#00ff00;stroke-width:0.26458332"
       d="m 123.02038,161.94896 v 0.24712 h -1.71292 v -0.24712 z"
       inkscape:connector-curvature="0" />
    <path
       id="path7253"
       style="fill:none;stroke:#00ff00;stroke-width:0.26458332"
       d="m 125.18981,160.11622 v 0.22882 h -1.29286 v -0.22882 z"
       inkscape:connector-curvature="0" />
    <path
       id="path7255"
       style="fill:none;stroke:#00ff00;stroke-width:0.26458332"
       d="m 125.21269,159.61281 v 0.2517 h -1.37295 v -0.2517 z"
       inkscape:connector-curvature="0" />
    <path
       id="path7257"
       style="fill:none;stroke:#00ff00;stroke-width:0.26458332"
       d="m 123.07318,160.19631 v 0.18306 h -1.31574 v -0.18306 z"
       inkscape:connector-curvature="0" />
    <path
       id="path7259"
       style="fill:none;stroke:#00ff00;stroke-width:0.26458332"
       d="m 123.07318,159.64713 v 0.22882 h -1.38439 v -0.22882 z"
       inkscape:connector-curvature="0" />
    <path
       id="path7261"
       style="fill:none;stroke:#00ff00;stroke-width:0.26458332"
       d="m 123.98688,136.74382 q 0.21247,-0.86304 0.42494,-1.72607"
       inkscape:connector-curvature="0" />
    <path
       id="path7263"
       style="fill:none;stroke:#00ff00;stroke-width:0.26458332"
       d="m 124.41182,135.01775 q 4.4708,-2.52841 6.36888,-10.23822 1.89809,-7.70981 -2.5727,-5.18139"
       inkscape:connector-curvature="0" />
    <path
       id="path7265"
       style="fill:none;stroke:#00ff00;stroke-width:0.26458332"
       d="m 128.208,119.59814 q 0.77411,-3.14436 1.54822,-6.28871 0.80056,-3.25178 -1.22898,-5.91561"
       inkscape:connector-curvature="0" />
    <path
       id="path7267"
       style="fill:none;stroke:#00ff00;stroke-width:0.26458332"
       d="m 128.52724,107.39382 q -0.80601,-1.55072 -1.94501,-2.87626"
       inkscape:connector-curvature="0" />
    <path
       id="path7269"
       style="fill:none;stroke:#00ff00;stroke-width:0.26458332"
       d="m 126.58223,104.51756 q -1.15711,3.00965 -3.92485,4.66389"
       inkscape:connector-curvature="0" />
    <path
       id="path7271"
       style="fill:none;stroke:#00ff00;stroke-width:0.26458332"
       d="m 122.65738,109.18145 q 1.32005,-3.65848 1.04344,-7.53798"
       inkscape:connector-curvature="0" />
    <path
       id="path7273"
       style="fill:none;stroke:#00ff00;stroke-width:0.26458332"
       d="m 123.70082,101.64347 q -0.55884,-0.60207 -1.30047,-0.95531"
       inkscape:connector-curvature="0" />
    <path
       id="path7275"
       style="fill:none;stroke:#00ff00;stroke-width:0.26458332"
       d="m 122.40035,100.68816 q -0.0471,5.30321 -4.54442,8.11399"
       inkscape:connector-curvature="0" />
    <path
       id="path7277"
       style="fill:none;stroke:#00ff00;stroke-width:0.26458332"
       d="m 117.85593,108.80215 q 0.26774,-0.42272 0.50617,-0.86263 2.19107,-4.04264 1.69245,-8.613759"
       inkscape:connector-curvature="0" />
    <path
       id="path7279"
       style="fill:none;stroke:#00ff00;stroke-width:0.26458332"
       d="m 120.05455,99.325761 q -3.805,-1.869276 -8.04259,-1.992175"
       inkscape:connector-curvature="0" />
    <path
       id="path7281"
       style="fill:none;stroke:#00ff00;stroke-width:0.26458332"
       d="m 112.01196,97.333586 q -9.82934,5.273344 -10.37246,16.414664"
       inkscape:connector-curvature="0" />
    <path
       id="path7283"
       style="fill:none;stroke:#00ff00;stroke-width:0.26458332"
       d="M 101.6395,113.74825 Q 97.674312,105.83302 97.810234,96.981179"
       inkscape:connector-curvature="0" />
    <path
       id="path7285"
       style="fill:none;stroke:#00ff00;stroke-width:0.26458332"
       d="m 97.810234,96.981179 q -4.742508,0.532638 -9.011177,2.66655"
       inkscape:connector-curvature="0" />
    <path
       id="path7287"
       style="fill:none;stroke:#00ff00;stroke-width:0.26458332"
       d="m 88.799057,99.647729 q -0.774128,4.605971 3.323217,6.847841"
       inkscape:connector-curvature="0" />
    <path
       id="path7289"
       style="fill:none;stroke:#00ff00;stroke-width:0.26458332"
       d="m 92.122274,106.49557 q -5.045702,0.18305 -7.652631,-4.1409"
       inkscape:connector-curvature="0" />
    <path
       id="path7291"
       style="fill:none;stroke:#00ff00;stroke-width:0.26458332"
       d="m 84.469643,102.35467 q -2.849015,2.18378 -5.024485,5.03915"
       inkscape:connector-curvature="0" />
    <path
       id="path7293"
       style="fill:none;stroke:#00ff00;stroke-width:0.26458332"
       d="m 79.445158,107.39382 q -1.897121,2.18362 -1.387356,5.03098"
       inkscape:connector-curvature="0" />
    <path
       id="path7305"
       style="fill:none;stroke:#000000;stroke-width:0.26458332"
       d="m 98.986191,120.82742 a 8.0000001,8.0000001 0 1 0 -16,0 8.0000001,8.0000001 0 1 0 16,0 z"
       inkscape:connector-curvature="0" />
    <path
       id="path7307"
       style="fill:none;stroke:#000000;stroke-width:0.26458332"
       d="m 124.98619,120.82742 a 8.000001,8.000001 0 1 0 -16,0 8.000001,8.000001 0 1 0 16,0 z"
       inkscape:connector-curvature="0" />
    <path
       id="path7309"
       style="fill:none;stroke:#000000;stroke-width:0.26458332"
       d="m 73.177751,193.1719 0.46963,1.43816 a 1.9346913,1.9346913 0 0 0 1.11696,0.87948 6.3135457,6.3135457 0 0 0 5.67892,-0.10367 0.67792282,0.67792282 0 0 0 -0.27045,-1.18001 l -0.89239,-0.56637 a 0.87178568,0.87178568 0 0 1 -0.24471,-1.04175 l 0.4495,-1.21301 a 4.3366455,4.3366455 0 0 0 1.01942,2.59337 0.70643644,0.70643644 0 0 0 0.97788,-0.1027 14.344217,14.344217 0 0 0 -0.73028,-4.86966 16.6266,16.6266 0 0 0 0.5947,-10.62026 51.313154,51.313154 0 0 0 0.83584,-10.35377 l 0.73475,9.74996 2.56741,5.5678 -1.7602,36.72115 -11.86113,7.46347 a 1.0000001,1.0000001 0 0 0 0.28551,1.81539 h 19.83708 v -4.00003 h 3 v 4.00003 a 3.8223915,3.8223915 0 0 0 3.61095,-1.89892 l 5.389049,-20.73381 5.38905,20.73381 a 3.8223915,3.8223915 0 0 0 3.61095,1.89892 v -4.00003 h 3 v 4.00003 h 19.83708 a 1.0000001,1.0000001 0 0 0 0.28551,-1.81539 l -11.86113,-7.46347 -1.50184,-22.70178 5.51215,5.77805 2.22697,-2.79741 -8.09882,-8.41782 0.44695,-5.6915 0.007,-4.55319 0.93949,-2.19215 1.27522,-1.71315 0.21857,-6.02443 a 16.261446,16.261446 0 0 0 1.31261,6.48163 17.049328,17.049328 0 0 0 0.58005,10.73096 14.415734,14.415734 0 0 0 -0.72274,4.87079 0.77960061,0.77960061 0 0 0 0.97804,0.10117 4.4456464,4.4456464 0 0 0 1.0154,-2.59493 l 0.45138,1.21231 a 1.0000001,1.0000001 0 0 1 -0.47327,1.19599 l -1.02326,0.69523 a 0.6065049,0.6065049 0 0 0 0.0933,0.89908 6.2042992,6.2042992 0 0 0 6.78365,-0.75838 12.111878,12.111878 0 0 0 0.8017,-5.55523 16.995609,16.995609 0 0 0 0.41465,-10.68639 24.940946,24.940946 0 0 0 -0.95394,-15.2422 l -0.001,-2.46511 -0.14357,-2.46093 a 10,10 0 0 0 -5.52996,-6.11463 l -14.82131,-2.29301 -0.94735,-2.88414 7.38579,-2.13986 a 3.0000001,3.0000001 0 0 0 2.07547,-2.16356 l 1.4383,-5.8422 10.93171,1.72539 -6.26456,-4.69842 7.83091,2.52014 -3.65454,-9.65478 a 12.819612,12.819612 0 0 1 12.35372,-13.13047 5.8349756,5.8349756 0 0 0 -8.59732,-2.90486 17.105134,17.105134 0 0 1 13.02665,-7.35689 14.748364,14.748364 0 0 0 -13.9085,4.5738 21.442421,21.442421 0 0 0 -14.13453,-12.743365 23.684787,23.684787 0 0 0 -25.340829,-23.68614 13.875822,13.875822 0 0 1 -2.11406,21.76956 19.36727,19.36727 0 0 0 -12.80327,-9.78433 13.846919,13.846919 0 0 0 -9.53762,4.56738 11.300181,11.300181 0 0 1 11.69984,11.294989 12.569521,12.569521 0 0 0 -11.88756,4.002896 17.627226,17.627226 0 0 1 7.03901,11.73507 7.8561036,7.8561036 0 0 0 -7.13396,-4.52387 17.788153,17.788153 0 0 1 6.28535,8.92023 2.8816205,2.8816205 0 0 0 -1.074,3.09429 20.421689,20.421689 0 0 0 6.78569,12.5123 l 2.14745,8.22755 a 2.7929687,2.7929687 0 0 0 1.86283,1.54529 l 7.27962,2.10911 -0.95592,2.93054 -10.41606,1.62797 -8.25223,-8.57726 -2.43622,2.08819 6.77408,7.10087 a 8.6210317,8.6210317 0 0 0 -6.11196,7.7371 l -0.0333,3.38851 a 23.280791,23.280791 0 0 0 -0.93035,15.24365 16.584972,16.584972 0 0 0 0.4106,10.63082 12.517149,12.517149 0 0 0 0.36509,4.19973"
       inkscape:connector-curvature="0" />
    <path
       id="path7311"
       style="fill:none;stroke:#000000;stroke-width:0.26458332"
       d="m 136.48492,136.29094 v 0"
       inkscape:connector-curvature="0" />
    <path
       id="path7313"
       style="fill:none;stroke:#000000;stroke-width:0.26458332"
       d="m 128.65402,133.7708 v 0"
       inkscape:connector-curvature="0" />
    <path
       id="path7315"
       style="fill:none;stroke:#000000;stroke-width:0.26458332"
       d="m 134.91858,138.46922 v 0"
       inkscape:connector-curvature="0" />
    <path
       id="path7317"
       style="fill:none;stroke:#000000;stroke-width:0.26458332"
       d="m 123.98687,136.74383 v 0"
       inkscape:connector-curvature="0" />
    <path
       id="path7319"
       style="fill:none;stroke:#000000;stroke-width:0.26458332"
       d="m 113.08731,146.88945 v 0"
       inkscape:connector-curvature="0" />
    <path
       id="path7321"
       style="fill:none;stroke:#000000;stroke-width:0.26458332"
       d="m 119.98619,164.67143 v 32 H 87.986191 v -32 z"
       inkscape:connector-curvature="0" />
  </g>
</svg>
