999
dxflib 3.12.2.0
  0
SECTION
  2
HEADER
  9
$ACADVER
  1
AC1015
  9
$HANDSEED
  5
FFFF
  9
$ANGBASE
 50
0.0
  9
$ATTMODE
 70
1
  9
$AUNITS
 70
0
  9
$AUPREC
 70
0
  9
$CELTSCALE
 40
1.0
  9
$CHAMFERA
 40
0.0
  9
$CHAMFERB
 40
0.0
  9
$CHAMFERC
 40
0.0
  9
$CHAMFERD
 40
0.0
  9
$CMLJUST
 70
0
  9
$CMLSCALE
 40
1.0
  9
$DIMADEC
 70
0
  9
$DIMALTD
 70
3
  9
$DIMALTF
 40
0.03937007874016
  9
$DIMALTRND
 40
0.0
  9
$DIMALTTD
 70
2
  9
$DIMALTTZ
 70
0
  9
$DIMALTU
 70
2
  9
$DIMALTZ
 70
0
  9
$DIMAPOST
  1

  9
$DIMASZ
 40
2.5
  9
$DIMATFIT
 70
3
  9
$DIMAUNIT
 70
0
  9
$DIMAZIN
 70
0
  9
$DIMCEN
 40
2.5
  9
$DIMDEC
 70
4
  9
$DIMDLE
 40
0.0
  9
$DIMDLI
 40
3.75
  9
$DIMDSEP
 70
46
  9
$DIMEXE
 40
1.25
  9
$DIMEXO
 40
0.625
  9
$DIMFRAC
 70
0
  9
$DIMGAP
 40
0.625
  9
$DIMJUST
 70
0
  9
$DIMLFAC
 40
1.0
  9
$DIMLUNIT
 70
2
  9
$DIMLWD
 70
-2
  9
$DIMLWE
 70
-2
  9
$DIMPOST
  1

  9
$DIMRND
 40
0.0
  9
$DIMSCALE
 40
1.0
  9
$DIMTAD
 70
1
  9
$DIMTDEC
 70
4
  9
$DIMTFAC
 40
1.0
  9
$DIMTM
 40
0.0
  9
$DIMTOLJ
 70
1
  9
$DIMTP
 40
0.0
  9
$DIMTSZ
 40
0.0
  9
$DIMTVP
 40
0.0
  9
$DIMTXT
 40
2.5
  9
$DIMTZIN
 70
0
  9
$DIMZIN
 70
8
  9
$DWGCODEPAGE
  3
ANSI_1252
  9
$ELEVATION
 40
0.0
  9
$EXTMAX
 10
150.0
 20
160.0
 30
0.0
  9
$EXTMIN
 10
0.0
 20
0.0
 30
0.0
  9
$FILLETRAD
 40
5.0
  9
$INSBASE
 10
0.0
 20
0.0
 30
0.0
  9
$INSUNITS
 70
0
  9
$LIMMAX
 10
420.0
 20
297.0
  9
$LIMMIN
 10
0.0
 20
0.0
  9
$LTSCALE
 40
1.0
  9
$LUNITS
 70
2
  9
$LUPREC
 70
4
  9
$MAXACTVP
 70
2
  9
$MEASUREMENT
 70
0
  9
$PDMODE
 70
0
  9
$PDSIZE
 40
0.0
  9
$PELEVATION
 40
0.0
  9
$PEXTMAX
 10
9.9287257582933517
 20
7.5991666710079731
 30
0.0000000349246037
  9
$PEXTMIN
 10
1.049636599258094
 20
0.3333892899584683
 30
-0.0015258207003583
  9
$PINSBASE
 10
0.0
 20
0.0
 30
0.0
  9
$PLIMMAX
 10
10.75
 20
8.25
  9
$PLIMMIN
 10
-0.25
 20
-0.25
  9
$PLINEWID
 40
0.0
  9
$PROXYGRAPHICS
 70
1
  9
$PUCSORG
 10
0.0
 20
0.0
 30
0.0
  9
$PUCSXDIR
 10
1.0
 20
0.0
 30
0.0
  9
$PUCSYDIR
 10
0.0
 20
1.0
 30
0.0
  9
$SHADEDGE
 70
3
  9
$SHADEDIF
 70
70
  9
$SKETCHINC
 40
1.0
  9
$SPLINESEGS
 70
8
  9
$SPLINETYPE
 70
6
  9
$SURFTAB1
 70
6
  9
$SURFTAB2
 70
6
  9
$SURFTYPE
 70
6
  9
$SURFU
 70
6
  9
$SURFV
 70
6
  9
$TEXTSIZE
 40
2.5
  9
$THICKNESS
 40
0.0
  9
$TRACEWID
 40
1.0
  9
$TREEDEPTH
 70
3020
  9
$UCSORG
 10
0.0
 20
0.0
 30
0.0
  9
$UCSXDIR
 10
1.0
 20
0.0
 30
0.0
  9
$UCSYDIR
 10
0.0
 20
1.0
 30
0.0
  9
$UNITMODE
 70
0
  9
$USERI1
 70
0
  9
$USERI2
 70
0
  9
$USERI3
 70
0
  9
$USERI4
 70
0
  9
$USERI5
 70
0
  9
$USERR1
 40
0.0
  9
$USERR2
 40
0.0
  9
$USERR3
 40
0.0
  9
$USERR4
 40
0.0
  9
$USERR5
 40
0.0
  0
ENDSEC
  0
SECTION
  2
TABLES
  0
TABLE
  2
VPORT
  5
8
100
AcDbSymbolTable
 70
1
  0
VPORT
  5
30
100
AcDbSymbolTableRecord
100
AcDbViewportTableRecord
  2
*Active
 70
0
 10
0.0
 20
0.0
 11
1.0
 21
1.0
 12
286.30555555555549
 22
148.5
 13
0.0
 23
0.0
 14
10.0
 24
10.0
 15
10.0
 25
10.0
 16
0.0
 26
0.0
 36
1.0
 17
0.0
 27
0.0
 37
0.0
 40
297.0
 41
1.92798353909465
 42
50.0
 43
0.0
 44
0.0
 50
0.0
 51
0.0
 71
0
 72
100
 73
1
 74
3
 75
1
 76
1
 77
0
 78
0
281
0
 65
1
110
0.0
120
0.0
130
0.0
111
1.0
121
0.0
131
0.0
112
0.0
122
1.0
132
0.0
 79
0
146
0.0
  0
ENDTAB
  0
TABLE
  2
LTYPE
  5
5
100
AcDbSymbolTable
 70
50
  0
LTYPE
  5
16
100
AcDbSymbolTableRecord
100
AcDbLinetypeTableRecord
  2
Continuous
 70
0
  3
Solid line
 72
65
 73
0
 40
0.0
  0
LTYPE
  5
31
100
AcDbSymbolTableRecord
100
AcDbLinetypeTableRecord
  2
ACAD_ISO15W100
 70
0
  3
ISO double-dash triple-dot __ __ . . . __ __ . .
 72
65
 73
10
 40
39.000000000000007
 49
12.0
 74
0
 49
-3.0
 74
0
 49
12.0
 74
0
 49
-2.9500000000000002
 74
0
 49
0.1
 74
0
 49
-2.9000000000000004
 74
0
 49
0.1
 74
0
 49
-2.9000000000000004
 74
0
 49
0.1
 74
0
 49
-2.9500000000000002
 74
0
  0
LTYPE
  5
32
100
AcDbSymbolTableRecord
100
AcDbLinetypeTableRecord
  2
HOT_WATER_SUPPLY
 70
0
  3
Hot water supply ---- HW ---- HW ---- HW ----
 72
65
 73
3
 40
22.859999999999999
 49
12.699999999999999
 74
0
 49
-5.0800000000000001
 74
0
 49
-5.0800000000000001
 74
0
  0
LTYPE
  5
33
100
AcDbSymbolTableRecord
100
AcDbLinetypeTableRecord
  2
DIVIDE
 70
0
  3
Divide ____ . . ____ . . ____ . . ____ . . ____
 72
65
 73
6
 40
31.749999999999993
 49
12.699999999999999
 74
0
 49
-6.2999999999999972
 74
0
 49
0.1
 74
0
 49
-6.2499999999999973
 74
0
 49
0.1
 74
0
 49
-6.2999999999999972
 74
0
  0
LTYPE
  5
34
100
AcDbSymbolTableRecord
100
AcDbLinetypeTableRecord
  2
ACAD_ISO10W100
 70
0
  3
ISO dash dot __ . __ . __ . __ . __ . __ . __ . 
 72
65
 73
4
 40
18.0
 49
12.0
 74
0
 49
-2.9500000000000002
 74
0
 49
0.1
 74
0
 49
-2.9500000000000002
 74
0
  0
LTYPE
  5
35
100
AcDbSymbolTableRecord
100
AcDbLinetypeTableRecord
  2
GAS_LINE
 70
0
  3
Gas line ----GAS----GAS----GAS----GAS----GAS----GAS--
 72
65
 73
3
 40
24.129999999999999
 49
12.699999999999999
 74
0
 49
-5.0800000000000001
 74
0
 49
-6.349999999999997
 74
0
  0
LTYPE
  5
36
100
AcDbSymbolTableRecord
100
AcDbLinetypeTableRecord
  2
ACAD_ISO04W100
 70
0
  3
ISO long-dash dot ____ . ____ . ____ . ____ . _
 72
65
 73
4
 40
30.0
 49
24.0
 74
0
 49
-2.9500000000000002
 74
0
 49
0.1
 74
0
 49
-2.9500000000000002
 74
0
  0
LTYPE
  5
14
100
AcDbSymbolTableRecord
100
AcDbLinetypeTableRecord
  2
ByBlock
 70
0
  3

 72
65
 73
0
 40
0.0
  0
LTYPE
  5
37
100
AcDbSymbolTableRecord
100
AcDbLinetypeTableRecord
  2
CENTER2
 70
0
  3
Center (.5x) ___ _ ___ _ ___ _ ___ _ ___ _ ___
 72
65
 73
4
 40
28.574999999999992
 49
19.050000000000001
 74
0
 49
-3.174999999999998
 74
0
 49
3.174999999999998
 74
0
 49
-3.174999999999998
 74
0
  0
LTYPE
  5
38
100
AcDbSymbolTableRecord
100
AcDbLinetypeTableRecord
  2
ACAD_ISO11W100
 70
0
  3
ISO double-dash dot __ __ . __ __ . __ __ . __ _
 72
65
 73
6
 40
33.0
 49
12.0
 74
0
 49
-3.0
 74
0
 49
12.0
 74
0
 49
-2.9500000000000002
 74
0
 49
0.1
 74
0
 49
-2.9500000000000002
 74
0
  0
LTYPE
  5
39
100
AcDbSymbolTableRecord
100
AcDbLinetypeTableRecord
  2
HIDDEN2
 70
0
  3
Hidden (.5x) _ _ _ _ _ _ _ _ _ _ _ _ _ _ _ _ _ 
 72
65
 73
2
 40
4.7624999999999975
 49
3.174999999999998
 74
0
 49
-1.587499999999999
 74
0
  0
LTYPE
  5
3A
100
AcDbSymbolTableRecord
100
AcDbLinetypeTableRecord
  2
BORDERX2
 70
0
  3
Border (2x) ____  ____  .  ____  ____  .  ___
 72
65
 73
6
 40
88.899999999999977
 49
25.399999999999999
 74
0
 49
-12.699999999999999
 74
0
 49
25.399999999999999
 74
0
 49
-12.649999999999999
 74
0
 49
0.1
 74
0
 49
-12.649999999999999
 74
0
  0
LTYPE
  5
3B
100
AcDbSymbolTableRecord
100
AcDbLinetypeTableRecord
  2
ACAD_ISO05W100
 70
0
  3
ISO long-dash double-dot ____ .. ____ .. ____ . 
 72
65
 73
6
 40
33.000000000000007
 49
24.0
 74
0
 49
-2.9500000000000002
 74
0
 49
0.1
 74
0
 49
-2.9000000000000004
 74
0
 49
0.1
 74
0
 49
-2.9500000000000002
 74
0
  0
LTYPE
  5
3C
100
AcDbSymbolTableRecord
100
AcDbLinetypeTableRecord
  2
DASHDOTX2
 70
0
  3
Dash dot (2x) ____  .  ____  .  ____  .  ___
 72
65
 73
4
 40
50.799999999999997
 49
25.399999999999999
 74
0
 49
-12.649999999999999
 74
0
 49
0.1
 74
0
 49
-12.649999999999999
 74
0
  0
LTYPE
  5
3D
100
AcDbSymbolTableRecord
100
AcDbLinetypeTableRecord
  2
HIDDENX2
 70
0
  3
Hidden (2x) ____ ____ ____ ____ ____ ____ ____ 
 72
65
 73
2
 40
19.049999999999997
 49
12.699999999999999
 74
0
 49
-6.349999999999997
 74
0
  0
LTYPE
  5
3E
100
AcDbSymbolTableRecord
100
AcDbLinetypeTableRecord
  2
CENTERX2
 70
0
  3
Center (2x) ________  __  ________  __  _____
 72
65
 73
4
 40
101.60000000000001
 49
63.5
 74
0
 49
-12.699999999999999
 74
0
 49
12.699999999999999
 74
0
 49
-12.699999999999999
 74
0
  0
LTYPE
  5
3F
100
AcDbSymbolTableRecord
100
AcDbLinetypeTableRecord
  2
BORDER2
 70
0
  3
Border (.5x) __.__.__.__.__.__.__.__.__.__.__.
 72
65
 73
6
 40
22.224999999999994
 49
6.349999999999997
 74
0
 49
-3.174999999999998
 74
0
 49
6.349999999999997
 74
0
 49
-3.1249999999999982
 74
0
 49
0.1
 74
0
 49
-3.1249999999999982
 74
0
  0
LTYPE
  5
40
100
AcDbSymbolTableRecord
100
AcDbLinetypeTableRecord
  2
DASHDOT2
 70
0
  3
Dash dot (.5x) _._._._._._._._._._._._._._._.
 72
65
 73
4
 40
12.699999999999992
 49
6.349999999999997
 74
0
 49
-3.1249999999999982
 74
0
 49
0.1
 74
0
 49
-3.1249999999999982
 74
0
  0
LTYPE
  5
41
100
AcDbSymbolTableRecord
100
AcDbLinetypeTableRecord
  2
ACAD_ISO12W100
 70
0
  3
ISO dash double-dot __ . . __ . . __ . . __ . . 
 72
65
 73
6
 40
21.0
 49
12.0
 74
0
 49
-2.9500000000000002
 74
0
 49
0.1
 74
0
 49
-2.9000000000000004
 74
0
 49
0.1
 74
0
 49
-2.9500000000000002
 74
0
  0
LTYPE
  5
42
100
AcDbSymbolTableRecord
100
AcDbLinetypeTableRecord
  2
ACAD_ISO07W100
 70
0
  3
ISO dot . . . . . . . . . . . . . . . . . . . . 
 72
65
 73
2
 40
3.0
 49
0.1
 74
0
 49
-2.8999999999999999
 74
0
  0
LTYPE
  5
43
100
AcDbSymbolTableRecord
100
AcDbLinetypeTableRecord
  2
ACAD_ISO06W100
 70
0
  3
ISO long-dash triple-dot ____ ... ____ ... ____
 72
65
 73
8
 40
36.000000000000007
 49
24.0
 74
0
 49
-2.9500000000000002
 74
0
 49
0.1
 74
0
 49
-2.9000000000000004
 74
0
 49
0.1
 74
0
 49
-2.9000000000000004
 74
0
 49
0.1
 74
0
 49
-2.9500000000000002
 74
0
  0
LTYPE
  5
44
100
AcDbSymbolTableRecord
100
AcDbLinetypeTableRecord
  2
CENTER
 70
0
  3
Center ____ _ ____ _ ____ _ ____ _ ____ _ ____
 72
65
 73
4
 40
50.799999999999983
 49
31.75
 74
0
 49
-6.349999999999997
 74
0
 49
6.349999999999997
 74
0
 49
-6.349999999999997
 74
0
  0
LTYPE
  5
45
100
AcDbSymbolTableRecord
100
AcDbLinetypeTableRecord
  2
HIDDEN
 70
0
  3
Hidden __ __ __ __ __ __ __ __ __ __ __ __ __ __
 72
65
 73
2
 40
9.524999999999995
 49
6.349999999999997
 74
0
 49
-3.174999999999998
 74
0
  0
LTYPE
  5
46
100
AcDbSymbolTableRecord
100
AcDbLinetypeTableRecord
  2
DOTX2
 70
0
  3
Dot (2x) .  .  .  .  .  .  .  .  .  .  .  .  .  .
 72
65
 73
2
 40
12.699999999999999
 49
0.1
 74
0
 49
-12.6
 74
0
  0
LTYPE
  5
47
100
AcDbSymbolTableRecord
100
AcDbLinetypeTableRecord
  2
PHANTOM
 70
0
  3
Phantom ______  __  __  ______  __  __  ______ 
 72
65
 73
6
 40
63.499999999999972
 49
31.75
 74
0
 49
-6.349999999999997
 74
0
 49
6.349999999999997
 74
0
 49
-6.349999999999997
 74
0
 49
6.349999999999997
 74
0
 49
-6.349999999999997
 74
0
  0
LTYPE
  5
48
100
AcDbSymbolTableRecord
100
AcDbLinetypeTableRecord
  2
ACAD_ISO08W100
 70
0
  3
ISO long-dash short-dash ____ __ ____ __ ____ _
 72
65
 73
4
 40
36.0
 49
24.0
 74
0
 49
-3.0
 74
0
 49
6.0
 74
0
 49
-3.0
 74
0
  0
LTYPE
  5
49
100
AcDbSymbolTableRecord
100
AcDbLinetypeTableRecord
  2
DASHEDX2
 70
0
  3
Dashed (2x) ____  ____  ____  ____  ____  ___
 72
65
 73
2
 40
38.099999999999994
 49
25.399999999999999
 74
0
 49
-12.699999999999999
 74
0
  0
LTYPE
  5
4A
100
AcDbSymbolTableRecord
100
AcDbLinetypeTableRecord
  2
DRAINAGE
 70
0
  3
Drainage ---->---->---->----
 72
65
 73
2
 40
10.16
 49
5.0800000000000001
 74
0
 49
5.0800000000000001
 74
0
  0
LTYPE
  5
4B
100
AcDbSymbolTableRecord
100
AcDbLinetypeTableRecord
  2
ACAD_ISO02W100
 70
0
  3
ISO dash __ __ __ __ __ __ __ __ __ __ __ __ __
 72
65
 73
2
 40
15.0
 49
12.0
 74
0
 49
-3.0
 74
0
  0
LTYPE
  5
4C
100
AcDbSymbolTableRecord
100
AcDbLinetypeTableRecord
  2
PHANTOM2
 70
0
  3
Phantom (.5x) ___ _ _ ___ _ _ ___ _ _ ___ _ _
 72
65
 73
6
 40
31.749999999999986
 49
15.875
 74
0
 49
-3.174999999999998
 74
0
 49
3.174999999999998
 74
0
 49
-3.174999999999998
 74
0
 49
3.174999999999998
 74
0
 49
-3.174999999999998
 74
0
  0
LTYPE
  5
4D
100
AcDbSymbolTableRecord
100
AcDbLinetypeTableRecord
  2
DASHED2
 70
0
  3
Dashed (.5x) _ _ _ _ _ _ _ _ _ _ _ _ _ _ _ _ _ 
 72
65
 73
2
 40
9.524999999999995
 49
6.349999999999997
 74
0
 49
-3.174999999999998
 74
0
  0
LTYPE
  5
4E
100
AcDbSymbolTableRecord
100
AcDbLinetypeTableRecord
  2
ACAD_ISO09W100
 70
0
  3
ISO long-dash double-short-dash ____ __ __ ____
 72
65
 73
6
 40
45.0
 49
24.0
 74
0
 49
-3.0
 74
0
 49
6.0
 74
0
 49
-3.0
 74
0
 49
6.0
 74
0
 49
-3.0
 74
0
  0
LTYPE
  5
4F
100
AcDbSymbolTableRecord
100
AcDbLinetypeTableRecord
  2
ACAD_ISO13W100
 70
0
  3
ISO double-dash double-dot __ __ . . __ __ . . _
 72
65
 73
8
 40
36.000000000000007
 49
12.0
 74
0
 49
-3.0
 74
0
 49
12.0
 74
0
 49
-2.9500000000000002
 74
0
 49
0.1
 74
0
 49
-2.9000000000000004
 74
0
 49
0.1
 74
0
 49
-2.9500000000000002
 74
0
  0
LTYPE
  5
50
100
AcDbSymbolTableRecord
100
AcDbLinetypeTableRecord
  2
TRACKS
 70
0
  3
Tracks -|-|-|-|-|-|-|-|-|-|-|-|-|-|-|-|-|-|-|-|-|-|-|-|-
 72
65
 73
2
 40
7.6200000000000001
 49
3.8100000000000001
 74
0
 49
3.8100000000000001
 74
0
  0
LTYPE
  5
51
100
AcDbSymbolTableRecord
100
AcDbLinetypeTableRecord
  2
DRAINAGE2
 70
0
  3
Drainage reversed----<----<----<----
 72
65
 73
2
 40
10.16
 49
5.0800000000000001
 74
0
 49
5.0800000000000001
 74
0
  0
LTYPE
  5
52
100
AcDbSymbolTableRecord
100
AcDbLinetypeTableRecord
  2
DOT2
 70
0
  3
Dot (.5x) ........................................
 72
65
 73
2
 40
3.174999999999998
 49
0.1
 74
0
 49
-3.074999999999998
 74
0
  0
LTYPE
  5
53
100
AcDbSymbolTableRecord
100
AcDbLinetypeTableRecord
  2
ZIGZAG
 70
0
  3
Zig zag /\/\/\/\/\/\/\/\/\/\/\/\/\/\/\/\/\/\/\/\/\/\/\/
 72
65
 73
4
 40
20.32254
 49
0.00254
 74
0
 49
-5.0800000000000001
 74
0
 49
-10.16
 74
0
 49
-5.0800000000000001
 74
0
  0
LTYPE
  5
54
100
AcDbSymbolTableRecord
100
AcDbLinetypeTableRecord
  2
DASHED
 70
0
  3
Dashed __ __ __ __ __ __ __ __ __ __ __ __ __ _
 72
65
 73
2
 40
19.049999999999997
 49
12.699999999999999
 74
0
 49
-6.349999999999997
 74
0
  0
LTYPE
  5
55
100
AcDbSymbolTableRecord
100
AcDbLinetypeTableRecord
  2
ACAD_ISO14W100
 70
0
  3
ISO dash triple-dot __ . . . __ . . . __ . . . _
 72
65
 73
8
 40
24.000000000000004
 49
12.0
 74
0
 49
-2.9500000000000002
 74
0
 49
0.1
 74
0
 49
-2.9000000000000004
 74
0
 49
0.1
 74
0
 49
-2.9000000000000004
 74
0
 49
0.1
 74
0
 49
-2.9500000000000002
 74
0
  0
LTYPE
  5
56
100
AcDbSymbolTableRecord
100
AcDbLinetypeTableRecord
  2
PHANTOMX2
 70
0
  3
Phantom (2x) ____________    ____    ____   _
 72
65
 73
6
 40
127.00000000000001
 49
63.5
 74
0
 49
-12.699999999999999
 74
0
 49
12.699999999999999
 74
0
 49
-12.699999999999999
 74
0
 49
12.699999999999999
 74
0
 49
-12.699999999999999
 74
0
  0
LTYPE
  5
57
100
AcDbSymbolTableRecord
100
AcDbLinetypeTableRecord
  2
DIVIDEX2
 70
0
  3
Divide (2x) ________  .  .  ________  .  .  _
 72
65
 73
6
 40
63.5
 49
25.399999999999999
 74
0
 49
-12.649999999999999
 74
0
 49
0.1
 74
0
 49
-12.599999999999998
 74
0
 49
0.1
 74
0
 49
-12.649999999999999
 74
0
  0
LTYPE
  5
58
100
AcDbSymbolTableRecord
100
AcDbLinetypeTableRecord
  2
BORDER
 70
0
  3
Border __ __ . __ __ . __ __ . __ __ . __ __ .
 72
65
 73
6
 40
44.449999999999996
 49
12.699999999999999
 74
0
 49
-6.349999999999997
 74
0
 49
12.699999999999999
 74
0
 49
-6.2999999999999972
 74
0
 49
0.1
 74
0
 49
-6.2999999999999972
 74
0
  0
LTYPE
  5
59
100
AcDbSymbolTableRecord
100
AcDbLinetypeTableRecord
  2
DIVIDE2
 70
0
  3
Divide (.5x) __..__..__..__..__..__..__..__.._
 72
65
 73
6
 40
15.874999999999989
 49
6.349999999999997
 74
0
 49
-3.1249999999999982
 74
0
 49
0.1
 74
0
 49
-3.0749999999999984
 74
0
 49
0.1
 74
0
 49
-3.1249999999999982
 74
0
  0
LTYPE
  5
5A
100
AcDbSymbolTableRecord
100
AcDbLinetypeTableRecord
  2
DOT
 70
0
  3
Dot . . . . . . . . . . . . . . . . . . . . . . . .
 72
65
 73
2
 40
6.349999999999997
 49
0.1
 74
0
 49
-6.2499999999999973
 74
0
  0
LTYPE
  5
5B
100
AcDbSymbolTableRecord
100
AcDbLinetypeTableRecord
  2
DASHDOT
 70
0
  3
Dash dot __ . __ . __ . __ . __ . __ . __ . __
 72
65
 73
4
 40
25.399999999999995
 49
12.699999999999999
 74
0
 49
-6.2999999999999972
 74
0
 49
0.1
 74
0
 49
-6.2999999999999972
 74
0
  0
LTYPE
  5
5C
100
AcDbSymbolTableRecord
100
AcDbLinetypeTableRecord
  2
FENCELINE1
 70
0
  3
Fenceline circle ----0-----0----0-----0----0-----0--
 72
65
 73
4
 40
36.829999999999998
 49
6.349999999999997
 74
0
 49
-2.54
 74
0
 49
-2.54
 74
0
 49
25.399999999999999
 74
0
  0
LTYPE
  5
5D
100
AcDbSymbolTableRecord
100
AcDbLinetypeTableRecord
  2
BATTING
 70
0
  3
Batting SSSSSSSSSSSSSSSSSSSSSSSSSSSSSSSSSSSSSSSSSSSSSSS
 72
65
 73
4
 40
10.16254
 49
0.00254
 74
0
 49
-2.54
 74
0
 49
-5.0800000000000001
 74
0
 49
-2.54
 74
0
  0
LTYPE
  5
5E
100
AcDbSymbolTableRecord
100
AcDbLinetypeTableRecord
  2
ACAD_ISO03W100
 70
0
  3
ISO dash space __    __    __    __    __    __
 72
65
 73
2
 40
30.0
 49
12.0
 74
0
 49
-18.0
 74
0
  0
LTYPE
  5
15
100
AcDbSymbolTableRecord
100
AcDbLinetypeTableRecord
  2
ByLayer
 70
0
  3

 72
65
 73
0
 40
0.0
  0
LTYPE
  5
5F
100
AcDbSymbolTableRecord
100
AcDbLinetypeTableRecord
  2
FENCELINE2
 70
0
  3
Fenceline square ----[]-----[]----[]-----[]----[]---
 72
65
 73
4
 40
36.829999999999998
 49
6.349999999999997
 74
0
 49
-2.54
 74
0
 49
-2.54
 74
0
 49
25.399999999999999
 74
0
  0
ENDTAB
  0
TABLE
  2
LAYER
  5
2
100
AcDbSymbolTable
 70
4
  0
LAYER
  5
60
100
AcDbSymbolTableRecord
100
AcDbLayerTableRecord
  2
grabado linea medio
 70
0
 62
3
420
65280
  6
Continuous
370
-3
390
F
  0
LAYER
  5
61
100
AcDbSymbolTableRecord
100
AcDbLayerTableRecord
  2
mesa de trabajo y auxiliares
 70
1
 62
-7
420
16777215
  6
Continuous
370
-3
390
F
  0
LAYER
  5
62
100
AcDbSymbolTableRecord
100
AcDbLayerTableRecord
  2
Corte exterior
 70
0
 62
1
420
16711680
  6
Continuous
370
-3
390
F
  0
LAYER
  5
10
100
AcDbSymbolTableRecord
100
AcDbLayerTableRecord
  2
0
 70
0
 62
7
420
16777215
  6
Continuous
370
-3
390
F
  0
ENDTAB
  0
TABLE
  2
STYLE
  5
3
100
AcDbSymbolTable
 70
1
  0
STYLE
  5
63
100
AcDbSymbolTableRecord
100
AcDbTextStyleTableRecord
  2
Standard
 70
0
 40
0.0
 41
1.0
 50
0.0
 71
0
 42
2.5
  3

  4

1001
ACAD
1000
txt
1071
0
  0
ENDTAB
  0
TABLE
  2
VIEW
  5
6
100
AcDbSymbolTable
 70
0
  0
ENDTAB
  0
TABLE
  2
UCS
  5
7
100
AcDbSymbolTable
 70
0
  0
ENDTAB
  0
TABLE
  2
APPID
  5
9
100
AcDbSymbolTable
 70
1
  0
APPID
  5
12
100
AcDbSymbolTableRecord
100
AcDbRegAppTableRecord
  2
ACAD
 70
0
  0
APPID
  5
64
100
AcDbSymbolTableRecord
100
AcDbRegAppTableRecord
  2
QCAD
 70
0
  0
ENDTAB
  0
TABLE
  2
DIMSTYLE
  5
A
100
AcDbSymbolTable
 70
1
100
AcDbDimStyleTable
 71
0
  0
DIMSTYLE
105
27
100
AcDbSymbolTableRecord
100
AcDbDimStyleTableRecord
  2
Standard
 41
2.5
 42
0.625
 43
3.75
 44
1.25
 70
0
 73
0
 74
0
 77
1
 78
8
140
2.5
141
2.5
143
0.03937007874016
147
0.625
171
3
172
1
271
2
272
2
274
3
278
44
283
0
284
8
340
63
  0
ENDTAB
  0
TABLE
  2
BLOCK_RECORD
  5
1
100
AcDbSymbolTable
 70
1
  0
BLOCK_RECORD
  5
1F
100
AcDbSymbolTableRecord
100
AcDbBlockTableRecord
  2
*Model_Space
340
22
  0
BLOCK_RECORD
  5
1B
100
AcDbSymbolTableRecord
100
AcDbBlockTableRecord
  2
*Paper_Space
340
1E
  0
BLOCK_RECORD
  5
23
100
AcDbSymbolTableRecord
100
AcDbBlockTableRecord
  2
*Paper_Space0
340
26
  0
BLOCK_RECORD
  5
65
100
AcDbSymbolTableRecord
100
AcDbBlockTableRecord
  2
A$C32B96BB9
340
0
  0
BLOCK_RECORD
  5
66
100
AcDbSymbolTableRecord
100
AcDbBlockTableRecord
  2
$PAPER_SPACE
340
0
  0
BLOCK_RECORD
  5
67
100
AcDbSymbolTableRecord
100
AcDbBlockTableRecord
  2
$MODEL_SPACE
340
0
  0
ENDTAB
  0
ENDSEC
  0
SECTION
  2
BLOCKS
  0
BLOCK
  5
20
100
AcDbEntity
  8
0
100
AcDbBlockBegin
  2
*Model_Space
 70
0
 10
0.0
 20
0.0
 30
0.0
  3
*Model_Space
  1

  0
ENDBLK
  5
21
100
AcDbEntity
  8
0
100
AcDbBlockEnd
  0
BLOCK
  5
1C
100
AcDbEntity
 67
1
  8
0
100
AcDbBlockBegin
  2
*Paper_Space
 70
0
 10
0.0
 20
0.0
 30
0.0
  3
*Paper_Space
  1

  0
ENDBLK
  5
1D
100
AcDbEntity
 67
1
  8
0
100
AcDbBlockEnd
  0
BLOCK
  5
24
100
AcDbEntity
  8
0
100
AcDbBlockBegin
  2
*Paper_Space0
 70
0
 10
0.0
 20
0.0
 30
0.0
  3
*Paper_Space0
  1

  0
ENDBLK
  5
25
100
AcDbEntity
  8
0
100
AcDbBlockEnd
  0
BLOCK
  5
68
100
AcDbEntity
  8
0
100
AcDbBlockBegin
  2
A$C32B96BB9
 70
0
 10
0.0
 20
0.0
 30
0.0
  3
A$C32B96BB9
  1

  0
ENDBLK
  5
69
100
AcDbEntity
  8
0
100
AcDbBlockEnd
  0
BLOCK
  5
6A
100
AcDbEntity
  8
0
100
AcDbBlockBegin
  2
$PAPER_SPACE
 70
0
 10
0.0
 20
0.0
 30
0.0
  3
$PAPER_SPACE
  1

  0
ENDBLK
  5
6B
100
AcDbEntity
  8
0
100
AcDbBlockEnd
  0
BLOCK
  5
6C
100
AcDbEntity
  8
0
100
AcDbBlockBegin
  2
$MODEL_SPACE
 70
0
 10
0.0
 20
0.0
 30
0.0
  3
$MODEL_SPACE
  1

  0
ENDBLK
  5
6D
100
AcDbEntity
  8
0
100
AcDbBlockEnd
  0
ENDSEC
  0
SECTION
  2
ENTITIES
  0
LINE
  5
6E
100
AcDbEntity
100
AcDbLine
  8
Corte exterior
 62
256
370
-1
 48
1.0
  6
ByLayer
 10
136.99060814979151
 20
127.0
 30
0.0
 11
125.9812162995831
 21
127.0
 31
0.0
  0
LINE
  5
6F
100
AcDbEntity
100
AcDbLine
  8
Corte exterior
 62
256
370
-1
 48
1.0
  6
ByLayer
 10
65.999997304537516
 20
115.20002137079423
 30
0.0
 11
65.999992566793367
 21
93.396511393877702
 31
0.0
  0
LINE
  5
70
100
AcDbEntity
100
AcDbLine
  8
Corte exterior
 62
256
370
-1
 48
1.0
  6
ByLayer
 10
65.999992566793367
 20
93.396511393877702
 30
0.0
 11
65.999984673267534
 21
57.712046137659129
 31
0.0
  0
LINE
  5
71
100
AcDbEntity
100
AcDbLine
  8
Corte exterior
 62
256
370
-1
 48
1.0
  6
ByLayer
 10
65.999984673267534
 20
57.712046137659129
 30
0.0
 11
65.999982279310984
 21
46.889625138080063
 31
0.0
  0
CIRCLE
  5
72
100
AcDbEntity
100
AcDbCircle
  8
Corte exterior
 62
256
370
-1
 48
1.0
  6
ByLayer
 10
107.5
 20
49.5
 30
0.0
 40
5.0
  0
LWPOLYLINE
  5
73
  8
mesa de trabajo y auxiliares
 62
256
370
-1
 48
1.0
  6
ByLayer
100
AcDbEntity
100
AcDbPolyline
 90
4
 70
129
 10
0.0
 20
0.0
 30
0.0
 10
150.0
 20
0.0
 30
0.0
 10
150.0
 20
160.0
 30
0.0
 10
0.0
 20
160.0
 30
0.0
  0
LWPOLYLINE
  5
74
  8
mesa de trabajo y auxiliares
 62
256
370
-1
 48
1.0
  6
ACAD_ISO02W100
100
AcDbEntity
100
AcDbPolyline
 90
4
 70
129
 10
1.0
 20
1.0
 30
0.0
 10
149.0
 20
1.0
 30
0.0
 10
149.0
 20
159.0
 30
0.0
 10
1.0
 20
159.0
 30
0.0
  0
LINE
  5
75
100
AcDbEntity
100
AcDbLine
  8
Corte exterior
 62
256
370
-1
 48
1.0
  6
ByLayer
 10
-43.018783700416918
 20
69.999999999999986
 30
0.0
 11
-29.420971234794308
 21
69.999999999999986
 31
0.0
  0
ARC
  5
76
100
AcDbEntity
  8
Corte exterior
 62
256
370
-1
 48
1.0
  6
ByLayer
100
AcDbCircle
 10
-41.952417501280166
 20
84.477097149740331
 30
0.0
 40
14.51631767197458
100
AcDbArc
 50
199.58491053800756
 51
265.78726718937514
  0
ARC
  5
77
100
AcDbEntity
  8
Corte exterior
 62
256
370
-1
 48
1.0
  6
ByLayer
100
AcDbCircle
 10
-51.860321658358338
 20
80.9519911099122
 30
0.0
 40
4.0000000000002522
100
AcDbArc
 50
185.6833288833698
 51
199.58491053800807
  0
ARC
  5
78
100
AcDbEntity
  8
Corte exterior
 62
256
370
-1
 48
1.0
  6
ByLayer
100
AcDbCircle
 10
-62.80625034983052
 20
79.862658708296706
 30
0.0
 40
6.9999999999999005
100
AcDbArc
 50
5.6833288833683442
 51
39.401419557133522
  0
ARC
  5
79
100
AcDbEntity
  8
Corte exterior
 62
256
370
-1
 48
1.0
  6
ByLayer
100
AcDbCircle
 10
-75.707136822752403
 20
69.265215787985355
 30
0.0
 40
23.695468494069672
100
AcDbArc
 50
39.401419557134382
 51
122.95279885805975
  0
ARC
  5
7A
100
AcDbEntity
  8
Corte exterior
 62
256
370
-1
 48
1.0
  6
ByLayer
100
AcDbCircle
 10
-89.786898531907042
 20
90.776840717238954
 30
0.0
 40
2.0171908518585817
100
AcDbArc
 50
137.45366901398674
 51
306.17522669443338
  0
ARC
  5
7B
100
AcDbEntity
  8
Corte exterior
 62
256
370
-1
 48
1.0
  6
ByLayer
100
AcDbCircle
 10
-74.85189188772857
 20
72.293175106611386
 30
0.0
 40
25.760110852503043
100
AcDbArc
 50
23.15395470543265
 51
129.60294626055222
  0
ARC
  5
7C
100
AcDbEntity
  8
Corte exterior
 62
256
370
-1
 48
1.0
  6
ByLayer
100
AcDbCircle
 10
-54.844522480703773
 20
80.849318731169419
 30
0.0
 40
4.0000000000000862
100
AcDbArc
 50
12.540076721370156
 51
23.153954705435694
  0
ARC
  5
7D
100
AcDbEntity
  8
Corte exterior
 62
256
370
-1
 48
1.0
  6
ByLayer
100
AcDbCircle
 10
-47.544504967667891
 20
82.473051591061775
 30
0.0
 40
3.4784198926593759
100
AcDbArc
 50
192.5400767213674
 51
273.18361799619061
  0
LINE
  5
7E
100
AcDbEntity
100
AcDbLine
  8
Corte exterior
 62
256
370
-1
 48
1.0
  6
ByLayer
 10
-19.999999999999915
 20
78.999999999999986
 30
0.0
 11
-47.351327340931206
 21
78.999999999999986
 31
0.0
  0
LINE
  5
7F
100
AcDbEntity
100
AcDbLine
  8
Corte exterior
 62
256
370
-1
 48
1.0
  6
ByLayer
 10
-19.999999999999915
 20
75.499999999999986
 30
0.0
 11
-19.999999999999915
 21
78.999999999999986
 31
0.0
  0
LINE
  5
80
100
AcDbEntity
100
AcDbLine
  8
Corte exterior
 62
256
370
-1
 48
1.0
  6
ByLayer
 10
-29.999999999999915
 20
75.499999999999986
 30
0.0
 11
-19.999999999999915
 21
75.499999999999986
 31
0.0
  0
LINE
  5
81
100
AcDbEntity
100
AcDbLine
  8
Corte exterior
 62
256
370
-1
 48
1.0
  6
ByLayer
 10
-29.999999999999915
 20
73.499999999999986
 30
0.0
 11
-29.999999999999915
 21
75.499999999999986
 31
0.0
  0
LINE
  5
82
100
AcDbEntity
100
AcDbLine
  8
Corte exterior
 62
256
370
-1
 48
1.0
  6
ByLayer
 10
-19.999999999999915
 20
73.499999999999986
 30
0.0
 11
-29.999999999999915
 21
73.499999999999986
 31
0.0
  0
LINE
  5
83
100
AcDbEntity
100
AcDbLine
  8
Corte exterior
 62
256
370
-1
 48
1.0
  6
ByLayer
 10
-20.0
 20
69.999999999999986
 30
0.0
 11
-19.999999999999915
 21
73.499999999999986
 31
0.0
  0
LINE
  5
84
100
AcDbEntity
100
AcDbLine
  8
Corte exterior
 62
256
370
-1
 48
1.0
  6
ByLayer
 10
-29.420971234794308
 20
69.999999999999986
 30
0.0
 11
-20.0
 21
69.999999999999986
 31
0.0
  0
LINE
  5
85
100
AcDbEntity
100
AcDbLine
  8
Corte exterior
 62
256
370
-1
 48
1.0
  6
ByLayer
 10
91.771824449380745
 20
115.2000166688331
 30
0.0
 11
65.999997304537544
 21
115.20002137079426
 31
0.0
  0
LINE
  5
86
100
AcDbEntity
100
AcDbLine
  8
Corte exterior
 62
256
370
-1
 48
1.0
  6
ByLayer
 10
91.771833148949284
 20
127.0
 30
0.0
 11
91.771824449380745
 21
115.2000166688331
 31
0.0
  0
LINE
  5
87
100
AcDbEntity
100
AcDbLine
  8
Corte exterior
 62
256
370
-1
 48
1.0
  6
ByLayer
 10
102.78121629958299
 20
127.0
 30
0.0
 11
91.771833148949284
 21
127.0
 31
0.0
  0
LINE
  5
88
100
AcDbEntity
100
AcDbLine
  8
Corte exterior
 62
256
370
-1
 48
1.0
  6
ByLayer
 10
102.78121629958299
 20
115.2
 30
0.0
 11
102.78121629958299
 21
127.0
 31
0.0
  0
LINE
  5
89
100
AcDbEntity
100
AcDbLine
  8
Corte exterior
 62
256
370
-1
 48
1.0
  6
ByLayer
 10
125.9812162995831
 20
115.2
 30
0.0
 11
102.78121629958299
 21
115.2
 31
0.0
  0
LINE
  5
8A
100
AcDbEntity
100
AcDbLine
  8
Corte exterior
 62
256
370
-1
 48
1.0
  6
ByLayer
 10
125.9812162995831
 20
127.0
 30
0.0
 11
125.9812162995831
 21
115.2
 31
0.0
  0
LINE
  5
8B
100
AcDbEntity
100
AcDbLine
  8
Corte exterior
 62
256
370
-1
 48
1.0
  6
ByLayer
 10
136.99060814979151
 20
115.2
 30
0.0
 11
136.99060814979151
 21
127.0
 31
0.0
  0
LINE
  5
8C
100
AcDbEntity
100
AcDbLine
  8
Corte exterior
 62
256
370
-1
 48
1.0
  6
ByLayer
 10
149.0
 20
115.2
 30
0.0
 11
136.99060814979151
 21
115.2
 31
0.0
  0
LINE
  5
8D
100
AcDbEntity
100
AcDbLine
  8
Corte exterior
 62
256
370
-1
 48
1.0
  6
ByLayer
 10
149.0
 20
4.5
 30
0.0
 11
149.0
 21
115.2
 31
0.0
  0
LINE
  5
8E
100
AcDbEntity
100
AcDbLine
  8
Corte exterior
 62
256
370
-1
 48
1.0
  6
ByLayer
 10
125.0999864529833
 20
4.5076532017700748
 30
0.0
 11
149.0
 21
4.5
 31
0.0
  0
LINE
  5
8F
100
AcDbEntity
100
AcDbLine
  8
Corte exterior
 62
256
370
-1
 48
1.0
  6
ByLayer
 10
125.0999864529833
 20
1.007653201770077
 30
0.0
 11
125.0999864529833
 21
4.5076532017700748
 31
0.0
  0
LINE
  5
90
100
AcDbEntity
100
AcDbLine
  8
Corte exterior
 62
256
370
-1
 48
1.0
  6
ByLayer
 10
114.8999864529833
 20
1.007653201770077
 30
0.0
 11
125.0999864529833
 21
1.007653201770077
 31
0.0
  0
LINE
  5
91
100
AcDbEntity
100
AcDbLine
  8
Corte exterior
 62
256
370
-1
 48
1.0
  6
ByLayer
 10
114.8999864529833
 20
4.5076532017700739
 30
0.0
 11
114.8999864529833
 21
1.007653201770077
 31
0.0
  0
LINE
  5
92
100
AcDbEntity
100
AcDbLine
  8
Corte exterior
 62
256
370
-1
 48
1.0
  6
ByLayer
 10
100.0999864529833
 20
4.5076532017700739
 30
0.0
 11
114.8999864529833
 21
4.5076532017700739
 31
0.0
  0
LINE
  5
93
100
AcDbEntity
100
AcDbLine
  8
Corte exterior
 62
256
370
-1
 48
1.0
  6
ByLayer
 10
100.0999864529833
 20
1.007653201770077
 30
0.0
 11
100.0999864529833
 21
4.5076532017700739
 31
0.0
  0
LINE
  5
94
100
AcDbEntity
100
AcDbLine
  8
Corte exterior
 62
256
370
-1
 48
1.0
  6
ByLayer
 10
89.899986452983299
 20
1.007653201770077
 30
0.0
 11
100.0999864529833
 21
1.007653201770077
 31
0.0
  0
LINE
  5
95
100
AcDbEntity
100
AcDbLine
  8
Corte exterior
 62
256
370
-1
 48
1.0
  6
ByLayer
 10
89.899986452983157
 20
4.5011865497010843
 30
0.0
 11
89.899986452983299
 21
1.007653201770077
 31
0.0
  0
LINE
  5
96
100
AcDbEntity
100
AcDbLine
  8
Corte exterior
 62
256
370
-1
 48
1.0
  6
ByLayer
 10
65.999972905966686
 20
4.5153064035401469
 30
0.0
 11
89.899986452983157
 21
4.5011865497010843
 31
0.0
  0
LINE
  5
97
100
AcDbEntity
100
AcDbLine
  8
Corte exterior
 62
256
370
-1
 48
1.0
  6
ByLayer
 10
65.999982279310984
 20
46.889625138080063
 30
0.0
 11
65.999972905966686
 21
4.5153064035401469
 31
0.0
  0
ARC
  5
98
100
AcDbEntity
  8
Corte exterior
 62
256
370
-1
 48
1.0
  6
ByLayer
100
AcDbCircle
 10
-188.40620063733644
 20
133.11908366439567
 30
0.0
 40
13.878096567690081
100
AcDbArc
 50
93.16602439495621
 51
137.71282906198525
  0
ARC
  5
99
100
AcDbEntity
  8
Corte exterior
 62
256
370
-1
 48
1.0
  6
ByLayer
100
AcDbCircle
 10
-193.4636260294937
 20
128.09316157588384
 30
0.0
 40
19.3642383558863
100
AcDbArc
 50
27.773804515182785
 51
77.197487437868503
  0
ARC
  5
9A
100
AcDbEntity
  8
Corte exterior
 62
256
370
-1
 48
1.0
  6
ByLayer
100
AcDbCircle
 10
-183.81304325257537
 20
148.90195520507629
 30
0.0
 40
13.875821722922332
100
AcDbArc
 50
302.43031382095444
 51
46.464688234025509
  0
ARC
  5
9B
100
AcDbEntity
  8
Corte exterior
 62
256
370
-1
 48
1.0
  6
ByLayer
100
AcDbCircle
 10
-172.59923325780025
 20
135.33441652370558
 30
0.0
 40
23.684787493164833
100
AcDbArc
 50
359.85646986911314
 51
94.009593248515543
  0
ARC
  5
9C
100
AcDbEntity
  8
Corte exterior
 62
256
370
-1
 48
1.0
  6
ByLayer
100
AcDbCircle
 10
-154.71412991139934
 20
114.6318779675351
 30
0.0
 40
21.442421698619938
100
AcDbArc
 50
21.618312168375507
 51
74.307546918132516
  0
ARC
  5
9D
100
AcDbEntity
  8
Corte exterior
 62
256
370
-1
 48
1.0
  6
ByLayer
100
AcDbCircle
 10
-123.82613242772095
 20
112.65614706158767
 30
0.0
 40
14.748364460271626
100
AcDbArc
 50
78.443333044320681
 51
137.96338423327407
  0
ARC
  5
9E
100
AcDbEntity
  8
Corte exterior
 62
256
370
-1
 48
1.0
  6
ByLayer
100
AcDbCircle
 10
-119.82026290662202
 20
110.0327178666827
 30
0.0
 40
17.105133781924824
100
AcDbArc
 50
93.523434080197688
 51
145.38834191346987
  0
ARC
  5
9F
100
AcDbEntity
  8
Corte exterior
 62
256
370
-1
 48
1.0
  6
ByLayer
100
AcDbCircle
 10
-130.77381985182487
 20
114.82058967969506
 30
0.0
 40
5.8349756470594416
100
AcDbArc
 50
20.287657354712525
 51
122.37427662637413
  0
ARC
  5
A0
100
AcDbEntity
  8
Corte exterior
 62
256
370
-1
 48
1.0
  6
ByLayer
100
AcDbCircle
 10
-124.83890207391528
 20
104.03248414959457
 30
0.0
 40
12.819612482537609
100
AcDbArc
 50
92.064957344180101
 51
181.42667404872299
  0
ARC
  5
A1
100
AcDbEntity
  8
Corte exterior
 62
256
370
-1
 48
1.0
  6
ByLayer
100
AcDbCircle
 10
-198.31064157828214
 20
131.11550654461593
 30
0.0
 40
11.300180940457343
100
AcDbArc
 50
359.99045861773971
 51
92.026859070012932
  0
ARC
  5
A2
100
AcDbEntity
  8
Corte exterior
 62
256
370
-1
 48
1.0
  6
ByLayer
100
AcDbCircle
 10
-189.47801294298617
 20
118.78868854048036
 30
0.0
 40
12.569521310613409
100
AcDbArc
 50
78.678602922286771
 51
138.54123964935658
  0
ARC
  5
A3
100
AcDbEntity
  8
Corte exterior
 62
256
370
-1
 48
1.0
  6
ByLayer
100
AcDbCircle
 10
-209.30966601963925
 20
112.88691781468627
 30
0.0
 40
17.627226799825014
100
AcDbArc
 50
8.1165650843966866
 51
53.796351550459441
  0
ARC
  5
A4
100
AcDbEntity
  8
Corte exterior
 62
256
370
-1
 48
1.0
  6
ByLayer
100
AcDbCircle
 10
-198.97341990691464
 20
112.04345762731087
 30
0.0
 40
7.8561034881595413
100
AcDbArc
 50
25.097172778089529
 51
90.142640926207463
  0
ARC
  5
A5
100
AcDbEntity
  8
Corte exterior
 62
256
370
-1
 48
1.0
  6
ByLayer
100
AcDbCircle
 10
-209.86762431845054
 20
105.51395389829298
 30
0.0
 40
18.03338363666435
100
AcDbArc
 50
18.814673972034608
 51
52.912884919758035
  0
LINE
  5
A6
100
AcDbEntity
100
AcDbLine
  8
Corte exterior
 62
256
370
-1
 48
1.0
  6
ByLayer
 10
-137.6545405669055
 20
103.7133067390193
 30
0.0
 11
-134.00000728935564
 21
94.058526214305601
 31
0.0
  0
LINE
  5
A7
100
AcDbEntity
100
AcDbLine
  8
Corte exterior
 62
256
370
-1
 48
1.0
  6
ByLayer
 10
-134.00000728935564
 20
94.058526214305601
 30
0.0
 11
-134.00000728935564
 21
94.058526214305601
 31
0.0
  0
LINE
  5
A8
100
AcDbEntity
100
AcDbLine
  8
Corte exterior
 62
256
370
-1
 48
1.0
  6
ByLayer
 10
-134.00000728935564
 20
94.058526214305601
 30
0.0
 11
-141.83091533491972
 21
96.578666510328461
 31
0.0
  0
LINE
  5
A9
100
AcDbEntity
100
AcDbLine
  8
Corte exterior
 62
256
370
-1
 48
1.0
  6
ByLayer
 10
-141.83091533491972
 20
96.578666510328461
 30
0.0
 11
-141.83091533491969
 21
96.578666510328432
 31
0.0
  0
LINE
  5
AA
100
AcDbEntity
100
AcDbLine
  8
Corte exterior
 62
256
370
-1
 48
1.0
  6
ByLayer
 10
-141.83091533491969
 20
96.578666510328432
 30
0.0
 11
-135.56635318289838
 21
91.880244896312419
 31
0.0
  0
LINE
  5
AB
100
AcDbEntity
100
AcDbLine
  8
Corte exterior
 62
256
370
-1
 48
1.0
  6
ByLayer
 10
-135.56635318289838
 20
91.880244896312419
 30
0.0
 11
-135.56635318289838
 21
91.880244896312419
 31
0.0
  0
LINE
  5
AC
100
AcDbEntity
100
AcDbLine
  8
Corte exterior
 62
256
370
-1
 48
1.0
  6
ByLayer
 10
-135.56635318289838
 20
91.880244896312419
 30
0.0
 11
-146.49806049635669
 21
93.605641095108666
 31
0.0
  0
LINE
  5
AD
100
AcDbEntity
100
AcDbLine
  8
Corte exterior
 62
256
370
-1
 48
1.0
  6
ByLayer
 10
-146.49806049635669
 20
93.605641095108666
 30
0.0
 11
-146.49806049635669
 21
93.605641095108666
 31
0.0
  0
LINE
  5
AE
100
AcDbEntity
100
AcDbLine
  8
Corte exterior
 62
256
370
-1
 48
1.0
  6
ByLayer
 10
-146.49806049635669
 20
93.605641095108666
 30
0.0
 11
-147.93636126526428
 21
87.763432219242816
 31
0.0
  0
ARC
  5
AF
100
AcDbEntity
  8
Corte exterior
 62
256
370
-1
 48
1.0
  6
ByLayer
100
AcDbCircle
 10
-150.84938060475943
 20
88.480592123118669
 30
0.0
 40
3.000000000000004
100
AcDbArc
 50
286.2114629156373
 51
346.16932781474969
  0
LINE
  5
B0
100
AcDbEntity
100
AcDbLine
  8
Corte exterior
 62
256
370
-1
 48
1.0
  6
ByLayer
 10
-150.01183093814194
 20
85.599878573327757
 30
0.0
 11
-157.39762301670052
 21
83.460002942349547
 31
0.0
  0
LINE
  5
B1
100
AcDbEntity
100
AcDbLine
  8
Corte exterior
 62
256
370
-1
 48
1.0
  6
ByLayer
 10
-157.39762301670052
 20
83.460002942349547
 30
0.0
 11
-157.39762301670052
 21
83.460002942349547
 31
0.0
  0
LINE
  5
B2
100
AcDbEntity
100
AcDbLine
  8
Corte exterior
 62
256
370
-1
 48
1.0
  6
ByLayer
 10
-157.39762301670052
 20
83.460002942349547
 30
0.0
 11
-156.45027113914225
 21
80.575872219946362
 31
0.0
  0
LINE
  5
B3
100
AcDbEntity
100
AcDbLine
  8
Corte exterior
 62
256
370
-1
 48
1.0
  6
ByLayer
 10
-156.45027113914225
 20
80.575872219946362
 30
0.0
 11
-141.62896483881724
 21
78.282869491177308
 31
0.0
  0
ARC
  5
B4
100
AcDbEntity
  8
Corte exterior
 62
256
370
-1
 48
1.0
  6
ByLayer
100
AcDbCircle
 10
-145.6211646463691
 20
69.114317768217788
 30
0.0
 40
10.000000000000105
100
AcDbArc
 50
17.781771224739103
 51
66.470575238049847
  0
LINE
  5
B5
100
AcDbEntity
100
AcDbLine
  8
Corte exterior
 62
256
370
-1
 48
1.0
  6
ByLayer
 10
-136.09889862466471
 20
72.16824144308201
 30
0.0
 11
-135.9553341159428
 21
69.707309808369473
 31
0.0
  0
LINE
  5
B6
100
AcDbEntity
100
AcDbLine
  8
Corte exterior
 62
256
370
-1
 48
1.0
  6
ByLayer
 10
-135.9553341159428
 20
69.707309808369473
 30
0.0
 11
-135.95394208192752
 21
67.242194528887865
 31
0.0
  0
ARC
  5
B7
100
AcDbEntity
  8
Corte exterior
 62
256
370
-1
 48
1.0
  6
ByLayer
100
AcDbCircle
 10
-159.17386212465172
 20
58.138012819304855
 30
0.0
 40
24.940946481471414
100
AcDbArc
 50
345.75304161174813
 51
21.409399394129604
  0
ARC
  5
B8
100
AcDbEntity
  8
Corte exterior
 62
256
370
-1
 48
1.0
  6
ByLayer
100
AcDbCircle
 10
-151.32771103435178
 20
47.282310227331401
 30
0.0
 40
16.995609562838091
100
AcDbArc
 50
339.43982130309166
 51
16.115994589838596
  0
ARC
  5
B9
100
AcDbEntity
  8
Corte exterior
 62
256
370
-1
 48
1.0
  6
ByLayer
100
AcDbCircle
 10
-147.47696265658695
 20
40.218904323089994
 30
0.0
 40
12.111878499025799
100
AcDbArc
 50
338.39059772068396
 51
5.1856081186905874
  0
ARC
  5
BA
100
AcDbEntity
  8
Corte exterior
 62
256
370
-1
 48
1.0
  6
ByLayer
100
AcDbCircle
 10
-140.18382538739746
 20
40.52833531304082
 30
0.0
 40
6.2042993788244605
100
AcDbArc
 50
243.00537245219112
 51
309.75239909985919
  0
ARC
  5
BB
100
AcDbEntity
  8
Corte exterior
 62
256
370
-1
 48
1.0
  6
ByLayer
100
AcDbCircle
 10
-142.64434767152557
 20
35.491283666561422
 30
0.0
 40
0.6065049214799281
100
AcDbArc
 50
137.74980020637062
 51
234.09829633129715
  0
LINE
  5
BC
100
AcDbEntity
100
AcDbLine
  8
Corte exterior
 62
256
370
-1
 48
1.0
  6
ByLayer
 10
-143.09329218681231
 20
35.899079009807679
 30
0.0
 11
-142.07003309419201
 21
36.594310610961671
 31
0.0
  0
ARC
  5
BD
100
AcDbEntity
  8
Corte exterior
 62
256
370
-1
 48
1.0
  6
ByLayer
100
AcDbCircle
 10
-142.54544968955082
 20
37.474071408484171
 30
0.0
 40
0.9999999999999973
100
AcDbArc
 50
298.38647797427831
 51
18.434948822888526
  0
LINE
  5
BE
100
AcDbEntity
100
AcDbLine
  8
Corte exterior
 62
256
370
-1
 48
1.0
  6
ByLayer
 10
-141.59676639150013
 20
37.790299174500426
 30
0.0
 11
-142.04813902656457
 21
39.002612410227847
 31
0.0
  0
ARC
  5
BF
100
AcDbEntity
  8
Corte exterior
 62
256
370
-1
 48
1.0
  6
ByLayer
100
AcDbCircle
 10
-146.48725359120519
 20
39.243514420899196
 30
0.0
 40
4.4456463980786891
100
AcDbArc
 50
320.36522284783769
 51
356.89371777392813
  0
ARC
  5
C0
100
AcDbEntity
  8
Corte exterior
 62
256
370
-1
 48
1.0
  6
ByLayer
100
AcDbCircle
 10
-143.49030440339453
 20
37.060095405486742
 30
0.0
 40
0.7796007080098553
100
AcDbArc
 50
224.99835325175962
 51
303.18936452071199
  0
ARC
  5
C1
100
AcDbEntity
  8
Corte exterior
 62
256
370
-1
 48
1.0
  6
ByLayer
100
AcDbCircle
 10
-129.6301115811581
 20
36.859456092212191
 30
0.0
 40
14.415733794386702
100
AcDbArc
 50
161.72615271932932
 51
181.39363096293073
  0
ARC
  5
C2
100
AcDbEntity
  8
Corte exterior
 62
256
370
-1
 48
1.0
  6
ByLayer
100
AcDbCircle
 10
-127.45200071163082
 20
47.618465595147306
 30
0.0
 40
17.049327606564567
100
AcDbArc
 50
164.72341423650704
 51
201.4647018813269
  0
ARC
  5
C3
100
AcDbEntity
  8
Corte exterior
 62
256
370
-1
 48
1.0
  6
ByLayer
100
AcDbCircle
 10
-128.95026203350963
 20
58.511623790035166
 30
0.0
 40
16.261446525255874
100
AcDbArc
 50
179.71599216806175
 51
203.18066405105333
  0
LINE
  5
C4
100
AcDbEntity
100
AcDbLine
  8
Corte exterior
 62
256
370
-1
 48
1.0
  6
ByLayer
 10
-145.21150878260661
 20
58.592229365146551
 30
0.0
 11
-145.43007203523928
 21
52.567797184174303
 31
0.0
  0
LINE
  5
C5
100
AcDbEntity
100
AcDbLine
  8
Corte exterior
 62
256
370
-1
 48
1.0
  6
ByLayer
 10
-145.43007203523928
 20
52.567797184174303
 30
0.0
 11
-146.70529088689955
 21
50.854645714069974
 31
0.0
  0
LINE
  5
C6
100
AcDbEntity
100
AcDbLine
  8
Corte exterior
 62
256
370
-1
 48
1.0
  6
ByLayer
 10
-146.70529088689955
 20
50.854645714069974
 30
0.0
 11
-147.64478113732775
 21
48.662501796404342
 31
0.0
  0
LINE
  5
C7
100
AcDbEntity
100
AcDbLine
  8
Corte exterior
 62
256
370
-1
 48
1.0
  6
ByLayer
 10
-147.64478113732775
 20
48.662501796404342
 30
0.0
 11
-147.65186834020787
 21
44.109308637589876
 31
0.0
  0
LINE
  5
C8
100
AcDbEntity
100
AcDbLine
  8
Corte exterior
 62
256
370
-1
 48
1.0
  6
ByLayer
 10
-147.65186834020787
 20
44.109308637589876
 30
0.0
 11
-148.09881785705494
 21
38.417803223220659
 31
0.0
  0
LINE
  5
C9
100
AcDbEntity
100
AcDbLine
  8
Corte exterior
 62
256
370
-1
 48
1.0
  6
ByLayer
 10
-148.09881785705494
 20
38.417803223220659
 30
0.0
 11
-139.99999999999997
 21
29.999999999999996
 31
0.0
  0
LINE
  5
CA
100
AcDbEntity
100
AcDbLine
  8
Corte exterior
 62
256
370
-1
 48
1.0
  6
ByLayer
 10
-139.99999999999997
 20
29.999999999999996
 30
0.0
 11
-142.2269693997284
 21
27.202566468974432
 31
0.0
  0
LINE
  5
CB
100
AcDbEntity
100
AcDbLine
  8
Corte exterior
 62
256
370
-1
 48
1.0
  6
ByLayer
 10
-142.2269693997284
 20
27.202566468974432
 30
0.0
 11
-147.73912080666352
 21
32.980628542509706
 31
0.0
  0
LINE
  5
CC
100
AcDbEntity
100
AcDbLine
  8
Corte exterior
 62
256
370
-1
 48
1.0
  6
ByLayer
 10
-147.73912080666352
 20
32.980628542509706
 30
0.0
 11
-146.23728111906956
 21
10.278844596863349
 31
0.0
  0
LINE
  5
CD
100
AcDbEntity
100
AcDbLine
  8
Corte exterior
 62
256
370
-1
 48
1.0
  6
ByLayer
 10
-146.23728111906956
 20
10.278844596863349
 30
0.0
 11
-134.37614906656745
 21
2.8153821036127646
 31
0.0
  0
ARC
  5
CE
100
AcDbEntity
  8
Corte exterior
 62
256
370
-1
 48
1.0
  6
ByLayer
100
AcDbCircle
 10
-134.90872430761678
 20
1.9689994403794848
 30
0.0
 40
1.0000000000003018
100
AcDbArc
 50
284.30377850255167
 51
57.82038081336168
  0
LINE
  5
CF
100
AcDbEntity
100
AcDbLine
  8
Corte exterior
 62
256
370
-1
 48
1.0
  6
ByLayer
 10
-134.66166139145
 20
1.0
 30
0.0
 11
-154.49874254317217
 21
1.0
 31
0.0
  0
LINE
  5
D0
100
AcDbEntity
100
AcDbLine
  8
Corte exterior
 62
256
370
-1
 48
1.0
  6
ByLayer
 10
-154.49874254317217
 20
1.0
 30
0.0
 11
-154.49874254317217
 21
5.0
 31
0.0
  0
LINE
  5
D1
100
AcDbEntity
100
AcDbLine
  8
Corte exterior
 62
256
370
-1
 48
1.0
  6
ByLayer
 10
-154.49874254317217
 20
5.0
 30
0.0
 11
-157.49874254317217
 21
5.0
 31
0.0
  0
LINE
  5
D2
100
AcDbEntity
100
AcDbLine
  8
Corte exterior
 62
256
370
-1
 48
1.0
  6
ByLayer
 10
-157.49874254317217
 20
5.0
 30
0.0
 11
-157.49874254317217
 21
0.9999999999999983
 31
0.0
  0
ARC
  5
D3
100
AcDbEntity
  8
Corte exterior
 62
256
370
-1
 48
1.0
  6
ByLayer
100
AcDbCircle
 10
-157.79965537684359
 20
4.8105286304266519
 30
0.0
 40
3.822391525834302
100
AcDbArc
 50
210.00745876409937
 51
274.51520819669162
  0
LINE
  5
D4
100
AcDbEntity
100
AcDbLine
  8
Corte exterior
 62
256
370
-1
 48
1.0
  6
ByLayer
 10
-161.10969471392923
 20
2.898901950419404
 30
0.0
 11
-166.49874254317214
 21
23.632712687269738
 31
0.0
  0
LINE
  5
D5
100
AcDbEntity
100
AcDbLine
  8
Corte exterior
 62
256
370
-1
 48
1.0
  6
ByLayer
 10
-166.49874254317214
 20
23.632712687269738
 30
0.0
 11
-171.88779037241514
 21
2.8989019504194387
 31
0.0
  0
ARC
  5
D6
100
AcDbEntity
  8
Corte exterior
 62
256
370
-1
 48
1.0
  6
ByLayer
100
AcDbCircle
 10
-175.1978297095007
 20
4.810528630426635
 30
0.0
 40
3.8223915258342176
100
AcDbArc
 50
265.48479180330798
 51
329.99254123590043
  0
LINE
  5
D7
100
AcDbEntity
100
AcDbLine
  8
Corte exterior
 62
256
370
-1
 48
1.0
  6
ByLayer
 10
-175.49874254317214
 20
1.0000000000000036
 30
0.0
 11
-175.49874254317217
 21
5.0000000000000284
 31
0.0
  0
LINE
  5
D8
100
AcDbEntity
100
AcDbLine
  8
Corte exterior
 62
256
370
-1
 48
1.0
  6
ByLayer
 10
-175.49874254317217
 20
5.0000000000000284
 30
0.0
 11
-178.4987425431722
 21
5.0000000000000115
 31
0.0
  0
LINE
  5
D9
100
AcDbEntity
100
AcDbLine
  8
Corte exterior
 62
256
370
-1
 48
1.0
  6
ByLayer
 10
-178.4987425431722
 20
5.0000000000000115
 30
0.0
 11
-178.4987425431722
 21
1.0000000000000151
 31
0.0
  0
LINE
  5
DA
100
AcDbEntity
100
AcDbLine
  8
Corte exterior
 62
256
370
-1
 48
1.0
  6
ByLayer
 10
-178.4987425431722
 20
1.0000000000000151
 30
0.0
 11
-198.33582369489559
 21
1.000000000000381
 31
0.0
  0
ARC
  5
DB
100
AcDbEntity
  8
Corte exterior
 62
256
370
-1
 48
1.0
  6
ByLayer
100
AcDbCircle
 10
-198.08876077872836
 20
1.9689994403794335
 30
0.0
 40
0.9999999999999899
100
AcDbArc
 50
122.17961918663624
 51
255.69622149741858
  0
LINE
  5
DC
100
AcDbEntity
100
AcDbLine
  8
Corte exterior
 62
256
370
-1
 48
1.0
  6
ByLayer
 10
-198.62133601977749
 20
2.8153821036124658
 30
0.0
 11
-186.76020396727478
 21
10.278844596863339
 31
0.0
  0
LINE
  5
DD
100
AcDbEntity
100
AcDbLine
  8
Corte exterior
 62
256
370
-1
 48
1.0
  6
ByLayer
 10
-186.76020396727478
 20
10.278844596863339
 30
0.0
 11
-185.0
 21
47.0
 31
0.0
  0
LINE
  5
DE
100
AcDbEntity
100
AcDbLine
  8
Corte exterior
 62
256
370
-1
 48
1.0
  6
ByLayer
 10
-185.0
 20
47.0
 30
0.0
 11
-187.56741305110498
 21
52.56779718417426
 31
0.0
  0
LINE
  5
DF
100
AcDbEntity
100
AcDbLine
  8
Corte exterior
 62
256
370
-1
 48
1.0
  6
ByLayer
 10
-187.56741305110498
 20
52.56779718417426
 30
0.0
 11
-188.30216210977761
 21
62.317754621251531
 31
0.0
  0
ARC
  5
E0
100
AcDbEntity
  8
Corte exterior
 62
256
370
-1
 48
1.0
  6
ByLayer
100
AcDbCircle
 10
-239.6041763171923
 20
61.248630123206681
 30
0.0
 40
51.313153176647695
100
AcDbArc
 50
349.57301322044287
 51
1.1938606492885842
  0
ARC
  5
E1
100
AcDbEntity
  8
Corte exterior
 62
256
370
-1
 48
1.0
  6
ByLayer
100
AcDbCircle
 10
-205.16374027123388
 20
47.534599164884746
 30
0.0
 40
16.626600629383521
100
AcDbArc
 50
338.13952514906492
 51
15.849706232586225
  0
ARC
  5
E2
100
AcDbEntity
  8
Corte exterior
 62
256
370
-1
 48
1.0
  6
ByLayer
100
AcDbCircle
 10
-203.33515445760429
 20
36.814904015428354
 30
0.0
 40
14.336557947356223
100
AcDbArc
 50
358.63771024851866
 51
18.414738048918217
  0
ARC
  5
E3
100
AcDbEntity
  8
Corte exterior
 62
256
370
-1
 48
1.0
  6
ByLayer
100
AcDbCircle
 10
-189.54434666107977
 20
36.927240434970621
 30
0.0
 40
0.7064363328224821
100
AcDbArc
 50
231.89371222799232
 51
320.09591749902938
  0
ARC
  5
E4
100
AcDbEntity
  8
Corte exterior
 62
256
370
-1
 48
1.0
  6
ByLayer
100
AcDbCircle
 10
-186.66796160462104
 20
39.170454493097495
 30
0.0
 40
4.3366455306913885
100
AcDbArc
 50
182.71902072531057
 51
220.1993861524202
  0
LINE
  5
E5
100
AcDbEntity
100
AcDbLine
  8
Corte exterior
 62
256
370
-1
 48
1.0
  6
ByLayer
 10
-190.9997248608027
 20
38.964732468851039
 30
0.0
 11
-191.44922072081113
 21
37.75172211892027
 31
0.0
  0
ARC
  5
E6
100
AcDbEntity
  8
Corte exterior
 62
256
370
-1
 48
1.0
  6
ByLayer
100
AcDbCircle
 10
-190.6568230274259
 20
37.388244264395425
 30
0.0
 40
0.8717856704558729
100
AcDbArc
 50
155.35877563081206
 51
231.07928669165764
  0
LINE
  5
E7
100
AcDbEntity
100
AcDbLine
  8
Corte exterior
 62
256
370
-1
 48
1.0
  6
ByLayer
 10
-191.20451746108211
 20
36.709980995041839
 30
0.0
 11
-190.31212044357591
 21
36.143601970415432
 31
0.0
  0
ARC
  5
E8
100
AcDbEntity
  8
Corte exterior
 62
256
370
-1
 48
1.0
  6
ByLayer
100
AcDbCircle
 10
-190.47445222467221
 20
35.485401693411411
 30
0.0
 40
0.6779227181632859
100
AcDbArc
 50
309.67217225423468
 51
76.145641440015879
  0
ARC
  5
E9
100
AcDbEntity
  8
Corte exterior
 62
256
370
-1
 48
1.0
  6
ByLayer
100
AcDbCircle
 10
-192.9852355366674
 20
40.554241024475878
 30
0.0
 40
6.3182169330833426
100
AcDbArc
 50
243.68907337695759
 51
297.76753993113488
  0
ARC
  5
EA
100
AcDbEntity
  8
Corte exterior
 62
256
370
-1
 48
1.0
  6
ByLayer
100
AcDbCircle
 10
-195.16592357221415
 20
36.713401770087692
 30
0.0
 40
1.9346911567272647
100
AcDbArc
 50
210.22781388196501
 51
253.33972613943644
  0
LINE
  5
EB
100
AcDbEntity
100
AcDbLine
  8
Corte exterior
 62
256
370
-1
 48
1.0
  6
ByLayer
 10
-196.84855844068181
 20
35.767339402587645
 30
0.0
 11
-197.30718384354324
 21
37.177563632480734
 31
0.0
  0
ARC
  5
EC
100
AcDbEntity
  8
Corte exterior
 62
256
370
-1
 48
1.0
  6
ByLayer
100
AcDbCircle
 10
-185.18278006512665
 20
40.289081259653067
 30
0.0
 40
12.517149260063983
100
AcDbArc
 50
175.27403692568564
 51
194.66263302612356
  0
ARC
  5
ED
100
AcDbEntity
  8
Corte exterior
 62
256
370
-1
 48
1.0
  6
ByLayer
100
AcDbCircle
 10
-182.16560276586054
 20
47.242056611628634
 30
0.0
 40
16.584972358117977
100
AcDbArc
 50
163.50449223774814
 51
200.91921634618001
  0
ARC
  5
EE
100
AcDbEntity
  8
Corte exterior
 62
256
370
-1
 48
1.0
  6
ByLayer
100
AcDbCircle
 10
-175.65076470723625
 20
58.233245335455535
 30
0.0
 40
23.280791837026204
100
AcDbArc
 50
157.360262550258
 51
195.65464394334788
  0
LINE
  5
EF
100
AcDbEntity
100
AcDbLine
  8
Corte exterior
 62
256
370
-1
 48
1.0
  6
ByLayer
 10
-197.1376194475389
 20
67.194849094163018
 30
0.0
 11
-197.10434667336128
 21
70.583361058855232
 31
0.0
  0
ARC
  5
F0
100
AcDbEntity
  8
Corte exterior
 62
256
370
-1
 48
1.0
  6
ByLayer
100
AcDbCircle
 10
-188.49873599281278
 20
70.067947416265525
 30
0.0
 40
8.6210316324752885
100
AcDbArc
 50
106.81312107457268
 51
176.57249291505454
  0
LINE
  5
F1
100
AcDbEntity
100
AcDbLine
  8
Corte exterior
 62
256
370
-1
 48
1.0
  6
ByLayer
 10
-190.99237819653786
 20
78.320458244367529
 30
0.0
 11
-197.76646140966673
 21
85.42132874068696
 31
0.0
  0
LINE
  5
F2
100
AcDbEntity
100
AcDbLine
  8
Corte exterior
 62
256
370
-1
 48
1.0
  6
ByLayer
 10
-197.76646140966673
 20
85.42132874068696
 30
0.0
 11
-195.33024279499182
 21
87.509516124694017
 31
0.0
  0
LINE
  5
F3
100
AcDbEntity
100
AcDbLine
  8
Corte exterior
 62
256
370
-1
 48
1.0
  6
ByLayer
 10
-195.33024279499182
 20
87.509516124694017
 30
0.0
 11
-187.07800902207254
 21
78.93225444545547
 31
0.0
  0
LINE
  5
F4
100
AcDbEntity
100
AcDbLine
  8
Corte exterior
 62
256
370
-1
 48
1.0
  6
ByLayer
 10
-187.07800902207254
 20
78.93225444545547
 30
0.0
 11
-176.66195078018009
 21
80.560231925012445
 31
0.0
  0
LINE
  5
F5
100
AcDbEntity
100
AcDbLine
  8
Corte exterior
 62
256
370
-1
 48
1.0
  6
ByLayer
 10
-176.66195078018009
 20
80.560231925012445
 30
0.0
 11
-175.70603219790971
 21
83.490763471186199
 31
0.0
  0
LINE
  5
F6
100
AcDbEntity
100
AcDbLine
  8
Corte exterior
 62
256
370
-1
 48
1.0
  6
ByLayer
 10
-175.70603219790971
 20
83.490763471186199
 30
0.0
 11
-182.98565414819686
 21
85.599878573326109
 31
0.0
  0
ARC
  5
F7
100
AcDbEntity
  8
Corte exterior
 62
256
370
-1
 48
1.0
  6
ByLayer
100
AcDbCircle
 10
-182.30995041867067
 20
88.309878284109516
 30
0.0
 40
2.7929686647983845
100
AcDbArc
 50
204.64624559696978
 51
255.99950409013869
  0
LINE
  5
F8
100
AcDbEntity
100
AcDbLine
  8
Corte exterior
 62
256
370
-1
 48
1.0
  6
ByLayer
 10
-184.8553277119174
 20
87.160238145854507
 30
0.0
 11
-186.99593303170201
 21
95.372714830940907
 31
0.0
  0
ARC
  5
F9
100
AcDbEntity
  8
Corte exterior
 62
256
370
-1
 48
1.0
  6
ByLayer
100
AcDbCircle
 10
-173.71180112311157
 20
110.6913141720663
 30
0.0
 40
20.260539707889048
100
AcDbArc
 50
187.71764559023546
 51
229.29738966359452
  0
ARC
  5
FA
100
AcDbEntity
  8
Corte exterior
 62
256
370
-1
 48
1.0
  6
ByLayer
100
AcDbCircle
 10
-191.00470023109173
 20
108.65469657193387
 30
0.0
 40
2.8816203707608423
100
AcDbArc
 50
126.22511931754931
 51
195.49202982792374
  0
CIRCLE
  5
FB
100
AcDbEntity
100
AcDbCircle
  8
Corte exterior
 62
256
370
-1
 48
1.0
  6
ByLayer
 10
-179.49874254317214
 20
109.5220432620558
 30
0.0
 40
7.9999999999999716
  0
CIRCLE
  5
FC
100
AcDbEntity
100
AcDbCircle
  8
Corte exterior
 62
256
370
-1
 48
1.0
  6
ByLayer
 10
-153.49874254317217
 20
109.5220432620558
 30
0.0
 40
8.0
  0
LINE
  5
FD
100
AcDbEntity
100
AcDbLine
  8
Corte exterior
 62
256
370
-1
 48
1.0
  6
ByLayer
 10
-182.4987425431722
 20
65.678034017017666
 30
0.0
 11
-150.49874254317214
 21
65.678034017017666
 31
0.0
  0
LINE
  5
FE
100
AcDbEntity
100
AcDbLine
  8
Corte exterior
 62
256
370
-1
 48
1.0
  6
ByLayer
 10
-150.49874254317214
 20
65.678034017017666
 30
0.0
 11
-150.49874254317211
 21
33.678034017017687
 31
0.0
  0
LINE
  5
FF
100
AcDbEntity
100
AcDbLine
  8
Corte exterior
 62
256
370
-1
 48
1.0
  6
ByLayer
 10
-150.49874254317211
 20
33.678034017017687
 30
0.0
 11
-182.4987425431722
 21
33.678034017017687
 31
0.0
  0
LINE
  5
100
100
AcDbEntity
100
AcDbLine
  8
Corte exterior
 62
256
370
-1
 48
1.0
  6
ByLayer
 10
-182.4987425431722
 20
33.678034017017687
 30
0.0
 11
-182.49874254317217
 21
65.678034017017666
 31
0.0
  0
ENDSEC
  0
SECTION
  2
OBJECTS
  0
DICTIONARY
  5
C
100
AcDbDictionary
280
0
281
1
  3
ACAD_GROUP
350
D
  3
ACAD_LAYOUT
350
1A
  3
ACAD_MLINESTYLE
350
17
  3
ACAD_PLOTSETTINGS
350
19
  3
ACAD_PLOTSTYLENAME
350
E
  3
AcDbVariableDictionary
350
101
  3
QCAD_OBJECTS
350
102
  0
DICTIONARY
  5
D
100
AcDbDictionary
280
0
281
1
  0
ACDBDICTIONARYWDFLT
  5
E
100
AcDbDictionary
281
1
  3
Normal
350
F
100
AcDbDictionaryWithDefault
340
F
  0
ACDBPLACEHOLDER
  5
F
  0
DICTIONARY
  5
17
100
AcDbDictionary
280
0
281
1
  3
Standard
350
18
  0
MLINESTYLE
  5
18
100
AcDbMlineStyle
  2
STANDARD
 70
0
  3

 62
256
 51
90.0
 52
90.0
 71
2
 49
0.5
 62
256
  6
BYLAYER
 49
-0.5
 62
256
  6
BYLAYER
  0
DICTIONARY
  5
19
100
AcDbDictionary
280
0
281
1
  0
DICTIONARY
  5
1A
100
AcDbDictionary
281
1
  3
Layout1
350
1E
  3
Layout2
350
26
  3
Model
350
22
  0
LAYOUT
  5
1E
100
AcDbPlotSettings
  1

  2
none_device
  4

  6

 40
0.0
 41
0.0
 42
0.0
 43
0.0
 44
0.0
 45
0.0
 46
0.0
 47
0.0
 48
0.0
 49
0.0
140
0.0
141
0.0
142
1.0
143
1.0
 70
688
 72
0
 73
0
 74
5
  7

 75
16
147
1.0
148
0.0
149
0.0
100
AcDbLayout
  1
Layout1
 70
1
 71
1
 10
0.0
 20
0.0
 11
420.0
 21
297.0
 12
0.0
 22
0.0
 32
0.0
 14
100000000000000000000.0
 24
100000000000000000000.0
 34
100000000000000000000.0
 15
-100000000000000000000.0
 25
-100000000000000000000.0
 35
-100000000000000000000.0
146
0.0
 13
0.0
 23
0.0
 33
0.0
 16
1.0
 26
0.0
 36
0.0
 17
0.0
 27
1.0
 37
0.0
 76
0
330
1B
  0
LAYOUT
  5
22
100
AcDbPlotSettings
  1

  2
none_device
  4

  6

 40
0.0
 41
0.0
 42
0.0
 43
0.0
 44
0.0
 45
0.0
 46
0.0
 47
0.0
 48
0.0
 49
0.0
140
0.0
141
0.0
142
1.0
143
1.0
 70
1712
 72
0
 73
0
 74
0
  7

 75
0
147
1.0
148
0.0
149
0.0
100
AcDbLayout
  1
Model
 70
1
 71
0
 10
0.0
 20
0.0
 11
12.0
 21
9.0
 12
0.0
 22
0.0
 32
0.0
 14
0.0
 24
0.0
 34
0.0
 15
0.0
 25
0.0
 35
0.0
146
0.0
 13
0.0
 23
0.0
 33
0.0
 16
1.0
 26
0.0
 36
0.0
 17
0.0
 27
1.0
 37
0.0
 76
0
330
1F
  0
LAYOUT
  5
26
100
AcDbPlotSettings
  1

  2
none_device
  4

  6

 40
0.0
 41
0.0
 42
0.0
 43
0.0
 44
0.0
 45
0.0
 46
0.0
 47
0.0
 48
0.0
 49
0.0
140
0.0
141
0.0
142
1.0
143
1.0
 70
688
 72
0
 73
0
 74
5
  7

 75
16
147
1.0
148
0.0
149
0.0
100
AcDbLayout
  1
Layout2
 70
1
 71
2
 10
0.0
 20
0.0
 11
12.0
 21
9.0
 12
0.0
 22
0.0
 32
0.0
 14
0.0
 24
0.0
 34
0.0
 15
0.0
 25
0.0
 35
0.0
146
0.0
 13
0.0
 23
0.0
 33
0.0
 16
1.0
 26
0.0
 36
0.0
 17
0.0
 27
1.0
 37
0.0
 76
0
330
23
  0
DICTIONARY
  5
101
100
AcDbDictionary
281
1
  3
DIMASSOC
350
104
  3
HIDETEXT
350
103
  0
DICTIONARYVAR
  5
103
100
DictionaryVariables
280
0
  1
2
  0
DICTIONARYVAR
  5
104
100
DictionaryVariables
280
0
  1
1
  0
DICTIONARY
  5
102
100
AcDbDictionary
281
1
  3
ColorSettings/BackgroundColor
350
105
  3
ColorSettings/ColorMode
350
106
  3
Grid/DisplayGrid00
350
107
  3
Grid/DisplayGrid01
350
108
  3
Grid/DisplayGrid02
350
109
  3
Grid/DisplayGrid03
350
10A
  3
Grid/GridSpacingX00
350
10B
  3
Grid/GridSpacingX01
350
10C
  3
Grid/GridSpacingX02
350
10D
  3
Grid/GridSpacingX03
350
10E
  3
Grid/GridSpacingY00
350
10F
  3
Grid/GridSpacingY01
350
110
  3
Grid/GridSpacingY02
350
111
  3
Grid/GridSpacingY03
350
112
  3
Grid/IsometricGrid00
350
113
  3
Grid/IsometricGrid01
350
114
  3
Grid/IsometricGrid02
350
115
  3
Grid/IsometricGrid03
350
116
  3
Grid/IsometricProjection00
350
117
  3
Grid/IsometricProjection01
350
118
  3
Grid/IsometricProjection02
350
119
  3
Grid/IsometricProjection03
350
11A
  3
Grid/MetaGridSpacingX00
350
11B
  3
Grid/MetaGridSpacingX01
350
11C
  3
Grid/MetaGridSpacingX02
350
11D
  3
Grid/MetaGridSpacingX03
350
11E
  3
Grid/MetaGridSpacingY00
350
11F
  3
Grid/MetaGridSpacingY01
350
120
  3
Grid/MetaGridSpacingY02
350
121
  3
Grid/MetaGridSpacingY03
350
122
  3
MultiPageSettings/Columns
350
123
  3
MultiPageSettings/GlueMarginsBottom
350
124
  3
MultiPageSettings/GlueMarginsLeft
350
125
  3
MultiPageSettings/GlueMarginsRight
350
126
  3
MultiPageSettings/GlueMarginsTop
350
127
  3
MultiPageSettings/PrintCropMarks
350
128
  3
MultiPageSettings/Rows
350
129
  3
PageSettings/OffsetX
350
12A
  3
PageSettings/OffsetY
350
12B
  3
PageSettings/PageOrientation
350
12C
  3
PageSettings/PaperHeight
350
12D
  3
PageSettings/PaperWidth
350
12E
  3
PageSettings/Scale
350
12F
  3
PageSettings/ShowPaperBorders
350
130
  3
QCADVersion
350
131
  3
UnitSettings/PaperUnit
350
132
  3
ViewportCenter
350
133
  3
ViewportHeight
350
134
  3
ViewportWidth
350
135
  0
XRECORD
  5
105
330
102
100
AcDbXrecord
280
1
1000
#ffffff
  0
XRECORD
  5
106
330
102
100
AcDbXrecord
280
1
1000
FullColor
  0
XRECORD
  5
107
330
102
100
AcDbXrecord
280
1
290
1
  0
XRECORD
  5
108
330
102
100
AcDbXrecord
280
1
290
1
  0
XRECORD
  5
109
330
102
100
AcDbXrecord
280
1
290
1
  0
XRECORD
  5
10A
330
102
100
AcDbXrecord
280
1
290
1
  0
XRECORD
  5
10B
330
102
100
AcDbXrecord
280
1
1000
auto
  0
XRECORD
  5
10C
330
102
100
AcDbXrecord
280
1
1000
auto
  0
XRECORD
  5
10D
330
102
100
AcDbXrecord
280
1
1000
auto
  0
XRECORD
  5
10E
330
102
100
AcDbXrecord
280
1
1000
auto
  0
XRECORD
  5
10F
330
102
100
AcDbXrecord
280
1
1000
auto
  0
XRECORD
  5
110
330
102
100
AcDbXrecord
280
1
1000
auto
  0
XRECORD
  5
111
330
102
100
AcDbXrecord
280
1
1000
auto
  0
XRECORD
  5
112
330
102
100
AcDbXrecord
280
1
1000
auto
  0
XRECORD
  5
113
330
102
100
AcDbXrecord
280
1
290
0
  0
XRECORD
  5
114
330
102
100
AcDbXrecord
280
1
290
0
  0
XRECORD
  5
115
330
102
100
AcDbXrecord
280
1
290
0
  0
XRECORD
  5
116
330
102
100
AcDbXrecord
280
1
290
0
  0
XRECORD
  5
117
330
102
100
AcDbXrecord
280
1
 90
0
  0
XRECORD
  5
118
330
102
100
AcDbXrecord
280
1
 90
0
  0
XRECORD
  5
119
330
102
100
AcDbXrecord
280
1
 90
0
  0
XRECORD
  5
11A
330
102
100
AcDbXrecord
280
1
 90
0
  0
XRECORD
  5
11B
330
102
100
AcDbXrecord
280
1
1000
auto
  0
XRECORD
  5
11C
330
102
100
AcDbXrecord
280
1
1000
auto
  0
XRECORD
  5
11D
330
102
100
AcDbXrecord
280
1
1000
auto
  0
XRECORD
  5
11E
330
102
100
AcDbXrecord
280
1
1000
auto
  0
XRECORD
  5
11F
330
102
100
AcDbXrecord
280
1
1000
auto
  0
XRECORD
  5
120
330
102
100
AcDbXrecord
280
1
1000
auto
  0
XRECORD
  5
121
330
102
100
AcDbXrecord
280
1
1000
auto
  0
XRECORD
  5
122
330
102
100
AcDbXrecord
280
1
1000
auto
  0
XRECORD
  5
123
330
102
100
AcDbXrecord
280
1
 90
1
  0
XRECORD
  5
124
330
102
100
AcDbXrecord
280
1
 40
10.0
  0
XRECORD
  5
125
330
102
100
AcDbXrecord
280
1
 40
10.0
  0
XRECORD
  5
126
330
102
100
AcDbXrecord
280
1
 40
10.0
  0
XRECORD
  5
127
330
102
100
AcDbXrecord
280
1
 40
10.0
  0
XRECORD
  5
128
330
102
100
AcDbXrecord
280
1
290
0
  0
XRECORD
  5
129
330
102
100
AcDbXrecord
280
1
 90
1
  0
XRECORD
  5
12A
330
102
100
AcDbXrecord
280
1
 40
0.0
  0
XRECORD
  5
12B
330
102
100
AcDbXrecord
280
1
 40
0.0
  0
XRECORD
  5
12C
330
102
100
AcDbXrecord
280
1
1000
Portrait
  0
XRECORD
  5
12D
330
102
100
AcDbXrecord
280
1
 40
279.39999999999998
  0
XRECORD
  5
12E
330
102
100
AcDbXrecord
280
1
 40
215.90000000000001
  0
XRECORD
  5
12F
330
102
100
AcDbXrecord
280
1
1000
1:1
  0
XRECORD
  5
130
330
102
100
AcDbXrecord
280
1
290
1
  0
XRECORD
  5
131
330
102
100
AcDbXrecord
280
1
1000
3.15.2
  0
XRECORD
  5
132
330
102
100
AcDbXrecord
280
1
 90
4
  0
XRECORD
  5
134
330
102
100
AcDbXrecord
280
1
 40
180.51724137931038
  0
XRECORD
  5
135
330
102
100
AcDbXrecord
280
1
 40
370.4901477832513
  0
ENDSEC
  0
EOF
