999
dxflib 3.12.2.0
  0
SECTION
  2
HEADER
  9
$ACADVER
  1
AC1015
  9
$HANDSEED
  5
FFFF
  9
$ANGBASE
 50
0.0
  9
$ANGDIR
 70
0
  9
$ATTMODE
 70
1
  9
$AUNITS
 70
0
  9
$AUPREC
 70
0
  9
$CECOLOR
 62
256
  9
$CELTSCALE
 40
1.0
  9
$CHAMFERA
 40
0.0
  9
$CHAMFERB
 40
0.0
  9
$CHAMFERC
 40
0.0
  9
$CHAMFERD
 40
0.0
  9
$CMLJUST
 70
0
  9
$CMLSCALE
 40
1.0
  9
$DIMADEC
 70
0
  9
$DIMALT
 70
0
  9
$DIMALTD
 70
2
  9
$DIMALTF
 40
25.399999999999999
  9
$DIMALTRND
 40
0.0
  9
$DIMALTTD
 70
2
  9
$DIMALTTZ
 70
0
  9
$DIMALTU
 70
2
  9
$DIMALTZ
 70
0
  9
$DIMAPOST
  1

  9
$DIMASZ
 40
2.5
  9
$DIMATFIT
 70
3
  9
$DIMAUNIT
 70
0
  9
$DIMAZIN
 70
2
  9
$DIMBLK
  1

  9
$DIMBLK1
  1

  9
$DIMBLK2
  1

  9
$DIMCEN
 40
0.09
  9
$DIMCLRD
 70
0
  9
$DIMCLRE
 70
0
  9
$DIMCLRT
 70
0
  9
$DIMDEC
 70
4
  9
$DIMDLE
 40
0.0
  9
$DIMDLI
 40
0.38
  9
$DIMDSEP
 70
46
  9
$DIMEXE
 40
1.25
  9
$DIMEXO
 40
0.625
  9
$DIMFRAC
 70
0
  9
$DIMGAP
 40
0.625
  9
$DIMJUST
 70
0
  9
$DIMLDRBLK
  1

  9
$DIMLFAC
 40
1.0
  9
$DIMLIM
 70
0
  9
$DIMLUNIT
 70
2
  9
$DIMLWD
 70
-2
  9
$DIMLWE
 70
-2
  9
$DIMPOST
  1

  9
$DIMRND
 40
0.0
  9
$DIMSAH
 70
0
  9
$DIMSCALE
 40
1.0
  9
$DIMSD1
 70
0
  9
$DIMSD2
 70
0
  9
$DIMSE1
 70
0
  9
$DIMSE2
 70
0
  9
$DIMSOXD
 70
0
  9
$DIMTAD
 70
0
  9
$DIMTDEC
 70
4
  9
$DIMTFAC
 40
1.0
  9
$DIMTIH
 70
1
  9
$DIMTIX
 70
0
  9
$DIMTM
 40
0.0
  9
$DIMTOFL
 70
0
  9
$DIMTOH
 70
1
  9
$DIMTOL
 70
0
  9
$DIMTOLJ
 70
1
  9
$DIMTP
 40
0.0
  9
$DIMTSZ
 40
0.0
  9
$DIMTVP
 40
0.0
  9
$DIMTXSTY
  7
Standard
  9
$DIMTXT
 40
2.5
  9
$DIMTZIN
 70
0
  9
$DIMUPT
 70
0
  9
$DIMZIN
 70
8
  9
$DISPSILH
 70
0
  9
$DWGCODEPAGE
  3
ANSI_1252
  9
$ELEVATION
 40
0.0
  9
$EXTMAX
 10
150.0
 20
200.0
 30
0.0
  9
$EXTMIN
 10
0.0
 20
-0.0000000000000284
 30
0.0
  9
$FILLETRAD
 40
0.0
  9
$FILLMODE
 70
1
  9
$INSBASE
 10
0.0
 20
0.0
 30
0.0
  9
$INSUNITS
 70
4
  9
$LIMCHECK
 70
0
  9
$LIMMAX
 10
12.0
 20
9.0
  9
$LIMMIN
 10
0.0
 20
0.0
  9
$LTSCALE
 40
1.0
  9
$LUNITS
 70
2
  9
$LUPREC
 70
4
  9
$MAXACTVP
 70
2
  9
$MEASUREMENT
 70
1
  9
$MIRRTEXT
 70
0
  9
$ORTHOMODE
 70
0
  9
$PDMODE
 70
0
  9
$PDSIZE
 40
0
  9
$PELEVATION
 40
0.0
  9
$PEXTMAX
 10
0.0
 20
0.0
 30
0.0
  9
$PEXTMIN
 10
0.0
 20
0.0
 30
0.0
  9
$PINSBASE
 10
0.0
 20
0.0
 30
0.0
  9
$PLIMCHECK
 70
0
  9
$PLIMMAX
 10
277.0
 20
202.5
  9
$PLIMMIN
 10
-20.0
 20
-7.5
  9
$PLINEGEN
 70
0
  9
$PLINEWID
 40
0.0
  9
$PROXYGRAPHICS
 70
1
  9
$PSLTSCALE
 70
1
  9
$PUCSNAME
  2

  9
$PUCSORG
 10
0.0
 20
0.0
 30
0.0
  9
$PUCSXDIR
 10
1.0
 20
0.0
 30
0.0
  9
$PUCSYDIR
 10
0.0
 20
1.0
 30
0.0
  9
$QTEXTMODE
 70
0
  9
$REGENMODE
 70
1
  9
$SHADEDGE
 70
3
  9
$SHADEDIF
 70
70
  9
$SKETCHINC
 40
0.1
  9
$SKPOLY
 70
0
  9
$SPLFRAME
 70
0
  9
$SPLINESEGS
 70
8
  9
$SPLINETYPE
 70
6
  9
$SURFTAB1
 70
6
  9
$SURFTAB2
 70
6
  9
$SURFTYPE
 70
6
  9
$SURFU
 70
6
  9
$SURFV
 70
6
  9
$TEXTSIZE
 40
2.5
  9
$TEXTSTYLE
  7
Standard
  9
$THICKNESS
 40
0.0
  9
$TILEMODE
 70
1
  9
$TRACEWID
 40
0.05
  9
$TREEDEPTH
 70
3020
  9
$UCSNAME
  2

  9
$UCSORG
 10
0.0
 20
0.0
 30
0.0
  9
$UCSXDIR
 10
1.0
 20
0.0
 30
0.0
  9
$UCSYDIR
 10
0.0
 20
1.0
 30
0.0
  9
$UNITMODE
 70
0
  9
$USERI1
 70
0
  9
$USERI2
 70
0
  9
$USERI3
 70
0
  9
$USERI4
 70
0
  9
$USERI5
 70
0
  9
$USERR1
 40
0.0
  9
$USERR2
 40
0.0
  9
$USERR3
 40
0.0
  9
$USERR4
 40
0.0
  9
$USERR5
 40
0.0
  9
$USRTIMER
 70
1
  9
$VISRETAIN
 70
1
  0
ENDSEC
  0
SECTION
  2
TABLES
  0
TABLE
  2
VPORT
  5
8
100
AcDbSymbolTable
 70
1
  0
VPORT
  5
30
100
AcDbSymbolTableRecord
100
AcDbViewportTableRecord
  2
*Active
 70
0
 10
0.0
 20
0.0
 11
1.0
 21
1.0
 12
286.30555555555549
 22
148.5
 13
0.0
 23
0.0
 14
10.0
 24
10.0
 15
10.0
 25
10.0
 16
0.0
 26
0.0
 36
1.0
 17
0.0
 27
0.0
 37
0.0
 40
297.0
 41
1.92798353909465
 42
50.0
 43
0.0
 44
0.0
 50
0.0
 51
0.0
 71
0
 72
100
 73
1
 74
3
 75
1
 76
1
 77
0
 78
0
281
0
 65
1
110
0.0
120
0.0
130
0.0
111
1.0
121
0.0
131
0.0
112
0.0
122
1.0
132
0.0
 79
0
146
0.0
  0
ENDTAB
  0
TABLE
  2
LTYPE
  5
5
100
AcDbSymbolTable
 70
50
  0
LTYPE
  5
16
100
AcDbSymbolTableRecord
100
AcDbLinetypeTableRecord
  2
Continuous
 70
0
  3
Solid line
 72
65
 73
0
 40
0.0
  0
LTYPE
  5
31
100
AcDbSymbolTableRecord
100
AcDbLinetypeTableRecord
  2
ACAD_ISO15W100
 70
0
  3
ISO double-dash triple-dot __ __ . . . __ __ . .
 72
65
 73
10
 40
39.000000000000007
 49
12.0
 74
0
 49
-3.0
 74
0
 49
12.0
 74
0
 49
-2.9500000000000002
 74
0
 49
0.1
 74
0
 49
-2.8999999999999999
 74
0
 49
0.1
 74
0
 49
-2.8999999999999999
 74
0
 49
0.1
 74
0
 49
-2.9500000000000002
 74
0
  0
LTYPE
  5
32
100
AcDbSymbolTableRecord
100
AcDbLinetypeTableRecord
  2
HOT_WATER_SUPPLY
 70
0
  3
Hot water supply ---- HW ---- HW ---- HW ----
 72
65
 73
3
 40
22.859999999999999
 49
12.699999999999999
 74
0
 49
-5.0800000000000001
 74
0
 49
-5.0800000000000001
 74
0
  0
LTYPE
  5
33
100
AcDbSymbolTableRecord
100
AcDbLinetypeTableRecord
  2
DIVIDE
 70
0
  3
Divide ____ . . ____ . . ____ . . ____ . . ____
 72
65
 73
6
 40
31.749999999999996
 49
12.699999999999999
 74
0
 49
-6.299999999999998
 74
0
 49
0.1
 74
0
 49
-6.2499999999999991
 74
0
 49
0.1
 74
0
 49
-6.299999999999998
 74
0
  0
LTYPE
  5
34
100
AcDbSymbolTableRecord
100
AcDbLinetypeTableRecord
  2
ACAD_ISO10W100
 70
0
  3
ISO dash dot __ . __ . __ . __ . __ . __ . __ . 
 72
65
 73
4
 40
18.0
 49
12.0
 74
0
 49
-2.9500000000000002
 74
0
 49
0.1
 74
0
 49
-2.9500000000000002
 74
0
  0
LTYPE
  5
35
100
AcDbSymbolTableRecord
100
AcDbLinetypeTableRecord
  2
GAS_LINE
 70
0
  3
Gas line ----GAS----GAS----GAS----GAS----GAS----GAS--
 72
65
 73
3
 40
24.129999999999999
 49
12.699999999999999
 74
0
 49
-5.0800000000000001
 74
0
 49
-6.349999999999997
 74
0
  0
LTYPE
  5
36
100
AcDbSymbolTableRecord
100
AcDbLinetypeTableRecord
  2
ACAD_ISO04W100
 70
0
  3
ISO long-dash dot ____ . ____ . ____ . ____ . _
 72
65
 73
4
 40
30.0
 49
24.0
 74
0
 49
-2.9500000000000002
 74
0
 49
0.1
 74
0
 49
-2.9500000000000002
 74
0
  0
LTYPE
  5
14
100
AcDbSymbolTableRecord
100
AcDbLinetypeTableRecord
  2
ByBlock
 70
0
  3

 72
65
 73
0
 40
0.0
  0
LTYPE
  5
37
100
AcDbSymbolTableRecord
100
AcDbLinetypeTableRecord
  2
CENTER2
 70
0
  3
Center (.5x) ___ _ ___ _ ___ _ ___ _ ___ _ ___
 72
65
 73
4
 40
28.574999999999992
 49
19.050000000000001
 74
0
 49
-3.174999999999998
 74
0
 49
3.174999999999998
 74
0
 49
-3.174999999999998
 74
0
  0
LTYPE
  5
38
100
AcDbSymbolTableRecord
100
AcDbLinetypeTableRecord
  2
ACAD_ISO11W100
 70
0
  3
ISO double-dash dot __ __ . __ __ . __ __ . __ _
 72
65
 73
6
 40
33.0
 49
12.0
 74
0
 49
-3.0
 74
0
 49
12.0
 74
0
 49
-2.9500000000000002
 74
0
 49
0.1
 74
0
 49
-2.9500000000000002
 74
0
  0
LTYPE
  5
39
100
AcDbSymbolTableRecord
100
AcDbLinetypeTableRecord
  2
HIDDEN2
 70
0
  3
Hidden (.5x) _ _ _ _ _ _ _ _ _ _ _ _ _ _ _ _ _ 
 72
65
 73
2
 40
4.7624999999999975
 49
3.174999999999998
 74
0
 49
-1.587499999999999
 74
0
  0
LTYPE
  5
3A
100
AcDbSymbolTableRecord
100
AcDbLinetypeTableRecord
  2
BORDERX2
 70
0
  3
Border (2x) ____  ____  .  ____  ____  .  ___
 72
65
 73
6
 40
88.899999999999991
 49
25.399999999999999
 74
0
 49
-12.699999999999999
 74
0
 49
25.399999999999999
 74
0
 49
-12.65
 74
0
 49
0.1
 74
0
 49
-12.65
 74
0
  0
LTYPE
  5
3B
100
AcDbSymbolTableRecord
100
AcDbLinetypeTableRecord
  2
ACAD_ISO05W100
 70
0
  3
ISO long-dash double-dot ____ .. ____ .. ____ . 
 72
65
 73
6
 40
33.0
 49
24.0
 74
0
 49
-2.9500000000000002
 74
0
 49
0.1
 74
0
 49
-2.8999999999999999
 74
0
 49
0.1
 74
0
 49
-2.9500000000000002
 74
0
  0
LTYPE
  5
3C
100
AcDbSymbolTableRecord
100
AcDbLinetypeTableRecord
  2
DASHDOTX2
 70
0
  3
Dash dot (2x) ____  .  ____  .  ____  .  ___
 72
65
 73
4
 40
50.799999999999997
 49
25.399999999999999
 74
0
 49
-12.65
 74
0
 49
0.1
 74
0
 49
-12.65
 74
0
  0
LTYPE
  5
3D
100
AcDbSymbolTableRecord
100
AcDbLinetypeTableRecord
  2
HIDDENX2
 70
0
  3
Hidden (2x) ____ ____ ____ ____ ____ ____ ____ 
 72
65
 73
2
 40
19.049999999999997
 49
12.699999999999999
 74
0
 49
-6.349999999999997
 74
0
  0
LTYPE
  5
3E
100
AcDbSymbolTableRecord
100
AcDbLinetypeTableRecord
  2
CENTERX2
 70
0
  3
Center (2x) ________  __  ________  __  _____
 72
65
 73
4
 40
101.60000000000001
 49
63.5
 74
0
 49
-12.699999999999999
 74
0
 49
12.699999999999999
 74
0
 49
-12.699999999999999
 74
0
  0
LTYPE
  5
3F
100
AcDbSymbolTableRecord
100
AcDbLinetypeTableRecord
  2
BORDER2
 70
0
  3
Border (.5x) __.__.__.__.__.__.__.__.__.__.__.
 72
65
 73
6
 40
22.224999999999994
 49
6.349999999999997
 74
0
 49
-3.174999999999998
 74
0
 49
6.349999999999997
 74
0
 49
-3.1249999999999991
 74
0
 49
0.1
 74
0
 49
-3.1249999999999991
 74
0
  0
LTYPE
  5
40
100
AcDbSymbolTableRecord
100
AcDbLinetypeTableRecord
  2
DASHDOT2
 70
0
  3
Dash dot (.5x) _._._._._._._._._._._._._._._.
 72
65
 73
4
 40
12.699999999999996
 49
6.349999999999997
 74
0
 49
-3.1249999999999991
 74
0
 49
0.1
 74
0
 49
-3.1249999999999991
 74
0
  0
LTYPE
  5
41
100
AcDbSymbolTableRecord
100
AcDbLinetypeTableRecord
  2
ACAD_ISO12W100
 70
0
  3
ISO dash double-dot __ . . __ . . __ . . __ . . 
 72
65
 73
6
 40
21.0
 49
12.0
 74
0
 49
-2.9500000000000002
 74
0
 49
0.1
 74
0
 49
-2.8999999999999999
 74
0
 49
0.1
 74
0
 49
-2.9500000000000002
 74
0
  0
LTYPE
  5
42
100
AcDbSymbolTableRecord
100
AcDbLinetypeTableRecord
  2
ACAD_ISO07W100
 70
0
  3
ISO dot . . . . . . . . . . . . . . . . . . . . 
 72
65
 73
2
 40
3.0
 49
0.1
 74
0
 49
-2.8999999999999999
 74
0
  0
LTYPE
  5
43
100
AcDbSymbolTableRecord
100
AcDbLinetypeTableRecord
  2
ACAD_ISO06W100
 70
0
  3
ISO long-dash triple-dot ____ ... ____ ... ____
 72
65
 73
8
 40
36.000000000000007
 49
24.0
 74
0
 49
-2.9500000000000002
 74
0
 49
0.1
 74
0
 49
-2.8999999999999999
 74
0
 49
0.1
 74
0
 49
-2.8999999999999999
 74
0
 49
0.1
 74
0
 49
-2.9500000000000002
 74
0
  0
LTYPE
  5
44
100
AcDbSymbolTableRecord
100
AcDbLinetypeTableRecord
  2
CENTER
 70
0
  3
Center ____ _ ____ _ ____ _ ____ _ ____ _ ____
 72
65
 73
4
 40
50.799999999999983
 49
31.75
 74
0
 49
-6.349999999999997
 74
0
 49
6.349999999999997
 74
0
 49
-6.349999999999997
 74
0
  0
LTYPE
  5
45
100
AcDbSymbolTableRecord
100
AcDbLinetypeTableRecord
  2
HIDDEN
 70
0
  3
Hidden __ __ __ __ __ __ __ __ __ __ __ __ __ __
 72
65
 73
2
 40
9.524999999999995
 49
6.349999999999997
 74
0
 49
-3.174999999999998
 74
0
  0
LTYPE
  5
46
100
AcDbSymbolTableRecord
100
AcDbLinetypeTableRecord
  2
DOTX2
 70
0
  3
Dot (2x) .  .  .  .  .  .  .  .  .  .  .  .  .  .
 72
65
 73
2
 40
12.699999999999999
 49
0.1
 74
0
 49
-12.6
 74
0
  0
LTYPE
  5
47
100
AcDbSymbolTableRecord
100
AcDbLinetypeTableRecord
  2
PHANTOM
 70
0
  3
Phantom ______  __  __  ______  __  __  ______ 
 72
65
 73
6
 40
63.499999999999972
 49
31.75
 74
0
 49
-6.349999999999997
 74
0
 49
6.349999999999997
 74
0
 49
-6.349999999999997
 74
0
 49
6.349999999999997
 74
0
 49
-6.349999999999997
 74
0
  0
LTYPE
  5
48
100
AcDbSymbolTableRecord
100
AcDbLinetypeTableRecord
  2
ACAD_ISO08W100
 70
0
  3
ISO long-dash short-dash ____ __ ____ __ ____ _
 72
65
 73
4
 40
36.0
 49
24.0
 74
0
 49
-3.0
 74
0
 49
6.0
 74
0
 49
-3.0
 74
0
  0
LTYPE
  5
49
100
AcDbSymbolTableRecord
100
AcDbLinetypeTableRecord
  2
DASHEDX2
 70
0
  3
Dashed (2x) ____  ____  ____  ____  ____  ___
 72
65
 73
2
 40
38.099999999999994
 49
25.399999999999999
 74
0
 49
-12.699999999999999
 74
0
  0
LTYPE
  5
4A
100
AcDbSymbolTableRecord
100
AcDbLinetypeTableRecord
  2
DRAINAGE
 70
0
  3
Drainage ---->---->---->----
 72
65
 73
2
 40
10.16
 49
5.0800000000000001
 74
0
 49
5.0800000000000001
 74
0
  0
LTYPE
  5
4B
100
AcDbSymbolTableRecord
100
AcDbLinetypeTableRecord
  2
ACAD_ISO02W100
 70
0
  3
ISO dash __ __ __ __ __ __ __ __ __ __ __ __ __
 72
65
 73
2
 40
15.0
 49
12.0
 74
0
 49
-3.0
 74
0
  0
LTYPE
  5
4C
100
AcDbSymbolTableRecord
100
AcDbLinetypeTableRecord
  2
PHANTOM2
 70
0
  3
Phantom (.5x) ___ _ _ ___ _ _ ___ _ _ ___ _ _
 72
65
 73
6
 40
31.749999999999986
 49
15.875
 74
0
 49
-3.174999999999998
 74
0
 49
3.174999999999998
 74
0
 49
-3.174999999999998
 74
0
 49
3.174999999999998
 74
0
 49
-3.174999999999998
 74
0
  0
LTYPE
  5
4D
100
AcDbSymbolTableRecord
100
AcDbLinetypeTableRecord
  2
DASHED2
 70
0
  3
Dashed (.5x) _ _ _ _ _ _ _ _ _ _ _ _ _ _ _ _ _ 
 72
65
 73
2
 40
9.524999999999995
 49
6.349999999999997
 74
0
 49
-3.174999999999998
 74
0
  0
LTYPE
  5
4E
100
AcDbSymbolTableRecord
100
AcDbLinetypeTableRecord
  2
ACAD_ISO09W100
 70
0
  3
ISO long-dash double-short-dash ____ __ __ ____
 72
65
 73
6
 40
45.0
 49
24.0
 74
0
 49
-3.0
 74
0
 49
6.0
 74
0
 49
-3.0
 74
0
 49
6.0
 74
0
 49
-3.0
 74
0
  0
LTYPE
  5
4F
100
AcDbSymbolTableRecord
100
AcDbLinetypeTableRecord
  2
ACAD_ISO13W100
 70
0
  3
ISO double-dash double-dot __ __ . . __ __ . . _
 72
65
 73
8
 40
36.000000000000007
 49
12.0
 74
0
 49
-3.0
 74
0
 49
12.0
 74
0
 49
-2.9500000000000002
 74
0
 49
0.1
 74
0
 49
-2.8999999999999999
 74
0
 49
0.1
 74
0
 49
-2.9500000000000002
 74
0
  0
LTYPE
  5
50
100
AcDbSymbolTableRecord
100
AcDbLinetypeTableRecord
  2
TRACKS
 70
0
  3
Tracks -|-|-|-|-|-|-|-|-|-|-|-|-|-|-|-|-|-|-|-|-|-|-|-|-
 72
65
 73
2
 40
7.6200000000000001
 49
3.8100000000000001
 74
0
 49
3.8100000000000001
 74
0
  0
LTYPE
  5
51
100
AcDbSymbolTableRecord
100
AcDbLinetypeTableRecord
  2
DRAINAGE2
 70
0
  3
Drainage reversed----<----<----<----
 72
65
 73
2
 40
10.16
 49
5.0800000000000001
 74
0
 49
5.0800000000000001
 74
0
  0
LTYPE
  5
52
100
AcDbSymbolTableRecord
100
AcDbLinetypeTableRecord
  2
DOT2
 70
0
  3
Dot (.5x) ........................................
 72
65
 73
2
 40
3.174999999999998
 49
0.1
 74
0
 49
-3.074999999999998
 74
0
  0
LTYPE
  5
53
100
AcDbSymbolTableRecord
100
AcDbLinetypeTableRecord
  2
ZIGZAG
 70
0
  3
Zig zag /\/\/\/\/\/\/\/\/\/\/\/\/\/\/\/\/\/\/\/\/\/\/\/
 72
65
 73
4
 40
20.32254
 49
0.00254
 74
0
 49
-5.0800000000000001
 74
0
 49
-10.16
 74
0
 49
-5.0800000000000001
 74
0
  0
LTYPE
  5
54
100
AcDbSymbolTableRecord
100
AcDbLinetypeTableRecord
  2
DASHED
 70
0
  3
Dashed __ __ __ __ __ __ __ __ __ __ __ __ __ _
 72
65
 73
2
 40
19.049999999999997
 49
12.699999999999999
 74
0
 49
-6.349999999999997
 74
0
  0
LTYPE
  5
55
100
AcDbSymbolTableRecord
100
AcDbLinetypeTableRecord
  2
ACAD_ISO14W100
 70
0
  3
ISO dash triple-dot __ . . . __ . . . __ . . . _
 72
65
 73
8
 40
24.0
 49
12.0
 74
0
 49
-2.9500000000000002
 74
0
 49
0.1
 74
0
 49
-2.8999999999999999
 74
0
 49
0.1
 74
0
 49
-2.8999999999999999
 74
0
 49
0.1
 74
0
 49
-2.9500000000000002
 74
0
  0
LTYPE
  5
56
100
AcDbSymbolTableRecord
100
AcDbLinetypeTableRecord
  2
PHANTOMX2
 70
0
  3
Phantom (2x) ____________    ____    ____   _
 72
65
 73
6
 40
127.00000000000001
 49
63.5
 74
0
 49
-12.699999999999999
 74
0
 49
12.699999999999999
 74
0
 49
-12.699999999999999
 74
0
 49
12.699999999999999
 74
0
 49
-12.699999999999999
 74
0
  0
LTYPE
  5
57
100
AcDbSymbolTableRecord
100
AcDbLinetypeTableRecord
  2
DIVIDEX2
 70
0
  3
Divide (2x) ________  .  .  ________  .  .  _
 72
65
 73
6
 40
63.5
 49
25.399999999999999
 74
0
 49
-12.65
 74
0
 49
0.1
 74
0
 49
-12.6
 74
0
 49
0.1
 74
0
 49
-12.65
 74
0
  0
LTYPE
  5
58
100
AcDbSymbolTableRecord
100
AcDbLinetypeTableRecord
  2
BORDER
 70
0
  3
Border __ __ . __ __ . __ __ . __ __ . __ __ .
 72
65
 73
6
 40
44.449999999999996
 49
12.699999999999999
 74
0
 49
-6.349999999999997
 74
0
 49
12.699999999999999
 74
0
 49
-6.299999999999998
 74
0
 49
0.1
 74
0
 49
-6.299999999999998
 74
0
  0
LTYPE
  5
59
100
AcDbSymbolTableRecord
100
AcDbLinetypeTableRecord
  2
DIVIDE2
 70
0
  3
Divide (.5x) __..__..__..__..__..__..__..__.._
 72
65
 73
6
 40
15.874999999999993
 49
6.349999999999997
 74
0
 49
-3.1249999999999991
 74
0
 49
0.1
 74
0
 49
-3.074999999999998
 74
0
 49
0.1
 74
0
 49
-3.1249999999999991
 74
0
  0
LTYPE
  5
5A
100
AcDbSymbolTableRecord
100
AcDbLinetypeTableRecord
  2
DOT
 70
0
  3
Dot . . . . . . . . . . . . . . . . . . . . . . . .
 72
65
 73
2
 40
6.3499999999999988
 49
0.1
 74
0
 49
-6.2499999999999991
 74
0
  0
LTYPE
  5
5B
100
AcDbSymbolTableRecord
100
AcDbLinetypeTableRecord
  2
DASHDOT
 70
0
  3
Dash dot __ . __ . __ . __ . __ . __ . __ . __
 72
65
 73
4
 40
25.399999999999995
 49
12.699999999999999
 74
0
 49
-6.299999999999998
 74
0
 49
0.1
 74
0
 49
-6.299999999999998
 74
0
  0
LTYPE
  5
5C
100
AcDbSymbolTableRecord
100
AcDbLinetypeTableRecord
  2
FENCELINE1
 70
0
  3
Fenceline circle ----0-----0----0-----0----0-----0--
 72
65
 73
4
 40
36.829999999999998
 49
6.349999999999997
 74
0
 49
-2.54
 74
0
 49
-2.54
 74
0
 49
25.399999999999999
 74
0
  0
LTYPE
  5
5D
100
AcDbSymbolTableRecord
100
AcDbLinetypeTableRecord
  2
BATTING
 70
0
  3
Batting SSSSSSSSSSSSSSSSSSSSSSSSSSSSSSSSSSSSSSSSSSSSSSS
 72
65
 73
4
 40
10.16254
 49
0.00254
 74
0
 49
-2.54
 74
0
 49
-5.0800000000000001
 74
0
 49
-2.54
 74
0
  0
LTYPE
  5
5E
100
AcDbSymbolTableRecord
100
AcDbLinetypeTableRecord
  2
ACAD_ISO03W100
 70
0
  3
ISO dash space __    __    __    __    __    __
 72
65
 73
2
 40
30.0
 49
12.0
 74
0
 49
-18.0
 74
0
  0
LTYPE
  5
15
100
AcDbSymbolTableRecord
100
AcDbLinetypeTableRecord
  2
ByLayer
 70
0
  3

 72
65
 73
0
 40
0.0
  0
LTYPE
  5
5F
100
AcDbSymbolTableRecord
100
AcDbLinetypeTableRecord
  2
FENCELINE2
 70
0
  3
Fenceline square ----[]-----[]----[]-----[]----[]---
 72
65
 73
4
 40
36.829999999999998
 49
6.349999999999997
 74
0
 49
-2.54
 74
0
 49
-2.54
 74
0
 49
25.399999999999999
 74
0
  0
ENDTAB
  0
TABLE
  2
LAYER
  5
2
100
AcDbSymbolTable
 70
4
  0
LAYER
  5
60
100
AcDbSymbolTableRecord
100
AcDbLayerTableRecord
  2
grabado linea medio
 70
0
 62
3
420
65280
  6
Continuous
370
-3
390
F
  0
LAYER
  5
61
100
AcDbSymbolTableRecord
100
AcDbLayerTableRecord
  2
mesa de trabajo y auxiliares
 70
0
 62
7
420
16777215
  6
Continuous
370
-3
390
F
  0
LAYER
  5
62
100
AcDbSymbolTableRecord
100
AcDbLayerTableRecord
  2
Corte exterior
 70
0
 62
1
420
16711680
  6
Continuous
370
-3
390
F
  0
LAYER
  5
10
100
AcDbSymbolTableRecord
100
AcDbLayerTableRecord
  2
0
 70
0
 62
7
420
16777215
  6
Continuous
370
25
390
F
  0
ENDTAB
  0
TABLE
  2
STYLE
  5
3
100
AcDbSymbolTable
 70
1
  0
STYLE
  5
63
100
AcDbSymbolTableRecord
100
AcDbTextStyleTableRecord
  2
Standard
 70
0
 40
0.0
 41
1.0
 50
0.0
 71
0
 42
2.5
  3

  4

1001
ACAD
1000
txt
1071
0
  0
ENDTAB
  0
TABLE
  2
VIEW
  5
6
100
AcDbSymbolTable
 70
0
  0
ENDTAB
  0
TABLE
  2
UCS
  5
7
100
AcDbSymbolTable
 70
0
  0
ENDTAB
  0
TABLE
  2
APPID
  5
9
100
AcDbSymbolTable
 70
1
  0
APPID
  5
12
100
AcDbSymbolTableRecord
100
AcDbRegAppTableRecord
  2
ACAD
 70
0
  0
APPID
  5
64
100
AcDbSymbolTableRecord
100
AcDbRegAppTableRecord
  2
QCAD
 70
0
  0
ENDTAB
  0
TABLE
  2
DIMSTYLE
  5
A
100
AcDbSymbolTable
 70
1
100
AcDbDimStyleTable
 71
0
  0
DIMSTYLE
105
27
100
AcDbSymbolTableRecord
100
AcDbDimStyleTableRecord
  2
Standard
 41
2.5
 42
0.625
 43
3.75
 44
1.25
 70
0
 73
0
 74
0
 77
1
 78
8
140
2.5
141
2.5
143
0.03937007874016
147
0.625
171
3
172
1
271
2
272
2
274
3
278
44
283
0
284
8
340
63
  0
ENDTAB
  0
TABLE
  2
BLOCK_RECORD
  5
1
100
AcDbSymbolTable
 70
1
  0
BLOCK_RECORD
  5
1F
100
AcDbSymbolTableRecord
100
AcDbBlockTableRecord
  2
*Model_Space
340
22
  0
BLOCK_RECORD
  5
1B
100
AcDbSymbolTableRecord
100
AcDbBlockTableRecord
  2
*Paper_Space
340
1E
  0
BLOCK_RECORD
  5
23
100
AcDbSymbolTableRecord
100
AcDbBlockTableRecord
  2
*Paper_Space0
340
26
  0
ENDTAB
  0
ENDSEC
  0
SECTION
  2
BLOCKS
  0
BLOCK
  5
20
100
AcDbEntity
  8
0
100
AcDbBlockBegin
  2
*Model_Space
 70
0
 10
0.0
 20
0.0
 30
0.0
  3
*Model_Space
  1

  0
ENDBLK
  5
21
100
AcDbEntity
  8
0
100
AcDbBlockEnd
  0
BLOCK
  5
1C
100
AcDbEntity
 67
1
  8
0
100
AcDbBlockBegin
  2
*Paper_Space
 70
0
 10
0.0
 20
0.0
 30
0.0
  3
*Paper_Space
  1

  0
ENDBLK
  5
1D
100
AcDbEntity
 67
1
  8
0
100
AcDbBlockEnd
  0
BLOCK
  5
24
100
AcDbEntity
  8
0
100
AcDbBlockBegin
  2
*Paper_Space0
 70
0
 10
0.0
 20
0.0
 30
0.0
  3
*Paper_Space0
  1

  0
ENDBLK
  5
25
100
AcDbEntity
  8
0
100
AcDbBlockEnd
  0
ENDSEC
  0
SECTION
  2
ENTITIES
  0
CIRCLE
  5
65
100
AcDbEntity
100
AcDbCircle
  8
Corte exterior
 62
256
370
-1
 48
1.0
  6
ByLayer
 10
15.757194132352
 20
181.83250000000001
 30
0.0
 40
1.0
  0
LINE
  5
66
100
AcDbEntity
100
AcDbLine
  8
mesa de trabajo y auxiliares
 62
256
370
-1
 48
1.0
  6
ByLayer
 10
0.0
 20
200.0
 30
0.0
 11
0.0
 21
0.0
 31
0.0
  0
LINE
  5
67
100
AcDbEntity
100
AcDbLine
  8
mesa de trabajo y auxiliares
 62
256
370
-1
 48
1.0
  6
ByLayer
 10
150.0
 20
200.0
 30
0.0
 11
0.0
 21
200.0
 31
0.0
  0
CIRCLE
  5
68
100
AcDbEntity
100
AcDbCircle
  8
Corte exterior
 62
256
370
-1
 48
1.0
  6
ByLayer
 10
139.25805416446741
 20
169.97894833896461
 30
0.0
 40
2.399999999999999
  0
LINE
  5
69
100
AcDbEntity
100
AcDbLine
  8
mesa de trabajo y auxiliares
 62
256
370
-1
 48
1.0
  6
ByLayer
 10
150.0
 20
0.0
 30
0.0
 11
150.0
 21
200.0
 31
0.0
  0
LINE
  5
6A
100
AcDbEntity
100
AcDbLine
  8
mesa de trabajo y auxiliares
 62
256
370
-1
 48
1.0
  6
ByLayer
 10
0.0
 20
0.0
 30
0.0
 11
150.0
 21
0.0
 31
0.0
  0
LINE
  5
6B
100
AcDbEntity
100
AcDbLine
  8
mesa de trabajo y auxiliares
 62
256
370
-1
 48
1.0
  6
ACAD_ISO02W100
 10
1.0
 20
199.0
 30
0.0
 11
1.0
 21
1.0
 31
0.0
  0
LINE
  5
6C
100
AcDbEntity
100
AcDbLine
  8
mesa de trabajo y auxiliares
 62
256
370
-1
 48
1.0
  6
ACAD_ISO02W100
 10
149.0
 20
199.0
 30
0.0
 11
1.0
 21
199.0
 31
0.0
  0
LINE
  5
6D
100
AcDbEntity
100
AcDbLine
  8
mesa de trabajo y auxiliares
 62
256
370
-1
 48
1.0
  6
ACAD_ISO02W100
 10
149.0
 20
1.0
 30
0.0
 11
149.0
 21
199.0
 31
0.0
  0
LINE
  5
6E
100
AcDbEntity
100
AcDbLine
  8
mesa de trabajo y auxiliares
 62
256
370
-1
 48
1.0
  6
ACAD_ISO02W100
 10
1.0
 20
1.0
 30
0.0
 11
149.0
 21
1.0
 31
0.0
  0
CIRCLE
  5
6F
100
AcDbEntity
100
AcDbCircle
  8
Corte exterior
 62
256
370
-1
 48
1.0
  6
ByLayer
 10
37.0
 20
162.0
 30
0.0
 40
8.0
  0
CIRCLE
  5
70
100
AcDbEntity
100
AcDbCircle
  8
Corte exterior
 62
256
370
-1
 48
1.0
  6
ByLayer
 10
85.000000000000057
 20
162.0
 30
0.0
 40
8.0
  0
CIRCLE
  5
71
100
AcDbEntity
100
AcDbCircle
  8
Corte exterior
 62
256
370
-1
 48
1.0
  6
ByLayer
 10
16.0
 20
109.0
 30
0.0
 40
8.0
  0
ARC
  5
72
100
AcDbEntity
  8
Corte exterior
 62
256
370
-1
 48
1.0
  6
Continuous
100
AcDbCircle
 10
15.757194233561099
 20
181.83249999955839
 30
0.0
 40
8.3105392309643609
100
AcDbArc
 50
13.689166925615639
 51
16.286939808383721
  0
CIRCLE
  5
73
100
AcDbEntity
100
AcDbCircle
  8
Corte exterior
 62
256
370
-1
 48
1.0
  6
ByLayer
 10
107.0
 20
194.0
 30
0.0
 40
2.0
  0
CIRCLE
  5
74
100
AcDbEntity
100
AcDbCircle
  8
Corte exterior
 62
256
370
-1
 48
1.0
  6
ByLayer
 10
88.98798672284687
 20
190.16749999999999
 30
0.0
 40
2.399999999999999
  0
CIRCLE
  5
75
100
AcDbEntity
100
AcDbCircle
  8
Corte exterior
 62
256
370
-1
 48
1.0
  6
ByLayer
 10
11.00000000000005
 20
162.0
 30
0.0
 40
8.0
  0
CIRCLE
  5
76
100
AcDbEntity
100
AcDbCircle
  8
Corte exterior
 62
256
370
-1
 48
1.0
  6
ByLayer
 10
59.000000000000057
 20
162.0
 30
0.0
 40
8.0
  0
CIRCLE
  5
77
100
AcDbEntity
100
AcDbCircle
  8
Corte exterior
 62
256
370
-1
 48
1.0
  6
ByLayer
 10
145.0
 20
194.0
 30
0.0
 40
2.0
  0
CIRCLE
  5
78
100
AcDbEntity
100
AcDbCircle
  8
Corte exterior
 62
256
370
-1
 48
1.0
  6
ByLayer
 10
16.0
 20
135.0
 30
0.0
 40
8.0
  0
CIRCLE
  5
79
100
AcDbEntity
100
AcDbCircle
  8
Corte exterior
 62
256
370
-1
 48
1.0
  6
ByLayer
 10
27.0
 20
52.0
 30
0.0
 40
5.6026855671243379
  0
CIRCLE
  5
7A
100
AcDbEntity
100
AcDbCircle
  8
Corte exterior
 62
256
370
-1
 48
1.0
  6
ByLayer
 10
115.0000000000001
 20
51.999999999999993
 30
0.0
 40
5.6026855671243379
  0
LINE
  5
7B
100
AcDbEntity
100
AcDbLine
  8
Corte exterior
 62
256
370
-1
 48
1.0
  6
ByLayer
 10
67.646157480682319
 20
138.0
 30
0.0
 11
44.294400440206559
 21
138.0
 31
0.0
  0
LINE
  5
7C
100
AcDbEntity
100
AcDbLine
  8
Corte exterior
 62
256
370
-1
 48
1.0
  6
ByLayer
 10
44.788022818891768
 20
106.0
 30
0.0
 11
66.519249264947348
 21
105.9999999999999
 31
0.0
  0
LINE
  5
7D
100
AcDbEntity
100
AcDbLine
  8
Corte exterior
 62
256
370
-1
 48
1.0
  6
ByLayer
 10
5.832610283651019
 20
146.0
 30
0.0
 11
41.900355510001368
 21
146.0
 31
0.0
  0
LINE
  5
7E
100
AcDbEntity
100
AcDbLine
  8
Corte exterior
 62
256
370
-1
 48
1.0
  6
ByLayer
 10
42.900355510001361
 20
146.0
 30
0.0
 11
52.798730344346083
 21
146.0
 31
0.0
  0
LINE
  5
7F
100
AcDbEntity
100
AcDbLine
  8
Corte exterior
 62
256
370
-1
 48
1.0
  6
ByLayer
 10
53.798730344346069
 20
146.0
 30
0.0
 11
90.697071999194065
 21
146.0
 31
0.0
  0
LINE
  5
80
100
AcDbEntity
100
AcDbLine
  8
Corte exterior
 62
256
370
-1
 48
1.0
  6
ByLayer
 10
91.697071999194065
 20
146.0
 30
0.0
 11
96.000000000000156
 21
146.0
 31
0.0
  0
LINE
  5
81
100
AcDbEntity
100
AcDbLine
  8
Corte exterior
 62
256
370
-1
 48
1.0
  6
ByLayer
 10
0.0
 20
146.0
 30
0.0
 11
4.832610283651019
 21
146.0
 31
0.0
  0
LINE
  5
82
100
AcDbEntity
100
AcDbLine
  8
Corte exterior
 62
256
370
-1
 48
1.0
  6
ByLayer
 10
16.495624943688661
 20
171.99999999999989
 30
0.0
 11
48.000000000000057
 21
171.99999999999989
 31
0.0
  0
LINE
  5
83
100
AcDbEntity
100
AcDbLine
  8
Corte exterior
 62
256
370
-1
 48
1.0
  6
ByLayer
 10
87.356841205521164
 20
97.999999999999972
 30
0.0
 11
54.614766342243279
 21
97.999999999999972
 31
0.0
  0
CIRCLE
  5
84
100
AcDbEntity
100
AcDbCircle
  8
Corte exterior
 62
256
370
-1
 48
1.0
  6
ByLayer
 10
90.000000000000057
 20
91.0
 30
0.0
 40
2.0
  0
CIRCLE
  5
85
100
AcDbEntity
100
AcDbCircle
  8
Corte exterior
 62
256
370
-1
 48
1.0
  6
ByLayer
 10
52.000000000000057
 20
91.0
 30
0.0
 40
2.0
  0
LWPOLYLINE
  5
86
  8
Corte exterior
 62
256
370
-1
 48
1.0
  6
ByLayer
100
AcDbEntity
100
AcDbPolyline
 90
9
 70
0
 10
101.947097165579
 20
185.17448641764031
 30
0.0
 42
0.2486204339585588
 10
100.5271900447018
 20
186.86105213247359
 30
0.0
 42
0.0031985852303993
 10
100.49919111242789
 20
186.87214676366861
 30
0.0
 42
0.0232304710374731
 10
100.2919794508153
 20
186.9418327858489
 30
0.0
 10
98.443064143800086
 20
187.4694326891678
 30
0.0
 42
0.9387994472517728
 10
79.947783959007992
 20
194.0343837891356
 30
0.0
 10
43.132181586495612
 20
197.09352444101239
 30
0.0
 10
28.95676931412055
 20
189.6773008362396
 30
0.0
 42
0.1451711079148159
 10
27.732351348017701
 20
188.48920546347361
 30
0.0
  0
LWPOLYLINE
  5
87
  8
Corte exterior
 62
256
370
-1
 48
1.0
  6
ByLayer
100
AcDbEntity
100
AcDbPolyline
 90
36
 70
0
 10
27.395288986360409
 20
187.55263516141989
 30
0.0
 42
0.6438405331984225
 10
31.886126949140522
 20
184.44374448495051
 30
0.0
 10
42.617942617845102
 20
190.90485267050201
 30
0.0
 10
75.347028257624828
 20
188.18527537372569
 30
0.0
 10
75.224237394068595
 20
186.70753370634321
 30
0.0
 42
0.5644339246288868
 10
78.490526097345452
 20
184.3460627886931
 30
0.0
 42
0.0031985852303933
 10
78.51816942117506
 20
184.35801593461721
 30
0.0
 42
0.0232304710374819
 10
78.713965651079874
 20
184.45526124684679
 30
0.0
 10
80.462664824522079
 20
185.4275180791486
 30
0.0
 42
-0.3682281136405999
 10
82.458263794253014
 20
185.02670432413609
 30
0.0
 10
82.839978834798373
 20
184.5758043101732
 30
0.0
 42
-0.3682281136406195
 10
82.905926838052977
 20
182.5414204292241
 30
0.0
 10
81.658385309018129
 20
180.97717227544049
 30
0.0
 42
0.0232304710374811
 10
81.530157958766779
 20
180.80011137901471
 30
0.0
 42
0.003198585229945
 10
81.513806278632728
 20
180.77482000486049
 30
0.0
 42
1.096434694713009
 10
85.681538855320937
 20
178.62829667814509
 30
0.0
 42
0.0031985852303984
 10
85.692633486515788
 20
178.65629561041911
 30
0.0
 42
0.0232304710374832
 10
85.762319508696152
 20
178.8635072720318
 30
0.0
 10
86.311347154633438
 20
180.78751371560799
 30
0.0
 42
-0.368228113640621
 10
88.005866842821277
 20
181.91519715547159
 30
0.0
 10
88.594614593699646
 20
181.8662759882119
 30
0.0
 42
-0.3682281136406212
 10
90.079773511762426
 20
180.4743816307633
 30
0.0
 10
90.303718915424767
 20
178.48614608049931
 30
0.0
 42
0.023230471037482
 10
90.338249447074034
 20
178.27027469105741
 30
0.0
 42
0.003198585230397
 10
90.344570765337536
 20
178.24082860498061
 30
0.0
 42
1.096434694712987
 10
94.809423932781201
 20
179.67003937183361
 30
0.0
 42
0.0031985852303942
 10
94.797470786857076
 20
179.6976826956631
 30
0.0
 42
0.0232304710374814
 10
94.700225474627516
 20
179.8934789255679
 30
0.0
 10
93.727968642326502
 20
181.64217809901029
 30
0.0
 42
-0.3682281136406052
 10
94.128782397338924
 20
183.6377770687414
 30
0.0
 10
94.579682411301718
 20
184.01949210928669
 30
0.0
 42
-0.3682281136405991
 10
96.614066292250683
 20
184.08544011254139
 30
0.0
 10
98.178314447406635
 20
182.83789858617081
 30
0.0
 42
0.0232304710374619
 10
98.355375343832151
 20
182.7096712359195
 30
0.0
 42
0.0031985852303922
 10
98.380666717986585
 20
182.69331955578551
 30
0.0
 42
0.5224946226069124
 10
101.947097165579
 20
184.18198905213029
 30
0.0
  0
LWPOLYLINE
  5
88
  8
Corte exterior
 62
256
370
-1
 48
1.0
  6
ByLayer
100
AcDbEntity
100
AcDbPolyline
 90
3
 70
0
 10
16.675199165109149
 20
172.04294827329491
 30
0.0
 42
0.2585446576952671
 10
24.544467487851438
 20
177.42093755277901
 30
0.0
 10
60.609225555875419
 20
172.19179649808009
 30
0.0
  0
LWPOLYLINE
  5
89
  8
Corte exterior
 62
256
370
-1
 48
1.0
  6
ByLayer
100
AcDbEntity
100
AcDbPolyline
 90
32
 70
0
 10
27.68653592952845
 20
188.62778327945281
 30
0.0
 42
0.7083849872834446
 10
23.78746358417904
 20
190.75441590187609
 30
0.0
 42
0.0031985852303845
 10
23.76521787166547
 20
190.73411419444571
 30
0.0
 42
0.023230471037486
 10
23.611748876090239
 20
190.57842192812299
 30
0.0
 10
22.274857187016469
 20
189.08981427033001
 30
0.0
 42
-0.368228113640611
 10
20.257489097188529
 20
188.81908764743801
 30
0.0
 10
19.749771750376489
 20
189.12114772509881
 30
0.0
 42
-0.3682281136406172
 10
19.025086082697531
 20
191.02322490472639
 30
0.0
 10
19.766213088313211
 20
193.14680854336629
 30
0.0
 42
1.096434694713005
 10
15.126704880946409
 20
193.8195052184694
 30
0.0
 10
15.234181743794689
 20
191.5728798732101
 30
0.0
 42
-0.3682281136406147
 10
13.99911971820811
 20
189.9549525858456
 30
0.0
 42
0.0177775312225056
 10
13.426520609985941
 20
189.80953093808199
 30
0.0
 42
-0.3682281136406245
 10
11.56911878739794
 20
190.64207246323741
 30
0.0
 10
10.71006806958947
 20
192.44907661690931
 30
0.0
 42
0.0232304710374759
 10
10.60713796062895
 20
192.64194498410569
 30
0.0
 42
0.0031985852303945
 10
10.591574328888679
 20
192.66772878554909
 30
0.0
 42
1.096434694712997
 10
6.8352782334418869
 20
189.8627694513963
 30
0.0
 42
0.003198585230389
 10
6.8555799408721381
 20
189.84052373888261
 30
0.0
 42
0.0232304710374845
 10
7.0112722071948372
 20
189.68705474330761
 30
0.0
 10
8.4998798649872835
 20
188.35016305423281
 30
0.0
 42
-0.3682281136406107
 10
8.7706064878792702
 20
186.332794964405
 30
0.0
 42
0.0177775312225012
 10
8.4685464098752341
 20
185.8250776176055
 30
0.0
 42
-0.3682281136406112
 10
6.5664692305907684
 20
185.10039194991441
 30
0.0
 10
4.6812837477291369
 20
185.77069625237249
 30
0.0
 42
0.0232304710374803
 10
4.4721226393742644
 20
185.83429220466121
 30
0.0
 42
0.0031985852303896
 10
4.4428855889848968
 20
185.8415189559604
 30
0.0
 42
1.096434694713003
 10
3.7701889138813081
 20
181.2020107485904
 30
0.0
 42
0.0031985852303898
 10
3.8002744830464281
 20
181.20063612941709
 30
0.0
 42
0.0232304710374808
 10
4.018884507814497
 20
181.2022082192388
 30
0.0
 10
5.9388380021538048
 20
181.30530065383141
 30
0.0
 42
0.3962129145832468
 10
15.67653902198745
 20
172.00033080886141
 30
0.0
  0
LWPOLYLINE
  5
8A
  8
Corte exterior
 62
256
370
-1
 48
1.0
  6
ByLayer
100
AcDbEntity
100
AcDbPolyline
 90
6
 70
0
 10
23.73422507381024
 20
184.1631735260201
 30
0.0
 42
-0.3682281136406123
 10
24.566766596020571
 20
186.0205753479195
 30
0.0
 10
26.373770749692209
 20
186.87962606572839
 30
0.0
 42
0.0232304710374803
 10
26.566639116888592
 20
186.98255617468891
 30
0.0
 42
0.0031985852303993
 10
26.59242291833198
 20
186.99811980642929
 30
0.0
 42
0.1092611304630532
 10
27.32430904415882
 20
187.70374718488739
 30
0.0
  0
LWPOLYLINE
  5
8B
  8
Corte exterior
 62
256
370
-1
 48
1.0
  6
ByLayer
100
AcDbEntity
100
AcDbPolyline
 90
4
 70
0
 10
61.968639002345
 20
106.0
 30
0.0
 10
61.968639002345
 20
109.0
 30
0.0
 10
49.968639002344972
 20
108.9999999999999
 30
0.0
 10
49.968639002344972
 20
106.0
 30
0.0
  0
LWPOLYLINE
  5
8C
  8
Corte exterior
 62
256
370
-1
 48
1.0
  6
ByLayer
100
AcDbEntity
100
AcDbPolyline
 90
5
 70
0
 10
102.0
 20
184.1782377348853
 30
0.0
 10
102.0
 20
183.17834537846909
 30
0.0
 10
102.0
 20
165.0
 30
0.0
 42
0.4142135623730951
 10
107.0
 20
160.0
 30
0.0
 10
130.62229857318661
 20
160.0
 30
0.0
  0
LWPOLYLINE
  5
8D
  8
Corte exterior
 62
256
370
-1
 48
1.0
  6
ByLayer
100
AcDbEntity
100
AcDbPolyline
 90
18
 70
0
 10
131.62229857318661
 20
160.0
 30
0.0
 10
145.0
 20
160.0
 30
0.0
 42
0.4142135623730951
 10
150.0
 20
165.0
 30
0.0
 10
150.0
 20
200.0
 30
0.0
 10
138.9999999999998
 20
200.0
 30
0.0
 10
139.0
 20
190.0
 30
0.0
 10
142.0
 20
190.0
 30
0.0
 10
142.0
 20
187.0
 30
0.0
 10
132.0
 20
187.0
 30
0.0
 10
132.0
 20
190.0
 30
0.0
 10
120.0
 20
190.0
 30
0.0
 10
119.9999999999999
 20
187.0
 30
0.0
 10
110.0
 20
187.0
 30
0.0
 10
110.0
 20
190.0
 30
0.0
 10
113.0
 20
190.0
 30
0.0
 10
113.0
 20
200.0
 30
0.0
 10
101.9999999999999
 20
200.0
 30
0.0
 10
102.0
 20
185.1782377348853
 30
0.0
  0
LWPOLYLINE
  5
8E
  8
Corte exterior
 62
256
370
-1
 48
1.0
  6
ByLayer
100
AcDbEntity
100
AcDbPolyline
 90
5
 70
0
 10
61.104051249285249
 20
172.12005018708439
 30
0.0
 10
75.724180902300702
 20
178.61886722988459
 30
0.0
 42
1.0286714366977061
 10
73.11978808158409
 20
184.02149494900141
 30
0.0
 10
61.99514043184972
 20
178.26578529923461
 30
0.0
 10
23.831663147341949
 20
183.79922615809409
 30
0.0
  0
LWPOLYLINE
  5
8F
  8
Corte exterior
 62
256
370
-1
 48
1.0
  6
ByLayer
100
AcDbEntity
100
AcDbPolyline
 90
4
 70
0
 10
48.468639002344958
 20
138.0
 30
0.0
 10
48.46863900234495
 20
136.0
 30
0.0
 10
63.468639002345007
 20
136.0
 30
0.0
 10
63.468639002345007
 20
138.0
 30
0.0
  0
LWPOLYLINE
  5
90
  8
Corte exterior
 62
256
370
-1
 48
1.0
  6
ByLayer
100
AcDbEntity
100
AcDbPolyline
 90
8
 70
0
 10
143.0
 20
160.0
 30
0.0
 42
-0.4142135623730951
 10
150.0
 20
153.0
 30
0.0
 10
149.9999999999998
 20
91.000000000000128
 30
0.0
 42
-0.4142135623730966
 10
142.9999999999998
 20
84.000000000000114
 30
0.0
 10
120.3412190250058
 20
84.000000000000142
 30
0.0
 42
-0.105580105498205
 10
116.2566614980321
 20
84.872218790481554
 30
0.0
 10
96.000000000000156
 20
97.999999999999972
 30
0.0
 10
88.356841205521164
 20
97.999999999999972
 30
0.0
  0
LWPOLYLINE
  5
91
  8
Corte exterior
 62
256
370
-1
 48
1.0
  6
ByLayer
100
AcDbEntity
100
AcDbPolyline
 90
9
 70
0
 10
53.614766342243271
 20
97.999999999999972
 30
0.0
 10
0.0
 20
97.999999999999986
 30
0.0
 10
0.0
 20
108.0
 30
0.0
 10
3.0000000000000551
 20
107.9999999999999
 30
0.0
 10
3.0
 20
136.0
 30
0.0
 10
0.0
 20
135.9999999999998
 30
0.0
 10
0.0
 20
146.0
 30
0.0
 10
0.0
 20
171.99999999999989
 30
0.0
 10
15.495624943688661
 20
171.99999999999989
 30
0.0
  0
LWPOLYLINE
  5
92
  8
Corte exterior
 62
256
370
-1
 48
1.0
  6
ByLayer
100
AcDbEntity
100
AcDbPolyline
 90
5
 70
0
 10
61.388812915319988
 20
171.99999999999989
 30
0.0
 10
96.000000000000128
 20
171.99999999999989
 30
0.0
 10
96.000000000000128
 20
145.9999999999998
 30
0.0
 10
116.2566614980321
 20
159.12778120951839
 30
0.0
 42
-0.1055801054982052
 10
120.3412190250058
 20
159.9999999999998
 30
0.0
  0
LWPOLYLINE
  5
93
  8
Corte exterior
 62
256
370
-1
 48
1.0
  6
ByLayer
100
AcDbEntity
100
AcDbPolyline
 90
3
 70
0
 10
60.388812915320003
 20
171.99999999999989
 30
0.0
 10
48.0
 20
171.99999999999989
 30
0.0
 10
48.000000000000057
 20
145.9999999999998
 30
0.0
  0
LWPOLYLINE
  5
94
  8
Corte exterior
 62
256
370
-1
 48
1.0
  6
ByLayer
100
AcDbEntity
100
AcDbPolyline
 90
34
 70
0
 10
45.999999999999652
 20
98.000000000000043
 30
0.0
 10
16.00000000000011
 20
67.999999999999972
 30
0.0
 10
5.0
 20
68.0
 30
0.0
 42
0.4142135623730951
 10
0.0
 20
63.0
 30
0.0
 10
0.0
 20
0.0
 30
0.0
 10
21.0
 20
0.0
 30
0.0
 10
21.0
 20
11.0
 30
0.0
 10
16.5
 20
11.0
 30
0.0
 10
16.5
 20
19.0
 30
0.0
 10
21.0
 20
19.0
 30
0.0
 10
21.0
 20
25.0
 30
0.0
 10
32.0
 20
25.0
 30
0.0
 10
32.0
 20
19.0
 30
0.0
 10
36.5
 20
19.0
 30
0.0
 10
36.5
 20
11.0
 30
0.0
 10
32.0
 20
11.0
 30
0.0
 10
32.0
 20
0.0
 30
0.0
 10
110.0000000000001
 20
0.0
 30
0.0
 10
110.0000000000001
 20
11.0
 30
0.0
 10
105.5000000000001
 20
11.0
 30
0.0
 10
105.5000000000001
 20
18.999999999999972
 30
0.0
 10
110.0000000000001
 20
18.999999999999972
 30
0.0
 10
110.0000000000001
 20
24.999999999999989
 30
0.0
 10
121.0000000000001
 20
25.000000000000028
 30
0.0
 10
121.0
 20
18.999999999999972
 30
0.0
 10
125.5000000000001
 20
19.000000000000011
 30
0.0
 10
125.5000000000001
 20
11.000000000000011
 30
0.0
 10
121.0
 20
10.99999999999997
 30
0.0
 10
121.0000000000001
 20
-0.0000000000000142
 30
0.0
 10
142.0
 20
-0.0000000000000284
 30
0.0
 10
142.00000000000011
 20
63.0
 30
0.0
 42
0.4142135623730951
 10
137.00000000000011
 20
68.0
 30
0.0
 10
126.0
 20
67.999999999999972
 30
0.0
 10
96.000000000000441
 20
98.0
 30
0.0
  0
LWPOLYLINE
  5
95
  8
Corte exterior
 62
256
370
-1
 48
1.0
  6
ByLayer
100
AcDbEntity
100
AcDbPolyline
 90
4
 70
1
 10
129.4686390023443
 20
139.5
 30
0.0
 10
129.4686390023443
 20
144.5
 30
0.0
 10
134.4686390023457
 20
144.50000000000011
 30
0.0
 10
134.46863900234561
 20
139.5
 30
0.0
  0
LWPOLYLINE
  5
96
  8
Corte exterior
 62
256
370
-1
 48
1.0
  6
ByLayer
100
AcDbEntity
100
AcDbPolyline
 90
4
 70
1
 10
101.4686390023443
 20
119.4999999999999
 30
0.0
 10
101.4686390023443
 20
124.4999999999999
 30
0.0
 10
106.4686390023456
 20
124.4999999999999
 30
0.0
 10
106.4686390023456
 20
119.4999999999999
 30
0.0
  0
LWPOLYLINE
  5
97
  8
Corte exterior
 62
256
370
-1
 48
1.0
  6
ByLayer
100
AcDbEntity
100
AcDbPolyline
 90
4
 70
1
 10
129.4686390023443
 20
99.499999999999787
 30
0.0
 10
129.4686390023443
 20
104.4999999999998
 30
0.0
 10
134.4686390023457
 20
104.5000000000003
 30
0.0
 10
134.46863900234561
 20
99.500000000000554
 30
0.0
  0
LWPOLYLINE
  5
98
  8
Corte exterior
 62
256
370
-1
 48
1.0
  6
ByLayer
100
AcDbEntity
100
AcDbPolyline
 90
4
 70
1
 10
129.4686390023443
 20
147.4999999999998
 30
0.0
 10
129.4686390023443
 20
152.4999999999998
 30
0.0
 10
134.46863900234561
 20
152.4999999999998
 30
0.0
 10
134.46863900234561
 20
147.50000000000011
 30
0.0
  0
LWPOLYLINE
  5
99
  8
Corte exterior
 62
256
370
-1
 48
1.0
  6
ByLayer
100
AcDbEntity
100
AcDbPolyline
 90
4
 70
1
 10
101.4686390023443
 20
127.5000000000001
 30
0.0
 10
101.4686390023443
 20
132.4999999999998
 30
0.0
 10
106.4686390023456
 20
132.4999999999998
 30
0.0
 10
106.4686390023456
 20
127.5
 30
0.0
  0
LWPOLYLINE
  5
9A
  8
Corte exterior
 62
256
370
-1
 48
1.0
  6
ByLayer
100
AcDbEntity
100
AcDbPolyline
 90
4
 70
1
 10
129.4686390023443
 20
107.5000000000001
 30
0.0
 10
129.4686390023443
 20
112.4999999999999
 30
0.0
 10
134.4686390023457
 20
112.4999999999999
 30
0.0
 10
134.46863900234561
 20
107.5000000000001
 30
0.0
  0
LWPOLYLINE
  5
9B
  8
Corte exterior
 62
256
370
-1
 48
1.0
  6
ByLayer
100
AcDbEntity
100
AcDbPolyline
 90
4
 70
1
 10
139.8119057420453
 20
134.5849364904999
 30
0.0
 10
135.4817787231444
 20
137.08493649050001
 30
0.0
 10
137.9817787231454
 20
141.41506350949999
 30
0.0
 10
142.3119057420453
 20
138.91506350949999
 30
0.0
  0
LWPOLYLINE
  5
9C
  8
Corte exterior
 62
256
370
-1
 48
1.0
  6
ByLayer
100
AcDbEntity
100
AcDbPolyline
 90
4
 70
1
 10
111.8119057420453
 20
114.5849364904999
 30
0.0
 10
107.4817787231444
 20
117.0849364905
 30
0.0
 10
109.9817787231453
 20
121.4150635094999
 30
0.0
 10
114.3119057420453
 20
118.9150635094998
 30
0.0
  0
LWPOLYLINE
  5
9D
  8
Corte exterior
 62
256
370
-1
 48
1.0
  6
ByLayer
100
AcDbEntity
100
AcDbPolyline
 90
4
 70
1
 10
139.8119057420453
 20
94.584936490500581
 30
0.0
 10
135.4817787231444
 20
97.084936490499416
 30
0.0
 10
137.98177872314531
 20
101.4150635095001
 30
0.0
 10
142.3119057420453
 20
98.915063509502005
 30
0.0
  0
LWPOLYLINE
  5
9E
  8
Corte exterior
 62
256
370
-1
 48
1.0
  6
ByLayer
100
AcDbEntity
100
AcDbPolyline
 90
4
 70
1
 10
107.4817787231444
 20
126.9150635094999
 30
0.0
 10
111.8119057420453
 20
129.4150635094999
 30
0.0
 10
114.3119057420453
 20
125.0849364905
 30
0.0
 10
109.9817787231453
 20
122.5849364905001
 30
0.0
  0
LWPOLYLINE
  5
9F
  8
Corte exterior
 62
256
370
-1
 48
1.0
  6
ByLayer
100
AcDbEntity
100
AcDbPolyline
 90
4
 70
1
 10
135.4817787231444
 20
106.9150635095
 30
0.0
 10
139.8119057420453
 20
109.4150635095001
 30
0.0
 10
142.3119057420453
 20
105.0849364905002
 30
0.0
 10
137.98177872314531
 20
102.5849364905003
 30
0.0
  0
LWPOLYLINE
  5
A0
  8
Corte exterior
 62
256
370
-1
 48
1.0
  6
ByLayer
100
AcDbEntity
100
AcDbPolyline
 90
4
 70
1
 10
135.4817787231444
 20
146.9150635095001
 30
0.0
 10
139.8119057420453
 20
149.41506350949999
 30
0.0
 10
142.3119057420453
 20
145.0849364905001
 30
0.0
 10
137.98177872314531
 20
142.5849364905001
 30
0.0
  0
LWPOLYLINE
  5
A1
  8
Corte exterior
 62
256
370
-1
 48
1.0
  6
ByLayer
100
AcDbEntity
100
AcDbPolyline
 90
4
 70
1
 10
101.4686390023443
 20
111.5
 30
0.0
 10
101.4686390023443
 20
116.4999999999999
 30
0.0
 10
106.4686390023456
 20
116.4999999999999
 30
0.0
 10
106.4686390023456
 20
111.4999999999999
 30
0.0
  0
LWPOLYLINE
  5
A2
  8
Corte exterior
 62
256
370
-1
 48
1.0
  6
ByLayer
100
AcDbEntity
100
AcDbPolyline
 90
4
 70
1
 10
129.4686390023443
 20
91.500000000000114
 30
0.0
 10
129.4686390023443
 20
96.500000000000114
 30
0.0
 10
134.46863900234561
 20
96.499999999999289
 30
0.0
 10
134.4686390023457
 20
91.499999999999545
 30
0.0
  0
LWPOLYLINE
  5
A3
  8
Corte exterior
 62
256
370
-1
 48
1.0
  6
ByLayer
100
AcDbEntity
100
AcDbPolyline
 90
4
 70
1
 10
129.4686390023443
 20
131.4999999999998
 30
0.0
 10
129.4686390023443
 20
136.4999999999998
 30
0.0
 10
134.46863900234561
 20
136.5
 30
0.0
 10
134.46863900234561
 20
131.5
 30
0.0
  0
LWPOLYLINE
  5
A4
  8
Corte exterior
 62
256
370
-1
 48
1.0
  6
ByLayer
100
AcDbEntity
100
AcDbPolyline
 90
4
 70
1
 10
96.125372262544602
 20
129.41506350949999
 30
0.0
 10
100.4554992814446
 20
126.9150635094999
 30
0.0
 10
97.955499281444574
 20
122.5849364905
 30
0.0
 10
93.625372262545497
 20
125.0849364905
 30
0.0
  0
LWPOLYLINE
  5
A5
  8
Corte exterior
 62
256
370
-1
 48
1.0
  6
ByLayer
100
AcDbEntity
100
AcDbPolyline
 90
4
 70
1
 10
124.1253722625446
 20
109.4150635095
 30
0.0
 10
128.45549928144459
 20
106.9150635094999
 30
0.0
 10
125.9554992814446
 20
102.5849364905001
 30
0.0
 10
121.6253722625455
 20
105.0849364904999
 30
0.0
  0
LWPOLYLINE
  5
A6
  8
Corte exterior
 62
256
370
-1
 48
1.0
  6
ByLayer
100
AcDbEntity
100
AcDbPolyline
 90
4
 70
1
 10
124.1253722625446
 20
149.41506350949999
 30
0.0
 10
128.45549928144459
 20
146.91506350949999
 30
0.0
 10
125.9554992814446
 20
142.58493649050001
 30
0.0
 10
121.6253722625455
 20
145.0849364905001
 30
0.0
  0
LWPOLYLINE
  5
A7
  8
Corte exterior
 62
256
370
-1
 48
1.0
  6
ByLayer
100
AcDbEntity
100
AcDbPolyline
 90
4
 70
1
 10
100.4554992814446
 20
117.0849364905
 30
0.0
 10
96.125372262544602
 20
114.5849364905
 30
0.0
 10
93.625372262545497
 20
118.9150635094998
 30
0.0
 10
97.955499281444574
 20
121.4150635094998
 30
0.0
  0
LWPOLYLINE
  5
A8
  8
Corte exterior
 62
256
370
-1
 48
1.0
  6
ByLayer
100
AcDbEntity
100
AcDbPolyline
 90
4
 70
1
 10
128.45549928144459
 20
97.084936490499416
 30
0.0
 10
124.1253722625446
 20
94.584936490499942
 30
0.0
 10
121.6253722625455
 20
98.915063509499134
 30
0.0
 10
125.9554992814446
 20
101.4150635095
 30
0.0
  0
LWPOLYLINE
  5
A9
  8
Corte exterior
 62
256
370
-1
 48
1.0
  6
ByLayer
100
AcDbEntity
100
AcDbPolyline
 90
4
 70
1
 10
128.45549928144459
 20
137.08493649050001
 30
0.0
 10
124.1253722625446
 20
134.5849364904999
 30
0.0
 10
121.6253722625455
 20
138.91506350949979
 30
0.0
 10
125.9554992814446
 20
141.4150635094999
 30
0.0
  0
LWPOLYLINE
  5
AA
  8
Corte exterior
 62
256
370
-1
 48
1.0
  6
ByLayer
100
AcDbEntity
100
AcDbPolyline
 90
4
 70
0
 10
58.000000000000171
 20
146.0
 30
0.0
 10
58.000000000000057
 20
149.0
 30
0.0
 10
86.000000000000114
 20
149.0
 30
0.0
 10
86.0
 20
146.0
 30
0.0
  0
LWPOLYLINE
  5
AB
  8
Corte exterior
 62
256
370
-1
 48
1.0
  6
ByLayer
100
AcDbEntity
100
AcDbPolyline
 90
4
 70
0
 10
10.00000000000005
 20
146.0
 30
0.0
 10
9.9999999999999432
 20
149.0
 30
0.0
 10
38.00000000000005
 20
149.0
 30
0.0
 10
37.999999999999943
 20
146.0
 30
0.0
  0
LWPOLYLINE
  5
AC
  8
Corte exterior
 62
256
370
-1
 48
1.0
  6
ByLayer
100
AcDbEntity
100
AcDbPolyline
 90
4
 70
0
 10
43.294400440206559
 20
138.0
 30
0.0
 10
39.968639002344972
 20
138.0
 30
0.0
 10
39.968639002344972
 20
106.0
 30
0.0
 10
43.788022818891783
 20
106.0
 30
0.0
  0
LWPOLYLINE
  5
AD
  8
Corte exterior
 62
256
370
-1
 48
1.0
  6
ByLayer
100
AcDbEntity
100
AcDbPolyline
 90
4
 70
0
 10
67.519249264947334
 20
105.9999999999999
 30
0.0
 10
71.968639002344958
 20
105.9999999999999
 30
0.0
 10
71.968639002344958
 20
138.0
 30
0.0
 10
68.646157480682305
 20
138.0
 30
0.0
  0
LWPOLYLINE
  5
AE
  8
Corte exterior
 62
256
370
-1
 48
1.0
  6
ByLayer
100
AcDbEntity
100
AcDbPolyline
 90
4
 70
1
 10
57.000000000000057
 20
80.499999999999986
 30
0.0
 10
57.000000000000057
 20
83.499999999999986
 30
0.0
 10
47.000000000000057
 20
83.499999999999986
 30
0.0
 10
47.000000000000057
 20
80.499999999999986
 30
0.0
  0
LWPOLYLINE
  5
AF
  8
Corte exterior
 62
256
370
-1
 48
1.0
  6
ByLayer
100
AcDbEntity
100
AcDbPolyline
 90
4
 70
1
 10
107.2403916871194
 20
74.274326938642261
 30
0.0
 10
109.3617120306791
 20
76.395647282201935
 30
0.0
 10
102.2906442188136
 20
83.466715094067396
 30
0.0
 10
100.1693238752538
 20
81.345394750507737
 30
0.0
  0
LWPOLYLINE
  5
B0
  8
Corte exterior
 62
256
370
-1
 48
1.0
  6
ByLayer
100
AcDbEntity
100
AcDbPolyline
 90
4
 70
1
 10
85.000000000000057
 20
80.499999999999986
 30
0.0
 10
85.000000000000057
 20
83.499999999999986
 30
0.0
 10
95.000000000000057
 20
83.499999999999972
 30
0.0
 10
95.000000000000057
 20
80.499999999999986
 30
0.0
  0
LWPOLYLINE
  5
B1
  8
Corte exterior
 62
256
370
-1
 48
1.0
  6
ByLayer
100
AcDbEntity
100
AcDbPolyline
 90
4
 70
1
 10
34.759608312880772
 20
74.27432693864219
 30
0.0
 10
32.638287969321091
 20
76.39564728220185
 30
0.0
 10
39.709355781186581
 20
83.466715094067325
 30
0.0
 10
41.830676124746219
 20
81.345394750507666
 30
0.0
  0
LWPOLYLINE
  5
B2
  8
Corte exterior
 62
256
370
-1
 48
1.0
  6
ByLayer
100
AcDbEntity
100
AcDbPolyline
 90
4
 70
1
 10
14.96061843965742
 20
54.475337065418863
 30
0.0
 10
12.839298096097769
 20
56.596657408978523
 30
0.0
 10
5.7682302842322883
 20
49.525589597113012
 30
0.0
 10
7.8895506277919472
 20
47.404269253553409
 30
0.0
  0
LWPOLYLINE
  5
B3
  8
Corte exterior
 62
256
370
-1
 48
1.0
  6
ByLayer
100
AcDbEntity
100
AcDbPolyline
 90
4
 70
1
 10
127.0393815603427
 20
54.475337065418863
 30
0.0
 10
129.16070190390241
 20
56.596657408978572
 30
0.0
 10
136.2317697157678
 20
49.52558959711299
 30
0.0
 10
134.11044937220819
 20
47.404269253553458
 30
0.0
  0
LWPOLYLINE
  5
B4
  8
Corte exterior
 62
256
370
-1
 48
1.0
  6
ByLayer
100
AcDbEntity
100
AcDbPolyline
 90
4
 70
1
 10
120.5554500650417
 20
172.4679003345762
 30
0.0
 10
119.60090302906769
 20
172.46790033457651
 30
0.0
 42
4.4976616035195089
 10
119.59830362560891
 20
167.46790033457651
 30
0.0
 10
120.5554500650418
 20
167.46790033457651
 30
0.0
 42
1.0
  0
ENDSEC
  0
SECTION
  2
OBJECTS
  0
DICTIONARY
  5
C
100
AcDbDictionary
280
0
281
1
  3
ACAD_GROUP
350
D
  3
ACAD_LAYOUT
350
1A
  3
ACAD_MLINESTYLE
350
17
  3
ACAD_PLOTSETTINGS
350
19
  3
ACAD_PLOTSTYLENAME
350
E
  3
AcDbVariableDictionary
350
B5
  3
QCAD_OBJECTS
350
B6
  0
DICTIONARY
  5
D
100
AcDbDictionary
280
0
281
1
  0
ACDBDICTIONARYWDFLT
  5
E
100
AcDbDictionary
281
1
  3
Normal
350
F
100
AcDbDictionaryWithDefault
340
F
  0
ACDBPLACEHOLDER
  5
F
  0
DICTIONARY
  5
17
100
AcDbDictionary
280
0
281
1
  3
Standard
350
18
  0
MLINESTYLE
  5
18
100
AcDbMlineStyle
  2
STANDARD
 70
0
  3

 62
256
 51
90.0
 52
90.0
 71
2
 49
0.5
 62
256
  6
BYLAYER
 49
-0.5
 62
256
  6
BYLAYER
  0
DICTIONARY
  5
19
100
AcDbDictionary
280
0
281
1
  0
DICTIONARY
  5
1A
100
AcDbDictionary
281
1
  3
Layout1
350
1E
  3
Layout2
350
26
  3
Model
350
22
  0
LAYOUT
  5
1E
100
AcDbPlotSettings
  1

  2
none_device
  4

  6

 40
0.0
 41
0.0
 42
0.0
 43
0.0
 44
0.0
 45
0.0
 46
0.0
 47
0.0
 48
0.0
 49
0.0
140
0.0
141
0.0
142
1.0
143
1.0
 70
688
 72
0
 73
0
 74
5
  7

 75
16
147
1.0
148
0.0
149
0.0
100
AcDbLayout
  1
Layout1
 70
1
 71
1
 10
0.0
 20
0.0
 11
420.0
 21
297.0
 12
0.0
 22
0.0
 32
0.0
 14
100000000000000000000.0
 24
100000000000000000000.0
 34
100000000000000000000.0
 15
-100000000000000000000.0
 25
-100000000000000000000.0
 35
-100000000000000000000.0
146
0.0
 13
0.0
 23
0.0
 33
0.0
 16
1.0
 26
0.0
 36
0.0
 17
0.0
 27
1.0
 37
0.0
 76
0
330
1B
  0
LAYOUT
  5
22
100
AcDbPlotSettings
  1

  2
none_device
  4

  6

 40
0.0
 41
0.0
 42
0.0
 43
0.0
 44
0.0
 45
0.0
 46
0.0
 47
0.0
 48
0.0
 49
0.0
140
0.0
141
0.0
142
1.0
143
1.0
 70
1712
 72
0
 73
0
 74
0
  7

 75
0
147
1.0
148
0.0
149
0.0
100
AcDbLayout
  1
Model
 70
1
 71
0
 10
0.0
 20
0.0
 11
12.0
 21
9.0
 12
0.0
 22
0.0
 32
0.0
 14
0.0
 24
0.0
 34
0.0
 15
0.0
 25
0.0
 35
0.0
146
0.0
 13
0.0
 23
0.0
 33
0.0
 16
1.0
 26
0.0
 36
0.0
 17
0.0
 27
1.0
 37
0.0
 76
0
330
1F
  0
LAYOUT
  5
26
100
AcDbPlotSettings
  1

  2
none_device
  4

  6

 40
0.0
 41
0.0
 42
0.0
 43
0.0
 44
0.0
 45
0.0
 46
0.0
 47
0.0
 48
0.0
 49
0.0
140
0.0
141
0.0
142
1.0
143
1.0
 70
688
 72
0
 73
0
 74
5
  7

 75
16
147
1.0
148
0.0
149
0.0
100
AcDbLayout
  1
Layout2
 70
1
 71
2
 10
0.0
 20
0.0
 11
12.0
 21
9.0
 12
0.0
 22
0.0
 32
0.0
 14
0.0
 24
0.0
 34
0.0
 15
0.0
 25
0.0
 35
0.0
146
0.0
 13
0.0
 23
0.0
 33
0.0
 16
1.0
 26
0.0
 36
0.0
 17
0.0
 27
1.0
 37
0.0
 76
0
330
23
  0
DICTIONARY
  5
B5
100
AcDbDictionary
281
1
  3
DIMASSOC
350
B8
  3
HIDETEXT
350
B7
  0
DICTIONARYVAR
  5
B7
100
DictionaryVariables
280
0
  1
2
  0
DICTIONARYVAR
  5
B8
100
DictionaryVariables
280
0
  1
1
  0
DICTIONARY
  5
B6
100
AcDbDictionary
281
1
  3
ColorSettings/BackgroundColor
350
B9
  3
ColorSettings/ColorMode
350
BA
  3
Grid/DisplayGrid00
350
BB
  3
Grid/DisplayGrid01
350
BC
  3
Grid/DisplayGrid02
350
BD
  3
Grid/DisplayGrid03
350
BE
  3
Grid/GridSpacingX00
350
BF
  3
Grid/GridSpacingX01
350
C0
  3
Grid/GridSpacingX02
350
C1
  3
Grid/GridSpacingX03
350
C2
  3
Grid/GridSpacingY00
350
C3
  3
Grid/GridSpacingY01
350
C4
  3
Grid/GridSpacingY02
350
C5
  3
Grid/GridSpacingY03
350
C6
  3
Grid/IsometricGrid00
350
C7
  3
Grid/IsometricGrid01
350
C8
  3
Grid/IsometricGrid02
350
C9
  3
Grid/IsometricGrid03
350
CA
  3
Grid/IsometricProjection00
350
CB
  3
Grid/IsometricProjection01
350
CC
  3
Grid/IsometricProjection02
350
CD
  3
Grid/IsometricProjection03
350
CE
  3
Grid/MetaGridSpacingX00
350
CF
  3
Grid/MetaGridSpacingX01
350
D0
  3
Grid/MetaGridSpacingX02
350
D1
  3
Grid/MetaGridSpacingX03
350
D2
  3
Grid/MetaGridSpacingY00
350
D3
  3
Grid/MetaGridSpacingY01
350
D4
  3
Grid/MetaGridSpacingY02
350
D5
  3
Grid/MetaGridSpacingY03
350
D6
  3
MultiPageSettings/Columns
350
D7
  3
MultiPageSettings/GlueMarginsBottom
350
D8
  3
MultiPageSettings/GlueMarginsLeft
350
D9
  3
MultiPageSettings/GlueMarginsRight
350
DA
  3
MultiPageSettings/GlueMarginsTop
350
DB
  3
MultiPageSettings/PrintCropMarks
350
DC
  3
MultiPageSettings/Rows
350
DD
  3
PageSettings/OffsetX
350
DE
  3
PageSettings/OffsetY
350
DF
  3
PageSettings/PageOrientation
350
E0
  3
PageSettings/PaperHeight
350
E1
  3
PageSettings/PaperWidth
350
E2
  3
PageSettings/Scale
350
E3
  3
PageSettings/ShowPaperBorders
350
E4
  3
QCADVersion
350
E5
  3
UnitSettings/PaperUnit
350
E6
  3
ViewportCenter
350
E7
  3
ViewportHeight
350
E8
  3
ViewportWidth
350
E9
  0
XRECORD
  5
B9
330
B6
100
AcDbXrecord
280
1
1000
Blanca
  0
XRECORD
  5
BA
330
B6
100
AcDbXrecord
280
1
1000
FullColor
  0
XRECORD
  5
BB
330
B6
100
AcDbXrecord
280
1
290
1
  0
XRECORD
  5
BC
330
B6
100
AcDbXrecord
280
1
290
1
  0
XRECORD
  5
BD
330
B6
100
AcDbXrecord
280
1
290
1
  0
XRECORD
  5
BE
330
B6
100
AcDbXrecord
280
1
290
1
  0
XRECORD
  5
BF
330
B6
100
AcDbXrecord
280
1
1000
auto
  0
XRECORD
  5
C0
330
B6
100
AcDbXrecord
280
1
1000
auto
  0
XRECORD
  5
C1
330
B6
100
AcDbXrecord
280
1
1000
auto
  0
XRECORD
  5
C2
330
B6
100
AcDbXrecord
280
1
1000
auto
  0
XRECORD
  5
C3
330
B6
100
AcDbXrecord
280
1
1000
auto
  0
XRECORD
  5
C4
330
B6
100
AcDbXrecord
280
1
1000
auto
  0
XRECORD
  5
C5
330
B6
100
AcDbXrecord
280
1
1000
auto
  0
XRECORD
  5
C6
330
B6
100
AcDbXrecord
280
1
1000
auto
  0
XRECORD
  5
C7
330
B6
100
AcDbXrecord
280
1
290
0
  0
XRECORD
  5
C8
330
B6
100
AcDbXrecord
280
1
290
0
  0
XRECORD
  5
C9
330
B6
100
AcDbXrecord
280
1
290
0
  0
XRECORD
  5
CA
330
B6
100
AcDbXrecord
280
1
290
0
  0
XRECORD
  5
CB
330
B6
100
AcDbXrecord
280
1
 90
0
  0
XRECORD
  5
CC
330
B6
100
AcDbXrecord
280
1
 90
0
  0
XRECORD
  5
CD
330
B6
100
AcDbXrecord
280
1
 90
0
  0
XRECORD
  5
CE
330
B6
100
AcDbXrecord
280
1
 90
0
  0
XRECORD
  5
CF
330
B6
100
AcDbXrecord
280
1
1000
auto
  0
XRECORD
  5
D0
330
B6
100
AcDbXrecord
280
1
1000
auto
  0
XRECORD
  5
D1
330
B6
100
AcDbXrecord
280
1
1000
auto
  0
XRECORD
  5
D2
330
B6
100
AcDbXrecord
280
1
1000
auto
  0
XRECORD
  5
D3
330
B6
100
AcDbXrecord
280
1
1000
auto
  0
XRECORD
  5
D4
330
B6
100
AcDbXrecord
280
1
1000
auto
  0
XRECORD
  5
D5
330
B6
100
AcDbXrecord
280
1
1000
auto
  0
XRECORD
  5
D6
330
B6
100
AcDbXrecord
280
1
1000
auto
  0
XRECORD
  5
D7
330
B6
100
AcDbXrecord
280
1
 90
1
  0
XRECORD
  5
D8
330
B6
100
AcDbXrecord
280
1
 40
10.0
  0
XRECORD
  5
D9
330
B6
100
AcDbXrecord
280
1
 40
10.0
  0
XRECORD
  5
DA
330
B6
100
AcDbXrecord
280
1
 40
10.0
  0
XRECORD
  5
DB
330
B6
100
AcDbXrecord
280
1
 40
10.0
  0
XRECORD
  5
DC
330
B6
100
AcDbXrecord
280
1
290
0
  0
XRECORD
  5
DD
330
B6
100
AcDbXrecord
280
1
 90
1
  0
XRECORD
  5
DE
330
B6
100
AcDbXrecord
280
1
 40
0.0
  0
XRECORD
  5
DF
330
B6
100
AcDbXrecord
280
1
 40
0.0
  0
XRECORD
  5
E0
330
B6
100
AcDbXrecord
280
1
1000
Portrait
  0
XRECORD
  5
E1
330
B6
100
AcDbXrecord
280
1
 40
297.0
  0
XRECORD
  5
E2
330
B6
100
AcDbXrecord
280
1
 40
210.0
  0
XRECORD
  5
E3
330
B6
100
AcDbXrecord
280
1
1000
1:1
  0
XRECORD
  5
E4
330
B6
100
AcDbXrecord
280
1
290
1
  0
XRECORD
  5
E5
330
B6
100
AcDbXrecord
280
1
1000
3.15.2
  0
XRECORD
  5
E6
330
B6
100
AcDbXrecord
280
1
 90
4
  0
XRECORD
  5
E8
330
B6
100
AcDbXrecord
280
1
 40
228.24858757062148
  0
XRECORD
  5
E9
330
B6
100
AcDbXrecord
280
1
 40
486.4406779661017
  0
ENDSEC
  0
EOF
