999
dxflib 3.12.2.0
  0
SECTION
  2
HEADER
  9
$ACADVER
  1
AC1015
  9
$HANDSEED
  5
FFFF
  9
$DIMADEC
 70
0
  9
$DIMASZ
 40
2.5
  9
$DIMAUNIT
 70
0
  9
$DIMAZIN
 70
2
  9
$DIMDEC
 70
4
  9
$DIMEXE
 40
1.25
  9
$DIMEXO
 40
0.625
  9
$DIMGAP
 40
0.625
  9
$DIMLUNIT
 70
2
  9
$DIMSCALE
 40
1.0
  9
$DIMTSZ
 40
0.0
  9
$DIMTXT
 40
2.5
  9
$DIMZIN
 70
8
  9
$DWGCODEPAGE
  3
ANSI_1252
  9
$INSUNITS
 70
4
  9
$LTSCALE
 40
1.0
  9
$MEASUREMENT
 70
1
  9
$PDMODE
 70
0
  9
$PDSIZE
 40
0
  0
ENDSEC
  0
SECTION
  2
TABLES
  0
TABLE
  2
VPORT
  5
8
100
AcDbSymbolTable
 70
1
  0
VPORT
  5
30
100
AcDbSymbolTableRecord
100
AcDbViewportTableRecord
  2
*Active
 70
0
 10
0.0
 20
0.0
 11
1.0
 21
1.0
 12
286.30555555555549
 22
148.5
 13
0.0
 23
0.0
 14
10.0
 24
10.0
 15
10.0
 25
10.0
 16
0.0
 26
0.0
 36
1.0
 17
0.0
 27
0.0
 37
0.0
 40
297.0
 41
1.92798353909465
 42
50.0
 43
0.0
 44
0.0
 50
0.0
 51
0.0
 71
0
 72
100
 73
1
 74
3
 75
1
 76
1
 77
0
 78
0
281
0
 65
1
110
0.0
120
0.0
130
0.0
111
1.0
121
0.0
131
0.0
112
0.0
122
1.0
132
0.0
 79
0
146
0.0
  0
ENDTAB
  0
TABLE
  2
LTYPE
  5
5
100
AcDbSymbolTable
 70
50
  0
LTYPE
  5
16
100
AcDbSymbolTableRecord
100
AcDbLinetypeTableRecord
  2
Continuous
 70
0
  3
Solid line
 72
65
 73
0
 40
0.0
  0
LTYPE
  5
31
100
AcDbSymbolTableRecord
100
AcDbLinetypeTableRecord
  2
ACAD_ISO15W100
 70
0
  3
ISO double-dash triple-dot __ __ . . . __ __ . .
 72
65
 73
10
 40
39.0
 49
12.0
 74
0
 49
-3.0
 74
0
 49
12.0
 74
0
 49
-3.0
 74
0
 49
0.0
 74
0
 49
-3.0
 74
0
 49
0.0
 74
0
 49
-3.0
 74
0
 49
0.0
 74
0
 49
-3.0
 74
0
  0
LTYPE
  5
32
100
AcDbSymbolTableRecord
100
AcDbLinetypeTableRecord
  2
HOT_WATER_SUPPLY
 70
0
  3
Hot water supply ---- HW ---- HW ---- HW ----
 72
65
 73
3
 40
22.859999999999999
 49
12.699999999999999
 74
0
 49
-5.0800000000000001
 74
0
 49
-5.0800000000000001
 74
0
  0
LTYPE
  5
33
100
AcDbSymbolTableRecord
100
AcDbLinetypeTableRecord
  2
DIVIDE
 70
0
  3
Divide ____ . . ____ . . ____ . . ____ . . ____
 72
65
 73
6
 40
31.75
 49
12.699999999999999
 74
0
 49
-6.3499999999999996
 74
0
 49
0.0
 74
0
 49
-6.3499999999999996
 74
0
 49
0.0
 74
0
 49
-6.3499999999999996
 74
0
  0
LTYPE
  5
34
100
AcDbSymbolTableRecord
100
AcDbLinetypeTableRecord
  2
ACAD_ISO10W100
 70
0
  3
ISO dash dot __ . __ . __ . __ . __ . __ . __ . 
 72
65
 73
4
 40
18.0
 49
12.0
 74
0
 49
-3.0
 74
0
 49
0.0
 74
0
 49
-3.0
 74
0
  0
LTYPE
  5
35
100
AcDbSymbolTableRecord
100
AcDbLinetypeTableRecord
  2
GAS_LINE
 70
0
  3
Gas line ----GAS----GAS----GAS----GAS----GAS----GAS--
 72
65
 73
3
 40
24.130000000000003
 49
12.699999999999999
 74
0
 49
-5.0800000000000001
 74
0
 49
-6.3499999999999996
 74
0
  0
LTYPE
  5
36
100
AcDbSymbolTableRecord
100
AcDbLinetypeTableRecord
  2
ACAD_ISO04W100
 70
0
  3
ISO long-dash dot ____ . ____ . ____ . ____ . _
 72
65
 73
4
 40
30.0
 49
24.0
 74
0
 49
-3.0
 74
0
 49
0.0
 74
0
 49
-3.0
 74
0
  0
LTYPE
  5
37
100
AcDbSymbolTableRecord
100
AcDbLinetypeTableRecord
  2
CENTER2
 70
0
  3
Center (.5x) ___ _ ___ _ ___ _ ___ _ ___ _ ___
 72
65
 73
4
 40
28.575000000000003
 49
19.050000000000001
 74
0
 49
-3.1749999999999998
 74
0
 49
3.1749999999999998
 74
0
 49
-3.1749999999999998
 74
0
  0
LTYPE
  5
38
100
AcDbSymbolTableRecord
100
AcDbLinetypeTableRecord
  2
ACAD_ISO11W100
 70
0
  3
ISO double-dash dot __ __ . __ __ . __ __ . __ _
 72
65
 73
6
 40
33.0
 49
12.0
 74
0
 49
-3.0
 74
0
 49
12.0
 74
0
 49
-3.0
 74
0
 49
0.0
 74
0
 49
-3.0
 74
0
  0
LTYPE
  5
39
100
AcDbSymbolTableRecord
100
AcDbLinetypeTableRecord
  2
HIDDEN2
 70
0
  3
Hidden (.5x) _ _ _ _ _ _ _ _ _ _ _ _ _ _ _ _ _ 
 72
65
 73
2
 40
4.7624999999999993
 49
3.1749999999999998
 74
0
 49
-1.5874999999999999
 74
0
  0
LTYPE
  5
3A
100
AcDbSymbolTableRecord
100
AcDbLinetypeTableRecord
  2
BORDERX2
 70
0
  3
Border (2x) ____  ____  .  ____  ____  .  ___
 72
65
 73
6
 40
88.899999999999991
 49
25.399999999999999
 74
0
 49
-12.699999999999999
 74
0
 49
25.399999999999999
 74
0
 49
-12.699999999999999
 74
0
 49
0.0
 74
0
 49
-12.699999999999999
 74
0
  0
LTYPE
  5
3B
100
AcDbSymbolTableRecord
100
AcDbLinetypeTableRecord
  2
ACAD_ISO05W100
 70
0
  3
ISO long-dash double-dot ____ .. ____ .. ____ . 
 72
65
 73
6
 40
33.0
 49
24.0
 74
0
 49
-3.0
 74
0
 49
0.0
 74
0
 49
-3.0
 74
0
 49
0.0
 74
0
 49
-3.0
 74
0
  0
LTYPE
  5
3C
100
AcDbSymbolTableRecord
100
AcDbLinetypeTableRecord
  2
DASHDOTX2
 70
0
  3
Dash dot (2x) ____  .  ____  .  ____  .  ___
 72
65
 73
4
 40
50.799999999999997
 49
25.399999999999999
 74
0
 49
-12.699999999999999
 74
0
 49
0.0
 74
0
 49
-12.699999999999999
 74
0
  0
LTYPE
  5
3D
100
AcDbSymbolTableRecord
100
AcDbLinetypeTableRecord
  2
HIDDENX2
 70
0
  3
Hidden (2x) ____ ____ ____ ____ ____ ____ ____ 
 72
65
 73
2
 40
19.049999999999997
 49
12.699999999999999
 74
0
 49
-6.3499999999999996
 74
0
  0
LTYPE
  5
3E
100
AcDbSymbolTableRecord
100
AcDbLinetypeTableRecord
  2
CENTERX2
 70
0
  3
Center (2x) ________  __  ________  __  _____
 72
65
 73
4
 40
101.60000000000001
 49
63.5
 74
0
 49
-12.699999999999999
 74
0
 49
12.699999999999999
 74
0
 49
-12.699999999999999
 74
0
  0
LTYPE
  5
3F
100
AcDbSymbolTableRecord
100
AcDbLinetypeTableRecord
  2
BORDER2
 70
0
  3
Border (.5x) __.__.__.__.__.__.__.__.__.__.__.
 72
65
 73
6
 40
22.224999999999998
 49
6.3499999999999996
 74
0
 49
-3.1749999999999998
 74
0
 49
6.3499999999999996
 74
0
 49
-3.1749999999999998
 74
0
 49
0.0
 74
0
 49
-3.1749999999999998
 74
0
  0
LTYPE
  5
40
100
AcDbSymbolTableRecord
100
AcDbLinetypeTableRecord
  2
DASHDOT2
 70
0
  3
Dash dot (.5x) _._._._._._._._._._._._._._._.
 72
65
 73
4
 40
12.699999999999999
 49
6.3499999999999996
 74
0
 49
-3.1749999999999998
 74
0
 49
0.0
 74
0
 49
-3.1749999999999998
 74
0
  0
LTYPE
  5
41
100
AcDbSymbolTableRecord
100
AcDbLinetypeTableRecord
  2
ACAD_ISO12W100
 70
0
  3
ISO dash double-dot __ . . __ . . __ . . __ . . 
 72
65
 73
6
 40
21.0
 49
12.0
 74
0
 49
-3.0
 74
0
 49
0.0
 74
0
 49
-3.0
 74
0
 49
0.0
 74
0
 49
-3.0
 74
0
  0
LTYPE
  5
42
100
AcDbSymbolTableRecord
100
AcDbLinetypeTableRecord
  2
ACAD_ISO07W100
 70
0
  3
ISO dot . . . . . . . . . . . . . . . . . . . . 
 72
65
 73
2
 40
3.0
 49
0.0
 74
0
 49
-3.0
 74
0
  0
LTYPE
  5
43
100
AcDbSymbolTableRecord
100
AcDbLinetypeTableRecord
  2
ACAD_ISO06W100
 70
0
  3
ISO long-dash triple-dot ____ ... ____ ... ____
 72
65
 73
8
 40
36.0
 49
24.0
 74
0
 49
-3.0
 74
0
 49
0.0
 74
0
 49
-3.0
 74
0
 49
0.0
 74
0
 49
-3.0
 74
0
 49
0.0
 74
0
 49
-3.0
 74
0
  0
LTYPE
  5
44
100
AcDbSymbolTableRecord
100
AcDbLinetypeTableRecord
  2
CENTER
 70
0
  3
Center ____ _ ____ _ ____ _ ____ _ ____ _ ____
 72
65
 73
4
 40
50.800000000000004
 49
31.75
 74
0
 49
-6.3499999999999996
 74
0
 49
6.3499999999999996
 74
0
 49
-6.3499999999999996
 74
0
  0
LTYPE
  5
45
100
AcDbSymbolTableRecord
100
AcDbLinetypeTableRecord
  2
HIDDEN
 70
0
  3
Hidden __ __ __ __ __ __ __ __ __ __ __ __ __ __
 72
65
 73
2
 40
9.5249999999999986
 49
6.3499999999999996
 74
0
 49
-3.1749999999999998
 74
0
  0
LTYPE
  5
46
100
AcDbSymbolTableRecord
100
AcDbLinetypeTableRecord
  2
DOTX2
 70
0
  3
Dot (2x) .  .  .  .  .  .  .  .  .  .  .  .  .  .
 72
65
 73
2
 40
12.699999999999999
 49
0.0
 74
0
 49
-12.699999999999999
 74
0
  0
LTYPE
  5
47
100
AcDbSymbolTableRecord
100
AcDbLinetypeTableRecord
  2
PHANTOM
 70
0
  3
Phantom ______  __  __  ______  __  __  ______ 
 72
65
 73
6
 40
63.500000000000007
 49
31.75
 74
0
 49
-6.3499999999999996
 74
0
 49
6.3499999999999996
 74
0
 49
-6.3499999999999996
 74
0
 49
6.3499999999999996
 74
0
 49
-6.3499999999999996
 74
0
  0
LTYPE
  5
48
100
AcDbSymbolTableRecord
100
AcDbLinetypeTableRecord
  2
ACAD_ISO08W100
 70
0
  3
ISO long-dash short-dash ____ __ ____ __ ____ _
 72
65
 73
4
 40
36.0
 49
24.0
 74
0
 49
-3.0
 74
0
 49
6.0
 74
0
 49
-3.0
 74
0
  0
LTYPE
  5
49
100
AcDbSymbolTableRecord
100
AcDbLinetypeTableRecord
  2
DASHEDX2
 70
0
  3
Dashed (2x) ____  ____  ____  ____  ____  ___
 72
65
 73
2
 40
38.099999999999994
 49
25.399999999999999
 74
0
 49
-12.699999999999999
 74
0
  0
LTYPE
  5
4A
100
AcDbSymbolTableRecord
100
AcDbLinetypeTableRecord
  2
DRAINAGE
 70
0
  3
Drainage ---->---->---->----
 72
65
 73
2
 40
10.16
 49
5.0800000000000001
 74
0
 49
5.0800000000000001
 74
0
  0
LTYPE
  5
4B
100
AcDbSymbolTableRecord
100
AcDbLinetypeTableRecord
  2
ACAD_ISO02W100
 70
0
  3
ISO dash __ __ __ __ __ __ __ __ __ __ __ __ __
 72
65
 73
2
 40
15.0
 49
12.0
 74
0
 49
-3.0
 74
0
  0
LTYPE
  5
4C
100
AcDbSymbolTableRecord
100
AcDbLinetypeTableRecord
  2
PHANTOM2
 70
0
  3
Phantom (.5x) ___ _ _ ___ _ _ ___ _ _ ___ _ _
 72
65
 73
6
 40
31.750000000000004
 49
15.875
 74
0
 49
-3.1749999999999998
 74
0
 49
3.1749999999999998
 74
0
 49
-3.1749999999999998
 74
0
 49
3.1749999999999998
 74
0
 49
-3.1749999999999998
 74
0
  0
LTYPE
  5
4D
100
AcDbSymbolTableRecord
100
AcDbLinetypeTableRecord
  2
DASHED2
 70
0
  3
Dashed (.5x) _ _ _ _ _ _ _ _ _ _ _ _ _ _ _ _ _ 
 72
65
 73
2
 40
9.5249999999999986
 49
6.3499999999999996
 74
0
 49
-3.1749999999999998
 74
0
  0
LTYPE
  5
4E
100
AcDbSymbolTableRecord
100
AcDbLinetypeTableRecord
  2
ACAD_ISO09W100
 70
0
  3
ISO long-dash double-short-dash ____ __ __ ____
 72
65
 73
6
 40
45.0
 49
24.0
 74
0
 49
-3.0
 74
0
 49
6.0
 74
0
 49
-3.0
 74
0
 49
6.0
 74
0
 49
-3.0
 74
0
  0
LTYPE
  5
4F
100
AcDbSymbolTableRecord
100
AcDbLinetypeTableRecord
  2
ACAD_ISO13W100
 70
0
  3
ISO double-dash double-dot __ __ . . __ __ . . _
 72
65
 73
8
 40
36.0
 49
12.0
 74
0
 49
-3.0
 74
0
 49
12.0
 74
0
 49
-3.0
 74
0
 49
0.0
 74
0
 49
-3.0
 74
0
 49
0.0
 74
0
 49
-3.0
 74
0
  0
LTYPE
  5
50
100
AcDbSymbolTableRecord
100
AcDbLinetypeTableRecord
  2
TRACKS
 70
0
  3
Tracks -|-|-|-|-|-|-|-|-|-|-|-|-|-|-|-|-|-|-|-|-|-|-|-|-
 72
65
 73
2
 40
7.6200000000000001
 49
3.8100000000000001
 74
0
 49
3.8100000000000001
 74
0
  0
LTYPE
  5
51
100
AcDbSymbolTableRecord
100
AcDbLinetypeTableRecord
  2
DRAINAGE2
 70
0
  3
Drainage reversed----<----<----<----
 72
65
 73
2
 40
10.16
 49
5.0800000000000001
 74
0
 49
5.0800000000000001
 74
0
  0
LTYPE
  5
52
100
AcDbSymbolTableRecord
100
AcDbLinetypeTableRecord
  2
DOT2
 70
0
  3
Dot (.5x) ........................................
 72
65
 73
2
 40
3.1749999999999998
 49
0.0
 74
0
 49
-3.1749999999999998
 74
0
  0
LTYPE
  5
53
100
AcDbSymbolTableRecord
100
AcDbLinetypeTableRecord
  2
ZIGZAG
 70
0
  3
Zig zag /\/\/\/\/\/\/\/\/\/\/\/\/\/\/\/\/\/\/\/\/\/\/\/
 72
65
 73
4
 40
20.32254
 49
0.00254
 74
0
 49
-5.0800000000000001
 74
0
 49
-10.16
 74
0
 49
-5.0800000000000001
 74
0
  0
LTYPE
  5
54
100
AcDbSymbolTableRecord
100
AcDbLinetypeTableRecord
  2
DASHED
 70
0
  3
Dashed __ __ __ __ __ __ __ __ __ __ __ __ __ _
 72
65
 73
2
 40
19.049999999999997
 49
12.699999999999999
 74
0
 49
-6.3499999999999996
 74
0
  0
LTYPE
  5
55
100
AcDbSymbolTableRecord
100
AcDbLinetypeTableRecord
  2
ACAD_ISO14W100
 70
0
  3
ISO dash triple-dot __ . . . __ . . . __ . . . _
 72
65
 73
8
 40
24.0
 49
12.0
 74
0
 49
-3.0
 74
0
 49
0.0
 74
0
 49
-3.0
 74
0
 49
0.0
 74
0
 49
-3.0
 74
0
 49
0.0
 74
0
 49
-3.0
 74
0
  0
LTYPE
  5
15
100
AcDbSymbolTableRecord
100
AcDbLinetypeTableRecord
  2
BYLAYER
 70
0
  3

 72
65
 73
0
 40
0.0
  0
LTYPE
  5
56
100
AcDbSymbolTableRecord
100
AcDbLinetypeTableRecord
  2
PHANTOMX2
 70
0
  3
Phantom (2x) ____________    ____    ____   _
 72
65
 73
6
 40
127.00000000000001
 49
63.5
 74
0
 49
-12.699999999999999
 74
0
 49
12.699999999999999
 74
0
 49
-12.699999999999999
 74
0
 49
12.699999999999999
 74
0
 49
-12.699999999999999
 74
0
  0
LTYPE
  5
14
100
AcDbSymbolTableRecord
100
AcDbLinetypeTableRecord
  2
BYBLOCK
 70
0
  3

 72
65
 73
0
 40
0.0
  0
LTYPE
  5
57
100
AcDbSymbolTableRecord
100
AcDbLinetypeTableRecord
  2
DIVIDEX2
 70
0
  3
Divide (2x) ________  .  .  ________  .  .  _
 72
65
 73
6
 40
63.5
 49
25.399999999999999
 74
0
 49
-12.699999999999999
 74
0
 49
0.0
 74
0
 49
-12.699999999999999
 74
0
 49
0.0
 74
0
 49
-12.699999999999999
 74
0
  0
LTYPE
  5
58
100
AcDbSymbolTableRecord
100
AcDbLinetypeTableRecord
  2
BORDER
 70
0
  3
Border __ __ . __ __ . __ __ . __ __ . __ __ .
 72
65
 73
6
 40
44.449999999999996
 49
12.699999999999999
 74
0
 49
-6.3499999999999996
 74
0
 49
12.699999999999999
 74
0
 49
-6.3499999999999996
 74
0
 49
0.0
 74
0
 49
-6.3499999999999996
 74
0
  0
LTYPE
  5
59
100
AcDbSymbolTableRecord
100
AcDbLinetypeTableRecord
  2
DIVIDE2
 70
0
  3
Divide (.5x) __..__..__..__..__..__..__..__.._
 72
65
 73
6
 40
15.875
 49
6.3499999999999996
 74
0
 49
-3.1749999999999998
 74
0
 49
0.0
 74
0
 49
-3.1749999999999998
 74
0
 49
0.0
 74
0
 49
-3.1749999999999998
 74
0
  0
LTYPE
  5
5A
100
AcDbSymbolTableRecord
100
AcDbLinetypeTableRecord
  2
DOT
 70
0
  3
Dot . . . . . . . . . . . . . . . . . . . . . . . .
 72
65
 73
2
 40
6.3499999999999996
 49
0.0
 74
0
 49
-6.3499999999999996
 74
0
  0
LTYPE
  5
5B
100
AcDbSymbolTableRecord
100
AcDbLinetypeTableRecord
  2
DASHDOT
 70
0
  3
Dash dot __ . __ . __ . __ . __ . __ . __ . __
 72
65
 73
4
 40
25.399999999999999
 49
12.699999999999999
 74
0
 49
-6.3499999999999996
 74
0
 49
0.0
 74
0
 49
-6.3499999999999996
 74
0
  0
LTYPE
  5
5C
100
AcDbSymbolTableRecord
100
AcDbLinetypeTableRecord
  2
FENCELINE1
 70
0
  3
Fenceline circle ----0-----0----0-----0----0-----0--
 72
65
 73
4
 40
36.829999999999998
 49
6.3499999999999996
 74
0
 49
-2.54
 74
0
 49
-2.54
 74
0
 49
25.399999999999999
 74
0
  0
LTYPE
  5
5D
100
AcDbSymbolTableRecord
100
AcDbLinetypeTableRecord
  2
BATTING
 70
0
  3
Batting SSSSSSSSSSSSSSSSSSSSSSSSSSSSSSSSSSSSSSSSSSSSSSS
 72
65
 73
4
 40
10.16254
 49
0.00254
 74
0
 49
-2.54
 74
0
 49
-5.0800000000000001
 74
0
 49
-2.54
 74
0
  0
LTYPE
  5
5E
100
AcDbSymbolTableRecord
100
AcDbLinetypeTableRecord
  2
ACAD_ISO03W100
 70
0
  3
ISO dash space __    __    __    __    __    __
 72
65
 73
2
 40
30.0
 49
12.0
 74
0
 49
-18.0
 74
0
  0
LTYPE
  5
5F
100
AcDbSymbolTableRecord
100
AcDbLinetypeTableRecord
  2
FENCELINE2
 70
0
  3
Fenceline square ----[]-----[]----[]-----[]----[]---
 72
65
 73
4
 40
36.829999999999998
 49
6.3499999999999996
 74
0
 49
-2.54
 74
0
 49
-2.54
 74
0
 49
25.399999999999999
 74
0
  0
ENDTAB
  0
TABLE
  2
LAYER
  5
2
100
AcDbSymbolTable
 70
3
  0
LAYER
  5
60
100
AcDbSymbolTableRecord
100
AcDbLayerTableRecord
  2
grabado linea medio
 70
0
 62
3
420
65280
  6
Continuous
370
-3
390
F
  0
LAYER
  5
61
100
AcDbSymbolTableRecord
100
AcDbLayerTableRecord
  2
Corte exterior
 70
0
 62
1
420
16711680
  6
Continuous
370
-3
390
F
  0
LAYER
  5
10
100
AcDbSymbolTableRecord
100
AcDbLayerTableRecord
  2
0
 70
0
 62
7
420
16777215
  6
Continuous
370
25
390
F
  0
ENDTAB
  0
TABLE
  2
STYLE
  5
3
100
AcDbSymbolTable
 70
1
  0
STYLE
  5
62
100
AcDbSymbolTableRecord
100
AcDbTextStyleTableRecord
  2
Standard
 70
0
 40
0.0
 41
1.0
 50
0.0
 71
0
 42
2.5
  3

  4

1001
ACAD
1000
txt
1071
0
  0
ENDTAB
  0
TABLE
  2
VIEW
  5
6
100
AcDbSymbolTable
 70
0
  0
ENDTAB
  0
TABLE
  2
UCS
  5
7
100
AcDbSymbolTable
 70
0
  0
ENDTAB
  0
TABLE
  2
APPID
  5
9
100
AcDbSymbolTable
 70
1
  0
APPID
  5
12
100
AcDbSymbolTableRecord
100
AcDbRegAppTableRecord
  2
ACAD
 70
0
  0
APPID
  5
63
100
AcDbSymbolTableRecord
100
AcDbRegAppTableRecord
  2
QCAD
 70
0
  0
ENDTAB
  0
TABLE
  2
DIMSTYLE
  5
A
100
AcDbSymbolTable
 70
1
100
AcDbDimStyleTable
 71
0
  0
DIMSTYLE
105
27
100
AcDbSymbolTableRecord
100
AcDbDimStyleTableRecord
  2
Standard
 41
2.5
 42
0.625
 43
3.75
 44
1.25
 70
0
 73
0
 74
0
 77
1
 78
8
140
2.5
141
2.5
143
0.03937007874016
147
0.625
171
3
172
1
271
2
272
2
274
3
278
44
283
0
284
8
340
62
  0
ENDTAB
  0
TABLE
  2
BLOCK_RECORD
  5
1
100
AcDbSymbolTable
 70
1
  0
BLOCK_RECORD
  5
1F
100
AcDbSymbolTableRecord
100
AcDbBlockTableRecord
  2
*Model_Space
340
22
  0
BLOCK_RECORD
  5
1B
100
AcDbSymbolTableRecord
100
AcDbBlockTableRecord
  2
*Paper_Space
340
1E
  0
BLOCK_RECORD
  5
23
100
AcDbSymbolTableRecord
100
AcDbBlockTableRecord
  2
*Paper_Space0
340
26
  0
ENDTAB
  0
ENDSEC
  0
SECTION
  2
BLOCKS
  0
BLOCK
  5
20
100
AcDbEntity
  8
0
100
AcDbBlockBegin
  2
*Model_Space
 70
0
 10
0.0
 20
0.0
 30
0.0
  3
*Model_Space
  1

  0
ENDBLK
  5
21
100
AcDbEntity
  8
0
100
AcDbBlockEnd
  0
BLOCK
  5
1C
100
AcDbEntity
 67
1
  8
0
100
AcDbBlockBegin
  2
*Paper_Space
 70
0
 10
0.0
 20
0.0
 30
0.0
  3
*Paper_Space
  1

  0
ENDBLK
  5
1D
100
AcDbEntity
 67
1
  8
0
100
AcDbBlockEnd
  0
BLOCK
  5
24
100
AcDbEntity
  8
0
100
AcDbBlockBegin
  2
*Paper_Space0
 70
0
 10
0.0
 20
0.0
 30
0.0
  3
*Paper_Space0
  1

  0
ENDBLK
  5
25
100
AcDbEntity
  8
0
100
AcDbBlockEnd
  0
ENDSEC
  0
SECTION
  2
ENTITIES
  0
ARC
  5
64
100
AcDbEntity
  8
grabado linea medio
 62
256
370
-1
 48
1.0
  6
BYLAYER
100
AcDbCircle
 10
18.851719464118968
 20
-48.849814409207632
 30
0.0
 40
19.751248572518101
100
AcDbArc
 50
67.078513213936048
 51
100.4318427268862
  0
ARC
  5
65
100
AcDbEntity
  8
grabado linea medio
 62
256
370
-1
 48
1.0
  6
BYLAYER
100
AcDbCircle
 10
42.246857350264285
 20
-48.848102534015403
 30
0.0
 40
19.751248572518101
100
AcDbArc
 50
79.576542196841956
 51
112.929871709792
  0
ARC
  5
66
100
AcDbEntity
  8
grabado linea medio
 62
256
370
-1
 48
1.0
  6
BYLAYER
100
AcDbCircle
 10
51.294941895366783
 20
-23.369675177197415
 30
0.0
 40
7.9919689061318122
100
AcDbArc
 50
90.683033523685509
 51
126.44688060867298
  0
ARC
  5
67
100
AcDbEntity
  8
grabado linea medio
 62
256
370
-1
 48
1.0
  6
BYLAYER
100
AcDbCircle
 10
9.7992213539322535
 20
-23.371646016195712
 30
0.0
 40
7.9919689061316097
100
AcDbArc
 50
53.558561916731712
 51
89.322409001719265
  0
ARC
  5
68
100
AcDbEntity
  8
Corte exterior
 62
256
370
-1
 48
1.0
  6
BYLAYER
100
AcDbCircle
 10
98.895638733795067
 20
-1.9266596766545483
 30
0.0
 40
49.556546745027617
100
AcDbArc
 50
195.74995571308767
 51
198.32580443492179
  0
LINE
  5
69
100
AcDbEntity
100
AcDbLine
  8
Corte exterior
 62
256
370
-1
 48
1.0
  6
BYLAYER
 10
52.499211711139864
 20
-23.449568352203791
 30
0.0
 11
51.852403407344958
 21
-17.508230050411626
 31
0.0
  0
ARC
  5
6A
100
AcDbEntity
  8
Corte exterior
 62
256
370
-1
 48
1.0
  6
BYLAYER
100
AcDbCircle
 10
52.71999504751259
 20
-30.299052960727469
 30
0.0
 40
6.8530420022076779
100
AcDbArc
 50
91.846208247742055
 51
122.3632443682984
  0
LINE
  5
6B
100
AcDbEntity
100
AcDbLine
  8
Corte exterior
 62
256
370
-1
 48
1.0
  6
BYLAYER
 10
48.902231692065399
 20
-27.648565746967968
 30
0.0
 11
49.051664166991308
 21
-24.51048377352442
 31
0.0
  0
LINE
  5
6C
100
AcDbEntity
100
AcDbLine
  8
Corte exterior
 62
256
370
-1
 48
1.0
  6
BYLAYER
 10
47.045837377837977
 20
-28.548795516283498
 30
0.0
 11
48.902231692065399
 21
-27.648565746967968
 31
0.0
  0
LINE
  5
6D
100
AcDbEntity
100
AcDbLine
  8
Corte exterior
 62
256
370
-1
 48
1.0
  6
BYLAYER
 10
47.045837377837977
 20
-29.548795516283498
 30
0.0
 11
47.045837377837977
 21
-28.548795516283498
 31
0.0
  0
LINE
  5
6E
100
AcDbEntity
100
AcDbLine
  8
Corte exterior
 62
256
370
-1
 48
1.0
  6
BYLAYER
 10
45.820289187483219
 20
-29.422799316867199
 30
0.0
 11
47.045837377837977
 21
-29.548795516283498
 31
0.0
  0
ARC
  5
6F
100
AcDbEntity
  8
Corte exterior
 62
256
370
-1
 48
1.0
  6
BYLAYER
100
AcDbCircle
 10
30.546118475636359
 20
-5.5274671253170844
 30
0.0
 40
25.447311484130758
100
AcDbArc
 50
260.95199756026813
 51
279.05638736336476
  0
LINE
  5
70
100
AcDbEntity
100
AcDbLine
  8
Corte exterior
 62
256
370
-1
 48
1.0
  6
BYLAYER
 10
14.049915139995598
 20
-29.5512099025974
 30
0.0
 11
15.275444878372628
 21
-29.425034352261186
 31
0.0
  0
LINE
  5
71
100
AcDbEntity
100
AcDbLine
  8
Corte exterior
 62
256
370
-1
 48
1.0
  6
BYLAYER
 10
14.049768795469546
 20
-28.551209913305769
 30
0.0
 11
14.049915139995598
 21
-29.5512099025974
 31
0.0
  0
LINE
  5
72
100
AcDbEntity
100
AcDbLine
  8
Corte exterior
 62
256
370
-1
 48
1.0
  6
BYLAYER
 10
12.193242757422098
 20
-27.651251826776296
 30
0.0
 11
14.049768795469546
 21
-28.551209913305769
 31
0.0
  0
LINE
  5
73
100
AcDbEntity
100
AcDbLine
  8
Corte exterior
 62
256
370
-1
 48
1.0
  6
BYLAYER
 10
12.043351042977246
 20
-24.513191755561188
 30
0.0
 11
12.193242757422098
 21
-27.651251826776296
 31
0.0
  0
LINE
  5
74
100
AcDbEntity
100
AcDbLine
  8
Corte exterior
 62
256
370
-1
 48
1.0
  6
BYLAYER
 10
9.8201080479730862
 20
-23.602511876727711
 30
0.0
 11
12.043351042977246
 21
-24.513191755561188
 31
0.0
  0
LWPOLYLINE
  5
75
  8
Corte exterior
 62
256
370
-1
 48
1.0
  6
BYLAYER
100
AcDbEntity
100
AcDbPolyline
 90
4
 70
1
 10
43.047094834665828
 20
-23.648795516283499
 30
0.0
 10
33.047094834665828
 20
-23.648795516283499
 30
0.0
 10
33.047094834665828
 20
-26.548795516283498
 30
0.0
 10
43.047094834665828
 20
-26.548795516283498
 30
0.0
  0
LWPOLYLINE
  5
76
  8
Corte exterior
 62
256
370
-1
 48
1.0
  6
BYLAYER
100
AcDbEntity
100
AcDbPolyline
 90
4
 70
1
 10
18.047094834665817
 20
-26.548795516283498
 30
0.0
 10
28.047094834665817
 20
-26.548795516283512
 30
0.0
 10
28.047094834665817
 20
-23.648795516283499
 30
0.0
 10
18.047094834665817
 20
-23.648795516283499
 30
0.0
  0
LINE
  5
77
100
AcDbEntity
100
AcDbLine
  8
Corte exterior
 62
256
370
-1
 48
1.0
  6
BYLAYER
 10
14.547094834665785
 20
-18.870761499265811
 30
0.0
 11
14.54645772124076
 21
-16.94239148168877
 31
0.0
  0
LINE
  5
78
100
AcDbEntity
100
AcDbLine
  8
Corte exterior
 62
256
370
-1
 48
1.0
  6
BYLAYER
 10
20.211717742741328
 20
-18.870761499265807
 30
0.0
 11
14.547094834665785
 21
-18.870761499265811
 31
0.0
  0
LINE
  5
79
100
AcDbEntity
100
AcDbLine
  8
Corte exterior
 62
256
370
-1
 48
1.0
  6
BYLAYER
 10
46.547094834665828
 20
-16.940871611620743
 30
0.0
 11
46.547094834665828
 21
-18.870761499265811
 31
0.0
  0
LWPOLYLINE
  5
7A
  8
grabado linea medio
 62
256
370
-1
 48
1.0
  6
BYLAYER
100
AcDbEntity
100
AcDbPolyline
 90
3
 70
0
 10
40.879134720904467
 20
-18.870761499265818
 30
0.0
 10
32.42233214770058
 20
-21.750227381216966
 30
0.0
 10
30.546973504518299
 20
-23.594207394387418
 30
0.0
  0
LWPOLYLINE
  5
7B
  8
grabado linea medio
 62
256
370
-1
 48
1.0
  6
BYLAYER
100
AcDbEntity
100
AcDbPolyline
 90
3
 70
0
 10
20.211717742741335
 20
-18.870761499265811
 30
0.0
 10
28.671677185127326
 20
-21.750405518551929
 30
0.0
 10
30.547210979487787
 20
-23.594207383108547
 30
0.0
  0
LINE
  5
7C
100
AcDbEntity
100
AcDbLine
  8
grabado linea medio
 62
256
370
-1
 48
1.0
  6
BYLAYER
 10
9.0935249857709479
 20
-19.154841658920056
 30
0.0
 11
9.0883778990463355
 21
-19.13358362441825
 31
0.0
  0
LINE
  5
7D
100
AcDbEntity
100
AcDbLine
  8
grabado linea medio
 62
256
370
-1
 48
1.0
  6
BYLAYER
 10
9.0986585033611362
 20
-19.176125087980637
 30
0.0
 11
9.0935249857709479
 21
-19.154841658920056
 31
0.0
  0
LINE
  5
7E
100
AcDbEntity
100
AcDbLine
  8
grabado linea medio
 62
256
370
-1
 48
1.0
  6
BYLAYER
 10
9.1037784518169147
 20
-19.197433911600051
 30
0.0
 11
9.0986585033611362
 21
-19.176125087980637
 31
0.0
  0
LINE
  5
7F
100
AcDbEntity
100
AcDbLine
  8
grabado linea medio
 62
256
370
-1
 48
1.0
  6
BYLAYER
 10
9.1088848311382868
 20
-19.218768129778219
 30
0.0
 11
9.1037784518169147
 21
-19.197433911600051
 31
0.0
  0
LINE
  5
80
100
AcDbEntity
100
AcDbLine
  8
grabado linea medio
 62
256
370
-1
 48
1.0
  6
BYLAYER
 10
9.1139776413252278
 20
-19.240127742515178
 30
0.0
 11
9.1088848311382868
 21
-19.218768129778219
 31
0.0
  0
LINE
  5
81
100
AcDbEntity
100
AcDbLine
  8
grabado linea medio
 62
256
370
-1
 48
1.0
  6
BYLAYER
 10
9.119056882377766
 20
-19.261512749810947
 30
0.0
 11
9.1139776413252278
 21
-19.240127742515178
 31
0.0
  0
LINE
  5
82
100
AcDbEntity
100
AcDbLine
  8
grabado linea medio
 62
256
370
-1
 48
1.0
  6
BYLAYER
 10
9.1241225542958873
 20
-19.282923151665486
 30
0.0
 11
9.119056882377766
 21
-19.261512749810947
 31
0.0
  0
LINE
  5
83
100
AcDbEntity
100
AcDbLine
  8
grabado linea medio
 62
256
370
-1
 48
1.0
  6
BYLAYER
 10
9.129174657079588
 20
-19.304358948078828
 30
0.0
 11
9.1241225542958873
 21
-19.282923151665486
 31
0.0
  0
LINE
  5
84
100
AcDbEntity
100
AcDbLine
  8
grabado linea medio
 62
256
370
-1
 48
1.0
  6
BYLAYER
 10
9.1342131907288646
 20
-19.325820139050947
 30
0.0
 11
9.129174657079588
 21
-19.304358948078828
 31
0.0
  0
LINE
  5
85
100
AcDbEntity
100
AcDbLine
  8
grabado linea medio
 62
256
370
-1
 48
1.0
  6
BYLAYER
 10
9.1392381552437385
 20
-19.347306724581877
 30
0.0
 11
9.1342131907288646
 21
-19.325820139050947
 31
0.0
  0
LINE
  5
86
100
AcDbEntity
100
AcDbLine
  8
grabado linea medio
 62
256
370
-1
 48
1.0
  6
BYLAYER
 10
9.1442495506241954
 20
-19.36881870467159
 30
0.0
 11
9.1392381552437385
 21
-19.347306724581877
 31
0.0
  0
LINE
  5
87
100
AcDbEntity
100
AcDbLine
  8
grabado linea medio
 62
256
370
-1
 48
1.0
  6
BYLAYER
 10
9.1492473768702354
 20
-19.390356079320078
 30
0.0
 11
9.1442495506241954
 21
-19.36881870467159
 31
0.0
  0
LINE
  5
88
100
AcDbEntity
100
AcDbLine
  8
grabado linea medio
 62
256
370
-1
 48
1.0
  6
BYLAYER
 10
9.1542316339818584
 20
-19.411918848527371
 30
0.0
 11
9.1492473768702354
 21
-19.390356079320078
 31
0.0
  0
LINE
  5
89
100
AcDbEntity
100
AcDbLine
  8
grabado linea medio
 62
256
370
-1
 48
1.0
  6
BYLAYER
 10
9.1592023219590644
 20
-19.433507012293447
 30
0.0
 11
9.1542316339818584
 21
-19.411918848527371
 31
0.0
  0
LINE
  5
8A
100
AcDbEntity
100
AcDbLine
  8
grabado linea medio
 62
256
370
-1
 48
1.0
  6
BYLAYER
 10
9.164159440801857
 20
-19.455120570618327
 30
0.0
 11
9.1592023219590644
 21
-19.433507012293447
 31
0.0
  0
LINE
  5
8B
100
AcDbEntity
100
AcDbLine
  8
grabado linea medio
 62
256
370
-1
 48
1.0
  6
BYLAYER
 10
9.1691029905102361
 20
-19.47675952350199
 30
0.0
 11
9.164159440801857
 21
-19.455120570618327
 31
0.0
  0
LINE
  5
8C
100
AcDbEntity
100
AcDbLine
  8
grabado linea medio
 62
256
370
-1
 48
1.0
  6
BYLAYER
 10
9.174032971084209
 20
-19.498423870944436
 30
0.0
 11
9.1691029905102361
 21
-19.47675952350199
 31
0.0
  0
LINE
  5
8D
100
AcDbEntity
100
AcDbLine
  8
grabado linea medio
 62
256
370
-1
 48
1.0
  6
BYLAYER
 10
9.1789493825237543
 20
-19.520113612945678
 30
0.0
 11
9.174032971084209
 21
-19.498423870944436
 31
0.0
  0
LINE
  5
8E
100
AcDbEntity
100
AcDbLine
  8
grabado linea medio
 62
256
370
-1
 48
1.0
  6
BYLAYER
 10
9.1838522248288754
 20
-19.541828749505704
 30
0.0
 11
9.1789493825237543
 21
-19.520113612945678
 31
0.0
  0
LINE
  5
8F
100
AcDbEntity
100
AcDbLine
  8
grabado linea medio
 62
256
370
-1
 48
1.0
  6
BYLAYER
 10
9.188741497999608
 20
-19.563569280624527
 30
0.0
 11
9.1838522248288754
 21
-19.541828749505704
 31
0.0
  0
LINE
  5
90
100
AcDbEntity
100
AcDbLine
  8
grabado linea medio
 62
256
370
-1
 48
1.0
  6
BYLAYER
 10
9.1936172020359059
 20
-19.58533520630214
 30
0.0
 11
9.188741497999608
 21
-19.563569280624527
 31
0.0
  0
LINE
  5
91
100
AcDbEntity
100
AcDbLine
  8
grabado linea medio
 62
256
370
-1
 48
1.0
  6
BYLAYER
 10
9.1984793369377869
 20
-19.607126526538551
 30
0.0
 11
9.1936172020359059
 21
-19.58533520630214
 31
0.0
  0
LINE
  5
92
100
AcDbEntity
100
AcDbLine
  8
grabado linea medio
 62
256
370
-1
 48
1.0
  6
BYLAYER
 10
9.2033279027052544
 20
-19.628943241333737
 30
0.0
 11
9.1984793369377869
 21
-19.607126526538551
 31
0.0
  0
LINE
  5
93
100
AcDbEntity
100
AcDbLine
  8
grabado linea medio
 62
256
370
-1
 48
1.0
  6
BYLAYER
 10
9.2081628993383262
 20
-19.65078535068772
 30
0.0
 11
9.2033279027052544
 21
-19.628943241333737
 31
0.0
  0
LINE
  5
94
100
AcDbEntity
100
AcDbLine
  8
grabado linea medio
 62
256
370
-1
 48
1.0
  6
BYLAYER
 10
9.2129843268369562
 20
-19.672652854600486
 30
0.0
 11
9.2081628993383262
 21
-19.65078535068772
 31
0.0
  0
LINE
  5
95
100
AcDbEntity
100
AcDbLine
  8
grabado linea medio
 62
256
370
-1
 48
1.0
  6
BYLAYER
 10
9.217792185201187
 20
-19.694545753072056
 30
0.0
 11
9.2129843268369562
 21
-19.672652854600486
 31
0.0
  0
LINE
  5
96
100
AcDbEntity
100
AcDbLine
  8
grabado linea medio
 62
256
370
-1
 48
1.0
  6
BYLAYER
 10
9.2225864744309867
 20
-19.716464046102409
 30
0.0
 11
9.217792185201187
 21
-19.694545753072056
 31
0.0
  0
LINE
  5
97
100
AcDbEntity
100
AcDbLine
  8
grabado linea medio
 62
256
370
-1
 48
1.0
  6
BYLAYER
 10
9.2273671945263871
 20
-19.738407733691567
 30
0.0
 11
9.2225864744309867
 21
-19.716464046102409
 31
0.0
  0
LINE
  5
98
100
AcDbEntity
100
AcDbLine
  8
grabado linea medio
 62
256
370
-1
 48
1.0
  6
BYLAYER
 10
9.2321343454873563
 20
-19.760376815839486
 30
0.0
 11
9.2273671945263871
 21
-19.738407733691567
 31
0.0
  0
LINE
  5
99
100
AcDbEntity
100
AcDbLine
  8
grabado linea medio
 62
256
370
-1
 48
1.0
  6
BYLAYER
 10
9.2368879273139264
 20
-19.782371292546209
 30
0.0
 11
9.2321343454873563
 21
-19.760376815839486
 31
0.0
  0
LINE
  5
9A
100
AcDbEntity
100
AcDbLine
  8
grabado linea medio
 62
256
370
-1
 48
1.0
  6
BYLAYER
 10
9.2416279400060688
 20
-19.804391163811729
 30
0.0
 11
9.2368879273139264
 21
-19.782371292546209
 31
0.0
  0
LINE
  5
9B
100
AcDbEntity
100
AcDbLine
  8
grabado linea medio
 62
256
370
-1
 48
1.0
  6
BYLAYER
 10
9.2463543835638049
 20
-19.826436429636026
 30
0.0
 11
9.2416279400060688
 21
-19.804391163811729
 31
0.0
  0
LINE
  5
9C
100
AcDbEntity
100
AcDbLine
  8
grabado linea medio
 62
256
370
-1
 48
1.0
  6
BYLAYER
 10
9.2510672579871169
 20
-19.848507090019126
 30
0.0
 11
9.2463543835638049
 21
-19.826436429636026
 31
0.0
  0
LINE
  5
9D
100
AcDbEntity
100
AcDbLine
  8
grabado linea medio
 62
256
370
-1
 48
1.0
  6
BYLAYER
 10
9.2557665632760191
 20
-19.870603144961009
 30
0.0
 11
9.2510672579871169
 21
-19.848507090019126
 31
0.0
  0
LINE
  5
9E
100
AcDbEntity
100
AcDbLine
  8
grabado linea medio
 62
256
370
-1
 48
1.0
  6
BYLAYER
 10
9.2604522994304972
 20
-19.89272459446169
 30
0.0
 11
9.2557665632760191
 21
-19.870603144961009
 31
0.0
  0
LINE
  5
9F
100
AcDbEntity
100
AcDbLine
  8
grabado linea medio
 62
256
370
-1
 48
1.0
  6
BYLAYER
 10
9.2651244664505761
 20
-19.914871438521146
 30
0.0
 11
9.2604522994304972
 21
-19.89272459446169
 31
0.0
  0
LINE
  5
A0
100
AcDbEntity
100
AcDbLine
  8
grabado linea medio
 62
256
370
-1
 48
1.0
  6
BYLAYER
 10
9.2697830643362273
 20
-19.937043677139407
 30
0.0
 11
9.2651244664505761
 21
-19.914871438521146
 31
0.0
  0
LINE
  5
A1
100
AcDbEntity
100
AcDbLine
  8
grabado linea medio
 62
256
370
-1
 48
1.0
  6
BYLAYER
 10
9.2744280930874652
 20
-19.959241310316457
 30
0.0
 11
9.2697830643362273
 21
-19.937043677139407
 31
0.0
  0
LINE
  5
A2
100
AcDbEntity
100
AcDbLine
  8
grabado linea medio
 62
256
370
-1
 48
1.0
  6
BYLAYER
 10
9.2790595527042967
 20
-19.981464338052277
 30
0.0
 11
9.2744280930874652
 21
-19.959241310316457
 31
0.0
  0
LINE
  5
A3
100
AcDbEntity
100
AcDbLine
  8
grabado linea medio
 62
256
370
-1
 48
1.0
  6
BYLAYER
 10
9.2836774431867042
 20
-20.003712760346914
 30
0.0
 11
9.2790595527042967
 21
-19.981464338052277
 31
0.0
  0
LINE
  5
A4
100
AcDbEntity
100
AcDbLine
  8
grabado linea medio
 62
256
370
-1
 48
1.0
  6
BYLAYER
 10
9.2882817645346947
 20
-20.025986577200335
 30
0.0
 11
9.2836774431867042
 21
-20.003712760346914
 31
0.0
  0
LINE
  5
A5
100
AcDbEntity
100
AcDbLine
  8
grabado linea medio
 62
256
370
-1
 48
1.0
  6
BYLAYER
 10
9.2928725167482682
 20
-20.048285788612546
 30
0.0
 11
9.2882817645346947
 21
-20.025986577200335
 31
0.0
  0
LINE
  5
A6
100
AcDbEntity
100
AcDbLine
  8
grabado linea medio
 62
256
370
-1
 48
1.0
  6
BYLAYER
 10
9.297449699827439
 20
-20.070610394583525
 30
0.0
 11
9.2928725167482682
 21
-20.048285788612546
 31
0.0
  0
LINE
  5
A7
100
AcDbEntity
100
AcDbLine
  8
grabado linea medio
 62
256
370
-1
 48
1.0
  6
BYLAYER
 10
9.3020133137721785
 20
-20.092960395113316
 30
0.0
 11
9.297449699827439
 21
-20.070610394583525
 31
0.0
  0
LINE
  5
A8
100
AcDbEntity
100
AcDbLine
  8
grabado linea medio
 62
256
370
-1
 48
1.0
  6
BYLAYER
 10
9.3065633585825083
 20
-20.115335790201911
 30
0.0
 11
9.3020133137721785
 21
-20.092960395113316
 31
0.0
  0
LINE
  5
A9
100
AcDbEntity
100
AcDbLine
  8
grabado linea medio
 62
256
370
-1
 48
1.0
  6
BYLAYER
 10
9.3110998342584281
 20
-20.137736579849275
 30
0.0
 11
9.3065633585825083
 21
-20.115335790201911
 31
0.0
  0
LINE
  5
AA
100
AcDbEntity
100
AcDbLine
  8
grabado linea medio
 62
256
370
-1
 48
1.0
  6
BYLAYER
 10
9.3156227407999275
 20
-20.160162764055428
 30
0.0
 11
9.3110998342584281
 21
-20.137736579849275
 31
0.0
  0
LINE
  5
AB
100
AcDbEntity
100
AcDbLine
  8
grabado linea medio
 62
256
370
-1
 48
1.0
  6
BYLAYER
 10
9.3201320782070063
 20
-20.182614342820386
 30
0.0
 11
9.3156227407999275
 21
-20.160162764055428
 31
0.0
  0
LINE
  5
AC
100
AcDbEntity
100
AcDbLine
  8
grabado linea medio
 62
256
370
-1
 48
1.0
  6
BYLAYER
 10
9.3246278464796859
 20
-20.205091316144127
 30
0.0
 11
9.3201320782070063
 21
-20.182614342820386
 31
0.0
  0
LINE
  5
AD
100
AcDbEntity
100
AcDbLine
  8
grabado linea medio
 62
256
370
-1
 48
1.0
  6
BYLAYER
 10
9.3291100456179379
 20
-20.227593684026658
 30
0.0
 11
9.3246278464796859
 21
-20.205091316144127
 31
0.0
  0
LINE
  5
AE
100
AcDbEntity
100
AcDbLine
  8
grabado linea medio
 62
256
370
-1
 48
1.0
  6
BYLAYER
 10
9.3335786756217587
 20
-20.250121446467979
 30
0.0
 11
9.3291100456179379
 21
-20.227593684026658
 31
0.0
  0
LINE
  5
AF
100
AcDbEntity
100
AcDbLine
  8
grabado linea medio
 62
256
370
-1
 48
1.0
  6
BYLAYER
 10
9.3380337364911981
 20
-20.27267460346809
 30
0.0
 11
9.3335786756217587
 21
-20.250121446467979
 31
0.0
  0
LINE
  5
B0
100
AcDbEntity
100
AcDbLine
  8
grabado linea medio
 62
256
370
-1
 48
1.0
  6
BYLAYER
 10
9.3424752282262062
 20
-20.295253155026977
 30
0.0
 11
9.3380337364911981
 21
-20.27267460346809
 31
0.0
  0
LINE
  5
B1
100
AcDbEntity
100
AcDbLine
  8
grabado linea medio
 62
256
370
-1
 48
1.0
  6
BYLAYER
 10
9.3469031508267975
 20
-20.317857101144668
 30
0.0
 11
9.3424752282262062
 21
-20.295253155026977
 31
0.0
  0
LINE
  5
B2
100
AcDbEntity
100
AcDbLine
  8
grabado linea medio
 62
256
370
-1
 48
1.0
  6
BYLAYER
 10
9.3513175042929788
 20
-20.340486441821156
 30
0.0
 11
9.3469031508267975
 21
-20.317857101144668
 31
0.0
  0
LINE
  5
B3
100
AcDbEntity
100
AcDbLine
  8
grabado linea medio
 62
256
370
-1
 48
1.0
  6
BYLAYER
 10
9.3557182886247361
 20
-20.363141177056441
 30
0.0
 11
9.3513175042929788
 21
-20.340486441821156
 31
0.0
  0
LINE
  5
B4
100
AcDbEntity
100
AcDbLine
  8
grabado linea medio
 62
256
370
-1
 48
1.0
  6
BYLAYER
 10
9.3601055038220871
 20
-20.385821306850488
 30
0.0
 11
9.3557182886247361
 21
-20.363141177056441
 31
0.0
  0
LINE
  5
B5
100
AcDbEntity
100
AcDbLine
  8
grabado linea medio
 62
256
370
-1
 48
1.0
  6
BYLAYER
 10
9.3644791498850068
 20
-20.408526831203361
 30
0.0
 11
9.3601055038220871
 21
-20.385821306850488
 31
0.0
  0
LINE
  5
B6
100
AcDbEntity
100
AcDbLine
  8
grabado linea medio
 62
256
370
-1
 48
1.0
  6
BYLAYER
 10
9.3688392268135274
 20
-20.431257750114987
 30
0.0
 11
9.3644791498850068
 21
-20.408526831203361
 31
0.0
  0
LINE
  5
B7
100
AcDbEntity
100
AcDbLine
  8
grabado linea medio
 62
256
370
-1
 48
1.0
  6
BYLAYER
 10
9.3731857346076168
 20
-20.454014063585419
 30
0.0
 11
9.3688392268135274
 21
-20.431257750114987
 31
0.0
  0
LINE
  5
B8
100
AcDbEntity
100
AcDbLine
  8
grabado linea medio
 62
256
370
-1
 48
1.0
  6
BYLAYER
 10
9.377518673267307
 20
-20.47679577161464
 30
0.0
 11
9.3731857346076168
 21
-20.454014063585419
 31
0.0
  0
LINE
  5
B9
100
AcDbEntity
100
AcDbLine
  8
grabado linea medio
 62
256
370
-1
 48
1.0
  6
BYLAYER
 10
9.3818380427925767
 20
-20.499602874202658
 30
0.0
 11
9.377518673267307
 21
-20.47679577161464
 31
0.0
  0
LINE
  5
BA
100
AcDbEntity
100
AcDbLine
  8
grabado linea medio
 62
256
370
-1
 48
1.0
  6
BYLAYER
 10
9.3861438431834365
 20
-20.522435371349459
 30
0.0
 11
9.3818380427925767
 21
-20.499602874202658
 31
0.0
  0
LINE
  5
BB
100
AcDbEntity
100
AcDbLine
  8
grabado linea medio
 62
256
370
-1
 48
1.0
  6
BYLAYER
 10
9.3904360744398687
 20
-20.545293263055051
 30
0.0
 11
9.3861438431834365
 21
-20.522435371349459
 31
0.0
  0
LINE
  5
BC
100
AcDbEntity
100
AcDbLine
  8
grabado linea medio
 62
256
370
-1
 48
1.0
  6
BYLAYER
 10
9.3947147365618875
 20
-20.568176549319439
 30
0.0
 11
9.3904360744398687
 21
-20.545293263055051
 31
0.0
  0
LINE
  5
BD
100
AcDbEntity
100
AcDbLine
  8
grabado linea medio
 62
256
370
-1
 48
1.0
  6
BYLAYER
 10
9.3989798295495071
 20
-20.591085230142603
 30
0.0
 11
9.3947147365618875
 21
-20.568176549319439
 31
0.0
  0
LINE
  5
BE
100
AcDbEntity
100
AcDbLine
  8
grabado linea medio
 62
256
370
-1
 48
1.0
  6
BYLAYER
 10
9.4032313534026954
 20
-20.614019305524572
 30
0.0
 11
9.3989798295495071
 21
-20.591085230142603
 31
0.0
  0
LINE
  5
BF
100
AcDbEntity
100
AcDbLine
  8
grabado linea medio
 62
256
370
-1
 48
1.0
  6
BYLAYER
 10
9.4074693081214669
 20
-20.63697877546533
 30
0.0
 11
9.4032313534026954
 21
-20.614019305524572
 31
0.0
  0
LINE
  5
C0
100
AcDbEntity
100
AcDbLine
  8
grabado linea medio
 62
256
370
-1
 48
1.0
  6
BYLAYER
 10
9.4116936937058284
 20
-20.659963639964865
 30
0.0
 11
9.4074693081214669
 21
-20.63697877546533
 31
0.0
  0
LINE
  5
C1
100
AcDbEntity
100
AcDbLine
  8
grabado linea medio
 62
256
370
-1
 48
1.0
  6
BYLAYER
 10
9.4159045101557766
 20
-20.682973899023203
 30
0.0
 11
9.4116936937058284
 21
-20.659963639964865
 31
0.0
  0
LINE
  5
C2
100
AcDbEntity
100
AcDbLine
  8
grabado linea medio
 62
256
370
-1
 48
1.0
  6
BYLAYER
 10
9.4201017574713077
 20
-20.706009552640339
 30
0.0
 11
9.4159045101557766
 21
-20.682973899023203
 31
0.0
  0
LINE
  5
C3
100
AcDbEntity
100
AcDbLine
  8
grabado linea medio
 62
256
370
-1
 48
1.0
  6
BYLAYER
 10
9.4242854356524148
 20
-20.72907060081625
 30
0.0
 11
9.4201017574713077
 21
-20.706009552640339
 31
0.0
  0
LINE
  5
C4
100
AcDbEntity
100
AcDbLine
  8
grabado linea medio
 62
256
370
-1
 48
1.0
  6
BYLAYER
 10
9.4284555446991263
 20
-20.752157043550959
 30
0.0
 11
9.4242854356524148
 21
-20.72907060081625
 31
0.0
  0
LINE
  5
C5
100
AcDbEntity
100
AcDbLine
  8
grabado linea medio
 62
256
370
-1
 48
1.0
  6
BYLAYER
 10
9.4326120846113959
 20
-20.775268880844457
 30
0.0
 11
9.4284555446991263
 21
-20.752157043550959
 31
0.0
  0
LINE
  5
C6
100
AcDbEntity
100
AcDbLine
  8
grabado linea medio
 62
256
370
-1
 48
1.0
  6
BYLAYER
 10
9.4367550553892663
 20
-20.798406112696739
 30
0.0
 11
9.4326120846113959
 21
-20.775268880844457
 31
0.0
  0
LINE
  5
C7
100
AcDbEntity
100
AcDbLine
  8
grabado linea medio
 62
256
370
-1
 48
1.0
  6
BYLAYER
 10
9.4408844570327268
 20
-20.821568739107818
 30
0.0
 11
9.4367550553892663
 21
-20.798406112696739
 31
0.0
  0
LINE
  5
C8
100
AcDbEntity
100
AcDbLine
  8
grabado linea medio
 62
256
370
-1
 48
1.0
  6
BYLAYER
 10
9.4450002895417562
 20
-20.844756760077686
 30
0.0
 11
9.4408844570327268
 21
-20.821568739107818
 31
0.0
  0
LINE
  5
C9
100
AcDbEntity
100
AcDbLine
  8
grabado linea medio
 62
256
370
-1
 48
1.0
  6
BYLAYER
 10
9.4491025529163792
 20
-20.867970175606338
 30
0.0
 11
9.4450002895417562
 21
-20.844756760077686
 31
0.0
  0
LINE
  5
CA
100
AcDbEntity
100
AcDbLine
  8
grabado linea medio
 62
256
370
-1
 48
1.0
  6
BYLAYER
 10
9.4531912471565889
 20
-20.891208985693787
 30
0.0
 11
9.4491025529163792
 21
-20.867970175606338
 31
0.0
  0
LINE
  5
CB
100
AcDbEntity
100
AcDbLine
  8
grabado linea medio
 62
256
370
-1
 48
1.0
  6
BYLAYER
 10
9.4572663722623744
 20
-20.914473190340026
 30
0.0
 11
9.4531912471565889
 21
-20.891208985693787
 31
0.0
  0
LINE
  5
CC
100
AcDbEntity
100
AcDbLine
  8
grabado linea medio
 62
256
370
-1
 48
1.0
  6
BYLAYER
 10
9.4613279282337466
 20
-20.937762789545047
 30
0.0
 11
9.4572663722623744
 21
-20.914473190340026
 31
0.0
  0
LINE
  5
CD
100
AcDbEntity
100
AcDbLine
  8
grabado linea medio
 62
256
370
-1
 48
1.0
  6
BYLAYER
 10
9.465375915070716
 20
-20.961077783308873
 30
0.0
 11
9.4613279282337466
 21
-20.937762789545047
 31
0.0
  0
LINE
  5
CE
100
AcDbEntity
100
AcDbLine
  8
grabado linea medio
 62
256
370
-1
 48
1.0
  6
BYLAYER
 10
9.4694103327732577
 20
-20.984418171631489
 30
0.0
 11
9.465375915070716
 21
-20.961077783308873
 31
0.0
  0
LINE
  5
CF
100
AcDbEntity
100
AcDbLine
  8
grabado linea medio
 62
256
370
-1
 48
1.0
  6
BYLAYER
 10
9.4734311813413861
 20
-21.007783954512888
 30
0.0
 11
9.4694103327732577
 21
-20.984418171631489
 31
0.0
  0
LINE
  5
D0
100
AcDbEntity
100
AcDbLine
  8
grabado linea medio
 62
256
370
-1
 48
1.0
  6
BYLAYER
 10
9.4774384607750974
 20
-21.03117513195307
 30
0.0
 11
9.4734311813413861
 21
-21.007783954512888
 31
0.0
  0
LINE
  5
D1
100
AcDbEntity
100
AcDbLine
  8
grabado linea medio
 62
256
370
-1
 48
1.0
  6
BYLAYER
 10
9.4814321710743954
 20
-21.054591703952063
 30
0.0
 11
9.4774384607750974
 21
-21.03117513195307
 31
0.0
  0
LINE
  5
D2
100
AcDbEntity
100
AcDbLine
  8
grabado linea medio
 62
256
370
-1
 48
1.0
  6
BYLAYER
 10
9.485412312239287
 20
-21.078033670509818
 30
0.0
 11
9.4814321710743954
 21
-21.054591703952063
 31
0.0
  0
LINE
  5
D3
100
AcDbEntity
100
AcDbLine
  8
grabado linea medio
 62
256
370
-1
 48
1.0
  6
BYLAYER
 10
9.4893788842697475
 20
-21.101501031626391
 30
0.0
 11
9.485412312239287
 21
-21.078033670509818
 31
0.0
  0
LINE
  5
D4
100
AcDbEntity
100
AcDbLine
  8
grabado linea medio
 62
256
370
-1
 48
1.0
  6
BYLAYER
 10
9.4933318871658088
 20
-21.12499378730174
 30
0.0
 11
9.4893788842697475
 21
-21.101501031626391
 31
0.0
  0
LINE
  5
D5
100
AcDbEntity
100
AcDbLine
  8
grabado linea medio
 62
256
370
-1
 48
1.0
  6
BYLAYER
 10
9.4972713209274389
 20
-21.148511937535886
 30
0.0
 11
9.4933318871658088
 21
-21.12499378730174
 31
0.0
  0
LINE
  5
D6
100
AcDbEntity
100
AcDbLine
  8
grabado linea medio
 62
256
370
-1
 48
1.0
  6
BYLAYER
 10
9.5011971855546591
 20
-21.172055482328808
 30
0.0
 11
9.4972713209274389
 21
-21.148511937535886
 31
0.0
  0
LINE
  5
D7
100
AcDbEntity
100
AcDbLine
  8
grabado linea medio
 62
256
370
-1
 48
1.0
  6
BYLAYER
 10
9.5051094810474659
 20
-21.195624421680527
 30
0.0
 11
9.5011971855546591
 21
-21.172055482328808
 31
0.0
  0
LINE
  5
D8
100
AcDbEntity
100
AcDbLine
  8
grabado linea medio
 62
256
370
-1
 48
1.0
  6
BYLAYER
 10
9.5090082074058557
 20
-21.219218755591051
 30
0.0
 11
9.5051094810474659
 21
-21.195624421680527
 31
0.0
  0
LINE
  5
D9
100
AcDbEntity
100
AcDbLine
  8
grabado linea medio
 62
256
370
-1
 48
1.0
  6
BYLAYER
 10
9.512893364629825
 20
-21.242838484060336
 30
0.0
 11
9.5090082074058557
 21
-21.219218755591051
 31
0.0
  0
LINE
  5
DA
100
AcDbEntity
100
AcDbLine
  8
grabado linea medio
 62
256
370
-1
 48
1.0
  6
BYLAYER
 10
9.5167649527193987
 20
-21.266483607088425
 30
0.0
 11
9.512893364629825
 21
-21.242838484060336
 31
0.0
  0
LINE
  5
DB
100
AcDbEntity
100
AcDbLine
  8
grabado linea medio
 62
256
370
-1
 48
1.0
  6
BYLAYER
 10
9.5206229716745341
 20
-21.290154124675318
 30
0.0
 11
9.5167649527193987
 21
-21.266483607088425
 31
0.0
  0
LINE
  5
DC
100
AcDbEntity
100
AcDbLine
  8
grabado linea medio
 62
256
370
-1
 48
1.0
  6
BYLAYER
 10
9.5244674214952667
 20
-21.313850036820988
 30
0.0
 11
9.5206229716745341
 21
-21.290154124675318
 31
0.0
  0
LINE
  5
DD
100
AcDbEntity
100
AcDbLine
  8
grabado linea medio
 62
256
370
-1
 48
1.0
  6
BYLAYER
 10
9.5282983021815753
 20
-21.337571343525447
 30
0.0
 11
9.5244674214952667
 21
-21.313850036820988
 31
0.0
  0
LINE
  5
DE
100
AcDbEntity
100
AcDbLine
  8
grabado linea medio
 62
256
370
-1
 48
1.0
  6
BYLAYER
 10
9.5321156137334739
 20
-21.361318044788696
 30
0.0
 11
9.5282983021815753
 21
-21.337571343525447
 31
0.0
  0
LINE
  5
DF
100
AcDbEntity
100
AcDbLine
  8
grabado linea medio
 62
256
370
-1
 48
1.0
  6
BYLAYER
 10
9.5359193561509557
 20
-21.38509014061075
 30
0.0
 11
9.5321156137334739
 21
-21.361318044788696
 31
0.0
  0
LINE
  5
E0
100
AcDbEntity
100
AcDbLine
  8
grabado linea medio
 62
256
370
-1
 48
1.0
  6
BYLAYER
 10
9.5397095294340275
 20
-21.408887630991593
 30
0.0
 11
9.5359193561509557
 21
-21.38509014061075
 31
0.0
  0
LINE
  5
E1
100
AcDbEntity
100
AcDbLine
  8
grabado linea medio
 62
256
370
-1
 48
1.0
  6
BYLAYER
 10
9.5434861335826753
 20
-21.432710515931213
 30
0.0
 11
9.5397095294340275
 21
-21.408887630991593
 31
0.0
  0
LINE
  5
E2
100
AcDbEntity
100
AcDbLine
  8
grabado linea medio
 62
256
370
-1
 48
1.0
  6
BYLAYER
 10
9.5472491685969167
 20
-21.456558795429622
 30
0.0
 11
9.5434861335826753
 21
-21.432710515931213
 31
0.0
  0
LINE
  5
E3
100
AcDbEntity
100
AcDbLine
  8
grabado linea medio
 62
256
370
-1
 48
1.0
  6
BYLAYER
 10
9.5509986344767341
 20
-21.480432469486828
 30
0.0
 11
9.5472491685969167
 21
-21.456558795429622
 31
0.0
  0
LINE
  5
E4
100
AcDbEntity
100
AcDbLine
  8
grabado linea medio
 62
256
370
-1
 48
1.0
  6
BYLAYER
 10
9.5547345312221381
 20
-21.504331538102818
 30
0.0
 11
9.5509986344767341
 21
-21.480432469486828
 31
0.0
  0
LINE
  5
E5
100
AcDbEntity
100
AcDbLine
  8
grabado linea medio
 62
256
370
-1
 48
1.0
  6
BYLAYER
 10
9.5584568588331251
 20
-21.528256001277605
 30
0.0
 11
9.5547345312221381
 21
-21.504331538102818
 31
0.0
  0
LINE
  5
E6
100
AcDbEntity
100
AcDbLine
  8
grabado linea medio
 62
256
370
-1
 48
1.0
  6
BYLAYER
 10
9.5621656173096952
 20
-21.552205859011174
 30
0.0
 11
9.5584568588331251
 21
-21.528256001277605
 31
0.0
  0
LINE
  5
E7
100
AcDbEntity
100
AcDbLine
  8
grabado linea medio
 62
256
370
-1
 48
1.0
  6
BYLAYER
 10
9.5658608066518553
 20
-21.576181111303548
 30
0.0
 11
9.5621656173096952
 21
-21.552205859011174
 31
0.0
  0
LINE
  5
E8
100
AcDbEntity
100
AcDbLine
  8
grabado linea medio
 62
256
370
-1
 48
1.0
  6
BYLAYER
 10
9.5695424268595985
 20
-21.600181758154712
 30
0.0
 11
9.5658608066518553
 21
-21.576181111303548
 31
0.0
  0
LINE
  5
E9
100
AcDbEntity
100
AcDbLine
  8
grabado linea medio
 62
256
370
-1
 48
1.0
  6
BYLAYER
 10
9.573210477932939
 20
-21.624207799564651
 30
0.0
 11
9.5695424268595985
 21
-21.600181758154712
 31
0.0
  0
LINE
  5
EA
100
AcDbEntity
100
AcDbLine
  8
grabado linea medio
 62
256
370
-1
 48
1.0
  6
BYLAYER
 10
9.5768649598718483
 20
-21.648259235533388
 30
0.0
 11
9.573210477932939
 21
-21.624207799564651
 31
0.0
  0
LINE
  5
EB
100
AcDbEntity
100
AcDbLine
  8
grabado linea medio
 62
256
370
-1
 48
1.0
  6
BYLAYER
 10
9.580505872676337
 20
-21.672336066060929
 30
0.0
 11
9.5768649598718483
 21
-21.648259235533388
 31
0.0
  0
LINE
  5
EC
100
AcDbEntity
100
AcDbLine
  8
grabado linea medio
 62
256
370
-1
 48
1.0
  6
BYLAYER
 10
9.5841332163464159
 20
-21.696438291147224
 30
0.0
 11
9.580505872676337
 21
-21.672336066060929
 31
0.0
  0
LINE
  5
ED
100
AcDbEntity
100
AcDbLine
  8
grabado linea medio
 62
256
370
-1
 48
1.0
  6
BYLAYER
 10
9.5877469908820885
 20
-21.720565910792338
 30
0.0
 11
9.5841332163464159
 21
-21.696438291147224
 31
0.0
  0
LINE
  5
EE
100
AcDbEntity
100
AcDbLine
  8
grabado linea medio
 62
256
370
-1
 48
1.0
  6
BYLAYER
 10
9.5913471962833441
 20
-21.744718924996228
 30
0.0
 11
9.5877469908820885
 21
-21.720565910792338
 31
0.0
  0
LINE
  5
EF
100
AcDbEntity
100
AcDbLine
  8
grabado linea medio
 62
256
370
-1
 48
1.0
  6
BYLAYER
 10
9.5949338325501756
 20
-21.768897333758929
 30
0.0
 11
9.5913471962833441
 21
-21.744718924996228
 31
0.0
  0
LINE
  5
F0
100
AcDbEntity
100
AcDbLine
  8
grabado linea medio
 62
256
370
-1
 48
1.0
  6
BYLAYER
 10
9.5985068996825973
 20
-21.793101137080399
 30
0.0
 11
9.5949338325501756
 21
-21.768897333758929
 31
0.0
  0
LINE
  5
F1
100
AcDbEntity
100
AcDbLine
  8
grabado linea medio
 62
256
370
-1
 48
1.0
  6
BYLAYER
 10
9.6020663976805949
 20
-21.81733033496068
 30
0.0
 11
9.5985068996825973
 21
-21.793101137080399
 31
0.0
  0
LINE
  5
F2
100
AcDbEntity
100
AcDbLine
  8
grabado linea medio
 62
256
370
-1
 48
1.0
  6
BYLAYER
 10
9.6056123265441862
 20
-21.84158492739973
 30
0.0
 11
9.6020663976805949
 21
-21.81733033496068
 31
0.0
  0
LINE
  5
F3
100
AcDbEntity
100
AcDbLine
  8
grabado linea medio
 62
256
370
-1
 48
1.0
  6
BYLAYER
 10
9.6091446862733569
 20
-21.865864914397577
 30
0.0
 11
9.6056123265441862
 21
-21.84158492739973
 31
0.0
  0
LINE
  5
F4
100
AcDbEntity
100
AcDbLine
  8
grabado linea medio
 62
256
370
-1
 48
1.0
  6
BYLAYER
 10
9.6126634768681285
 20
-21.890170295954213
 30
0.0
 11
9.6091446862733569
 21
-21.865864914397577
 31
0.0
  0
LINE
  5
F5
100
AcDbEntity
100
AcDbLine
  8
grabado linea medio
 62
256
370
-1
 48
1.0
  6
BYLAYER
 10
9.6161686983284653
 20
-21.914501072069633
 30
0.0
 11
9.6126634768681285
 21
-21.890170295954213
 31
0.0
  0
LINE
  5
F6
100
AcDbEntity
100
AcDbLine
  8
grabado linea medio
 62
256
370
-1
 48
1.0
  6
BYLAYER
 10
9.6196603506543958
 20
-21.938857242743858
 30
0.0
 11
9.6161686983284653
 21
-21.914501072069633
 31
0.0
  0
LINE
  5
F7
100
AcDbEntity
100
AcDbLine
  8
grabado linea medio
 62
256
370
-1
 48
1.0
  6
BYLAYER
 10
9.6231384338459058
 20
-21.963238807976886
 30
0.0
 11
9.6196603506543958
 21
-21.938857242743858
 31
0.0
  0
LINE
  5
F8
100
AcDbEntity
100
AcDbLine
  8
grabado linea medio
 62
256
370
-1
 48
1.0
  6
BYLAYER
 10
9.6266029479029953
 20
-21.98764576776869
 30
0.0
 11
9.6231384338459058
 21
-21.963238807976886
 31
0.0
  0
LINE
  5
F9
100
AcDbEntity
100
AcDbLine
  8
grabado linea medio
 62
256
370
-1
 48
1.0
  6
BYLAYER
 10
9.6300538928256785
 20
-22.01207812211927
 30
0.0
 11
9.6266029479029953
 21
-21.98764576776869
 31
0.0
  0
LINE
  5
FA
100
AcDbEntity
100
AcDbLine
  8
grabado linea medio
 62
256
370
-1
 48
1.0
  6
BYLAYER
 10
9.6334912686139447
 20
-22.036535871028647
 30
0.0
 11
9.6300538928256785
 21
-22.01207812211927
 31
0.0
  0
LINE
  5
FB
100
AcDbEntity
100
AcDbLine
  8
grabado linea medio
 62
256
370
-1
 48
1.0
  6
BYLAYER
 10
9.6369150752677974
 20
-22.061019014496814
 30
0.0
 11
9.6334912686139447
 21
-22.036535871028647
 31
0.0
  0
LINE
  5
FC
100
AcDbEntity
100
AcDbLine
  8
grabado linea medio
 62
256
370
-1
 48
1.0
  6
BYLAYER
 10
9.6403253127872262
 20
-22.085527552523793
 30
0.0
 11
9.6369150752677974
 21
-22.061019014496814
 31
0.0
  0
LINE
  5
FD
100
AcDbEntity
100
AcDbLine
  8
grabado linea medio
 62
256
370
-1
 48
1.0
  6
BYLAYER
 10
9.6437219811722557
 20
-22.110061485109533
 30
0.0
 11
9.6403253127872262
 21
-22.085527552523793
 31
0.0
  0
LINE
  5
FE
100
AcDbEntity
100
AcDbLine
  8
grabado linea medio
 62
256
370
-1
 48
1.0
  6
BYLAYER
 10
9.647105080422854
 20
-22.134620812254077
 30
0.0
 11
9.6437219811722557
 21
-22.110061485109533
 31
0.0
  0
LINE
  5
FF
100
AcDbEntity
100
AcDbLine
  8
grabado linea medio
 62
256
370
-1
 48
1.0
  6
BYLAYER
 10
9.650474610539046
 20
-22.159205533957412
 30
0.0
 11
9.647105080422854
 21
-22.134620812254077
 31
0.0
  0
LINE
  5
100
100
AcDbEntity
100
AcDbLine
  8
grabado linea medio
 62
256
370
-1
 48
1.0
  6
BYLAYER
 10
9.6538305715208175
 20
-22.183815650219536
 30
0.0
 11
9.650474610539046
 21
-22.159205533957412
 31
0.0
  0
LINE
  5
101
100
AcDbEntity
100
AcDbLine
  8
grabado linea medio
 62
256
370
-1
 48
1.0
  6
BYLAYER
 10
9.6571729633681755
 20
-22.20845116104045
 30
0.0
 11
9.6538305715208175
 21
-22.183815650219536
 31
0.0
  0
LINE
  5
102
100
AcDbEntity
100
AcDbLine
  8
grabado linea medio
 62
256
370
-1
 48
1.0
  6
BYLAYER
 10
9.6605017860811166
 20
-22.233112066420148
 30
0.0
 11
9.6571729633681755
 21
-22.20845116104045
 31
0.0
  0
LINE
  5
103
100
AcDbEntity
100
AcDbLine
  8
grabado linea medio
 62
256
370
-1
 48
1.0
  6
BYLAYER
 10
9.6638170396596479
 20
-22.257798366358628
 30
0.0
 11
9.6605017860811166
 21
-22.233112066420148
 31
0.0
  0
LINE
  5
104
100
AcDbEntity
100
AcDbLine
  8
grabado linea medio
 62
256
370
-1
 48
1.0
  6
BYLAYER
 10
9.6671187241037586
 20
-22.282510060855927
 30
0.0
 11
9.6638170396596479
 21
-22.257798366358628
 31
0.0
  0
LINE
  5
105
100
AcDbEntity
100
AcDbLine
  8
grabado linea medio
 62
256
370
-1
 48
1.0
  6
BYLAYER
 10
9.6704068394134559
 20
-22.307247149911994
 30
0.0
 11
9.6671187241037586
 21
-22.282510060855927
 31
0.0
  0
LINE
  5
106
100
AcDbEntity
100
AcDbLine
  8
grabado linea medio
 62
256
370
-1
 48
1.0
  6
BYLAYER
 10
9.6736813855887362
 20
-22.332009633526859
 30
0.0
 11
9.6704068394134559
 21
-22.307247149911994
 31
0.0
  0
LINE
  5
107
100
AcDbEntity
100
AcDbLine
  8
grabado linea medio
 62
256
370
-1
 48
1.0
  6
BYLAYER
 10
9.6769423626295961
 20
-22.356797511700513
 30
0.0
 11
9.6736813855887362
 21
-22.332009633526859
 31
0.0
  0
LINE
  5
108
100
AcDbEntity
100
AcDbLine
  8
grabado linea medio
 62
256
370
-1
 48
1.0
  6
BYLAYER
 10
9.680189770536046
 20
-22.381610784432972
 30
0.0
 11
9.6769423626295961
 21
-22.356797511700513
 31
0.0
  0
LINE
  5
109
100
AcDbEntity
100
AcDbLine
  8
grabado linea medio
 62
256
370
-1
 48
1.0
  6
BYLAYER
 10
9.683423609308079
 20
-22.406449451724193
 30
0.0
 11
9.680189770536046
 21
-22.381610784432972
 31
0.0
  0
LINE
  5
10A
100
AcDbEntity
100
AcDbLine
  8
grabado linea medio
 62
256
370
-1
 48
1.0
  6
BYLAYER
 10
9.686643878945695
 20
-22.431313513574231
 30
0.0
 11
9.683423609308079
 21
-22.406449451724193
 31
0.0
  0
LINE
  5
10B
100
AcDbEntity
100
AcDbLine
  8
grabado linea medio
 62
256
370
-1
 48
1.0
  6
BYLAYER
 10
9.6898505794489083
 20
-22.456202969983039
 30
0.0
 11
9.686643878945695
 21
-22.431313513574231
 31
0.0
  0
LINE
  5
10C
100
AcDbEntity
100
AcDbLine
  8
grabado linea medio
 62
256
370
-1
 48
1.0
  6
BYLAYER
 10
9.6930437108176974
 20
-22.481117820950651
 30
0.0
 11
9.6898505794489083
 21
-22.456202969983039
 31
0.0
  0
LINE
  5
10D
100
AcDbEntity
100
AcDbLine
  8
grabado linea medio
 62
256
370
-1
 48
1.0
  6
BYLAYER
 10
9.6962232730520661
 20
-22.506058066477046
 30
0.0
 11
9.6930437108176974
 21
-22.481117820950651
 31
0.0
  0
LINE
  5
10E
100
AcDbEntity
100
AcDbLine
  8
grabado linea medio
 62
256
370
-1
 48
1.0
  6
BYLAYER
 10
9.6993892661520178
 20
-22.53102370656223
 30
0.0
 11
9.6962232730520661
 21
-22.506058066477046
 31
0.0
  0
LINE
  5
10F
100
AcDbEntity
100
AcDbLine
  8
grabado linea medio
 62
256
370
-1
 48
1.0
  6
BYLAYER
 10
9.7025416901175667
 20
-22.556014741206205
 30
0.0
 11
9.6993892661520178
 21
-22.53102370656223
 31
0.0
  0
LINE
  5
110
100
AcDbEntity
100
AcDbLine
  8
grabado linea medio
 62
256
370
-1
 48
1.0
  6
BYLAYER
 10
9.7056805449486845
 20
-22.581031170408977
 30
0.0
 11
9.7025416901175667
 21
-22.556014741206205
 31
0.0
  0
LINE
  5
111
100
AcDbEntity
100
AcDbLine
  8
grabado linea medio
 62
256
370
-1
 48
1.0
  6
BYLAYER
 10
9.7088058306454066
 20
-22.606072994170525
 30
0.0
 11
9.7056805449486845
 21
-22.581031170408977
 31
0.0
  0
LINE
  5
112
100
AcDbEntity
100
AcDbLine
  8
grabado linea medio
 62
256
370
-1
 48
1.0
  6
BYLAYER
 10
9.7119175472076975
 20
-22.631140212490877
 30
0.0
 11
9.7088058306454066
 21
-22.606072994170525
 31
0.0
  0
LINE
  5
113
100
AcDbEntity
100
AcDbLine
  8
grabado linea medio
 62
256
370
-1
 48
1.0
  6
BYLAYER
 10
9.715015694635575
 20
-22.656232825370004
 30
0.0
 11
9.7119175472076975
 21
-22.631140212490877
 31
0.0
  0
LINE
  5
114
100
AcDbEntity
100
AcDbLine
  8
grabado linea medio
 62
256
370
-1
 48
1.0
  6
BYLAYER
 10
9.7181002729290462
 20
-22.681350832807937
 30
0.0
 11
9.715015694635575
 21
-22.656232825370004
 31
0.0
  0
LINE
  5
115
100
AcDbEntity
100
AcDbLine
  8
grabado linea medio
 62
256
370
-1
 48
1.0
  6
BYLAYER
 10
9.7211712820880862
 20
-22.706494234804673
 30
0.0
 11
9.7181002729290462
 21
-22.681350832807937
 31
0.0
  0
LINE
  5
116
100
AcDbEntity
100
AcDbLine
  8
grabado linea medio
 62
256
370
-1
 48
1.0
  6
BYLAYER
 10
9.724228722112727
 20
-22.731663031360164
 30
0.0
 11
9.7211712820880862
 21
-22.706494234804673
 31
0.0
  0
LINE
  5
117
100
AcDbEntity
100
AcDbLine
  8
grabado linea medio
 62
256
370
-1
 48
1.0
  6
BYLAYER
 10
9.7272725930029473
 20
-22.756857222474473
 30
0.0
 11
9.724228722112727
 21
-22.731663031360164
 31
0.0
  0
LINE
  5
118
100
AcDbEntity
100
AcDbLine
  8
grabado linea medio
 62
256
370
-1
 48
1.0
  6
BYLAYER
 10
9.7303028947587471
 20
-22.782076808147572
 30
0.0
 11
9.7272725930029473
 21
-22.756857222474473
 31
0.0
  0
LINE
  5
119
100
AcDbEntity
100
AcDbLine
  8
grabado linea medio
 62
256
370
-1
 48
1.0
  6
BYLAYER
 10
9.7333196273801263
 20
-22.807321788379447
 30
0.0
 11
9.7303028947587471
 21
-22.782076808147572
 31
0.0
  0
LINE
  5
11A
100
AcDbEntity
100
AcDbLine
  8
grabado linea medio
 62
256
370
-1
 48
1.0
  6
BYLAYER
 10
9.7363227908670957
 20
-22.832592163170112
 30
0.0
 11
9.7333196273801263
 21
-22.807321788379447
 31
0.0
  0
LINE
  5
11B
100
AcDbEntity
100
AcDbLine
  8
grabado linea medio
 62
256
370
-1
 48
1.0
  6
BYLAYER
 10
9.7393123852196553
 20
-22.857887932519567
 30
0.0
 11
9.7363227908670957
 21
-22.832592163170112
 31
0.0
  0
LINE
  5
11C
100
AcDbEntity
100
AcDbLine
  8
grabado linea medio
 62
256
370
-1
 48
1.0
  6
BYLAYER
 10
9.7422884104378085
 20
-22.883209096427819
 30
0.0
 11
9.7393123852196553
 21
-22.857887932519567
 31
0.0
  0
LINE
  5
11D
100
AcDbEntity
100
AcDbLine
  8
grabado linea medio
 62
256
370
-1
 48
1.0
  6
BYLAYER
 10
9.7452508665215269
 20
-22.908555654894862
 30
0.0
 11
9.7422884104378085
 21
-22.883209096427819
 31
0.0
  0
LINE
  5
11E
100
AcDbEntity
100
AcDbLine
  8
grabado linea medio
 62
256
370
-1
 48
1.0
  6
BYLAYER
 10
9.7481997534708356
 20
-22.933927607920687
 30
0.0
 11
9.7452508665215269
 21
-22.908555654894862
 31
0.0
  0
LINE
  5
11F
100
AcDbEntity
100
AcDbLine
  8
grabado linea medio
 62
256
370
-1
 48
1.0
  6
BYLAYER
 10
9.7511350712857272
 20
-22.959324955505309
 30
0.0
 11
9.7481997534708356
 21
-22.933927607920687
 31
0.0
  0
LINE
  5
120
100
AcDbEntity
100
AcDbLine
  8
grabado linea medio
 62
256
370
-1
 48
1.0
  6
BYLAYER
 10
9.754056819966209
 20
-22.984747697648729
 30
0.0
 11
9.7511350712857272
 21
-22.959324955505309
 31
0.0
  0
LINE
  5
121
100
AcDbEntity
100
AcDbLine
  8
grabado linea medio
 62
256
370
-1
 48
1.0
  6
BYLAYER
 10
9.7569649995122774
 20
-23.010195834350931
 30
0.0
 11
9.754056819966209
 21
-22.984747697648729
 31
0.0
  0
LINE
  5
122
100
AcDbEntity
100
AcDbLine
  8
grabado linea medio
 62
256
370
-1
 48
1.0
  6
BYLAYER
 10
9.7598596099239288
 20
-23.03566936561193
 30
0.0
 11
9.7569649995122774
 21
-23.010195834350931
 31
0.0
  0
LINE
  5
123
100
AcDbEntity
100
AcDbLine
  8
grabado linea medio
 62
256
370
-1
 48
1.0
  6
BYLAYER
 10
9.7627406512011561
 20
-23.061168291431706
 30
0.0
 11
9.7598596099239288
 21
-23.03566936561193
 31
0.0
  0
LINE
  5
124
100
AcDbEntity
100
AcDbLine
  8
grabado linea medio
 62
256
370
-1
 48
1.0
  6
BYLAYER
 10
9.7656081233439771
 20
-23.086692611810271
 30
0.0
 11
9.7627406512011561
 21
-23.061168291431706
 31
0.0
  0
LINE
  5
125
100
AcDbEntity
100
AcDbLine
  8
grabado linea medio
 62
256
370
-1
 48
1.0
  6
BYLAYER
 10
9.768462026352374
 20
-23.112242326747641
 30
0.0
 11
9.7656081233439771
 21
-23.086692611810271
 31
0.0
  0
LINE
  5
126
100
AcDbEntity
100
AcDbLine
  8
grabado linea medio
 62
256
370
-1
 48
1.0
  6
BYLAYER
 10
9.7713023602263647
 20
-23.1378174362438
 30
0.0
 11
9.768462026352374
 21
-23.112242326747641
 31
0.0
  0
LINE
  5
127
100
AcDbEntity
100
AcDbLine
  8
grabado linea medio
 62
256
370
-1
 48
1.0
  6
BYLAYER
 10
9.7741291249659383
 20
-23.163417940298736
 30
0.0
 11
9.7713023602263647
 21
-23.1378174362438
 31
0.0
  0
LINE
  5
128
100
AcDbEntity
100
AcDbLine
  8
grabado linea medio
 62
256
370
-1
 48
1.0
  6
BYLAYER
 10
9.776942320571095
 20
-23.189043838912468
 30
0.0
 11
9.7741291249659383
 21
-23.163417940298736
 31
0.0
  0
LINE
  5
129
100
AcDbEntity
100
AcDbLine
  8
grabado linea medio
 62
256
370
-1
 48
1.0
  6
BYLAYER
 10
9.7797419470418276
 20
-23.214695132084977
 30
0.0
 11
9.776942320571095
 21
-23.189043838912468
 31
0.0
  0
LINE
  5
12A
100
AcDbEntity
100
AcDbLine
  8
grabado linea medio
 62
256
370
-1
 48
1.0
  6
BYLAYER
 10
9.7825280043781575
 20
-23.240371819816311
 30
0.0
 11
9.7797419470418276
 21
-23.214695132084977
 31
0.0
  0
LINE
  5
12B
100
AcDbEntity
100
AcDbLine
  8
grabado linea medio
 62
256
370
-1
 48
1.0
  6
BYLAYER
 10
9.7853004925800668
 20
-23.266073902106406
 30
0.0
 11
9.7825280043781575
 21
-23.240371819816311
 31
0.0
  0
LINE
  5
12C
100
AcDbEntity
100
AcDbLine
  8
grabado linea medio
 62
256
370
-1
 48
1.0
  6
BYLAYER
 10
9.7880594116475592
 20
-23.291801378955306
 30
0.0
 11
9.7853004925800668
 21
-23.266073902106406
 31
0.0
  0
LINE
  5
12D
100
AcDbEntity
100
AcDbLine
  8
grabado linea medio
 62
256
370
-1
 48
1.0
  6
BYLAYER
 10
9.7908047615806382
 20
-23.317554250362988
 30
0.0
 11
9.7880594116475592
 21
-23.291801378955306
 31
0.0
  0
LINE
  5
12E
100
AcDbEntity
100
AcDbLine
  8
grabado linea medio
 62
256
370
-1
 48
1.0
  6
BYLAYER
 10
9.7935365423792966
 20
-23.343332516329475
 30
0.0
 11
9.7908047615806382
 21
-23.317554250362988
 31
0.0
  0
LINE
  5
12F
100
AcDbEntity
100
AcDbLine
  8
grabado linea medio
 62
256
370
-1
 48
1.0
  6
BYLAYER
 10
9.7962547540435452
 20
-23.369136176854731
 30
0.0
 11
9.7935365423792966
 21
-23.343332516329475
 31
0.0
  0
LINE
  5
130
100
AcDbEntity
100
AcDbLine
  8
grabado linea medio
 62
256
370
-1
 48
1.0
  6
BYLAYER
 10
9.7989593965733874
 20
-23.394965231938791
 30
0.0
 11
9.7962547540435452
 21
-23.369136176854731
 31
0.0
  0
LINE
  5
131
100
AcDbEntity
100
AcDbLine
  8
grabado linea medio
 62
256
370
-1
 48
1.0
  6
BYLAYER
 10
9.8016504699687985
 20
-23.420819681581641
 30
0.0
 11
9.7989593965733874
 21
-23.394965231938791
 31
0.0
  0
LINE
  5
132
100
AcDbEntity
100
AcDbLine
  8
grabado linea medio
 62
256
370
-1
 48
1.0
  6
BYLAYER
 10
9.8043279742297962
 20
-23.446699525783281
 30
0.0
 11
9.8016504699687985
 21
-23.420819681581641
 31
0.0
  0
LINE
  5
133
100
AcDbEntity
100
AcDbLine
  8
grabado linea medio
 62
256
370
-1
 48
1.0
  6
BYLAYER
 10
9.806991909356384
 20
-23.472604764543696
 30
0.0
 11
9.8043279742297962
 21
-23.446699525783281
 31
0.0
  0
LINE
  5
134
100
AcDbEntity
100
AcDbLine
  8
grabado linea medio
 62
256
370
-1
 48
1.0
  6
BYLAYER
 10
9.8096422753485584
 20
-23.498535397862931
 30
0.0
 11
9.806991909356384
 21
-23.472604764543696
 31
0.0
  0
LINE
  5
135
100
AcDbEntity
100
AcDbLine
  8
grabado linea medio
 62
256
370
-1
 48
1.0
  6
BYLAYER
 10
9.8122790722063087
 20
-23.524491425740926
 30
0.0
 11
9.8096422753485584
 21
-23.498535397862931
 31
0.0
  0
LINE
  5
136
100
AcDbEntity
100
AcDbLine
  8
grabado linea medio
 62
256
370
-1
 48
1.0
  6
BYLAYER
 10
9.8149022999296491
 20
-23.550472848177719
 30
0.0
 11
9.8122790722063087
 21
-23.524491425740926
 31
0.0
  0
LINE
  5
137
100
AcDbEntity
100
AcDbLine
  8
grabado linea medio
 62
256
370
-1
 48
1.0
  6
BYLAYER
 10
9.8175119585185762
 20
-23.576479665173316
 30
0.0
 11
9.8149022999296491
 21
-23.550472848177719
 31
0.0
  0
LINE
  5
138
100
AcDbEntity
100
AcDbLine
  8
grabado linea medio
 62
256
370
-1
 48
1.0
  6
BYLAYER
 10
9.8201080479730862
 20
-23.602511876727689
 30
0.0
 11
9.8175119585185762
 21
-23.576479665173316
 31
0.0
  0
LINE
  5
139
100
AcDbEntity
100
AcDbLine
  8
grabado linea medio
 62
256
370
-1
 48
1.0
  6
BYLAYER
 10
9.0780430181938669
 20
-19.091143739091009
 30
0.0
 11
9.0728552240660179
 21
-19.069961888265588
 31
0.0
  0
LINE
  5
13A
100
AcDbEntity
100
AcDbLine
  8
grabado linea medio
 62
256
370
-1
 48
1.0
  6
BYLAYER
 10
9.0832172431873062
 20
-19.112350984475228
 30
0.0
 11
9.0780430181938669
 21
-19.091143739091009
 31
0.0
  0
LINE
  5
13B
100
AcDbEntity
100
AcDbLine
  8
grabado linea medio
 62
256
370
-1
 48
1.0
  6
BYLAYER
 10
9.0883778990463355
 20
-19.13358362441825
 30
0.0
 11
9.0832172431873062
 21
-19.112350984475228
 31
0.0
  0
ARC
  5
13C
100
AcDbEntity
  8
Corte exterior
 62
256
370
-1
 48
1.0
  6
BYLAYER
100
AcDbCircle
 10
-12.963788157296005
 20
-9.5172987544730319
 30
0.0
 40
23.597464683077742
100
AcDbArc
 50
340.42223879426029
 51
345.61382110275088
  0
LINE
  5
13D
100
AcDbEntity
100
AcDbLine
  8
Corte exterior
 62
256
370
-1
 48
1.0
  6
BYLAYER
 10
9.0728552240660179
 20
-19.069961888265588
 30
0.0
 11
9.2694500822857471
 21
-17.424476307247538
 31
0.0
  0
LINE
  5
13E
100
AcDbEntity
100
AcDbLine
  8
0
 62
256
370
-1
 48
1.0
  6
BYLAYER
 10
40.879134720904467
 20
-18.870761499265818
 30
0.0
 11
46.547094834665828
 21
-18.870761499265811
 31
0.0
  0
ENDSEC
  0
SECTION
  2
OBJECTS
  0
DICTIONARY
  5
C
100
AcDbDictionary
280
0
281
1
  3
ACAD_GROUP
350
D
  3
ACAD_LAYOUT
350
1A
  3
ACAD_MLINESTYLE
350
17
  3
ACAD_PLOTSETTINGS
350
19
  3
ACAD_PLOTSTYLENAME
350
E
  3
AcDbVariableDictionary
350
13F
  3
QCAD_OBJECTS
350
140
  0
DICTIONARY
  5
D
100
AcDbDictionary
280
0
281
1
  0
ACDBDICTIONARYWDFLT
  5
E
100
AcDbDictionary
281
1
  3
Normal
350
F
100
AcDbDictionaryWithDefault
340
F
  0
ACDBPLACEHOLDER
  5
F
  0
DICTIONARY
  5
17
100
AcDbDictionary
280
0
281
1
  3
Standard
350
18
  0
MLINESTYLE
  5
18
100
AcDbMlineStyle
  2
STANDARD
 70
0
  3

 62
256
 51
90.0
 52
90.0
 71
2
 49
0.5
 62
256
  6
BYLAYER
 49
-0.5
 62
256
  6
BYLAYER
  0
DICTIONARY
  5
19
100
AcDbDictionary
280
0
281
1
  0
DICTIONARY
  5
1A
100
AcDbDictionary
281
1
  3
Layout1
350
1E
  3
Layout2
350
26
  3
Model
350
22
  0
LAYOUT
  5
1E
100
AcDbPlotSettings
  1

  2
none_device
  4

  6

 40
0.0
 41
0.0
 42
0.0
 43
0.0
 44
0.0
 45
0.0
 46
0.0
 47
0.0
 48
0.0
 49
0.0
140
0.0
141
0.0
142
1.0
143
1.0
 70
688
 72
0
 73
0
 74
5
  7

 75
16
147
1.0
148
0.0
149
0.0
100
AcDbLayout
  1
Layout1
 70
1
 71
1
 10
0.0
 20
0.0
 11
420.0
 21
297.0
 12
0.0
 22
0.0
 32
0.0
 14
100000000000000000000.0
 24
100000000000000000000.0
 34
100000000000000000000.0
 15
-100000000000000000000.0
 25
-100000000000000000000.0
 35
-100000000000000000000.0
146
0.0
 13
0.0
 23
0.0
 33
0.0
 16
1.0
 26
0.0
 36
0.0
 17
0.0
 27
1.0
 37
0.0
 76
0
330
1B
  0
LAYOUT
  5
22
100
AcDbPlotSettings
  1

  2
none_device
  4

  6

 40
0.0
 41
0.0
 42
0.0
 43
0.0
 44
0.0
 45
0.0
 46
0.0
 47
0.0
 48
0.0
 49
0.0
140
0.0
141
0.0
142
1.0
143
1.0
 70
1712
 72
0
 73
0
 74
0
  7

 75
0
147
1.0
148
0.0
149
0.0
100
AcDbLayout
  1
Model
 70
1
 71
0
 10
0.0
 20
0.0
 11
12.0
 21
9.0
 12
0.0
 22
0.0
 32
0.0
 14
0.0
 24
0.0
 34
0.0
 15
0.0
 25
0.0
 35
0.0
146
0.0
 13
0.0
 23
0.0
 33
0.0
 16
1.0
 26
0.0
 36
0.0
 17
0.0
 27
1.0
 37
0.0
 76
0
330
1F
  0
LAYOUT
  5
26
100
AcDbPlotSettings
  1

  2
none_device
  4

  6

 40
0.0
 41
0.0
 42
0.0
 43
0.0
 44
0.0
 45
0.0
 46
0.0
 47
0.0
 48
0.0
 49
0.0
140
0.0
141
0.0
142
1.0
143
1.0
 70
688
 72
0
 73
0
 74
5
  7

 75
16
147
1.0
148
0.0
149
0.0
100
AcDbLayout
  1
Layout2
 70
1
 71
2
 10
0.0
 20
0.0
 11
12.0
 21
9.0
 12
0.0
 22
0.0
 32
0.0
 14
0.0
 24
0.0
 34
0.0
 15
0.0
 25
0.0
 35
0.0
146
0.0
 13
0.0
 23
0.0
 33
0.0
 16
1.0
 26
0.0
 36
0.0
 17
0.0
 27
1.0
 37
0.0
 76
0
330
23
  0
DICTIONARY
  5
13F
100
AcDbDictionary
281
1
  3
DIMASSOC
350
142
  3
HIDETEXT
350
141
  0
DICTIONARYVAR
  5
141
100
DictionaryVariables
280
0
  1
2
  0
DICTIONARYVAR
  5
142
100
DictionaryVariables
280
0
  1
1
  0
DICTIONARY
  5
140
100
AcDbDictionary
281
1
  3
ColorSettings/BackgroundColor
350
143
  3
ColorSettings/ColorMode
350
144
  3
Grid/DisplayGrid00
350
145
  3
Grid/DisplayGrid01
350
146
  3
Grid/DisplayGrid02
350
147
  3
Grid/DisplayGrid03
350
148
  3
Grid/GridSpacingX00
350
149
  3
Grid/GridSpacingX01
350
14A
  3
Grid/GridSpacingX02
350
14B
  3
Grid/GridSpacingX03
350
14C
  3
Grid/GridSpacingY00
350
14D
  3
Grid/GridSpacingY01
350
14E
  3
Grid/GridSpacingY02
350
14F
  3
Grid/GridSpacingY03
350
150
  3
Grid/IsometricGrid00
350
151
  3
Grid/IsometricGrid01
350
152
  3
Grid/IsometricGrid02
350
153
  3
Grid/IsometricGrid03
350
154
  3
Grid/IsometricProjection00
350
155
  3
Grid/IsometricProjection01
350
156
  3
Grid/IsometricProjection02
350
157
  3
Grid/IsometricProjection03
350
158
  3
Grid/MetaGridSpacingX00
350
159
  3
Grid/MetaGridSpacingX01
350
15A
  3
Grid/MetaGridSpacingX02
350
15B
  3
Grid/MetaGridSpacingX03
350
15C
  3
Grid/MetaGridSpacingY00
350
15D
  3
Grid/MetaGridSpacingY01
350
15E
  3
Grid/MetaGridSpacingY02
350
15F
  3
Grid/MetaGridSpacingY03
350
160
  3
MultiPageSettings/Columns
350
161
  3
MultiPageSettings/GlueMarginsBottom
350
162
  3
MultiPageSettings/GlueMarginsLeft
350
163
  3
MultiPageSettings/GlueMarginsRight
350
164
  3
MultiPageSettings/GlueMarginsTop
350
165
  3
MultiPageSettings/PrintCropMarks
350
166
  3
MultiPageSettings/Rows
350
167
  3
PageSettings/OffsetX
350
168
  3
PageSettings/OffsetY
350
169
  3
PageSettings/PageOrientation
350
16A
  3
PageSettings/PaperHeight
350
16B
  3
PageSettings/PaperWidth
350
16C
  3
PageSettings/Scale
350
16D
  3
PageSettings/ShowPaperBorders
350
16E
  3
QCADVersion
350
16F
  3
UnitSettings/PaperUnit
350
170
  3
ViewportCenter
350
171
  3
ViewportHeight
350
172
  3
ViewportWidth
350
173
  0
XRECORD
  5
143
330
140
100
AcDbXrecord
280
1
1000
White
  0
XRECORD
  5
144
330
140
100
AcDbXrecord
280
1
1000
FullColor
  0
XRECORD
  5
145
330
140
100
AcDbXrecord
280
1
290
1
  0
XRECORD
  5
146
330
140
100
AcDbXrecord
280
1
290
1
  0
XRECORD
  5
147
330
140
100
AcDbXrecord
280
1
290
1
  0
XRECORD
  5
148
330
140
100
AcDbXrecord
280
1
290
1
  0
XRECORD
  5
149
330
140
100
AcDbXrecord
280
1
1000
auto
  0
XRECORD
  5
14A
330
140
100
AcDbXrecord
280
1
1000
auto
  0
XRECORD
  5
14B
330
140
100
AcDbXrecord
280
1
1000
auto
  0
XRECORD
  5
14C
330
140
100
AcDbXrecord
280
1
1000
auto
  0
XRECORD
  5
14D
330
140
100
AcDbXrecord
280
1
1000
auto
  0
XRECORD
  5
14E
330
140
100
AcDbXrecord
280
1
1000
auto
  0
XRECORD
  5
14F
330
140
100
AcDbXrecord
280
1
1000
auto
  0
XRECORD
  5
150
330
140
100
AcDbXrecord
280
1
1000
auto
  0
XRECORD
  5
151
330
140
100
AcDbXrecord
280
1
290
0
  0
XRECORD
  5
152
330
140
100
AcDbXrecord
280
1
290
0
  0
XRECORD
  5
153
330
140
100
AcDbXrecord
280
1
290
0
  0
XRECORD
  5
154
330
140
100
AcDbXrecord
280
1
290
0
  0
XRECORD
  5
155
330
140
100
AcDbXrecord
280
1
 90
0
  0
XRECORD
  5
156
330
140
100
AcDbXrecord
280
1
 90
0
  0
XRECORD
  5
157
330
140
100
AcDbXrecord
280
1
 90
0
  0
XRECORD
  5
158
330
140
100
AcDbXrecord
280
1
 90
0
  0
XRECORD
  5
159
330
140
100
AcDbXrecord
280
1
1000
auto
  0
XRECORD
  5
15A
330
140
100
AcDbXrecord
280
1
1000
auto
  0
XRECORD
  5
15B
330
140
100
AcDbXrecord
280
1
1000
auto
  0
XRECORD
  5
15C
330
140
100
AcDbXrecord
280
1
1000
auto
  0
XRECORD
  5
15D
330
140
100
AcDbXrecord
280
1
1000
auto
  0
XRECORD
  5
15E
330
140
100
AcDbXrecord
280
1
1000
auto
  0
XRECORD
  5
15F
330
140
100
AcDbXrecord
280
1
1000
auto
  0
XRECORD
  5
160
330
140
100
AcDbXrecord
280
1
1000
auto
  0
XRECORD
  5
161
330
140
100
AcDbXrecord
280
1
 90
1
  0
XRECORD
  5
162
330
140
100
AcDbXrecord
280
1
 40
10.0
  0
XRECORD
  5
163
330
140
100
AcDbXrecord
280
1
 40
10.0
  0
XRECORD
  5
164
330
140
100
AcDbXrecord
280
1
 40
10.0
  0
XRECORD
  5
165
330
140
100
AcDbXrecord
280
1
 40
10.0
  0
XRECORD
  5
166
330
140
100
AcDbXrecord
280
1
290
0
  0
XRECORD
  5
167
330
140
100
AcDbXrecord
280
1
 90
1
  0
XRECORD
  5
168
330
140
100
AcDbXrecord
280
1
 40
0.0
  0
XRECORD
  5
169
330
140
100
AcDbXrecord
280
1
 40
0.0
  0
XRECORD
  5
16A
330
140
100
AcDbXrecord
280
1
1000
Portrait
  0
XRECORD
  5
16B
330
140
100
AcDbXrecord
280
1
 40
279.39999999999998
  0
XRECORD
  5
16C
330
140
100
AcDbXrecord
280
1
 40
215.90000000000001
  0
XRECORD
  5
16D
330
140
100
AcDbXrecord
280
1
1000
1:1
  0
XRECORD
  5
16E
330
140
100
AcDbXrecord
280
1
290
1
  0
XRECORD
  5
16F
330
140
100
AcDbXrecord
280
1
1000
3.15.2
  0
XRECORD
  5
170
330
140
100
AcDbXrecord
280
1
 90
4
  0
XRECORD
  5
172
330
140
100
AcDbXrecord
280
1
 40
21.757395833264894
  0
XRECORD
  5
173
330
140
100
AcDbXrecord
280
1
 40
46.369103496141285
  0
ENDSEC
  0
EOF
