999
dxflib 3.12.2.0
  0
SECTION
  2
HEADER
  9
$ACADVER
  1
AC1015
  9
$HANDSEED
  5
FFFF
  9
$ANGBASE
 50
0.0
  9
$ANGDIR
 70
0
  9
$ATTMODE
 70
1
  9
$AUNITS
 70
0
  9
$AUPREC
 70
0
  9
$CECOLOR
 62
256
  9
$CELTSCALE
 40
1.0
  9
$CHAMFERA
 40
0.0
  9
$CHAMFERB
 40
0.0
  9
$CHAMFERC
 40
0.0
  9
$CHAMFERD
 40
0.0
  9
$CMLJUST
 70
0
  9
$CMLSCALE
 40
1.0
  9
$DIMADEC
 70
0
  9
$DIMALT
 70
0
  9
$DIMALTD
 70
3
  9
$DIMALTF
 40
0.03937007874016
  9
$DIMALTRND
 40
0.0
  9
$DIMALTTD
 70
2
  9
$DIMALTTZ
 70
0
  9
$DIMALTU
 70
2
  9
$DIMALTZ
 70
0
  9
$DIMAPOST
  1

  9
$DIMASZ
 40
2.5
  9
$DIMATFIT
 70
3
  9
$DIMAUNIT
 70
0
  9
$DIMAZIN
 70
0
  9
$DIMBLK
  1

  9
$DIMBLK1
  1

  9
$DIMBLK2
  1

  9
$DIMCEN
 40
2.5
  9
$DIMCLRD
 70
0
  9
$DIMCLRE
 70
0
  9
$DIMCLRT
 70
0
  9
$DIMDEC
 70
4
  9
$DIMDLE
 40
0.0
  9
$DIMDLI
 40
3.75
  9
$DIMDSEP
 70
46
  9
$DIMEXE
 40
1.25
  9
$DIMEXO
 40
0.625
  9
$DIMFRAC
 70
0
  9
$DIMGAP
 40
0.625
  9
$DIMJUST
 70
0
  9
$DIMLDRBLK
  1

  9
$DIMLFAC
 40
1.0
  9
$DIMLIM
 70
0
  9
$DIMLUNIT
 70
2
  9
$DIMLWD
 70
-2
  9
$DIMLWE
 70
-2
  9
$DIMPOST
  1

  9
$DIMRND
 40
0.0
  9
$DIMSAH
 70
0
  9
$DIMSCALE
 40
1.0
  9
$DIMSD1
 70
0
  9
$DIMSD2
 70
0
  9
$DIMSE1
 70
0
  9
$DIMSE2
 70
0
  9
$DIMSOXD
 70
0
  9
$DIMTAD
 70
1
  9
$DIMTDEC
 70
4
  9
$DIMTFAC
 40
1.0
  9
$DIMTIH
 70
1
  9
$DIMTIX
 70
0
  9
$DIMTM
 40
0.0
  9
$DIMTOFL
 70
0
  9
$DIMTOH
 70
1
  9
$DIMTOL
 70
0
  9
$DIMTOLJ
 70
1
  9
$DIMTP
 40
0.0
  9
$DIMTSZ
 40
0.0
  9
$DIMTVP
 40
0.0
  9
$DIMTXSTY
  7
Standard
  9
$DIMTXT
 40
2.5
  9
$DIMTZIN
 70
0
  9
$DIMUPT
 70
0
  9
$DIMZIN
 70
8
  9
$DISPSILH
 70
0
  9
$DWGCODEPAGE
  3
ANSI_1252
  9
$ELEVATION
 40
0.0
  9
$EXTMAX
 10
149.0
 20
158.76732448150941
 30
0.0
  9
$EXTMIN
 10
0.0
 20
0.0
 30
0.0
  9
$FILLETRAD
 40
5.0
  9
$FILLMODE
 70
1
  9
$INSBASE
 10
0.0
 20
0.0
 30
0.0
  9
$INSUNITS
 70
0
  9
$LIMCHECK
 70
0
  9
$LIMMAX
 10
420.0
 20
297.0
  9
$LIMMIN
 10
0.0
 20
0.0
  9
$LTSCALE
 40
1.0
  9
$LUNITS
 70
2
  9
$LUPREC
 70
4
  9
$MAXACTVP
 70
2
  9
$MEASUREMENT
 70
0
  9
$MIRRTEXT
 70
0
  9
$ORTHOMODE
 70
0
  9
$PDMODE
 70
0
  9
$PDSIZE
 40
0
  9
$PELEVATION
 40
0.0
  9
$PEXTMAX
 10
9.9287257582933517
 20
7.5991666710079731
 30
0.0000000349246037
  9
$PEXTMIN
 10
1.049636599258094
 20
0.3333892899584683
 30
-0.0015258207003583
  9
$PINSBASE
 10
0.0
 20
0.0
 30
0.0
  9
$PLIMCHECK
 70
0
  9
$PLIMMAX
 10
10.75
 20
8.25
  9
$PLIMMIN
 10
-0.25
 20
-0.25
  9
$PLINEGEN
 70
0
  9
$PLINEWID
 40
0.0
  9
$PROXYGRAPHICS
 70
1
  9
$PSLTSCALE
 70
1
  9
$PUCSNAME
  2

  9
$PUCSORG
 10
0.0
 20
0.0
 30
0.0
  9
$PUCSXDIR
 10
1.0
 20
0.0
 30
0.0
  9
$PUCSYDIR
 10
0.0
 20
1.0
 30
0.0
  9
$QTEXTMODE
 70
0
  9
$REGENMODE
 70
1
  9
$SHADEDGE
 70
3
  9
$SHADEDIF
 70
70
  9
$SKETCHINC
 40
1.0
  9
$SKPOLY
 70
0
  9
$SPLFRAME
 70
0
  9
$SPLINESEGS
 70
8
  9
$SPLINETYPE
 70
6
  9
$SURFTAB1
 70
6
  9
$SURFTAB2
 70
6
  9
$SURFTYPE
 70
6
  9
$SURFU
 70
6
  9
$SURFV
 70
6
  9
$TEXTSIZE
 40
2.5
  9
$TEXTSTYLE
  7
Standard
  9
$THICKNESS
 40
0.0
  9
$TILEMODE
 70
1
  9
$TRACEWID
 40
1.0
  9
$TREEDEPTH
 70
3020
  9
$UCSNAME
  2

  9
$UCSORG
 10
0.0
 20
0.0
 30
0.0
  9
$UCSXDIR
 10
1.0
 20
0.0
 30
0.0
  9
$UCSYDIR
 10
0.0
 20
1.0
 30
0.0
  9
$UNITMODE
 70
0
  9
$USERI1
 70
0
  9
$USERI2
 70
0
  9
$USERI3
 70
0
  9
$USERI4
 70
0
  9
$USERI5
 70
0
  9
$USERR1
 40
0.0
  9
$USERR2
 40
0.0
  9
$USERR3
 40
0.0
  9
$USERR4
 40
0.0
  9
$USERR5
 40
0.0
  9
$USRTIMER
 70
1
  9
$VISRETAIN
 70
1
  0
ENDSEC
  0
SECTION
  2
TABLES
  0
TABLE
  2
VPORT
  5
8
100
AcDbSymbolTable
 70
1
  0
VPORT
  5
30
100
AcDbSymbolTableRecord
100
AcDbViewportTableRecord
  2
*Active
 70
0
 10
0.0
 20
0.0
 11
1.0
 21
1.0
 12
286.30555555555549
 22
148.5
 13
0.0
 23
0.0
 14
10.0
 24
10.0
 15
10.0
 25
10.0
 16
0.0
 26
0.0
 36
1.0
 17
0.0
 27
0.0
 37
0.0
 40
297.0
 41
1.92798353909465
 42
50.0
 43
0.0
 44
0.0
 50
0.0
 51
0.0
 71
0
 72
100
 73
1
 74
3
 75
1
 76
1
 77
0
 78
0
281
0
 65
1
110
0.0
120
0.0
130
0.0
111
1.0
121
0.0
131
0.0
112
0.0
122
1.0
132
0.0
 79
0
146
0.0
  0
ENDTAB
  0
TABLE
  2
LTYPE
  5
5
100
AcDbSymbolTable
 70
50
  0
LTYPE
  5
16
100
AcDbSymbolTableRecord
100
AcDbLinetypeTableRecord
  2
Continuous
 70
0
  3
Solid line
 72
65
 73
0
 40
0.0
  0
LTYPE
  5
31
100
AcDbSymbolTableRecord
100
AcDbLinetypeTableRecord
  2
ACAD_ISO15W100
 70
0
  3
ISO double-dash triple-dot __ __ . . . __ __ . .
 72
65
 73
10
 40
39.000000000000007
 49
12.0
 74
0
 49
-3.0
 74
0
 49
12.0
 74
0
 49
-2.9500000000000002
 74
0
 49
0.1
 74
0
 49
-2.8999999999999999
 74
0
 49
0.1
 74
0
 49
-2.8999999999999999
 74
0
 49
0.1
 74
0
 49
-2.9500000000000002
 74
0
  0
LTYPE
  5
32
100
AcDbSymbolTableRecord
100
AcDbLinetypeTableRecord
  2
HOT_WATER_SUPPLY
 70
0
  3
Hot water supply ---- HW ---- HW ---- HW ----
 72
65
 73
3
 40
22.859999999999999
 49
12.699999999999999
 74
0
 49
-5.0800000000000001
 74
0
 49
-5.0800000000000001
 74
0
  0
LTYPE
  5
33
100
AcDbSymbolTableRecord
100
AcDbLinetypeTableRecord
  2
DIVIDE
 70
0
  3
Divide ____ . . ____ . . ____ . . ____ . . ____
 72
65
 73
6
 40
31.749999999999989
 49
12.699999999999999
 74
0
 49
-6.2999999999999972
 74
0
 49
0.1
 74
0
 49
-6.249999999999992
 74
0
 49
0.1
 74
0
 49
-6.2999999999999972
 74
0
  0
LTYPE
  5
34
100
AcDbSymbolTableRecord
100
AcDbLinetypeTableRecord
  2
ACAD_ISO10W100
 70
0
  3
ISO dash dot __ . __ . __ . __ . __ . __ . __ . 
 72
65
 73
4
 40
18.0
 49
12.0
 74
0
 49
-2.9500000000000002
 74
0
 49
0.1
 74
0
 49
-2.9500000000000002
 74
0
  0
LTYPE
  5
35
100
AcDbSymbolTableRecord
100
AcDbLinetypeTableRecord
  2
GAS_LINE
 70
0
  3
Gas line ----GAS----GAS----GAS----GAS----GAS----GAS--
 72
65
 73
3
 40
24.129999999999999
 49
12.699999999999999
 74
0
 49
-5.0800000000000001
 74
0
 49
-6.349999999999997
 74
0
  0
LTYPE
  5
36
100
AcDbSymbolTableRecord
100
AcDbLinetypeTableRecord
  2
ACAD_ISO04W100
 70
0
  3
ISO long-dash dot ____ . ____ . ____ . ____ . _
 72
65
 73
4
 40
30.0
 49
24.0
 74
0
 49
-2.9500000000000002
 74
0
 49
0.1
 74
0
 49
-2.9500000000000002
 74
0
  0
LTYPE
  5
14
100
AcDbSymbolTableRecord
100
AcDbLinetypeTableRecord
  2
ByBlock
 70
0
  3

 72
65
 73
0
 40
0.0
  0
LTYPE
  5
37
100
AcDbSymbolTableRecord
100
AcDbLinetypeTableRecord
  2
CENTER2
 70
0
  3
Center (.5x) ___ _ ___ _ ___ _ ___ _ ___ _ ___
 72
65
 73
4
 40
28.574999999999992
 49
19.050000000000001
 74
0
 49
-3.174999999999998
 74
0
 49
3.174999999999998
 74
0
 49
-3.174999999999998
 74
0
  0
LTYPE
  5
38
100
AcDbSymbolTableRecord
100
AcDbLinetypeTableRecord
  2
ACAD_ISO11W100
 70
0
  3
ISO double-dash dot __ __ . __ __ . __ __ . __ _
 72
65
 73
6
 40
33.0
 49
12.0
 74
0
 49
-3.0
 74
0
 49
12.0
 74
0
 49
-2.9500000000000002
 74
0
 49
0.1
 74
0
 49
-2.9500000000000002
 74
0
  0
LTYPE
  5
39
100
AcDbSymbolTableRecord
100
AcDbLinetypeTableRecord
  2
HIDDEN2
 70
0
  3
Hidden (.5x) _ _ _ _ _ _ _ _ _ _ _ _ _ _ _ _ _ 
 72
65
 73
2
 40
4.7624999999999975
 49
3.174999999999998
 74
0
 49
-1.587499999999999
 74
0
  0
LTYPE
  5
3A
100
AcDbSymbolTableRecord
100
AcDbLinetypeTableRecord
  2
BORDERX2
 70
0
  3
Border (2x) ____  ____  .  ____  ____  .  ___
 72
65
 73
6
 40
88.899999999999991
 49
25.399999999999999
 74
0
 49
-12.699999999999999
 74
0
 49
25.399999999999999
 74
0
 49
-12.65
 74
0
 49
0.1
 74
0
 49
-12.65
 74
0
  0
LTYPE
  5
3B
100
AcDbSymbolTableRecord
100
AcDbLinetypeTableRecord
  2
ACAD_ISO05W100
 70
0
  3
ISO long-dash double-dot ____ .. ____ .. ____ . 
 72
65
 73
6
 40
33.0
 49
24.0
 74
0
 49
-2.9500000000000002
 74
0
 49
0.1
 74
0
 49
-2.8999999999999999
 74
0
 49
0.1
 74
0
 49
-2.9500000000000002
 74
0
  0
LTYPE
  5
3C
100
AcDbSymbolTableRecord
100
AcDbLinetypeTableRecord
  2
DASHDOTX2
 70
0
  3
Dash dot (2x) ____  .  ____  .  ____  .  ___
 72
65
 73
4
 40
50.799999999999997
 49
25.399999999999999
 74
0
 49
-12.65
 74
0
 49
0.1
 74
0
 49
-12.65
 74
0
  0
LTYPE
  5
3D
100
AcDbSymbolTableRecord
100
AcDbLinetypeTableRecord
  2
HIDDENX2
 70
0
  3
Hidden (2x) ____ ____ ____ ____ ____ ____ ____ 
 72
65
 73
2
 40
19.049999999999997
 49
12.699999999999999
 74
0
 49
-6.349999999999997
 74
0
  0
LTYPE
  5
3E
100
AcDbSymbolTableRecord
100
AcDbLinetypeTableRecord
  2
CENTERX2
 70
0
  3
Center (2x) ________  __  ________  __  _____
 72
65
 73
4
 40
101.60000000000001
 49
63.5
 74
0
 49
-12.699999999999999
 74
0
 49
12.699999999999999
 74
0
 49
-12.699999999999999
 74
0
  0
LTYPE
  5
3F
100
AcDbSymbolTableRecord
100
AcDbLinetypeTableRecord
  2
BORDER2
 70
0
  3
Border (.5x) __.__.__.__.__.__.__.__.__.__.__.
 72
65
 73
6
 40
22.224999999999987
 49
6.349999999999997
 74
0
 49
-3.174999999999998
 74
0
 49
6.349999999999997
 74
0
 49
-3.124999999999996
 74
0
 49
0.1
 74
0
 49
-3.124999999999996
 74
0
  0
LTYPE
  5
40
100
AcDbSymbolTableRecord
100
AcDbLinetypeTableRecord
  2
DASHDOT2
 70
0
  3
Dash dot (.5x) _._._._._._._._._._._._._._._.
 72
65
 73
4
 40
12.699999999999989
 49
6.349999999999997
 74
0
 49
-3.124999999999996
 74
0
 49
0.1
 74
0
 49
-3.124999999999996
 74
0
  0
LTYPE
  5
41
100
AcDbSymbolTableRecord
100
AcDbLinetypeTableRecord
  2
ACAD_ISO12W100
 70
0
  3
ISO dash double-dot __ . . __ . . __ . . __ . . 
 72
65
 73
6
 40
21.0
 49
12.0
 74
0
 49
-2.9500000000000002
 74
0
 49
0.1
 74
0
 49
-2.8999999999999999
 74
0
 49
0.1
 74
0
 49
-2.9500000000000002
 74
0
  0
LTYPE
  5
42
100
AcDbSymbolTableRecord
100
AcDbLinetypeTableRecord
  2
ACAD_ISO07W100
 70
0
  3
ISO dot . . . . . . . . . . . . . . . . . . . . 
 72
65
 73
2
 40
3.0
 49
0.1
 74
0
 49
-2.8999999999999999
 74
0
  0
LTYPE
  5
43
100
AcDbSymbolTableRecord
100
AcDbLinetypeTableRecord
  2
ACAD_ISO06W100
 70
0
  3
ISO long-dash triple-dot ____ ... ____ ... ____
 72
65
 73
8
 40
36.000000000000007
 49
24.0
 74
0
 49
-2.9500000000000002
 74
0
 49
0.1
 74
0
 49
-2.8999999999999999
 74
0
 49
0.1
 74
0
 49
-2.8999999999999999
 74
0
 49
0.1
 74
0
 49
-2.9500000000000002
 74
0
  0
LTYPE
  5
44
100
AcDbSymbolTableRecord
100
AcDbLinetypeTableRecord
  2
CENTER
 70
0
  3
Center ____ _ ____ _ ____ _ ____ _ ____ _ ____
 72
65
 73
4
 40
50.799999999999983
 49
31.75
 74
0
 49
-6.349999999999997
 74
0
 49
6.349999999999997
 74
0
 49
-6.349999999999997
 74
0
  0
LTYPE
  5
45
100
AcDbSymbolTableRecord
100
AcDbLinetypeTableRecord
  2
HIDDEN
 70
0
  3
Hidden __ __ __ __ __ __ __ __ __ __ __ __ __ __
 72
65
 73
2
 40
9.524999999999995
 49
6.349999999999997
 74
0
 49
-3.174999999999998
 74
0
  0
LTYPE
  5
46
100
AcDbSymbolTableRecord
100
AcDbLinetypeTableRecord
  2
DOTX2
 70
0
  3
Dot (2x) .  .  .  .  .  .  .  .  .  .  .  .  .  .
 72
65
 73
2
 40
12.699999999999999
 49
0.1
 74
0
 49
-12.6
 74
0
  0
LTYPE
  5
47
100
AcDbSymbolTableRecord
100
AcDbLinetypeTableRecord
  2
PHANTOM
 70
0
  3
Phantom ______  __  __  ______  __  __  ______ 
 72
65
 73
6
 40
63.499999999999972
 49
31.75
 74
0
 49
-6.349999999999997
 74
0
 49
6.349999999999997
 74
0
 49
-6.349999999999997
 74
0
 49
6.349999999999997
 74
0
 49
-6.349999999999997
 74
0
  0
LTYPE
  5
48
100
AcDbSymbolTableRecord
100
AcDbLinetypeTableRecord
  2
ACAD_ISO08W100
 70
0
  3
ISO long-dash short-dash ____ __ ____ __ ____ _
 72
65
 73
4
 40
36.0
 49
24.0
 74
0
 49
-3.0
 74
0
 49
6.0
 74
0
 49
-3.0
 74
0
  0
LTYPE
  5
49
100
AcDbSymbolTableRecord
100
AcDbLinetypeTableRecord
  2
DASHEDX2
 70
0
  3
Dashed (2x) ____  ____  ____  ____  ____  ___
 72
65
 73
2
 40
38.099999999999994
 49
25.399999999999999
 74
0
 49
-12.699999999999999
 74
0
  0
LTYPE
  5
4A
100
AcDbSymbolTableRecord
100
AcDbLinetypeTableRecord
  2
DRAINAGE
 70
0
  3
Drainage ---->---->---->----
 72
65
 73
2
 40
10.16
 49
5.0800000000000001
 74
0
 49
5.0800000000000001
 74
0
  0
LTYPE
  5
4B
100
AcDbSymbolTableRecord
100
AcDbLinetypeTableRecord
  2
ACAD_ISO02W100
 70
0
  3
ISO dash __ __ __ __ __ __ __ __ __ __ __ __ __
 72
65
 73
2
 40
15.0
 49
12.0
 74
0
 49
-3.0
 74
0
  0
LTYPE
  5
4C
100
AcDbSymbolTableRecord
100
AcDbLinetypeTableRecord
  2
PHANTOM2
 70
0
  3
Phantom (.5x) ___ _ _ ___ _ _ ___ _ _ ___ _ _
 72
65
 73
6
 40
31.749999999999986
 49
15.875
 74
0
 49
-3.174999999999998
 74
0
 49
3.174999999999998
 74
0
 49
-3.174999999999998
 74
0
 49
3.174999999999998
 74
0
 49
-3.174999999999998
 74
0
  0
LTYPE
  5
4D
100
AcDbSymbolTableRecord
100
AcDbLinetypeTableRecord
  2
DASHED2
 70
0
  3
Dashed (.5x) _ _ _ _ _ _ _ _ _ _ _ _ _ _ _ _ _ 
 72
65
 73
2
 40
9.524999999999995
 49
6.349999999999997
 74
0
 49
-3.174999999999998
 74
0
  0
LTYPE
  5
4E
100
AcDbSymbolTableRecord
100
AcDbLinetypeTableRecord
  2
ACAD_ISO09W100
 70
0
  3
ISO long-dash double-short-dash ____ __ __ ____
 72
65
 73
6
 40
45.0
 49
24.0
 74
0
 49
-3.0
 74
0
 49
6.0
 74
0
 49
-3.0
 74
0
 49
6.0
 74
0
 49
-3.0
 74
0
  0
LTYPE
  5
4F
100
AcDbSymbolTableRecord
100
AcDbLinetypeTableRecord
  2
ACAD_ISO13W100
 70
0
  3
ISO double-dash double-dot __ __ . . __ __ . . _
 72
65
 73
8
 40
36.000000000000007
 49
12.0
 74
0
 49
-3.0
 74
0
 49
12.0
 74
0
 49
-2.9500000000000002
 74
0
 49
0.1
 74
0
 49
-2.8999999999999999
 74
0
 49
0.1
 74
0
 49
-2.9500000000000002
 74
0
  0
LTYPE
  5
50
100
AcDbSymbolTableRecord
100
AcDbLinetypeTableRecord
  2
TRACKS
 70
0
  3
Tracks -|-|-|-|-|-|-|-|-|-|-|-|-|-|-|-|-|-|-|-|-|-|-|-|-
 72
65
 73
2
 40
7.6200000000000001
 49
3.8100000000000001
 74
0
 49
3.8100000000000001
 74
0
  0
LTYPE
  5
51
100
AcDbSymbolTableRecord
100
AcDbLinetypeTableRecord
  2
DRAINAGE2
 70
0
  3
Drainage reversed----<----<----<----
 72
65
 73
2
 40
10.16
 49
5.0800000000000001
 74
0
 49
5.0800000000000001
 74
0
  0
LTYPE
  5
52
100
AcDbSymbolTableRecord
100
AcDbLinetypeTableRecord
  2
DOT2
 70
0
  3
Dot (.5x) ........................................
 72
65
 73
2
 40
3.174999999999998
 49
0.1
 74
0
 49
-3.074999999999998
 74
0
  0
LTYPE
  5
53
100
AcDbSymbolTableRecord
100
AcDbLinetypeTableRecord
  2
ZIGZAG
 70
0
  3
Zig zag /\/\/\/\/\/\/\/\/\/\/\/\/\/\/\/\/\/\/\/\/\/\/\/
 72
65
 73
4
 40
20.32254
 49
0.00254
 74
0
 49
-5.0800000000000001
 74
0
 49
-10.16
 74
0
 49
-5.0800000000000001
 74
0
  0
LTYPE
  5
54
100
AcDbSymbolTableRecord
100
AcDbLinetypeTableRecord
  2
DASHED
 70
0
  3
Dashed __ __ __ __ __ __ __ __ __ __ __ __ __ _
 72
65
 73
2
 40
19.049999999999997
 49
12.699999999999999
 74
0
 49
-6.349999999999997
 74
0
  0
LTYPE
  5
55
100
AcDbSymbolTableRecord
100
AcDbLinetypeTableRecord
  2
ACAD_ISO14W100
 70
0
  3
ISO dash triple-dot __ . . . __ . . . __ . . . _
 72
65
 73
8
 40
24.0
 49
12.0
 74
0
 49
-2.9500000000000002
 74
0
 49
0.1
 74
0
 49
-2.8999999999999999
 74
0
 49
0.1
 74
0
 49
-2.8999999999999999
 74
0
 49
0.1
 74
0
 49
-2.9500000000000002
 74
0
  0
LTYPE
  5
56
100
AcDbSymbolTableRecord
100
AcDbLinetypeTableRecord
  2
PHANTOMX2
 70
0
  3
Phantom (2x) ____________    ____    ____   _
 72
65
 73
6
 40
127.00000000000001
 49
63.5
 74
0
 49
-12.699999999999999
 74
0
 49
12.699999999999999
 74
0
 49
-12.699999999999999
 74
0
 49
12.699999999999999
 74
0
 49
-12.699999999999999
 74
0
  0
LTYPE
  5
57
100
AcDbSymbolTableRecord
100
AcDbLinetypeTableRecord
  2
DIVIDEX2
 70
0
  3
Divide (2x) ________  .  .  ________  .  .  _
 72
65
 73
6
 40
63.5
 49
25.399999999999999
 74
0
 49
-12.65
 74
0
 49
0.1
 74
0
 49
-12.6
 74
0
 49
0.1
 74
0
 49
-12.65
 74
0
  0
LTYPE
  5
58
100
AcDbSymbolTableRecord
100
AcDbLinetypeTableRecord
  2
BORDER
 70
0
  3
Border __ __ . __ __ . __ __ . __ __ . __ __ .
 72
65
 73
6
 40
44.449999999999996
 49
12.699999999999999
 74
0
 49
-6.349999999999997
 74
0
 49
12.699999999999999
 74
0
 49
-6.2999999999999972
 74
0
 49
0.1
 74
0
 49
-6.2999999999999972
 74
0
  0
LTYPE
  5
59
100
AcDbSymbolTableRecord
100
AcDbLinetypeTableRecord
  2
DIVIDE2
 70
0
  3
Divide (.5x) __..__..__..__..__..__..__..__.._
 72
65
 73
6
 40
15.874999999999986
 49
6.349999999999997
 74
0
 49
-3.124999999999996
 74
0
 49
0.1
 74
0
 49
-3.074999999999998
 74
0
 49
0.1
 74
0
 49
-3.124999999999996
 74
0
  0
LTYPE
  5
5A
100
AcDbSymbolTableRecord
100
AcDbLinetypeTableRecord
  2
DOT
 70
0
  3
Dot . . . . . . . . . . . . . . . . . . . . . . . .
 72
65
 73
2
 40
6.3499999999999917
 49
0.1
 74
0
 49
-6.249999999999992
 74
0
  0
LTYPE
  5
5B
100
AcDbSymbolTableRecord
100
AcDbLinetypeTableRecord
  2
DASHDOT
 70
0
  3
Dash dot __ . __ . __ . __ . __ . __ . __ . __
 72
65
 73
4
 40
25.399999999999995
 49
12.699999999999999
 74
0
 49
-6.2999999999999972
 74
0
 49
0.1
 74
0
 49
-6.2999999999999972
 74
0
  0
LTYPE
  5
5C
100
AcDbSymbolTableRecord
100
AcDbLinetypeTableRecord
  2
FENCELINE1
 70
0
  3
Fenceline circle ----0-----0----0-----0----0-----0--
 72
65
 73
4
 40
36.829999999999998
 49
6.349999999999997
 74
0
 49
-2.54
 74
0
 49
-2.54
 74
0
 49
25.399999999999999
 74
0
  0
LTYPE
  5
5D
100
AcDbSymbolTableRecord
100
AcDbLinetypeTableRecord
  2
BATTING
 70
0
  3
Batting SSSSSSSSSSSSSSSSSSSSSSSSSSSSSSSSSSSSSSSSSSSSSSS
 72
65
 73
4
 40
10.16254
 49
0.00254
 74
0
 49
-2.54
 74
0
 49
-5.0800000000000001
 74
0
 49
-2.54
 74
0
  0
LTYPE
  5
5E
100
AcDbSymbolTableRecord
100
AcDbLinetypeTableRecord
  2
ACAD_ISO03W100
 70
0
  3
ISO dash space __    __    __    __    __    __
 72
65
 73
2
 40
30.0
 49
12.0
 74
0
 49
-18.0
 74
0
  0
LTYPE
  5
15
100
AcDbSymbolTableRecord
100
AcDbLinetypeTableRecord
  2
ByLayer
 70
0
  3

 72
65
 73
0
 40
0.0
  0
LTYPE
  5
5F
100
AcDbSymbolTableRecord
100
AcDbLinetypeTableRecord
  2
FENCELINE2
 70
0
  3
Fenceline square ----[]-----[]----[]-----[]----[]---
 72
65
 73
4
 40
36.829999999999998
 49
6.349999999999997
 74
0
 49
-2.54
 74
0
 49
-2.54
 74
0
 49
25.399999999999999
 74
0
  0
ENDTAB
  0
TABLE
  2
LAYER
  5
2
100
AcDbSymbolTable
 70
4
  0
LAYER
  5
60
100
AcDbSymbolTableRecord
100
AcDbLayerTableRecord
  2
grabado linea medio
 70
0
 62
3
420
65280
  6
Continuous
370
-3
390
F
  0
LAYER
  5
61
100
AcDbSymbolTableRecord
100
AcDbLayerTableRecord
  2
mesa de trabajo y auxiliares
 70
0
 62
7
420
16777215
  6
Continuous
370
-3
390
F
  0
LAYER
  5
62
100
AcDbSymbolTableRecord
100
AcDbLayerTableRecord
  2
Corte exterior
 70
0
 62
1
420
16711680
  6
Continuous
370
-3
390
F
  0
LAYER
  5
10
100
AcDbSymbolTableRecord
100
AcDbLayerTableRecord
  2
0
 70
0
 62
7
420
16777215
  6
Continuous
370
-3
390
F
  0
ENDTAB
  0
TABLE
  2
STYLE
  5
3
100
AcDbSymbolTable
 70
1
  0
STYLE
  5
63
100
AcDbSymbolTableRecord
100
AcDbTextStyleTableRecord
  2
Standard
 70
0
 40
0.0
 41
1.0
 50
0.0
 71
0
 42
2.5
  3

  4

1001
ACAD
1000
txt
1071
0
  0
ENDTAB
  0
TABLE
  2
VIEW
  5
6
100
AcDbSymbolTable
 70
0
  0
ENDTAB
  0
TABLE
  2
UCS
  5
7
100
AcDbSymbolTable
 70
0
  0
ENDTAB
  0
TABLE
  2
APPID
  5
9
100
AcDbSymbolTable
 70
1
  0
APPID
  5
12
100
AcDbSymbolTableRecord
100
AcDbRegAppTableRecord
  2
ACAD
 70
0
  0
APPID
  5
64
100
AcDbSymbolTableRecord
100
AcDbRegAppTableRecord
  2
QCAD
 70
0
  0
ENDTAB
  0
TABLE
  2
DIMSTYLE
  5
A
100
AcDbSymbolTable
 70
1
100
AcDbDimStyleTable
 71
0
  0
DIMSTYLE
105
27
100
AcDbSymbolTableRecord
100
AcDbDimStyleTableRecord
  2
Standard
 41
2.5
 42
0.625
 43
3.75
 44
1.25
 70
0
 73
0
 74
0
 77
1
 78
8
140
2.5
141
2.5
143
0.03937007874016
147
0.625
171
3
172
1
271
2
272
2
274
3
278
44
283
0
284
8
340
63
  0
ENDTAB
  0
TABLE
  2
BLOCK_RECORD
  5
1
100
AcDbSymbolTable
 70
1
  0
BLOCK_RECORD
  5
1F
100
AcDbSymbolTableRecord
100
AcDbBlockTableRecord
  2
*Model_Space
340
22
  0
BLOCK_RECORD
  5
1B
100
AcDbSymbolTableRecord
100
AcDbBlockTableRecord
  2
*Paper_Space
340
1E
  0
BLOCK_RECORD
  5
23
100
AcDbSymbolTableRecord
100
AcDbBlockTableRecord
  2
*Paper_Space0
340
26
  0
BLOCK_RECORD
  5
65
100
AcDbSymbolTableRecord
100
AcDbBlockTableRecord
  2
A$C32B96BB9
340
0
  0
BLOCK_RECORD
  5
66
100
AcDbSymbolTableRecord
100
AcDbBlockTableRecord
  2
$PAPER_SPACE
340
0
  0
BLOCK_RECORD
  5
67
100
AcDbSymbolTableRecord
100
AcDbBlockTableRecord
  2
$MODEL_SPACE
340
0
  0
ENDTAB
  0
ENDSEC
  0
SECTION
  2
BLOCKS
  0
BLOCK
  5
20
100
AcDbEntity
  8
0
100
AcDbBlockBegin
  2
*Model_Space
 70
0
 10
0.0
 20
0.0
 30
0.0
  3
*Model_Space
  1

  0
ENDBLK
  5
21
100
AcDbEntity
  8
0
100
AcDbBlockEnd
  0
BLOCK
  5
1C
100
AcDbEntity
 67
1
  8
0
100
AcDbBlockBegin
  2
*Paper_Space
 70
0
 10
0.0
 20
0.0
 30
0.0
  3
*Paper_Space
  1

  0
ENDBLK
  5
1D
100
AcDbEntity
 67
1
  8
0
100
AcDbBlockEnd
  0
BLOCK
  5
24
100
AcDbEntity
  8
0
100
AcDbBlockBegin
  2
*Paper_Space0
 70
0
 10
0.0
 20
0.0
 30
0.0
  3
*Paper_Space0
  1

  0
ENDBLK
  5
25
100
AcDbEntity
  8
0
100
AcDbBlockEnd
  0
BLOCK
  5
68
100
AcDbEntity
  8
0
100
AcDbBlockBegin
  2
A$C32B96BB9
 70
0
 10
0.0
 20
0.0
 30
0.0
  3
A$C32B96BB9
  1

  0
ENDBLK
  5
69
100
AcDbEntity
  8
0
100
AcDbBlockEnd
  0
BLOCK
  5
6A
100
AcDbEntity
  8
0
100
AcDbBlockBegin
  2
$PAPER_SPACE
 70
0
 10
0.0
 20
0.0
 30
0.0
  3
$PAPER_SPACE
  1

  0
ENDBLK
  5
6B
100
AcDbEntity
  8
0
100
AcDbBlockEnd
  0
BLOCK
  5
6C
100
AcDbEntity
  8
0
100
AcDbBlockBegin
  2
$MODEL_SPACE
 70
0
 10
0.0
 20
0.0
 30
0.0
  3
$MODEL_SPACE
  1

  0
ENDBLK
  5
6D
100
AcDbEntity
  8
0
100
AcDbBlockEnd
  0
ENDSEC
  0
SECTION
  2
ENTITIES
  0
CIRCLE
  5
6E
100
AcDbEntity
100
AcDbCircle
  8
0
 62
256
370
-1
 48
1.0
  6
ByLayer
 10
20.501257456827862
 20
124.54642009993779
 30
0.0
 40
8.0
  0
CIRCLE
  5
6F
100
AcDbEntity
100
AcDbCircle
  8
0
 62
256
370
-1
 48
1.0
  6
ByLayer
 10
46.501257456827844
 20
124.54642009993779
 30
0.0
 40
8.0
  0
CIRCLE
  5
70
100
AcDbEntity
100
AcDbCircle
  8
Corte exterior
 62
256
370
-1
 48
1.0
  6
ByLayer
 10
107.5
 20
54.5
 30
0.0
 40
5.0
  0
LINE
  5
71
100
AcDbEntity
100
AcDbLine
  8
mesa de trabajo y auxiliares
 62
256
370
-1
 48
1.0
  6
ByLayer
 10
0.0
 20
160.0
 30
0.0
 11
0.0
 21
0.0
 31
0.0
  0
LINE
  5
72
100
AcDbEntity
100
AcDbLine
  8
mesa de trabajo y auxiliares
 62
256
370
-1
 48
1.0
  6
ByLayer
 10
150.0
 20
160.0
 30
0.0
 11
0.0
 21
160.0
 31
0.0
  0
LINE
  5
73
100
AcDbEntity
100
AcDbLine
  8
mesa de trabajo y auxiliares
 62
256
370
-1
 48
1.0
  6
ByLayer
 10
150.0
 20
0.0
 30
0.0
 11
150.0
 21
160.0
 31
0.0
  0
LINE
  5
74
100
AcDbEntity
100
AcDbLine
  8
mesa de trabajo y auxiliares
 62
256
370
-1
 48
1.0
  6
ByLayer
 10
0.0
 20
0.0
 30
0.0
 11
150.0
 21
0.0
 31
0.0
  0
LINE
  5
75
100
AcDbEntity
100
AcDbLine
  8
mesa de trabajo y auxiliares
 62
256
370
-1
 48
1.0
  6
ACAD_ISO02W100
 10
1.0
 20
159.0
 30
0.0
 11
1.0
 21
1.0
 31
0.0
  0
LINE
  5
76
100
AcDbEntity
100
AcDbLine
  8
mesa de trabajo y auxiliares
 62
256
370
-1
 48
1.0
  6
ACAD_ISO02W100
 10
149.0
 20
159.0
 30
0.0
 11
1.0
 21
159.0
 31
0.0
  0
LINE
  5
77
100
AcDbEntity
100
AcDbLine
  8
mesa de trabajo y auxiliares
 62
256
370
-1
 48
1.0
  6
ACAD_ISO02W100
 10
149.0
 20
1.0
 30
0.0
 11
149.0
 21
159.0
 31
0.0
  0
LINE
  5
78
100
AcDbEntity
100
AcDbLine
  8
mesa de trabajo y auxiliares
 62
256
370
-1
 48
1.0
  6
ACAD_ISO02W100
 10
1.0
 20
1.0
 30
0.0
 11
149.0
 21
1.0
 31
0.0
  0
LINE
  5
79
100
AcDbEntity
100
AcDbLine
  8
0
 62
256
370
-1
 48
1.0
  6
ByLayer
 10
25.774121299951631
 20
90.315020150516432
 30
0.0
 11
27.51124879580059
 21
94.220578134920274
 31
0.0
  0
LINE
  5
7A
100
AcDbEntity
100
AcDbLine
  8
0
 62
256
370
-1
 48
1.0
  6
ByLayer
 10
0.0000000000000107
 20
10.024376837881988
 30
0.0
 11
0.0000000000000107
 21
10.024376837881988
 31
0.0
  0
ARC
  5
7B
100
AcDbEntity
  8
0
 62
256
370
-1
 48
1.0
  6
ByLayer
100
AcDbCircle
 10
12.71225197863002
 20
44.050222125108363
 30
0.0
 40
8.5493536940663901
100
AcDbArc
 50
70.483319104104723
 51
81.078147152373361
  0
ARC
  5
7C
100
AcDbEntity
  8
0
 62
256
370
-1
 48
1.0
  6
ByLayer
100
AcDbCircle
 10
53.528902966359126
 20
49.754192816151061
 30
0.0
 40
7.9937055139568702
100
AcDbArc
 50
98.312106335406554
 51
102.7695890103557
  0
ELLIPSE
  5
7D
100
AcDbEntity
100
AcDbEllipse
  8
0
 62
256
370
-1
 48
1.0
  6
ByLayer
 10
33.519725765310241
 20
122.37640422231887
 30
0.0
 11
0.0000000000000013
 21
20.993502528716011
 31
0.0
 40
0.7692307692307691
 41
2.5915736826632498
 42
3.6908042889876413
  0
ARC
  5
7E
100
AcDbEntity
  8
0
 62
256
370
-1
 48
1.0
  6
ByLayer
100
AcDbCircle
 10
21.93092666325629
 20
77.239348599064201
 30
0.0
 40
9.9456273710943908
100
AcDbArc
 50
238.06935588884568
 51
243.53381683162661
  0
ARC
  5
7F
100
AcDbEntity
  8
0
 62
256
370
-1
 48
1.0
  6
ByLayer
100
AcDbCircle
 10
21.992662999757492
 20
77.279884432520333
 30
0.0
 40
10.0094980833378
100
AcDbArc
 50
350.93162283013322
 51
357.42328101808641
  0
ARC
  5
80
100
AcDbEntity
  8
0
 62
256
370
-1
 48
1.0
  6
ByLayer
100
AcDbCircle
 10
45.006208472778297
 20
77.280977460724628
 30
0.0
 40
10.0094980833378
100
AcDbArc
 50
296.68456784988172
 51
302.16404317993874
  0
ARC
  5
81
100
AcDbEntity
  8
0
 62
256
370
-1
 48
1.0
  6
ByLayer
100
AcDbCircle
 10
45.006208472778297
 20
77.280977460724628
 30
0.0
 40
10.0094980833378
100
AcDbArc
 50
185.98708512884528
 51
189.07381969527171
  0
LINE
  5
82
100
AcDbEntity
100
AcDbLine
  8
Corte exterior
 62
256
370
-1
 48
1.0
  6
ByLayer
 10
107.2999999728431
 20
125.200011325888
 30
0.0
 11
120.1393821534035
 21
125.20000783885411
 31
0.0
  0
LINE
  5
83
100
AcDbEntity
100
AcDbLine
  8
Corte exterior
 62
256
370
-1
 48
1.0
  6
ByLayer
 10
94.565128569661695
 20
125.2000147847112
 30
0.0
 11
107.2999999728431
 21
125.200011325888
 31
0.0
  0
ARC
  5
84
100
AcDbEntity
  8
0
 62
256
370
-1
 48
1.0
  6
ByLayer
100
AcDbCircle
 10
7.6195354320211406
 20
51.039908446978885
 30
0.0
 40
5.3319237415821368
100
AcDbArc
 50
255.67473902651571
 51
298.79183768031209
  0
LINE
  5
85
100
AcDbEntity
100
AcDbLine
  8
Corte exterior
 62
256
370
-1
 48
1.0
  6
ByLayer
 10
65.999978598048671
 20
31.29689273031283
 30
0.0
 11
65.9999889682354
 21
84.760047465232645
 31
0.0
  0
LINE
  5
86
100
AcDbEntity
100
AcDbLine
  8
Corte exterior
 62
256
370
-1
 48
1.0
  6
ByLayer
 10
77.799978598048668
 20
31.29689273031283
 30
0.0
 11
65.999978598048671
 21
31.29689273031283
 31
0.0
  0
LINE
  5
87
100
AcDbEntity
100
AcDbLine
  8
Corte exterior
 62
256
370
-1
 48
1.0
  6
ByLayer
 10
77.79997859804871
 20
28.29689273031283
 30
0.0
 11
77.799978598048668
 21
31.29689273031283
 31
0.0
  0
LINE
  5
88
100
AcDbEntity
100
AcDbLine
  8
Corte exterior
 62
256
370
-1
 48
1.0
  6
ByLayer
 10
65.999978598048699
 20
28.29689273031283
 30
0.0
 11
77.79997859804871
 21
28.29689273031283
 31
0.0
  0
LINE
  5
89
100
AcDbEntity
100
AcDbLine
  8
Corte exterior
 62
256
370
-1
 48
1.0
  6
ByLayer
 10
65.99997481447997
 20
12.3000072326808
 30
0.0
 11
65.999978598048699
 21
28.29689273031283
 31
0.0
  0
LINE
  5
8A
100
AcDbEntity
100
AcDbLine
  8
Corte exterior
 62
256
370
-1
 48
1.0
  6
ByLayer
 10
77.799975143825449
 20
12.300006790268579
 30
0.0
 11
65.99997481447997
 21
12.3000072326808
 31
0.0
  0
LINE
  5
8B
100
AcDbEntity
100
AcDbLine
  8
Corte exterior
 62
256
370
-1
 48
1.0
  6
ByLayer
 10
77.799972906362271
 20
4.5095610863858484
 30
0.0
 11
77.799975143825449
 21
12.300006790268579
 31
0.0
  0
LINE
  5
8C
100
AcDbEntity
100
AcDbLine
  8
Corte exterior
 62
256
370
-1
 48
1.0
  6
ByLayer
 10
91.999986452983151
 20
4.5011865497010843
 30
0.0
 11
77.799972906362271
 21
4.5095610863858484
 31
0.0
  0
LINE
  5
8D
100
AcDbEntity
100
AcDbLine
  8
Corte exterior
 62
256
370
-1
 48
1.0
  6
ByLayer
 10
91.999986452983308
 20
1.007653201770077
 30
0.0
 11
91.999986452983151
 21
4.5011865497010843
 31
0.0
  0
LINE
  5
8E
100
AcDbEntity
100
AcDbLine
  8
Corte exterior
 62
256
370
-1
 48
1.0
  6
ByLayer
 10
102.0499864529833
 20
1.007653201770077
 30
0.0
 11
91.999986452983308
 21
1.007653201770077
 31
0.0
  0
LINE
  5
8F
100
AcDbEntity
100
AcDbLine
  8
Corte exterior
 62
256
370
-1
 48
1.0
  6
ByLayer
 10
102.0499864529833
 20
4.507653201770073
 30
0.0
 11
102.0499864529833
 21
1.007653201770077
 31
0.0
  0
LINE
  5
90
100
AcDbEntity
100
AcDbLine
  8
Corte exterior
 62
256
370
-1
 48
1.0
  6
ByLayer
 10
113.0499864529833
 20
4.507653201770073
 30
0.0
 11
102.0499864529833
 21
4.507653201770073
 31
0.0
  0
LINE
  5
91
100
AcDbEntity
100
AcDbLine
  8
Corte exterior
 62
256
370
-1
 48
1.0
  6
ByLayer
 10
113.0499864529833
 20
1.007653201770075
 30
0.0
 11
113.0499864529833
 21
4.507653201770073
 31
0.0
  0
LINE
  5
92
100
AcDbEntity
100
AcDbLine
  8
Corte exterior
 62
256
370
-1
 48
1.0
  6
ByLayer
 10
122.99998645298329
 20
1.007653201770077
 30
0.0
 11
113.0499864529833
 21
1.007653201770075
 31
0.0
  0
LINE
  5
93
100
AcDbEntity
100
AcDbLine
  8
Corte exterior
 62
256
370
-1
 48
1.0
  6
ByLayer
 10
122.99998645298329
 20
4.507653201770073
 30
0.0
 11
122.99998645298329
 21
1.007653201770077
 31
0.0
  0
LINE
  5
94
100
AcDbEntity
100
AcDbLine
  8
Corte exterior
 62
256
370
-1
 48
1.0
  6
ByLayer
 10
137.19999999999999
 20
4.5031140599551964
 30
0.0
 11
122.99998645298328
 21
4.5068614916119731
 31
0.0
  0
LINE
  5
95
100
AcDbEntity
100
AcDbLine
  8
Corte exterior
 62
256
370
-1
 48
1.0
  6
ByLayer
 10
137.19999999999999
 20
12.300006790268631
 30
0.0
 11
137.19999999999999
 21
4.5031140599551964
 31
0.0
  0
LINE
  5
96
100
AcDbEntity
100
AcDbLine
  8
Corte exterior
 62
256
370
-1
 48
1.0
  6
ByLayer
 10
149.0
 20
12.300006790268631
 30
0.0
 11
137.19999999999999
 21
12.300006790268631
 31
0.0
  0
LINE
  5
97
100
AcDbEntity
100
AcDbLine
  8
Corte exterior
 62
256
370
-1
 48
1.0
  6
ByLayer
 10
149.0
 20
28.200006790268631
 30
0.0
 11
149.0
 21
12.300006790268631
 31
0.0
  0
LINE
  5
98
100
AcDbEntity
100
AcDbLine
  8
Corte exterior
 62
256
370
-1
 48
1.0
  6
ByLayer
 10
137.19999999999999
 20
28.200006790268631
 30
0.0
 11
149.0
 21
28.200006790268631
 31
0.0
  0
LINE
  5
99
100
AcDbEntity
100
AcDbLine
  8
Corte exterior
 62
256
370
-1
 48
1.0
  6
ByLayer
 10
137.19999999999999
 20
31.200006790268642
 30
0.0
 11
137.19999999999999
 21
28.200006790268631
 31
0.0
  0
LINE
  5
9A
100
AcDbEntity
100
AcDbLine
  8
Corte exterior
 62
256
370
-1
 48
1.0
  6
ByLayer
 10
149.0
 20
31.200006790268642
 30
0.0
 11
137.19999999999999
 21
31.200006790268642
 31
0.0
  0
LINE
  5
9B
100
AcDbEntity
100
AcDbLine
  8
Corte exterior
 62
256
370
-1
 48
1.0
  6
ByLayer
 10
149.0
 20
125.2
 30
0.0
 11
149.0
 21
31.200006790268642
 31
0.0
  0
LINE
  5
9C
100
AcDbEntity
100
AcDbLine
  8
Corte exterior
 62
256
370
-1
 48
1.0
  6
ByLayer
 10
120.1393821534035
 20
125.20000783885411
 30
0.0
 11
149.0
 21
125.2
 31
0.0
  0
ARC
  5
9D
100
AcDbEntity
  8
0
 62
256
370
-1
 48
1.0
  6
ByLayer
100
AcDbCircle
 10
-41.0148971431137
 20
71.718524808096532
 30
0.0
 40
52.792345366071388
100
AcDbArc
 50
349.54178168135945
 51
357.46355960155302
  0
ARC
  5
9E
100
AcDbEntity
  8
0
 62
256
370
-1
 48
1.0
  6
ByLayer
100
AcDbCircle
 10
-35.400893984784304
 20
60.785334652835616
 30
0.0
 40
50.129129430830758
100
AcDbArc
 50
347.06844108765546
 51
8.9113717091729434
  0
ARC
  5
9F
100
AcDbEntity
  8
0
 62
256
370
-1
 48
1.0
  6
ByLayer
100
AcDbCircle
 10
-21.826375490241986
 20
58.524691596105846
 30
0.0
 40
32.925430089986911
100
AcDbArc
 50
347.51153539469368
 51
6.2964960500661897
  0
ARC
  5
A0
100
AcDbEntity
  8
0
 62
256
370
-1
 48
1.0
  6
ByLayer
100
AcDbCircle
 10
-0.5113335772175844
 20
47.797576305252676
 30
0.0
 40
11.416232022933825
100
AcDbArc
 50
358.27498500267768
 51
18.41955625293226
  0
ARC
  5
A1
100
AcDbEntity
  8
0
 62
256
370
-1
 48
1.0
  6
ByLayer
100
AcDbCircle
 10
10.461529185633221
 20
47.902051739592736
 30
0.0
 40
0.6267691854839234
100
AcDbArc
 50
295.55168398860388
 51
314.35755589622374
  0
ARC
  5
A2
100
AcDbEntity
  8
0
 62
256
370
-1
 48
1.0
  6
ByLayer
100
AcDbCircle
 10
10.621098979276541
 20
47.814095096122983
 30
0.0
 40
0.4901921907931084
100
AcDbArc
 50
184.16356074042275
 51
283.06025548515208
  0
ARC
  5
A3
100
AcDbEntity
  8
0
 62
256
370
-1
 48
1.0
  6
ByLayer
100
AcDbCircle
 10
8.1236919466748425
 20
47.407158392677921
 30
0.0
 40
2.0425486506251929
100
AcDbArc
 50
10.474950108019003
 51
55.423480125161689
  0
ARC
  5
A4
100
AcDbEntity
  8
0
 62
256
370
-1
 48
1.0
  6
ByLayer
100
AcDbCircle
 10
9.0401801324079951
 20
48.754043403498287
 30
0.0
 40
0.4135675259231351
100
AcDbArc
 50
54.071497577175897
 51
184.03771062097644
  0
ARC
  5
A5
100
AcDbEntity
  8
0
 62
256
370
-1
 48
1.0
  6
ByLayer
100
AcDbCircle
 10
10.035896784105136
 20
48.630942928258186
 30
0.0
 40
1.4113900578220819
100
AcDbArc
 50
176.18203308617362
 51
271.93958502235415
  0
ARC
  5
A6
100
AcDbEntity
  8
0
 62
256
370
-1
 48
1.0
  6
ByLayer
100
AcDbCircle
 10
10.032816196267929
 20
46.781237553061843
 30
0.0
 40
0.4420583275904257
100
AcDbArc
 50
290.4882864849651
 51
83.394634934351757
  0
ARC
  5
A7
100
AcDbEntity
  8
0
 62
256
370
-1
 48
1.0
  6
ByLayer
100
AcDbCircle
 10
-35.889022807688022
 20
60.959095231071927
 30
0.0
 40
50.643799406106254
100
AcDbArc
 50
343.19037500820929
 51
347.0004280314019
  0
LWPOLYLINE
  5
A8
  8
0
 62
256
370
-1
 48
1.0
  6
ByLayer
100
AcDbEntity
100
AcDbPolyline
 90
18
 70
0
 10
33.000610768941726
 20
56.722976919509868
 30
0.0
 10
26.500610768941719
 20
56.722976919509868
 30
0.0
 10
26.500610768941719
 20
59.122976919509888
 30
0.0
 10
30.500610768941719
 20
59.122976919509888
 30
0.0
 10
30.500610768941719
 20
62.540293625032348
 30
0.0
 10
21.500610768941712
 20
62.540293625032348
 30
0.0
 10
21.500610768941712
 20
48.540293625032369
 30
0.0
 10
24.650610768941689
 20
48.540293625032369
 30
0.0
 10
24.650610768941689
 20
52.540293625032369
 30
0.0
 10
42.35061076894165
 20
52.540293625032369
 30
0.0
 10
42.35061076894165
 20
48.540293625032369
 30
0.0
 10
45.500610768941669
 20
48.540293625032369
 30
0.0
 10
45.500610768941669
 20
62.540293625032348
 30
0.0
 10
36.486996170964005
 20
62.540293625032348
 30
0.0
 10
36.486996170964005
 20
59.122976919509888
 30
0.0
 10
40.500610768941726
 20
59.122976919509888
 30
0.0
 10
40.500610768941726
 20
56.722976919509868
 30
0.0
 10
34.000610768941726
 20
56.722976919509868
 30
0.0
  0
LWPOLYLINE
  5
A9
  8
Corte exterior
 62
256
370
-1
 48
1.0
  6
ByLayer
100
AcDbEntity
100
AcDbPolyline
 90
4
 70
0
 10
94.471057233157907
 20
125.2000148102609
 30
0.0
 10
65.999998647940004
 20
125.20002254297501
 30
0.0
 10
65.999993664445938
 20
97.508012460272582
 30
0.0
 10
65.9999889682354
 20
84.760047465232645
 30
0.0
  0
LWPOLYLINE
  5
AA
  8
0
 62
256
370
-1
 48
1.0
  6
ByLayer
100
AcDbEntity
100
AcDbPolyline
 90
6
 70
0
 10
34.001257456827844
 20
75.702410854899654
 30
0.0
 10
49.501257456827858
 20
75.702410854899654
 30
0.0
 10
49.501257456827858
 20
43.702410854899675
 30
0.0
 10
17.501257456827819
 20
43.702410854899675
 30
0.0
 10
17.501257456827851
 20
75.702410854899654
 30
0.0
 10
33.001257456827844
 20
75.702410854899654
 30
0.0
  0
LWPOLYLINE
  5
AB
  8
0
 62
256
370
-1
 48
1.0
  6
ByLayer
100
AcDbEntity
100
AcDbPolyline
 90
4
 70
1
 10
18.001257456827851
 20
26.0
 30
0.0
 10
28.001257456827851
 20
25.999999999999986
 30
0.0
 10
28.001257456827851
 20
28.899999999999999
 30
0.0
 10
18.001257456827851
 20
28.899999999999999
 30
0.0
  0
LWPOLYLINE
  5
AC
  8
0
 62
256
370
-1
 48
1.0
  6
ByLayer
100
AcDbEntity
100
AcDbPolyline
 90
4
 70
1
 10
49.001257456827858
 20
28.899999999999999
 30
0.0
 10
39.001257456827858
 20
28.899999999999999
 30
0.0
 10
39.001257456827858
 20
26.0
 30
0.0
 10
49.001257456827858
 20
26.0
 30
0.0
  0
LINE
  5
AD
100
AcDbEntity
100
AcDbLine
  8
0
 62
256
370
-1
 48
1.0
  6
ByLayer
 10
51.920613965606549
 20
87.303781655234403
 30
0.0
 11
42.941134500013092
 21
88.746697821856941
 31
0.0
  0
LINE
  5
AE
100
AcDbEntity
100
AcDbLine
  8
0
 62
256
370
-1
 48
1.0
  6
ByLayer
 10
14.951731186487017
 20
87.630758478478597
 30
0.0
 11
24.061055933260487
 21
88.746774444763773
 31
0.0
  0
ARC
  5
AF
100
AcDbEntity
  8
0
 62
256
370
-1
 48
1.0
  6
ByLayer
100
AcDbCircle
 10
108.24228329532015
 20
71.726002195308922
 30
0.0
 40
53.015941018581792
100
AcDbArc
 50
182.54741038083793
 51
190.42266870270842
  0
ARC
  5
B0
100
AcDbEntity
  8
0
 62
256
370
-1
 48
1.0
  6
ByLayer
100
AcDbCircle
 10
102.43307852902736
 20
60.790586602283014
 30
0.0
 40
50.157336067665305
100
AcDbArc
 50
171.10157125951594
 51
194.31681194032433
  0
ARC
  5
B1
100
AcDbEntity
  8
0
 62
256
370
-1
 48
1.0
  6
ByLayer
100
AcDbCircle
 10
23.390346911489836
 20
91.207639110007634
 30
0.0
 40
2.5454172431901103
100
AcDbArc
 50
285.4593877991669
 51
339.47127872319578
  0
ARC
  5
B2
100
AcDbEntity
  8
0
 62
256
370
-1
 48
1.0
  6
ByLayer
100
AcDbCircle
 10
43.184378368098066
 20
90.731931747526971
 30
0.0
 40
1.9999999999999933
100
AcDbArc
 50
209.00340516669579
 51
263.0152960907248
  0
ARC
  5
B3
100
AcDbEntity
  8
0
 62
256
370
-1
 48
1.0
  6
ByLayer
100
AcDbCircle
 10
14.000000000000586
 20
72.024376837881888
 30
0.0
 40
50.009999000199372
100
AcDbArc
 50
350.99028683174009
 51
10.426001509802292
  0
ARC
  5
B4
100
AcDbEntity
  8
0
 62
256
370
-1
 48
1.0
  6
ByLayer
100
AcDbCircle
 10
13.999999999994596
 20
72.024376837882812
 30
0.0
 40
50.009999000205433
100
AcDbArc
 50
350.18825034411645
 51
350.99028683174015
  0
ARC
  5
B5
100
AcDbEntity
  8
0
 62
256
370
-1
 48
1.0
  6
ByLayer
100
AcDbCircle
 10
14.000000000017248
 20
72.024376837874115
 30
0.0
 40
50.009999000181629
100
AcDbArc
 50
348.46537934636081
 51
350.18825034412197
  0
ARC
  5
B6
100
AcDbEntity
  8
0
 62
256
370
-1
 48
1.0
  6
ByLayer
100
AcDbCircle
 10
5.5312207573644692
 20
55.907966265127634
 30
0.0
 40
57.793347938437634
100
AcDbArc
 50
2.2775081186072685
 51
6.0751286445599879
  0
ARC
  5
B7
100
AcDbEntity
  8
0
 62
256
370
-1
 48
1.0
  6
ByLayer
100
AcDbCircle
 10
5.5312207573657481
 20
55.907966265127342
 30
0.0
 40
57.793347938436369
100
AcDbArc
 50
357.63099484290507
 51
2.2775081186077486
  0
ARC
  5
B8
100
AcDbEntity
  8
0
 62
256
370
-1
 48
1.0
  6
ByLayer
100
AcDbCircle
 10
5.5312207573629628
 20
55.907966265127172
 30
0.0
 40
57.793347938439148
100
AcDbArc
 50
355.07968571966512
 51
357.63099484290552
  0
ARC
  5
B9
100
AcDbEntity
  8
0
 62
256
370
-1
 48
1.0
  6
ByLayer
100
AcDbCircle
 10
54.165746128192936
 20
50.322946673516967
 30
0.0
 40
8.9678720730360642
100
AcDbArc
 50
337.2210461361035
 51
4.0160565341100778
  0
ARC
  5
BA
100
AcDbEntity
  8
0
 62
256
370
-1
 48
1.0
  6
ByLayer
100
AcDbCircle
 10
61.681102893048816
 20
47.149097899280093
 30
0.0
 40
0.8099999999999376
100
AcDbArc
 50
300.47223962229828
 51
338.3905977206814
  0
ARC
  5
BB
100
AcDbEntity
  8
0
 62
256
370
-1
 48
1.0
  6
ByLayer
100
AcDbCircle
 10
59.314715926170706
 20
51.170880373304996
 30
0.0
 40
5.4763177715821953
100
AcDbArc
 50
244.29488171916989
 51
300.47223962230157
  0
ARC
  5
BC
100
AcDbEntity
  8
0
 62
256
370
-1
 48
1.0
  6
ByLayer
100
AcDbCircle
 10
57.227498559371412
 20
46.634448205295435
 30
0.0
 40
0.491268986398734
100
AcDbArc
 50
137.74980020637298
 51
234.09829633129738
  0
ARC
  5
BD
100
AcDbEntity
  8
0
 62
256
370
-1
 48
1.0
  6
ByLayer
100
AcDbCircle
 10
60.046981236207799
 20
43.171278503747168
 30
0.0
 40
4.9520523519361506
100
AcDbArc
 50
118.38647797427994
 51
130.00014861871117
  0
ARC
  5
BE
100
AcDbEntity
  8
0
 62
256
370
-1
 48
1.0
  6
ByLayer
100
AcDbCircle
 10
57.307605924770954
 20
48.240506276252852
 30
0.0
 40
0.8099999999999763
100
AcDbArc
 50
298.38647797427944
 51
18.434948822921374
  0
LINE
  5
BF
100
AcDbEntity
100
AcDbLine
  8
0
 62
256
370
-1
 48
1.0
  6
ByLayer
 10
57.710427561789828
 20
49.478624487665257
 30
0.0
 11
58.076039396191845
 21
48.496650766726475
 31
0.0
  0
ARC
  5
C0
100
AcDbEntity
  8
0
 62
256
370
-1
 48
1.0
  6
ByLayer
100
AcDbCircle
 10
54.114744764431038
 20
49.673755116309081
 30
0.0
 40
3.6009735824436291
100
AcDbArc
 50
320.36522284783626
 51
356.89371777392745
  0
ARC
  5
C1
100
AcDbEntity
  8
0
 62
256
370
-1
 48
1.0
  6
ByLayer
100
AcDbCircle
 10
56.542273606557544
 20
47.905185713824856
 30
0.0
 40
0.631476573487884
100
AcDbArc
 50
224.99835325175371
 51
303.18936452071426
  0
ARC
  5
C2
100
AcDbEntity
  8
0
 62
256
370
-1
 48
1.0
  6
ByLayer
100
AcDbCircle
 10
67.769029792569128
 20
47.742667870072673
 30
0.0
 40
11.676744373453264
100
AcDbArc
 50
161.72615271933006
 51
181.39363096293127
  0
ARC
  5
C3
100
AcDbEntity
  8
0
 62
256
370
-1
 48
1.0
  6
ByLayer
100
AcDbCircle
 10
89.03333010346951
 20
58.533941396007705
 30
0.0
 40
33.128519616731829
100
AcDbArc
 50
173.75967347076218
 51
192.42844264707205
  0
ARC
  5
C4
100
AcDbEntity
  8
0
 62
256
370
-1
 48
1.0
  6
ByLayer
100
AcDbCircle
 10
60.370157411145456
 20
10.368052043029596
 30
0.0
 40
12.457330381710364
100
AcDbArc
 50
174.41780611064172
 51
200.9361228255795
  0
ARC
  5
C5
100
AcDbEntity
  8
0
 62
256
370
-1
 48
1.0
  6
ByLayer
100
AcDbCircle
 10
50.203300405965663
 20
6.3619256346670809
 30
0.0
 40
1.5340581936114486
100
AcDbArc
 50
196.8710722438974
 51
255.61509792574864
  0
LINE
  5
C6
100
AcDbEntity
100
AcDbLine
  8
0
 62
256
370
-1
 48
1.0
  6
ByLayer
 10
55.721509684443845
 20
2.7552163370449172
 30
0.0
 11
49.822187197667475
 21
4.8759622219791723
 31
0.0
  0
ARC
  5
C7
100
AcDbEntity
  8
0
 62
256
370
-1
 48
1.0
  6
ByLayer
100
AcDbCircle
 10
54.969544324124939
 20
2.0375777069900138
 30
0.0
 40
1.0394503867268623
100
AcDbArc
 50
273.79060195032645
 51
43.661939396093068
  0
LINE
  5
C8
100
AcDbEntity
100
AcDbLine
  8
0
 62
256
370
-1
 48
1.0
  6
ByLayer
 10
45.501257456827844
 20
1.0
 30
0.0
 11
55.038262631609456
 21
1.0004012992930935
 31
0.0
  0
LINE
  5
C9
100
AcDbEntity
100
AcDbLine
  8
0
 62
256
370
-1
 48
1.0
  6
ByLayer
 10
45.501257456827844
 20
5.0
 30
0.0
 11
45.501257456827844
 21
1.0
 31
0.0
  0
LINE
  5
CA
100
AcDbEntity
100
AcDbLine
  8
0
 62
256
370
-1
 48
1.0
  6
ByLayer
 10
42.501257456827844
 20
5.0
 30
0.0
 11
45.501257456827844
 21
5.0
 31
0.0
  0
LINE
  5
CB
100
AcDbEntity
100
AcDbLine
  8
0
 62
256
370
-1
 48
1.0
  6
ByLayer
 10
42.501257456827815
 20
0.9999999999999982
 30
0.0
 11
42.501257456827844
 21
5.0
 31
0.0
  0
ARC
  5
CC
100
AcDbEntity
  8
0
 62
256
370
-1
 48
1.0
  6
ByLayer
100
AcDbCircle
 10
42.075278177821033
 20
4.5727022633661356
 30
0.0
 40
3.59800775552314
100
AcDbArc
 50
207.72329428832433
 51
276.79937267246839
  0
ARC
  5
CD
100
AcDbEntity
  8
0
 62
256
370
-1
 48
1.0
  6
ByLayer
100
AcDbCircle
 10
59.673324770676956
 20
8.1110632975960719
 30
0.0
 40
21.426631205267014
100
AcDbArc
 50
167.19925163800761
 51
194.07880523166429
  0
ARC
  5
CE
100
AcDbEntity
  8
0
 62
256
370
-1
 48
1.0
  6
ByLayer
100
AcDbCircle
 10
10.260504876119725
 20
8.1664022196585151
 30
0.0
 40
18.521250477918787
100
AcDbArc
 50
342.4632275526688
 51
13.88221000065271
  0
ARC
  5
CF
100
AcDbEntity
  8
0
 62
256
370
-1
 48
1.0
  6
ByLayer
100
AcDbCircle
 10
24.966800618798136
 20
4.4769773723357318
 30
0.0
 40
3.5077453692964697
100
AcDbArc
 50
262.45208295518597
 51
327.37115480157883
  0
LINE
  5
D0
100
AcDbEntity
100
AcDbLine
  8
0
 62
256
370
-1
 48
1.0
  6
ByLayer
 10
24.501257456827812
 20
4.9986825921566052
 30
0.0
 11
24.50603966672918
 21
0.9996253739223793
 31
0.0
  0
LINE
  5
D1
100
AcDbEntity
100
AcDbLine
  8
0
 62
256
370
-1
 48
1.0
  6
ByLayer
 10
21.505454458624822
 20
4.998244172781952
 30
0.0
 11
24.501257456827812
 21
4.9986825921566052
 31
0.0
  0
LINE
  5
D2
100
AcDbEntity
100
AcDbLine
  8
0
 62
256
370
-1
 48
1.0
  6
ByLayer
 10
21.506039836729052
 20
0.9982442156154008
 30
0.0
 11
21.505454458624822
 21
4.998244172781952
 31
0.0
  0
LINE
  5
D3
100
AcDbEntity
100
AcDbLine
  8
0
 62
256
370
-1
 48
1.0
  6
ByLayer
 10
12.007297395272831
 20
0.9968541266397182
 30
0.0
 11
21.506039836729052
 21
0.9982442156154008
 31
0.0
  0
ARC
  5
D4
100
AcDbEntity
  8
0
 62
256
370
-1
 48
1.0
  6
ByLayer
100
AcDbCircle
 10
11.997215930683279
 20
2.0007574687334682
 30
0.0
 40
1.0039539611930763
100
AcDbArc
 50
91.891184009389178
 51
270.57536012877381
  0
LINE
  5
D5
100
AcDbEntity
100
AcDbLine
  8
0
 62
256
370
-1
 48
1.0
  6
ByLayer
 10
17.166254146678419
 20
4.9129529266619372
 30
0.0
 11
11.964084049922121
 21
3.00416458185979
 31
0.0
  0
ARC
  5
D6
100
AcDbEntity
  8
0
 62
256
370
-1
 48
1.0
  6
ByLayer
100
AcDbCircle
 10
16.230229014346516
 20
7.1179444954311997
 30
0.0
 40
2.3954395977983851
100
AcDbArc
 50
293.00135937791163
 51
356.6460059015335
  0
ARC
  5
D7
100
AcDbEntity
  8
0
 62
256
370
-1
 48
1.0
  6
ByLayer
100
AcDbCircle
 10
5.8417799440914777
 20
10.456262892416511
 30
0.0
 40
13.24472066096131
100
AcDbArc
 50
344.77381588589867
 51
15.823542538180334
  0
ARC
  5
D8
100
AcDbEntity
  8
0
 62
256
370
-1
 48
1.0
  6
ByLayer
100
AcDbCircle
 10
6.4927793487911458
 20
48.17229259222465
 30
0.0
 40
2.3065679284283296
100
AcDbArc
 50
210.52228820492593
 51
265.21263826018514
  0
ARC
  5
D9
100
AcDbEntity
  8
0
 62
256
370
-1
 48
1.0
  6
ByLayer
100
AcDbCircle
 10
12.835400876694527
 20
50.32364141302979
 30
0.0
 40
8.967872073035009
100
AcDbArc
 50
189.37952244618529
 51
201.74781158112415
  0
ARC
  5
DA
100
AcDbEntity
  8
0
 62
256
370
-1
 48
1.0
  6
ByLayer
100
AcDbCircle
 10
12.80417401929745
 20
50.322142556546915
 30
0.0
 40
8.936819159594684
100
AcDbArc
 50
176.0990673435038
 51
189.40266900023659
  0
ARC
  5
DB
100
AcDbEntity
  8
0
 62
256
370
-1
 48
1.0
  6
ByLayer
100
AcDbCircle
 10
61.640172312248865
 20
55.887642956684402
 30
0.0
 40
57.964501532871594
100
AcDbArc
 50
173.97896107600121
 51
184.90631521164116
  0
ARC
  5
DC
100
AcDbEntity
  8
0
 62
256
370
-1
 48
1.0
  6
ByLayer
100
AcDbCircle
 10
33.263899296176632
 20
70.826081233810555
 30
0.0
 40
30.57961765775481
100
AcDbArc
 50
154.36135683033822
 51
196.83885171124777
  0
ARC
  5
DD
100
AcDbEntity
  8
0
 62
256
370
-1
 48
1.0
  6
ByLayer
100
AcDbCircle
 10
-19.419152811292594
 20
9.2602997114703172
 30
0.0
 40
58.309492161843046
100
AcDbArc
 50
3.5377693387933844
 51
7.4542077635239368
  0
ARC
  5
DE
100
AcDbEntity
  8
0
 62
256
370
-1
 48
1.0
  6
ByLayer
100
AcDbCircle
 10
81.648725738487357
 20
10.098200762582898
 30
0.0
 40
53.466996754822766
100
AcDbArc
 50
171.2671866883735
 51
177.30718538036064
  0
LINE
  5
DF
100
AcDbEntity
100
AcDbLine
  8
0
 62
256
370
-1
 48
1.0
  6
ByLayer
 10
55.453374333301895
 20
42.123604001961695
 30
0.0
 11
55.282145746676456
 21
43.696445528748953
 31
0.0
  0
ARC
  5
E0
100
AcDbEntity
  8
0
 62
256
370
-1
 48
1.0
  6
ByLayer
100
AcDbCircle
 10
101.84980135595679
 20
60.646512677511026
 30
0.0
 40
49.556546745027354
100
AcDbArc
 50
194.32217110199005
 51
200.0008980845447
  0
ARC
  5
E1
100
AcDbEntity
  8
0
 62
256
370
-1
 48
1.0
  6
ByLayer
100
AcDbCircle
 10
-1.2389350675146993
 20
20.801332943743404
 30
0.0
 40
50.067383855927112
100
AcDbArc
 50
349.38655434419326
 51
352.29457455201469
  0
ARC
  5
E2
100
AcDbEntity
  8
0
 62
256
370
-1
 48
1.0
  6
ByLayer
100
AcDbCircle
 10
72.324548816945708
 20
20.709352334725651
 30
0.0
 40
54.148795425391874
100
AcDbArc
 50
184.98006321395829
 51
187.04530907507885
  0
LINE
  5
E3
100
AcDbEntity
100
AcDbLine
  8
0
 62
256
370
-1
 48
1.0
  6
ByLayer
 10
49.791331838530482
 20
81.415646093513232
 30
0.0
 11
50.341953222304696
 21
81.197671427192233
 31
0.0
  0
LINE
  5
E4
100
AcDbEntity
100
AcDbLine
  8
0
 62
256
370
-1
 48
1.0
  6
ByLayer
 10
33.501055698354335
 20
79.009331111556349
 30
0.0
 11
43.448190966387173
 21
81.756776700738925
 31
0.0
  0
LINE
  5
E5
100
AcDbEntity
100
AcDbLine
  8
0
 62
256
370
-1
 48
1.0
  6
ByLayer
 10
23.554012801927193
 20
81.757111110519077
 30
0.0
 11
45.472202464269145
 21
75.702410854899654
 31
0.0
  0
LWPOLYLINE
  5
E6
  8
0
 62
256
370
-1
 48
1.0
  6
ByLayer
100
AcDbEntity
100
AcDbPolyline
 90
3
 70
0
 10
39.491813414195931
 20
94.219388698148265
 30
0.0
 10
41.228370176750147
 20
90.314760373413478
 30
0.0
 42
0.0741545510485637
 10
41.435196582708727
 20
89.762208549051167
 30
0.0
  0
ARC
  5
E7
100
AcDbEntity
  8
0
 62
256
370
-1
 48
1.0
  6
ByLayer
100
AcDbCircle
 10
12.506760986418467
 20
129.11292468181156
 30
0.0
 40
46.218601597506684
100
AcDbArc
 50
318.07624105773215
 51
15.190005947196548
  0
ARC
  5
E8
100
AcDbEntity
  8
0
 62
256
370
-1
 48
1.0
  6
ByLayer
100
AcDbCircle
 10
45.416126861944377
 20
99.573044131475001
 30
0.0
 40
2.0000000000001723
100
AcDbArc
 50
307.5045956984689
 51
318.08690234840515
  0
ARC
  5
E9
100
AcDbEntity
  8
0
 62
256
370
-1
 48
1.0
  6
ByLayer
100
AcDbCircle
 10
32.038029005585756
 20
117.00482546462578
 30
0.0
 40
23.973631987022511
100
AcDbArc
 50
273.51233090305044
 51
307.50459569846203
  0
ARC
  5
EA
100
AcDbEntity
  8
0
 62
256
370
-1
 48
1.0
  6
ByLayer
100
AcDbCircle
 10
34.967110667804818
 20
117.0053351973685
 30
0.0
 40
23.973631987022628
100
AcDbArc
 50
232.51534607025911
 51
266.50761086567019
  0
ARC
  5
EB
100
AcDbEntity
  8
0
 62
256
370
-1
 48
1.0
  6
ByLayer
100
AcDbCircle
 10
21.595080744799972
 20
99.568898679565635
 30
0.0
 40
1.9999999999999543
100
AcDbArc
 50
221.93303942032279
 51
232.51534607025917
  0
ARC
  5
EC
100
AcDbEntity
  8
0
 62
256
370
-1
 48
1.0
  6
ByLayer
100
AcDbCircle
 10
54.495464591235745
 20
129.11292468181156
 30
0.0
 40
46.218601597506684
100
AcDbArc
 50
164.80999405280338
 51
221.92375894226791
  0
ARC
  5
ED
100
AcDbEntity
  8
0
 62
256
370
-1
 48
1.0
  6
ByLayer
100
AcDbCircle
 10
48.936217489416478
 20
103.60253490174594
 30
0.0
 40
32.518144520816435
100
AcDbArc
 50
77.975715156401364
 51
101.29916323724818
  0
ARC
  5
EE
100
AcDbEntity
  8
0
 62
256
370
-1
 48
1.0
  6
ByLayer
100
AcDbCircle
 10
57.289201795114096
 20
132.57470652870151
 30
0.0
 40
3.2426940891205001
100
AcDbArc
 50
119.13163159828605
 51
151.9248364515781
  0
ARC
  5
EF
100
AcDbEntity
  8
0
 62
256
370
-1
 48
1.0
  6
ByLayer
100
AcDbCircle
 10
45.760153331262799
 20
105.20276430473652
 30
0.0
 40
30.170019729821814
100
AcDbArc
 50
73.303476606214602
 51
95.954140011684544
  0
ARC
  5
F0
100
AcDbEntity
  8
0
 62
256
370
-1
 48
1.0
  6
ByLayer
100
AcDbCircle
 10
18.066008088237702
 20
103.60253490174594
 30
0.0
 40
32.518144520816435
100
AcDbArc
 50
78.700836762751877
 51
102.02428484359862
  0
ARC
  5
F1
100
AcDbEntity
  8
0
 62
256
370
-1
 48
1.0
  6
ByLayer
100
AcDbCircle
 10
9.7130237825401018
 20
132.57470652870151
 30
0.0
 40
3.2426940891205001
100
AcDbArc
 50
28.075163548421841
 51
60.868368401713902
  0
ARC
  5
F2
100
AcDbEntity
  8
0
 62
256
370
-1
 48
1.0
  6
ByLayer
100
AcDbCircle
 10
21.242072246391409
 20
105.20276430473652
 30
0.0
 40
30.170019729821814
100
AcDbArc
 50
84.045859988315442
 51
106.69652339378538
  0
ELLIPSE
  5
F3
100
AcDbEntity
100
AcDbEllipse
  8
0
 62
256
370
-1
 48
1.0
  6
ByLayer
 10
31.912874309397431
 20
98.988300702953183
 30
0.0
 11
-0.0000000000000012
 21
-6.5000000000000346
 31
0.0
 40
0.7692307692307696
 41
2.9299099830140389
 42
3.3926954877242488
  0
ELLIPSE
  5
F4
100
AcDbEntity
100
AcDbEllipse
  8
0
 62
256
370
-1
 48
1.0
  6
ByLayer
 10
25.688848066441789
 20
130.53098364764813
 30
0.0
 11
-0.0000000000000048
 21
-26.063920477530335
 31
0.0
 40
0.7692307692307689
 41
6.2527464217714623
 42
0.2511028341346985
  0
ELLIPSE
  5
F5
100
AcDbEntity
100
AcDbEllipse
  8
0
 62
256
370
-1
 48
1.0
  6
ByLayer
 10
33.531022974457358
 20
158.75872751609461
 30
0.0
 11
-0.0000000000000102
 21
-55.380605610384883
 31
0.0
 40
0.7692307692307694
 41
6.0834499863448963
 42
0.1989279853064245
  0
ELLIPSE
  5
F6
100
AcDbEntity
100
AcDbEllipse
  8
0
 62
256
370
-1
 48
1.0
  6
ByLayer
 10
40.977062236849392
 20
127.4408946624898
 30
0.0
 11
-0.0000000000000042
 21
-23.005383174947152
 31
0.0
 40
0.7692307692307695
 41
6.0188772924390621
 42
0.0549881088653503
  0
ELLIPSE
  5
F7
100
AcDbEntity
100
AcDbEllipse
  8
0
 62
256
370
-1
 48
1.0
  6
ByLayer
 10
35.047810781837853
 20
98.960129965239574
 30
0.0
 11
0.0000000000000004
 21
6.5
 31
0.0
 40
0.7692307692307689
 41
6.0188772924390683
 42
0.1978581779206933
  0
ELLIPSE
  5
F8
100
AcDbEntity
100
AcDbEllipse
  8
0
 62
256
370
-1
 48
1.0
  6
ByLayer
 10
33.53251333644323
 20
108.78592410380035
 30
0.0
 11
0.0000000000000002
 21
3.5213114900959459
 31
0.0
 40
0.7692307692307697
 41
2.9299099830140345
 42
3.3394508315104749
  0
ARC
  5
F9
100
AcDbEntity
  8
0
 62
256
370
-1
 48
1.0
  6
ByLayer
100
AcDbCircle
 10
39.780236040847129
 20
151.57522048708532
 30
0.0
 40
7.3159480451135988
100
AcDbArc
 50
86.304005650370854
 51
149.12387466962389
  0
ARC
  5
FA
100
AcDbEntity
  8
0
 62
256
370
-1
 48
1.0
  6
ByLayer
100
AcDbCircle
 10
27.221989536807076
 20
151.57522048708532
 30
0.0
 40
7.3159480451135988
100
AcDbArc
 50
30.876125330376166
 51
93.695994349629146
  0
ARC
  5
FB
100
AcDbEntity
  8
0
 62
256
370
-1
 48
1.0
  6
ByLayer
100
AcDbCircle
 10
42.466877604654385
 20
139.1617593728418
 30
0.0
 40
19.838240627158211
100
AcDbArc
 50
359.37181656072545
 51
96.410722631715871
  0
ARC
  5
FC
100
AcDbEntity
  8
0
 62
256
370
-1
 48
1.0
  6
ByLayer
100
AcDbCircle
 10
24.53534797299983
 20
139.1617593728418
 30
0.0
 40
19.838240627158211
100
AcDbArc
 50
83.589277368284144
 51
180.62818343927458
  0
ARC
  5
FD
100
AcDbEntity
  8
0
 62
256
370
-1
 48
1.0
  6
ByLayer
100
AcDbCircle
 10
11.38181711219497
 20
132.36987494436224
 30
0.0
 40
51.344753388173892
100
AcDbArc
 50
349.58021030647052
 51
7.3565741095069601
  0
ARC
  5
FE
100
AcDbEntity
  8
0
 62
256
370
-1
 48
1.0
  6
ByLayer
100
AcDbCircle
 10
55.620408465459235
 20
132.36987494436224
 30
0.0
 40
51.344753388173892
100
AcDbArc
 50
172.64342589049301
 51
190.41978969352945
  0
ARC
  5
FF
100
AcDbEntity
  8
0
 62
256
370
-1
 48
1.0
  6
ByLayer
100
AcDbCircle
 10
89.180270388176737
 20
117.21535171151257
 30
0.0
 40
27.924019480707241
100
AcDbArc
 50
167.86856927018187
 51
196.37362352314062
  0
ARC
  5
100
100
AcDbEntity
  8
0
 62
256
370
-1
 48
1.0
  6
ByLayer
100
AcDbCircle
 10
-22.178044810522518
 20
117.21535171151254
 30
0.0
 40
27.924019480707241
100
AcDbArc
 50
343.62637647685938
 51
12.131430729818131
  0
ARC
  5
101
100
AcDbEntity
  8
0
 62
256
370
-1
 48
1.0
  6
ByLayer
100
AcDbCircle
 10
43.756489901955177
 20
104.43226634344566
 30
0.0
 40
19.268673235216813
100
AcDbArc
 50
336.08534325706728
 51
14.766814223131078
  0
ARC
  5
102
100
AcDbEntity
  8
0
 62
256
370
-1
 48
1.0
  6
ByLayer
100
AcDbCircle
 10
23.245735675699049
 20
104.43226634344566
 30
0.0
 40
19.268673235216813
100
AcDbArc
 50
165.23318577686891
 51
203.91465674293275
  0
ARC
  5
103
100
AcDbEntity
  8
0
 62
256
370
-1
 48
1.0
  6
ByLayer
100
AcDbCircle
 10
118.37317013577398
 20
81.251400550458527
 30
0.0
 40
59.037988446376723
100
AcDbArc
 50
164.90989433583866
 51
180.1469873109767
  0
ARC
  5
104
100
AcDbEntity
  8
0
 62
256
370
-1
 48
1.0
  6
ByLayer
100
AcDbCircle
 10
-51.370944558119774
 20
81.251400550458541
 30
0.0
 40
59.037988446376723
100
AcDbArc
 50
359.85301268902327
 51
15.090105664161303
  0
ARC
  5
105
100
AcDbEntity
  8
0
 62
256
370
-1
 48
1.0
  6
ByLayer
100
AcDbCircle
 10
109.36147998139911
 20
75.725158695094009
 30
0.0
 40
50.314007983829278
100
AcDbArc
 50
173.8676871086569
 51
191.73287122741857
  0
ARC
  5
106
100
AcDbEntity
  8
0
 62
256
370
-1
 48
1.0
  6
ByLayer
100
AcDbCircle
 10
-42.359254403744927
 20
75.725158695094024
 30
0.0
 40
50.314007983829278
100
AcDbArc
 50
348.26712877258143
 51
6.1323128913430542
  0
ARC
  5
107
100
AcDbEntity
  8
0
 62
256
370
-1
 48
1.0
  6
ByLayer
100
AcDbCircle
 10
71.678835218398106
 20
74.511465934467424
 30
0.0
 40
14.677073125451757
100
AcDbArc
 50
194.26644250400793
 51
217.90843207115824
  0
ARC
  5
108
100
AcDbEntity
  8
0
 62
256
370
-1
 48
1.0
  6
ByLayer
100
AcDbCircle
 10
-4.6766096407439424
 20
74.511465934467452
 30
0.0
 40
14.677073125451757
100
AcDbArc
 50
322.09156792884176
 51
345.73355749599205
  0
ARC
  5
109
100
AcDbEntity
  8
0
 62
256
370
-1
 48
1.0
  6
ByLayer
100
AcDbCircle
 10
43.137014158581707
 20
70.464370342316045
 30
0.0
 40
14.323847336807248
100
AcDbArc
 50
338.79163292331287
 51
1.7210845026124435
  0
ARC
  5
10A
100
AcDbEntity
  8
0
 62
256
370
-1
 48
1.0
  6
ByLayer
100
AcDbCircle
 10
23.865211419072487
 20
70.464370342316045
 30
0.0
 40
14.323847336807248
100
AcDbArc
 50
178.27891549738757
 51
201.20836707668713
  0
ARC
  5
10B
100
AcDbEntity
  8
0
 62
256
370
-1
 48
1.0
  6
ByLayer
100
AcDbCircle
 10
74.073072161044436
 20
72.71969400402692
 30
0.0
 40
19.090572166904789
100
AcDbArc
 50
183.43813610394025
 51
202.92779421314114
  0
ARC
  5
10C
100
AcDbEntity
  8
0
 62
256
370
-1
 48
1.0
  6
ByLayer
100
AcDbCircle
 10
-7.0708465833902627
 20
72.719694004026934
 30
0.0
 40
19.090572166904789
100
AcDbArc
 50
337.07220578685883
 51
356.56186389605966
  0
ARC
  5
10D
100
AcDbEntity
  8
0
 62
256
370
-1
 48
1.0
  6
ByLayer
100
AcDbCircle
 10
41.356400972028894
 20
71.145093613187413
 30
0.0
 40
13.667216865860169
100
AcDbArc
 50
336.42715891170997
 51
1.8017869789722083
  0
ARC
  5
10E
100
AcDbEntity
  8
0
 62
256
370
-1
 48
1.0
  6
ByLayer
100
AcDbCircle
 10
25.645824605625329
 20
71.145093613187413
 30
0.0
 40
13.667216865860169
100
AcDbArc
 50
178.19821302102761
 51
203.57284108829003
  0
ARC
  5
10F
100
AcDbEntity
  8
0
 62
256
370
-1
 48
1.0
  6
ByLayer
100
AcDbCircle
 10
64.883178935240096
 20
71.137053289686293
 30
0.0
 40
12.279557508023757
100
AcDbArc
 50
180.03256849779262
 51
206.3883125197485
  0
ARC
  5
110
100
AcDbEntity
  8
0
 62
256
370
-1
 48
1.0
  6
ByLayer
100
AcDbCircle
 10
2.119046642414069
 20
71.137053289686321
 30
0.0
 40
12.279557508023757
100
AcDbArc
 50
333.61168748025148
 51
359.96743150221857
  0
ARC
  5
111
100
AcDbEntity
  8
0
 62
256
370
-1
 48
1.0
  6
ByLayer
100
AcDbCircle
 10
48.925501289887706
 20
71.712386888073837
 30
0.0
 40
3.7239322643223169
100
AcDbArc
 50
288.14299661920637
 51
351.00370301661218
  0
ARC
  5
112
100
AcDbEntity
  8
0
 62
256
370
-1
 48
1.0
  6
ByLayer
100
AcDbCircle
 10
18.076724287766503
 20
71.712386888073837
 30
0.0
 40
3.7239322643223169
100
AcDbArc
 50
188.99629698338387
 51
251.85700338079366
  0
ARC
  5
113
100
AcDbEntity
  8
0
 62
256
370
-1
 48
1.0
  6
ByLayer
100
AcDbCircle
 10
38.511481320928141
 20
124.780387302468
 30
0.0
 40
26.090420679539672
100
AcDbArc
 50
100.76996258670687
 51
101.07178002886496
  0
ARC
  5
114
100
AcDbEntity
  8
0
 62
256
370
-1
 48
1.0
  6
ByLayer
100
AcDbCircle
 10
38.511481320928141
 20
124.780387302468
 30
0.0
 40
26.090420679539672
100
AcDbArc
 50
58.186748635812528
 51
100.76996258670687
  0
ARC
  5
115
100
AcDbEntity
  8
0
 62
256
370
-1
 48
1.0
  6
ByLayer
100
AcDbCircle
 10
28.490744256726074
 20
124.780387302468
 30
0.0
 40
26.090420679539672
100
AcDbArc
 50
78.928219971135093
 51
79.230037413293047
  0
ARC
  5
116
100
AcDbEntity
  8
0
 62
256
370
-1
 48
1.0
  6
ByLayer
100
AcDbCircle
 10
28.490744256726074
 20
124.780387302468
 30
0.0
 40
26.090420679539672
100
AcDbArc
 50
79.230037413293047
 51
121.81325136418747
  0
ARC
  5
117
100
AcDbEntity
  8
0
 62
256
370
-1
 48
1.0
  6
ByLayer
100
AcDbCircle
 10
46.271471727319891
 20
137.29609400288837
 30
0.0
 40
11.528585359369449
100
AcDbArc
 50
19.91571534083112
 51
57.398782254094357
  0
ARC
  5
118
100
AcDbEntity
  8
0
 62
256
370
-1
 48
1.0
  6
ByLayer
100
AcDbCircle
 10
20.730753850334324
 20
137.29609400288837
 30
0.0
 40
11.528585359369449
100
AcDbArc
 50
122.60121774590563
 51
160.08428465916887
  0
ARC
  5
119
100
AcDbEntity
  8
0
 62
256
370
-1
 48
1.0
  6
ByLayer
100
AcDbCircle
 10
98.389261575289979
 20
104.35312684591169
 30
0.0
 40
43.269099638022368
100
AcDbArc
 50
161.01724327252995
 51
182.58294398063663
  0
ARC
  5
11A
100
AcDbEntity
  8
0
 62
256
370
-1
 48
1.0
  6
ByLayer
100
AcDbCircle
 10
-31.387035997635774
 20
104.35312684591169
 30
0.0
 40
43.269099638022368
100
AcDbArc
 50
357.41705601936332
 51
18.982756727470125
  0
ARC
  5
11B
100
AcDbEntity
  8
0
 62
256
370
-1
 48
1.0
  6
ByLayer
100
AcDbCircle
 10
35.146683844092379
 20
99.356384274426887
 30
0.0
 40
20.247982330026783
100
AcDbArc
 50
333.16505145412037
 51
8.6543947042346829
  0
ARC
  5
11C
100
AcDbEntity
  8
0
 62
256
370
-1
 48
1.0
  6
ByLayer
100
AcDbCircle
 10
31.855541733561832
 20
99.356384274426887
 30
0.0
 40
20.247982330026783
100
AcDbArc
 50
171.34560529576532
 51
206.83494854587963
  0
ARC
  5
11D
100
AcDbEntity
  8
0
 62
256
370
-1
 48
1.0
  6
ByLayer
100
AcDbCircle
 10
85.009828548029944
 20
74.349499925218822
 30
0.0
 40
35.534624478419303
100
AcDbArc
 50
153.48012590040369
 51
165.64908721866937
  0
ARC
  5
11E
100
AcDbEntity
  8
0
 62
256
370
-1
 48
1.0
  6
ByLayer
100
AcDbCircle
 10
-18.007602970375764
 20
74.349499925218851
 30
0.0
 40
35.534624478419303
100
AcDbArc
 50
14.350912781330544
 51
26.519874099596308
  0
ARC
  5
11F
100
AcDbEntity
  8
0
 62
256
370
-1
 48
1.0
  6
ByLayer
100
AcDbCircle
 10
27.051953199184812
 20
72.529690339145105
 30
0.0
 40
11.031326211894232
100
AcDbArc
 50
161.63493319683857
 51
199.76885300328217
  0
ARC
  5
120
100
AcDbEntity
  8
0
 62
256
370
-1
 48
1.0
  6
ByLayer
100
AcDbCircle
 10
27.051953199184812
 20
72.529690339145105
 30
0.0
 40
11.031326211894232
100
AcDbArc
 50
199.76885300328217
 51
203.25871833104387
  0
ARC
  5
121
100
AcDbEntity
  8
0
 62
256
370
-1
 48
1.0
  6
ByLayer
100
AcDbCircle
 10
39.95027237846935
 20
72.529690339145105
 30
0.0
 40
11.031326211894232
100
AcDbArc
 50
336.74128166895611
 51
18.365066803161383
  0
ARC
  5
122
100
AcDbEntity
  8
0
 62
256
370
-1
 48
1.0
  6
ByLayer
100
AcDbCircle
 10
-9.265289547744997
 20
78.989384353834751
 30
0.0
 40
26.019440650973735
100
AcDbArc
 50
4.828736303497017
 51
9.2171943454407366
  0
ARC
  5
123
100
AcDbEntity
  8
0
 62
256
370
-1
 48
1.0
  6
ByLayer
100
AcDbCircle
 10
-9.265289547744997
 20
78.989384353834751
 30
0.0
 40
26.019440650973735
100
AcDbArc
 50
353.41452214225313
 51
4.828736303497017
  0
ARC
  5
124
100
AcDbEntity
  8
0
 62
256
370
-1
 48
1.0
  6
ByLayer
100
AcDbCircle
 10
76.267515125399228
 20
78.989384353834765
 30
0.0
 40
26.019440650973735
100
AcDbArc
 50
170.78280565455918
 51
186.58547785774684
  0
ARC
  5
125
100
AcDbEntity
  8
0
 62
256
370
-1
 48
1.0
  6
ByLayer
100
AcDbCircle
 10
42.604064515368037
 20
135.29427363570667
 30
0.0
 40
0.2
100
AcDbArc
 50
101.29916323724746
 51
142.10280355061064
  0
ARC
  5
126
100
AcDbEntity
  8
0
 62
256
370
-1
 48
1.0
  6
ByLayer
100
AcDbCircle
 10
24.398161062286167
 20
135.29427363570667
 30
0.0
 40
0.2
100
AcDbArc
 50
37.897196449389362
 51
78.700836762752573
  0
ARC
  5
127
100
AcDbEntity
  8
0
 62
256
370
-1
 48
1.0
  6
ByLayer
100
AcDbCircle
 10
42.609798090245462
 20
135.40894513325506
 30
0.0
 40
0.2
100
AcDbArc
 50
212.17238599715952
 51
275.9541400116849
  0
ARC
  5
128
100
AcDbEntity
  8
0
 62
256
370
-1
 48
1.0
  6
ByLayer
100
AcDbCircle
 10
24.392427487408749
 20
135.40894513325506
 30
0.0
 40
0.2
100
AcDbArc
 50
264.0458599883151
 51
327.82761400284045
  0
ARC
  5
129
100
AcDbEntity
  8
0
 62
256
370
-1
 48
1.0
  6
ByLayer
100
AcDbCircle
 10
42.525153101208517
 20
135.35569829456077
 30
0.0
 40
0.1
100
AcDbArc
 50
142.10280355061195
 51
212.17238599716077
  0
ARC
  5
12A
100
AcDbEntity
  8
0
 62
256
370
-1
 48
1.0
  6
ByLayer
100
AcDbCircle
 10
24.477072476445692
 20
135.35569829456077
 30
0.0
 40
0.1
100
AcDbArc
 50
327.8276140028392
 51
37.897196449388034
  0
LINE
  5
12B
100
AcDbEntity
100
AcDbLine
  8
0
 62
256
370
-1
 48
1.0
  6
ByLayer
 10
32.641106553180506
 20
110.71703213290952
 30
0.0
 11
33.348110533956884
 21
115.39577858350319
 31
0.0
  0
ARC
  5
12C
100
AcDbEntity
  8
0
 62
256
370
-1
 48
1.0
  6
ByLayer
100
AcDbCircle
 10
33.503884781373543
 20
108.77903649210154
 30
0.0
 40
1.3993570897078125
100
AcDbArc
 50
43.050278744944983
 51
101.18371546818381
  0
ARC
  5
12D
100
AcDbEntity
  8
0
 62
256
370
-1
 48
1.0
  6
ByLayer
100
AcDbCircle
 10
33.135493955978745
 20
110.64232539991704
 30
0.0
 40
0.5
100
AcDbArc
 50
171.40706240593531
 51
281.18371546818366
  0
LINE
  5
12E
100
AcDbEntity
100
AcDbLine
  8
0
 62
256
370
-1
 48
1.0
  6
ByLayer
 10
34.302778226113702
 20
115.5163717614886
 30
0.0
 11
35.986557024255561
 21
111.54806379583718
 31
0.0
  0
ARC
  5
12F
100
AcDbEntity
  8
0
 62
256
370
-1
 48
1.0
  6
ByLayer
100
AcDbCircle
 10
34.913795043160206
 20
110.9170677540281
 30
0.0
 40
1.244577949693132
100
AcDbArc
 50
251.86792895676942
 51
30.463941135727779
  0
ARC
  5
130
100
AcDbEntity
  8
0
 62
256
370
-1
 48
1.0
  6
ByLayer
100
AcDbCircle
 10
33.842497936755123
 20
115.32107185051071
 30
0.0
 40
0.5
100
AcDbArc
 50
22.991827221296052
 51
171.40706240593551
  0
ARC
  5
131
100
AcDbEntity
  8
0
 62
256
370
-1
 48
1.0
  6
ByLayer
100
AcDbCircle
 10
20.891329742908983
 20
72.118121592565586
 30
0.0
 40
10.0
100
AcDbArc
 50
74.55767063485979
 51
115.02114923094906
  0
ARC
  5
132
100
AcDbEntity
  8
0
 62
256
370
-1
 48
1.0
  6
ByLayer
100
AcDbCircle
 10
46.110549972076257
 20
72.117697671867646
 30
0.0
 40
10.0
100
AcDbArc
 50
68.402857194366675
 51
105.44040314643739
  0
ARC
  5
133
100
AcDbEntity
  8
0
 62
256
370
-1
 48
1.0
  6
ByLayer
100
AcDbCircle
 10
21.130046243228691
 20
60.931086121419298
 30
0.0
 40
18.334041641302566
100
AcDbArc
 50
71.613354887672827
 51
103.81241145104319
  0
ARC
  5
134
100
AcDbEntity
  8
0
 62
256
370
-1
 48
1.0
  6
ByLayer
100
AcDbCircle
 10
41.891558927661947
 20
119.7175349849463
 30
0.0
 40
44.015347740147782
100
AcDbArc
 50
250.1048162981721
 51
269.81736607424608
  0
ARC
  5
135
100
AcDbEntity
  8
0
 62
256
370
-1
 48
1.0
  6
ByLayer
100
AcDbCircle
 10
52.058264167379264
 20
50.168948370629934
 30
0.0
 40
30.212903474905403
100
AcDbArc
 50
93.369284462234674
 51
115.39538664079858
  0
ARC
  5
136
100
AcDbEntity
  8
0
 62
256
370
-1
 48
1.0
  6
ByLayer
100
AcDbCircle
 10
10.202827749746621
 20
81.89422555195884
 30
0.0
 40
5.0
100
AcDbArc
 50
123.14282466394368
 51
154.36135683033822
  0
ARC
  5
137
100
AcDbEntity
  8
0
 62
256
370
-1
 48
1.0
  6
ByLayer
100
AcDbCircle
 10
50.592159754941989
 20
74.928624334204571
 30
0.0
 40
14.293502130000315
100
AcDbArc
 50
34.328947738562185
 51
43.943538705600425
  0
ARC
  5
138
100
AcDbEntity
  8
0
 62
256
370
-1
 48
1.0
  6
ByLayer
100
AcDbCircle
 10
57.28370425795039
 20
81.377842426700624
 30
0.0
 40
5.0
100
AcDbArc
 50
43.943538705600425
 51
63.499323681758824
  0
ARC
  5
139
100
AcDbEntity
  8
0
 62
256
370
-1
 48
1.0
  6
ByLayer
100
AcDbCircle
 10
58.266859061678574
 20
80.169633053096121
 30
0.0
 40
5.0
100
AcDbArc
 50
10.426001509802362
 51
34.328947738562171
  0
ARC
  5
13A
100
AcDbEntity
  8
0
 62
256
370
-1
 48
1.0
  6
ByLayer
100
AcDbCircle
 10
38.59705014791885
 20
80.528487331405515
 30
0.0
 40
20.570197989214567
100
AcDbArc
 50
158.13648003485017
 51
176.7095897520565
  0
ARC
  5
13B
100
AcDbEntity
  8
0
 62
256
370
-1
 48
1.0
  6
ByLayer
100
AcDbCircle
 10
58.223345901654653
 20
75.408599410685426
 30
0.0
 40
41.960300600165347
100
AcDbArc
 50
162.49548045279269
 51
172.09472700084874
  0
ARC
  5
13C
100
AcDbEntity
  8
0
 62
256
370
-1
 48
1.0
  6
ByLayer
100
AcDbCircle
 10
30.237702488993939
 20
83.19307673215431
 30
0.0
 40
18.932912330888552
100
AcDbArc
 50
355.34878189824047
 51
14.203832262597553
  0
ARC
  5
13D
100
AcDbEntity
  8
0
 62
256
370
-1
 48
1.0
  6
ByLayer
100
AcDbCircle
 10
38.29969448833495
 20
83.544664683392853
 30
0.0
 40
12.268837465730877
100
AcDbArc
 50
357.34549864630287
 51
19.468711254998702
  0
LINE
  5
13E
100
AcDbEntity
100
AcDbLine
  8
0
 62
256
370
-1
 48
1.0
  6
ByLayer
 10
51.762047165674048
 20
57.550188482097134
 30
0.0
 11
51.220658018585567
 21
56.41628621867951
 31
0.0
  0
LINE
  5
13F
100
AcDbEntity
100
AcDbLine
  8
0
 62
256
370
-1
 48
1.0
  6
ByLayer
 10
51.220658018585567
 20
56.41628621867951
 30
0.0
 11
50.375589828168032
 21
57.069293456729419
 31
0.0
  0
LINE
  5
140
100
AcDbEntity
100
AcDbLine
  8
0
 62
256
370
-1
 48
1.0
  6
ByLayer
 10
50.375589828168032
 20
57.069293456729419
 30
0.0
 11
50.375589828168032
 21
57.069293456729419
 31
0.0
  0
LINE
  5
141
100
AcDbEntity
100
AcDbLine
  8
0
 62
256
370
-1
 48
1.0
  6
ByLayer
 10
50.375589828168032
 20
57.069293456729419
 30
0.0
 11
49.991467923432793
 21
55.7632789806296
 31
0.0
  0
LINE
  5
142
100
AcDbEntity
100
AcDbLine
  8
0
 62
256
370
-1
 48
1.0
  6
ByLayer
 10
49.991467923432793
 20
55.7632789806296
 30
0.0
 11
49.501257456827858
 21
55.763278980629593
 31
0.0
  0
LINE
  5
143
100
AcDbEntity
100
AcDbLine
  8
0
 62
256
370
-1
 48
1.0
  6
ByLayer
 10
15.56843102511813
 20
52.108366442545773
 30
0.0
 11
16.334580380977837
 21
53.578911057483786
 31
0.0
  0
LINE
  5
144
100
AcDbEntity
100
AcDbLine
  8
0
 62
256
370
-1
 48
1.0
  6
ByLayer
 10
16.334580380977837
 20
53.578911057483786
 30
0.0
 11
16.657242780955432
 21
52.103882943300462
 31
0.0
  0
LINE
  5
145
100
AcDbEntity
100
AcDbLine
  8
0
 62
256
370
-1
 48
1.0
  6
ByLayer
 10
16.657242780955432
 20
52.103882943300462
 30
0.0
 11
17.501257456827826
 21
52.525890281236663
 31
0.0
  0
ARC
  5
146
100
AcDbEntity
  8
0
 62
256
370
-1
 48
1.0
  6
ByLayer
100
AcDbCircle
 10
26.976576192616402
 20
115.55176709223633
 30
0.0
 40
66.868500406947817
100
AcDbArc
 50
289.68509930159183
 51
292.67798902611418
  0
ARC
  5
147
100
AcDbEntity
  8
0
 62
256
370
-1
 48
1.0
  6
ByLayer
100
AcDbCircle
 10
26.976576192616402
 20
115.55176709223633
 30
0.0
 40
66.868500406947817
100
AcDbArc
 50
258.42865263988148
 51
261.85372491583803
  0
ARC
  5
148
100
AcDbEntity
  8
0
 62
256
370
-1
 48
1.0
  6
ByLayer
100
AcDbCircle
 10
27.415330919613993
 20
112.75630003569354
 30
0.0
 40
65.058005946297058
100
AcDbArc
 50
289.8452285047718
 51
293.0623239479047
  0
ARC
  5
149
100
AcDbEntity
  8
0
 62
256
370
-1
 48
1.0
  6
ByLayer
100
AcDbCircle
 10
27.415330919613993
 20
112.75630003569354
 30
0.0
 40
65.058005946297058
100
AcDbArc
 50
257.5395103460865
 51
261.2346473750452
  0
LINE
  5
14A
100
AcDbEntity
100
AcDbLine
  8
0
 62
256
370
-1
 48
1.0
  6
ByLayer
 10
12.14891754190818
 20
44.410874184636143
 30
0.0
 11
16.053561702490992
 21
42.724737047638399
 31
0.0
  0
LINE
  5
14B
100
AcDbEntity
100
AcDbLine
  8
0
 62
256
370
-1
 48
1.0
  6
ByLayer
 10
16.053561702490992
 20
42.724737047638399
 30
0.0
 11
18.841364838297462
 21
43.361949192965596
 31
0.0
  0
LINE
  5
14C
100
AcDbEntity
100
AcDbLine
  8
0
 62
256
370
-1
 48
1.0
  6
ByLayer
 10
18.841364838297462
 20
43.361949192965596
 30
0.0
 11
25.102876864680738
 21
41.924376837882001
 31
0.0
  0
ARC
  5
14D
100
AcDbEntity
  8
0
 62
256
370
-1
 48
1.0
  6
ByLayer
100
AcDbCircle
 10
39.623541424822264
 20
-45.373250600256462
 30
0.0
 40
88.497036422674483
100
AcDbArc
 50
89.377906934642297
 51
99.443840461015952
  0
LINE
  5
14E
100
AcDbEntity
100
AcDbLine
  8
0
 62
256
370
-1
 48
1.0
  6
ByLayer
 10
40.584385512445223
 20
43.118569554125351
 30
0.0
 11
41.858809803099618
 21
43.702410854899675
 31
0.0
  0
LINE
  5
14F
100
AcDbEntity
100
AcDbLine
  8
0
 62
256
370
-1
 48
1.0
  6
ByLayer
 10
41.858809803099611
 20
43.702410854899675
 30
0.0
 11
43.770446239081195
 21
42.640660445129953
 31
0.0
  0
LINE
  5
150
100
AcDbEntity
100
AcDbLine
  8
0
 62
256
370
-1
 48
1.0
  6
ByLayer
 10
43.770446239081195
 20
42.640660445129953
 30
0.0
 11
46.717552411219472
 21
43.676130181286652
 31
0.0
  0
LINE
  5
151
100
AcDbEntity
100
AcDbLine
  8
0
 62
256
370
-1
 48
1.0
  6
ByLayer
 10
46.717552411219472
 20
43.676130181286652
 30
0.0
 11
50.859431355846226
 21
42.720311963295856
 31
0.0
  0
LINE
  5
152
100
AcDbEntity
100
AcDbLine
  8
0
 62
256
370
-1
 48
1.0
  6
ByLayer
 10
50.859431355846226
 20
42.720311963295856
 30
0.0
 11
53.169325382657306
 21
44.870902953775136
 31
0.0
  0
LINE
  5
153
100
AcDbEntity
100
AcDbLine
  8
0
 62
256
370
-1
 48
1.0
  6
ByLayer
 10
53.169325382657306
 20
44.870902953775136
 30
0.0
 11
54.227706236884991
 21
46.935663624218975
 31
0.0
  0
ARC
  5
154
100
AcDbEntity
  8
0
 62
256
370
-1
 48
1.0
  6
ByLayer
100
AcDbCircle
 10
272.88271178313232
 20
35.593120171758137
 30
0.0
 40
217.52738678825887
100
AcDbArc
 50
178.27964011529599
 51
182.4997166223269
  0
ARC
  5
155
100
AcDbEntity
  8
0
 62
256
370
-1
 48
1.0
  6
ByLayer
100
AcDbCircle
 10
55.636027334989279
 20
13.364580855835605
 30
0.0
 40
2.7178257342917806
100
AcDbArc
 50
91.554135591333988
 51
151.48526278845506
  0
ARC
  5
156
100
AcDbEntity
  8
0
 62
256
370
-1
 48
1.0
  6
ByLayer
100
AcDbCircle
 10
50.588396100480665
 20
13.630061520385247
 30
0.0
 40
2.8526937366419856
100
AcDbArc
 50
21.20783853190316
 51
81.884743034684803
  0
LINE
  5
157
100
AcDbEntity
100
AcDbLine
  8
0
 62
256
370
-1
 48
1.0
  6
ByLayer
 10
12.045157296227954
 20
43.663379689306211
 30
0.0
 11
11.37023103428794
 21
37.978417202300179
 31
0.0
  0
LINE
  5
158
100
AcDbEntity
100
AcDbLine
  8
0
 62
256
370
-1
 48
1.0
  6
ByLayer
 10
12.121829014330599
 20
20.173220629431871
 30
0.0
 11
11.698648279259118
 21
16.606411576686526
 31
0.0
  0
ARC
  5
159
100
AcDbEntity
  8
0
 62
256
370
-1
 48
1.0
  6
ByLayer
100
AcDbCircle
 10
17.723066864315797
 20
4.7448226502422042
 30
0.0
 40
13.303793111286829
100
AcDbArc
 50
95.702006306321735
 51
116.92569854619947
  0
ARC
  5
15A
100
AcDbEntity
  8
0
 62
256
370
-1
 48
1.0
  6
ByLayer
100
AcDbCircle
 10
19.455835301569916
 20
14.51250850606506
 30
0.0
 40
4.6231155746521404
100
AcDbArc
 50
103.45441883776572
 51
131.35441868793581
  0
ARC
  5
15B
100
AcDbEntity
  8
0
 62
256
370
-1
 48
1.0
  6
ByLayer
100
AcDbCircle
 10
26.309796644015776
 20
29.299172102441403
 30
0.0
 40
15.0
100
AcDbArc
 50
185.14493620247404
 51
194.19894365670308
  0
ARC
  5
15C
100
AcDbEntity
  8
0
 62
256
370
-1
 48
1.0
  6
ByLayer
100
AcDbCircle
 10
-2.7736995274245944
 20
21.940486727606213
 30
0.0
 40
15.0
100
AcDbArc
 50
353.23382517744693
 51
14.198943656703049
  0
ARC
  5
15D
100
AcDbEntity
  8
0
 62
256
370
-1
 48
1.0
  6
ByLayer
100
AcDbCircle
 10
20.546686224875639
 20
-21.402841510134522
 30
0.0
 40
40.469619029435421
100
AcDbArc
 50
76.633576767326986
 51
93.068765650952614
  0
ARC
  5
15E
100
AcDbEntity
  8
0
 62
256
370
-1
 48
1.0
  6
ByLayer
100
AcDbCircle
 10
34.067088651096519
 20
15.873582841947325
 30
0.0
 40
6.8835978194072736
100
AcDbArc
 50
86.403684467548359
 51
125.98421297336539
  0
ARC
  5
15F
100
AcDbEntity
  8
0
 62
256
370
-1
 48
1.0
  6
ByLayer
100
AcDbCircle
 10
39.855839413206866
 20
21.131015251061655
 30
0.0
 40
4.5462369146522361
100
AcDbArc
 50
251.2907011349368
 51
278.29781874227712
  0
ARC
  5
160
100
AcDbEntity
  8
0
 62
256
370
-1
 48
1.0
  6
ByLayer
100
AcDbCircle
 10
45.459199123350857
 20
-0.6485137190022385
 30
0.0
 40
17.975102626227006
100
AcDbArc
 50
72.076114297499615
 51
105.97560835673271
  0
ARC
  5
161
100
AcDbEntity
  8
0
 62
256
370
-1
 48
1.0
  6
ByLayer
100
AcDbCircle
 10
26.949878112292193
 20
41.975393494107529
 30
0.0
 40
15.0
100
AcDbArc
 50
163.19037500820926
 51
173.53868122544617
  0
ARC
  5
162
100
AcDbEntity
  8
0
 62
256
370
-1
 48
1.0
  6
ByLayer
100
AcDbCircle
 10
9.1700119172742589
 20
17.508744190709514
 30
0.0
 40
9.3315034552747562
100
AcDbArc
 50
350.74981216724723
 51
9.250187832738991
  0
ARC
  5
163
100
AcDbEntity
  8
0
 62
256
370
-1
 48
1.0
  6
ByLayer
100
AcDbCircle
 10
1.7665413853369674
 20
16.666324513520543
 30
0.0
 40
46.681066315461443
100
AcDbArc
 50
356.83414931154999
 51
0.5037416854908957
  0
ARC
  5
164
100
AcDbEntity
  8
0
 62
256
370
-1
 48
1.0
  6
ByLayer
100
AcDbCircle
 10
24.036451999501331
 20
26.37053866036247
 30
0.0
 40
11.805098244950338
100
AcDbArc
 50
241.37080495636414
 51
291.94013946560614
  0
ARC
  5
165
100
AcDbEntity
  8
0
 62
256
370
-1
 48
1.0
  6
ByLayer
100
AcDbCircle
 10
43.650110909254941
 20
27.946558095470927
 30
0.0
 40
14.033213529539282
100
AcDbArc
 50
249.00537126665085
 51
289.81883454830762
  0
ARC
  5
166
100
AcDbEntity
  8
0
 62
256
370
-1
 48
1.0
  6
ByLayer
100
AcDbCircle
 10
-170.00978950086269
 20
21.093595244984552
 30
0.0
 40
225.62778371975696
100
AcDbArc
 50
358.72710327418065
 51
1.2728967258194099
  0
ARC
  5
167
100
AcDbEntity
  8
0
 62
256
370
-1
 48
1.0
  6
ByLayer
100
AcDbCircle
 10
67.712560369868299
 20
32.96622878335922
 30
0.0
 40
56.564831014562095
100
AcDbArc
 50
174.91637516293525
 51
185.0836248370648
  0
ARC
  5
168
100
AcDbEntity
  8
0
 62
256
370
-1
 48
1.0
  6
ByLayer
100
AcDbCircle
 10
-37.725463460005322
 20
5.9652511298035806
 30
0.0
 40
78.961254053692485
100
AcDbArc
 50
7.7640033549185521
 51
23.565768082623972
  0
ARC
  5
169
100
AcDbEntity
  8
0
 62
256
370
-1
 48
1.0
  6
ByLayer
100
AcDbCircle
 10
41.48088228506559
 20
19.308502646307304
 30
0.0
 40
11.65556967380215
100
AcDbArc
 50
152.29744226224253
 51
186.59172401578331
  0
ARC
  5
16A
100
AcDbEntity
  8
0
 62
256
370
-1
 48
1.0
  6
ByLayer
100
AcDbCircle
 10
-2202.0305095680828
 20
-200.35862628246977
 30
0.0
 40
2250.930176020529
100
AcDbArc
 50
5.5368641801232892
 51
5.9193743858565249
  0
LINE
  5
16B
100
AcDbEntity
100
AcDbLine
  8
0
 62
256
370
-1
 48
1.0
  6
ByLayer
 10
36.291898586870204
 20
33.466337605677957
 30
0.0
 11
34.766181650097842
 21
29.652045263747056
 31
0.0
  0
ARC
  5
16C
100
AcDbEntity
  8
0
 62
256
370
-1
 48
1.0
  6
ByLayer
100
AcDbCircle
 10
48.535687853344122
 20
25.659874989631771
 30
0.0
 40
14.336552046387155
100
AcDbArc
 50
163.83162760020048
 51
191.73664882064659
  0
ARC
  5
16D
100
AcDbEntity
  8
0
 62
256
370
-1
 48
1.0
  6
ByLayer
100
AcDbCircle
 10
-266.77019286656667
 20
15.705419460249843
 30
0.0
 40
320.01978301315
100
AcDbArc
 50
359.81319296728412
 51
5.0356984857739189
  0
ARC
  5
16E
100
AcDbEntity
  8
0
 62
256
370
-1
 48
1.0
  6
ByLayer
100
AcDbCircle
 10
34.764683091543127
 20
35.089842450978139
 30
0.0
 40
20.208851504673788
100
AcDbArc
 50
157.80255308944507
 51
190.0486229360319
  0
ARC
  5
16F
100
AcDbEntity
  8
0
 62
256
370
-1
 48
1.0
  6
ByLayer
100
AcDbCircle
 10
-105.46934389076436
 20
11.081552224674276
 30
0.0
 40
122.06586158213783
100
AcDbArc
 50
3.2410596763940731
 51
9.6597026070069578
  0
ARC
  5
170
100
AcDbEntity
  8
0
 62
256
370
-1
 48
1.0
  6
ByLayer
100
AcDbCircle
 10
-7.2328523829611493
 20
27.132252279261465
 30
0.0
 40
38.469478027479013
100
AcDbArc
 50
356.41526400829406
 51
6.9420829618855064
  0
ARC
  5
171
100
AcDbEntity
  8
0
 62
256
370
-1
 48
1.0
  6
ByLayer
100
AcDbCircle
 10
24.225639310537836
 20
38.262350688876346
 30
0.0
 40
9.3421146504414043
100
AcDbArc
 50
316.07779634631481
 51
340.26731050033874
  0
ARC
  5
172
100
AcDbEntity
  8
0
 62
256
370
-1
 48
1.0
  6
ByLayer
100
AcDbCircle
 10
36.139157677253579
 20
34.771515349884673
 30
0.0
 40
3.1380990457705225
100
AcDbArc
 50
118.31785717373538
 51
173.84182503944484
  0
LINE
  5
173
100
AcDbEntity
100
AcDbLine
  8
0
 62
256
370
-1
 48
1.0
  6
ByLayer
 10
25.774121299951602
 20
90.315020150516375
 30
0.0
 11
33.220550528532669
 21
84.949123711613737
 31
0.0
  0
LINE
  5
174
100
AcDbEntity
100
AcDbLine
  8
0
 62
256
370
-1
 48
1.0
  6
ByLayer
 10
33.574456024270368
 20
84.929621700408404
 30
0.0
 11
41.228370176750147
 21
90.314760373413478
 31
0.0
  0
LINE
  5
175
100
AcDbEntity
100
AcDbLine
  8
0
 62
256
370
-1
 48
1.0
  6
ByLayer
 10
25.29642740854138
 20
89.79148780403321
 30
0.0
 11
32.402275611616886
 21
84.634672250944121
 31
0.0
  0
LINE
  5
176
100
AcDbEntity
100
AcDbLine
  8
0
 62
256
370
-1
 48
1.0
  6
ByLayer
 10
34.277156619769471
 20
84.597115502273667
 30
0.0
 11
41.435196582708727
 21
89.762208549051167
 31
0.0
  0
CIRCLE
  5
177
100
AcDbEntity
100
AcDbCircle
  8
0
 62
256
370
-1
 48
1.0
  6
ByLayer
 10
33.316892779413159
 20
83.476523690185886
 30
0.0
 40
0.9230442177490817
  0
CIRCLE
  5
178
100
AcDbEntity
100
AcDbCircle
  8
0
 62
256
370
-1
 48
1.0
  6
ByLayer
 10
33.316892779413159
 20
83.476523690185886
 30
0.0
 40
1.4757481670034476
  0
LINE
  5
179
100
AcDbEntity
100
AcDbLine
  8
0
 62
256
370
-1
 48
1.0
  6
ByLayer
 10
10.646037118821283
 20
53.083874797096783
 30
0.0
 11
3.879340773061017
 21
50.761576642930464
 31
0.0
  0
LINE
  5
17A
100
AcDbEntity
100
AcDbLine
  8
0
 62
256
370
-1
 48
1.0
  6
ByLayer
 10
56.356188458833238
 20
53.083874797096847
 30
0.0
 11
63.122884804593582
 21
50.761576642930578
 31
0.0
  0
LINE
  5
17B
100
AcDbEntity
100
AcDbLine
  8
0
 62
256
370
-1
 48
1.0
  6
ByLayer
 10
10.513008918330154
 20
52.338822984645375
 30
0.0
 11
3.8700028402859594
 21
50.164748268194572
 31
0.0
  0
LINE
  5
17C
100
AcDbEntity
100
AcDbLine
  8
0
 62
256
370
-1
 48
1.0
  6
ByLayer
 10
56.489216659324399
 20
52.338822984645482
 30
0.0
 11
63.132222737368565
 21
50.164748268194657
 31
0.0
  0
LINE
  5
17D
100
AcDbEntity
100
AcDbLine
  8
0
 62
256
370
-1
 48
1.0
  6
ByLayer
 10
3.7782992710091641
 20
52.498744603620779
 30
0.0
 11
6.373200350343712
 21
51.617457444601484
 31
0.0
  0
LINE
  5
17E
100
AcDbEntity
100
AcDbLine
  8
0
 62
256
370
-1
 48
1.0
  6
ByLayer
 10
63.22392630664541
 20
52.498744603620878
 30
0.0
 11
60.629025227310819
 21
51.617457444601584
 31
0.0
  0
LINE
  5
17F
100
AcDbEntity
100
AcDbLine
  8
0
 62
256
370
-1
 48
1.0
  6
ByLayer
 10
3.8340286972466409
 20
51.65943130292797
 30
0.0
 11
5.2896342135223797
 21
51.24558267575155
 31
0.0
  0
LINE
  5
180
100
AcDbEntity
100
AcDbLine
  8
0
 62
256
370
-1
 48
1.0
  6
ByLayer
 10
63.168196880407969
 20
51.659431302928084
 30
0.0
 11
61.712591364132194
 21
51.245582675751642
 31
0.0
  0
LINE
  5
181
100
AcDbEntity
100
AcDbLine
  8
0
 62
256
370
-1
 48
1.0
  6
ByLayer
 10
8.6514107547096035
 20
48.356679679302708
 30
0.0
 11
4.9103548078777202
 21
46.450979176247699
 31
0.0
  0
LINE
  5
182
100
AcDbEntity
100
AcDbLine
  8
0
 62
256
370
-1
 48
1.0
  6
ByLayer
 10
58.076039396191888
 20
48.496650766726354
 30
0.0
 11
62.091870769776847
 21
46.450979176247799
 31
0.0
  0
LINE
  5
183
100
AcDbEntity
100
AcDbLine
  8
0
 62
256
370
-1
 48
1.0
  6
ByLayer
 10
10.578687578013021
 20
50.504220900449582
 30
0.0
 11
9.7722654846710775
 21
48.613064806952835
 31
0.0
  0
LINE
  5
184
100
AcDbEntity
100
AcDbLine
  8
0
 62
256
370
-1
 48
1.0
  6
ByLayer
 10
56.423537999641503
 20
50.504220900449653
 30
0.0
 11
57.403282141200336
 21
48.206603909702139
 31
0.0
  0
ARC
  5
185
100
AcDbEntity
  8
0
 62
256
370
-1
 48
1.0
  6
ByLayer
100
AcDbCircle
 10
-9.8318132166450454
 20
100.21268841583348
 30
0.0
 40
24.798994862012471
100
AcDbArc
 50
351.44652185816318
 51
14.925843618613149
  0
ARC
  5
186
100
AcDbEntity
  8
0
 62
256
370
-1
 48
1.0
  6
ByLayer
100
AcDbCircle
 10
37.916240758528289
 20
86.482695950844032
 30
0.0
 40
25.302739473778068
100
AcDbArc
 50
156.6181404834266
 51
168.27333068516484
  0
ARC
  5
187
100
AcDbEntity
  8
0
 62
256
370
-1
 48
1.0
  6
ByLayer
100
AcDbCircle
 10
31.845939790080354
 20
94.065516897976067
 30
0.0
 40
21.687293896283702
100
AcDbArc
 50
4.8512955566724436
 51
26.507752688165702
  0
ARC
  5
188
100
AcDbEntity
  8
0
 62
256
370
-1
 48
1.0
  6
ByLayer
100
AcDbCircle
 10
954.1778695573455
 20
-80.647048943866238
 30
0.0
 40
917.86133916171832
100
AcDbArc
 50
168.91029312174558
 51
169.45551563810892
  0
ARC
  5
189
100
AcDbEntity
  8
0
 62
256
370
-1
 48
1.0
  6
ByLayer
100
AcDbCircle
 10
102.56436727962539
 20
162.01281115017838
 30
0.0
 40
32.48598998282958
100
AcDbArc
 50
219.11127300616974
 51
290.38491953897903
  0
ARC
  5
18A
100
AcDbEntity
  8
0
 62
256
370
-1
 48
1.0
  6
ByLayer
100
AcDbCircle
 10
96.939313902833121
 20
154.78769220199726
 30
0.0
 40
28.748117697570081
100
AcDbArc
 50
207.95171824260652
 51
306.10606973802288
  0
LINE
  5
18B
100
AcDbEntity
100
AcDbLine
  8
0
 62
256
370
-1
 48
1.0
  6
ByLayer
 10
77.299212437603117
 20
141.47212146357009
 30
0.0
 11
65.111238451586516
 21
153.320895724433
 31
0.0
  0
LINE
  5
18C
100
AcDbEntity
100
AcDbLine
  8
0
 62
256
370
-1
 48
1.0
  6
ByLayer
 10
71.54486848872547
 20
141.31266295292886
 30
0.0
 11
62.811681798481345
 21
149.8027990320997
 31
0.0
  0
ARC
  5
18D
100
AcDbEntity
  8
0
 62
256
370
-1
 48
1.0
  6
ByLayer
100
AcDbCircle
 10
61.717438136087445
 20
153.02862221297781
 30
0.0
 40
3.4063623393555518
100
AcDbArc
 50
4.9221582520135962
 51
288.73764410692718
  0
ARC
  5
18E
100
AcDbEntity
  8
0
 62
256
370
-1
 48
1.0
  6
ByLayer
100
AcDbCircle
 10
107.60927546850809
 20
136.32883263509865
 30
0.0
 40
8.525759900485756
100
AcDbArc
 50
30.141385552075498
 51
112.98871680208048
  0
ARC
  5
18F
100
AcDbEntity
  8
0
 62
256
370
-1
 48
1.0
  6
ByLayer
100
AcDbCircle
 10
130.82816455085515
 20
136.32883263509865
 30
0.0
 40
8.525759900485756
100
AcDbArc
 50
67.011283197919454
 51
149.85861444792451
  0
ARC
  5
190
100
AcDbEntity
  8
0
 62
256
370
-1
 48
1.0
  6
ByLayer
100
AcDbCircle
 10
97.85791095692565
 20
142.16247414168902
 30
0.0
 40
6.7303515530278295
100
AcDbArc
 50
17.421127468511287
 51
110.69428155174509
  0
ARC
  5
191
100
AcDbEntity
  8
0
 62
256
370
-1
 48
1.0
  6
ByLayer
100
AcDbCircle
 10
140.57952906243759
 20
142.16247414168902
 30
0.0
 40
6.7303515530278295
100
AcDbArc
 50
69.30571844825495
 51
162.57887253148871
  0
ARC
  5
192
100
AcDbEntity
  8
0
 62
256
370
-1
 48
1.0
  6
ByLayer
100
AcDbCircle
 10
84.308751015783173
 20
142.50696473207572
 30
0.0
 40
12.657329823033511
100
AcDbArc
 50
28.047985097701719
 51
65.442387340227086
  0
ARC
  5
193
100
AcDbEntity
  8
0
 62
256
370
-1
 48
1.0
  6
ByLayer
100
AcDbCircle
 10
154.12868900358006
 20
142.50696473207572
 30
0.0
 40
12.657329823033511
100
AcDbArc
 50
114.5576126597729
 51
151.95201490229826
  0
ARC
  5
194
100
AcDbEntity
  8
0
 62
256
370
-1
 48
1.0
  6
ByLayer
100
AcDbCircle
 10
111.83469948310427
 20
108.66857039603197
 30
0.0
 40
50.521727357136683
100
AcDbArc
 50
102.78250524370398
 51
116.14922877300177
  0
ARC
  5
195
100
AcDbEntity
  8
0
 62
256
370
-1
 48
1.0
  6
ByLayer
100
AcDbCircle
 10
126.60274053625896
 20
108.66857039603197
 30
0.0
 40
50.521727357136683
100
AcDbArc
 50
63.85077122699829
 51
77.217494756296063
  0
ARC
  5
196
100
AcDbEntity
  8
0
 62
256
370
-1
 48
1.0
  6
ByLayer
100
AcDbCircle
 10
92.651452068861389
 20
118.26409497023147
 30
0.0
 40
40.473699184991361
100
AcDbArc
 50
56.833659887162902
 51
78.592267478541032
  0
ARC
  5
197
100
AcDbEntity
  8
0
 62
256
370
-1
 48
1.0
  6
ByLayer
100
AcDbCircle
 10
145.78598795050183
 20
118.26409497023147
 30
0.0
 40
40.473699184991361
100
AcDbArc
 50
101.40773252145895
 51
123.50614547842522
  0
XLINE
  5
198
100
AcDbEntity
100
AcDbLine
  8
0
 62
256
370
-1
 48
1.0
  6
ByLayer
 10
119.21872000968162
 20
156.22003676823803
 30
0.0
 11
0.0
 21
1.0
 31
0.0
  0
ARC
  5
199
100
AcDbEntity
  8
0
 62
256
370
-1
 48
1.0
  6
ByLayer
100
AcDbCircle
 10
128.42506741726203
 20
138.26479596066699
 30
0.0
 40
5.4953952678122651
100
AcDbArc
 50
154.73893653239261
 51
229.42189978782147
  0
ARC
  5
19A
100
AcDbEntity
  8
0
 62
256
370
-1
 48
1.0
  6
ByLayer
100
AcDbCircle
 10
129.55907221726306
 20
145.19683181396641
 30
0.0
 40
12.062858906987127
100
AcDbArc
 50
247.02405981282365
 51
295.20073941977159
  0
ARC
  5
19B
100
AcDbEntity
  8
0
 62
256
370
-1
 48
1.0
  6
ByLayer
100
AcDbCircle
 10
137.5248580224808
 20
126.85567135181135
 30
0.0
 40
7.9472029743993833
100
AcDbArc
 50
19.45796858079153
 51
110.85725320829837
  0
LINE
  5
19C
100
AcDbEntity
100
AcDbLine
  8
0
 62
256
370
-1
 48
1.0
  6
ByLayer
 10
145.01816534968896
 20
129.50300593895952
 30
0.0
 11
146.30851994397648
 21
129.75789079709037
 31
0.0
  0
LINE
  5
19D
100
AcDbEntity
100
AcDbLine
  8
0
 62
256
370
-1
 48
1.0
  6
ByLayer
 10
146.30851994397648
 20
129.75789079709037
 30
0.0
 11
146.22886842581059
 21
126.97008766128391
 31
0.0
  0
LINE
  5
19E
100
AcDbEntity
100
AcDbLine
  8
0
 62
256
370
-1
 48
1.0
  6
ByLayer
 10
146.22886842581059
 20
126.97008766128391
 30
0.0
 11
142.24629251751566
 21
128.0852089156065
 31
0.0
  0
LINE
  5
19F
100
AcDbEntity
100
AcDbLine
  8
0
 62
256
370
-1
 48
1.0
  6
ByLayer
 10
142.24629251751566
 20
128.0852089156065
 30
0.0
 11
143.75967136266772
 21
128.7224210609337
 31
0.0
  0
ARC
  5
1A0
100
AcDbEntity
  8
0
 62
256
370
-1
 48
1.0
  6
ByLayer
100
AcDbCircle
 10
138.07294540923399
 20
126.40903864646592
 30
0.0
 40
6.1392662643857436
100
AcDbArc
 50
22.136684506604958
 51
108.6161859210674
  0
ARC
  5
1A1
100
AcDbEntity
  8
0
 62
256
370
-1
 48
1.0
  6
ByLayer
100
AcDbCircle
 10
129.85775906447896
 20
144.95521604397263
 30
0.0
 40
14.182202148816177
100
AcDbArc
 50
244.56701686301827
 51
296.17227326067575
  0
ARC
  5
1A2
100
AcDbEntity
  8
0
 62
256
370
-1
 48
1.0
  6
ByLayer
100
AcDbCircle
 10
102.33079766372725
 20
130.67573561688599
 30
0.0
 40
12.426955135142295
100
AcDbArc
 50
342.65081545945543
 51
6.8013926258403288
  0
ARC
  5
1A3
100
AcDbEntity
  8
0
 62
256
370
-1
 48
1.0
  6
ByLayer
100
AcDbCircle
 10
136.10664235563598
 20
130.67573561688599
 30
0.0
 40
12.426955135142295
100
AcDbArc
 50
173.19860737415968
 51
197.34918454054463
  0
ARC
  5
1A4
100
AcDbEntity
  8
0
 62
256
370
-1
 48
1.0
  6
ByLayer
100
AcDbCircle
 10
115.40515145557038
 20
120.26381793292188
 30
0.0
 40
6.8150453075928734
100
AcDbArc
 50
100.2505768953156
 51
113.23409720877061
  0
ARC
  5
1A5
100
AcDbEntity
  8
0
 62
256
370
-1
 48
1.0
  6
ByLayer
100
AcDbCircle
 10
123.03228856379285
 20
120.26381793292188
 30
0.0
 40
6.8150453075928734
100
AcDbArc
 50
66.765902791229408
 51
79.749423104684453
  0
LINE
  5
1A6
100
AcDbEntity
100
AcDbLine
  8
0
 62
256
370
-1
 48
1.0
  6
ByLayer
 10
112.11803045990743
 20
125.72410860693779
 30
0.0
 11
112.11806061901491
 21
125.72436495935133
 31
0.0
  0
LINE
  5
1A7
100
AcDbEntity
100
AcDbLine
  8
0
 62
256
370
-1
 48
1.0
  6
ByLayer
 10
126.31940955945579
 20
125.72410860693779
 30
0.0
 11
126.31937940034831
 21
125.72436495935133
 31
0.0
  0
LINE
  5
1A8
100
AcDbEntity
100
AcDbLine
  8
0
 62
256
370
-1
 48
1.0
  6
ByLayer
 10
112.11806061901491
 20
125.72436495935133
 30
0.0
 11
113.23841617449268
 21
126.10848686408657
 31
0.0
  0
LINE
  5
1A9
100
AcDbEntity
100
AcDbLine
  8
0
 62
256
370
-1
 48
1.0
  6
ByLayer
 10
126.31937940034831
 20
125.72436495935133
 30
0.0
 11
125.19902384487054
 21
126.10848686408657
 31
0.0
  0
LINE
  5
1AA
100
AcDbEntity
100
AcDbLine
  8
0
 62
256
370
-1
 48
1.0
  6
ByLayer
 10
113.23841617449268
 20
126.10848686408657
 30
0.0
 11
113.20640601576476
 21
125.59632432443959
 31
0.0
  0
LINE
  5
1AB
100
AcDbEntity
100
AcDbLine
  8
0
 62
256
370
-1
 48
1.0
  6
ByLayer
 10
125.19902384487054
 20
126.10848686408657
 30
0.0
 11
125.23103400359848
 21
125.59632432443959
 31
0.0
  0
LINE
  5
1AC
100
AcDbEntity
100
AcDbLine
  8
0
 62
256
370
-1
 48
1.0
  6
ByLayer
 10
113.20640601576476
 20
125.59632432443959
 30
0.0
 11
113.20640612340894
 21
125.20000645590675
 31
0.0
  0
LINE
  5
1AD
100
AcDbEntity
100
AcDbLine
  8
0
 62
256
370
-1
 48
1.0
  6
ByLayer
 10
125.23103400359848
 20
125.59632432443959
 30
0.0
 11
125.23103389595428
 21
125.20000645590675
 31
0.0
  0
LINE
  5
1AE
100
AcDbEntity
100
AcDbLine
  8
0
 62
256
370
-1
 48
1.0
  6
ByLayer
 10
113.20640612340894
 20
125.20000645590675
 30
0.0
 11
113.81459903159553
 21
125.91642591171896
 31
0.0
  0
LINE
  5
1AF
100
AcDbEntity
100
AcDbLine
  8
0
 62
256
370
-1
 48
1.0
  6
ByLayer
 10
125.23103389595428
 20
125.20000645590675
 30
0.0
 11
124.62284098776769
 21
125.91642591171896
 31
0.0
  0
LINE
  5
1B0
100
AcDbEntity
100
AcDbLine
  8
0
 62
256
370
-1
 48
1.0
  6
ByLayer
 10
113.81459903159553
 20
125.91642591171896
 30
0.0
 11
113.81459903159553
 21
125.91642591171896
 31
0.0
  0
LINE
  5
1B1
100
AcDbEntity
100
AcDbLine
  8
0
 62
256
370
-1
 48
1.0
  6
ByLayer
 10
124.62284098776769
 20
125.91642591171896
 30
0.0
 11
124.62284098776769
 21
125.91642591171896
 31
0.0
  0
LINE
  5
1B2
100
AcDbEntity
100
AcDbLine
  8
0
 62
256
370
-1
 48
1.0
  6
ByLayer
 10
113.81459903159553
 20
125.91642591171896
 30
0.0
 11
114.26274127448774
 21
125.20000674281876
 31
0.0
  0
LINE
  5
1B3
100
AcDbEntity
100
AcDbLine
  8
0
 62
256
370
-1
 48
1.0
  6
ByLayer
 10
124.62284098776769
 20
125.91642591171896
 30
0.0
 11
124.1746987448755
 21
125.20000674281876
 31
0.0
  0
LINE
  5
1B4
100
AcDbEntity
100
AcDbLine
  8
0
 62
256
370
-1
 48
1.0
  6
ByLayer
 10
114.26274127448774
 20
125.20000674281873
 30
0.0
 11
114.48681236488223
 21
126.17250718154244
 31
0.0
  0
LINE
  5
1B5
100
AcDbEntity
100
AcDbLine
  8
0
 62
256
370
-1
 48
1.0
  6
ByLayer
 10
124.17469874487549
 20
125.20000674281873
 30
0.0
 11
123.95062765448101
 21
126.17250718154244
 31
0.0
  0
LINE
  5
1B6
100
AcDbEntity
100
AcDbLine
  8
0
 62
256
370
-1
 48
1.0
  6
ByLayer
 10
114.48681236488223
 20
126.17250718154244
 30
0.0
 11
114.99897490452919
 21
127.00477130846879
 31
0.0
  0
LINE
  5
1B7
100
AcDbEntity
100
AcDbLine
  8
0
 62
256
370
-1
 48
1.0
  6
ByLayer
 10
123.95062765448101
 20
126.17250718154244
 30
0.0
 11
123.43846511483403
 21
127.00477130846879
 31
0.0
  0
ARC
  5
1B8
100
AcDbEntity
  8
0
 62
256
370
-1
 48
1.0
  6
ByLayer
100
AcDbCircle
 10
103.77266748230322
 20
132.43338487272638
 30
0.0
 40
12.46995683907396
100
AcDbArc
 50
334.19336261096709
 51
353.46408786447353
  0
ARC
  5
1B9
100
AcDbEntity
  8
0
 62
256
370
-1
 48
1.0
  6
ByLayer
100
AcDbCircle
 10
134.66477253706
 20
132.43338487272638
 30
0.0
 40
12.46995683907396
100
AcDbArc
 50
186.53591213552653
 51
205.80663738903286
  0
ARC
  5
1BA
100
AcDbEntity
  8
0
 62
256
370
-1
 48
1.0
  6
ByLayer
100
AcDbCircle
 10
113.11118106423029
 20
125.6072673593704
 30
0.0
 40
1.0
100
AcDbArc
 50
113.23409720877081
 51
173.29016319224343
  0
ARC
  5
1BB
100
AcDbEntity
  8
0
 62
256
370
-1
 48
1.0
  6
ByLayer
100
AcDbCircle
 10
125.32625895513291
 20
125.6072673593704
 30
0.0
 40
1.0
100
AcDbArc
 50
6.7098368077566235
 51
66.765902791229252
  0
ARC
  5
1BC
100
AcDbEntity
  8
0
 62
256
370
-1
 48
1.0
  6
ByLayer
100
AcDbCircle
 10
106.24805373866994
 20
136.69490328113685
 30
0.0
 40
9.5715036890890559
100
AcDbArc
 50
331.63382900353628
 51
24.143810898613214
  0
LINE
  5
1BD
100
AcDbEntity
100
AcDbLine
  8
0
 62
256
370
-1
 48
1.0
  6
ByLayer
 10
116.16157841116379
 20
131.01398022107597
 30
0.0
 11
119.3460370353968
 21
133.167586478711
 31
0.0
  0
LINE
  5
1BE
100
AcDbEntity
100
AcDbLine
  8
0
 62
256
370
-1
 48
1.0
  6
ByLayer
 10
119.3460370353968
 20
133.167586478711
 30
0.0
 11
122.27586160819945
 21
131.01398022107597
 31
0.0
  0
LINE
  5
1BF
100
AcDbEntity
100
AcDbLine
  8
0
 62
256
370
-1
 48
1.0
  6
ByLayer
 10
115.11249695473433
 20
151.80682847915094
 30
0.0
 11
116.3436973145016
 21
149.67352207549359
 31
0.0
  0
LINE
  5
1C0
100
AcDbEntity
100
AcDbLine
  8
0
 62
256
370
-1
 48
1.0
  6
ByLayer
 10
116.3436973145016
 20
149.67352207549359
 30
0.0
 11
117.29951553249239
 21
149.57794025369452
 31
0.0
  0
LINE
  5
1C1
100
AcDbEntity
100
AcDbLine
  8
0
 62
256
370
-1
 48
1.0
  6
ByLayer
 10
117.29951553249239
 20
149.57794025369452
 30
0.0
 11
117.29951553249239
 21
151.29841304607791
 31
0.0
  0
LINE
  5
1C2
100
AcDbEntity
100
AcDbLine
  8
0
 62
256
370
-1
 48
1.0
  6
ByLayer
 10
117.29951553249239
 20
151.29841304607791
 30
0.0
 11
116.05695184910437
 21
153.59237676925582
 31
0.0
  0
LINE
  5
1C3
100
AcDbEntity
100
AcDbLine
  8
0
 62
256
370
-1
 48
1.0
  6
ByLayer
 10
116.05695184910437
 20
153.59237676925582
 30
0.0
 11
115.57192632457465
 21
154.831886443054
 31
0.0
  0
LINE
  5
1C4
100
AcDbEntity
100
AcDbLine
  8
0
 62
256
370
-1
 48
1.0
  6
ByLayer
 10
115.7591906903089
 20
156.65322070130887
 30
0.0
 11
116.32697112836637
 21
157.523817372997
 31
0.0
  0
LINE
  5
1C5
100
AcDbEntity
100
AcDbLine
  8
0
 62
256
370
-1
 48
1.0
  6
ByLayer
 10
117.18585350669554
 20
157.97732332250712
 30
0.0
 11
120.54591385682625
 21
157.90583267675967
 31
0.0
  0
LINE
  5
1C6
100
AcDbEntity
100
AcDbLine
  8
0
 62
256
370
-1
 48
1.0
  6
ByLayer
 10
121.40085798401232
 20
157.38797769647476
 30
0.0
 11
121.70552850338298
 21
156.83403129761902
 31
0.0
  0
LINE
  5
1C7
100
AcDbEntity
100
AcDbLine
  8
0
 62
256
370
-1
 48
1.0
  6
ByLayer
 10
121.79340595728684
 20
155.08708346988016
 30
0.0
 11
120.26255200826382
 21
151.48957668967608
 31
0.0
  0
LINE
  5
1C8
100
AcDbEntity
100
AcDbLine
  8
0
 62
256
370
-1
 48
1.0
  6
ByLayer
 10
120.26255200826382
 20
151.48957668967608
 30
0.0
 11
120.45371565186198
 21
149.67352207549359
 31
0.0
  0
LINE
  5
1C9
100
AcDbEntity
100
AcDbLine
  8
0
 62
256
370
-1
 48
1.0
  6
ByLayer
 10
120.45371565186198
 20
149.67352207549359
 30
0.0
 11
123.4434365332009
 21
152.01214264535534
 31
0.0
  0
LINE
  5
1CA
100
AcDbEntity
100
AcDbLine
  8
0
 62
256
370
-1
 48
1.0
  6
ByLayer
 10
115.91357911640574
 20
156.88994962132404
 30
0.0
 11
116.65389572691436
 21
159.00876822301834
 31
0.0
  0
LINE
  5
1CB
100
AcDbEntity
100
AcDbLine
  8
0
 62
256
370
-1
 48
1.0
  6
ByLayer
 10
116.65389572691436
 20
159.00876822301834
 30
0.0
 11
117.5438732211103
 21
157.9697058817749
 31
0.0
  0
LINE
  5
1CC
100
AcDbEntity
100
AcDbLine
  8
0
 62
256
370
-1
 48
1.0
  6
ByLayer
 10
117.54387322111029
 20
157.96970588177487
 30
0.0
 11
118.20267524680683
 21
158.95345466873647
 31
0.0
  0
LINE
  5
1CD
100
AcDbEntity
100
AcDbLine
  8
0
 62
256
370
-1
 48
1.0
  6
ByLayer
 10
118.20267524680683
 20
158.95345466873647
 30
0.0
 11
119.2187200096816
 21
157.93407084372018
 31
0.0
  0
LINE
  5
1CE
100
AcDbEntity
100
AcDbLine
  8
0
 62
256
370
-1
 48
1.0
  6
ByLayer
 10
119.2187200096816
 20
157.93407084372018
 30
0.0
 11
119.21872000968162
 21
159.0
 31
0.0
  0
LINE
  5
1CF
100
AcDbEntity
100
AcDbLine
  8
0
 62
256
370
-1
 48
1.0
  6
ByLayer
 10
119.21872000968158
 20
157.93407084372015
 30
0.0
 11
120.08333609239057
 21
159.00876822301834
 31
0.0
  0
LINE
  5
1D0
100
AcDbEntity
100
AcDbLine
  8
0
 62
256
370
-1
 48
1.0
  6
ByLayer
 10
120.08333609239057
 20
159.00876822301834
 30
0.0
 11
120.42389005865294
 21
157.90842892778463
 31
0.0
  0
LINE
  5
1D1
100
AcDbEntity
100
AcDbLine
  8
0
 62
256
370
-1
 48
1.0
  6
ByLayer
 10
120.42389005865297
 20
157.9084289277846
 30
0.0
 11
120.95853651222393
 21
158.99225098111475
 31
0.0
  0
LINE
  5
1D2
100
AcDbEntity
100
AcDbLine
  8
0
 62
256
370
-1
 48
1.0
  6
ByLayer
 10
120.95853651222393
 20
158.99225098111475
 30
0.0
 11
121.49203915768953
 21
157.23169225107824
 31
0.0
  0
LINE
  5
1D3
100
AcDbEntity
100
AcDbLine
  8
0
 62
256
370
-1
 48
1.0
  6
ByLayer
 10
117.99722288237382
 20
153.09301852081612
 30
0.0
 11
117.22608686091473
 21
153.99267721251834
 31
0.0
  0
LINE
  5
1D4
100
AcDbEntity
100
AcDbLine
  8
0
 62
256
370
-1
 48
1.0
  6
ByLayer
 10
117.22608686091473
 20
153.99267721251834
 30
0.0
 11
117.54874926089234
 21
154.4997181267689
 31
0.0
  0
LINE
  5
1D5
100
AcDbEntity
100
AcDbLine
  8
0
 62
256
370
-1
 48
1.0
  6
ByLayer
 10
120.17614308928135
 20
154.96066441245117
 30
0.0
 11
120.36052160355428
 21
154.03877184108657
 31
0.0
  0
LINE
  5
1D6
100
AcDbEntity
100
AcDbLine
  8
0
 62
256
370
-1
 48
1.0
  6
ByLayer
 10
120.36052160355428
 20
154.03877184108657
 30
0.0
 11
119.96871726072433
 21
153.55477824112015
 31
0.0
  0
CIRCLE
  5
1D7
100
AcDbEntity
100
AcDbCircle
  8
0
 62
256
370
-1
 48
1.0
  6
ByLayer
 10
117.55607769223963
 20
156.38321840147242
 30
0.0
 40
0.4496031624059962
  0
CIRCLE
  5
1D8
100
AcDbEntity
100
AcDbCircle
  8
0
 62
256
370
-1
 48
1.0
  6
ByLayer
 10
120.20651883491276
 20
156.34480621099888
 30
0.0
 40
0.5008336890481931
  0
LINE
  5
1D9
100
AcDbEntity
100
AcDbLine
  8
0
 62
256
370
-1
 48
1.0
  6
ByLayer
 10
117.54874926089232
 20
154.49971812676887
 30
0.0
 11
117.91575306829016
 21
154.16565782627592
 31
0.0
  0
LINE
  5
1DA
100
AcDbEntity
100
AcDbLine
  8
0
 62
256
370
-1
 48
1.0
  6
ByLayer
 10
117.91575306829016
 20
154.16565782627592
 30
0.0
 11
117.87141166086992
 21
155.00675904101939
 31
0.0
  0
LINE
  5
1DB
100
AcDbEntity
100
AcDbLine
  8
0
 62
256
370
-1
 48
1.0
  6
ByLayer
 10
117.87141166086992
 20
155.00675904101939
 30
0.0
 11
118.20917952329624
 21
154.24568322309577
 31
0.0
  0
LINE
  5
1DC
100
AcDbEntity
100
AcDbLine
  8
0
 62
256
370
-1
 48
1.0
  6
ByLayer
 10
118.20917952329624
 20
154.24568322309577
 30
0.0
 11
118.22425990035892
 21
154.99970207622962
 31
0.0
  0
LINE
  5
1DD
100
AcDbEntity
100
AcDbLine
  8
0
 62
256
370
-1
 48
1.0
  6
ByLayer
 10
118.22425990035892
 20
154.99970207622962
 30
0.0
 11
118.66265677194201
 21
154.24568322309577
 31
0.0
  0
LINE
  5
1DE
100
AcDbEntity
100
AcDbLine
  8
0
 62
256
370
-1
 48
1.0
  6
ByLayer
 10
118.66265677194201
 20
154.24568322309577
 30
0.0
 11
119.02377737507564
 21
154.98371172673529
 31
0.0
  0
LINE
  5
1DF
100
AcDbEntity
100
AcDbLine
  8
0
 62
256
370
-1
 48
1.0
  6
ByLayer
 10
119.02377737507564
 20
154.98371172673529
 30
0.0
 11
119.38288534332058
 21
154.21900809082248
 31
0.0
  0
LINE
  5
1E0
100
AcDbEntity
100
AcDbLine
  8
0
 62
256
370
-1
 48
1.0
  6
ByLayer
 10
119.38288534332058
 20
154.21900809082248
 30
0.0
 11
119.70298693059995
 21
154.96591179447432
 31
0.0
  0
LINE
  5
1E1
100
AcDbEntity
100
AcDbLine
  8
0
 62
256
370
-1
 48
1.0
  6
ByLayer
 10
119.70298693059995
 20
154.96591179447432
 30
0.0
 11
119.80968745969307
 21
154.11230756172935
 31
0.0
  0
LINE
  5
1E2
100
AcDbEntity
100
AcDbLine
  8
0
 62
256
370
-1
 48
1.0
  6
ByLayer
 10
119.80968745969307
 20
154.11230756172935
 30
0.0
 11
120.17614308928137
 21
154.96066441245117
 31
0.0
  0
LINE
  5
1E3
100
AcDbEntity
100
AcDbLine
  8
0
 62
256
370
-1
 48
1.0
  6
ByLayer
 10
117.9972228823738
 20
153.09301852081609
 30
0.0
 11
118.07580386192984
 21
153.68550544535685
 31
0.0
  0
LINE
  5
1E4
100
AcDbEntity
100
AcDbLine
  8
0
 62
256
370
-1
 48
1.0
  6
ByLayer
 10
118.07580386192984
 20
153.68550544535685
 30
0.0
 11
118.42258058148248
 21
153.04530227079815
 31
0.0
  0
LINE
  5
1E5
100
AcDbEntity
100
AcDbLine
  8
0
 62
256
370
-1
 48
1.0
  6
ByLayer
 10
118.42258058148248
 20
153.04530227079815
 30
0.0
 11
118.63598163966873
 21
153.6588303130836
 31
0.0
  0
LINE
  5
1E6
100
AcDbEntity
100
AcDbLine
  8
0
 62
256
370
-1
 48
1.0
  6
ByLayer
 10
118.63598163966873
 20
153.6588303130836
 30
0.0
 11
118.81635154651862
 21
153.04773732686965
 31
0.0
  0
LINE
  5
1E7
100
AcDbEntity
100
AcDbLine
  8
0
 62
256
370
-1
 48
1.0
  6
ByLayer
 10
118.81635154651862
 20
153.04773732686965
 30
0.0
 11
119.30285994650073
 21
153.73885570990342
 31
0.0
  0
LINE
  5
1E8
100
AcDbEntity
100
AcDbLine
  8
0
 62
256
370
-1
 48
1.0
  6
ByLayer
 10
119.30285994650073
 20
153.73885570990342
 30
0.0
 11
119.5769129178944
 21
153.07078464115381
 31
0.0
  0
LINE
  5
1E9
100
AcDbEntity
100
AcDbLine
  8
0
 62
256
370
-1
 48
1.0
  6
ByLayer
 10
119.5769129178944
 20
153.07078464115381
 30
0.0
 11
119.70298693059995
 21
153.84555623899655
 31
0.0
  0
LINE
  5
1EA
100
AcDbEntity
100
AcDbLine
  8
0
 62
256
370
-1
 48
1.0
  6
ByLayer
 10
119.70298693059995
 20
153.84555623899655
 30
0.0
 11
119.96871726072433
 21
153.55477824112018
 31
0.0
  0
ARC
  5
1EB
100
AcDbEntity
  8
0
 62
256
370
-1
 48
1.0
  6
ByLayer
100
AcDbCircle
 10
117.43441188398614
 20
155.56068514021501
 30
0.0
 40
2.0
100
AcDbArc
 50
146.88865803962804
 51
201.37062226934293
  0
ARC
  5
1EC
100
AcDbEntity
  8
0
 62
256
370
-1
 48
1.0
  6
ByLayer
100
AcDbCircle
 10
119.95309668602967
 20
155.87019379807469
 30
0.0
 40
2.0
100
AcDbArc
 50
336.948699083527
 51
28.810793742973164
  0
ARC
  5
1ED
100
AcDbEntity
  8
0
 62
256
370
-1
 48
1.0
  6
ByLayer
100
AcDbCircle
 10
117.16458172520497
 20
156.97754959245009
 30
0.0
 40
1.0
100
AcDbArc
 50
88.781124764869062
 51
146.88865803962804
  0
ARC
  5
1EE
100
AcDbEntity
  8
0
 62
256
370
-1
 48
1.0
  6
ByLayer
100
AcDbCircle
 10
120.52464207533568
 20
156.90605894670261
 30
0.0
 40
1.0
100
AcDbArc
 50
28.810793742972855
 51
88.781124764869105
  0
ARC
  5
1EF
100
AcDbEntity
  8
0
 62
256
370
-1
 48
1.0
  6
ByLayer
100
AcDbCircle
 10
114.24638987408902
 20
151.30696997431576
 30
0.0
 40
1.0
100
AcDbArc
 50
29.990639196689177
 51
56.833659887162447
  0
ENDSEC
  0
SECTION
  2
OBJECTS
  0
DICTIONARY
  5
C
100
AcDbDictionary
280
0
281
1
  3
ACAD_GROUP
350
D
  3
ACAD_LAYOUT
350
1A
  3
ACAD_MLINESTYLE
350
17
  3
ACAD_PLOTSETTINGS
350
19
  3
ACAD_PLOTSTYLENAME
350
E
  3
AcDbVariableDictionary
350
1F0
  3
QCAD_OBJECTS
350
1F1
  0
DICTIONARY
  5
D
100
AcDbDictionary
280
0
281
1
  0
ACDBDICTIONARYWDFLT
  5
E
100
AcDbDictionary
281
1
  3
Normal
350
F
100
AcDbDictionaryWithDefault
340
F
  0
ACDBPLACEHOLDER
  5
F
  0
DICTIONARY
  5
17
100
AcDbDictionary
280
0
281
1
  3
Standard
350
18
  0
MLINESTYLE
  5
18
100
AcDbMlineStyle
  2
STANDARD
 70
0
  3

 62
256
 51
90.0
 52
90.0
 71
2
 49
0.5
 62
256
  6
BYLAYER
 49
-0.5
 62
256
  6
BYLAYER
  0
DICTIONARY
  5
19
100
AcDbDictionary
280
0
281
1
  0
DICTIONARY
  5
1A
100
AcDbDictionary
281
1
  3
Layout1
350
1E
  3
Layout2
350
26
  3
Model
350
22
  0
LAYOUT
  5
1E
100
AcDbPlotSettings
  1

  2
none_device
  4

  6

 40
0.0
 41
0.0
 42
0.0
 43
0.0
 44
0.0
 45
0.0
 46
0.0
 47
0.0
 48
0.0
 49
0.0
140
0.0
141
0.0
142
1.0
143
1.0
 70
688
 72
0
 73
0
 74
5
  7

 75
16
147
1.0
148
0.0
149
0.0
100
AcDbLayout
  1
Layout1
 70
1
 71
1
 10
0.0
 20
0.0
 11
420.0
 21
297.0
 12
0.0
 22
0.0
 32
0.0
 14
100000000000000000000.0
 24
100000000000000000000.0
 34
100000000000000000000.0
 15
-100000000000000000000.0
 25
-100000000000000000000.0
 35
-100000000000000000000.0
146
0.0
 13
0.0
 23
0.0
 33
0.0
 16
1.0
 26
0.0
 36
0.0
 17
0.0
 27
1.0
 37
0.0
 76
0
330
1B
  0
LAYOUT
  5
22
100
AcDbPlotSettings
  1

  2
none_device
  4

  6

 40
0.0
 41
0.0
 42
0.0
 43
0.0
 44
0.0
 45
0.0
 46
0.0
 47
0.0
 48
0.0
 49
0.0
140
0.0
141
0.0
142
1.0
143
1.0
 70
1712
 72
0
 73
0
 74
0
  7

 75
0
147
1.0
148
0.0
149
0.0
100
AcDbLayout
  1
Model
 70
1
 71
0
 10
0.0
 20
0.0
 11
12.0
 21
9.0
 12
0.0
 22
0.0
 32
0.0
 14
0.0
 24
0.0
 34
0.0
 15
0.0
 25
0.0
 35
0.0
146
0.0
 13
0.0
 23
0.0
 33
0.0
 16
1.0
 26
0.0
 36
0.0
 17
0.0
 27
1.0
 37
0.0
 76
0
330
1F
  0
LAYOUT
  5
26
100
AcDbPlotSettings
  1

  2
none_device
  4

  6

 40
0.0
 41
0.0
 42
0.0
 43
0.0
 44
0.0
 45
0.0
 46
0.0
 47
0.0
 48
0.0
 49
0.0
140
0.0
141
0.0
142
1.0
143
1.0
 70
688
 72
0
 73
0
 74
5
  7

 75
16
147
1.0
148
0.0
149
0.0
100
AcDbLayout
  1
Layout2
 70
1
 71
2
 10
0.0
 20
0.0
 11
12.0
 21
9.0
 12
0.0
 22
0.0
 32
0.0
 14
0.0
 24
0.0
 34
0.0
 15
0.0
 25
0.0
 35
0.0
146
0.0
 13
0.0
 23
0.0
 33
0.0
 16
1.0
 26
0.0
 36
0.0
 17
0.0
 27
1.0
 37
0.0
 76
0
330
23
  0
DICTIONARY
  5
1F0
100
AcDbDictionary
281
1
  3
DIMASSOC
350
1F3
  3
HIDETEXT
350
1F2
  0
DICTIONARYVAR
  5
1F2
100
DictionaryVariables
280
0
  1
2
  0
DICTIONARYVAR
  5
1F3
100
DictionaryVariables
280
0
  1
1
  0
DICTIONARY
  5
1F1
100
AcDbDictionary
281
1
  3
ColorSettings/BackgroundColor
350
1F4
  3
ColorSettings/ColorMode
350
1F5
  3
Grid/DisplayGrid00
350
1F6
  3
Grid/DisplayGrid01
350
1F7
  3
Grid/DisplayGrid02
350
1F8
  3
Grid/DisplayGrid03
350
1F9
  3
Grid/GridSpacingX00
350
1FA
  3
Grid/GridSpacingX01
350
1FB
  3
Grid/GridSpacingX02
350
1FC
  3
Grid/GridSpacingX03
350
1FD
  3
Grid/GridSpacingY00
350
1FE
  3
Grid/GridSpacingY01
350
1FF
  3
Grid/GridSpacingY02
350
200
  3
Grid/GridSpacingY03
350
201
  3
Grid/IsometricGrid00
350
202
  3
Grid/IsometricGrid01
350
203
  3
Grid/IsometricGrid02
350
204
  3
Grid/IsometricGrid03
350
205
  3
Grid/IsometricProjection00
350
206
  3
Grid/IsometricProjection01
350
207
  3
Grid/IsometricProjection02
350
208
  3
Grid/IsometricProjection03
350
209
  3
Grid/MetaGridSpacingX00
350
20A
  3
Grid/MetaGridSpacingX01
350
20B
  3
Grid/MetaGridSpacingX02
350
20C
  3
Grid/MetaGridSpacingX03
350
20D
  3
Grid/MetaGridSpacingY00
350
20E
  3
Grid/MetaGridSpacingY01
350
20F
  3
Grid/MetaGridSpacingY02
350
210
  3
Grid/MetaGridSpacingY03
350
211
  3
MultiPageSettings/Columns
350
212
  3
MultiPageSettings/GlueMarginsBottom
350
213
  3
MultiPageSettings/GlueMarginsLeft
350
214
  3
MultiPageSettings/GlueMarginsRight
350
215
  3
MultiPageSettings/GlueMarginsTop
350
216
  3
MultiPageSettings/PrintCropMarks
350
217
  3
MultiPageSettings/Rows
350
218
  3
PageSettings/OffsetX
350
219
  3
PageSettings/OffsetY
350
21A
  3
PageSettings/PageOrientation
350
21B
  3
PageSettings/PaperHeight
350
21C
  3
PageSettings/PaperWidth
350
21D
  3
PageSettings/Scale
350
21E
  3
PageSettings/ShowPaperBorders
350
21F
  3
QCADVersion
350
220
  3
UnitSettings/PaperUnit
350
221
  3
ViewportCenter
350
222
  3
ViewportHeight
350
223
  3
ViewportWidth
350
224
  0
XRECORD
  5
1F4
330
1F1
100
AcDbXrecord
280
1
1000
#ffffff
  0
XRECORD
  5
1F5
330
1F1
100
AcDbXrecord
280
1
1000
FullColor
  0
XRECORD
  5
1F6
330
1F1
100
AcDbXrecord
280
1
290
1
  0
XRECORD
  5
1F7
330
1F1
100
AcDbXrecord
280
1
290
1
  0
XRECORD
  5
1F8
330
1F1
100
AcDbXrecord
280
1
290
1
  0
XRECORD
  5
1F9
330
1F1
100
AcDbXrecord
280
1
290
1
  0
XRECORD
  5
1FA
330
1F1
100
AcDbXrecord
280
1
1000
auto
  0
XRECORD
  5
1FB
330
1F1
100
AcDbXrecord
280
1
1000
auto
  0
XRECORD
  5
1FC
330
1F1
100
AcDbXrecord
280
1
1000
auto
  0
XRECORD
  5
1FD
330
1F1
100
AcDbXrecord
280
1
1000
auto
  0
XRECORD
  5
1FE
330
1F1
100
AcDbXrecord
280
1
1000
auto
  0
XRECORD
  5
1FF
330
1F1
100
AcDbXrecord
280
1
1000
auto
  0
XRECORD
  5
200
330
1F1
100
AcDbXrecord
280
1
1000
auto
  0
XRECORD
  5
201
330
1F1
100
AcDbXrecord
280
1
1000
auto
  0
XRECORD
  5
202
330
1F1
100
AcDbXrecord
280
1
290
0
  0
XRECORD
  5
203
330
1F1
100
AcDbXrecord
280
1
290
0
  0
XRECORD
  5
204
330
1F1
100
AcDbXrecord
280
1
290
0
  0
XRECORD
  5
205
330
1F1
100
AcDbXrecord
280
1
290
0
  0
XRECORD
  5
206
330
1F1
100
AcDbXrecord
280
1
 90
0
  0
XRECORD
  5
207
330
1F1
100
AcDbXrecord
280
1
 90
0
  0
XRECORD
  5
208
330
1F1
100
AcDbXrecord
280
1
 90
0
  0
XRECORD
  5
209
330
1F1
100
AcDbXrecord
280
1
 90
0
  0
XRECORD
  5
20A
330
1F1
100
AcDbXrecord
280
1
1000
auto
  0
XRECORD
  5
20B
330
1F1
100
AcDbXrecord
280
1
1000
auto
  0
XRECORD
  5
20C
330
1F1
100
AcDbXrecord
280
1
1000
auto
  0
XRECORD
  5
20D
330
1F1
100
AcDbXrecord
280
1
1000
auto
  0
XRECORD
  5
20E
330
1F1
100
AcDbXrecord
280
1
1000
auto
  0
XRECORD
  5
20F
330
1F1
100
AcDbXrecord
280
1
1000
auto
  0
XRECORD
  5
210
330
1F1
100
AcDbXrecord
280
1
1000
auto
  0
XRECORD
  5
211
330
1F1
100
AcDbXrecord
280
1
1000
auto
  0
XRECORD
  5
212
330
1F1
100
AcDbXrecord
280
1
 90
1
  0
XRECORD
  5
213
330
1F1
100
AcDbXrecord
280
1
 40
10.0
  0
XRECORD
  5
214
330
1F1
100
AcDbXrecord
280
1
 40
10.0
  0
XRECORD
  5
215
330
1F1
100
AcDbXrecord
280
1
 40
10.0
  0
XRECORD
  5
216
330
1F1
100
AcDbXrecord
280
1
 40
10.0
  0
XRECORD
  5
217
330
1F1
100
AcDbXrecord
280
1
290
0
  0
XRECORD
  5
218
330
1F1
100
AcDbXrecord
280
1
 90
1
  0
XRECORD
  5
219
330
1F1
100
AcDbXrecord
280
1
 40
0.0
  0
XRECORD
  5
21A
330
1F1
100
AcDbXrecord
280
1
 40
0.0
  0
XRECORD
  5
21B
330
1F1
100
AcDbXrecord
280
1
1000
Portrait
  0
XRECORD
  5
21C
330
1F1
100
AcDbXrecord
280
1
 40
279.39999999999998
  0
XRECORD
  5
21D
330
1F1
100
AcDbXrecord
280
1
 40
215.90000000000001
  0
XRECORD
  5
21E
330
1F1
100
AcDbXrecord
280
1
1000
1:1
  0
XRECORD
  5
21F
330
1F1
100
AcDbXrecord
280
1
290
1
  0
XRECORD
  5
220
330
1F1
100
AcDbXrecord
280
1
1000
3.15.2
  0
XRECORD
  5
221
330
1F1
100
AcDbXrecord
280
1
 90
4
  0
XRECORD
  5
223
330
1F1
100
AcDbXrecord
280
1
 40
233.76789170431721
  0
XRECORD
  5
224
330
1F1
100
AcDbXrecord
280
1
 40
510.73845706538168
  0
ENDSEC
  0
EOF
