999
dxflib 3.12.2.0
  0
SECTION
  2
HEADER
  9
$ACADVER
  1
AC1015
  9
$HANDSEED
  5
FFFF
  9
$ANGBASE
 50
0.0
  9
$ANGDIR
 70
0
  9
$ATTMODE
 70
1
  9
$AUNITS
 70
0
  9
$AUPREC
 70
2
  9
$CECOLOR
 62
256
  9
$CELTSCALE
 40
1.0
  9
$CHAMFERA
 40
0.0
  9
$CHAMFERB
 40
0.0
  9
$CHAMFERC
 40
0.0
  9
$CHAMFERD
 40
0.0
  9
$CMLJUST
 70
0
  9
$CMLSCALE
 40
20.0
  9
$DIMADEC
 70
2
  9
$DIMALT
 70
0
  9
$DIMALTD
 70
3
  9
$DIMALTF
 40
0.0393700787
  9
$DIMALTRND
 40
0.0
  9
$DIMALTTD
 70
3
  9
$DIMALTTZ
 70
0
  9
$DIMALTU
 70
2
  9
$DIMALTZ
 70
0
  9
$DIMAPOST
  1

  9
$DIMASZ
 40
3.302
  9
$DIMATFIT
 70
3
  9
$DIMAUNIT
 70
0
  9
$DIMAZIN
 70
0
  9
$DIMBLK
  1

  9
$DIMBLK1
  1

  9
$DIMBLK2
  1

  9
$DIMCEN
 40
2.5
  9
$DIMCLRD
 70
0
  9
$DIMCLRE
 70
0
  9
$DIMCLRT
 70
0
  9
$DIMDEC
 70
2
  9
$DIMDLE
 40
0.0
  9
$DIMDLI
 40
3.75
  9
$DIMDSEP
 70
44
  9
$DIMEXE
 40
1.0
  9
$DIMEXO
 40
1.0
  9
$DIMFRAC
 70
0
  9
$DIMGAP
 40
1.524
  9
$DIMJUST
 70
0
  9
$DIMLDRBLK
  1

  9
$DIMLFAC
 40
1.0
  9
$DIMLIM
 70
0
  9
$DIMLUNIT
 70
2
  9
$DIMLWD
 70
-2
  9
$DIMLWE
 70
-2
  9
$DIMPOST
  1

  9
$DIMRND
 40
0.0
  9
$DIMSAH
 70
0
  9
$DIMSCALE
 40
1.0
  9
$DIMSD1
 70
0
  9
$DIMSD2
 70
0
  9
$DIMSE1
 70
0
  9
$DIMSE2
 70
0
  9
$DIMSOXD
 70
0
  9
$DIMTAD
 70
1
  9
$DIMTDEC
 70
2
  9
$DIMTFAC
 40
1.0
  9
$DIMTIH
 70
1
  9
$DIMTIX
 70
0
  9
$DIMTM
 40
0.0
  9
$DIMTOFL
 70
1
  9
$DIMTOH
 70
1
  9
$DIMTOL
 70
0
  9
$DIMTOLJ
 70
0
  9
$DIMTP
 40
0.0
  9
$DIMTSZ
 40
0.0
  9
$DIMTVP
 40
0.0
  9
$DIMTXSTY
  7
Standard
  9
$DIMTXT
 40
3.5
  9
$DIMTZIN
 70
0
  9
$DIMUPT
 70
0
  9
$DIMZIN
 70
0
  9
$DISPSILH
 70
0
  9
$DWGCODEPAGE
  3
ANSI_1252
  9
$ELEVATION
 40
0.0
  9
$EXTMAX
 10
138.69895958250001
 20
1.3613765283000001
 30
0.0
  9
$EXTMIN
 10
-17.301040417500001
 20
-193.387535644
 30
0.0
  9
$FILLETRAD
 40
10.0
  9
$FILLMODE
 70
1
  9
$INSBASE
 10
0.0
 20
0.0
 30
0.0
  9
$INSUNITS
 70
4
  9
$LIMCHECK
 70
0
  9
$LIMMAX
 10
420.0
 20
297.0
  9
$LIMMIN
 10
0.0
 20
0.0
  9
$LTSCALE
 40
1.0
  9
$LUNITS
 70
2
  9
$LUPREC
 70
2
  9
$MAXACTVP
 70
64
  9
$MEASUREMENT
 70
1
  9
$MIRRTEXT
 70
1
  9
$ORTHOMODE
 70
0
  9
$PDMODE
 70
0
  9
$PDSIZE
 40
-1.0
  9
$PELEVATION
 40
0.0
  9
$PEXTMAX
 10
-100000000000000000000.0
 20
-100000000000000000000.0
 30
-100000000000000000000.0
  9
$PEXTMIN
 10
100000000000000000000.0
 20
100000000000000000000.0
 30
100000000000000000000.0
  9
$PINSBASE
 10
0.0
 20
0.0
 30
0.0
  9
$PLIMCHECK
 70
0
  9
$PLIMMAX
 10
420.0
 20
297.0
  9
$PLIMMIN
 10
0.0
 20
0.0
  9
$PLINEGEN
 70
0
  9
$PLINEWID
 40
0.0
  9
$PROXYGRAPHICS
 70
1
  9
$PSLTSCALE
 70
1
  9
$PUCSNAME
  2

  9
$PUCSORG
 10
0.0
 20
0.0
 30
0.0
  9
$PUCSXDIR
 10
1.0
 20
0.0
 30
0.0
  9
$PUCSYDIR
 10
0.0
 20
1.0
 30
0.0
  9
$QTEXTMODE
 70
0
  9
$REGENMODE
 70
1
  9
$SHADEDGE
 70
3
  9
$SHADEDIF
 70
70
  9
$SKETCHINC
 40
1.0
  9
$SKPOLY
 70
0
  9
$SPLFRAME
 70
0
  9
$SPLINESEGS
 70
8
  9
$SPLINETYPE
 70
6
  9
$SURFTAB1
 70
6
  9
$SURFTAB2
 70
6
  9
$SURFTYPE
 70
6
  9
$SURFU
 70
6
  9
$SURFV
 70
6
  9
$TEXTSIZE
 40
3.5
  9
$TEXTSTYLE
  7
Standard
  9
$THICKNESS
 40
0.0
  9
$TILEMODE
 70
1
  9
$TRACEWID
 40
1.0
  9
$TREEDEPTH
 70
3020
  9
$UCSNAME
  2

  9
$UCSORG
 10
0.0
 20
0.0
 30
0.0
  9
$UCSXDIR
 10
1.0
 20
0.0
 30
0.0
  9
$UCSYDIR
 10
0.0
 20
1.0
 30
0.0
  9
$UNITMODE
 70
0
  9
$USERI1
 70
0
  9
$USERI2
 70
0
  9
$USERI3
 70
0
  9
$USERI4
 70
0
  9
$USERI5
 70
0
  9
$USERR1
 40
0.0
  9
$USERR2
 40
0.0
  9
$USERR3
 40
0.0
  9
$USERR4
 40
0.0
  9
$USERR5
 40
0.0
  9
$USRTIMER
 70
1
  9
$VISRETAIN
 70
1
  0
ENDSEC
  0
SECTION
  2
TABLES
  0
TABLE
  2
VPORT
  5
8
100
AcDbSymbolTable
 70
1
  0
VPORT
  5
30
100
AcDbSymbolTableRecord
100
AcDbViewportTableRecord
  2
*Active
 70
0
 10
0.0
 20
0.0
 11
1.0
 21
1.0
 12
286.30555555555549
 22
148.5
 13
0.0
 23
0.0
 14
10.0
 24
10.0
 15
10.0
 25
10.0
 16
0.0
 26
0.0
 36
1.0
 17
0.0
 27
0.0
 37
0.0
 40
297.0
 41
1.92798353909465
 42
50.0
 43
0.0
 44
0.0
 50
0.0
 51
0.0
 71
0
 72
100
 73
1
 74
3
 75
1
 76
1
 77
0
 78
0
281
0
 65
1
110
0.0
120
0.0
130
0.0
111
1.0
121
0.0
131
0.0
112
0.0
122
1.0
132
0.0
 79
0
146
0.0
  0
ENDTAB
  0
TABLE
  2
LTYPE
  5
5
100
AcDbSymbolTable
 70
50
  0
LTYPE
  5
16
100
AcDbSymbolTableRecord
100
AcDbLinetypeTableRecord
  2
Continuous
 70
0
  3
Solid line
 72
65
 73
0
 40
0.0
  0
LTYPE
  5
31
100
AcDbSymbolTableRecord
100
AcDbLinetypeTableRecord
  2
ACAD_ISO15W100
 70
0
  3
ISO double-dash triple-dot __ __ . . . __ __ . .
 72
65
 73
10
 40
39.0
 49
12.0
 74
0
 49
-3.0
 74
0
 49
12.0
 74
0
 49
-3.0
 74
0
 49
0.0
 74
0
 49
-3.0
 74
0
 49
0.0
 74
0
 49
-3.0
 74
0
 49
0.0
 74
0
 49
-3.0
 74
0
  0
LTYPE
  5
32
100
AcDbSymbolTableRecord
100
AcDbLinetypeTableRecord
  2
HOT_WATER_SUPPLY
 70
0
  3
Hot water supply ---- HW ---- HW ---- HW ----
 72
65
 73
3
 40
22.859999999999999
 49
12.699999999999999
 74
0
 49
-5.0800000000000001
 74
0
 49
-5.0800000000000001
 74
0
  0
LTYPE
  5
33
100
AcDbSymbolTableRecord
100
AcDbLinetypeTableRecord
  2
DIVIDE
 70
0
  3
Divide ____ . . ____ . . ____ . . ____ . . ____
 72
65
 73
6
 40
31.75
 49
12.699999999999999
 74
0
 49
-6.3499999999999996
 74
0
 49
0.0
 74
0
 49
-6.3499999999999996
 74
0
 49
0.0
 74
0
 49
-6.3499999999999996
 74
0
  0
LTYPE
  5
34
100
AcDbSymbolTableRecord
100
AcDbLinetypeTableRecord
  2
ACAD_ISO10W100
 70
0
  3
ISO dash dot __ . __ . __ . __ . __ . __ . __ . 
 72
65
 73
4
 40
18.0
 49
12.0
 74
0
 49
-3.0
 74
0
 49
0.0
 74
0
 49
-3.0
 74
0
  0
LTYPE
  5
35
100
AcDbSymbolTableRecord
100
AcDbLinetypeTableRecord
  2
GAS_LINE
 70
0
  3
Gas line ----GAS----GAS----GAS----GAS----GAS----GAS--
 72
65
 73
3
 40
24.130000000000003
 49
12.699999999999999
 74
0
 49
-5.0800000000000001
 74
0
 49
-6.3499999999999996
 74
0
  0
LTYPE
  5
36
100
AcDbSymbolTableRecord
100
AcDbLinetypeTableRecord
  2
ACAD_ISO04W100
 70
0
  3
ISO long-dash dot ____ . ____ . ____ . ____ . _
 72
65
 73
4
 40
30.0
 49
24.0
 74
0
 49
-3.0
 74
0
 49
0.0
 74
0
 49
-3.0
 74
0
  0
LTYPE
  5
14
100
AcDbSymbolTableRecord
100
AcDbLinetypeTableRecord
  2
ByBlock
 70
0
  3

 72
65
 73
0
 40
0.0
  0
LTYPE
  5
37
100
AcDbSymbolTableRecord
100
AcDbLinetypeTableRecord
  2
CENTER2
 70
0
  3
Center (.5x) ___ _ ___ _ ___ _ ___ _ ___ _ ___
 72
65
 73
4
 40
28.575000000000003
 49
19.050000000000001
 74
0
 49
-3.1749999999999998
 74
0
 49
3.1749999999999998
 74
0
 49
-3.1749999999999998
 74
0
  0
LTYPE
  5
38
100
AcDbSymbolTableRecord
100
AcDbLinetypeTableRecord
  2
ACAD_ISO11W100
 70
0
  3
ISO double-dash dot __ __ . __ __ . __ __ . __ _
 72
65
 73
6
 40
33.0
 49
12.0
 74
0
 49
-3.0
 74
0
 49
12.0
 74
0
 49
-3.0
 74
0
 49
0.0
 74
0
 49
-3.0
 74
0
  0
LTYPE
  5
39
100
AcDbSymbolTableRecord
100
AcDbLinetypeTableRecord
  2
HIDDEN2
 70
0
  3
Hidden (.5x) _ _ _ _ _ _ _ _ _ _ _ _ _ _ _ _ _ 
 72
65
 73
2
 40
4.7624999999999993
 49
3.1749999999999998
 74
0
 49
-1.5874999999999999
 74
0
  0
LTYPE
  5
3A
100
AcDbSymbolTableRecord
100
AcDbLinetypeTableRecord
  2
BORDERX2
 70
0
  3
Border (2x) ____  ____  .  ____  ____  .  ___
 72
65
 73
6
 40
88.899999999999991
 49
25.399999999999999
 74
0
 49
-12.699999999999999
 74
0
 49
25.399999999999999
 74
0
 49
-12.699999999999999
 74
0
 49
0.0
 74
0
 49
-12.699999999999999
 74
0
  0
LTYPE
  5
3B
100
AcDbSymbolTableRecord
100
AcDbLinetypeTableRecord
  2
ACAD_ISO05W100
 70
0
  3
ISO long-dash double-dot ____ .. ____ .. ____ . 
 72
65
 73
6
 40
33.0
 49
24.0
 74
0
 49
-3.0
 74
0
 49
0.0
 74
0
 49
-3.0
 74
0
 49
0.0
 74
0
 49
-3.0
 74
0
  0
LTYPE
  5
3C
100
AcDbSymbolTableRecord
100
AcDbLinetypeTableRecord
  2
DASHDOTX2
 70
0
  3
Dash dot (2x) ____  .  ____  .  ____  .  ___
 72
65
 73
4
 40
50.799999999999997
 49
25.399999999999999
 74
0
 49
-12.699999999999999
 74
0
 49
0.0
 74
0
 49
-12.699999999999999
 74
0
  0
LTYPE
  5
3D
100
AcDbSymbolTableRecord
100
AcDbLinetypeTableRecord
  2
HIDDENX2
 70
0
  3
Hidden (2x) ____ ____ ____ ____ ____ ____ ____ 
 72
65
 73
2
 40
19.049999999999997
 49
12.699999999999999
 74
0
 49
-6.3499999999999996
 74
0
  0
LTYPE
  5
3E
100
AcDbSymbolTableRecord
100
AcDbLinetypeTableRecord
  2
CENTERX2
 70
0
  3
Center (2x) ________  __  ________  __  _____
 72
65
 73
4
 40
20.319999999999997
 49
12.699999999999999
 74
0
 49
-2.54
 74
0
 49
2.54
 74
0
 49
-2.54
 74
0
  0
LTYPE
  5
3F
100
AcDbSymbolTableRecord
100
AcDbLinetypeTableRecord
  2
BORDER2
 70
0
  3
Border (.5x) __.__.__.__.__.__.__.__.__.__.__.
 72
65
 73
6
 40
22.224999999999998
 49
6.3499999999999996
 74
0
 49
-3.1749999999999998
 74
0
 49
6.3499999999999996
 74
0
 49
-3.1749999999999998
 74
0
 49
0.0
 74
0
 49
-3.1749999999999998
 74
0
  0
LTYPE
  5
40
100
AcDbSymbolTableRecord
100
AcDbLinetypeTableRecord
  2
DASHDOT2
 70
0
  3
Dash dot (.5x) _._._._._._._._._._._._._._._.
 72
65
 73
4
 40
12.699999999999999
 49
6.3499999999999996
 74
0
 49
-3.1749999999999998
 74
0
 49
0.0
 74
0
 49
-3.1749999999999998
 74
0
  0
LTYPE
  5
41
100
AcDbSymbolTableRecord
100
AcDbLinetypeTableRecord
  2
ACAD_ISO12W100
 70
0
  3
ISO dash double-dot __ . . __ . . __ . . __ . . 
 72
65
 73
6
 40
21.0
 49
12.0
 74
0
 49
-3.0
 74
0
 49
0.0
 74
0
 49
-3.0
 74
0
 49
0.0
 74
0
 49
-3.0
 74
0
  0
LTYPE
  5
42
100
AcDbSymbolTableRecord
100
AcDbLinetypeTableRecord
  2
ACAD_ISO07W100
 70
0
  3
ISO dot . . . . . . . . . . . . . . . . . . . . 
 72
65
 73
2
 40
3.0
 49
0.0
 74
0
 49
-3.0
 74
0
  0
LTYPE
  5
43
100
AcDbSymbolTableRecord
100
AcDbLinetypeTableRecord
  2
ACAD_ISO06W100
 70
0
  3
ISO long-dash triple-dot ____ ... ____ ... ____
 72
65
 73
8
 40
36.0
 49
24.0
 74
0
 49
-3.0
 74
0
 49
0.0
 74
0
 49
-3.0
 74
0
 49
0.0
 74
0
 49
-3.0
 74
0
 49
0.0
 74
0
 49
-3.0
 74
0
  0
LTYPE
  5
44
100
AcDbSymbolTableRecord
100
AcDbLinetypeTableRecord
  2
CENTER
 70
0
  3
Center ____ _ ____ _ ____ _ ____ _ ____ _ ____
 72
65
 73
4
 40
10.159999999999998
 49
6.3499999999999996
 74
0
 49
-1.27
 74
0
 49
1.27
 74
0
 49
-1.27
 74
0
  0
LTYPE
  5
45
100
AcDbSymbolTableRecord
100
AcDbLinetypeTableRecord
  2
HIDDEN
 70
0
  3
Hidden __ __ __ __ __ __ __ __ __ __ __ __ __ __
 72
65
 73
2
 40
1.905
 49
1.27
 74
0
 49
-0.635
 74
0
  0
LTYPE
  5
46
100
AcDbSymbolTableRecord
100
AcDbLinetypeTableRecord
  2
DOTX2
 70
0
  3
Dot (2x) .  .  .  .  .  .  .  .  .  .  .  .  .  .
 72
65
 73
2
 40
12.699999999999999
 49
0.0
 74
0
 49
-12.699999999999999
 74
0
  0
LTYPE
  5
47
100
AcDbSymbolTableRecord
100
AcDbLinetypeTableRecord
  2
PHANTOM
 70
0
  3
Phantom ______  __  __  ______  __  __  ______
 72
65
 73
6
 40
12.699999999999998
 49
6.3499999999999996
 74
0
 49
-1.27
 74
0
 49
1.27
 74
0
 49
-1.27
 74
0
 49
1.27
 74
0
 49
-1.27
 74
0
  0
LTYPE
  5
48
100
AcDbSymbolTableRecord
100
AcDbLinetypeTableRecord
  2
ACAD_ISO08W100
 70
0
  3
ISO long-dash short-dash ____ __ ____ __ ____ _
 72
65
 73
4
 40
36.0
 49
24.0
 74
0
 49
-3.0
 74
0
 49
6.0
 74
0
 49
-3.0
 74
0
  0
LTYPE
  5
49
100
AcDbSymbolTableRecord
100
AcDbLinetypeTableRecord
  2
DASHEDX2
 70
0
  3
Dashed (2x) ____  ____  ____  ____  ____  ___
 72
65
 73
2
 40
38.099999999999994
 49
25.399999999999999
 74
0
 49
-12.699999999999999
 74
0
  0
LTYPE
  5
4A
100
AcDbSymbolTableRecord
100
AcDbLinetypeTableRecord
  2
DRAINAGE
 70
0
  3
Drainage ---->---->---->----
 72
65
 73
2
 40
10.16
 49
5.0800000000000001
 74
0
 49
5.0800000000000001
 74
0
  0
LTYPE
  5
4B
100
AcDbSymbolTableRecord
100
AcDbLinetypeTableRecord
  2
ACAD_ISO02W100
 70
0
  3
ISO dash __ __ __ __ __ __ __ __ __ __ __ __ __
 72
65
 73
2
 40
15.0
 49
12.0
 74
0
 49
-3.0
 74
0
  0
LTYPE
  5
4C
100
AcDbSymbolTableRecord
100
AcDbLinetypeTableRecord
  2
PHANTOM2
 70
0
  3
Phantom (.5x) ___ _ _ ___ _ _ ___ _ _ ___ _ _
 72
65
 73
6
 40
31.750000000000004
 49
15.875
 74
0
 49
-3.1749999999999998
 74
0
 49
3.1749999999999998
 74
0
 49
-3.1749999999999998
 74
0
 49
3.1749999999999998
 74
0
 49
-3.1749999999999998
 74
0
  0
LTYPE
  5
4D
100
AcDbSymbolTableRecord
100
AcDbLinetypeTableRecord
  2
DASHED2
 70
0
  3
Dashed (.5x) _ _ _ _ _ _ _ _ _ _ _ _ _ _ _ _ _ 
 72
65
 73
2
 40
9.5249999999999986
 49
6.3499999999999996
 74
0
 49
-3.1749999999999998
 74
0
  0
LTYPE
  5
4E
100
AcDbSymbolTableRecord
100
AcDbLinetypeTableRecord
  2
ACAD_ISO09W100
 70
0
  3
ISO long-dash double-short-dash ____ __ __ ____
 72
65
 73
6
 40
45.0
 49
24.0
 74
0
 49
-3.0
 74
0
 49
6.0
 74
0
 49
-3.0
 74
0
 49
6.0
 74
0
 49
-3.0
 74
0
  0
LTYPE
  5
4F
100
AcDbSymbolTableRecord
100
AcDbLinetypeTableRecord
  2
ACAD_ISO13W100
 70
0
  3
ISO double-dash double-dot __ __ . . __ __ . . _
 72
65
 73
8
 40
36.0
 49
12.0
 74
0
 49
-3.0
 74
0
 49
12.0
 74
0
 49
-3.0
 74
0
 49
0.0
 74
0
 49
-3.0
 74
0
 49
0.0
 74
0
 49
-3.0
 74
0
  0
LTYPE
  5
50
100
AcDbSymbolTableRecord
100
AcDbLinetypeTableRecord
  2
TRACKS
 70
0
  3
Tracks -|-|-|-|-|-|-|-|-|-|-|-|-|-|-|-|-|-|-|-|-|-|-|-|-
 72
65
 73
2
 40
7.6200000000000001
 49
3.8100000000000001
 74
0
 49
3.8100000000000001
 74
0
  0
LTYPE
  5
51
100
AcDbSymbolTableRecord
100
AcDbLinetypeTableRecord
  2
DRAINAGE2
 70
0
  3
Drainage reversed----<----<----<----
 72
65
 73
2
 40
10.16
 49
5.0800000000000001
 74
0
 49
5.0800000000000001
 74
0
  0
LTYPE
  5
52
100
AcDbSymbolTableRecord
100
AcDbLinetypeTableRecord
  2
DOT2
 70
0
  3
Dot (.5x) ........................................
 72
65
 73
2
 40
0.635
 49
0.1
 74
0
 49
-0.535
 74
0
  0
LTYPE
  5
53
100
AcDbSymbolTableRecord
100
AcDbLinetypeTableRecord
  2
ZIGZAG
 70
0
  3
Zig zag /\/\/\/\/\/\/\/\/\/\/\/\/\/\/\/\/\/\/\/\/\/\/\/
 72
65
 73
4
 40
20.32254
 49
0.00254
 74
0
 49
-5.0800000000000001
 74
0
 49
-10.16
 74
0
 49
-5.0800000000000001
 74
0
  0
LTYPE
  5
54
100
AcDbSymbolTableRecord
100
AcDbLinetypeTableRecord
  2
DASHED
 70
0
  3
Dashed __ __ __ __ __ __ __ __ __ __ __ __ __ _
 72
65
 73
2
 40
19.049999999999997
 49
12.699999999999999
 74
0
 49
-6.3499999999999996
 74
0
  0
LTYPE
  5
55
100
AcDbSymbolTableRecord
100
AcDbLinetypeTableRecord
  2
ACAD_ISO14W100
 70
0
  3
ISO dash triple-dot __ . . . __ . . . __ . . . _
 72
65
 73
8
 40
24.0
 49
12.0
 74
0
 49
-3.0
 74
0
 49
0.0
 74
0
 49
-3.0
 74
0
 49
0.0
 74
0
 49
-3.0
 74
0
 49
0.0
 74
0
 49
-3.0
 74
0
  0
LTYPE
  5
56
100
AcDbSymbolTableRecord
100
AcDbLinetypeTableRecord
  2
PHANTOMX2
 70
0
  3
Phantom (2x) ____________    ____    ____   _
 72
65
 73
6
 40
127.00000000000001
 49
63.5
 74
0
 49
-12.699999999999999
 74
0
 49
12.699999999999999
 74
0
 49
-12.699999999999999
 74
0
 49
12.699999999999999
 74
0
 49
-12.699999999999999
 74
0
  0
LTYPE
  5
57
100
AcDbSymbolTableRecord
100
AcDbLinetypeTableRecord
  2
DIVIDEX2
 70
0
  3
Divide (2x) ________  .  .  ________  .  .  _
 72
65
 73
6
 40
63.5
 49
25.399999999999999
 74
0
 49
-12.699999999999999
 74
0
 49
0.0
 74
0
 49
-12.699999999999999
 74
0
 49
0.0
 74
0
 49
-12.699999999999999
 74
0
  0
LTYPE
  5
58
100
AcDbSymbolTableRecord
100
AcDbLinetypeTableRecord
  2
BORDER
 70
0
  3
Border __ __ . __ __ . __ __ . __ __ . __ __ .
 72
65
 73
6
 40
44.449999999999996
 49
12.699999999999999
 74
0
 49
-6.3499999999999996
 74
0
 49
12.699999999999999
 74
0
 49
-6.3499999999999996
 74
0
 49
0.0
 74
0
 49
-6.3499999999999996
 74
0
  0
LTYPE
  5
59
100
AcDbSymbolTableRecord
100
AcDbLinetypeTableRecord
  2
DIVIDE2
 70
0
  3
Divide (.5x) __..__..__..__..__..__..__..__.._
 72
65
 73
6
 40
15.875
 49
6.3499999999999996
 74
0
 49
-3.1749999999999998
 74
0
 49
0.0
 74
0
 49
-3.1749999999999998
 74
0
 49
0.0
 74
0
 49
-3.1749999999999998
 74
0
  0
LTYPE
  5
5A
100
AcDbSymbolTableRecord
100
AcDbLinetypeTableRecord
  2
DOT
 70
0
  3
Dot . . . . . . . . . . . . . . . . . . . . . . . .
 72
65
 73
2
 40
6.3499999999999996
 49
0.0
 74
0
 49
-6.3499999999999996
 74
0
  0
LTYPE
  5
5B
100
AcDbSymbolTableRecord
100
AcDbLinetypeTableRecord
  2
DASHDOT
 70
0
  3
Dash dot __ . __ . __ . __ . __ . __ . __ . __
 72
65
 73
4
 40
25.399999999999999
 49
12.699999999999999
 74
0
 49
-6.3499999999999996
 74
0
 49
0.0
 74
0
 49
-6.3499999999999996
 74
0
  0
LTYPE
  5
5C
100
AcDbSymbolTableRecord
100
AcDbLinetypeTableRecord
  2
FENCELINE1
 70
0
  3
Fenceline circle ----0-----0----0-----0----0-----0--
 72
65
 73
4
 40
36.829999999999998
 49
6.3499999999999996
 74
0
 49
-2.54
 74
0
 49
-2.54
 74
0
 49
25.399999999999999
 74
0
  0
LTYPE
  5
5D
100
AcDbSymbolTableRecord
100
AcDbLinetypeTableRecord
  2
BATTING
 70
0
  3
Batting SSSSSSSSSSSSSSSSSSSSSSSSSSSSSSSSSSSSSSSSSSSSSSS
 72
65
 73
4
 40
10.16254
 49
0.00254
 74
0
 49
-2.54
 74
0
 49
-5.0800000000000001
 74
0
 49
-2.54
 74
0
  0
LTYPE
  5
5E
100
AcDbSymbolTableRecord
100
AcDbLinetypeTableRecord
  2
ACAD_ISO03W100
 70
0
  3
ISO dash space __    __    __    __    __    __
 72
65
 73
2
 40
30.0
 49
12.0
 74
0
 49
-18.0
 74
0
  0
LTYPE
  5
15
100
AcDbSymbolTableRecord
100
AcDbLinetypeTableRecord
  2
ByLayer
 70
0
  3

 72
65
 73
0
 40
0.0
  0
LTYPE
  5
5F
100
AcDbSymbolTableRecord
100
AcDbLinetypeTableRecord
  2
FENCELINE2
 70
0
  3
Fenceline square ----[]-----[]----[]-----[]----[]---
 72
65
 73
4
 40
36.829999999999998
 49
6.3499999999999996
 74
0
 49
-2.54
 74
0
 49
-2.54
 74
0
 49
25.399999999999999
 74
0
  0
ENDTAB
  0
TABLE
  2
LAYER
  5
2
100
AcDbSymbolTable
 70
1
  0
LAYER
  5
10
100
AcDbSymbolTableRecord
100
AcDbLayerTableRecord
  2
0
 70
0
 62
7
420
16777215
  6
Continuous
370
-3
390
F
  0
ENDTAB
  0
TABLE
  2
STYLE
  5
3
100
AcDbSymbolTable
 70
1
  0
STYLE
  5
60
100
AcDbSymbolTableRecord
100
AcDbTextStyleTableRecord
  2
Standard
 70
0
 40
0.0
 41
1.0
 50
0.0
 71
0
 42
2.5
  3

  4

1001
ACAD
1000
txt
1071
0
  0
ENDTAB
  0
TABLE
  2
VIEW
  5
6
100
AcDbSymbolTable
 70
0
  0
ENDTAB
  0
TABLE
  2
UCS
  5
7
100
AcDbSymbolTable
 70
0
  0
ENDTAB
  0
TABLE
  2
APPID
  5
9
100
AcDbSymbolTable
 70
1
  0
APPID
  5
12
100
AcDbSymbolTableRecord
100
AcDbRegAppTableRecord
  2
ACAD
 70
0
  0
APPID
  5
61
100
AcDbSymbolTableRecord
100
AcDbRegAppTableRecord
  2
QCAD
 70
0
  0
ENDTAB
  0
TABLE
  2
DIMSTYLE
  5
A
100
AcDbSymbolTable
 70
1
100
AcDbDimStyleTable
 71
0
  0
DIMSTYLE
105
27
100
AcDbSymbolTableRecord
100
AcDbDimStyleTableRecord
  2
Standard
 41
3.302
 42
1.0
 43
3.75
 44
1.0
 70
0
 73
0
 74
0
 77
1
 78
8
140
3.5
141
2.5
143
0.03937007874016
147
1.524
171
3
172
1
271
2
272
2
274
3
278
44
283
0
284
8
340
60
  0
ENDTAB
  0
TABLE
  2
BLOCK_RECORD
  5
1
100
AcDbSymbolTable
 70
1
  0
BLOCK_RECORD
  5
1F
100
AcDbSymbolTableRecord
100
AcDbBlockTableRecord
  2
*Model_Space
340
22
  0
BLOCK_RECORD
  5
1B
100
AcDbSymbolTableRecord
100
AcDbBlockTableRecord
  2
*Paper_Space
340
1E
  0
BLOCK_RECORD
  5
23
100
AcDbSymbolTableRecord
100
AcDbBlockTableRecord
  2
*Paper_Space0
340
26
  0
ENDTAB
  0
ENDSEC
  0
SECTION
  2
BLOCKS
  0
BLOCK
  5
20
100
AcDbEntity
  8
0
100
AcDbBlockBegin
  2
*Model_Space
 70
0
 10
0.0
 20
0.0
 30
0.0
  3
*Model_Space
  1

  0
ENDBLK
  5
21
100
AcDbEntity
  8
0
100
AcDbBlockEnd
  0
BLOCK
  5
1C
100
AcDbEntity
 67
1
  8
0
100
AcDbBlockBegin
  2
*Paper_Space
 70
0
 10
0.0
 20
0.0
 30
0.0
  3
*Paper_Space
  1

  0
ENDBLK
  5
1D
100
AcDbEntity
 67
1
  8
0
100
AcDbBlockEnd
  0
BLOCK
  5
24
100
AcDbEntity
  8
0
100
AcDbBlockBegin
  2
*Paper_Space0
 70
0
 10
0.0
 20
0.0
 30
0.0
  3
*Paper_Space0
  1

  0
ENDBLK
  5
25
100
AcDbEntity
  8
0
100
AcDbBlockEnd
  0
ENDSEC
  0
SECTION
  2
ENTITIES
  0
CIRCLE
  5
62
100
AcDbEntity
100
AcDbCircle
  8
0
 62
7
420
16777215
370
25
 48
1.0
  6
Continuous
 10
136.19895958250001
 20
-107.62099746379999
 30
0.0
 40
1.7654819188688859
  0
CIRCLE
  5
63
100
AcDbEntity
100
AcDbCircle
  8
0
 62
7
420
16777215
370
25
 48
1.0
  6
Continuous
 10
118.6989595825
 20
-107.62099746379999
 30
0.0
 40
1.765481918868844
  0
CIRCLE
  5
64
100
AcDbEntity
100
AcDbCircle
  8
0
 62
7
420
16777215
370
25
 48
1.0
  6
Continuous
 10
121.5989595825
 20
-77.620997463799995
 30
0.0
 40
1.0
  0
CIRCLE
  5
65
100
AcDbEntity
100
AcDbCircle
  8
0
 62
7
420
16777215
370
25
 48
1.0
  6
Continuous
 10
121.5989595825
 20
-104.92099746380001
 30
0.0
 40
1.000000000000028
  0
CIRCLE
  5
66
100
AcDbEntity
100
AcDbCircle
  8
0
 62
7
420
16777215
370
25
 48
1.0
  6
Continuous
 10
-0.2010404175
 20
-77.620997463799995
 30
0.0
 40
1.00000000000001
  0
CIRCLE
  5
67
100
AcDbEntity
100
AcDbCircle
  8
0
 62
7
420
16777215
370
25
 48
1.0
  6
Continuous
 10
-0.2010404175
 20
-104.92099746380001
 30
0.0
 40
0.9999999999999857
  0
CIRCLE
  5
68
100
AcDbEntity
100
AcDbCircle
  8
0
 62
7
420
16777215
370
25
 48
1.0
  6
Continuous
 10
2.6989595825000001
 20
-107.62099746379999
 30
0.0
 40
1.765481918868965
  0
CIRCLE
  5
69
100
AcDbEntity
100
AcDbCircle
  8
0
 62
7
420
16777215
370
25
 48
1.0
  6
Continuous
 10
-14.801040417499999
 20
-107.62099746379999
 30
0.0
 40
1.7654819188689339
  0
CIRCLE
  5
6A
100
AcDbEntity
100
AcDbCircle
  8
0
 62
7
420
16777215
370
25
 48
1.0
  6
Continuous
 10
73.698959582499995
 20
-28.020997463800001
 30
0.0
 40
8.0500000000000398
  0
CIRCLE
  5
6B
100
AcDbEntity
100
AcDbCircle
  8
0
 62
7
420
16777215
370
25
 48
1.0
  6
Continuous
 10
47.698959582500002
 20
-28.020997463800001
 30
0.0
 40
8.0500000000000114
  0
CIRCLE
  5
6C
100
AcDbEntity
100
AcDbCircle
  8
0
 62
7
420
16777215
370
25
 48
1.0
  6
Continuous
 10
102.7989595825
 20
-21.7209974638
 30
0.0
 40
0.9999999999999432
  0
CIRCLE
  5
6D
100
AcDbEntity
100
AcDbCircle
  8
0
 62
7
420
16777215
370
25
 48
1.0
  6
Continuous
 10
102.7989595825
 20
-49.020997463800001
 30
0.0
 40
0.9999999999999432
  0
CIRCLE
  5
6E
100
AcDbEntity
100
AcDbCircle
  8
0
 62
7
420
16777215
370
25
 48
1.0
  6
Continuous
 10
18.655278924200001
 20
-49.020997463800001
 30
0.0
 40
1.000000000000004
  0
CIRCLE
  5
6F
100
AcDbEntity
100
AcDbCircle
  8
0
 62
7
420
16777215
370
25
 48
1.0
  6
Continuous
 10
18.655278924200001
 20
-21.7209974638
 30
0.0
 40
1.0
  0
CIRCLE
  5
70
100
AcDbEntity
100
AcDbCircle
  8
0
 62
7
420
16777215
370
25
 48
1.0
  6
Continuous
 10
54.698959582500002
 20
-60.520997463800001
 30
0.0
 40
1.499999999999972
  0
CIRCLE
  5
71
100
AcDbEntity
100
AcDbCircle
  8
0
 62
7
420
16777215
370
25
 48
1.0
  6
Continuous
 10
60.698959582500002
 20
-98.985187416200006
 30
0.0
 40
5.9000000000000554
  0
CIRCLE
  5
72
100
AcDbEntity
100
AcDbCircle
  8
0
 62
7
420
16777215
370
25
 48
1.0
  6
Continuous
 10
75.698959582499995
 20
-81.472264392100001
 30
0.0
 40
1.499999999999972
  0
CIRCLE
  5
73
100
AcDbEntity
100
AcDbCircle
  8
0
 62
7
420
16777215
370
25
 48
1.0
  6
Continuous
 10
108.1989595825
 20
-176.47226439209999
 30
0.0
 40
1.499999999999972
  0
CIRCLE
  5
74
100
AcDbEntity
100
AcDbCircle
  8
0
 62
7
420
16777215
370
25
 48
1.0
  6
Continuous
 10
66.698959582499995
 20
-60.520997463800001
 30
0.0
 40
1.500000000000028
  0
CIRCLE
  5
75
100
AcDbEntity
100
AcDbCircle
  8
0
 62
7
420
16777215
370
25
 48
1.0
  6
Continuous
 10
84.523959582499998
 20
-159.40221973889999
 30
0.0
 40
1.250000000263952
  0
CIRCLE
  5
76
100
AcDbEntity
100
AcDbCircle
  8
0
 62
7
420
16777215
370
25
 48
1.0
  6
Continuous
 10
84.523959582499998
 20
-132.40221973889999
 30
0.0
 40
1.250000000263952
  0
CIRCLE
  5
77
100
AcDbEntity
100
AcDbCircle
  8
0
 62
7
420
16777215
370
25
 48
1.0
  6
Continuous
 10
106.87395958250001
 20
-145.90221973889999
 30
0.0
 40
1.2500000002640801
  0
CIRCLE
  5
78
100
AcDbEntity
100
AcDbCircle
  8
0
 62
7
420
16777215
370
25
 48
1.0
  6
Continuous
 10
14.198959582500001
 20
-108.90226439209999
 30
0.0
 40
1.499999999999964
  0
CIRCLE
  5
79
100
AcDbEntity
100
AcDbCircle
  8
0
 62
7
420
16777215
370
25
 48
1.0
  6
Continuous
 10
52.198959582500002
 20
-108.90226439209999
 30
0.0
 40
1.500000000000036
  0
CIRCLE
  5
7A
100
AcDbEntity
100
AcDbCircle
  8
0
 62
7
420
16777215
370
25
 48
1.0
  6
Continuous
 10
48.698959582500002
 20
-143.97226439209999
 30
0.0
 40
1.2499999999999789
  0
CIRCLE
  5
7B
100
AcDbEntity
100
AcDbCircle
  8
0
 62
7
420
16777215
370
25
 48
1.0
  6
Continuous
 10
72.698959582499995
 20
-143.97226439209999
 30
0.0
 40
1.25
  0
CIRCLE
  5
7C
100
AcDbEntity
100
AcDbCircle
  8
0
 62
7
420
16777215
370
25
 48
1.0
  6
Continuous
 10
72.698959582499995
 20
-173.97226439209999
 30
0.0
 40
1.2499999999999429
  0
CIRCLE
  5
7D
100
AcDbEntity
100
AcDbCircle
  8
0
 62
7
420
16777215
370
25
 48
1.0
  6
Continuous
 10
13.198959582500001
 20
-169.97226439209999
 30
0.0
 40
1.499999999999964
  0
CIRCLE
  5
7E
100
AcDbEntity
100
AcDbCircle
  8
0
 62
7
420
16777215
370
25
 48
1.0
  6
Continuous
 10
48.698959582500002
 20
-173.97226439209999
 30
0.0
 40
1.500000000000014
  0
CIRCLE
  5
7F
100
AcDbEntity
100
AcDbCircle
  8
0
 62
7
420
16777215
370
25
 48
1.0
  6
Continuous
 10
18.278959582500001
 20
-117.90226439209999
 30
0.0
 40
1.4999999999999889
  0
CIRCLE
  5
80
100
AcDbEntity
100
AcDbCircle
  8
0
 62
7
420
16777215
370
25
 48
1.0
  6
Continuous
 10
46.218959582499998
 20
-117.90226439209999
 30
0.0
 40
1.499999999999964
  0
CIRCLE
  5
81
100
AcDbEntity
100
AcDbCircle
  8
0
 62
7
420
16777215
370
25
 48
1.0
  6
Continuous
 10
14.198959582500001
 20
-70.902264392099994
 30
0.0
 40
1.499999999999968
  0
CIRCLE
  5
82
100
AcDbEntity
100
AcDbCircle
  8
0
 62
7
420
16777215
370
25
 48
1.0
  6
Continuous
 10
60.698959582500002
 20
-73.985187416200006
 30
0.0
 40
6.0000000000000213
  0
LINE
  5
83
100
AcDbEntity
100
AcDbLine
  8
0
 62
7
420
16777215
370
25
 48
1.0
  6
Continuous
 10
128.08784761179999
 20
-83.020997463800001
 30
0.0
 11
128.08784761179999
 21
-80.020997463800001
 31
0.0
  0
LINE
  5
84
100
AcDbEntity
100
AcDbLine
  8
0
 62
7
420
16777215
370
25
 48
1.0
  6
Continuous
 10
128.08784761179999
 20
-80.020997463800001
 30
0.0
 11
115.6989595825
 21
-80.020997463800001
 31
0.0
  0
LINE
  5
85
100
AcDbEntity
100
AcDbLine
  8
0
 62
7
420
16777215
370
25
 48
1.0
  6
Continuous
 10
115.6989595825
 20
-80.020997463800001
 30
0.0
 11
115.6989595825
 21
-102.5211730427
 31
0.0
  0
LINE
  5
86
100
AcDbEntity
100
AcDbLine
  8
0
 62
7
420
16777215
370
25
 48
1.0
  6
Continuous
 10
115.6989595825
 20
-102.5211730427
 30
0.0
 11
127.99895958250001
 21
-102.5211730427
 31
0.0
  0
LINE
  5
87
100
AcDbEntity
100
AcDbLine
  8
0
 62
7
420
16777215
370
25
 48
1.0
  6
Continuous
 10
127.99895958250001
 20
-102.5211730427
 30
0.0
 11
127.99895958250001
 21
-90.9316526649
 31
0.0
  0
LINE
  5
88
100
AcDbEntity
100
AcDbLine
  8
0
 62
7
420
16777215
370
25
 48
1.0
  6
Continuous
 10
127.99895958250001
 20
-90.9316526649
 30
0.0
 11
132.99895958249999
 21
-90.9316526649
 31
0.0
  0
LINE
  5
89
100
AcDbEntity
100
AcDbLine
  8
0
 62
7
420
16777215
370
25
 48
1.0
  6
Continuous
 10
133.08784761179999
 20
-83.020997463800001
 30
0.0
 11
128.08784761179999
 21
-83.020997463800001
 31
0.0
  0
LINE
  5
8A
100
AcDbEntity
100
AcDbLine
  8
0
 62
7
420
16777215
370
25
 48
1.0
  6
Continuous
 10
-6.6010404175000001
 20
-90.9316526649
 30
0.0
 11
-6.6010404175000001
 21
-102.5211730427
 31
0.0
  0
LINE
  5
8B
100
AcDbEntity
100
AcDbLine
  8
0
 62
7
420
16777215
370
25
 48
1.0
  6
Continuous
 10
-6.6010404175000001
 20
-102.5211730427
 30
0.0
 11
5.6989595824999997
 21
-102.5211730427
 31
0.0
  0
LINE
  5
8C
100
AcDbEntity
100
AcDbLine
  8
0
 62
7
420
16777215
370
25
 48
1.0
  6
Continuous
 10
5.6989595824999997
 20
-102.5211730427
 30
0.0
 11
5.6989595824999997
 21
-80.020997463800001
 31
0.0
  0
LINE
  5
8D
100
AcDbEntity
100
AcDbLine
  8
0
 62
7
420
16777215
370
25
 48
1.0
  6
Continuous
 10
5.6989595824999997
 20
-80.020997463800001
 30
0.0
 11
-6.6899284468999998
 21
-80.020997463800001
 31
0.0
  0
LINE
  5
8E
100
AcDbEntity
100
AcDbLine
  8
0
 62
7
420
16777215
370
25
 48
1.0
  6
Continuous
 10
-6.6899284468999998
 20
-80.020997463800001
 30
0.0
 11
-6.6899284468999998
 21
-83.020997463800001
 31
0.0
  0
LINE
  5
8F
100
AcDbEntity
100
AcDbLine
  8
0
 62
7
420
16777215
370
25
 48
1.0
  6
Continuous
 10
-6.6899284468999998
 20
-83.020997463800001
 30
0.0
 11
-11.6899284469
 21
-83.020997463800001
 31
0.0
  0
LINE
  5
90
100
AcDbEntity
100
AcDbLine
  8
0
 62
7
420
16777215
370
25
 48
1.0
  6
Continuous
 10
-11.6010404175
 20
-90.9316526649
 30
0.0
 11
-6.6010404175000001
 21
-90.9316526649
 31
0.0
  0
LINE
  5
91
100
AcDbEntity
100
AcDbLine
  8
0
 62
7
420
16777215
370
25
 48
1.0
  6
Continuous
 10
96.898959582499998
 20
-46.620997463800002
 30
0.0
 11
108.6989595825
 21
-46.620997463800002
 31
0.0
  0
LINE
  5
92
100
AcDbEntity
100
AcDbLine
  8
0
 62
7
420
16777215
370
25
 48
1.0
  6
Continuous
 10
108.6989595825
 20
-46.620997463800002
 30
0.0
 11
108.6989595825
 21
-24.120997463799998
 31
0.0
  0
LINE
  5
93
100
AcDbEntity
100
AcDbLine
  8
0
 62
7
420
16777215
370
25
 48
1.0
  6
Continuous
 10
108.6989595825
 20
-24.120997463799998
 30
0.0
 11
96.898959582499998
 21
-24.120997463799998
 31
0.0
  0
LINE
  5
94
100
AcDbEntity
100
AcDbLine
  8
0
 62
7
420
16777215
370
25
 48
1.0
  6
Continuous
 10
96.898959582499998
 20
-24.120997463799998
 30
0.0
 11
96.898959582499998
 21
-46.620997463800002
 31
0.0
  0
LINE
  5
95
100
AcDbEntity
100
AcDbLine
  8
0
 62
7
420
16777215
370
25
 48
1.0
  6
Continuous
 10
12.755278924200001
 20
-24.120997463799998
 30
0.0
 11
12.755278924200001
 21
-46.620997463800002
 31
0.0
  0
LINE
  5
96
100
AcDbEntity
100
AcDbLine
  8
0
 62
7
420
16777215
370
25
 48
1.0
  6
Continuous
 10
12.755278924200001
 20
-46.620997463800002
 30
0.0
 11
24.5552789242
 21
-46.620997463800002
 31
0.0
  0
LINE
  5
97
100
AcDbEntity
100
AcDbLine
  8
0
 62
7
420
16777215
370
25
 48
1.0
  6
Continuous
 10
24.5552789242
 20
-46.620997463800002
 30
0.0
 11
24.5552789242
 21
-24.120997463799998
 31
0.0
  0
LINE
  5
98
100
AcDbEntity
100
AcDbLine
  8
0
 62
7
420
16777215
370
25
 48
1.0
  6
Continuous
 10
24.5552789242
 20
-24.120997463799998
 30
0.0
 11
12.755278924200001
 21
-24.120997463799998
 31
0.0
  0
LINE
  5
99
100
AcDbEntity
100
AcDbLine
  8
0
 62
7
420
16777215
370
25
 48
1.0
  6
Continuous
 10
72.698932302599999
 20
-61.972264392100001
 30
0.0
 11
72.698932302599999
 21
-76.972264392100001
 31
0.0
  0
LINE
  5
9A
100
AcDbEntity
100
AcDbLine
  8
0
 62
7
420
16777215
370
25
 48
1.0
  6
Continuous
 10
72.698932302599999
 20
-76.972264392100001
 30
0.0
 11
80.698932302599999
 21
-76.972264392100001
 31
0.0
  0
LINE
  5
9B
100
AcDbEntity
100
AcDbLine
  8
0
 62
7
420
16777215
370
25
 48
1.0
  6
Continuous
 10
80.698932302599999
 20
-76.972264392100001
 30
0.0
 11
80.698932302599999
 21
-61.972264392100001
 31
0.0
  0
LINE
  5
9C
100
AcDbEntity
100
AcDbLine
  8
0
 62
7
420
16777215
370
25
 48
1.0
  6
Continuous
 10
80.698932302599999
 20
-61.972264392100001
 30
0.0
 11
72.698932302599999
 21
-61.972264392100001
 31
0.0
  0
LINE
  5
9D
100
AcDbEntity
100
AcDbLine
  8
0
 62
7
420
16777215
370
25
 48
1.0
  6
Continuous
 10
98.698959582499995
 20
-77.972264392100001
 30
0.0
 11
90.698959582499995
 21
-77.972264392100001
 31
0.0
  0
LINE
  5
9E
100
AcDbEntity
100
AcDbLine
  8
0
 62
7
420
16777215
370
25
 48
1.0
  6
Continuous
 10
90.698959582499995
 20
-77.972264392100001
 30
0.0
 11
90.698959582499995
 21
-79.972264392100001
 31
0.0
  0
LINE
  5
9F
100
AcDbEntity
100
AcDbLine
  8
0
 62
7
420
16777215
370
25
 48
1.0
  6
Continuous
 10
90.698959582499995
 20
-79.972264392100001
 30
0.0
 11
98.698959582499995
 21
-79.972264392100001
 31
0.0
  0
LINE
  5
A0
100
AcDbEntity
100
AcDbLine
  8
0
 62
7
420
16777215
370
25
 48
1.0
  6
Continuous
 10
98.698959582499995
 20
-79.972264392100001
 30
0.0
 11
98.698959582499995
 21
-77.972264392100001
 31
0.0
  0
LINE
  5
A1
100
AcDbEntity
100
AcDbLine
  8
0
 62
7
420
16777215
370
25
 48
1.0
  6
Continuous
 10
98.698959582499995
 20
-58.972264392100001
 30
0.0
 11
90.698959582499995
 21
-58.972264392100001
 31
0.0
  0
LINE
  5
A2
100
AcDbEntity
100
AcDbLine
  8
0
 62
7
420
16777215
370
25
 48
1.0
  6
Continuous
 10
90.698959582499995
 20
-58.972264392100001
 30
0.0
 11
90.698959582499995
 21
-60.972264392100001
 31
0.0
  0
LINE
  5
A3
100
AcDbEntity
100
AcDbLine
  8
0
 62
7
420
16777215
370
25
 48
1.0
  6
Continuous
 10
90.698959582499995
 20
-60.972264392100001
 30
0.0
 11
98.698959582499995
 21
-60.972264392100001
 31
0.0
  0
LINE
  5
A4
100
AcDbEntity
100
AcDbLine
  8
0
 62
7
420
16777215
370
25
 48
1.0
  6
Continuous
 10
98.698959582499995
 20
-60.972264392100001
 30
0.0
 11
98.698959582499995
 21
-58.972264392100001
 31
0.0
  0
LINE
  5
A5
100
AcDbEntity
100
AcDbLine
  8
0
 62
7
420
16777215
370
25
 48
1.0
  6
Continuous
 10
109.1989595825
 20
-108.9722643921
 30
0.0
 11
107.1989595825
 21
-108.9722643921
 31
0.0
  0
LINE
  5
A6
100
AcDbEntity
100
AcDbLine
  8
0
 62
7
420
16777215
370
25
 48
1.0
  6
Continuous
 10
107.1989595825
 20
-108.9722643921
 30
0.0
 11
107.1989595825
 21
-116.9722643921
 31
0.0
  0
LINE
  5
A7
100
AcDbEntity
100
AcDbLine
  8
0
 62
7
420
16777215
370
25
 48
1.0
  6
Continuous
 10
107.1989595825
 20
-116.9722643921
 30
0.0
 11
109.1989595825
 21
-116.9722643921
 31
0.0
  0
LINE
  5
A8
100
AcDbEntity
100
AcDbLine
  8
0
 62
7
420
16777215
370
25
 48
1.0
  6
Continuous
 10
109.1989595825
 20
-116.9722643921
 30
0.0
 11
109.1989595825
 21
-108.9722643921
 31
0.0
  0
LINE
  5
A9
100
AcDbEntity
100
AcDbLine
  8
0
 62
7
420
16777215
370
25
 48
1.0
  6
Continuous
 10
81.698959582499995
 20
-108.9722643921
 30
0.0
 11
79.698959582499995
 21
-108.9722643921
 31
0.0
  0
LINE
  5
AA
100
AcDbEntity
100
AcDbLine
  8
0
 62
7
420
16777215
370
25
 48
1.0
  6
Continuous
 10
79.698959582499995
 20
-108.9722643921
 30
0.0
 11
79.698959582499995
 21
-116.9722643921
 31
0.0
  0
LINE
  5
AB
100
AcDbEntity
100
AcDbLine
  8
0
 62
7
420
16777215
370
25
 48
1.0
  6
Continuous
 10
79.698959582499995
 20
-116.9722643921
 30
0.0
 11
81.698959582499995
 21
-116.9722643921
 31
0.0
  0
LINE
  5
AC
100
AcDbEntity
100
AcDbLine
  8
0
 62
7
420
16777215
370
25
 48
1.0
  6
Continuous
 10
81.698959582499995
 20
-116.9722643921
 30
0.0
 11
81.698959582499995
 21
-108.9722643921
 31
0.0
  0
LINE
  5
AD
100
AcDbEntity
100
AcDbLine
  8
0
 62
7
420
16777215
370
25
 48
1.0
  6
Continuous
 10
108.6989595825
 20
-156.97226439209999
 30
0.0
 11
106.6989595825
 21
-156.97226439209999
 31
0.0
  0
LINE
  5
AE
100
AcDbEntity
100
AcDbLine
  8
0
 62
7
420
16777215
370
25
 48
1.0
  6
Continuous
 10
106.6989595825
 20
-156.97226439209999
 30
0.0
 11
106.6989595825
 21
-164.97226439209999
 31
0.0
  0
LINE
  5
AF
100
AcDbEntity
100
AcDbLine
  8
0
 62
7
420
16777215
370
25
 48
1.0
  6
Continuous
 10
106.6989595825
 20
-164.97226439209999
 30
0.0
 11
108.6989595825
 21
-164.97226439209999
 31
0.0
  0
LINE
  5
B0
100
AcDbEntity
100
AcDbLine
  8
0
 62
7
420
16777215
370
25
 48
1.0
  6
Continuous
 10
108.6989595825
 20
-164.97226439209999
 30
0.0
 11
108.6989595825
 21
-156.97226439209999
 31
0.0
  0
LINE
  5
B1
100
AcDbEntity
100
AcDbLine
  8
0
 62
7
420
16777215
370
25
 48
1.0
  6
Continuous
 10
81.698959582499995
 20
-156.97226439209999
 30
0.0
 11
79.698959582499995
 21
-156.97226439209999
 31
0.0
  0
LINE
  5
B2
100
AcDbEntity
100
AcDbLine
  8
0
 62
7
420
16777215
370
25
 48
1.0
  6
Continuous
 10
79.698959582499995
 20
-156.97226439209999
 30
0.0
 11
79.698959582499995
 21
-164.97226439209999
 31
0.0
  0
LINE
  5
B3
100
AcDbEntity
100
AcDbLine
  8
0
 62
7
420
16777215
370
25
 48
1.0
  6
Continuous
 10
79.698959582499995
 20
-164.97226439209999
 30
0.0
 11
81.698959582499995
 21
-164.97226439209999
 31
0.0
  0
LINE
  5
B4
100
AcDbEntity
100
AcDbLine
  8
0
 62
7
420
16777215
370
25
 48
1.0
  6
Continuous
 10
81.698959582499995
 20
-164.97226439209999
 30
0.0
 11
81.698959582499995
 21
-156.97226439209999
 31
0.0
  0
LINE
  5
B5
100
AcDbEntity
100
AcDbLine
  8
0
 62
7
420
16777215
370
25
 48
1.0
  6
Continuous
 10
44.555278924200003
 20
-54.020997463800001
 30
0.0
 11
24.5552789242
 21
-54.020997463800001
 31
0.0
  0
LINE
  5
B6
100
AcDbEntity
100
AcDbLine
  8
0
 62
7
420
16777215
370
25
 48
1.0
  6
Continuous
 10
44.555278924200003
 20
-53.020997463800001
 30
0.0
 11
44.555278924200003
 21
-54.020997463800001
 31
0.0
  0
LINE
  5
B7
100
AcDbEntity
100
AcDbLine
  8
0
 62
7
420
16777215
370
25
 48
1.0
  6
Continuous
 10
44.555278924200003
 20
-53.020997463800001
 30
0.0
 11
32.555278924200003
 21
-53.020997463800001
 31
0.0
  0
LINE
  5
B8
100
AcDbEntity
100
AcDbLine
  8
0
 62
7
420
16777215
370
25
 48
1.0
  6
Continuous
 10
30.5552789242
 20
-10.0255793413
 30
0.0
 11
30.5552789242
 21
-51.020997463800001
 31
0.0
  0
LINE
  5
B9
100
AcDbEntity
100
AcDbLine
  8
0
 62
7
420
16777215
370
25
 48
1.0
  6
Continuous
 10
90.898959582499998
 20
-51.020997463800001
 30
0.0
 11
90.898959582499998
 21
-13.020997463800001
 31
0.0
  0
LINE
  5
BA
100
AcDbEntity
100
AcDbLine
  8
0
 62
7
420
16777215
370
25
 48
1.0
  6
Continuous
 10
88.898959582499998
 20
-53.020997463800001
 30
0.0
 11
76.898959582499998
 21
-53.020997463800001
 31
0.0
  0
LINE
  5
BB
100
AcDbEntity
100
AcDbLine
  8
0
 62
7
420
16777215
370
25
 48
1.0
  6
Continuous
 10
76.898959582499998
 20
-54.020997463800001
 30
0.0
 11
76.898959582499998
 21
-53.020997463800001
 31
0.0
  0
LINE
  5
BC
100
AcDbEntity
100
AcDbLine
  8
0
 62
7
420
16777215
370
25
 48
1.0
  6
Continuous
 10
96.898959582499998
 20
-54.020997463800001
 30
0.0
 11
76.898959582499998
 21
-54.020997463800001
 31
0.0
  0
LINE
  5
BD
100
AcDbEntity
100
AcDbLine
  8
0
 62
7
420
16777215
370
25
 48
1.0
  6
Continuous
 10
96.898959582499998
 20
-53.020997463800001
 30
0.0
 11
96.898959582499998
 21
-54.020997463800001
 31
0.0
  0
LINE
  5
BE
100
AcDbEntity
100
AcDbLine
  8
0
 62
7
420
16777215
370
25
 48
1.0
  6
Continuous
 10
96.898959582499998
 20
-53.020997463800001
 30
0.0
 11
95.898959582499998
 21
-53.020997463800001
 31
0.0
  0
LINE
  5
BF
100
AcDbEntity
100
AcDbLine
  8
0
 62
7
420
16777215
370
25
 48
1.0
  6
Continuous
 10
93.898959582499998
 20
-21.120997463799998
 30
0.0
 11
93.898959582499998
 21
-51.020997463800001
 31
0.0
  0
LINE
  5
C0
100
AcDbEntity
100
AcDbLine
  8
0
 62
7
420
16777215
370
25
 48
1.0
  6
Continuous
 10
109.6989595825
 20
-19.120997463799998
 30
0.0
 11
95.898959582499998
 21
-19.120997463799998
 31
0.0
  0
LINE
  5
C1
100
AcDbEntity
100
AcDbLine
  8
0
 62
7
420
16777215
370
25
 48
1.0
  6
Continuous
 10
111.6989595825
 20
-51.020997463800001
 30
0.0
 11
111.6989595825
 21
-21.120997463799998
 31
0.0
  0
LINE
  5
C2
100
AcDbEntity
100
AcDbLine
  8
0
 62
7
420
16777215
370
25
 48
1.0
  6
Continuous
 10
109.6989595825
 20
-53.020997463800001
 30
0.0
 11
108.6989595825
 21
-53.020997463800001
 31
0.0
  0
LINE
  5
C3
100
AcDbEntity
100
AcDbLine
  8
0
 62
7
420
16777215
370
25
 48
1.0
  6
Continuous
 10
108.6989595825
 20
-54.020997463800001
 30
0.0
 11
108.6989595825
 21
-53.020997463800001
 31
0.0
  0
LINE
  5
C4
100
AcDbEntity
100
AcDbLine
  8
0
 62
7
420
16777215
370
25
 48
1.0
  6
Continuous
 10
109.6989595825
 20
-54.020997463800001
 30
0.0
 11
108.6989595825
 21
-54.020997463800001
 31
0.0
  0
LINE
  5
C5
100
AcDbEntity
100
AcDbLine
  8
0
 62
7
420
16777215
370
25
 48
1.0
  6
Continuous
 10
111.6989595825
 20
-79.020997463800001
 30
0.0
 11
111.6989595825
 21
-56.020997463800001
 31
0.0
  0
LINE
  5
C6
100
AcDbEntity
100
AcDbLine
  8
0
 62
7
420
16777215
370
25
 48
1.0
  6
Continuous
 10
112.6989595825
 20
-79.020997463800001
 30
0.0
 11
111.6989595825
 21
-79.020997463800001
 31
0.0
  0
LINE
  5
C7
100
AcDbEntity
100
AcDbLine
  8
0
 62
7
420
16777215
370
25
 48
1.0
  6
Continuous
 10
112.6989595825
 20
-79.020997463800001
 30
0.0
 11
112.6989595825
 21
-75.020997463800001
 31
0.0
  0
LINE
  5
C8
100
AcDbEntity
100
AcDbLine
  8
0
 62
7
420
16777215
370
25
 48
1.0
  6
Continuous
 10
136.69895958250001
 20
-73.020997463800001
 30
0.0
 11
114.6989595825
 21
-73.020997463800001
 31
0.0
  0
LINE
  5
C9
100
AcDbEntity
100
AcDbLine
  8
0
 62
7
420
16777215
370
25
 48
1.0
  6
Continuous
 10
138.69895958250001
 20
-121.0209974638
 30
0.0
 11
138.69895958250001
 21
-75.020997463800001
 31
0.0
  0
LINE
  5
CA
100
AcDbEntity
100
AcDbLine
  8
0
 62
7
420
16777215
370
25
 48
1.0
  6
Continuous
 10
114.6989595825
 20
-123.0209974638
 30
0.0
 11
136.69895958250001
 21
-123.0209974638
 31
0.0
  0
LINE
  5
CB
100
AcDbEntity
100
AcDbLine
  8
0
 62
7
420
16777215
370
25
 48
1.0
  6
Continuous
 10
112.6989595825
 20
-121.0209974638
 30
0.0
 11
112.6989595825
 21
-117.0209974638
 31
0.0
  0
LINE
  5
CC
100
AcDbEntity
100
AcDbLine
  8
0
 62
7
420
16777215
370
25
 48
1.0
  6
Continuous
 10
111.6989595825
 20
-117.0209974638
 30
0.0
 11
112.6989595825
 21
-117.0209974638
 31
0.0
  0
LINE
  5
CD
100
AcDbEntity
100
AcDbLine
  8
0
 62
7
420
16777215
370
25
 48
1.0
  6
Continuous
 10
111.6989595825
 20
-177.47226439209999
 30
0.0
 11
111.6989595825
 21
-117.0209974638
 31
0.0
  0
LINE
  5
CE
100
AcDbEntity
100
AcDbLine
  8
0
 62
7
420
16777215
370
25
 48
1.0
  6
Continuous
 10
109.6989595825
 20
-179.47226439209999
 30
0.0
 11
107.6989595825
 21
-179.47226439209999
 31
0.0
  0
LINE
  5
CF
100
AcDbEntity
100
AcDbLine
  8
0
 62
7
420
16777215
370
25
 48
1.0
  6
Continuous
 10
107.6989595825
 20
-179.47226439209999
 30
0.0
 11
107.6989595825
 21
-180.47226439209999
 31
0.0
  0
LINE
  5
D0
100
AcDbEntity
100
AcDbLine
  8
0
 62
7
420
16777215
370
25
 48
1.0
  6
Continuous
 10
107.6989595825
 20
-180.47226439209999
 30
0.0
 11
109.6989595825
 21
-180.47226439209999
 31
0.0
  0
LINE
  5
D1
100
AcDbEntity
100
AcDbLine
  8
0
 62
7
420
16777215
370
25
 48
1.0
  6
Continuous
 10
111.6989595825
 20
-191.387535644
 30
0.0
 11
111.6989595825
 21
-182.47226439209999
 31
0.0
  0
LINE
  5
D2
100
AcDbEntity
100
AcDbLine
  8
0
 62
7
420
16777215
370
25
 48
1.0
  6
Continuous
 10
11.698959582500001
 20
-193.387535644
 30
0.0
 11
109.6989595825
 21
-193.387535644
 31
0.0
  0
LINE
  5
D3
100
AcDbEntity
100
AcDbLine
  8
0
 62
7
420
16777215
370
25
 48
1.0
  6
Continuous
 10
9.6989595825000006
 20
-182.47226439209999
 30
0.0
 11
9.6989595825000006
 21
-191.387535644
 31
0.0
  0
LINE
  5
D4
100
AcDbEntity
100
AcDbLine
  8
0
 62
7
420
16777215
370
25
 48
1.0
  6
Continuous
 10
11.698959582500001
 20
-180.47226439209999
 30
0.0
 11
13.698959582500001
 21
-180.47226439209999
 31
0.0
  0
LINE
  5
D5
100
AcDbEntity
100
AcDbLine
  8
0
 62
7
420
16777215
370
25
 48
1.0
  6
Continuous
 10
13.698959582500001
 20
-180.47226439209999
 30
0.0
 11
13.698959582500001
 21
-179.47226439209999
 31
0.0
  0
LINE
  5
D6
100
AcDbEntity
100
AcDbLine
  8
0
 62
7
420
16777215
370
25
 48
1.0
  6
Continuous
 10
13.698959582500001
 20
-179.47226439209999
 30
0.0
 11
11.698959582500001
 21
-179.47226439209999
 31
0.0
  0
LINE
  5
D7
100
AcDbEntity
100
AcDbLine
  8
0
 62
7
420
16777215
370
25
 48
1.0
  6
Continuous
 10
9.6989595825000006
 20
-117.0209974638
 30
0.0
 11
9.6989595825000006
 21
-177.47226439209999
 31
0.0
  0
LINE
  5
D8
100
AcDbEntity
100
AcDbLine
  8
0
 62
7
420
16777215
370
25
 48
1.0
  6
Continuous
 10
8.6989595825000006
 20
-117.0209974638
 30
0.0
 11
9.6989595825000006
 21
-117.0209974638
 31
0.0
  0
LINE
  5
D9
100
AcDbEntity
100
AcDbLine
  8
0
 62
7
420
16777215
370
25
 48
1.0
  6
Continuous
 10
8.6989595825000006
 20
-117.0209974638
 30
0.0
 11
8.6989595825000006
 21
-121.0209974638
 31
0.0
  0
LINE
  5
DA
100
AcDbEntity
100
AcDbLine
  8
0
 62
7
420
16777215
370
25
 48
1.0
  6
Continuous
 10
-17.301040417500001
 20
-75.020997463800001
 30
0.0
 11
-17.301040417500001
 21
-121.0209974638
 31
0.0
  0
LINE
  5
DB
100
AcDbEntity
100
AcDbLine
  8
0
 62
7
420
16777215
370
25
 48
1.0
  6
Continuous
 10
6.6989595824999997
 20
-73.020997463800001
 30
0.0
 11
-15.301040417499999
 21
-73.020997463800001
 31
0.0
  0
LINE
  5
DC
100
AcDbEntity
100
AcDbLine
  8
0
 62
7
420
16777215
370
25
 48
1.0
  6
Continuous
 10
8.6989595825000006
 20
-75.020997463800001
 30
0.0
 11
8.6989595825000006
 21
-79.020997463800001
 31
0.0
  0
LINE
  5
DD
100
AcDbEntity
100
AcDbLine
  8
0
 62
7
420
16777215
370
25
 48
1.0
  6
Continuous
 10
9.6989595825000006
 20
-79.020997463800001
 30
0.0
 11
8.6989595825000006
 21
-79.020997463800001
 31
0.0
  0
LINE
  5
DE
100
AcDbEntity
100
AcDbLine
  8
0
 62
7
420
16777215
370
25
 48
1.0
  6
Continuous
 10
9.6989595825000006
 20
-56.020997463800001
 30
0.0
 11
9.6989595825000006
 21
-79.020997463800001
 31
0.0
  0
LINE
  5
DF
100
AcDbEntity
100
AcDbLine
  8
0
 62
7
420
16777215
370
25
 48
1.0
  6
Continuous
 10
12.755278924200001
 20
-54.020997463800001
 30
0.0
 11
11.698959582500001
 21
-54.020997463800001
 31
0.0
  0
LINE
  5
E0
100
AcDbEntity
100
AcDbLine
  8
0
 62
7
420
16777215
370
25
 48
1.0
  6
Continuous
 10
12.755278924200001
 20
-53.020573856799999
 30
0.0
 11
12.755278924200001
 21
-54.020997463800001
 31
0.0
  0
LINE
  5
E1
100
AcDbEntity
100
AcDbLine
  8
0
 62
7
420
16777215
370
25
 48
1.0
  6
Continuous
 10
12.755278924200001
 20
-53.020573856799999
 30
0.0
 11
11.698959582500001
 21
-53.020573856799999
 31
0.0
  0
LINE
  5
E2
100
AcDbEntity
100
AcDbLine
  8
0
 62
7
420
16777215
370
25
 48
1.0
  6
Continuous
 10
9.7552789242000006
 20
-21.120997463799998
 30
0.0
 11
9.7552789242000006
 21
-51.076893198599997
 31
0.0
  0
LINE
  5
E3
100
AcDbEntity
100
AcDbLine
  8
0
 62
7
420
16777215
370
25
 48
1.0
  6
Continuous
 10
25.5552789242
 20
-19.120997463799998
 30
0.0
 11
11.755278924200001
 21
-19.120997463799998
 31
0.0
  0
LINE
  5
E4
100
AcDbEntity
100
AcDbLine
  8
0
 62
7
420
16777215
370
25
 48
1.0
  6
Continuous
 10
27.5552789242
 20
-51.076893198599997
 30
0.0
 11
27.5552789242
 21
-21.120997463799998
 31
0.0
  0
LINE
  5
E5
100
AcDbEntity
100
AcDbLine
  8
0
 62
7
420
16777215
370
25
 48
1.0
  6
Continuous
 10
25.6115982659
 20
-53.020573856799999
 30
0.0
 11
24.5552789242
 21
-53.020573856799999
 31
0.0
  0
LINE
  5
E6
100
AcDbEntity
100
AcDbLine
  8
0
 62
7
420
16777215
370
25
 48
1.0
  6
Continuous
 10
24.5552789242
 20
-54.020997463800001
 30
0.0
 11
24.5552789242
 21
-53.020573856799999
 31
0.0
  0
LINE
  5
E7
100
AcDbEntity
100
AcDbLine
  8
0
 62
7
420
16777215
370
25
 48
1.0
  6
Continuous
 10
-15.301040417499999
 20
-123.0209974638
 30
0.0
 11
6.6989595824999997
 21
-123.0209974638
 31
0.0
  0
ARC
  5
E8
100
AcDbEntity
  8
0
 62
7
420
16777215
370
25
 48
1.0
  6
Continuous
100
AcDbCircle
 10
132.44895958250001
 20
-86.969645597799996
 30
0.0
 40
3.999999999999738
100
AcDbArc
 50
277.90320773349998
 51
80.809239093199992
  0
ARC
  5
E9
100
AcDbEntity
  8
0
 62
7
420
16777215
370
25
 48
1.0
  6
Continuous
100
AcDbCircle
 10
32.555278924200003
 20
-51.020997463800001
 30
0.0
 40
2.0000000000000142
100
AcDbArc
 50
180.0
 51
270.0
  0
ARC
  5
EA
100
AcDbEntity
  8
0
 62
7
420
16777215
370
25
 48
1.0
  6
Continuous
100
AcDbCircle
 10
41.1528163499
 20
-11.026544425699999
 30
0.0
 40
10.644704344878519
100
AcDbArc
 50
103.61876261410002
 51
174.6042716362
  0
ARC
  5
EB
100
AcDbEntity
  8
0
 62
7
420
16777215
370
25
 48
1.0
  6
Continuous
100
AcDbCircle
 10
44.521402090599999
 20
-3.5068075208999998
 30
0.0
 40
6.5192024051846316
100
AcDbArc
 50
154.3139564574
 51
202.52161115019999
  0
ARC
  5
EC
100
AcDbEntity
  8
0
 62
7
420
16777215
370
25
 48
1.0
  6
Continuous
100
AcDbCircle
 10
53.655015704
 20
-18.034118565
 30
0.0
 40
19.34993540041112
100
AcDbArc
 50
99.4831049581
 51
141.558127009
  0
ARC
  5
ED
100
AcDbEntity
  8
0
 62
7
420
16777215
370
25
 48
1.0
  6
Continuous
100
AcDbCircle
 10
52.978483235299997
 20
-1.4370614820000001
 30
0.0
 40
3.5355339059872488
100
AcDbArc
 50
135.2641788199
 51
225.26417881980001
  0
ARC
  5
EE
100
AcDbEntity
  8
0
 62
7
420
16777215
370
25
 48
1.0
  6
Continuous
100
AcDbCircle
 10
64.408135755800004
 20
-18.033247023400001
 30
0.0
 40
19.801308965368289
100
AcDbArc
 50
101.63231352389998
 51
134.65915632670001
  0
ARC
  5
EF
100
AcDbEntity
  8
0
 62
7
420
16777215
370
25
 48
1.0
  6
Continuous
100
AcDbCircle
 10
71.406252475399995
 20
3.4120737816000002
 30
0.0
 40
11.180339887467699
100
AcDbArc
 50
190.56902528820004
 51
243.69912764230006
  0
ARC
  5
F0
100
AcDbEntity
  8
0
 62
7
420
16777215
370
25
 48
1.0
  6
Continuous
100
AcDbCircle
 10
85.198175188899995
 20
-27.3167981231
 30
0.0
 40
27.93096648696492
100
AcDbArc
 50
99.432803938700005
 51
132.15559028109999
  0
ARC
  5
F1
100
AcDbEntity
  8
0
 62
7
420
16777215
370
25
 48
1.0
  6
Continuous
100
AcDbCircle
 10
90.866030121899996
 20
-0.8949064334
 30
0.0
 40
10.307764064052529
100
AcDbArc
 50
173.698375102
 51
259.39312243059999
  0
ARC
  5
F2
100
AcDbEntity
  8
0
 62
7
420
16777215
370
25
 48
1.0
  6
Continuous
100
AcDbCircle
 10
88.022625888099995
 20
-13.873467098900001
 30
0.0
 40
2.9999999999560898
100
AcDbArc
 50
16.5084378311
 51
71.617835665300007
  0
ARC
  5
F3
100
AcDbEntity
  8
0
 62
7
420
16777215
370
25
 48
1.0
  6
Continuous
100
AcDbCircle
 10
88.898959582499998
 20
-51.020997463800001
 30
0.0
 40
2.0000000000000209
100
AcDbArc
 50
270.0
 51
0.0
  0
ARC
  5
F4
100
AcDbEntity
  8
0
 62
7
420
16777215
370
25
 48
1.0
  6
Continuous
100
AcDbCircle
 10
95.898959582499998
 20
-51.020997463800001
 30
0.0
 40
1.9999999999999929
100
AcDbArc
 50
180.0
 51
270.0
  0
ARC
  5
F5
100
AcDbEntity
  8
0
 62
7
420
16777215
370
25
 48
1.0
  6
Continuous
100
AcDbCircle
 10
95.898959582499998
 20
-21.120997463799998
 30
0.0
 40
2.0000000000000142
100
AcDbArc
 50
90.0
 51
180.0
  0
ARC
  5
F6
100
AcDbEntity
  8
0
 62
7
420
16777215
370
25
 48
1.0
  6
Continuous
100
AcDbCircle
 10
109.6989595825
 20
-21.120997463799998
 30
0.0
 40
2.0
100
AcDbArc
 50
0.0
 51
90.0
  0
ARC
  5
F7
100
AcDbEntity
  8
0
 62
7
420
16777215
370
25
 48
1.0
  6
Continuous
100
AcDbCircle
 10
109.6989595825
 20
-51.020997463800001
 30
0.0
 40
2.0000000000000142
100
AcDbArc
 50
270.0
 51
0.0
  0
ARC
  5
F8
100
AcDbEntity
  8
0
 62
7
420
16777215
370
25
 48
1.0
  6
Continuous
100
AcDbCircle
 10
109.6989595825
 20
-56.020997463800001
 30
0.0
 40
1.9999999999999929
100
AcDbArc
 50
0.0
 51
90.0
  0
ARC
  5
F9
100
AcDbEntity
  8
0
 62
7
420
16777215
370
25
 48
1.0
  6
Continuous
100
AcDbCircle
 10
114.6989595825
 20
-75.020997463800001
 30
0.0
 40
2.0000000000009521
100
AcDbArc
 50
90.0
 51
180.0
  0
ARC
  5
FA
100
AcDbEntity
  8
0
 62
7
420
16777215
370
25
 48
1.0
  6
Continuous
100
AcDbCircle
 10
136.69895958250001
 20
-75.020997463800001
 30
0.0
 40
1.9999999999985221
100
AcDbArc
 50
0.0
 51
90.0
  0
ARC
  5
FB
100
AcDbEntity
  8
0
 62
7
420
16777215
370
25
 48
1.0
  6
Continuous
100
AcDbCircle
 10
136.69895958250001
 20
-121.0209974638
 30
0.0
 40
1.999999999998437
100
AcDbArc
 50
270.0
 51
360.0
  0
ARC
  5
FC
100
AcDbEntity
  8
0
 62
7
420
16777215
370
25
 48
1.0
  6
Continuous
100
AcDbCircle
 10
114.6989595825
 20
-121.0209974638
 30
0.0
 40
1.999999999999986
100
AcDbArc
 50
180.0
 51
270.0
  0
ARC
  5
FD
100
AcDbEntity
  8
0
 62
7
420
16777215
370
25
 48
1.0
  6
Continuous
100
AcDbCircle
 10
109.6989595825
 20
-177.47226439209999
 30
0.0
 40
1.999999999998622
100
AcDbArc
 50
270.0
 51
360.0
  0
ARC
  5
FE
100
AcDbEntity
  8
0
 62
7
420
16777215
370
25
 48
1.0
  6
Continuous
100
AcDbCircle
 10
109.6989595825
 20
-182.47226439209999
 30
0.0
 40
1.999999999998437
100
AcDbArc
 50
0.0
 51
90.0
  0
ARC
  5
FF
100
AcDbEntity
  8
0
 62
7
420
16777215
370
25
 48
1.0
  6
Continuous
100
AcDbCircle
 10
109.6989595825
 20
-191.387535644
 30
0.0
 40
1.999999999998423
100
AcDbArc
 50
270.0
 51
0.0
  0
ARC
  5
100
100
AcDbEntity
  8
0
 62
7
420
16777215
370
25
 48
1.0
  6
Continuous
100
AcDbCircle
 10
11.698959582500001
 20
-191.387535644
 30
0.0
 40
1.9999999999984419
100
AcDbArc
 50
180.0
 51
270.0
  0
ARC
  5
101
100
AcDbEntity
  8
0
 62
7
420
16777215
370
25
 48
1.0
  6
Continuous
100
AcDbCircle
 10
11.698959582500001
 20
-182.47226439209999
 30
0.0
 40
1.999999999998501
100
AcDbArc
 50
90.0
 51
180.0
  0
ARC
  5
102
100
AcDbEntity
  8
0
 62
7
420
16777215
370
25
 48
1.0
  6
Continuous
100
AcDbCircle
 10
11.698959582500001
 20
-177.47226439209999
 30
0.0
 40
1.999999999998437
100
AcDbArc
 50
180.0
 51
270.0
  0
ARC
  5
103
100
AcDbEntity
  8
0
 62
7
420
16777215
370
25
 48
1.0
  6
Continuous
100
AcDbCircle
 10
-15.301040417499999
 20
-121.0209974638
 30
0.0
 40
1.9999999999973159
100
AcDbArc
 50
180.0
 51
270.0
  0
ARC
  5
104
100
AcDbEntity
  8
0
 62
7
420
16777215
370
25
 48
1.0
  6
Continuous
100
AcDbCircle
 10
-15.301040417499999
 20
-75.020997463800001
 30
0.0
 40
1.9999999999984559
100
AcDbArc
 50
90.0
 51
180.0
  0
ARC
  5
105
100
AcDbEntity
  8
0
 62
7
420
16777215
370
25
 48
1.0
  6
Continuous
100
AcDbCircle
 10
11.698959582500001
 20
-56.020997463800001
 30
0.0
 40
2.000000000000052
100
AcDbArc
 50
90.0
 51
180.0
  0
ARC
  5
106
100
AcDbEntity
  8
0
 62
7
420
16777215
370
25
 48
1.0
  6
Continuous
100
AcDbCircle
 10
11.698959582500001
 20
-51.076893198599997
 30
0.0
 40
1.9436806582598289
100
AcDbArc
 50
180.0
 51
270.0
  0
ARC
  5
107
100
AcDbEntity
  8
0
 62
7
420
16777215
370
25
 48
1.0
  6
Continuous
100
AcDbCircle
 10
11.755278924200001
 20
-21.120997463799998
 30
0.0
 40
1.9999999999999929
100
AcDbArc
 50
90.0
 51
180.0
  0
ARC
  5
108
100
AcDbEntity
  8
0
 62
7
420
16777215
370
25
 48
1.0
  6
Continuous
100
AcDbCircle
 10
25.5552789242
 20
-21.120997463799998
 30
0.0
 40
1.99999999999994
100
AcDbArc
 50
0.0
 51
90.0
  0
ARC
  5
109
100
AcDbEntity
  8
0
 62
7
420
16777215
370
25
 48
1.0
  6
Continuous
100
AcDbCircle
 10
25.6115982659
 20
-51.076893198599997
 30
0.0
 40
1.943680658259904
100
AcDbArc
 50
270.0
 51
0.0
  0
ARC
  5
10A
100
AcDbEntity
  8
0
 62
7
420
16777215
370
25
 48
1.0
  6
Continuous
100
AcDbCircle
 10
6.6989595824999997
 20
-75.020997463800001
 30
0.0
 40
2.0
100
AcDbArc
 50
360.0
 51
90.0
  0
ARC
  5
10B
100
AcDbEntity
  8
0
 62
7
420
16777215
370
25
 48
1.0
  6
Continuous
100
AcDbCircle
 10
6.6989595824999997
 20
-121.0209974638
 30
0.0
 40
2.0000000000002438
100
AcDbArc
 50
270.0
 51
360.0
  0
ARC
  5
10C
100
AcDbEntity
  8
0
 62
7
420
16777215
370
25
 48
1.0
  6
Continuous
100
AcDbCircle
 10
-11.051040417499999
 20
-86.969645597799996
 30
0.0
 40
3.9999999999997482
100
AcDbArc
 50
99.190760906800008
 51
262.09679226650002
  0
ENDSEC
  0
SECTION
  2
OBJECTS
  0
DICTIONARY
  5
C
100
AcDbDictionary
280
0
281
1
  3
ACAD_GROUP
350
D
  3
ACAD_LAYOUT
350
1A
  3
ACAD_MLINESTYLE
350
17
  3
ACAD_PLOTSETTINGS
350
19
  3
ACAD_PLOTSTYLENAME
350
E
  3
AcDbVariableDictionary
350
10D
  3
QCAD_OBJECTS
350
10E
  0
DICTIONARY
  5
D
100
AcDbDictionary
280
0
281
1
  0
ACDBDICTIONARYWDFLT
  5
E
100
AcDbDictionary
281
1
  3
Normal
350
F
100
AcDbDictionaryWithDefault
340
F
  0
ACDBPLACEHOLDER
  5
F
  0
DICTIONARY
  5
17
100
AcDbDictionary
280
0
281
1
  3
Standard
350
18
  0
MLINESTYLE
  5
18
100
AcDbMlineStyle
  2
STANDARD
 70
0
  3

 62
256
 51
90.0
 52
90.0
 71
2
 49
0.5
 62
256
  6
BYLAYER
 49
-0.5
 62
256
  6
BYLAYER
  0
DICTIONARY
  5
19
100
AcDbDictionary
280
0
281
1
  0
DICTIONARY
  5
1A
100
AcDbDictionary
281
1
  3
Layout1
350
1E
  3
Layout2
350
26
  3
Model
350
22
  0
LAYOUT
  5
1E
100
AcDbPlotSettings
  1

  2
none_device
  4

  6

 40
0.0
 41
0.0
 42
0.0
 43
0.0
 44
0.0
 45
0.0
 46
0.0
 47
0.0
 48
0.0
 49
0.0
140
0.0
141
0.0
142
1.0
143
1.0
 70
688
 72
0
 73
0
 74
5
  7

 75
16
147
1.0
148
0.0
149
0.0
100
AcDbLayout
  1
Layout1
 70
1
 71
1
 10
0.0
 20
0.0
 11
420.0
 21
297.0
 12
0.0
 22
0.0
 32
0.0
 14
100000000000000000000.0
 24
100000000000000000000.0
 34
100000000000000000000.0
 15
-100000000000000000000.0
 25
-100000000000000000000.0
 35
-100000000000000000000.0
146
0.0
 13
0.0
 23
0.0
 33
0.0
 16
1.0
 26
0.0
 36
0.0
 17
0.0
 27
1.0
 37
0.0
 76
0
330
1B
  0
LAYOUT
  5
22
100
AcDbPlotSettings
  1

  2
none_device
  4

  6

 40
0.0
 41
0.0
 42
0.0
 43
0.0
 44
0.0
 45
0.0
 46
0.0
 47
0.0
 48
0.0
 49
0.0
140
0.0
141
0.0
142
1.0
143
1.0
 70
1712
 72
0
 73
0
 74
0
  7

 75
0
147
1.0
148
0.0
149
0.0
100
AcDbLayout
  1
Model
 70
1
 71
0
 10
0.0
 20
0.0
 11
12.0
 21
9.0
 12
0.0
 22
0.0
 32
0.0
 14
0.0
 24
0.0
 34
0.0
 15
0.0
 25
0.0
 35
0.0
146
0.0
 13
0.0
 23
0.0
 33
0.0
 16
1.0
 26
0.0
 36
0.0
 17
0.0
 27
1.0
 37
0.0
 76
0
330
1F
  0
LAYOUT
  5
26
100
AcDbPlotSettings
  1

  2
none_device
  4

  6

 40
0.0
 41
0.0
 42
0.0
 43
0.0
 44
0.0
 45
0.0
 46
0.0
 47
0.0
 48
0.0
 49
0.0
140
0.0
141
0.0
142
1.0
143
1.0
 70
688
 72
0
 73
0
 74
5
  7

 75
16
147
1.0
148
0.0
149
0.0
100
AcDbLayout
  1
Layout2
 70
1
 71
2
 10
0.0
 20
0.0
 11
12.0
 21
9.0
 12
0.0
 22
0.0
 32
0.0
 14
0.0
 24
0.0
 34
0.0
 15
0.0
 25
0.0
 35
0.0
146
0.0
 13
0.0
 23
0.0
 33
0.0
 16
1.0
 26
0.0
 36
0.0
 17
0.0
 27
1.0
 37
0.0
 76
0
330
23
  0
DICTIONARY
  5
10D
100
AcDbDictionary
281
1
  3
DIMASSOC
350
110
  3
HIDETEXT
350
10F
  0
DICTIONARYVAR
  5
10F
100
DictionaryVariables
280
0
  1
2
  0
DICTIONARYVAR
  5
110
100
DictionaryVariables
280
0
  1
1
  0
DICTIONARY
  5
10E
100
AcDbDictionary
281
1
  3
ColorSettings/BackgroundColor
350
111
  3
ColorSettings/ColorMode
350
112
  3
Grid/DisplayGrid00
350
113
  3
Grid/DisplayGrid01
350
114
  3
Grid/DisplayGrid02
350
115
  3
Grid/DisplayGrid03
350
116
  3
Grid/GridSpacingX00
350
117
  3
Grid/GridSpacingX01
350
118
  3
Grid/GridSpacingX02
350
119
  3
Grid/GridSpacingX03
350
11A
  3
Grid/GridSpacingY00
350
11B
  3
Grid/GridSpacingY01
350
11C
  3
Grid/GridSpacingY02
350
11D
  3
Grid/GridSpacingY03
350
11E
  3
Grid/IsometricGrid00
350
11F
  3
Grid/IsometricGrid01
350
120
  3
Grid/IsometricGrid02
350
121
  3
Grid/IsometricGrid03
350
122
  3
Grid/IsometricProjection00
350
123
  3
Grid/IsometricProjection01
350
124
  3
Grid/IsometricProjection02
350
125
  3
Grid/IsometricProjection03
350
126
  3
Grid/MetaGridSpacingX00
350
127
  3
Grid/MetaGridSpacingX01
350
128
  3
Grid/MetaGridSpacingX02
350
129
  3
Grid/MetaGridSpacingX03
350
12A
  3
Grid/MetaGridSpacingY00
350
12B
  3
Grid/MetaGridSpacingY01
350
12C
  3
Grid/MetaGridSpacingY02
350
12D
  3
Grid/MetaGridSpacingY03
350
12E
  3
MultiPageSettings/Columns
350
12F
  3
MultiPageSettings/GlueMarginsBottom
350
130
  3
MultiPageSettings/GlueMarginsLeft
350
131
  3
MultiPageSettings/GlueMarginsRight
350
132
  3
MultiPageSettings/GlueMarginsTop
350
133
  3
MultiPageSettings/PrintCropMarks
350
134
  3
MultiPageSettings/Rows
350
135
  3
PageSettings/OffsetX
350
136
  3
PageSettings/OffsetY
350
137
  3
PageSettings/PageOrientation
350
138
  3
PageSettings/PaperHeight
350
139
  3
PageSettings/PaperWidth
350
13A
  3
PageSettings/Scale
350
13B
  3
PageSettings/ShowPaperBorders
350
13C
  3
UnitSettings/PaperUnit
350
13D
  3
ViewportCenter
350
13E
  3
ViewportHeight
350
13F
  3
ViewportWidth
350
140
  0
XRECORD
  5
111
330
10E
100
AcDbXrecord
280
1
1000
White
  0
XRECORD
  5
112
330
10E
100
AcDbXrecord
280
1
1000
FullColor
  0
XRECORD
  5
113
330
10E
100
AcDbXrecord
280
1
290
1
  0
XRECORD
  5
114
330
10E
100
AcDbXrecord
280
1
290
1
  0
XRECORD
  5
115
330
10E
100
AcDbXrecord
280
1
290
1
  0
XRECORD
  5
116
330
10E
100
AcDbXrecord
280
1
290
1
  0
XRECORD
  5
117
330
10E
100
AcDbXrecord
280
1
1000
auto
  0
XRECORD
  5
118
330
10E
100
AcDbXrecord
280
1
1000
auto
  0
XRECORD
  5
119
330
10E
100
AcDbXrecord
280
1
1000
auto
  0
XRECORD
  5
11A
330
10E
100
AcDbXrecord
280
1
1000
auto
  0
XRECORD
  5
11B
330
10E
100
AcDbXrecord
280
1
1000
auto
  0
XRECORD
  5
11C
330
10E
100
AcDbXrecord
280
1
1000
auto
  0
XRECORD
  5
11D
330
10E
100
AcDbXrecord
280
1
1000
auto
  0
XRECORD
  5
11E
330
10E
100
AcDbXrecord
280
1
1000
auto
  0
XRECORD
  5
11F
330
10E
100
AcDbXrecord
280
1
290
0
  0
XRECORD
  5
120
330
10E
100
AcDbXrecord
280
1
290
0
  0
XRECORD
  5
121
330
10E
100
AcDbXrecord
280
1
290
0
  0
XRECORD
  5
122
330
10E
100
AcDbXrecord
280
1
290
0
  0
XRECORD
  5
123
330
10E
100
AcDbXrecord
280
1
 90
0
  0
XRECORD
  5
124
330
10E
100
AcDbXrecord
280
1
 90
0
  0
XRECORD
  5
125
330
10E
100
AcDbXrecord
280
1
 90
0
  0
XRECORD
  5
126
330
10E
100
AcDbXrecord
280
1
 90
0
  0
XRECORD
  5
127
330
10E
100
AcDbXrecord
280
1
1000
auto
  0
XRECORD
  5
128
330
10E
100
AcDbXrecord
280
1
1000
auto
  0
XRECORD
  5
129
330
10E
100
AcDbXrecord
280
1
1000
auto
  0
XRECORD
  5
12A
330
10E
100
AcDbXrecord
280
1
1000
auto
  0
XRECORD
  5
12B
330
10E
100
AcDbXrecord
280
1
1000
auto
  0
XRECORD
  5
12C
330
10E
100
AcDbXrecord
280
1
1000
auto
  0
XRECORD
  5
12D
330
10E
100
AcDbXrecord
280
1
1000
auto
  0
XRECORD
  5
12E
330
10E
100
AcDbXrecord
280
1
1000
auto
  0
XRECORD
  5
12F
330
10E
100
AcDbXrecord
280
1
 90
1
  0
XRECORD
  5
130
330
10E
100
AcDbXrecord
280
1
 40
10.0
  0
XRECORD
  5
131
330
10E
100
AcDbXrecord
280
1
 40
10.0
  0
XRECORD
  5
132
330
10E
100
AcDbXrecord
280
1
 40
10.0
  0
XRECORD
  5
133
330
10E
100
AcDbXrecord
280
1
 40
10.0
  0
XRECORD
  5
134
330
10E
100
AcDbXrecord
280
1
290
0
  0
XRECORD
  5
135
330
10E
100
AcDbXrecord
280
1
 90
1
  0
XRECORD
  5
136
330
10E
100
AcDbXrecord
280
1
 40
0.0
  0
XRECORD
  5
137
330
10E
100
AcDbXrecord
280
1
 40
0.0
  0
XRECORD
  5
138
330
10E
100
AcDbXrecord
280
1
1000
Portrait
  0
XRECORD
  5
139
330
10E
100
AcDbXrecord
280
1
 40
279.39999999999998
  0
XRECORD
  5
13A
330
10E
100
AcDbXrecord
280
1
 40
215.90000000000001
  0
XRECORD
  5
13B
330
10E
100
AcDbXrecord
280
1
1000
1:1
  0
XRECORD
  5
13C
330
10E
100
AcDbXrecord
280
1
290
1
  0
XRECORD
  5
13D
330
10E
100
AcDbXrecord
280
1
 90
4
  0
XRECORD
  5
13F
330
10E
100
AcDbXrecord
280
1
 40
240.92113630667896
  0
XRECORD
  5
140
330
10E
100
AcDbXrecord
280
1
 40
538.01559455014831
  0
ENDSEC
  0
EOF
