999
dxflib 3.12.2.0
  0
SECTION
  2
HEADER
  9
$ACADVER
  1
AC1015
  9
$HANDSEED
  5
FFFF
  9
$ANGBASE
 50
0.0
  9
$ATTMODE
 70
1
  9
$AUNITS
 70
0
  9
$AUPREC
 70
2
  9
$CELTSCALE
 40
1.0
  9
$CHAMFERA
 40
0.0
  9
$CHAMFERB
 40
0.0
  9
$CHAMFERC
 40
0.0
  9
$CHAMFERD
 40
0.0
  9
$CMLJUST
 70
0
  9
$CMLSCALE
 40
20.0
  9
$DIMADEC
 70
2
  9
$DIMALTD
 70
3
  9
$DIMALTF
 40
0.0393700787
  9
$DIMALTRND
 40
0.0
  9
$DIMALTTD
 70
3
  9
$DIMALTTZ
 70
0
  9
$DIMALTU
 70
2
  9
$DIMALTZ
 70
0
  9
$DIMAPOST
  1

  9
$DIMASZ
 40
3.302
  9
$DIMATFIT
 70
3
  9
$DIMAUNIT
 70
0
  9
$DIMAZIN
 70
0
  9
$DIMCEN
 40
2.5
  9
$DIMDEC
 70
2
  9
$DIMDLE
 40
0.0
  9
$DIMDLI
 40
3.75
  9
$DIMDSEP
 70
44
  9
$DIMEXE
 40
1.0
  9
$DIMEXO
 40
1.0
  9
$DIMFRAC
 70
0
  9
$DIMGAP
 40
1.524
  9
$DIMJUST
 70
0
  9
$DIMLFAC
 40
1.0
  9
$DIMLUNIT
 70
2
  9
$DIMLWD
 70
-2
  9
$DIMLWE
 70
-2
  9
$DIMPOST
  1

  9
$DIMRND
 40
0.0
  9
$DIMSCALE
 40
1.0
  9
$DIMTAD
 70
1
  9
$DIMTDEC
 70
2
  9
$DIMTFAC
 40
1.0
  9
$DIMTM
 40
0.0
  9
$DIMTOLJ
 70
0
  9
$DIMTP
 40
0.0
  9
$DIMTSZ
 40
0.0
  9
$DIMTVP
 40
0.0
  9
$DIMTXT
 40
3.5
  9
$DIMTZIN
 70
0
  9
$DIMZIN
 70
0
  9
$DWGCODEPAGE
  3
ANSI_1252
  9
$ELEVATION
 40
0.0
  9
$EXTMAX
 10
205.10000358479999
 20
-31.542752084
 30
0.0
  9
$EXTMIN
 10
49.1000035848
 20
-259.28710822080001
 30
0.0
  9
$FILLETRAD
 40
10.0
  9
$INSBASE
 10
0.0
 20
0.0
 30
0.0
  9
$INSUNITS
 70
4
  9
$LIMMAX
 10
420.0
 20
297.0
  9
$LIMMIN
 10
0.0
 20
0.0
  9
$LTSCALE
 40
1.0
  9
$LUNITS
 70
2
  9
$LUPREC
 70
2
  9
$MAXACTVP
 70
2
  9
$MEASUREMENT
 70
1
  9
$PDMODE
 70
0
  9
$PDSIZE
 40
-1.0
  9
$PELEVATION
 40
0.0
  9
$PEXTMAX
 10
-100000000000000000000.0
 20
-100000000000000000000.0
 30
-100000000000000000000.0
  9
$PEXTMIN
 10
100000000000000000000.0
 20
100000000000000000000.0
 30
100000000000000000000.0
  9
$PINSBASE
 10
0.0
 20
0.0
 30
0.0
  9
$PLIMMAX
 10
420.0
 20
297.0
  9
$PLIMMIN
 10
0.0
 20
0.0
  9
$PLINEWID
 40
0.0
  9
$PROXYGRAPHICS
 70
1
  9
$PUCSORG
 10
0.0
 20
0.0
 30
0.0
  9
$PUCSXDIR
 10
1.0
 20
0.0
 30
0.0
  9
$PUCSYDIR
 10
0.0
 20
1.0
 30
0.0
  9
$SHADEDGE
 70
3
  9
$SHADEDIF
 70
70
  9
$SKETCHINC
 40
1.0
  9
$SPLINESEGS
 70
8
  9
$SPLINETYPE
 70
6
  9
$SURFTAB1
 70
6
  9
$SURFTAB2
 70
6
  9
$SURFTYPE
 70
6
  9
$SURFU
 70
6
  9
$SURFV
 70
6
  9
$TEXTSIZE
 40
3.5
  9
$THICKNESS
 40
0.0
  9
$TRACEWID
 40
1.0
  9
$TREEDEPTH
 70
3020
  9
$UCSORG
 10
0.0
 20
0.0
 30
0.0
  9
$UCSXDIR
 10
1.0
 20
0.0
 30
0.0
  9
$UCSYDIR
 10
0.0
 20
1.0
 30
0.0
  9
$UNITMODE
 70
0
  9
$USERI1
 70
0
  9
$USERI2
 70
0
  9
$USERI3
 70
0
  9
$USERI4
 70
0
  9
$USERI5
 70
0
  9
$USERR1
 40
0.0
  9
$USERR2
 40
0.0
  9
$USERR3
 40
0.0
  9
$USERR4
 40
0.0
  9
$USERR5
 40
0.0
  0
ENDSEC
  0
SECTION
  2
TABLES
  0
TABLE
  2
VPORT
  5
8
100
AcDbSymbolTable
 70
1
  0
VPORT
  5
30
100
AcDbSymbolTableRecord
100
AcDbViewportTableRecord
  2
*Active
 70
0
 10
0.0
 20
0.0
 11
1.0
 21
1.0
 12
286.30555555555549
 22
148.5
 13
0.0
 23
0.0
 14
10.0
 24
10.0
 15
10.0
 25
10.0
 16
0.0
 26
0.0
 36
1.0
 17
0.0
 27
0.0
 37
0.0
 40
297.0
 41
1.92798353909465
 42
50.0
 43
0.0
 44
0.0
 50
0.0
 51
0.0
 71
0
 72
100
 73
1
 74
3
 75
1
 76
1
 77
0
 78
0
281
0
 65
1
110
0.0
120
0.0
130
0.0
111
1.0
121
0.0
131
0.0
112
0.0
122
1.0
132
0.0
 79
0
146
0.0
  0
ENDTAB
  0
TABLE
  2
LTYPE
  5
5
100
AcDbSymbolTable
 70
50
  0
LTYPE
  5
16
100
AcDbSymbolTableRecord
100
AcDbLinetypeTableRecord
  2
Continuous
 70
0
  3
Solid line
 72
65
 73
0
 40
0.0
  0
LTYPE
  5
31
100
AcDbSymbolTableRecord
100
AcDbLinetypeTableRecord
  2
ACAD_ISO15W100
 70
0
  3
ISO double-dash triple-dot __ __ . . . __ __ . .
 72
65
 73
10
 40
39.0
 49
12.0
 74
0
 49
-3.0
 74
0
 49
12.0
 74
0
 49
-3.0
 74
0
 49
0.0
 74
0
 49
-3.0
 74
0
 49
0.0
 74
0
 49
-3.0
 74
0
 49
0.0
 74
0
 49
-3.0
 74
0
  0
LTYPE
  5
32
100
AcDbSymbolTableRecord
100
AcDbLinetypeTableRecord
  2
HOT_WATER_SUPPLY
 70
0
  3
Hot water supply ---- HW ---- HW ---- HW ----
 72
65
 73
3
 40
22.859999999999999
 49
12.699999999999999
 74
0
 49
-5.0800000000000001
 74
0
 49
-5.0800000000000001
 74
0
  0
LTYPE
  5
33
100
AcDbSymbolTableRecord
100
AcDbLinetypeTableRecord
  2
DIVIDE
 70
0
  3
Divide ____ . . ____ . . ____ . . ____ . . ____
 72
65
 73
6
 40
31.75
 49
12.699999999999999
 74
0
 49
-6.3499999999999996
 74
0
 49
0.0
 74
0
 49
-6.3499999999999996
 74
0
 49
0.0
 74
0
 49
-6.3499999999999996
 74
0
  0
LTYPE
  5
34
100
AcDbSymbolTableRecord
100
AcDbLinetypeTableRecord
  2
ACAD_ISO10W100
 70
0
  3
ISO dash dot __ . __ . __ . __ . __ . __ . __ . 
 72
65
 73
4
 40
18.0
 49
12.0
 74
0
 49
-3.0
 74
0
 49
0.0
 74
0
 49
-3.0
 74
0
  0
LTYPE
  5
35
100
AcDbSymbolTableRecord
100
AcDbLinetypeTableRecord
  2
GAS_LINE
 70
0
  3
Gas line ----GAS----GAS----GAS----GAS----GAS----GAS--
 72
65
 73
3
 40
24.130000000000003
 49
12.699999999999999
 74
0
 49
-5.0800000000000001
 74
0
 49
-6.3499999999999996
 74
0
  0
LTYPE
  5
36
100
AcDbSymbolTableRecord
100
AcDbLinetypeTableRecord
  2
ACAD_ISO04W100
 70
0
  3
ISO long-dash dot ____ . ____ . ____ . ____ . _
 72
65
 73
4
 40
30.0
 49
24.0
 74
0
 49
-3.0
 74
0
 49
0.0
 74
0
 49
-3.0
 74
0
  0
LTYPE
  5
14
100
AcDbSymbolTableRecord
100
AcDbLinetypeTableRecord
  2
ByBlock
 70
0
  3

 72
65
 73
0
 40
0.0
  0
LTYPE
  5
37
100
AcDbSymbolTableRecord
100
AcDbLinetypeTableRecord
  2
CENTER2
 70
0
  3
Center (.5x) ___ _ ___ _ ___ _ ___ _ ___ _ ___
 72
65
 73
4
 40
28.575000000000003
 49
19.050000000000001
 74
0
 49
-3.1749999999999998
 74
0
 49
3.1749999999999998
 74
0
 49
-3.1749999999999998
 74
0
  0
LTYPE
  5
38
100
AcDbSymbolTableRecord
100
AcDbLinetypeTableRecord
  2
ACAD_ISO11W100
 70
0
  3
ISO double-dash dot __ __ . __ __ . __ __ . __ _
 72
65
 73
6
 40
33.0
 49
12.0
 74
0
 49
-3.0
 74
0
 49
12.0
 74
0
 49
-3.0
 74
0
 49
0.0
 74
0
 49
-3.0
 74
0
  0
LTYPE
  5
39
100
AcDbSymbolTableRecord
100
AcDbLinetypeTableRecord
  2
HIDDEN2
 70
0
  3
Hidden (.5x) _ _ _ _ _ _ _ _ _ _ _ _ _ _ _ _ _ 
 72
65
 73
2
 40
4.7624999999999993
 49
3.1749999999999998
 74
0
 49
-1.5874999999999999
 74
0
  0
LTYPE
  5
3A
100
AcDbSymbolTableRecord
100
AcDbLinetypeTableRecord
  2
BORDERX2
 70
0
  3
Border (2x) ____  ____  .  ____  ____  .  ___
 72
65
 73
6
 40
88.899999999999991
 49
25.399999999999999
 74
0
 49
-12.699999999999999
 74
0
 49
25.399999999999999
 74
0
 49
-12.699999999999999
 74
0
 49
0.0
 74
0
 49
-12.699999999999999
 74
0
  0
LTYPE
  5
3B
100
AcDbSymbolTableRecord
100
AcDbLinetypeTableRecord
  2
ACAD_ISO05W100
 70
0
  3
ISO long-dash double-dot ____ .. ____ .. ____ . 
 72
65
 73
6
 40
33.0
 49
24.0
 74
0
 49
-3.0
 74
0
 49
0.0
 74
0
 49
-3.0
 74
0
 49
0.0
 74
0
 49
-3.0
 74
0
  0
LTYPE
  5
3C
100
AcDbSymbolTableRecord
100
AcDbLinetypeTableRecord
  2
DASHDOTX2
 70
0
  3
Dash dot (2x) ____  .  ____  .  ____  .  ___
 72
65
 73
4
 40
50.799999999999997
 49
25.399999999999999
 74
0
 49
-12.699999999999999
 74
0
 49
0.0
 74
0
 49
-12.699999999999999
 74
0
  0
LTYPE
  5
3D
100
AcDbSymbolTableRecord
100
AcDbLinetypeTableRecord
  2
HIDDENX2
 70
0
  3
Hidden (2x) ____ ____ ____ ____ ____ ____ ____ 
 72
65
 73
2
 40
19.049999999999997
 49
12.699999999999999
 74
0
 49
-6.3499999999999996
 74
0
  0
LTYPE
  5
3E
100
AcDbSymbolTableRecord
100
AcDbLinetypeTableRecord
  2
CENTERX2
 70
0
  3
Center (2x) ________  __  ________  __  _____
 72
65
 73
4
 40
20.319999999999997
 49
12.699999999999999
 74
0
 49
-2.54
 74
0
 49
2.54
 74
0
 49
-2.54
 74
0
  0
LTYPE
  5
3F
100
AcDbSymbolTableRecord
100
AcDbLinetypeTableRecord
  2
BORDER2
 70
0
  3
Border (.5x) __.__.__.__.__.__.__.__.__.__.__.
 72
65
 73
6
 40
22.224999999999998
 49
6.3499999999999996
 74
0
 49
-3.1749999999999998
 74
0
 49
6.3499999999999996
 74
0
 49
-3.1749999999999998
 74
0
 49
0.0
 74
0
 49
-3.1749999999999998
 74
0
  0
LTYPE
  5
40
100
AcDbSymbolTableRecord
100
AcDbLinetypeTableRecord
  2
DASHDOT2
 70
0
  3
Dash dot (.5x) _._._._._._._._._._._._._._._.
 72
65
 73
4
 40
12.699999999999999
 49
6.3499999999999996
 74
0
 49
-3.1749999999999998
 74
0
 49
0.0
 74
0
 49
-3.1749999999999998
 74
0
  0
LTYPE
  5
41
100
AcDbSymbolTableRecord
100
AcDbLinetypeTableRecord
  2
ACAD_ISO12W100
 70
0
  3
ISO dash double-dot __ . . __ . . __ . . __ . . 
 72
65
 73
6
 40
21.0
 49
12.0
 74
0
 49
-3.0
 74
0
 49
0.0
 74
0
 49
-3.0
 74
0
 49
0.0
 74
0
 49
-3.0
 74
0
  0
LTYPE
  5
42
100
AcDbSymbolTableRecord
100
AcDbLinetypeTableRecord
  2
ACAD_ISO07W100
 70
0
  3
ISO dot . . . . . . . . . . . . . . . . . . . . 
 72
65
 73
2
 40
3.0
 49
0.0
 74
0
 49
-3.0
 74
0
  0
LTYPE
  5
43
100
AcDbSymbolTableRecord
100
AcDbLinetypeTableRecord
  2
ACAD_ISO06W100
 70
0
  3
ISO long-dash triple-dot ____ ... ____ ... ____
 72
65
 73
8
 40
36.0
 49
24.0
 74
0
 49
-3.0
 74
0
 49
0.0
 74
0
 49
-3.0
 74
0
 49
0.0
 74
0
 49
-3.0
 74
0
 49
0.0
 74
0
 49
-3.0
 74
0
  0
LTYPE
  5
44
100
AcDbSymbolTableRecord
100
AcDbLinetypeTableRecord
  2
CENTER
 70
0
  3
Center ____ _ ____ _ ____ _ ____ _ ____ _ ____
 72
65
 73
4
 40
10.159999999999998
 49
6.3499999999999996
 74
0
 49
-1.27
 74
0
 49
1.27
 74
0
 49
-1.27
 74
0
  0
LTYPE
  5
45
100
AcDbSymbolTableRecord
100
AcDbLinetypeTableRecord
  2
HIDDEN
 70
0
  3
Hidden __ __ __ __ __ __ __ __ __ __ __ __ __ __
 72
65
 73
2
 40
1.905
 49
1.27
 74
0
 49
-0.635
 74
0
  0
LTYPE
  5
46
100
AcDbSymbolTableRecord
100
AcDbLinetypeTableRecord
  2
DOTX2
 70
0
  3
Dot (2x) .  .  .  .  .  .  .  .  .  .  .  .  .  .
 72
65
 73
2
 40
12.699999999999999
 49
0.0
 74
0
 49
-12.699999999999999
 74
0
  0
LTYPE
  5
47
100
AcDbSymbolTableRecord
100
AcDbLinetypeTableRecord
  2
PHANTOM
 70
0
  3
Phantom ______  __  __  ______  __  __  ______
 72
65
 73
6
 40
12.699999999999998
 49
6.3499999999999996
 74
0
 49
-1.27
 74
0
 49
1.27
 74
0
 49
-1.27
 74
0
 49
1.27
 74
0
 49
-1.27
 74
0
  0
LTYPE
  5
48
100
AcDbSymbolTableRecord
100
AcDbLinetypeTableRecord
  2
ACAD_ISO08W100
 70
0
  3
ISO long-dash short-dash ____ __ ____ __ ____ _
 72
65
 73
4
 40
36.0
 49
24.0
 74
0
 49
-3.0
 74
0
 49
6.0
 74
0
 49
-3.0
 74
0
  0
LTYPE
  5
49
100
AcDbSymbolTableRecord
100
AcDbLinetypeTableRecord
  2
DASHEDX2
 70
0
  3
Dashed (2x) ____  ____  ____  ____  ____  ___
 72
65
 73
2
 40
38.099999999999994
 49
25.399999999999999
 74
0
 49
-12.699999999999999
 74
0
  0
LTYPE
  5
4A
100
AcDbSymbolTableRecord
100
AcDbLinetypeTableRecord
  2
DRAINAGE
 70
0
  3
Drainage ---->---->---->----
 72
65
 73
2
 40
10.16
 49
5.0800000000000001
 74
0
 49
5.0800000000000001
 74
0
  0
LTYPE
  5
4B
100
AcDbSymbolTableRecord
100
AcDbLinetypeTableRecord
  2
ACAD_ISO02W100
 70
0
  3
ISO dash __ __ __ __ __ __ __ __ __ __ __ __ __
 72
65
 73
2
 40
15.0
 49
12.0
 74
0
 49
-3.0
 74
0
  0
LTYPE
  5
4C
100
AcDbSymbolTableRecord
100
AcDbLinetypeTableRecord
  2
PHANTOM2
 70
0
  3
Phantom (.5x) ___ _ _ ___ _ _ ___ _ _ ___ _ _
 72
65
 73
6
 40
31.750000000000004
 49
15.875
 74
0
 49
-3.1749999999999998
 74
0
 49
3.1749999999999998
 74
0
 49
-3.1749999999999998
 74
0
 49
3.1749999999999998
 74
0
 49
-3.1749999999999998
 74
0
  0
LTYPE
  5
4D
100
AcDbSymbolTableRecord
100
AcDbLinetypeTableRecord
  2
DASHED2
 70
0
  3
Dashed (.5x) _ _ _ _ _ _ _ _ _ _ _ _ _ _ _ _ _ 
 72
65
 73
2
 40
9.5249999999999986
 49
6.3499999999999996
 74
0
 49
-3.1749999999999998
 74
0
  0
LTYPE
  5
4E
100
AcDbSymbolTableRecord
100
AcDbLinetypeTableRecord
  2
ACAD_ISO09W100
 70
0
  3
ISO long-dash double-short-dash ____ __ __ ____
 72
65
 73
6
 40
45.0
 49
24.0
 74
0
 49
-3.0
 74
0
 49
6.0
 74
0
 49
-3.0
 74
0
 49
6.0
 74
0
 49
-3.0
 74
0
  0
LTYPE
  5
4F
100
AcDbSymbolTableRecord
100
AcDbLinetypeTableRecord
  2
ACAD_ISO13W100
 70
0
  3
ISO double-dash double-dot __ __ . . __ __ . . _
 72
65
 73
8
 40
36.0
 49
12.0
 74
0
 49
-3.0
 74
0
 49
12.0
 74
0
 49
-3.0
 74
0
 49
0.0
 74
0
 49
-3.0
 74
0
 49
0.0
 74
0
 49
-3.0
 74
0
  0
LTYPE
  5
50
100
AcDbSymbolTableRecord
100
AcDbLinetypeTableRecord
  2
TRACKS
 70
0
  3
Tracks -|-|-|-|-|-|-|-|-|-|-|-|-|-|-|-|-|-|-|-|-|-|-|-|-
 72
65
 73
2
 40
7.6200000000000001
 49
3.8100000000000001
 74
0
 49
3.8100000000000001
 74
0
  0
LTYPE
  5
51
100
AcDbSymbolTableRecord
100
AcDbLinetypeTableRecord
  2
DRAINAGE2
 70
0
  3
Drainage reversed----<----<----<----
 72
65
 73
2
 40
10.16
 49
5.0800000000000001
 74
0
 49
5.0800000000000001
 74
0
  0
LTYPE
  5
52
100
AcDbSymbolTableRecord
100
AcDbLinetypeTableRecord
  2
DOT2
 70
0
  3
Dot (.5x) ........................................
 72
65
 73
2
 40
0.635
 49
0.0
 74
0
 49
-0.635
 74
0
  0
LTYPE
  5
53
100
AcDbSymbolTableRecord
100
AcDbLinetypeTableRecord
  2
ZIGZAG
 70
0
  3
Zig zag /\/\/\/\/\/\/\/\/\/\/\/\/\/\/\/\/\/\/\/\/\/\/\/
 72
65
 73
4
 40
20.32254
 49
0.00254
 74
0
 49
-5.0800000000000001
 74
0
 49
-10.16
 74
0
 49
-5.0800000000000001
 74
0
  0
LTYPE
  5
54
100
AcDbSymbolTableRecord
100
AcDbLinetypeTableRecord
  2
DASHED
 70
0
  3
Dashed __ __ __ __ __ __ __ __ __ __ __ __ __ _
 72
65
 73
2
 40
19.049999999999997
 49
12.699999999999999
 74
0
 49
-6.3499999999999996
 74
0
  0
LTYPE
  5
55
100
AcDbSymbolTableRecord
100
AcDbLinetypeTableRecord
  2
ACAD_ISO14W100
 70
0
  3
ISO dash triple-dot __ . . . __ . . . __ . . . _
 72
65
 73
8
 40
24.0
 49
12.0
 74
0
 49
-3.0
 74
0
 49
0.0
 74
0
 49
-3.0
 74
0
 49
0.0
 74
0
 49
-3.0
 74
0
 49
0.0
 74
0
 49
-3.0
 74
0
  0
LTYPE
  5
56
100
AcDbSymbolTableRecord
100
AcDbLinetypeTableRecord
  2
PHANTOMX2
 70
0
  3
Phantom (2x) ____________    ____    ____   _
 72
65
 73
6
 40
127.00000000000001
 49
63.5
 74
0
 49
-12.699999999999999
 74
0
 49
12.699999999999999
 74
0
 49
-12.699999999999999
 74
0
 49
12.699999999999999
 74
0
 49
-12.699999999999999
 74
0
  0
LTYPE
  5
57
100
AcDbSymbolTableRecord
100
AcDbLinetypeTableRecord
  2
DIVIDEX2
 70
0
  3
Divide (2x) ________  .  .  ________  .  .  _
 72
65
 73
6
 40
63.5
 49
25.399999999999999
 74
0
 49
-12.699999999999999
 74
0
 49
0.0
 74
0
 49
-12.699999999999999
 74
0
 49
0.0
 74
0
 49
-12.699999999999999
 74
0
  0
LTYPE
  5
58
100
AcDbSymbolTableRecord
100
AcDbLinetypeTableRecord
  2
BORDER
 70
0
  3
Border __ __ . __ __ . __ __ . __ __ . __ __ .
 72
65
 73
6
 40
44.449999999999996
 49
12.699999999999999
 74
0
 49
-6.3499999999999996
 74
0
 49
12.699999999999999
 74
0
 49
-6.3499999999999996
 74
0
 49
0.0
 74
0
 49
-6.3499999999999996
 74
0
  0
LTYPE
  5
59
100
AcDbSymbolTableRecord
100
AcDbLinetypeTableRecord
  2
DIVIDE2
 70
0
  3
Divide (.5x) __..__..__..__..__..__..__..__.._
 72
65
 73
6
 40
15.875
 49
6.3499999999999996
 74
0
 49
-3.1749999999999998
 74
0
 49
0.0
 74
0
 49
-3.1749999999999998
 74
0
 49
0.0
 74
0
 49
-3.1749999999999998
 74
0
  0
LTYPE
  5
5A
100
AcDbSymbolTableRecord
100
AcDbLinetypeTableRecord
  2
DOT
 70
0
  3
Dot . . . . . . . . . . . . . . . . . . . . . . . .
 72
65
 73
2
 40
6.3499999999999996
 49
0.0
 74
0
 49
-6.3499999999999996
 74
0
  0
LTYPE
  5
5B
100
AcDbSymbolTableRecord
100
AcDbLinetypeTableRecord
  2
DASHDOT
 70
0
  3
Dash dot __ . __ . __ . __ . __ . __ . __ . __
 72
65
 73
4
 40
25.399999999999999
 49
12.699999999999999
 74
0
 49
-6.3499999999999996
 74
0
 49
0.0
 74
0
 49
-6.3499999999999996
 74
0
  0
LTYPE
  5
5C
100
AcDbSymbolTableRecord
100
AcDbLinetypeTableRecord
  2
FENCELINE1
 70
0
  3
Fenceline circle ----0-----0----0-----0----0-----0--
 72
65
 73
4
 40
36.829999999999998
 49
6.3499999999999996
 74
0
 49
-2.54
 74
0
 49
-2.54
 74
0
 49
25.399999999999999
 74
0
  0
LTYPE
  5
5D
100
AcDbSymbolTableRecord
100
AcDbLinetypeTableRecord
  2
BATTING
 70
0
  3
Batting SSSSSSSSSSSSSSSSSSSSSSSSSSSSSSSSSSSSSSSSSSSSSSS
 72
65
 73
4
 40
10.16254
 49
0.00254
 74
0
 49
-2.54
 74
0
 49
-5.0800000000000001
 74
0
 49
-2.54
 74
0
  0
LTYPE
  5
5E
100
AcDbSymbolTableRecord
100
AcDbLinetypeTableRecord
  2
ACAD_ISO03W100
 70
0
  3
ISO dash space __    __    __    __    __    __
 72
65
 73
2
 40
30.0
 49
12.0
 74
0
 49
-18.0
 74
0
  0
LTYPE
  5
15
100
AcDbSymbolTableRecord
100
AcDbLinetypeTableRecord
  2
ByLayer
 70
0
  3

 72
65
 73
0
 40
0.0
  0
LTYPE
  5
5F
100
AcDbSymbolTableRecord
100
AcDbLinetypeTableRecord
  2
FENCELINE2
 70
0
  3
Fenceline square ----[]-----[]----[]-----[]----[]---
 72
65
 73
4
 40
36.829999999999998
 49
6.3499999999999996
 74
0
 49
-2.54
 74
0
 49
-2.54
 74
0
 49
25.399999999999999
 74
0
  0
ENDTAB
  0
TABLE
  2
LAYER
  5
2
100
AcDbSymbolTable
 70
1
  0
LAYER
  5
10
100
AcDbSymbolTableRecord
100
AcDbLayerTableRecord
  2
0
 70
0
 62
7
420
16777215
  6
Continuous
370
-3
390
F
  0
ENDTAB
  0
TABLE
  2
STYLE
  5
3
100
AcDbSymbolTable
 70
1
  0
STYLE
  5
60
100
AcDbSymbolTableRecord
100
AcDbTextStyleTableRecord
  2
Standard
 70
0
 40
0.0
 41
1.0
 50
0.0
 71
0
 42
2.5
  3

  4

1001
ACAD
1000
txt
1071
0
  0
ENDTAB
  0
TABLE
  2
VIEW
  5
6
100
AcDbSymbolTable
 70
0
  0
ENDTAB
  0
TABLE
  2
UCS
  5
7
100
AcDbSymbolTable
 70
0
  0
ENDTAB
  0
TABLE
  2
APPID
  5
9
100
AcDbSymbolTable
 70
1
  0
APPID
  5
12
100
AcDbSymbolTableRecord
100
AcDbRegAppTableRecord
  2
ACAD
 70
0
  0
APPID
  5
61
100
AcDbSymbolTableRecord
100
AcDbRegAppTableRecord
  2
QCAD
 70
0
  0
ENDTAB
  0
TABLE
  2
DIMSTYLE
  5
A
100
AcDbSymbolTable
 70
1
100
AcDbDimStyleTable
 71
0
  0
DIMSTYLE
105
27
100
AcDbSymbolTableRecord
100
AcDbDimStyleTableRecord
  2
Standard
 41
3.302
 42
1.0
 43
3.75
 44
1.0
 70
0
 73
0
 74
0
 77
1
 78
8
140
3.5
141
2.5
143
0.03937007874016
147
1.524
171
3
172
1
271
2
272
2
274
3
278
44
283
0
284
8
340
60
  0
ENDTAB
  0
TABLE
  2
BLOCK_RECORD
  5
1
100
AcDbSymbolTable
 70
1
  0
BLOCK_RECORD
  5
1F
100
AcDbSymbolTableRecord
100
AcDbBlockTableRecord
  2
*Model_Space
340
22
  0
BLOCK_RECORD
  5
1B
100
AcDbSymbolTableRecord
100
AcDbBlockTableRecord
  2
*Paper_Space
340
1E
  0
BLOCK_RECORD
  5
23
100
AcDbSymbolTableRecord
100
AcDbBlockTableRecord
  2
*Paper_Space0
340
26
  0
ENDTAB
  0
ENDSEC
  0
SECTION
  2
BLOCKS
  0
BLOCK
  5
20
100
AcDbEntity
  8
0
100
AcDbBlockBegin
  2
*Model_Space
 70
0
 10
0.0
 20
0.0
 30
0.0
  3
*Model_Space
  1

  0
ENDBLK
  5
21
100
AcDbEntity
  8
0
100
AcDbBlockEnd
  0
BLOCK
  5
1C
100
AcDbEntity
 67
1
  8
0
100
AcDbBlockBegin
  2
*Paper_Space
 70
0
 10
0.0
 20
0.0
 30
0.0
  3
*Paper_Space
  1

  0
ENDBLK
  5
1D
100
AcDbEntity
 67
1
  8
0
100
AcDbBlockEnd
  0
BLOCK
  5
24
100
AcDbEntity
  8
0
100
AcDbBlockBegin
  2
*Paper_Space0
 70
0
 10
0.0
 20
0.0
 30
0.0
  3
*Paper_Space0
  1

  0
ENDBLK
  5
25
100
AcDbEntity
  8
0
100
AcDbBlockEnd
  0
ENDSEC
  0
SECTION
  2
ENTITIES
  0
CIRCLE
  5
62
100
AcDbEntity
100
AcDbCircle
  8
0
 62
7
420
16777215
370
25
 48
1.0
  6
Continuous
 10
51.6000035848
 20
-173.52057004049999
 30
0.0
 40
1.7654819188689359
  0
CIRCLE
  5
63
100
AcDbEntity
100
AcDbCircle
  8
0
 62
7
420
16777215
370
25
 48
1.0
  6
Continuous
 10
69.100003584800007
 20
-173.52057004049999
 30
0.0
 40
1.765481918868943
  0
CIRCLE
  5
64
100
AcDbEntity
100
AcDbCircle
  8
0
 62
7
420
16777215
370
25
 48
1.0
  6
Continuous
 10
66.200003584800001
 20
-170.8205700405
 30
0.0
 40
1.0
  0
CIRCLE
  5
65
100
AcDbEntity
100
AcDbCircle
  8
0
 62
7
420
16777215
370
25
 48
1.0
  6
Continuous
 10
66.200003584800001
 20
-143.52057004049999
 30
0.0
 40
1.0
  0
CIRCLE
  5
66
100
AcDbEntity
100
AcDbCircle
  8
0
 62
7
420
16777215
370
25
 48
1.0
  6
Continuous
 10
188.0000035848
 20
-170.8205700405
 30
0.0
 40
1.0
  0
CIRCLE
  5
67
100
AcDbEntity
100
AcDbCircle
  8
0
 62
7
420
16777215
370
25
 48
1.0
  6
Continuous
 10
188.0000035848
 20
-143.52057004049999
 30
0.0
 40
0.9999999999999432
  0
CIRCLE
  5
68
100
AcDbEntity
100
AcDbCircle
  8
0
 62
7
420
16777215
370
25
 48
1.0
  6
Continuous
 10
185.10000358479999
 20
-173.52057004049999
 30
0.0
 40
1.7654819188688009
  0
CIRCLE
  5
69
100
AcDbEntity
100
AcDbCircle
  8
0
 62
7
420
16777215
370
25
 48
1.0
  6
Continuous
 10
202.60000358479999
 20
-173.52057004049999
 30
0.0
 40
1.765481918868915
  0
CIRCLE
  5
6A
100
AcDbEntity
100
AcDbCircle
  8
0
 62
7
420
16777215
370
25
 48
1.0
  6
Continuous
 10
127.10000358480001
 20
-139.8847599929
 30
0.0
 40
6.0000000000000142
  0
CIRCLE
  5
6B
100
AcDbEntity
100
AcDbCircle
  8
0
 62
7
420
16777215
370
25
 48
1.0
  6
Continuous
 10
80.600003584800007
 20
-136.80183696879999
 30
0.0
 40
1.4999999999999429
  0
CIRCLE
  5
6C
100
AcDbEntity
100
AcDbCircle
  8
0
 62
7
420
16777215
370
25
 48
1.0
  6
Continuous
 10
112.6200035848
 20
-183.80183696879999
 30
0.0
 40
1.5000000000006251
  0
CIRCLE
  5
6D
100
AcDbEntity
100
AcDbCircle
  8
0
 62
7
420
16777215
370
25
 48
1.0
  6
Continuous
 10
84.680003584800005
 20
-183.80183696879999
 30
0.0
 40
1.5000000000006819
  0
CIRCLE
  5
6E
100
AcDbEntity
100
AcDbCircle
  8
0
 62
7
420
16777215
370
25
 48
1.0
  6
Continuous
 10
115.10000358480001
 20
-239.87183696880001
 30
0.0
 40
1.5000000000000431
  0
CIRCLE
  5
6F
100
AcDbEntity
100
AcDbCircle
  8
0
 62
7
420
16777215
370
25
 48
1.0
  6
Continuous
 10
79.600003584800007
 20
-235.87183696880001
 30
0.0
 40
1.5000000000005971
  0
CIRCLE
  5
70
100
AcDbEntity
100
AcDbCircle
  8
0
 62
7
420
16777215
370
25
 48
1.0
  6
Continuous
 10
139.10000358479999
 20
-239.87183696880001
 30
0.0
 40
1.2499999999999429
  0
CIRCLE
  5
71
100
AcDbEntity
100
AcDbCircle
  8
0
 62
7
420
16777215
370
25
 48
1.0
  6
Continuous
 10
139.10000358479999
 20
-209.87183696880001
 30
0.0
 40
1.249999999999972
  0
CIRCLE
  5
72
100
AcDbEntity
100
AcDbCircle
  8
0
 62
7
420
16777215
370
25
 48
1.0
  6
Continuous
 10
115.10000358480001
 20
-209.87183696880001
 30
0.0
 40
1.249999999999972
  0
CIRCLE
  5
73
100
AcDbEntity
100
AcDbCircle
  8
0
 62
7
420
16777215
370
25
 48
1.0
  6
Continuous
 10
118.60000358480001
 20
-174.80183696879999
 30
0.0
 40
1.500000000000028
  0
CIRCLE
  5
74
100
AcDbEntity
100
AcDbCircle
  8
0
 62
7
420
16777215
370
25
 48
1.0
  6
Continuous
 10
80.600003584800007
 20
-174.80183696879999
 30
0.0
 40
1.4999999999999569
  0
CIRCLE
  5
75
100
AcDbEntity
100
AcDbCircle
  8
0
 62
7
420
16777215
370
25
 48
1.0
  6
Continuous
 10
173.2750035848
 20
-211.80179231560001
 30
0.0
 40
1.2500000002640661
  0
CIRCLE
  5
76
100
AcDbEntity
100
AcDbCircle
  8
0
 62
7
420
16777215
370
25
 48
1.0
  6
Continuous
 10
150.92500358480001
 20
-198.30179231560001
 30
0.0
 40
1.250000000263952
  0
CIRCLE
  5
77
100
AcDbEntity
100
AcDbCircle
  8
0
 62
7
420
16777215
370
25
 48
1.0
  6
Continuous
 10
150.92500358480001
 20
-225.30179231560001
 30
0.0
 40
1.250000000263952
  0
CIRCLE
  5
78
100
AcDbEntity
100
AcDbCircle
  8
0
 62
7
420
16777215
370
25
 48
1.0
  6
Continuous
 10
133.10000358479999
 20
-126.4205700405
 30
0.0
 40
1.499999999999915
  0
CIRCLE
  5
79
100
AcDbEntity
100
AcDbCircle
  8
0
 62
7
420
16777215
370
25
 48
1.0
  6
Continuous
 10
174.60000358479999
 20
-242.37183696880001
 30
0.0
 40
1.5
  0
CIRCLE
  5
7A
100
AcDbEntity
100
AcDbCircle
  8
0
 62
7
420
16777215
370
25
 48
1.0
  6
Continuous
 10
142.10000358479999
 20
-147.37183696880001
 30
0.0
 40
1.500000000000028
  0
CIRCLE
  5
7B
100
AcDbEntity
100
AcDbCircle
  8
0
 62
7
420
16777215
370
25
 48
1.0
  6
Continuous
 10
127.10000358480001
 20
-164.8847599929
 30
0.0
 40
5.8999999999999631
  0
CIRCLE
  5
7C
100
AcDbEntity
100
AcDbCircle
  8
0
 62
7
420
16777215
370
25
 48
1.0
  6
Continuous
 10
121.10000358480001
 20
-126.4205700405
 30
0.0
 40
1.4999999999999289
  0
CIRCLE
  5
7D
100
AcDbEntity
100
AcDbCircle
  8
0
 62
7
420
16777215
370
25
 48
1.0
  6
Continuous
 10
167.52816325570001
 20
-71.529203673200001
 30
0.0
 40
1.0
  0
CIRCLE
  5
7E
100
AcDbEntity
100
AcDbCircle
  8
0
 62
7
420
16777215
370
25
 48
1.0
  6
Continuous
 10
167.52816325570001
 20
-98.829203673199999
 30
0.0
 40
1.0
  0
CIRCLE
  5
7F
100
AcDbEntity
100
AcDbCircle
  8
0
 62
7
420
16777215
370
25
 48
1.0
  6
Continuous
 10
86.728163255699997
 20
-98.829203673199999
 30
0.0
 40
1.000000000000028
  0
CIRCLE
  5
80
100
AcDbEntity
100
AcDbCircle
  8
0
 62
7
420
16777215
370
25
 48
1.0
  6
Continuous
 10
86.728163255699997
 20
-71.529203673200001
 30
0.0
 40
1.000000000000014
  0
CIRCLE
  5
81
100
AcDbEntity
100
AcDbCircle
  8
0
 62
7
420
16777215
370
25
 48
1.0
  6
Continuous
 10
113.6281632557
 20
-55.9292036732
 30
0.0
 40
8.0500000000000398
  0
CIRCLE
  5
82
100
AcDbEntity
100
AcDbCircle
  8
0
 62
7
420
16777215
370
25
 48
1.0
  6
Continuous
 10
139.6281632557
 20
-55.9292036732
 30
0.0
 40
8.0500000000000398
  0
LINE
  5
83
100
AcDbEntity
100
AcDbLine
  8
0
 62
7
420
16777215
370
25
 48
1.0
  6
Continuous
 10
59.800003584800002
 20
-156.83122524160001
 30
0.0
 11
59.800003584800002
 21
-168.42074561940001
 31
0.0
  0
LINE
  5
84
100
AcDbEntity
100
AcDbLine
  8
0
 62
7
420
16777215
370
25
 48
1.0
  6
Continuous
 10
59.800003584800002
 20
-168.42074561940001
 30
0.0
 11
72.100003584800007
 21
-168.42074561940001
 31
0.0
  0
LINE
  5
85
100
AcDbEntity
100
AcDbLine
  8
0
 62
7
420
16777215
370
25
 48
1.0
  6
Continuous
 10
72.100003584800007
 20
-168.42074561940001
 30
0.0
 11
72.100003584800007
 21
-145.9205700405
 31
0.0
  0
LINE
  5
86
100
AcDbEntity
100
AcDbLine
  8
0
 62
7
420
16777215
370
25
 48
1.0
  6
Continuous
 10
72.100003584800007
 20
-145.9205700405
 30
0.0
 11
59.711115555500001
 21
-145.9205700405
 31
0.0
  0
LINE
  5
87
100
AcDbEntity
100
AcDbLine
  8
0
 62
7
420
16777215
370
25
 48
1.0
  6
Continuous
 10
59.711115555500001
 20
-145.9205700405
 30
0.0
 11
59.711115555500001
 21
-148.9205700405
 31
0.0
  0
LINE
  5
88
100
AcDbEntity
100
AcDbLine
  8
0
 62
7
420
16777215
370
25
 48
1.0
  6
Continuous
 10
59.711115555500001
 20
-148.9205700405
 30
0.0
 11
54.711115555500001
 21
-148.9205700405
 31
0.0
  0
LINE
  5
89
100
AcDbEntity
100
AcDbLine
  8
0
 62
7
420
16777215
370
25
 48
1.0
  6
Continuous
 10
54.800003584800002
 20
-156.83122524160001
 30
0.0
 11
59.800003584800002
 21
-156.83122524160001
 31
0.0
  0
LINE
  5
8A
100
AcDbEntity
100
AcDbLine
  8
0
 62
7
420
16777215
370
25
 48
1.0
  6
Continuous
 10
194.4888916141
 20
-148.9205700405
 30
0.0
 11
194.4888916141
 21
-145.9205700405
 31
0.0
  0
LINE
  5
8B
100
AcDbEntity
100
AcDbLine
  8
0
 62
7
420
16777215
370
25
 48
1.0
  6
Continuous
 10
194.4888916141
 20
-145.9205700405
 30
0.0
 11
182.10000358479999
 21
-145.9205700405
 31
0.0
  0
LINE
  5
8C
100
AcDbEntity
100
AcDbLine
  8
0
 62
7
420
16777215
370
25
 48
1.0
  6
Continuous
 10
182.10000358479999
 20
-145.9205700405
 30
0.0
 11
182.10000358479999
 21
-168.42074561940001
 31
0.0
  0
LINE
  5
8D
100
AcDbEntity
100
AcDbLine
  8
0
 62
7
420
16777215
370
25
 48
1.0
  6
Continuous
 10
182.10000358479999
 20
-168.42074561940001
 30
0.0
 11
194.4000035848
 21
-168.42074561940001
 31
0.0
  0
LINE
  5
8E
100
AcDbEntity
100
AcDbLine
  8
0
 62
7
420
16777215
370
25
 48
1.0
  6
Continuous
 10
194.4000035848
 20
-168.42074561940001
 30
0.0
 11
194.4000035848
 21
-156.83122524160001
 31
0.0
  0
LINE
  5
8F
100
AcDbEntity
100
AcDbLine
  8
0
 62
7
420
16777215
370
25
 48
1.0
  6
Continuous
 10
194.4000035848
 20
-156.83122524160001
 30
0.0
 11
199.4000035848
 21
-156.83122524160001
 31
0.0
  0
LINE
  5
90
100
AcDbEntity
100
AcDbLine
  8
0
 62
7
420
16777215
370
25
 48
1.0
  6
Continuous
 10
199.4888916141
 20
-148.9205700405
 30
0.0
 11
194.4888916141
 21
-148.9205700405
 31
0.0
  0
LINE
  5
91
100
AcDbEntity
100
AcDbLine
  8
0
 62
7
420
16777215
370
25
 48
1.0
  6
Continuous
 10
148.10000358479999
 20
-222.87183696880001
 30
0.0
 11
146.10000358479999
 21
-222.87183696880001
 31
0.0
  0
LINE
  5
92
100
AcDbEntity
100
AcDbLine
  8
0
 62
7
420
16777215
370
25
 48
1.0
  6
Continuous
 10
146.10000358479999
 20
-222.87183696880001
 30
0.0
 11
146.10000358479999
 21
-230.87183696880001
 31
0.0
  0
LINE
  5
93
100
AcDbEntity
100
AcDbLine
  8
0
 62
7
420
16777215
370
25
 48
1.0
  6
Continuous
 10
146.10000358479999
 20
-230.87183696880001
 30
0.0
 11
148.10000358479999
 21
-230.87183696880001
 31
0.0
  0
LINE
  5
94
100
AcDbEntity
100
AcDbLine
  8
0
 62
7
420
16777215
370
25
 48
1.0
  6
Continuous
 10
148.10000358479999
 20
-230.87183696880001
 30
0.0
 11
148.10000358479999
 21
-222.87183696880001
 31
0.0
  0
LINE
  5
95
100
AcDbEntity
100
AcDbLine
  8
0
 62
7
420
16777215
370
25
 48
1.0
  6
Continuous
 10
175.10000358479999
 20
-222.87183696880001
 30
0.0
 11
173.10000358479999
 21
-222.87183696880001
 31
0.0
  0
LINE
  5
96
100
AcDbEntity
100
AcDbLine
  8
0
 62
7
420
16777215
370
25
 48
1.0
  6
Continuous
 10
173.10000358479999
 20
-222.87183696880001
 30
0.0
 11
173.10000358479999
 21
-230.87183696880001
 31
0.0
  0
LINE
  5
97
100
AcDbEntity
100
AcDbLine
  8
0
 62
7
420
16777215
370
25
 48
1.0
  6
Continuous
 10
173.10000358479999
 20
-230.87183696880001
 30
0.0
 11
175.10000358479999
 21
-230.87183696880001
 31
0.0
  0
LINE
  5
98
100
AcDbEntity
100
AcDbLine
  8
0
 62
7
420
16777215
370
25
 48
1.0
  6
Continuous
 10
175.10000358479999
 20
-230.87183696880001
 30
0.0
 11
175.10000358479999
 21
-222.87183696880001
 31
0.0
  0
LINE
  5
99
100
AcDbEntity
100
AcDbLine
  8
0
 62
7
420
16777215
370
25
 48
1.0
  6
Continuous
 10
148.10000358479999
 20
-174.87183696880001
 30
0.0
 11
146.10000358479999
 21
-174.87183696880001
 31
0.0
  0
LINE
  5
9A
100
AcDbEntity
100
AcDbLine
  8
0
 62
7
420
16777215
370
25
 48
1.0
  6
Continuous
 10
146.10000358479999
 20
-174.87183696880001
 30
0.0
 11
146.10000358479999
 21
-182.87183696880001
 31
0.0
  0
LINE
  5
9B
100
AcDbEntity
100
AcDbLine
  8
0
 62
7
420
16777215
370
25
 48
1.0
  6
Continuous
 10
146.10000358479999
 20
-182.87183696880001
 30
0.0
 11
148.10000358479999
 21
-182.87183696880001
 31
0.0
  0
LINE
  5
9C
100
AcDbEntity
100
AcDbLine
  8
0
 62
7
420
16777215
370
25
 48
1.0
  6
Continuous
 10
148.10000358479999
 20
-182.87183696880001
 30
0.0
 11
148.10000358479999
 21
-174.87183696880001
 31
0.0
  0
LINE
  5
9D
100
AcDbEntity
100
AcDbLine
  8
0
 62
7
420
16777215
370
25
 48
1.0
  6
Continuous
 10
175.10000358479999
 20
-174.87183696880001
 30
0.0
 11
173.10000358479999
 21
-174.87183696880001
 31
0.0
  0
LINE
  5
9E
100
AcDbEntity
100
AcDbLine
  8
0
 62
7
420
16777215
370
25
 48
1.0
  6
Continuous
 10
173.10000358479999
 20
-174.87183696880001
 30
0.0
 11
173.10000358479999
 21
-182.87183696880001
 31
0.0
  0
LINE
  5
9F
100
AcDbEntity
100
AcDbLine
  8
0
 62
7
420
16777215
370
25
 48
1.0
  6
Continuous
 10
173.10000358479999
 20
-182.87183696880001
 30
0.0
 11
175.10000358479999
 21
-182.87183696880001
 31
0.0
  0
LINE
  5
A0
100
AcDbEntity
100
AcDbLine
  8
0
 62
7
420
16777215
370
25
 48
1.0
  6
Continuous
 10
175.10000358479999
 20
-182.87183696880001
 30
0.0
 11
175.10000358479999
 21
-174.87183696880001
 31
0.0
  0
LINE
  5
A1
100
AcDbEntity
100
AcDbLine
  8
0
 62
7
420
16777215
370
25
 48
1.0
  6
Continuous
 10
165.10000358479999
 20
-124.9589253389
 30
0.0
 11
157.10000358479999
 21
-124.9589253389
 31
0.0
  0
LINE
  5
A2
100
AcDbEntity
100
AcDbLine
  8
0
 62
7
420
16777215
370
25
 48
1.0
  6
Continuous
 10
157.10000358479999
 20
-124.9589253389
 30
0.0
 11
157.10000358479999
 21
-126.9589253389
 31
0.0
  0
LINE
  5
A3
100
AcDbEntity
100
AcDbLine
  8
0
 62
7
420
16777215
370
25
 48
1.0
  6
Continuous
 10
157.10000358479999
 20
-126.9589253389
 30
0.0
 11
165.10000358479999
 21
-126.9589253389
 31
0.0
  0
LINE
  5
A4
100
AcDbEntity
100
AcDbLine
  8
0
 62
7
420
16777215
370
25
 48
1.0
  6
Continuous
 10
165.10000358479999
 20
-126.9589253389
 30
0.0
 11
165.10000358479999
 21
-124.9589253389
 31
0.0
  0
LINE
  5
A5
100
AcDbEntity
100
AcDbLine
  8
0
 62
7
420
16777215
370
25
 48
1.0
  6
Continuous
 10
165.10000358479999
 20
-143.9589253389
 30
0.0
 11
157.10000358479999
 21
-143.9589253389
 31
0.0
  0
LINE
  5
A6
100
AcDbEntity
100
AcDbLine
  8
0
 62
7
420
16777215
370
25
 48
1.0
  6
Continuous
 10
157.10000358479999
 20
-143.9589253389
 30
0.0
 11
157.10000358479999
 21
-145.9589253389
 31
0.0
  0
LINE
  5
A7
100
AcDbEntity
100
AcDbLine
  8
0
 62
7
420
16777215
370
25
 48
1.0
  6
Continuous
 10
157.10000358479999
 20
-145.9589253389
 30
0.0
 11
165.10000358479999
 21
-145.9589253389
 31
0.0
  0
LINE
  5
A8
100
AcDbEntity
100
AcDbLine
  8
0
 62
7
420
16777215
370
25
 48
1.0
  6
Continuous
 10
165.10000358479999
 20
-145.9589253389
 30
0.0
 11
165.10000358479999
 21
-143.9589253389
 31
0.0
  0
LINE
  5
A9
100
AcDbEntity
100
AcDbLine
  8
0
 62
7
420
16777215
370
25
 48
1.0
  6
Continuous
 10
139.09997630500001
 20
-127.9589253389
 30
0.0
 11
139.09997630500001
 21
-142.9589253389
 31
0.0
  0
LINE
  5
AA
100
AcDbEntity
100
AcDbLine
  8
0
 62
7
420
16777215
370
25
 48
1.0
  6
Continuous
 10
139.09997630500001
 20
-142.9589253389
 30
0.0
 11
147.09997630500001
 21
-142.9589253389
 31
0.0
  0
LINE
  5
AB
100
AcDbEntity
100
AcDbLine
  8
0
 62
7
420
16777215
370
25
 48
1.0
  6
Continuous
 10
147.09997630500001
 20
-142.9589253389
 30
0.0
 11
147.09997630500001
 21
-127.9589253389
 31
0.0
  0
LINE
  5
AC
100
AcDbEntity
100
AcDbLine
  8
0
 62
7
420
16777215
370
25
 48
1.0
  6
Continuous
 10
147.09997630500001
 20
-127.9589253389
 30
0.0
 11
139.09997630500001
 21
-127.9589253389
 31
0.0
  0
LINE
  5
AD
100
AcDbEntity
100
AcDbLine
  8
0
 62
7
420
16777215
370
25
 48
1.0
  6
Continuous
 10
161.6281632557
 20
-96.429203673200007
 30
0.0
 11
173.42816325570001
 21
-96.429203673200007
 31
0.0
  0
LINE
  5
AE
100
AcDbEntity
100
AcDbLine
  8
0
 62
7
420
16777215
370
25
 48
1.0
  6
Continuous
 10
173.42816325570001
 20
-96.429203673200007
 30
0.0
 11
173.42816325570001
 21
-73.929203673200007
 31
0.0
  0
LINE
  5
AF
100
AcDbEntity
100
AcDbLine
  8
0
 62
7
420
16777215
370
25
 48
1.0
  6
Continuous
 10
173.42816325570001
 20
-73.929203673200007
 30
0.0
 11
161.6281632557
 21
-73.929203673200007
 31
0.0
  0
LINE
  5
B0
100
AcDbEntity
100
AcDbLine
  8
0
 62
7
420
16777215
370
25
 48
1.0
  6
Continuous
 10
161.6281632557
 20
-73.929203673200007
 30
0.0
 11
161.6281632557
 21
-96.429203673200007
 31
0.0
  0
LINE
  5
B1
100
AcDbEntity
100
AcDbLine
  8
0
 62
7
420
16777215
370
25
 48
1.0
  6
Continuous
 10
80.828163255700005
 20
-73.929203673200007
 30
0.0
 11
80.828163255700005
 21
-96.429203673200007
 31
0.0
  0
LINE
  5
B2
100
AcDbEntity
100
AcDbLine
  8
0
 62
7
420
16777215
370
25
 48
1.0
  6
Continuous
 10
80.828163255700005
 20
-96.429203673200007
 30
0.0
 11
92.628163255700002
 21
-96.429203673200007
 31
0.0
  0
LINE
  5
B3
100
AcDbEntity
100
AcDbLine
  8
0
 62
7
420
16777215
370
25
 48
1.0
  6
Continuous
 10
92.628163255700002
 20
-96.429203673200007
 30
0.0
 11
92.628163255700002
 21
-73.929203673200007
 31
0.0
  0
LINE
  5
B4
100
AcDbEntity
100
AcDbLine
  8
0
 62
7
420
16777215
370
25
 48
1.0
  6
Continuous
 10
92.628163255700002
 20
-73.929203673200007
 30
0.0
 11
80.828163255700005
 21
-73.929203673200007
 31
0.0
  0
LINE
  5
B5
100
AcDbEntity
100
AcDbLine
  8
0
 62
7
420
16777215
370
25
 48
1.0
  6
Continuous
 10
142.6281632557
 20
-104.0372895072
 30
0.0
 11
142.6281632557
 21
-72.037289507200001
 31
0.0
  0
LINE
  5
B6
100
AcDbEntity
100
AcDbLine
  8
0
 62
7
420
16777215
370
25
 48
1.0
  6
Continuous
 10
142.6281632557
 20
-72.037289507200001
 30
0.0
 11
110.6281632557
 21
-72.037289507200001
 31
0.0
  0
LINE
  5
B7
100
AcDbEntity
100
AcDbLine
  8
0
 62
7
420
16777215
370
25
 48
1.0
  6
Continuous
 10
110.6281632557
 20
-72.037289507200001
 30
0.0
 11
110.6281632557
 21
-104.0372895072
 31
0.0
  0
LINE
  5
B8
100
AcDbEntity
100
AcDbLine
  8
0
 62
7
420
16777215
370
25
 48
1.0
  6
Continuous
 10
110.6281632557
 20
-104.0372895072
 30
0.0
 11
142.6281632557
 21
-104.0372895072
 31
0.0
  0
LINE
  5
B9
100
AcDbEntity
100
AcDbLine
  8
0
 62
7
420
16777215
370
25
 48
1.0
  6
Continuous
 10
95.128163255700002
 20
-42.924042331400003
 30
0.0
 11
95.128163255700002
 21
-71.929203673200007
 31
0.0
  0
LINE
  5
BA
100
AcDbEntity
100
AcDbLine
  8
0
 62
7
420
16777215
370
25
 48
1.0
  6
Continuous
 10
159.1281632557
 20
-71.929203673200007
 30
0.0
 11
159.1281632557
 21
-45.9251260761
 31
0.0
  0
LINE
  5
BB
100
AcDbEntity
100
AcDbLine
  8
0
 62
7
420
16777215
370
25
 48
1.0
  6
Continuous
 10
159.6281632557
 20
-71.929203673200007
 30
0.0
 11
159.1281632557
 21
-71.929203673200007
 31
0.0
  0
LINE
  5
BC
100
AcDbEntity
100
AcDbLine
  8
0
 62
7
420
16777215
370
25
 48
1.0
  6
Continuous
 10
159.6281632557
 20
-71.929203673200007
 30
0.0
 11
159.6281632557
 21
-68.929203673200007
 31
0.0
  0
LINE
  5
BD
100
AcDbEntity
100
AcDbLine
  8
0
 62
7
420
16777215
370
25
 48
1.0
  6
Continuous
 10
173.42816325570001
 20
-66.929203673200007
 30
0.0
 11
161.6281632557
 21
-66.929203673200007
 31
0.0
  0
LINE
  5
BE
100
AcDbEntity
100
AcDbLine
  8
0
 62
7
420
16777215
370
25
 48
1.0
  6
Continuous
 10
175.42816325570001
 20
-101.42920367320001
 30
0.0
 11
175.42816325570001
 21
-68.929203673200007
 31
0.0
  0
LINE
  5
BF
100
AcDbEntity
100
AcDbLine
  8
0
 62
7
420
16777215
370
25
 48
1.0
  6
Continuous
 10
161.6281632557
 20
-103.42920367320001
 30
0.0
 11
173.42816325570001
 21
-103.42920367320001
 31
0.0
  0
LINE
  5
C0
100
AcDbEntity
100
AcDbLine
  8
0
 62
7
420
16777215
370
25
 48
1.0
  6
Continuous
 10
159.6281632557
 20
-101.42920367320001
 30
0.0
 11
159.6281632557
 21
-98.429203673200007
 31
0.0
  0
LINE
  5
C1
100
AcDbEntity
100
AcDbLine
  8
0
 62
7
420
16777215
370
25
 48
1.0
  6
Continuous
 10
159.1281632557
 20
-98.429203673200007
 30
0.0
 11
159.6281632557
 21
-98.429203673200007
 31
0.0
  0
LINE
  5
C2
100
AcDbEntity
100
AcDbLine
  8
0
 62
7
420
16777215
370
25
 48
1.0
  6
Continuous
 10
159.1281632557
 20
-117.0372895072
 30
0.0
 11
159.1281632557
 21
-98.429203673200007
 31
0.0
  0
LINE
  5
C3
100
AcDbEntity
100
AcDbLine
  8
0
 62
7
420
16777215
370
25
 48
1.0
  6
Continuous
 10
157.1281632557
 20
-119.0372895072
 30
0.0
 11
145.1281632557
 21
-119.0372895072
 31
0.0
  0
LINE
  5
C4
100
AcDbEntity
100
AcDbLine
  8
0
 62
7
420
16777215
370
25
 48
1.0
  6
Continuous
 10
145.1281632557
 20
-119.0372895072
 30
0.0
 11
145.1281632557
 21
-120.0372895072
 31
0.0
  0
LINE
  5
C5
100
AcDbEntity
100
AcDbLine
  8
0
 62
7
420
16777215
370
25
 48
1.0
  6
Continuous
 10
145.1281632557
 20
-120.0372895072
 30
0.0
 11
176.10341234820001
 21
-120.0372895072
 31
0.0
  0
LINE
  5
C6
100
AcDbEntity
100
AcDbLine
  8
0
 62
7
420
16777215
370
25
 48
1.0
  6
Continuous
 10
178.10000358479999
 20
-144.9205700405
 30
0.0
 11
178.10000358479999
 21
-121.9205700405
 31
0.0
  0
LINE
  5
C7
100
AcDbEntity
100
AcDbLine
  8
0
 62
7
420
16777215
370
25
 48
1.0
  6
Continuous
 10
178.10000358479999
 20
-144.9205700405
 30
0.0
 11
179.10000358479999
 21
-144.9205700405
 31
0.0
  0
LINE
  5
C8
100
AcDbEntity
100
AcDbLine
  8
0
 62
7
420
16777215
370
25
 48
1.0
  6
Continuous
 10
179.10000358479999
 20
-144.9205700405
 30
0.0
 11
179.10000358479999
 21
-140.9205700405
 31
0.0
  0
LINE
  5
C9
100
AcDbEntity
100
AcDbLine
  8
0
 62
7
420
16777215
370
25
 48
1.0
  6
Continuous
 10
203.10000358479999
 20
-138.9205700405
 30
0.0
 11
181.10000358479999
 21
-138.9205700405
 31
0.0
  0
LINE
  5
CA
100
AcDbEntity
100
AcDbLine
  8
0
 62
7
420
16777215
370
25
 48
1.0
  6
Continuous
 10
205.10000358479999
 20
-186.9205700405
 30
0.0
 11
205.10000358479999
 21
-140.9205700405
 31
0.0
  0
LINE
  5
CB
100
AcDbEntity
100
AcDbLine
  8
0
 62
7
420
16777215
370
25
 48
1.0
  6
Continuous
 10
181.10000358479999
 20
-188.9205700405
 30
0.0
 11
203.10000358479999
 21
-188.9205700405
 31
0.0
  0
LINE
  5
CC
100
AcDbEntity
100
AcDbLine
  8
0
 62
7
420
16777215
370
25
 48
1.0
  6
Continuous
 10
179.10000358479999
 20
-186.9205700405
 30
0.0
 11
179.10000358479999
 21
-182.9205700405
 31
0.0
  0
LINE
  5
CD
100
AcDbEntity
100
AcDbLine
  8
0
 62
7
420
16777215
370
25
 48
1.0
  6
Continuous
 10
179.10000358479999
 20
-182.9205700405
 30
0.0
 11
178.10000358479999
 21
-182.9205700405
 31
0.0
  0
LINE
  5
CE
100
AcDbEntity
100
AcDbLine
  8
0
 62
7
420
16777215
370
25
 48
1.0
  6
Continuous
 10
178.10000358479999
 20
-243.37183696880001
 30
0.0
 11
178.10000358479999
 21
-182.9205700405
 31
0.0
  0
LINE
  5
CF
100
AcDbEntity
100
AcDbLine
  8
0
 62
7
420
16777215
370
25
 48
1.0
  6
Continuous
 10
176.10000358479999
 20
-245.37183696880001
 30
0.0
 11
175.10000358479999
 21
-245.37183696880001
 31
0.0
  0
LINE
  5
D0
100
AcDbEntity
100
AcDbLine
  8
0
 62
7
420
16777215
370
25
 48
1.0
  6
Continuous
 10
175.10000358479999
 20
-245.37183696880001
 30
0.0
 11
175.10000358479999
 21
-246.37183696880001
 31
0.0
  0
LINE
  5
D1
100
AcDbEntity
100
AcDbLine
  8
0
 62
7
420
16777215
370
25
 48
1.0
  6
Continuous
 10
175.10000358479999
 20
-246.37183696880001
 30
0.0
 11
177.10000358479999
 21
-246.37183696880001
 31
0.0
  0
LINE
  5
D2
100
AcDbEntity
100
AcDbLine
  8
0
 62
7
420
16777215
370
25
 48
1.0
  6
Continuous
 10
179.10000358479999
 20
-257.28710822080001
 30
0.0
 11
179.10000358479999
 21
-248.37183696880001
 31
0.0
  0
LINE
  5
D3
100
AcDbEntity
100
AcDbLine
  8
0
 62
7
420
16777215
370
25
 48
1.0
  6
Continuous
 10
77.100003584800007
 20
-259.28710822080001
 30
0.0
 11
177.10000358479999
 21
-259.28710822080001
 31
0.0
  0
LINE
  5
D4
100
AcDbEntity
100
AcDbLine
  8
0
 62
7
420
16777215
370
25
 48
1.0
  6
Continuous
 10
75.100003584800007
 20
-248.37183696880001
 30
0.0
 11
75.100003584800007
 21
-257.28710822080001
 31
0.0
  0
LINE
  5
D5
100
AcDbEntity
100
AcDbLine
  8
0
 62
7
420
16777215
370
25
 48
1.0
  6
Continuous
 10
77.100003584800007
 20
-246.37183696880001
 30
0.0
 11
79.100003584800007
 21
-246.37183696880001
 31
0.0
  0
LINE
  5
D6
100
AcDbEntity
100
AcDbLine
  8
0
 62
7
420
16777215
370
25
 48
1.0
  6
Continuous
 10
79.100003584800007
 20
-246.37183696880001
 30
0.0
 11
79.100003584800007
 21
-245.37183696880001
 31
0.0
  0
LINE
  5
D7
100
AcDbEntity
100
AcDbLine
  8
0
 62
7
420
16777215
370
25
 48
1.0
  6
Continuous
 10
79.100003584800007
 20
-245.37183696880001
 30
0.0
 11
78.100003584800007
 21
-245.37183696880001
 31
0.0
  0
LINE
  5
D8
100
AcDbEntity
100
AcDbLine
  8
0
 62
7
420
16777215
370
25
 48
1.0
  6
Continuous
 10
76.100003584800007
 20
-182.9205700405
 30
0.0
 11
76.100003584800007
 21
-243.37183696880001
 31
0.0
  0
LINE
  5
D9
100
AcDbEntity
100
AcDbLine
  8
0
 62
7
420
16777215
370
25
 48
1.0
  6
Continuous
 10
76.100003584800007
 20
-182.9205700405
 30
0.0
 11
75.100003584800007
 21
-182.9205700405
 31
0.0
  0
LINE
  5
DA
100
AcDbEntity
100
AcDbLine
  8
0
 62
7
420
16777215
370
25
 48
1.0
  6
Continuous
 10
75.100003584800007
 20
-182.9205700405
 30
0.0
 11
75.100003584800007
 21
-186.9205700405
 31
0.0
  0
LINE
  5
DB
100
AcDbEntity
100
AcDbLine
  8
0
 62
7
420
16777215
370
25
 48
1.0
  6
Continuous
 10
51.1000035848
 20
-188.9205700405
 30
0.0
 11
73.100003584800007
 21
-188.9205700405
 31
0.0
  0
LINE
  5
DC
100
AcDbEntity
100
AcDbLine
  8
0
 62
7
420
16777215
370
25
 48
1.0
  6
Continuous
 10
49.1000035848
 20
-140.9205700405
 30
0.0
 11
49.1000035848
 21
-186.9205700405
 31
0.0
  0
LINE
  5
DD
100
AcDbEntity
100
AcDbLine
  8
0
 62
7
420
16777215
370
25
 48
1.0
  6
Continuous
 10
73.100003584800007
 20
-138.9205700405
 30
0.0
 11
51.1000035848
 21
-138.9205700405
 31
0.0
  0
LINE
  5
DE
100
AcDbEntity
100
AcDbLine
  8
0
 62
7
420
16777215
370
25
 48
1.0
  6
Continuous
 10
75.100003584800007
 20
-140.9205700405
 30
0.0
 11
75.100003584800007
 21
-144.9205700405
 31
0.0
  0
LINE
  5
DF
100
AcDbEntity
100
AcDbLine
  8
0
 62
7
420
16777215
370
25
 48
1.0
  6
Continuous
 10
75.100003584800007
 20
-144.9205700405
 30
0.0
 11
76.100003584800007
 21
-144.9205700405
 31
0.0
  0
LINE
  5
E0
100
AcDbEntity
100
AcDbLine
  8
0
 62
7
420
16777215
370
25
 48
1.0
  6
Continuous
 10
76.100003584800007
 20
-121.9205700405
 30
0.0
 11
76.100003584800007
 21
-144.9205700405
 31
0.0
  0
LINE
  5
E1
100
AcDbEntity
100
AcDbLine
  8
0
 62
7
420
16777215
370
25
 48
1.0
  6
Continuous
 10
78.096594821400004
 20
-120.0372895072
 30
0.0
 11
109.1281632557
 21
-120.0372895072
 31
0.0
  0
LINE
  5
E2
100
AcDbEntity
100
AcDbLine
  8
0
 62
7
420
16777215
370
25
 48
1.0
  6
Continuous
 10
109.1281632557
 20
-120.0372895072
 30
0.0
 11
109.1281632557
 21
-119.0372895072
 31
0.0
  0
LINE
  5
E3
100
AcDbEntity
100
AcDbLine
  8
0
 62
7
420
16777215
370
25
 48
1.0
  6
Continuous
 10
109.1281632557
 20
-119.0372895072
 30
0.0
 11
97.128163255700002
 21
-119.0372895072
 31
0.0
  0
LINE
  5
E4
100
AcDbEntity
100
AcDbLine
  8
0
 62
7
420
16777215
370
25
 48
1.0
  6
Continuous
 10
95.128163255700002
 20
-98.429203673200007
 30
0.0
 11
95.128163255700002
 21
-117.0372895072
 31
0.0
  0
LINE
  5
E5
100
AcDbEntity
100
AcDbLine
  8
0
 62
7
420
16777215
370
25
 48
1.0
  6
Continuous
 10
94.628163255700002
 20
-98.429203673200007
 30
0.0
 11
95.128163255700002
 21
-98.429203673200007
 31
0.0
  0
LINE
  5
E6
100
AcDbEntity
100
AcDbLine
  8
0
 62
7
420
16777215
370
25
 48
1.0
  6
Continuous
 10
94.628163255700002
 20
-98.429203673200007
 30
0.0
 11
94.628163255700002
 21
-101.42920367320001
 31
0.0
  0
LINE
  5
E7
100
AcDbEntity
100
AcDbLine
  8
0
 62
7
420
16777215
370
25
 48
1.0
  6
Continuous
 10
80.828163255700005
 20
-103.42920367320001
 30
0.0
 11
92.628163255700002
 21
-103.42920367320001
 31
0.0
  0
LINE
  5
E8
100
AcDbEntity
100
AcDbLine
  8
0
 62
7
420
16777215
370
25
 48
1.0
  6
Continuous
 10
78.828163255700005
 20
-68.929203673200007
 30
0.0
 11
78.828163255700005
 21
-101.42920367320001
 31
0.0
  0
LINE
  5
E9
100
AcDbEntity
100
AcDbLine
  8
0
 62
7
420
16777215
370
25
 48
1.0
  6
Continuous
 10
92.628163255700002
 20
-66.929203673200007
 30
0.0
 11
80.828163255700005
 21
-66.929203673200007
 31
0.0
  0
LINE
  5
EA
100
AcDbEntity
100
AcDbLine
  8
0
 62
7
420
16777215
370
25
 48
1.0
  6
Continuous
 10
94.628163255700002
 20
-68.929203673200007
 30
0.0
 11
94.628163255700002
 21
-71.929203673200007
 31
0.0
  0
LINE
  5
EB
100
AcDbEntity
100
AcDbLine
  8
0
 62
7
420
16777215
370
25
 48
1.0
  6
Continuous
 10
95.128163255700002
 20
-71.929203673200007
 30
0.0
 11
94.628163255700002
 21
-71.929203673200007
 31
0.0
  0
ARC
  5
EC
100
AcDbEntity
  8
0
 62
7
420
16777215
370
25
 48
1.0
  6
Continuous
100
AcDbCircle
 10
55.3500035848
 20
-152.86921817449999
 30
0.0
 40
3.9999999999997429
100
AcDbArc
 50
99.19076090679998
 51
262.09679226650002
  0
ARC
  5
ED
100
AcDbEntity
  8
0
 62
7
420
16777215
370
25
 48
1.0
  6
Continuous
100
AcDbCircle
 10
198.85000358479999
 20
-152.86921817449999
 30
0.0
 40
3.9999999999997211
100
AcDbArc
 50
277.90320773349998
 51
80.809239093199992
  0
ARC
  5
EE
100
AcDbEntity
  8
0
 62
7
420
16777215
370
25
 48
1.0
  6
Continuous
100
AcDbCircle
 10
109.039357219
 20
-36.410936133299998
 30
0.0
 40
6.5192024051846058
100
AcDbArc
 50
154.3139564574
 51
202.52161115019999
  0
ARC
  5
EF
100
AcDbEntity
  8
0
 62
7
420
16777215
370
25
 48
1.0
  6
Continuous
100
AcDbCircle
 10
118.1729708324
 20
-50.938247177400001
 30
0.0
 40
19.34993540041086
100
AcDbArc
 50
99.4831049581
 51
141.558127009
  0
ARC
  5
F0
100
AcDbEntity
  8
0
 62
7
420
16777215
370
25
 48
1.0
  6
Continuous
100
AcDbCircle
 10
117.49643836369999
 20
-34.341190094300003
 30
0.0
 40
3.5355339059872568
100
AcDbArc
 50
135.26417881990002
 51
225.26417881980001
  0
ARC
  5
F1
100
AcDbEntity
  8
0
 62
7
420
16777215
370
25
 48
1.0
  6
Continuous
100
AcDbCircle
 10
128.92609088419999
 20
-50.9373756357
 30
0.0
 40
19.80130896536787
100
AcDbArc
 50
101.63231352389998
 51
134.65915632670004
  0
ARC
  5
F2
100
AcDbEntity
  8
0
 62
7
420
16777215
370
25
 48
1.0
  6
Continuous
100
AcDbCircle
 10
135.92420760389999
 20
-29.492054830699999
 30
0.0
 40
11.18033988746768
100
AcDbArc
 50
190.56902528820004
 51
243.69912764229997
  0
ARC
  5
F3
100
AcDbEntity
  8
0
 62
7
420
16777215
370
25
 48
1.0
  6
Continuous
100
AcDbCircle
 10
148.90107239010001
 20
-60.9306216234
 30
0.0
 40
27.930966486965229
100
AcDbArc
 50
91.333783812999982
 51
129.93850381479999
  0
ARC
  5
F4
100
AcDbEntity
  8
0
 62
7
420
16777215
370
25
 48
1.0
  6
Continuous
100
AcDbCircle
 10
158.52657010760001
 20
-33.820357241799996
 30
0.0
 40
10.307764064052529
100
AcDbArc
 50
175.47548553249999
 51
264.45340114599998
  0
ARC
  5
F5
100
AcDbEntity
  8
0
 62
7
420
16777215
370
25
 48
1.0
  6
Continuous
100
AcDbCircle
 10
156.25749481209999
 20
-46.796482884200003
 30
0.0
 40
2.9999999999563021
100
AcDbArc
 50
16.885034664399999
 51
64.896262622500004
  0
ARC
  5
F6
100
AcDbEntity
  8
0
 62
7
420
16777215
370
25
 48
1.0
  6
Continuous
100
AcDbCircle
 10
161.6281632557
 20
-68.929203673200007
 30
0.0
 40
1.9999999999999429
100
AcDbArc
 50
90.0
 51
180.0
  0
ARC
  5
F7
100
AcDbEntity
  8
0
 62
7
420
16777215
370
25
 48
1.0
  6
Continuous
100
AcDbCircle
 10
173.42816325570001
 20
-68.929203673200007
 30
0.0
 40
1.999999999999972
100
AcDbArc
 50
0.0
 51
90.0
  0
ARC
  5
F8
100
AcDbEntity
  8
0
 62
7
420
16777215
370
25
 48
1.0
  6
Continuous
100
AcDbCircle
 10
173.42816325570001
 20
-101.42920367320001
 30
0.0
 40
2.0
100
AcDbArc
 50
270.0
 51
0.0
  0
ARC
  5
F9
100
AcDbEntity
  8
0
 62
7
420
16777215
370
25
 48
1.0
  6
Continuous
100
AcDbCircle
 10
161.6281632557
 20
-101.42920367320001
 30
0.0
 40
1.999999999999986
100
AcDbArc
 50
180.0
 51
270.0
  0
ARC
  5
FA
100
AcDbEntity
  8
0
 62
7
420
16777215
370
25
 48
1.0
  6
Continuous
100
AcDbCircle
 10
157.1281632557
 20
-117.0372895072
 30
0.0
 40
2.0000000000003411
100
AcDbArc
 50
270.0
 51
0.0
  0
ARC
  5
FB
100
AcDbEntity
  8
0
 62
7
420
16777215
370
25
 48
1.0
  6
Continuous
100
AcDbCircle
 10
176.10341234820001
 20
-122.0372895072
 30
0.0
 40
2.0000000000004832
100
AcDbArc
 50
3.3456673938999995
 51
90.0
  0
ARC
  5
FC
100
AcDbEntity
  8
0
 62
7
420
16777215
370
25
 48
1.0
  6
Continuous
100
AcDbCircle
 10
181.10000358479999
 20
-140.9205700405
 30
0.0
 40
1.999999999999261
100
AcDbArc
 50
90.0
 51
180.0
  0
ARC
  5
FD
100
AcDbEntity
  8
0
 62
7
420
16777215
370
25
 48
1.0
  6
Continuous
100
AcDbCircle
 10
203.10000358479999
 20
-140.9205700405
 30
0.0
 40
1.9999999999984079
100
AcDbArc
 50
0.0
 51
90.0
  0
ARC
  5
FE
100
AcDbEntity
  8
0
 62
7
420
16777215
370
25
 48
1.0
  6
Continuous
100
AcDbCircle
 10
203.10000358479999
 20
-186.9205700405
 30
0.0
 40
1.999999999998465
100
AcDbArc
 50
270.0
 51
0.0
  0
ARC
  5
FF
100
AcDbEntity
  8
0
 62
7
420
16777215
370
25
 48
1.0
  6
Continuous
100
AcDbCircle
 10
181.10000358479999
 20
-186.9205700405
 30
0.0
 40
2.0000000000004552
100
AcDbArc
 50
180.0
 51
270.0
  0
ARC
  5
100
100
AcDbEntity
  8
0
 62
7
420
16777215
370
25
 48
1.0
  6
Continuous
100
AcDbCircle
 10
176.10000358479999
 20
-243.37183696880001
 30
0.0
 40
1.9999999999984079
100
AcDbArc
 50
270.0
 51
0.0
  0
ARC
  5
101
100
AcDbEntity
  8
0
 62
7
420
16777215
370
25
 48
1.0
  6
Continuous
100
AcDbCircle
 10
177.10000358479999
 20
-248.37183696880001
 30
0.0
 40
1.9999999999985789
100
AcDbArc
 50
0.0
 51
90.0
  0
ARC
  5
102
100
AcDbEntity
  8
0
 62
7
420
16777215
370
25
 48
1.0
  6
Continuous
100
AcDbCircle
 10
177.10000358479999
 20
-257.28710822080001
 30
0.0
 40
1.9999999999985789
100
AcDbArc
 50
270.0
 51
0.0
  0
ARC
  5
103
100
AcDbEntity
  8
0
 62
7
420
16777215
370
25
 48
1.0
  6
Continuous
100
AcDbCircle
 10
77.100003584800007
 20
-257.28710822080001
 30
0.0
 40
1.9999999999985361
100
AcDbArc
 50
180.0
 51
270.0
  0
ARC
  5
104
100
AcDbEntity
  8
0
 62
7
420
16777215
370
25
 48
1.0
  6
Continuous
100
AcDbCircle
 10
77.100003584800007
 20
-248.37183696880001
 30
0.0
 40
1.9999999999984941
100
AcDbArc
 50
90.0
 51
180.0
  0
ARC
  5
105
100
AcDbEntity
  8
0
 62
7
420
16777215
370
25
 48
1.0
  6
Continuous
100
AcDbCircle
 10
78.100003584800007
 20
-243.37183696880001
 30
0.0
 40
1.999999999998693
100
AcDbArc
 50
180.0
 51
270.0
  0
ARC
  5
106
100
AcDbEntity
  8
0
 62
7
420
16777215
370
25
 48
1.0
  6
Continuous
100
AcDbCircle
 10
73.100003584800007
 20
-186.9205700405
 30
0.0
 40
1.999999999998977
100
AcDbArc
 50
270.0
 51
0.0000000001
  0
ARC
  5
107
100
AcDbEntity
  8
0
 62
7
420
16777215
370
25
 48
1.0
  6
Continuous
100
AcDbCircle
 10
51.1000035848
 20
-186.9205700405
 30
0.0
 40
1.999999999998437
100
AcDbArc
 50
180.0
 51
270.0
  0
ARC
  5
108
100
AcDbEntity
  8
0
 62
7
420
16777215
370
25
 48
1.0
  6
Continuous
100
AcDbCircle
 10
51.1000035848
 20
-140.9205700405
 30
0.0
 40
1.9999999999984941
100
AcDbArc
 50
90.0
 51
180.0
  0
ARC
  5
109
100
AcDbEntity
  8
0
 62
7
420
16777215
370
25
 48
1.0
  6
Continuous
100
AcDbCircle
 10
73.100003584800007
 20
-140.9205700405
 30
0.0
 40
2.0000000000004259
100
AcDbArc
 50
0.0
 51
90.0
  0
ARC
  5
10A
100
AcDbEntity
  8
0
 62
7
420
16777215
370
25
 48
1.0
  6
Continuous
100
AcDbCircle
 10
78.096594821400004
 20
-122.0372895072
 30
0.0
 40
2.000000000000044
100
AcDbArc
 50
90.0
 51
176.65433260610001
  0
ARC
  5
10B
100
AcDbEntity
  8
0
 62
7
420
16777215
370
25
 48
1.0
  6
Continuous
100
AcDbCircle
 10
97.128163255700002
 20
-117.0372895072
 30
0.0
 40
1.9999999999997731
100
AcDbArc
 50
180.0
 51
270.0
  0
ARC
  5
10C
100
AcDbEntity
  8
0
 62
7
420
16777215
370
25
 48
1.0
  6
Continuous
100
AcDbCircle
 10
92.628163255700002
 20
-101.42920367320001
 30
0.0
 40
2.0
100
AcDbArc
 50
270.0
 51
0.0
  0
ARC
  5
10D
100
AcDbEntity
  8
0
 62
7
420
16777215
370
25
 48
1.0
  6
Continuous
100
AcDbCircle
 10
80.828163255700005
 20
-101.42920367320001
 30
0.0
 40
1.999999999999972
100
AcDbArc
 50
180.0
 51
270.0
  0
ARC
  5
10E
100
AcDbEntity
  8
0
 62
7
420
16777215
370
25
 48
1.0
  6
Continuous
100
AcDbCircle
 10
80.828163255700005
 20
-68.929203673200007
 30
0.0
 40
2.0000000000000142
100
AcDbArc
 50
90.0
 51
180.0
  0
ARC
  5
10F
100
AcDbEntity
  8
0
 62
7
420
16777215
370
25
 48
1.0
  6
Continuous
100
AcDbCircle
 10
92.628163255700002
 20
-68.929203673200007
 30
0.0
 40
1.999999999999986
100
AcDbArc
 50
0.0
 51
90.0
  0
ARC
  5
110
100
AcDbEntity
  8
0
 62
7
420
16777215
370
25
 48
1.0
  6
Continuous
100
AcDbCircle
 10
105.7264516609
 20
-43.917024440299997
 30
0.0
 40
10.64470434487861
100
AcDbArc
 50
103.9273376554
 51
174.6474302078
  0
ENDSEC
  0
SECTION
  2
OBJECTS
  0
DICTIONARY
  5
C
100
AcDbDictionary
280
0
281
1
  3
ACAD_GROUP
350
D
  3
ACAD_LAYOUT
350
1A
  3
ACAD_MLINESTYLE
350
17
  3
ACAD_PLOTSETTINGS
350
19
  3
ACAD_PLOTSTYLENAME
350
E
  3
AcDbVariableDictionary
350
111
  3
QCAD_OBJECTS
350
112
  0
DICTIONARY
  5
D
100
AcDbDictionary
280
0
281
1
  0
ACDBDICTIONARYWDFLT
  5
E
100
AcDbDictionary
281
1
  3
Normal
350
F
100
AcDbDictionaryWithDefault
340
F
  0
ACDBPLACEHOLDER
  5
F
  0
DICTIONARY
  5
17
100
AcDbDictionary
280
0
281
1
  3
Standard
350
18
  0
MLINESTYLE
  5
18
100
AcDbMlineStyle
  2
STANDARD
 70
0
  3

 62
256
 51
90.0
 52
90.0
 71
2
 49
0.5
 62
256
  6
BYLAYER
 49
-0.5
 62
256
  6
BYLAYER
  0
DICTIONARY
  5
19
100
AcDbDictionary
280
0
281
1
  0
DICTIONARY
  5
1A
100
AcDbDictionary
281
1
  3
Layout1
350
1E
  3
Layout2
350
26
  3
Model
350
22
  0
LAYOUT
  5
1E
100
AcDbPlotSettings
  1

  2
none_device
  4

  6

 40
0.0
 41
0.0
 42
0.0
 43
0.0
 44
0.0
 45
0.0
 46
0.0
 47
0.0
 48
0.0
 49
0.0
140
0.0
141
0.0
142
1.0
143
1.0
 70
688
 72
0
 73
0
 74
5
  7

 75
16
147
1.0
148
0.0
149
0.0
100
AcDbLayout
  1
Layout1
 70
1
 71
1
 10
0.0
 20
0.0
 11
420.0
 21
297.0
 12
0.0
 22
0.0
 32
0.0
 14
100000000000000000000.0
 24
100000000000000000000.0
 34
100000000000000000000.0
 15
-100000000000000000000.0
 25
-100000000000000000000.0
 35
-100000000000000000000.0
146
0.0
 13
0.0
 23
0.0
 33
0.0
 16
1.0
 26
0.0
 36
0.0
 17
0.0
 27
1.0
 37
0.0
 76
0
330
1B
  0
LAYOUT
  5
22
100
AcDbPlotSettings
  1

  2
none_device
  4

  6

 40
0.0
 41
0.0
 42
0.0
 43
0.0
 44
0.0
 45
0.0
 46
0.0
 47
0.0
 48
0.0
 49
0.0
140
0.0
141
0.0
142
1.0
143
1.0
 70
1712
 72
0
 73
0
 74
0
  7

 75
0
147
1.0
148
0.0
149
0.0
100
AcDbLayout
  1
Model
 70
1
 71
0
 10
0.0
 20
0.0
 11
12.0
 21
9.0
 12
0.0
 22
0.0
 32
0.0
 14
0.0
 24
0.0
 34
0.0
 15
0.0
 25
0.0
 35
0.0
146
0.0
 13
0.0
 23
0.0
 33
0.0
 16
1.0
 26
0.0
 36
0.0
 17
0.0
 27
1.0
 37
0.0
 76
0
330
1F
  0
LAYOUT
  5
26
100
AcDbPlotSettings
  1

  2
none_device
  4

  6

 40
0.0
 41
0.0
 42
0.0
 43
0.0
 44
0.0
 45
0.0
 46
0.0
 47
0.0
 48
0.0
 49
0.0
140
0.0
141
0.0
142
1.0
143
1.0
 70
688
 72
0
 73
0
 74
5
  7

 75
16
147
1.0
148
0.0
149
0.0
100
AcDbLayout
  1
Layout2
 70
1
 71
2
 10
0.0
 20
0.0
 11
12.0
 21
9.0
 12
0.0
 22
0.0
 32
0.0
 14
0.0
 24
0.0
 34
0.0
 15
0.0
 25
0.0
 35
0.0
146
0.0
 13
0.0
 23
0.0
 33
0.0
 16
1.0
 26
0.0
 36
0.0
 17
0.0
 27
1.0
 37
0.0
 76
0
330
23
  0
DICTIONARY
  5
111
100
AcDbDictionary
281
1
  3
DIMASSOC
350
114
  3
HIDETEXT
350
113
  0
DICTIONARYVAR
  5
113
100
DictionaryVariables
280
0
  1
2
  0
DICTIONARYVAR
  5
114
100
DictionaryVariables
280
0
  1
1
  0
DICTIONARY
  5
112
100
AcDbDictionary
281
1
  3
ColorSettings/BackgroundColor
350
115
  3
ColorSettings/ColorMode
350
116
  3
Grid/DisplayGrid00
350
117
  3
Grid/DisplayGrid01
350
118
  3
Grid/DisplayGrid02
350
119
  3
Grid/DisplayGrid03
350
11A
  3
Grid/GridSpacingX00
350
11B
  3
Grid/GridSpacingX01
350
11C
  3
Grid/GridSpacingX02
350
11D
  3
Grid/GridSpacingX03
350
11E
  3
Grid/GridSpacingY00
350
11F
  3
Grid/GridSpacingY01
350
120
  3
Grid/GridSpacingY02
350
121
  3
Grid/GridSpacingY03
350
122
  3
Grid/IsometricGrid00
350
123
  3
Grid/IsometricGrid01
350
124
  3
Grid/IsometricGrid02
350
125
  3
Grid/IsometricGrid03
350
126
  3
Grid/IsometricProjection00
350
127
  3
Grid/IsometricProjection01
350
128
  3
Grid/IsometricProjection02
350
129
  3
Grid/IsometricProjection03
350
12A
  3
Grid/MetaGridSpacingX00
350
12B
  3
Grid/MetaGridSpacingX01
350
12C
  3
Grid/MetaGridSpacingX02
350
12D
  3
Grid/MetaGridSpacingX03
350
12E
  3
Grid/MetaGridSpacingY00
350
12F
  3
Grid/MetaGridSpacingY01
350
130
  3
Grid/MetaGridSpacingY02
350
131
  3
Grid/MetaGridSpacingY03
350
132
  3
MultiPageSettings/Columns
350
133
  3
MultiPageSettings/GlueMarginsBottom
350
134
  3
MultiPageSettings/GlueMarginsLeft
350
135
  3
MultiPageSettings/GlueMarginsRight
350
136
  3
MultiPageSettings/GlueMarginsTop
350
137
  3
MultiPageSettings/PrintCropMarks
350
138
  3
MultiPageSettings/Rows
350
139
  3
PageSettings/OffsetX
350
13A
  3
PageSettings/OffsetY
350
13B
  3
PageSettings/PageOrientation
350
13C
  3
PageSettings/PaperHeight
350
13D
  3
PageSettings/PaperWidth
350
13E
  3
PageSettings/Scale
350
13F
  3
PageSettings/ShowPaperBorders
350
140
  3
UnitSettings/PaperUnit
350
141
  3
ViewportCenter
350
142
  3
ViewportHeight
350
143
  3
ViewportWidth
350
144
  0
XRECORD
  5
115
330
112
100
AcDbXrecord
280
1
1000
White
  0
XRECORD
  5
116
330
112
100
AcDbXrecord
280
1
1000
FullColor
  0
XRECORD
  5
117
330
112
100
AcDbXrecord
280
1
290
1
  0
XRECORD
  5
118
330
112
100
AcDbXrecord
280
1
290
1
  0
XRECORD
  5
119
330
112
100
AcDbXrecord
280
1
290
1
  0
XRECORD
  5
11A
330
112
100
AcDbXrecord
280
1
290
1
  0
XRECORD
  5
11B
330
112
100
AcDbXrecord
280
1
1000
auto
  0
XRECORD
  5
11C
330
112
100
AcDbXrecord
280
1
1000
auto
  0
XRECORD
  5
11D
330
112
100
AcDbXrecord
280
1
1000
auto
  0
XRECORD
  5
11E
330
112
100
AcDbXrecord
280
1
1000
auto
  0
XRECORD
  5
11F
330
112
100
AcDbXrecord
280
1
1000
auto
  0
XRECORD
  5
120
330
112
100
AcDbXrecord
280
1
1000
auto
  0
XRECORD
  5
121
330
112
100
AcDbXrecord
280
1
1000
auto
  0
XRECORD
  5
122
330
112
100
AcDbXrecord
280
1
1000
auto
  0
XRECORD
  5
123
330
112
100
AcDbXrecord
280
1
290
0
  0
XRECORD
  5
124
330
112
100
AcDbXrecord
280
1
290
0
  0
XRECORD
  5
125
330
112
100
AcDbXrecord
280
1
290
0
  0
XRECORD
  5
126
330
112
100
AcDbXrecord
280
1
290
0
  0
XRECORD
  5
127
330
112
100
AcDbXrecord
280
1
 90
0
  0
XRECORD
  5
128
330
112
100
AcDbXrecord
280
1
 90
0
  0
XRECORD
  5
129
330
112
100
AcDbXrecord
280
1
 90
0
  0
XRECORD
  5
12A
330
112
100
AcDbXrecord
280
1
 90
0
  0
XRECORD
  5
12B
330
112
100
AcDbXrecord
280
1
1000
auto
  0
XRECORD
  5
12C
330
112
100
AcDbXrecord
280
1
1000
auto
  0
XRECORD
  5
12D
330
112
100
AcDbXrecord
280
1
1000
auto
  0
XRECORD
  5
12E
330
112
100
AcDbXrecord
280
1
1000
auto
  0
XRECORD
  5
12F
330
112
100
AcDbXrecord
280
1
1000
auto
  0
XRECORD
  5
130
330
112
100
AcDbXrecord
280
1
1000
auto
  0
XRECORD
  5
131
330
112
100
AcDbXrecord
280
1
1000
auto
  0
XRECORD
  5
132
330
112
100
AcDbXrecord
280
1
1000
auto
  0
XRECORD
  5
133
330
112
100
AcDbXrecord
280
1
 90
1
  0
XRECORD
  5
134
330
112
100
AcDbXrecord
280
1
 40
10.0
  0
XRECORD
  5
135
330
112
100
AcDbXrecord
280
1
 40
10.0
  0
XRECORD
  5
136
330
112
100
AcDbXrecord
280
1
 40
10.0
  0
XRECORD
  5
137
330
112
100
AcDbXrecord
280
1
 40
10.0
  0
XRECORD
  5
138
330
112
100
AcDbXrecord
280
1
290
0
  0
XRECORD
  5
139
330
112
100
AcDbXrecord
280
1
 90
1
  0
XRECORD
  5
13A
330
112
100
AcDbXrecord
280
1
 40
0.0
  0
XRECORD
  5
13B
330
112
100
AcDbXrecord
280
1
 40
0.0
  0
XRECORD
  5
13C
330
112
100
AcDbXrecord
280
1
1000
Portrait
  0
XRECORD
  5
13D
330
112
100
AcDbXrecord
280
1
 40
279.39999999999998
  0
XRECORD
  5
13E
330
112
100
AcDbXrecord
280
1
 40
215.90000000000001
  0
XRECORD
  5
13F
330
112
100
AcDbXrecord
280
1
1000
1:1
  0
XRECORD
  5
140
330
112
100
AcDbXrecord
280
1
290
1
  0
XRECORD
  5
141
330
112
100
AcDbXrecord
280
1
 90
4
  0
XRECORD
  5
143
330
112
100
AcDbXrecord
280
1
 40
334.59193989036612
  0
XRECORD
  5
144
330
112
100
AcDbXrecord
280
1
 40
747.19754452200925
  0
ENDSEC
  0
EOF
