999
dxflib 3.12.2.0
  0
SECTION
  2
HEADER
  9
$ACADVER
  1
AC1015
  9
$HANDSEED
  5
FFFF
  9
$DIMADEC
 70
0
  9
$DIMASZ
 40
2.5
  9
$DIMAUNIT
 70
0
  9
$DIMAZIN
 70
2
  9
$DIMDEC
 70
4
  9
$DIMEXE
 40
1.25
  9
$DIMEXO
 40
0.625
  9
$DIMGAP
 40
0.625
  9
$DIMLUNIT
 70
2
  9
$DIMSCALE
 40
1.0
  9
$DIMTSZ
 40
0.0
  9
$DIMTXT
 40
2.5
  9
$DIMZIN
 70
8
  9
$DWGCODEPAGE
  3
ANSI_1252
  9
$INSUNITS
 70
4
  9
$LTSCALE
 40
1.0
  9
$MEASUREMENT
 70
1
  9
$PDMODE
 70
0
  9
$PDSIZE
 40
0
  0
ENDSEC
  0
SECTION
  2
TABLES
  0
TABLE
  2
VPORT
  5
8
100
AcDbSymbolTable
 70
1
  0
VPORT
  5
30
100
AcDbSymbolTableRecord
100
AcDbViewportTableRecord
  2
*Active
 70
0
 10
0.0
 20
0.0
 11
1.0
 21
1.0
 12
286.30555555555549
 22
148.5
 13
0.0
 23
0.0
 14
10.0
 24
10.0
 15
10.0
 25
10.0
 16
0.0
 26
0.0
 36
1.0
 17
0.0
 27
0.0
 37
0.0
 40
297.0
 41
1.92798353909465
 42
50.0
 43
0.0
 44
0.0
 50
0.0
 51
0.0
 71
0
 72
100
 73
1
 74
3
 75
1
 76
1
 77
0
 78
0
281
0
 65
1
110
0.0
120
0.0
130
0.0
111
1.0
121
0.0
131
0.0
112
0.0
122
1.0
132
0.0
 79
0
146
0.0
  0
ENDTAB
  0
TABLE
  2
LTYPE
  5
5
100
AcDbSymbolTable
 70
50
  0
LTYPE
  5
16
100
AcDbSymbolTableRecord
100
AcDbLinetypeTableRecord
  2
Continuous
 70
0
  3
Solid line
 72
65
 73
0
 40
0.0
  0
LTYPE
  5
31
100
AcDbSymbolTableRecord
100
AcDbLinetypeTableRecord
  2
ACAD_ISO15W100
 70
0
  3
ISO double-dash triple-dot __ __ . . . __ __ . .
 72
65
 73
10
 40
39.000000000000007
 49
12.0
 74
0
 49
-3.0
 74
0
 49
12.0
 74
0
 49
-2.9500000000000002
 74
0
 49
0.1
 74
0
 49
-2.9000000000000004
 74
0
 49
0.1
 74
0
 49
-2.9000000000000004
 74
0
 49
0.1
 74
0
 49
-2.9500000000000002
 74
0
  0
LTYPE
  5
32
100
AcDbSymbolTableRecord
100
AcDbLinetypeTableRecord
  2
HOT_WATER_SUPPLY
 70
0
  3
Hot water supply ---- HW ---- HW ---- HW ----
 72
65
 73
3
 40
22.859999999999999
 49
12.699999999999999
 74
0
 49
-5.0800000000000001
 74
0
 49
-5.0800000000000001
 74
0
  0
LTYPE
  5
33
100
AcDbSymbolTableRecord
100
AcDbLinetypeTableRecord
  2
DIVIDE
 70
0
  3
Divide ____ . . ____ . . ____ . . ____ . . ____
 72
65
 73
6
 40
31.750000000000004
 49
12.699999999999999
 74
0
 49
-6.2999999999999998
 74
0
 49
0.1
 74
0
 49
-6.25
 74
0
 49
0.1
 74
0
 49
-6.2999999999999998
 74
0
  0
LTYPE
  5
34
100
AcDbSymbolTableRecord
100
AcDbLinetypeTableRecord
  2
ACAD_ISO10W100
 70
0
  3
ISO dash dot __ . __ . __ . __ . __ . __ . __ . 
 72
65
 73
4
 40
18.0
 49
12.0
 74
0
 49
-2.9500000000000002
 74
0
 49
0.1
 74
0
 49
-2.9500000000000002
 74
0
  0
LTYPE
  5
35
100
AcDbSymbolTableRecord
100
AcDbLinetypeTableRecord
  2
GAS_LINE
 70
0
  3
Gas line ----GAS----GAS----GAS----GAS----GAS----GAS--
 72
65
 73
3
 40
24.130000000000003
 49
12.699999999999999
 74
0
 49
-5.0800000000000001
 74
0
 49
-6.3499999999999996
 74
0
  0
LTYPE
  5
36
100
AcDbSymbolTableRecord
100
AcDbLinetypeTableRecord
  2
ACAD_ISO04W100
 70
0
  3
ISO long-dash dot ____ . ____ . ____ . ____ . _
 72
65
 73
4
 40
30.0
 49
24.0
 74
0
 49
-2.9500000000000002
 74
0
 49
0.1
 74
0
 49
-2.9500000000000002
 74
0
  0
LTYPE
  5
37
100
AcDbSymbolTableRecord
100
AcDbLinetypeTableRecord
  2
CENTER2
 70
0
  3
Center (.5x) ___ _ ___ _ ___ _ ___ _ ___ _ ___
 72
65
 73
4
 40
28.575000000000003
 49
19.050000000000001
 74
0
 49
-3.1749999999999998
 74
0
 49
3.1749999999999998
 74
0
 49
-3.1749999999999998
 74
0
  0
LTYPE
  5
38
100
AcDbSymbolTableRecord
100
AcDbLinetypeTableRecord
  2
ACAD_ISO11W100
 70
0
  3
ISO double-dash dot __ __ . __ __ . __ __ . __ _
 72
65
 73
6
 40
33.0
 49
12.0
 74
0
 49
-3.0
 74
0
 49
12.0
 74
0
 49
-2.9500000000000002
 74
0
 49
0.1
 74
0
 49
-2.9500000000000002
 74
0
  0
LTYPE
  5
39
100
AcDbSymbolTableRecord
100
AcDbLinetypeTableRecord
  2
HIDDEN2
 70
0
  3
Hidden (.5x) _ _ _ _ _ _ _ _ _ _ _ _ _ _ _ _ _ 
 72
65
 73
2
 40
4.7624999999999993
 49
3.1749999999999998
 74
0
 49
-1.5874999999999999
 74
0
  0
LTYPE
  5
3A
100
AcDbSymbolTableRecord
100
AcDbLinetypeTableRecord
  2
BORDERX2
 70
0
  3
Border (2x) ____  ____  .  ____  ____  .  ___
 72
65
 73
6
 40
88.899999999999977
 49
25.399999999999999
 74
0
 49
-12.699999999999999
 74
0
 49
25.399999999999999
 74
0
 49
-12.649999999999999
 74
0
 49
0.1
 74
0
 49
-12.649999999999999
 74
0
  0
LTYPE
  5
3B
100
AcDbSymbolTableRecord
100
AcDbLinetypeTableRecord
  2
ACAD_ISO05W100
 70
0
  3
ISO long-dash double-dot ____ .. ____ .. ____ . 
 72
65
 73
6
 40
33.000000000000007
 49
24.0
 74
0
 49
-2.9500000000000002
 74
0
 49
0.1
 74
0
 49
-2.9000000000000004
 74
0
 49
0.1
 74
0
 49
-2.9500000000000002
 74
0
  0
LTYPE
  5
3C
100
AcDbSymbolTableRecord
100
AcDbLinetypeTableRecord
  2
DASHDOTX2
 70
0
  3
Dash dot (2x) ____  .  ____  .  ____  .  ___
 72
65
 73
4
 40
50.799999999999997
 49
25.399999999999999
 74
0
 49
-12.649999999999999
 74
0
 49
0.1
 74
0
 49
-12.649999999999999
 74
0
  0
LTYPE
  5
3D
100
AcDbSymbolTableRecord
100
AcDbLinetypeTableRecord
  2
HIDDENX2
 70
0
  3
Hidden (2x) ____ ____ ____ ____ ____ ____ ____ 
 72
65
 73
2
 40
19.049999999999997
 49
12.699999999999999
 74
0
 49
-6.3499999999999996
 74
0
  0
LTYPE
  5
3E
100
AcDbSymbolTableRecord
100
AcDbLinetypeTableRecord
  2
CENTERX2
 70
0
  3
Center (2x) ________  __  ________  __  _____
 72
65
 73
4
 40
101.60000000000001
 49
63.5
 74
0
 49
-12.699999999999999
 74
0
 49
12.699999999999999
 74
0
 49
-12.699999999999999
 74
0
  0
LTYPE
  5
3F
100
AcDbSymbolTableRecord
100
AcDbLinetypeTableRecord
  2
BORDER2
 70
0
  3
Border (.5x) __.__.__.__.__.__.__.__.__.__.__.
 72
65
 73
6
 40
22.225000000000001
 49
6.3499999999999996
 74
0
 49
-3.1749999999999998
 74
0
 49
6.3499999999999996
 74
0
 49
-3.125
 74
0
 49
0.1
 74
0
 49
-3.125
 74
0
  0
LTYPE
  5
40
100
AcDbSymbolTableRecord
100
AcDbLinetypeTableRecord
  2
DASHDOT2
 70
0
  3
Dash dot (.5x) _._._._._._._._._._._._._._._.
 72
65
 73
4
 40
12.699999999999999
 49
6.3499999999999996
 74
0
 49
-3.125
 74
0
 49
0.1
 74
0
 49
-3.125
 74
0
  0
LTYPE
  5
41
100
AcDbSymbolTableRecord
100
AcDbLinetypeTableRecord
  2
ACAD_ISO12W100
 70
0
  3
ISO dash double-dot __ . . __ . . __ . . __ . . 
 72
65
 73
6
 40
21.0
 49
12.0
 74
0
 49
-2.9500000000000002
 74
0
 49
0.1
 74
0
 49
-2.9000000000000004
 74
0
 49
0.1
 74
0
 49
-2.9500000000000002
 74
0
  0
LTYPE
  5
42
100
AcDbSymbolTableRecord
100
AcDbLinetypeTableRecord
  2
ACAD_ISO07W100
 70
0
  3
ISO dot . . . . . . . . . . . . . . . . . . . . 
 72
65
 73
2
 40
3.0
 49
0.1
 74
0
 49
-2.8999999999999999
 74
0
  0
LTYPE
  5
43
100
AcDbSymbolTableRecord
100
AcDbLinetypeTableRecord
  2
ACAD_ISO06W100
 70
0
  3
ISO long-dash triple-dot ____ ... ____ ... ____
 72
65
 73
8
 40
36.000000000000007
 49
24.0
 74
0
 49
-2.9500000000000002
 74
0
 49
0.1
 74
0
 49
-2.9000000000000004
 74
0
 49
0.1
 74
0
 49
-2.9000000000000004
 74
0
 49
0.1
 74
0
 49
-2.9500000000000002
 74
0
  0
LTYPE
  5
44
100
AcDbSymbolTableRecord
100
AcDbLinetypeTableRecord
  2
CENTER
 70
0
  3
Center ____ _ ____ _ ____ _ ____ _ ____ _ ____
 72
65
 73
4
 40
50.800000000000004
 49
31.75
 74
0
 49
-6.3499999999999996
 74
0
 49
6.3499999999999996
 74
0
 49
-6.3499999999999996
 74
0
  0
LTYPE
  5
45
100
AcDbSymbolTableRecord
100
AcDbLinetypeTableRecord
  2
HIDDEN
 70
0
  3
Hidden __ __ __ __ __ __ __ __ __ __ __ __ __ __
 72
65
 73
2
 40
9.5249999999999986
 49
6.3499999999999996
 74
0
 49
-3.1749999999999998
 74
0
  0
LTYPE
  5
46
100
AcDbSymbolTableRecord
100
AcDbLinetypeTableRecord
  2
DOTX2
 70
0
  3
Dot (2x) .  .  .  .  .  .  .  .  .  .  .  .  .  .
 72
65
 73
2
 40
12.699999999999999
 49
0.1
 74
0
 49
-12.6
 74
0
  0
LTYPE
  5
47
100
AcDbSymbolTableRecord
100
AcDbLinetypeTableRecord
  2
PHANTOM
 70
0
  3
Phantom ______  __  __  ______  __  __  ______ 
 72
65
 73
6
 40
63.500000000000007
 49
31.75
 74
0
 49
-6.3499999999999996
 74
0
 49
6.3499999999999996
 74
0
 49
-6.3499999999999996
 74
0
 49
6.3499999999999996
 74
0
 49
-6.3499999999999996
 74
0
  0
LTYPE
  5
48
100
AcDbSymbolTableRecord
100
AcDbLinetypeTableRecord
  2
ACAD_ISO08W100
 70
0
  3
ISO long-dash short-dash ____ __ ____ __ ____ _
 72
65
 73
4
 40
36.0
 49
24.0
 74
0
 49
-3.0
 74
0
 49
6.0
 74
0
 49
-3.0
 74
0
  0
LTYPE
  5
49
100
AcDbSymbolTableRecord
100
AcDbLinetypeTableRecord
  2
DASHEDX2
 70
0
  3
Dashed (2x) ____  ____  ____  ____  ____  ___
 72
65
 73
2
 40
38.099999999999994
 49
25.399999999999999
 74
0
 49
-12.699999999999999
 74
0
  0
LTYPE
  5
4A
100
AcDbSymbolTableRecord
100
AcDbLinetypeTableRecord
  2
DRAINAGE
 70
0
  3
Drainage ---->---->---->----
 72
65
 73
2
 40
10.16
 49
5.0800000000000001
 74
0
 49
5.0800000000000001
 74
0
  0
LTYPE
  5
4B
100
AcDbSymbolTableRecord
100
AcDbLinetypeTableRecord
  2
ACAD_ISO02W100
 70
0
  3
ISO dash __ __ __ __ __ __ __ __ __ __ __ __ __
 72
65
 73
2
 40
15.0
 49
12.0
 74
0
 49
-3.0
 74
0
  0
LTYPE
  5
4C
100
AcDbSymbolTableRecord
100
AcDbLinetypeTableRecord
  2
PHANTOM2
 70
0
  3
Phantom (.5x) ___ _ _ ___ _ _ ___ _ _ ___ _ _
 72
65
 73
6
 40
31.750000000000004
 49
15.875
 74
0
 49
-3.1749999999999998
 74
0
 49
3.1749999999999998
 74
0
 49
-3.1749999999999998
 74
0
 49
3.1749999999999998
 74
0
 49
-3.1749999999999998
 74
0
  0
LTYPE
  5
4D
100
AcDbSymbolTableRecord
100
AcDbLinetypeTableRecord
  2
DASHED2
 70
0
  3
Dashed (.5x) _ _ _ _ _ _ _ _ _ _ _ _ _ _ _ _ _ 
 72
65
 73
2
 40
9.5249999999999986
 49
6.3499999999999996
 74
0
 49
-3.1749999999999998
 74
0
  0
LTYPE
  5
4E
100
AcDbSymbolTableRecord
100
AcDbLinetypeTableRecord
  2
ACAD_ISO09W100
 70
0
  3
ISO long-dash double-short-dash ____ __ __ ____
 72
65
 73
6
 40
45.0
 49
24.0
 74
0
 49
-3.0
 74
0
 49
6.0
 74
0
 49
-3.0
 74
0
 49
6.0
 74
0
 49
-3.0
 74
0
  0
LTYPE
  5
4F
100
AcDbSymbolTableRecord
100
AcDbLinetypeTableRecord
  2
ACAD_ISO13W100
 70
0
  3
ISO double-dash double-dot __ __ . . __ __ . . _
 72
65
 73
8
 40
36.000000000000007
 49
12.0
 74
0
 49
-3.0
 74
0
 49
12.0
 74
0
 49
-2.9500000000000002
 74
0
 49
0.1
 74
0
 49
-2.9000000000000004
 74
0
 49
0.1
 74
0
 49
-2.9500000000000002
 74
0
  0
LTYPE
  5
50
100
AcDbSymbolTableRecord
100
AcDbLinetypeTableRecord
  2
TRACKS
 70
0
  3
Tracks -|-|-|-|-|-|-|-|-|-|-|-|-|-|-|-|-|-|-|-|-|-|-|-|-
 72
65
 73
2
 40
7.6200000000000001
 49
3.8100000000000001
 74
0
 49
3.8100000000000001
 74
0
  0
LTYPE
  5
51
100
AcDbSymbolTableRecord
100
AcDbLinetypeTableRecord
  2
DRAINAGE2
 70
0
  3
Drainage reversed----<----<----<----
 72
65
 73
2
 40
10.16
 49
5.0800000000000001
 74
0
 49
5.0800000000000001
 74
0
  0
LTYPE
  5
52
100
AcDbSymbolTableRecord
100
AcDbLinetypeTableRecord
  2
DOT2
 70
0
  3
Dot (.5x) ........................................
 72
65
 73
2
 40
3.1749999999999998
 49
0.1
 74
0
 49
-3.0749999999999997
 74
0
  0
LTYPE
  5
53
100
AcDbSymbolTableRecord
100
AcDbLinetypeTableRecord
  2
ZIGZAG
 70
0
  3
Zig zag /\/\/\/\/\/\/\/\/\/\/\/\/\/\/\/\/\/\/\/\/\/\/\/
 72
65
 73
4
 40
20.32254
 49
0.00254
 74
0
 49
-5.0800000000000001
 74
0
 49
-10.16
 74
0
 49
-5.0800000000000001
 74
0
  0
LTYPE
  5
54
100
AcDbSymbolTableRecord
100
AcDbLinetypeTableRecord
  2
DASHED
 70
0
  3
Dashed __ __ __ __ __ __ __ __ __ __ __ __ __ _
 72
65
 73
2
 40
19.049999999999997
 49
12.699999999999999
 74
0
 49
-6.3499999999999996
 74
0
  0
LTYPE
  5
55
100
AcDbSymbolTableRecord
100
AcDbLinetypeTableRecord
  2
ACAD_ISO14W100
 70
0
  3
ISO dash triple-dot __ . . . __ . . . __ . . . _
 72
65
 73
8
 40
24.000000000000004
 49
12.0
 74
0
 49
-2.9500000000000002
 74
0
 49
0.1
 74
0
 49
-2.9000000000000004
 74
0
 49
0.1
 74
0
 49
-2.9000000000000004
 74
0
 49
0.1
 74
0
 49
-2.9500000000000002
 74
0
  0
LTYPE
  5
15
100
AcDbSymbolTableRecord
100
AcDbLinetypeTableRecord
  2
BYLAYER
 70
0
  3

 72
65
 73
0
 40
0.0
  0
LTYPE
  5
56
100
AcDbSymbolTableRecord
100
AcDbLinetypeTableRecord
  2
PHANTOMX2
 70
0
  3
Phantom (2x) ____________    ____    ____   _
 72
65
 73
6
 40
127.00000000000001
 49
63.5
 74
0
 49
-12.699999999999999
 74
0
 49
12.699999999999999
 74
0
 49
-12.699999999999999
 74
0
 49
12.699999999999999
 74
0
 49
-12.699999999999999
 74
0
  0
LTYPE
  5
14
100
AcDbSymbolTableRecord
100
AcDbLinetypeTableRecord
  2
BYBLOCK
 70
0
  3

 72
65
 73
0
 40
0.0
  0
LTYPE
  5
57
100
AcDbSymbolTableRecord
100
AcDbLinetypeTableRecord
  2
DIVIDEX2
 70
0
  3
Divide (2x) ________  .  .  ________  .  .  _
 72
65
 73
6
 40
63.5
 49
25.399999999999999
 74
0
 49
-12.649999999999999
 74
0
 49
0.1
 74
0
 49
-12.599999999999998
 74
0
 49
0.1
 74
0
 49
-12.649999999999999
 74
0
  0
LTYPE
  5
58
100
AcDbSymbolTableRecord
100
AcDbLinetypeTableRecord
  2
BORDER
 70
0
  3
Border __ __ . __ __ . __ __ . __ __ . __ __ .
 72
65
 73
6
 40
44.449999999999996
 49
12.699999999999999
 74
0
 49
-6.3499999999999996
 74
0
 49
12.699999999999999
 74
0
 49
-6.2999999999999998
 74
0
 49
0.1
 74
0
 49
-6.2999999999999998
 74
0
  0
LTYPE
  5
59
100
AcDbSymbolTableRecord
100
AcDbLinetypeTableRecord
  2
DIVIDE2
 70
0
  3
Divide (.5x) __..__..__..__..__..__..__..__.._
 72
65
 73
6
 40
15.874999999999998
 49
6.3499999999999996
 74
0
 49
-3.125
 74
0
 49
0.1
 74
0
 49
-3.0750000000000002
 74
0
 49
0.1
 74
0
 49
-3.125
 74
0
  0
LTYPE
  5
5A
100
AcDbSymbolTableRecord
100
AcDbLinetypeTableRecord
  2
DOT
 70
0
  3
Dot . . . . . . . . . . . . . . . . . . . . . . . .
 72
65
 73
2
 40
6.3499999999999996
 49
0.1
 74
0
 49
-6.25
 74
0
  0
LTYPE
  5
5B
100
AcDbSymbolTableRecord
100
AcDbLinetypeTableRecord
  2
DASHDOT
 70
0
  3
Dash dot __ . __ . __ . __ . __ . __ . __ . __
 72
65
 73
4
 40
25.400000000000002
 49
12.699999999999999
 74
0
 49
-6.2999999999999998
 74
0
 49
0.1
 74
0
 49
-6.2999999999999998
 74
0
  0
LTYPE
  5
5C
100
AcDbSymbolTableRecord
100
AcDbLinetypeTableRecord
  2
FENCELINE1
 70
0
  3
Fenceline circle ----0-----0----0-----0----0-----0--
 72
65
 73
4
 40
36.829999999999998
 49
6.3499999999999996
 74
0
 49
-2.54
 74
0
 49
-2.54
 74
0
 49
25.399999999999999
 74
0
  0
LTYPE
  5
5D
100
AcDbSymbolTableRecord
100
AcDbLinetypeTableRecord
  2
BATTING
 70
0
  3
Batting SSSSSSSSSSSSSSSSSSSSSSSSSSSSSSSSSSSSSSSSSSSSSSS
 72
65
 73
4
 40
10.16254
 49
0.00254
 74
0
 49
-2.54
 74
0
 49
-5.0800000000000001
 74
0
 49
-2.54
 74
0
  0
LTYPE
  5
5E
100
AcDbSymbolTableRecord
100
AcDbLinetypeTableRecord
  2
ACAD_ISO03W100
 70
0
  3
ISO dash space __    __    __    __    __    __
 72
65
 73
2
 40
30.0
 49
12.0
 74
0
 49
-18.0
 74
0
  0
LTYPE
  5
5F
100
AcDbSymbolTableRecord
100
AcDbLinetypeTableRecord
  2
FENCELINE2
 70
0
  3
Fenceline square ----[]-----[]----[]-----[]----[]---
 72
65
 73
4
 40
36.829999999999998
 49
6.3499999999999996
 74
0
 49
-2.54
 74
0
 49
-2.54
 74
0
 49
25.399999999999999
 74
0
  0
ENDTAB
  0
TABLE
  2
LAYER
  5
2
100
AcDbSymbolTable
 70
3
  0
LAYER
  5
60
100
AcDbSymbolTableRecord
100
AcDbLayerTableRecord
  2
mesa de trabajo y auxiliares
 70
1
 62
-7
420
16777215
  6
Continuous
370
-3
390
F
  0
LAYER
  5
61
100
AcDbSymbolTableRecord
100
AcDbLayerTableRecord
  2
Corte exterior
 70
0
 62
1
420
16711680
  6
Continuous
370
-3
390
F
  0
LAYER
  5
10
100
AcDbSymbolTableRecord
100
AcDbLayerTableRecord
  2
0
 70
0
 62
7
420
16777215
  6
Continuous
370
25
390
F
  0
ENDTAB
  0
TABLE
  2
STYLE
  5
3
100
AcDbSymbolTable
 70
1
  0
STYLE
  5
62
100
AcDbSymbolTableRecord
100
AcDbTextStyleTableRecord
  2
Standard
 70
0
 40
0.0
 41
1.0
 50
0.0
 71
0
 42
2.5
  3

  4

1001
ACAD
1000
txt
1071
0
  0
ENDTAB
  0
TABLE
  2
VIEW
  5
6
100
AcDbSymbolTable
 70
0
  0
ENDTAB
  0
TABLE
  2
UCS
  5
7
100
AcDbSymbolTable
 70
0
  0
ENDTAB
  0
TABLE
  2
APPID
  5
9
100
AcDbSymbolTable
 70
1
  0
APPID
  5
12
100
AcDbSymbolTableRecord
100
AcDbRegAppTableRecord
  2
ACAD
 70
0
  0
APPID
  5
63
100
AcDbSymbolTableRecord
100
AcDbRegAppTableRecord
  2
QCAD
 70
0
  0
ENDTAB
  0
TABLE
  2
DIMSTYLE
  5
A
100
AcDbSymbolTable
 70
1
100
AcDbDimStyleTable
 71
0
  0
DIMSTYLE
105
27
100
AcDbSymbolTableRecord
100
AcDbDimStyleTableRecord
  2
Standard
 41
2.5
 42
0.625
 43
3.75
 44
1.25
 70
0
 73
0
 74
0
 77
1
 78
8
140
2.5
141
2.5
143
0.03937007874016
147
0.625
171
3
172
1
271
2
272
2
274
3
278
44
283
0
284
8
340
62
  0
ENDTAB
  0
TABLE
  2
BLOCK_RECORD
  5
1
100
AcDbSymbolTable
 70
1
  0
BLOCK_RECORD
  5
1F
100
AcDbSymbolTableRecord
100
AcDbBlockTableRecord
  2
*Model_Space
340
22
  0
BLOCK_RECORD
  5
1B
100
AcDbSymbolTableRecord
100
AcDbBlockTableRecord
  2
*Paper_Space
340
1E
  0
BLOCK_RECORD
  5
23
100
AcDbSymbolTableRecord
100
AcDbBlockTableRecord
  2
*Paper_Space0
340
26
  0
ENDTAB
  0
ENDSEC
  0
SECTION
  2
BLOCKS
  0
BLOCK
  5
20
100
AcDbEntity
  8
0
100
AcDbBlockBegin
  2
*Model_Space
 70
0
 10
0.0
 20
0.0
 30
0.0
  3
*Model_Space
  1

  0
ENDBLK
  5
21
100
AcDbEntity
  8
0
100
AcDbBlockEnd
  0
BLOCK
  5
1C
100
AcDbEntity
 67
1
  8
0
100
AcDbBlockBegin
  2
*Paper_Space
 70
0
 10
0.0
 20
0.0
 30
0.0
  3
*Paper_Space
  1

  0
ENDBLK
  5
1D
100
AcDbEntity
 67
1
  8
0
100
AcDbBlockEnd
  0
BLOCK
  5
24
100
AcDbEntity
  8
0
100
AcDbBlockBegin
  2
*Paper_Space0
 70
0
 10
0.0
 20
0.0
 30
0.0
  3
*Paper_Space0
  1

  0
ENDBLK
  5
25
100
AcDbEntity
  8
0
100
AcDbBlockEnd
  0
ENDSEC
  0
SECTION
  2
ENTITIES
  0
LINE
  5
64
100
AcDbEntity
100
AcDbLine
  8
mesa de trabajo y auxiliares
 62
256
370
-1
 48
1.0
  6
BYLAYER
 10
16.061041407997777
 20
3.5406535680000637
 30
0.0
 11
34.361041407997789
 21
3.5406535680000069
 31
0.0
  0
LINE
  5
65
100
AcDbEntity
100
AcDbLine
  8
mesa de trabajo y auxiliares
 62
256
370
-1
 48
1.0
  6
BYLAYER
 10
16.061041407997791
 20
13.290653568000039
 30
0.0
 11
16.061041407997777
 21
3.5406535680000637
 31
0.0
  0
LINE
  5
66
100
AcDbEntity
100
AcDbLine
  8
mesa de trabajo y auxiliares
 62
256
370
-1
 48
1.0
  6
BYLAYER
 10
-0.6389585920022114
 20
13.290653568000039
 30
0.0
 11
16.061041407997791
 21
13.290653568000039
 31
0.0
  0
LINE
  5
67
100
AcDbEntity
100
AcDbLine
  8
mesa de trabajo y auxiliares
 62
256
370
-1
 48
1.0
  6
BYLAYER
 10
-0.6389585920022114
 20
25.790653568000025
 30
0.0
 11
-0.6389585920022114
 21
13.290653568000039
 31
0.0
  0
LINE
  5
68
100
AcDbEntity
100
AcDbLine
  8
mesa de trabajo y auxiliares
 62
256
370
-1
 48
1.0
  6
BYLAYER
 10
16.061041407997763
 20
25.790653567999975
 30
0.0
 11
-0.6389585920022114
 21
25.790653568000025
 31
0.0
  0
LINE
  5
69
100
AcDbEntity
100
AcDbLine
  8
mesa de trabajo y auxiliares
 62
256
370
-1
 48
1.0
  6
BYLAYER
 10
16.061041407997777
 20
35.54065356800001
 30
0.0
 11
16.061041407997763
 21
25.790653567999975
 31
0.0
  0
LINE
  5
6A
100
AcDbEntity
100
AcDbLine
  8
mesa de trabajo y auxiliares
 62
256
370
-1
 48
1.0
  6
BYLAYER
 10
34.361041407997789
 20
35.540653568000018
 30
0.0
 11
16.061041407997777
 21
35.54065356800001
 31
0.0
  0
LINE
  5
6B
100
AcDbEntity
100
AcDbLine
  8
Corte exterior
 62
256
370
-1
 48
1.0
  6
BYLAYER
 10
34.361041407997789
 20
35.540653568000018
 30
0.0
 11
34.361041407997789
 21
20.040653568000046
 31
0.0
  0
LINE
  5
6C
100
AcDbEntity
100
AcDbLine
  8
Corte exterior
 62
256
370
-1
 48
1.0
  6
BYLAYER
 10
66.36104140799776
 20
35.540653568000018
 30
0.0
 11
34.361041407997789
 21
35.540653568000018
 31
0.0
  0
LINE
  5
6D
100
AcDbEntity
100
AcDbLine
  8
Corte exterior
 62
256
370
-1
 48
1.0
  6
BYLAYER
 10
66.36104140799776
 20
3.5406535679999998
 30
0.0
 11
66.36104140799776
 21
35.540653568000018
 31
0.0
  0
LINE
  5
6E
100
AcDbEntity
100
AcDbLine
  8
Corte exterior
 62
256
370
-1
 48
1.0
  6
BYLAYER
 10
34.361041407997789
 20
3.5406535680000069
 30
0.0
 11
66.36104140799776
 21
3.5406535679999998
 31
0.0
  0
LINE
  5
6F
100
AcDbEntity
100
AcDbLine
  8
Corte exterior
 62
256
370
-1
 48
1.0
  6
BYLAYER
 10
34.361041407997789
 20
20.040653568000046
 30
0.0
 11
34.361041407997789
 21
3.5406535680000069
 31
0.0
  0
LINE
  5
70
100
AcDbEntity
100
AcDbLine
  8
mesa de trabajo y auxiliares
 62
256
370
-1
 48
1.0
  6
BYLAYER
 10
-94.238785545921985
 20
26.789992394617087
 30
0.0
 11
-94.238785545921985
 21
14.289992394617101
 31
0.0
  0
LINE
  5
71
100
AcDbEntity
100
AcDbLine
  8
mesa de trabajo y auxiliares
 62
256
370
-1
 48
1.0
  6
BYLAYER
 10
-5.4864922381892427
 20
9.7909699823354046
 30
0.0
 11
-2.7864922381892683
 21
9.7909699823354401
 31
0.0
  0
LINE
  5
72
100
AcDbEntity
100
AcDbLine
  8
mesa de trabajo y auxiliares
 62
256
370
-1
 48
1.0
  6
BYLAYER
 10
-5.4864922381892285
 20
-6.9090300176645592
 30
0.0
 11
-5.4864922381892427
 21
9.7909699823354046
 31
0.0
  0
LINE
  5
73
100
AcDbEntity
100
AcDbLine
  8
mesa de trabajo y auxiliares
 62
256
370
-1
 48
1.0
  6
BYLAYER
 10
-15.486492238189214
 20
-6.9090300176645734
 30
0.0
 11
-5.4864922381892285
 21
-6.9090300176645592
 31
0.0
  0
LINE
  5
74
100
AcDbEntity
100
AcDbLine
  8
mesa de trabajo y auxiliares
 62
256
370
-1
 48
1.0
  6
BYLAYER
 10
-15.486492238189228
 20
9.7909699823354259
 30
0.0
 11
-15.486492238189214
 21
-6.9090300176645734
 31
0.0
  0
LINE
  5
75
100
AcDbEntity
100
AcDbLine
  8
mesa de trabajo y auxiliares
 62
256
370
-1
 48
1.0
  6
BYLAYER
 10
-18.186492238189217
 20
9.790969982335433
 30
0.0
 11
-15.486492238189228
 21
9.7909699823354259
 31
0.0
  0
LINE
  5
76
100
AcDbEntity
100
AcDbLine
  8
Corte exterior
 62
256
370
-1
 48
1.0
  6
BYLAYER
 10
-29.638958592002311
 20
-8.6229577996575131
 30
0.0
 11
5.3610414079976465
 21
-8.6229577996575202
 31
0.0
  0
LINE
  5
77
100
AcDbEntity
100
AcDbLine
  8
mesa de trabajo y auxiliares
 62
256
370
-1
 48
1.0
  6
BYLAYER
 10
-18.186492238189203
 20
29.29096998233544
 30
0.0
 11
-18.186492238189217
 21
9.790969982335433
 31
0.0
  0
ARC
  5
78
100
AcDbEntity
  8
Corte exterior
 62
256
370
-1
 48
1.0
  6
BYLAYER
100
AcDbCircle
 10
-28.29852442860772
 20
27.944042943605218
 30
0.0
 40
36.591560599463008
100
AcDbArc
 50
228.30289961767988
 51
267.90065232672987
  0
ARC
  5
79
100
AcDbEntity
  8
Corte exterior
 62
256
370
-1
 48
1.0
  6
BYLAYER
100
AcDbCircle
 10
-38.280518977646267
 20
-116.53575346480649
 30
0.0
 40
118.03448757321689
100
AcDbArc
 50
92.601964343225362
 51
96.987115433562366
  0
ARC
  5
7A
100
AcDbEntity
  8
Corte exterior
 62
256
370
-1
 48
1.0
  6
BYLAYER
100
AcDbCircle
 10
-43.638958592002211
 20
2.3770422003424443
 30
0.0
 40
0.9999999999999254
100
AcDbArc
 50
270.0
 51
0.0000000000024427
  0
LINE
  5
7B
100
AcDbEntity
100
AcDbLine
  8
Corte exterior
 62
256
370
-1
 48
1.0
  6
BYLAYER
 10
-42.650090900076378
 20
36.704897764328706
 30
0.0
 11
-42.638958592002297
 21
2.377042200342494
 31
0.0
  0
ARC
  5
7C
100
AcDbEntity
  8
Corte exterior
 62
256
370
-1
 48
1.0
  6
BYLAYER
100
AcDbCircle
 10
-43.650090900076407
 20
36.704897764328734
 30
0.0
 40
0.9999999999999929
100
AcDbArc
 50
0.0
 51
90.0
  0
ARC
  5
7D
100
AcDbEntity
  8
Corte exterior
 62
256
370
-1
 48
1.0
  6
BYLAYER
100
AcDbCircle
 10
-14.81665356771849
 20
156.55664023908633
 30
0.0
 40
122.2992387453214
100
AcDbArc
 50
251.98533876423488
 51
256.36349222622124
  0
ARC
  5
7E
100
AcDbEntity
  8
Corte exterior
 62
256
370
-1
 48
1.0
  6
BYLAYER
100
AcDbCircle
 10
-30.789738840550811
 20
12.034101380694615
 30
0.0
 40
35.688721793001797
100
AcDbArc
 50
88.152181439282685
 51
127.74993414833243
  0
LINE
  5
7F
100
AcDbEntity
100
AcDbLine
  8
mesa de trabajo y auxiliares
 62
256
370
-1
 48
1.0
  6
BYLAYER
 10
-2.7864922381892683
 20
29.290969982335383
 30
0.0
 11
-18.186492238189203
 21
29.29096998233544
 31
0.0
  0
LINE
  5
80
100
AcDbEntity
100
AcDbLine
  8
Corte exterior
 62
256
370
-1
 48
1.0
  6
BYLAYER
 10
4.7903723784166061
 20
29.338873836769167
 30
0.0
 11
2.7903723784166345
 21
29.338873836769167
 31
0.0
  0
ARC
  5
81
100
AcDbEntity
  8
Corte exterior
 62
256
370
-1
 48
1.0
  6
BYLAYER
100
AcDbCircle
 10
4.7903723784166061
 20
28.338873836769181
 30
0.0
 40
1.0000000000000002
100
AcDbArc
 50
0.0
 51
90.0
  0
LINE
  5
82
100
AcDbEntity
100
AcDbLine
  8
Corte exterior
 62
256
370
-1
 48
1.0
  6
BYLAYER
 10
5.7903723784166061
 20
10.338873836769181
 30
0.0
 11
5.7903723784166061
 21
28.338873836769181
 31
0.0
  0
ARC
  5
83
100
AcDbEntity
  8
Corte exterior
 62
256
370
-1
 48
1.0
  6
BYLAYER
100
AcDbCircle
 10
4.7903723784166061
 20
10.338873836769181
 30
0.0
 40
1.0000000000000002
100
AcDbArc
 50
270.0
 51
0.0
  0
LINE
  5
84
100
AcDbEntity
100
AcDbLine
  8
Corte exterior
 62
256
370
-1
 48
1.0
  6
BYLAYER
 10
2.7903723784166203
 20
9.3388738367691815
 30
0.0
 11
4.7903723784166061
 21
9.3388738367691815
 31
0.0
  0
ARC
  5
85
100
AcDbEntity
  8
Corte exterior
 62
256
370
-1
 48
1.0
  6
BYLAYER
100
AcDbCircle
 10
2.7903723784166203
 20
10.338873836769181
 30
0.0
 40
1.0000000000000036
100
AcDbArc
 50
180.0
 51
270.0
  0
LINE
  5
86
100
AcDbEntity
100
AcDbLine
  8
Corte exterior
 62
256
370
-1
 48
1.0
  6
BYLAYER
 10
1.7903723784166061
 20
28.338873836769181
 30
0.0
 11
1.7903723784166203
 21
10.338873836769181
 31
0.0
  0
ARC
  5
87
100
AcDbEntity
  8
Corte exterior
 62
256
370
-1
 48
1.0
  6
BYLAYER
100
AcDbCircle
 10
2.7903723784166061
 20
28.338873836769167
 30
0.0
 40
1.0000000000000107
100
AcDbArc
 50
90.0
 51
179.99999999999918
  0
LINE
  5
88
100
AcDbEntity
100
AcDbLine
  8
mesa de trabajo y auxiliares
 62
256
370
-1
 48
1.0
  6
BYLAYER
 10
-2.7864922381892683
 20
9.7909699823354401
 30
0.0
 11
-2.7864922381892683
 21
29.290969982335383
 31
0.0
  0
LINE
  5
89
100
AcDbEntity
100
AcDbLine
  8
mesa de trabajo y auxiliares
 62
256
370
-1
 48
1.0
  6
BYLAYER
 10
-44.087538581762118
 20
14.540969982335426
 30
0.0
 11
-39.587538581762118
 21
14.540969982335419
 31
0.0
  0
LINE
  5
8A
100
AcDbEntity
100
AcDbLine
  8
mesa de trabajo y auxiliares
 62
256
370
-1
 48
1.0
  6
BYLAYER
 10
-99.086319192109016
 20
10.790308808952467
 30
0.0
 11
-96.386319192109042
 21
10.790308808952503
 31
0.0
  0
ARC
  5
8B
100
AcDbEntity
  8
Corte exterior
 62
256
370
-1
 48
1.0
  6
BYLAYER
100
AcDbCircle
 10
4.4692355955520782
 20
40.55125524824858
 30
0.0
 40
7.2083885297120176
100
AcDbArc
 50
35.17920205244063
 51
82.893284883412235
  0
LINE
  5
8C
100
AcDbEntity
100
AcDbLine
  8
Corte exterior
 62
256
370
-1
 48
1.0
  6
BYLAYER
 10
10.361041407997675
 20
33.704264935657918
 30
0.0
 11
10.361041407997689
 21
44.704264935657918
 31
0.0
  0
ARC
  5
8D
100
AcDbEntity
  8
Corte exterior
 62
256
370
-1
 48
1.0
  6
BYLAYER
100
AcDbCircle
 10
11.361041407997675
 20
33.704264935657932
 30
0.0
 40
0.9999999999999966
100
AcDbArc
 50
180.00000000000165
 51
270.0
  0
LINE
  5
8E
100
AcDbEntity
100
AcDbLine
  8
Corte exterior
 62
256
370
-1
 48
1.0
  6
BYLAYER
 10
-29.638958592002467
 20
47.704264935657932
 30
0.0
 11
5.3610414079975897
 21
47.704264935657932
 31
0.0
  0
LINE
  5
8F
100
AcDbEntity
100
AcDbLine
  8
mesa de trabajo y auxiliares
 62
256
370
-1
 48
1.0
  6
BYLAYER
 10
-44.087538581762146
 20
24.540969982335405
 30
0.0
 11
-44.087538581762118
 21
14.540969982335426
 31
0.0
  0
ARC
  5
90
100
AcDbEntity
  8
Corte exterior
 62
256
370
-1
 48
1.0
  6
BYLAYER
100
AcDbCircle
 10
11.361041407997675
 20
5.3770422003424869
 30
0.0
 40
1.0000000000000002
100
AcDbArc
 50
90.0
 51
180.0
  0
LINE
  5
91
100
AcDbEntity
100
AcDbLine
  8
Corte exterior
 62
256
370
-1
 48
1.0
  6
BYLAYER
 10
10.361041407997661
 20
-5.6229577996575202
 30
0.0
 11
10.361041407997661
 21
5.3770422003424727
 31
0.0
  0
LINE
  5
92
100
AcDbEntity
100
AcDbLine
  8
mesa de trabajo y auxiliares
 62
256
370
-1
 48
1.0
  6
BYLAYER
 10
-99.086319192109002
 20
-5.9096911910474965
 30
0.0
 11
-99.086319192109016
 21
10.790308808952467
 31
0.0
  0
ARC
  5
93
100
AcDbEntity
  8
Corte exterior
 62
256
370
-1
 48
1.0
  6
BYLAYER
100
AcDbCircle
 10
4.4692355955520497
 20
-1.469948112248133
 30
0.0
 40
7.2083885297120514
100
AcDbArc
 50
277.10671511658785
 51
324.82079794755919
  0
LINE
  5
94
100
AcDbEntity
100
AcDbLine
  8
mesa de trabajo y auxiliares
 62
256
370
-1
 48
1.0
  6
BYLAYER
 10
-39.58753858176209
 20
24.540969982335454
 30
0.0
 11
-44.087538581762146
 21
24.540969982335405
 31
0.0
  0
LINE
  5
95
100
AcDbEntity
100
AcDbLine
  8
mesa de trabajo y auxiliares
 62
256
370
-1
 48
1.0
  6
BYLAYER
 10
-109.08631919210899
 20
-5.9096911910475107
 30
0.0
 11
-99.086319192109002
 21
-5.9096911910474965
 31
0.0
  0
LINE
  5
96
100
AcDbEntity
100
AcDbLine
  8
mesa de trabajo y auxiliares
 62
256
370
-1
 48
1.0
  6
BYLAYER
 10
-39.58753858176209
 20
42.040969982335454
 30
0.0
 11
-39.58753858176209
 21
24.540969982335454
 31
0.0
  0
LINE
  5
97
100
AcDbEntity
100
AcDbLine
  8
mesa de trabajo y auxiliares
 62
256
370
-1
 48
1.0
  6
BYLAYER
 10
-109.086319192109
 20
10.790308808952489
 30
0.0
 11
-109.08631919210899
 21
-5.9096911910475107
 31
0.0
  0
LINE
  5
98
100
AcDbEntity
100
AcDbLine
  8
mesa de trabajo y auxiliares
 62
256
370
-1
 48
1.0
  6
BYLAYER
 10
-19.587538581762132
 20
42.040969982335426
 30
0.0
 11
-39.58753858176209
 21
42.040969982335454
 31
0.0
  0
LINE
  5
99
100
AcDbEntity
100
AcDbLine
  8
mesa de trabajo y auxiliares
 62
256
370
-1
 48
1.0
  6
BYLAYER
 10
-111.78631919210899
 20
10.790308808952496
 30
0.0
 11
-109.086319192109
 21
10.790308808952489
 31
0.0
  0
LINE
  5
9A
100
AcDbEntity
100
AcDbLine
  8
mesa de trabajo y auxiliares
 62
256
370
-1
 48
1.0
  6
BYLAYER
 10
-19.587538581762132
 20
-2.9590300176645741
 30
0.0
 11
-19.587538581762132
 21
42.040969982335426
 31
0.0
  0
LINE
  5
9B
100
AcDbEntity
100
AcDbLine
  8
mesa de trabajo y auxiliares
 62
256
370
-1
 48
1.0
  6
BYLAYER
 10
-111.78631919210898
 20
30.290308808952503
 30
0.0
 11
-111.78631919210899
 21
10.790308808952496
 31
0.0
  0
LINE
  5
9C
100
AcDbEntity
100
AcDbLine
  8
mesa de trabajo y auxiliares
 62
256
370
-1
 48
1.0
  6
BYLAYER
 10
-39.587538581762118
 20
-2.9590300176646025
 30
0.0
 11
-19.587538581762132
 21
-2.9590300176645741
 31
0.0
  0
LINE
  5
9D
100
AcDbEntity
100
AcDbLine
  8
mesa de trabajo y auxiliares
 62
256
370
-1
 48
1.0
  6
BYLAYER
 10
-96.386319192109042
 20
30.290308808952446
 30
0.0
 11
-111.78631919210898
 21
30.290308808952503
 31
0.0
  0
LINE
  5
9E
100
AcDbEntity
100
AcDbLine
  8
mesa de trabajo y auxiliares
 62
256
370
-1
 48
1.0
  6
BYLAYER
 10
-39.587538581762118
 20
14.540969982335419
 30
0.0
 11
-39.587538581762118
 21
-2.9590300176646025
 31
0.0
  0
LINE
  5
9F
100
AcDbEntity
100
AcDbLine
  8
mesa de trabajo y auxiliares
 62
256
370
-1
 48
1.0
  6
BYLAYER
 10
-96.386319192109042
 20
10.790308808952503
 30
0.0
 11
-96.386319192109042
 21
30.290308808952446
 31
0.0
  0
LINE
  5
A0
100
AcDbEntity
100
AcDbLine
  8
mesa de trabajo y auxiliares
 62
256
370
-1
 48
1.0
  6
BYLAYER
 10
-137.68736553568189
 20
15.540308808952489
 30
0.0
 11
-133.18736553568189
 21
15.540308808952481
 31
0.0
  0
LINE
  5
A1
100
AcDbEntity
100
AcDbLine
  8
Corte exterior
 62
256
370
-1
 48
1.0
  6
BYLAYER
 10
38.295238995103645
 20
-13.613518735179289
 30
0.0
 11
70.582767323139834
 21
-13.622957799657691
 31
0.0
  0
LINE
  5
A2
100
AcDbEntity
100
AcDbLine
  8
mesa de trabajo y auxiliares
 62
256
370
-1
 48
1.0
  6
BYLAYER
 10
-137.68736553568192
 20
25.540308808952467
 30
0.0
 11
-137.68736553568189
 21
15.540308808952489
 31
0.0
  0
ARC
  5
A3
100
AcDbEntity
  8
Corte exterior
 62
256
370
-1
 48
1.0
  6
BYLAYER
100
AcDbCircle
 10
70.361041407997732
 20
51.704264935657761
 30
0.0
 40
0.9999999999999928
100
AcDbArc
 50
360.0
 51
89.999999999998366
  0
LINE
  5
A4
100
AcDbEntity
100
AcDbLine
  8
mesa de trabajo y auxiliares
 62
256
370
-1
 48
1.0
  6
BYLAYER
 10
-133.18736553568186
 20
25.540308808952517
 30
0.0
 11
-137.68736553568192
 21
25.540308808952467
 31
0.0
  0
LINE
  5
A5
100
AcDbEntity
100
AcDbLine
  8
Corte exterior
 62
256
370
-1
 48
1.0
  6
BYLAYER
 10
71.361041407997774
 20
43.704264935657747
 30
0.0
 11
71.361041407997732
 21
51.704264935657747
 31
0.0
  0
LINE
  5
A6
100
AcDbEntity
100
AcDbLine
  8
mesa de trabajo y auxiliares
 62
256
370
-1
 48
1.0
  6
BYLAYER
 10
-133.18736553568186
 20
43.040308808952517
 30
0.0
 11
-133.18736553568186
 21
25.540308808952517
 31
0.0
  0
ARC
  5
A7
100
AcDbEntity
  8
Corte exterior
 62
256
370
-1
 48
1.0
  6
BYLAYER
100
AcDbCircle
 10
72.36104140799776
 20
43.704264935657747
 30
0.0
 40
0.9999999999999895
100
AcDbArc
 50
180.0
 51
269.9999999999992
  0
LINE
  5
A8
100
AcDbEntity
100
AcDbLine
  8
mesa de trabajo y auxiliares
 62
256
370
-1
 48
1.0
  6
BYLAYER
 10
-113.18736553568191
 20
43.040308808952489
 30
0.0
 11
-133.18736553568186
 21
43.040308808952517
 31
0.0
  0
LINE
  5
A9
100
AcDbEntity
100
AcDbLine
  8
Corte exterior
 62
256
370
-1
 48
1.0
  6
BYLAYER
 10
94.361041407997874
 20
42.704264935657761
 30
0.0
 11
72.361041407997746
 21
42.704264935657761
 31
0.0
  0
LINE
  5
AA
100
AcDbEntity
100
AcDbLine
  8
mesa de trabajo y auxiliares
 62
256
370
-1
 48
1.0
  6
BYLAYER
 10
-113.18736553568191
 20
-1.9596911910475114
 30
0.0
 11
-113.18736553568191
 21
43.040308808952489
 31
0.0
  0
ARC
  5
AB
100
AcDbEntity
  8
Corte exterior
 62
256
370
-1
 48
1.0
  6
BYLAYER
100
AcDbCircle
 10
94.361041407997732
 20
41.704264935657903
 30
0.0
 40
0.999999999999865
100
AcDbArc
 50
360.0
 51
89.999999999991857
  0
LINE
  5
AC
100
AcDbEntity
100
AcDbLine
  8
mesa de trabajo y auxiliares
 62
256
370
-1
 48
1.0
  6
BYLAYER
 10
-133.18736553568189
 20
-1.9596911910475399
 30
0.0
 11
-113.18736553568191
 21
-1.9596911910475114
 31
0.0
  0
LINE
  5
AD
100
AcDbEntity
100
AcDbLine
  8
Corte exterior
 62
256
370
-1
 48
1.0
  6
BYLAYER
 10
95.361041407997618
 20
31.540653568000003
 30
0.0
 11
95.36104140799759
 21
41.704264935657733
 31
0.0
  0
LINE
  5
AE
100
AcDbEntity
100
AcDbLine
  8
mesa de trabajo y auxiliares
 62
256
370
-1
 48
1.0
  6
BYLAYER
 10
-133.18736553568189
 20
15.540308808952481
 30
0.0
 11
-133.18736553568189
 21
-1.9596911910475399
 31
0.0
  0
LINE
  5
AF
100
AcDbEntity
100
AcDbLine
  8
Corte exterior
 62
256
370
-1
 48
1.0
  6
BYLAYER
 10
91.36104140799776
 20
31.540653568000003
 30
0.0
 11
95.361041407997618
 21
31.540653568000003
 31
0.0
  0
LINE
  5
B0
100
AcDbEntity
100
AcDbLine
  8
Corte exterior
 62
256
370
-1
 48
1.0
  6
BYLAYER
 10
91.361041407997817
 20
28.54065356800001
 30
0.0
 11
91.36104140799776
 21
31.540653568000003
 31
0.0
  0
LINE
  5
B1
100
AcDbEntity
100
AcDbLine
  8
Corte exterior
 62
256
370
-1
 48
1.0
  6
BYLAYER
 10
95.361041407997732
 20
28.54065356800001
 30
0.0
 11
91.361041407997817
 21
28.54065356800001
 31
0.0
  0
LINE
  5
B2
100
AcDbEntity
100
AcDbLine
  8
Corte exterior
 62
256
370
-1
 48
1.0
  6
BYLAYER
 10
95.361041407997703
 20
25.540653567999989
 30
0.0
 11
95.361041407997732
 21
28.54065356800001
 31
0.0
  0
ARC
  5
B3
100
AcDbEntity
  8
Corte exterior
 62
256
370
-1
 48
1.0
  6
BYLAYER
100
AcDbCircle
 10
94.361041407997732
 20
25.540653567999968
 30
0.0
 40
0.9999999999999859
100
AcDbArc
 50
270.0
 51
0.0
  0
LINE
  5
B4
100
AcDbEntity
100
AcDbLine
  8
Corte exterior
 62
256
370
-1
 48
1.0
  6
BYLAYER
 10
72.361041407997718
 20
24.540653567999982
 30
0.0
 11
94.361041407997732
 21
24.540653567999982
 31
0.0
  0
ARC
  5
B5
100
AcDbEntity
  8
Corte exterior
 62
256
370
-1
 48
1.0
  6
BYLAYER
100
AcDbCircle
 10
72.361041407997718
 20
23.54065356800001
 30
0.0
 40
0.9999999999999713
100
AcDbArc
 50
90.0
 51
180.0
  0
LINE
  5
B6
100
AcDbEntity
100
AcDbLine
  8
Corte exterior
 62
256
370
-1
 48
1.0
  6
BYLAYER
 10
71.361041407997746
 20
15.540653568000025
 30
0.0
 11
71.36104140799776
 21
23.54065356800001
 31
0.0
  0
ARC
  5
B7
100
AcDbEntity
  8
Corte exterior
 62
256
370
-1
 48
1.0
  6
BYLAYER
100
AcDbCircle
 10
72.36104140799776
 20
15.540653568000032
 30
0.0
 40
1.0000000000000036
100
AcDbArc
 50
180.0
 51
270.0
  0
LINE
  5
B8
100
AcDbEntity
100
AcDbLine
  8
Corte exterior
 62
256
370
-1
 48
1.0
  6
BYLAYER
 10
94.361041407997732
 20
14.540653568000032
 30
0.0
 11
72.36104140799776
 21
14.540653568000032
 31
0.0
  0
ARC
  5
B9
100
AcDbEntity
  8
Corte exterior
 62
256
370
-1
 48
1.0
  6
BYLAYER
100
AcDbCircle
 10
94.361041407997732
 20
13.540653568000046
 30
0.0
 40
0.9999999999999859
100
AcDbArc
 50
360.0
 51
90.0
  0
LINE
  5
BA
100
AcDbEntity
100
AcDbLine
  8
Corte exterior
 62
256
370
-1
 48
1.0
  6
BYLAYER
 10
95.361041407997732
 20
10.540653568000025
 30
0.0
 11
95.361041407997703
 21
13.540653568000025
 31
0.0
  0
LINE
  5
BB
100
AcDbEntity
100
AcDbLine
  8
Corte exterior
 62
256
370
-1
 48
1.0
  6
BYLAYER
 10
91.361041407997732
 20
10.540653568000025
 30
0.0
 11
95.361041407997732
 21
10.540653568000025
 31
0.0
  0
LINE
  5
BC
100
AcDbEntity
100
AcDbLine
  8
Corte exterior
 62
256
370
-1
 48
1.0
  6
BYLAYER
 10
91.361041407997732
 20
7.5406535680000246
 30
0.0
 11
91.361041407997732
 21
10.540653568000025
 31
0.0
  0
LINE
  5
BD
100
AcDbEntity
100
AcDbLine
  8
Corte exterior
 62
256
370
-1
 48
1.0
  6
BYLAYER
 10
95.361041407997789
 20
7.5406535680000246
 30
0.0
 11
91.361041407997732
 21
7.5406535680000246
 31
0.0
  0
LINE
  5
BE
100
AcDbEntity
100
AcDbLine
  8
Corte exterior
 62
256
370
-1
 48
1.0
  6
BYLAYER
 10
95.36104140799776
 20
-2.6229577996577191
 30
0.0
 11
95.361041407997789
 21
7.5406535680000246
 31
0.0
  0
ARC
  5
BF
100
AcDbEntity
  8
Corte exterior
 62
256
370
-1
 48
1.0
  6
BYLAYER
100
AcDbCircle
 10
94.36104140799776
 20
-2.6229577996577014
 30
0.0
 40
0.9999999999999948
100
AcDbArc
 50
270.0
 51
360.0
  0
LINE
  5
C0
100
AcDbEntity
100
AcDbLine
  8
Corte exterior
 62
256
370
-1
 48
1.0
  6
BYLAYER
 10
72.582767323139848
 20
-3.6229577996576907
 30
0.0
 11
94.36104140799776
 21
-3.6229577996576978
 31
0.0
  0
ARC
  5
C1
100
AcDbEntity
  8
Corte exterior
 62
256
370
-1
 48
1.0
  6
BYLAYER
100
AcDbCircle
 10
72.582767323139848
 20
-4.6229577996576978
 30
0.0
 40
1.0000000000000071
100
AcDbArc
 50
90.0
 51
180.0
  0
LINE
  5
C2
100
AcDbEntity
100
AcDbLine
  8
Corte exterior
 62
256
370
-1
 48
1.0
  6
BYLAYER
 10
71.582767323139834
 20
-12.622957799657691
 30
0.0
 11
71.582767323139848
 21
-4.6229577996576978
 31
0.0
  0
ARC
  5
C3
100
AcDbEntity
  8
Corte exterior
 62
256
370
-1
 48
1.0
  6
BYLAYER
100
AcDbCircle
 10
70.582767323139834
 20
-12.622957799657691
 30
0.0
 40
1.0
100
AcDbArc
 50
270.0
 51
0.0
  0
LINE
  5
C4
100
AcDbEntity
100
AcDbLine
  8
Corte exterior
 62
256
370
-1
 48
1.0
  6
BYLAYER
 10
16.361041407997774
 20
-13.622957799657669
 30
0.0
 11
38.295238995103645
 21
-13.613518735179289
 31
0.0
  0
LINE
  5
C5
100
AcDbEntity
100
AcDbLine
  8
Corte exterior
 62
256
370
-1
 48
1.0
  6
BYLAYER
 10
45.361041407997703
 20
52.704264935657775
 30
0.0
 11
70.361041407997732
 21
52.704264935657768
 31
0.0
  0
LINE
  5
C6
100
AcDbEntity
100
AcDbLine
  8
Corte exterior
 62
256
370
-1
 48
1.0
  6
BYLAYER
 10
16.361041407997771
 20
52.70426493565779
 30
0.0
 11
45.361041407997703
 21
52.704264935657775
 31
0.0
  0
LINE
  5
C7
100
AcDbEntity
100
AcDbLine
  8
Corte exterior
 62
256
370
-1
 48
1.0
  6
BYLAYER
 10
14.361041407997774
 20
32.704264935657768
 30
0.0
 11
11.36104140799776
 21
32.704264935657775
 31
0.0
  0
ARC
  5
C8
100
AcDbEntity
  8
Corte exterior
 62
256
370
-1
 48
1.0
  6
BYLAYER
100
AcDbCircle
 10
14.361041407997774
 20
33.704264935657747
 30
0.0
 40
0.9999999999999819
100
AcDbArc
 50
270.0
 51
360.0
  0
LINE
  5
C9
100
AcDbEntity
100
AcDbLine
  8
Corte exterior
 62
256
370
-1
 48
1.0
  6
BYLAYER
 10
15.36104140799776
 20
51.704264935657775
 30
0.0
 11
15.36104140799776
 21
33.704264935657733
 31
0.0
  0
ARC
  5
CA
100
AcDbEntity
  8
Corte exterior
 62
256
370
-1
 48
1.0
  6
BYLAYER
100
AcDbCircle
 10
16.361041407997774
 20
51.704264935657775
 30
0.0
 40
1.0000000000000142
100
AcDbArc
 50
90.000000000000824
 51
180.0
  0
ARC
  5
CB
100
AcDbEntity
  8
Corte exterior
 62
256
370
-1
 48
1.0
  6
BYLAYER
100
AcDbCircle
 10
16.361041407997732
 20
-12.622957799657687
 30
0.0
 40
0.9999999999999822
100
AcDbArc
 50
180.0
 51
270.00000000000244
  0
LINE
  5
CC
100
AcDbEntity
100
AcDbLine
  8
Corte exterior
 62
256
370
-1
 48
1.0
  6
BYLAYER
 10
15.361041407997746
 20
5.3770422003422809
 30
0.0
 11
15.361041407997746
 21
-12.622957799657687
 31
0.0
  0
ARC
  5
CD
100
AcDbEntity
  8
Corte exterior
 62
256
370
-1
 48
1.0
  6
BYLAYER
100
AcDbCircle
 10
14.361041407997746
 20
5.377042200342288
 30
0.0
 40
1.0000000000000036
100
AcDbArc
 50
360.0
 51
90.0
  0
LINE
  5
CE
100
AcDbEntity
100
AcDbLine
  8
Corte exterior
 62
256
370
-1
 48
1.0
  6
BYLAYER
 10
11.36104140799776
 20
6.3770422003423164
 30
0.0
 11
14.361041407997746
 21
6.377042200342288
 31
0.0
  0
LINE
  5
CF
100
AcDbEntity
100
AcDbLine
  8
mesa de trabajo y auxiliares
 62
256
370
-1
 48
1.0
  6
BYLAYER
 10
38.561041407997777
 20
-13.622957799657691
 30
0.0
 11
38.561041407997777
 21
3.5406535680000069
 31
0.0
  0
LINE
  5
D0
100
AcDbEntity
100
AcDbLine
  8
mesa de trabajo y auxiliares
 62
256
370
-1
 48
1.0
  6
BYLAYER
 10
38.561041407997777
 20
52.704264935657775
 30
0.0
 11
38.561041407997777
 21
35.540653568000018
 31
0.0
  0
ARC
  5
D1
100
AcDbEntity
  8
Corte exterior
 62
256
370
-1
 48
1.0
  6
BYLAYER
100
AcDbCircle
 10
11.36104140799776
 20
33.704264935657775
 30
0.0
 40
1.0000000000000036
100
AcDbArc
 50
180.0
 51
270.0
  0
ARC
  5
D2
100
AcDbEntity
  8
Corte exterior
 62
256
370
-1
 48
1.0
  6
BYLAYER
100
AcDbCircle
 10
11.361041407997746
 20
5.3770422003423022
 30
0.0
 40
1.0000000000000142
100
AcDbArc
 50
89.99999999999919
 51
180.0
  0
CIRCLE
  5
D3
100
AcDbEntity
100
AcDbCircle
  8
Corte exterior
 62
256
370
-1
 48
1.0
  6
BYLAYER
 10
-29.58753858176209
 20
32.540969982335582
 30
0.0
 40
7.9999999999999005
  0
CIRCLE
  5
D4
100
AcDbEntity
100
AcDbCircle
  8
Corte exterior
 62
256
370
-1
 48
1.0
  6
BYLAYER
 10
-10.486492238189172
 20
19.540969982335596
 30
0.0
 40
5.999999999999825
  0
CIRCLE
  5
D5
100
AcDbEntity
100
AcDbCircle
  8
Corte exterior
 62
256
370
-1
 48
1.0
  6
BYLAYER
 10
-29.58753858176209
 20
6.5409699823355893
 30
0.0
 40
7.9999999999999041
  0
ENDSEC
  0
SECTION
  2
OBJECTS
  0
DICTIONARY
  5
C
100
AcDbDictionary
280
0
281
1
  3
ACAD_GROUP
350
D
  3
ACAD_LAYOUT
350
1A
  3
ACAD_MLINESTYLE
350
17
  3
ACAD_PLOTSETTINGS
350
19
  3
ACAD_PLOTSTYLENAME
350
E
  3
AcDbVariableDictionary
350
D6
  3
QCAD_OBJECTS
350
D7
  0
DICTIONARY
  5
D
100
AcDbDictionary
280
0
281
1
  0
ACDBDICTIONARYWDFLT
  5
E
100
AcDbDictionary
281
1
  3
Normal
350
F
100
AcDbDictionaryWithDefault
340
F
  0
ACDBPLACEHOLDER
  5
F
  0
DICTIONARY
  5
17
100
AcDbDictionary
280
0
281
1
  3
Standard
350
18
  0
MLINESTYLE
  5
18
100
AcDbMlineStyle
  2
STANDARD
 70
0
  3

 62
256
 51
90.0
 52
90.0
 71
2
 49
0.5
 62
256
  6
BYLAYER
 49
-0.5
 62
256
  6
BYLAYER
  0
DICTIONARY
  5
19
100
AcDbDictionary
280
0
281
1
  0
DICTIONARY
  5
1A
100
AcDbDictionary
281
1
  3
Layout1
350
1E
  3
Layout2
350
26
  3
Model
350
22
  0
LAYOUT
  5
1E
100
AcDbPlotSettings
  1

  2
none_device
  4

  6

 40
0.0
 41
0.0
 42
0.0
 43
0.0
 44
0.0
 45
0.0
 46
0.0
 47
0.0
 48
0.0
 49
0.0
140
0.0
141
0.0
142
1.0
143
1.0
 70
688
 72
0
 73
0
 74
5
  7

 75
16
147
1.0
148
0.0
149
0.0
100
AcDbLayout
  1
Layout1
 70
1
 71
1
 10
0.0
 20
0.0
 11
420.0
 21
297.0
 12
0.0
 22
0.0
 32
0.0
 14
100000000000000000000.0
 24
100000000000000000000.0
 34
100000000000000000000.0
 15
-100000000000000000000.0
 25
-100000000000000000000.0
 35
-100000000000000000000.0
146
0.0
 13
0.0
 23
0.0
 33
0.0
 16
1.0
 26
0.0
 36
0.0
 17
0.0
 27
1.0
 37
0.0
 76
0
330
1B
  0
LAYOUT
  5
22
100
AcDbPlotSettings
  1

  2
none_device
  4

  6

 40
0.0
 41
0.0
 42
0.0
 43
0.0
 44
0.0
 45
0.0
 46
0.0
 47
0.0
 48
0.0
 49
0.0
140
0.0
141
0.0
142
1.0
143
1.0
 70
1712
 72
0
 73
0
 74
0
  7

 75
0
147
1.0
148
0.0
149
0.0
100
AcDbLayout
  1
Model
 70
1
 71
0
 10
0.0
 20
0.0
 11
12.0
 21
9.0
 12
0.0
 22
0.0
 32
0.0
 14
0.0
 24
0.0
 34
0.0
 15
0.0
 25
0.0
 35
0.0
146
0.0
 13
0.0
 23
0.0
 33
0.0
 16
1.0
 26
0.0
 36
0.0
 17
0.0
 27
1.0
 37
0.0
 76
0
330
1F
  0
LAYOUT
  5
26
100
AcDbPlotSettings
  1

  2
none_device
  4

  6

 40
0.0
 41
0.0
 42
0.0
 43
0.0
 44
0.0
 45
0.0
 46
0.0
 47
0.0
 48
0.0
 49
0.0
140
0.0
141
0.0
142
1.0
143
1.0
 70
688
 72
0
 73
0
 74
5
  7

 75
16
147
1.0
148
0.0
149
0.0
100
AcDbLayout
  1
Layout2
 70
1
 71
2
 10
0.0
 20
0.0
 11
12.0
 21
9.0
 12
0.0
 22
0.0
 32
0.0
 14
0.0
 24
0.0
 34
0.0
 15
0.0
 25
0.0
 35
0.0
146
0.0
 13
0.0
 23
0.0
 33
0.0
 16
1.0
 26
0.0
 36
0.0
 17
0.0
 27
1.0
 37
0.0
 76
0
330
23
  0
DICTIONARY
  5
D6
100
AcDbDictionary
281
1
  3
DIMASSOC
350
D9
  3
HIDETEXT
350
D8
  0
DICTIONARYVAR
  5
D8
100
DictionaryVariables
280
0
  1
2
  0
DICTIONARYVAR
  5
D9
100
DictionaryVariables
280
0
  1
1
  0
DICTIONARY
  5
D7
100
AcDbDictionary
281
1
  3
ColorSettings/BackgroundColor
350
DA
  3
ColorSettings/ColorMode
350
DB
  3
Grid/DisplayGrid00
350
DC
  3
Grid/DisplayGrid01
350
DD
  3
Grid/DisplayGrid02
350
DE
  3
Grid/DisplayGrid03
350
DF
  3
Grid/GridSpacingX00
350
E0
  3
Grid/GridSpacingX01
350
E1
  3
Grid/GridSpacingX02
350
E2
  3
Grid/GridSpacingX03
350
E3
  3
Grid/GridSpacingY00
350
E4
  3
Grid/GridSpacingY01
350
E5
  3
Grid/GridSpacingY02
350
E6
  3
Grid/GridSpacingY03
350
E7
  3
Grid/IsometricGrid00
350
E8
  3
Grid/IsometricGrid01
350
E9
  3
Grid/IsometricGrid02
350
EA
  3
Grid/IsometricGrid03
350
EB
  3
Grid/IsometricProjection00
350
EC
  3
Grid/IsometricProjection01
350
ED
  3
Grid/IsometricProjection02
350
EE
  3
Grid/IsometricProjection03
350
EF
  3
Grid/MetaGridSpacingX00
350
F0
  3
Grid/MetaGridSpacingX01
350
F1
  3
Grid/MetaGridSpacingX02
350
F2
  3
Grid/MetaGridSpacingX03
350
F3
  3
Grid/MetaGridSpacingY00
350
F4
  3
Grid/MetaGridSpacingY01
350
F5
  3
Grid/MetaGridSpacingY02
350
F6
  3
Grid/MetaGridSpacingY03
350
F7
  3
MultiPageSettings/Columns
350
F8
  3
MultiPageSettings/GlueMarginsBottom
350
F9
  3
MultiPageSettings/GlueMarginsLeft
350
FA
  3
MultiPageSettings/GlueMarginsRight
350
FB
  3
MultiPageSettings/GlueMarginsTop
350
FC
  3
MultiPageSettings/PrintCropMarks
350
FD
  3
MultiPageSettings/Rows
350
FE
  3
PageSettings/OffsetX
350
FF
  3
PageSettings/OffsetY
350
100
  3
PageSettings/PageOrientation
350
101
  3
PageSettings/PaperHeight
350
102
  3
PageSettings/PaperWidth
350
103
  3
PageSettings/Scale
350
104
  3
PageSettings/ShowPaperBorders
350
105
  3
QCADVersion
350
106
  3
UnitSettings/PaperUnit
350
107
  3
ViewportCenter
350
108
  3
ViewportHeight
350
109
  3
ViewportWidth
350
10A
  0
XRECORD
  5
DA
330
D7
100
AcDbXrecord
280
1
1000
White
  0
XRECORD
  5
DB
330
D7
100
AcDbXrecord
280
1
1000
FullColor
  0
XRECORD
  5
DC
330
D7
100
AcDbXrecord
280
1
290
1
  0
XRECORD
  5
DD
330
D7
100
AcDbXrecord
280
1
290
1
  0
XRECORD
  5
DE
330
D7
100
AcDbXrecord
280
1
290
1
  0
XRECORD
  5
DF
330
D7
100
AcDbXrecord
280
1
290
1
  0
XRECORD
  5
E0
330
D7
100
AcDbXrecord
280
1
1000
auto
  0
XRECORD
  5
E1
330
D7
100
AcDbXrecord
280
1
1000
auto
  0
XRECORD
  5
E2
330
D7
100
AcDbXrecord
280
1
1000
auto
  0
XRECORD
  5
E3
330
D7
100
AcDbXrecord
280
1
1000
auto
  0
XRECORD
  5
E4
330
D7
100
AcDbXrecord
280
1
1000
auto
  0
XRECORD
  5
E5
330
D7
100
AcDbXrecord
280
1
1000
auto
  0
XRECORD
  5
E6
330
D7
100
AcDbXrecord
280
1
1000
auto
  0
XRECORD
  5
E7
330
D7
100
AcDbXrecord
280
1
1000
auto
  0
XRECORD
  5
E8
330
D7
100
AcDbXrecord
280
1
290
0
  0
XRECORD
  5
E9
330
D7
100
AcDbXrecord
280
1
290
0
  0
XRECORD
  5
EA
330
D7
100
AcDbXrecord
280
1
290
0
  0
XRECORD
  5
EB
330
D7
100
AcDbXrecord
280
1
290
0
  0
XRECORD
  5
EC
330
D7
100
AcDbXrecord
280
1
 90
0
  0
XRECORD
  5
ED
330
D7
100
AcDbXrecord
280
1
 90
0
  0
XRECORD
  5
EE
330
D7
100
AcDbXrecord
280
1
 90
0
  0
XRECORD
  5
EF
330
D7
100
AcDbXrecord
280
1
 90
0
  0
XRECORD
  5
F0
330
D7
100
AcDbXrecord
280
1
1000
auto
  0
XRECORD
  5
F1
330
D7
100
AcDbXrecord
280
1
1000
auto
  0
XRECORD
  5
F2
330
D7
100
AcDbXrecord
280
1
1000
auto
  0
XRECORD
  5
F3
330
D7
100
AcDbXrecord
280
1
1000
auto
  0
XRECORD
  5
F4
330
D7
100
AcDbXrecord
280
1
1000
auto
  0
XRECORD
  5
F5
330
D7
100
AcDbXrecord
280
1
1000
auto
  0
XRECORD
  5
F6
330
D7
100
AcDbXrecord
280
1
1000
auto
  0
XRECORD
  5
F7
330
D7
100
AcDbXrecord
280
1
1000
auto
  0
XRECORD
  5
F8
330
D7
100
AcDbXrecord
280
1
 90
1
  0
XRECORD
  5
F9
330
D7
100
AcDbXrecord
280
1
 40
10.0
  0
XRECORD
  5
FA
330
D7
100
AcDbXrecord
280
1
 40
10.0
  0
XRECORD
  5
FB
330
D7
100
AcDbXrecord
280
1
 40
10.0
  0
XRECORD
  5
FC
330
D7
100
AcDbXrecord
280
1
 40
10.0
  0
XRECORD
  5
FD
330
D7
100
AcDbXrecord
280
1
290
0
  0
XRECORD
  5
FE
330
D7
100
AcDbXrecord
280
1
 90
1
  0
XRECORD
  5
FF
330
D7
100
AcDbXrecord
280
1
 40
0.0
  0
XRECORD
  5
100
330
D7
100
AcDbXrecord
280
1
 40
0.0
  0
XRECORD
  5
101
330
D7
100
AcDbXrecord
280
1
1000
Portrait
  0
XRECORD
  5
102
330
D7
100
AcDbXrecord
280
1
 40
279.39999999999998
  0
XRECORD
  5
103
330
D7
100
AcDbXrecord
280
1
 40
215.90000000000001
  0
XRECORD
  5
104
330
D7
100
AcDbXrecord
280
1
1000
1:1
  0
XRECORD
  5
105
330
D7
100
AcDbXrecord
280
1
290
1
  0
XRECORD
  5
106
330
D7
100
AcDbXrecord
280
1
1000
3.15.2
  0
XRECORD
  5
107
330
D7
100
AcDbXrecord
280
1
 90
4
  0
XRECORD
  5
109
330
D7
100
AcDbXrecord
280
1
 40
188.3545631926639
  0
XRECORD
  5
10A
330
D7
100
AcDbXrecord
280
1
 40
401.41900720020698
  0
ENDSEC
  0
EOF
