solid teeth
   facet normal 1.038601e-01 -9.945919e-01 0.000000e+00
      outer loop
         vertex 4.568348e+01 3.011365e+01 1.000000e-01
         vertex 4.568348e+01 3.011365e+01 0.000000e+00
         vertex 4.613945e+01 3.016126e+01 0.000000e+00
      endloop
   endfacet
   facet normal 1.038601e-01 -9.945919e-01 0.000000e+00
      outer loop
         vertex 4.568348e+01 3.011365e+01 1.000000e-01
         vertex 4.613945e+01 3.016126e+01 0.000000e+00
         vertex 4.613945e+01 3.016126e+01 1.000000e-01
      endloop
   endfacet
   facet normal 9.583059e-02 -9.953977e-01 0.000000e+00
      outer loop
         vertex 4.613945e+01 3.016126e+01 1.000000e-01
         vertex 4.613945e+01 3.016126e+01 0.000000e+00
         vertex 4.659622e+01 3.020524e+01 -1.355253e-17
      endloop
   endfacet
   facet normal 9.583059e-02 -9.953977e-01 0.000000e+00
      outer loop
         vertex 4.613945e+01 3.016126e+01 1.000000e-01
         vertex 4.659622e+01 3.020524e+01 -1.355253e-17
         vertex 4.659622e+01 3.020524e+01 1.000000e-01
      endloop
   endfacet
   facet normal 8.779768e-02 -9.961383e-01 0.000000e+00
      outer loop
         vertex 4.659622e+01 3.020524e+01 1.000000e-01
         vertex 4.659622e+01 3.020524e+01 -1.355253e-17
         vertex 4.705361e+01 3.024555e+01 1.355253e-17
      endloop
   endfacet
   facet normal 8.779768e-02 -9.961383e-01 0.000000e+00
      outer loop
         vertex 4.659622e+01 3.020524e+01 1.000000e-01
         vertex 4.705361e+01 3.024555e+01 1.355253e-17
         vertex 4.705361e+01 3.024555e+01 1.000000e-01
      endloop
   endfacet
   facet normal 7.976682e-02 -9.968136e-01 0.000000e+00
      outer loop
         vertex 4.705361e+01 3.024555e+01 1.000000e-01
         vertex 4.705361e+01 3.024555e+01 1.355253e-17
         vertex 4.751156e+01 3.028220e+01 -1.355253e-17
      endloop
   endfacet
   facet normal 7.976682e-02 -9.968136e-01 0.000000e+00
      outer loop
         vertex 4.705361e+01 3.024555e+01 1.000000e-01
         vertex 4.751156e+01 3.028220e+01 -1.355253e-17
         vertex 4.751156e+01 3.028220e+01 1.000000e-01
      endloop
   endfacet
   facet normal 7.173202e-02 -9.974239e-01 0.000000e+00
      outer loop
         vertex 4.751156e+01 3.028220e+01 1.000000e-01
         vertex 4.751156e+01 3.028220e+01 -1.355253e-17
         vertex 4.797001e+01 3.031517e+01 0.000000e+00
      endloop
   endfacet
   facet normal 7.173202e-02 -9.974239e-01 0.000000e+00
      outer loop
         vertex 4.751156e+01 3.028220e+01 1.000000e-01
         vertex 4.797001e+01 3.031517e+01 0.000000e+00
         vertex 4.797001e+01 3.031517e+01 1.000000e-01
      endloop
   endfacet
   facet normal 6.370067e-02 -9.979690e-01 0.000000e+00
      outer loop
         vertex 4.797001e+01 3.031517e+01 1.000000e-01
         vertex 4.797001e+01 3.031517e+01 0.000000e+00
         vertex 4.842891e+01 3.034446e+01 1.355253e-17
      endloop
   endfacet
   facet normal 6.370067e-02 -9.979690e-01 0.000000e+00
      outer loop
         vertex 4.797001e+01 3.031517e+01 1.000000e-01
         vertex 4.842891e+01 3.034446e+01 1.355253e-17
         vertex 4.842891e+01 3.034446e+01 1.000000e-01
      endloop
   endfacet
   facet normal 5.566333e-02 -9.984496e-01 0.000000e+00
      outer loop
         vertex 4.842891e+01 3.034446e+01 1.000000e-01
         vertex 4.842891e+01 3.034446e+01 1.355253e-17
         vertex 4.888821e+01 3.037007e+01 -1.355253e-17
      endloop
   endfacet
   facet normal 5.566333e-02 -9.984496e-01 0.000000e+00
      outer loop
         vertex 4.842891e+01 3.034446e+01 1.000000e-01
         vertex 4.888821e+01 3.037007e+01 -1.355253e-17
         vertex 4.888821e+01 3.037007e+01 1.000000e-01
      endloop
   endfacet
   facet normal 4.762996e-02 -9.988650e-01 0.000000e+00
      outer loop
         vertex 4.888821e+01 3.037007e+01 1.000000e-01
         vertex 4.888821e+01 3.037007e+01 -1.355253e-17
         vertex 4.934786e+01 3.039198e+01 0.000000e+00
      endloop
   endfacet
   facet normal 4.762996e-02 -9.988650e-01 0.000000e+00
      outer loop
         vertex 4.888821e+01 3.037007e+01 1.000000e-01
         vertex 4.934786e+01 3.039198e+01 0.000000e+00
         vertex 4.934786e+01 3.039198e+01 1.000000e-01
      endloop
   endfacet
   facet normal 3.959246e-02 -9.992159e-01 0.000000e+00
      outer loop
         vertex 4.934786e+01 3.039198e+01 1.000000e-01
         vertex 4.934786e+01 3.039198e+01 0.000000e+00
         vertex 4.980779e+01 3.041021e+01 -1.355253e-17
      endloop
   endfacet
   facet normal 3.959246e-02 -9.992159e-01 0.000000e+00
      outer loop
         vertex 4.934786e+01 3.039198e+01 1.000000e-01
         vertex 4.980779e+01 3.041021e+01 -1.355253e-17
         vertex 4.980779e+01 3.041021e+01 1.000000e-01
      endloop
   endfacet
   facet normal 3.156087e-02 -9.995018e-01 0.000000e+00
      outer loop
         vertex 4.980779e+01 3.041021e+01 1.000000e-01
         vertex 4.980779e+01 3.041021e+01 -1.355253e-17
         vertex 5.026795e+01 3.042474e+01 -2.710505e-17
      endloop
   endfacet
   facet normal 3.156087e-02 -9.995018e-01 0.000000e+00
      outer loop
         vertex 4.980779e+01 3.041021e+01 1.000000e-01
         vertex 5.026795e+01 3.042474e+01 -2.710505e-17
         vertex 5.026795e+01 3.042474e+01 1.000000e-01
      endloop
   endfacet
   facet normal 2.352228e-02 -9.997233e-01 0.000000e+00
      outer loop
         vertex 5.026795e+01 3.042474e+01 1.000000e-01
         vertex 5.026795e+01 3.042474e+01 -2.710505e-17
         vertex 5.072829e+01 3.043557e+01 1.355253e-17
      endloop
   endfacet
   facet normal 2.352228e-02 -9.997233e-01 0.000000e+00
      outer loop
         vertex 5.026795e+01 3.042474e+01 1.000000e-01
         vertex 5.072829e+01 3.043557e+01 1.355253e-17
         vertex 5.072829e+01 3.043557e+01 1.000000e-01
      endloop
   endfacet
   facet normal 1.549092e-02 -9.998800e-01 0.000000e+00
      outer loop
         vertex 5.072829e+01 3.043557e+01 1.000000e-01
         vertex 5.072829e+01 3.043557e+01 1.355253e-17
         vertex 5.118876e+01 3.044270e+01 0.000000e+00
      endloop
   endfacet
   facet normal 1.549092e-02 -9.998800e-01 0.000000e+00
      outer loop
         vertex 5.072829e+01 3.043557e+01 1.000000e-01
         vertex 5.118876e+01 3.044270e+01 0.000000e+00
         vertex 5.118876e+01 3.044270e+01 1.000000e-01
      endloop
   endfacet
   facet normal 7.449743e-03 -9.999723e-01 0.000000e+00
      outer loop
         vertex 5.118876e+01 3.044270e+01 1.000000e-01
         vertex 5.118876e+01 3.044270e+01 0.000000e+00
         vertex 5.164930e+01 3.044613e+01 0.000000e+00
      endloop
   endfacet
   facet normal 7.449743e-03 -9.999723e-01 0.000000e+00
      outer loop
         vertex 5.118876e+01 3.044270e+01 1.000000e-01
         vertex 5.164930e+01 3.044613e+01 0.000000e+00
         vertex 5.164930e+01 3.044613e+01 1.000000e-01
      endloop
   endfacet
   facet normal -5.823922e-04 -9.999998e-01 -0.000000e+00
      outer loop
         vertex 5.164930e+01 3.044613e+01 1.000000e-01
         vertex 5.164930e+01 3.044613e+01 0.000000e+00
         vertex 5.210985e+01 3.044587e+01 0.000000e+00
      endloop
   endfacet
   facet normal -5.823922e-04 -9.999998e-01 0.000000e+00
      outer loop
         vertex 5.164930e+01 3.044613e+01 1.000000e-01
         vertex 5.210985e+01 3.044587e+01 0.000000e+00
         vertex 5.210985e+01 3.044587e+01 1.000000e-01
      endloop
   endfacet
   facet normal -8.618975e-03 -9.999629e-01 -0.000000e+00
      outer loop
         vertex 5.210985e+01 3.044587e+01 1.000000e-01
         vertex 5.210985e+01 3.044587e+01 0.000000e+00
         vertex 5.257037e+01 3.044190e+01 1.355253e-17
      endloop
   endfacet
   facet normal -8.618975e-03 -9.999629e-01 0.000000e+00
      outer loop
         vertex 5.210985e+01 3.044587e+01 1.000000e-01
         vertex 5.257037e+01 3.044190e+01 1.355253e-17
         vertex 5.257037e+01 3.044190e+01 1.000000e-01
      endloop
   endfacet
   facet normal -1.664966e-02 -9.998614e-01 -0.000000e+00
      outer loop
         vertex 5.257037e+01 3.044190e+01 1.000000e-01
         vertex 5.257037e+01 3.044190e+01 1.355253e-17
         vertex 5.303077e+01 3.043423e+01 -1.355253e-17
      endloop
   endfacet
   facet normal -1.664966e-02 -9.998614e-01 0.000000e+00
      outer loop
         vertex 5.257037e+01 3.044190e+01 1.000000e-01
         vertex 5.303077e+01 3.043423e+01 -1.355253e-17
         vertex 5.303077e+01 3.043423e+01 1.000000e-01
      endloop
   endfacet
   facet normal -2.468773e-02 -9.996952e-01 -0.000000e+00
      outer loop
         vertex 5.303077e+01 3.043423e+01 1.000000e-01
         vertex 5.303077e+01 3.043423e+01 -1.355253e-17
         vertex 5.349101e+01 3.042286e+01 0.000000e+00
      endloop
   endfacet
   facet normal -2.468773e-02 -9.996952e-01 0.000000e+00
      outer loop
         vertex 5.303077e+01 3.043423e+01 1.000000e-01
         vertex 5.349101e+01 3.042286e+01 0.000000e+00
         vertex 5.349101e+01 3.042286e+01 1.000000e-01
      endloop
   endfacet
   facet normal -3.272249e-02 -9.994645e-01 -0.000000e+00
      outer loop
         vertex 5.349101e+01 3.042286e+01 1.000000e-01
         vertex 5.349101e+01 3.042286e+01 0.000000e+00
         vertex 5.395104e+01 3.040780e+01 0.000000e+00
      endloop
   endfacet
   facet normal -3.272249e-02 -9.994645e-01 0.000000e+00
      outer loop
         vertex 5.349101e+01 3.042286e+01 1.000000e-01
         vertex 5.395104e+01 3.040780e+01 0.000000e+00
         vertex 5.395104e+01 3.040780e+01 1.000000e-01
      endloop
   endfacet
   facet normal -4.075532e-02 -9.991692e-01 -0.000000e+00
      outer loop
         vertex 5.395104e+01 3.040780e+01 1.000000e-01
         vertex 5.395104e+01 3.040780e+01 0.000000e+00
         vertex 5.441080e+01 3.038905e+01 0.000000e+00
      endloop
   endfacet
   facet normal -4.075532e-02 -9.991692e-01 0.000000e+00
      outer loop
         vertex 5.395104e+01 3.040780e+01 1.000000e-01
         vertex 5.441080e+01 3.038905e+01 0.000000e+00
         vertex 5.441080e+01 3.038905e+01 1.000000e-01
      endloop
   endfacet
   facet normal -4.878758e-02 -9.988092e-01 -0.000000e+00
      outer loop
         vertex 5.441080e+01 3.038905e+01 1.000000e-01
         vertex 5.441080e+01 3.038905e+01 0.000000e+00
         vertex 5.487023e+01 3.036661e+01 0.000000e+00
      endloop
   endfacet
   facet normal -4.878758e-02 -9.988092e-01 0.000000e+00
      outer loop
         vertex 5.441080e+01 3.038905e+01 1.000000e-01
         vertex 5.487023e+01 3.036661e+01 0.000000e+00
         vertex 5.487023e+01 3.036661e+01 1.000000e-01
      endloop
   endfacet
   facet normal -5.681975e-02 -9.983845e-01 -0.000000e+00
      outer loop
         vertex 5.487023e+01 3.036661e+01 1.000000e-01
         vertex 5.487023e+01 3.036661e+01 0.000000e+00
         vertex 5.532928e+01 3.034048e+01 0.000000e+00
      endloop
   endfacet
   facet normal -5.681975e-02 -9.983845e-01 0.000000e+00
      outer loop
         vertex 5.487023e+01 3.036661e+01 1.000000e-01
         vertex 5.532928e+01 3.034048e+01 0.000000e+00
         vertex 5.532928e+01 3.034048e+01 1.000000e-01
      endloop
   endfacet
   facet normal -6.484629e-02 -9.978953e-01 -0.000000e+00
      outer loop
         vertex 5.532928e+01 3.034048e+01 1.000000e-01
         vertex 5.532928e+01 3.034048e+01 0.000000e+00
         vertex 5.578790e+01 3.031068e+01 0.000000e+00
      endloop
   endfacet
   facet normal -6.484629e-02 -9.978953e-01 0.000000e+00
      outer loop
         vertex 5.532928e+01 3.034048e+01 1.000000e-01
         vertex 5.578790e+01 3.031068e+01 0.000000e+00
         vertex 5.578790e+01 3.031068e+01 1.000000e-01
      endloop
   endfacet
   facet normal -7.287972e-02 -9.973407e-01 -0.000000e+00
      outer loop
         vertex 5.578790e+01 3.031068e+01 1.000000e-01
         vertex 5.578790e+01 3.031068e+01 0.000000e+00
         vertex 5.624603e+01 3.027720e+01 -1.355253e-17
      endloop
   endfacet
   facet normal -7.287972e-02 -9.973407e-01 0.000000e+00
      outer loop
         vertex 5.578790e+01 3.031068e+01 1.000000e-01
         vertex 5.624603e+01 3.027720e+01 -1.355253e-17
         vertex 5.624603e+01 3.027720e+01 1.000000e-01
      endloop
   endfacet
   facet normal -8.090574e-02 -9.967218e-01 -0.000000e+00
      outer loop
         vertex 5.624603e+01 3.027720e+01 1.000000e-01
         vertex 5.624603e+01 3.027720e+01 -1.355253e-17
         vertex 5.670361e+01 3.024006e+01 1.355253e-17
      endloop
   endfacet
   facet normal -8.090574e-02 -9.967218e-01 0.000000e+00
      outer loop
         vertex 5.624603e+01 3.027720e+01 1.000000e-01
         vertex 5.670361e+01 3.024006e+01 1.355253e-17
         vertex 5.670361e+01 3.024006e+01 1.000000e-01
      endloop
   endfacet
   facet normal -8.893640e-02 -9.960373e-01 -0.000000e+00
      outer loop
         vertex 5.670361e+01 3.024006e+01 1.000000e-01
         vertex 5.670361e+01 3.024006e+01 1.355253e-17
         vertex 5.716060e+01 3.019926e+01 0.000000e+00
      endloop
   endfacet
   facet normal -8.893640e-02 -9.960373e-01 0.000000e+00
      outer loop
         vertex 5.670361e+01 3.024006e+01 1.000000e-01
         vertex 5.716060e+01 3.019926e+01 0.000000e+00
         vertex 5.716060e+01 3.019926e+01 1.000000e-01
      endloop
   endfacet
   facet normal -9.695971e-02 -9.952883e-01 -0.000000e+00
      outer loop
         vertex 5.716060e+01 3.019926e+01 1.000000e-01
         vertex 5.716060e+01 3.019926e+01 0.000000e+00
         vertex 5.761694e+01 3.015480e+01 -1.355253e-17
      endloop
   endfacet
   facet normal -9.695971e-02 -9.952883e-01 0.000000e+00
      outer loop
         vertex 5.716060e+01 3.019926e+01 1.000000e-01
         vertex 5.761694e+01 3.015480e+01 -1.355253e-17
         vertex 5.761694e+01 3.015480e+01 1.000000e-01
      endloop
   endfacet
   facet normal -1.049853e-01 -9.944738e-01 -0.000000e+00
      outer loop
         vertex 5.761694e+01 3.015480e+01 1.000000e-01
         vertex 5.761694e+01 3.015480e+01 -1.355253e-17
         vertex 5.807258e+01 3.010670e+01 1.355253e-17
      endloop
   endfacet
   facet normal -1.049853e-01 -9.944738e-01 0.000000e+00
      outer loop
         vertex 5.761694e+01 3.015480e+01 1.000000e-01
         vertex 5.807258e+01 3.010670e+01 1.355253e-17
         vertex 5.807258e+01 3.010670e+01 1.000000e-01
      endloop
   endfacet
   facet normal -1.102170e-01 -9.939075e-01 -0.000000e+00
      outer loop
         vertex 5.807258e+01 3.010670e+01 1.000000e-01
         vertex 5.807258e+01 3.010670e+01 1.355253e-17
         vertex 5.821181e+01 3.009126e+01 0.000000e+00
      endloop
   endfacet
   facet normal -1.102170e-01 -9.939075e-01 0.000000e+00
      outer loop
         vertex 5.807258e+01 3.010670e+01 1.000000e-01
         vertex 5.821181e+01 3.009126e+01 0.000000e+00
         vertex 5.821181e+01 3.009126e+01 1.000000e-01
      endloop
   endfacet
   facet normal 7.499297e-01 -6.615175e-01 0.000000e+00
      outer loop
         vertex 5.864040e+01 3.057714e+01 1.000000e-01
         vertex 5.821181e+01 3.009126e+01 1.000000e-01
         vertex 5.864040e+01 3.057714e+01 0.000000e+00
      endloop
   endfacet
   facet normal 7.499297e-01 -6.615175e-01 0.000000e+00
      outer loop
         vertex 5.864040e+01 3.057714e+01 0.000000e+00
         vertex 5.821181e+01 3.009126e+01 1.000000e-01
         vertex 5.821181e+01 3.009126e+01 0.000000e+00
      endloop
   endfacet
   facet normal 3.812761e-01 9.244612e-01 0.000000e+00
      outer loop
         vertex 5.864040e+01 3.057714e+01 1.000000e-01
         vertex 5.864040e+01 3.057714e+01 0.000000e+00
         vertex 5.841513e+01 3.067005e+01 -1.355253e-17
      endloop
   endfacet
   facet normal 3.812761e-01 9.244612e-01 0.000000e+00
      outer loop
         vertex 5.864040e+01 3.057714e+01 1.000000e-01
         vertex 5.841513e+01 3.067005e+01 -1.355253e-17
         vertex 5.841513e+01 3.067005e+01 1.000000e-01
      endloop
   endfacet
   facet normal 3.672143e-01 9.301364e-01 0.000000e+00
      outer loop
         vertex 5.841513e+01 3.067005e+01 1.000000e-01
         vertex 5.841513e+01 3.067005e+01 -1.355253e-17
         vertex 5.818712e+01 3.076006e+01 0.000000e+00
      endloop
   endfacet
   facet normal 3.672143e-01 9.301364e-01 0.000000e+00
      outer loop
         vertex 5.841513e+01 3.067005e+01 1.000000e-01
         vertex 5.818712e+01 3.076006e+01 0.000000e+00
         vertex 5.818712e+01 3.076006e+01 1.000000e-01
      endloop
   endfacet
   facet normal 3.531150e-01 9.355799e-01 0.000000e+00
      outer loop
         vertex 5.818712e+01 3.076006e+01 1.000000e-01
         vertex 5.818712e+01 3.076006e+01 0.000000e+00
         vertex 5.795688e+01 3.084696e+01 0.000000e+00
      endloop
   endfacet
   facet normal 3.531150e-01 9.355799e-01 0.000000e+00
      outer loop
         vertex 5.818712e+01 3.076006e+01 1.000000e-01
         vertex 5.795688e+01 3.084696e+01 0.000000e+00
         vertex 5.795688e+01 3.084696e+01 1.000000e-01
      endloop
   endfacet
   facet normal 3.389803e-01 9.407935e-01 0.000000e+00
      outer loop
         vertex 5.795688e+01 3.084696e+01 1.000000e-01
         vertex 5.795688e+01 3.084696e+01 0.000000e+00
         vertex 5.772447e+01 3.093070e+01 -1.355253e-17
      endloop
   endfacet
   facet normal 3.389803e-01 9.407935e-01 0.000000e+00
      outer loop
         vertex 5.795688e+01 3.084696e+01 1.000000e-01
         vertex 5.772447e+01 3.093070e+01 -1.355253e-17
         vertex 5.772447e+01 3.093070e+01 1.000000e-01
      endloop
   endfacet
   facet normal 3.248400e-01 9.457690e-01 0.000000e+00
      outer loop
         vertex 5.772447e+01 3.093070e+01 1.000000e-01
         vertex 5.772447e+01 3.093070e+01 -1.355253e-17
         vertex 5.748998e+01 3.101124e+01 0.000000e+00
      endloop
   endfacet
   facet normal 3.248400e-01 9.457690e-01 0.000000e+00
      outer loop
         vertex 5.772447e+01 3.093070e+01 1.000000e-01
         vertex 5.748998e+01 3.101124e+01 0.000000e+00
         vertex 5.748998e+01 3.101124e+01 1.000000e-01
      endloop
   endfacet
   facet normal 3.106728e-01 9.505169e-01 0.000000e+00
      outer loop
         vertex 5.748998e+01 3.101124e+01 1.000000e-01
         vertex 5.748998e+01 3.101124e+01 0.000000e+00
         vertex 5.725349e+01 3.108854e+01 -1.355253e-17
      endloop
   endfacet
   facet normal 3.106728e-01 9.505169e-01 0.000000e+00
      outer loop
         vertex 5.748998e+01 3.101124e+01 1.000000e-01
         vertex 5.725349e+01 3.108854e+01 -1.355253e-17
         vertex 5.725349e+01 3.108854e+01 1.000000e-01
      endloop
   endfacet
   facet normal 2.964809e-01 9.550388e-01 0.000000e+00
      outer loop
         vertex 5.725349e+01 3.108854e+01 1.000000e-01
         vertex 5.725349e+01 3.108854e+01 -1.355253e-17
         vertex 5.701506e+01 3.116256e+01 0.000000e+00
      endloop
   endfacet
   facet normal 2.964809e-01 9.550388e-01 0.000000e+00
      outer loop
         vertex 5.725349e+01 3.108854e+01 1.000000e-01
         vertex 5.701506e+01 3.116256e+01 0.000000e+00
         vertex 5.701506e+01 3.116256e+01 1.000000e-01
      endloop
   endfacet
   facet normal 2.822787e-01 9.593325e-01 0.000000e+00
      outer loop
         vertex 5.701506e+01 3.116256e+01 1.000000e-01
         vertex 5.701506e+01 3.116256e+01 0.000000e+00
         vertex 5.677478e+01 3.123326e+01 -1.355253e-17
      endloop
   endfacet
   facet normal 2.822787e-01 9.593325e-01 0.000000e+00
      outer loop
         vertex 5.701506e+01 3.116256e+01 1.000000e-01
         vertex 5.677478e+01 3.123326e+01 -1.355253e-17
         vertex 5.677478e+01 3.123326e+01 1.000000e-01
      endloop
   endfacet
   facet normal 2.680629e-01 9.634014e-01 0.000000e+00
      outer loop
         vertex 5.677478e+01 3.123326e+01 1.000000e-01
         vertex 5.677478e+01 3.123326e+01 -1.355253e-17
         vertex 5.653274e+01 3.130060e+01 -1.355253e-17
      endloop
   endfacet
   facet normal 2.680629e-01 9.634014e-01 0.000000e+00
      outer loop
         vertex 5.677478e+01 3.123326e+01 1.000000e-01
         vertex 5.653274e+01 3.130060e+01 -1.355253e-17
         vertex 5.653274e+01 3.130060e+01 1.000000e-01
      endloop
   endfacet
   facet normal 2.538245e-01 9.672503e-01 0.000000e+00
      outer loop
         vertex 5.653274e+01 3.130060e+01 1.000000e-01
         vertex 5.653274e+01 3.130060e+01 -1.355253e-17
         vertex 5.628901e+01 3.136456e+01 0.000000e+00
      endloop
   endfacet
   facet normal 2.538245e-01 9.672503e-01 0.000000e+00
      outer loop
         vertex 5.653274e+01 3.130060e+01 1.000000e-01
         vertex 5.628901e+01 3.136456e+01 0.000000e+00
         vertex 5.628901e+01 3.136456e+01 1.000000e-01
      endloop
   endfacet
   facet normal 2.395859e-01 9.708752e-01 0.000000e+00
      outer loop
         vertex 5.628901e+01 3.136456e+01 1.000000e-01
         vertex 5.628901e+01 3.136456e+01 0.000000e+00
         vertex 5.604368e+01 3.142510e+01 -1.355253e-17
      endloop
   endfacet
   facet normal 2.395859e-01 9.708752e-01 0.000000e+00
      outer loop
         vertex 5.628901e+01 3.136456e+01 1.000000e-01
         vertex 5.604368e+01 3.142510e+01 -1.355253e-17
         vertex 5.604368e+01 3.142510e+01 1.000000e-01
      endloop
   endfacet
   facet normal 2.253341e-01 9.742815e-01 0.000000e+00
      outer loop
         vertex 5.604368e+01 3.142510e+01 1.000000e-01
         vertex 5.604368e+01 3.142510e+01 -1.355253e-17
         vertex 5.579684e+01 3.148219e+01 -1.355253e-17
      endloop
   endfacet
   facet normal 2.253341e-01 9.742815e-01 0.000000e+00
      outer loop
         vertex 5.604368e+01 3.142510e+01 1.000000e-01
         vertex 5.579684e+01 3.148219e+01 -1.355253e-17
         vertex 5.579684e+01 3.148219e+01 1.000000e-01
      endloop
   endfacet
   facet normal 2.110594e-01 9.774732e-01 0.000000e+00
      outer loop
         vertex 5.579684e+01 3.148219e+01 1.000000e-01
         vertex 5.579684e+01 3.148219e+01 -1.355253e-17
         vertex 5.554857e+01 3.153580e+01 -1.355253e-17
      endloop
   endfacet
   facet normal 2.110594e-01 9.774732e-01 0.000000e+00
      outer loop
         vertex 5.579684e+01 3.148219e+01 1.000000e-01
         vertex 5.554857e+01 3.153580e+01 -1.355253e-17
         vertex 5.554857e+01 3.153580e+01 1.000000e-01
      endloop
   endfacet
   facet normal 1.967999e-01 9.804437e-01 0.000000e+00
      outer loop
         vertex 5.554857e+01 3.153580e+01 1.000000e-01
         vertex 5.554857e+01 3.153580e+01 -1.355253e-17
         vertex 5.529897e+01 3.158590e+01 -1.355253e-17
      endloop
   endfacet
   facet normal 1.967999e-01 9.804437e-01 0.000000e+00
      outer loop
         vertex 5.554857e+01 3.153580e+01 1.000000e-01
         vertex 5.529897e+01 3.158590e+01 -1.355253e-17
         vertex 5.529897e+01 3.158590e+01 1.000000e-01
      endloop
   endfacet
   facet normal 1.825154e-01 9.832030e-01 0.000000e+00
      outer loop
         vertex 5.529897e+01 3.158590e+01 1.000000e-01
         vertex 5.529897e+01 3.158590e+01 -1.355253e-17
         vertex 5.504812e+01 3.163247e+01 -1.355253e-17
      endloop
   endfacet
   facet normal 1.825154e-01 9.832030e-01 0.000000e+00
      outer loop
         vertex 5.529897e+01 3.158590e+01 1.000000e-01
         vertex 5.504812e+01 3.163247e+01 -1.355253e-17
         vertex 5.504812e+01 3.163247e+01 1.000000e-01
      endloop
   endfacet
   facet normal 1.682329e-01 9.857473e-01 0.000000e+00
      outer loop
         vertex 5.504812e+01 3.163247e+01 1.000000e-01
         vertex 5.504812e+01 3.163247e+01 -1.355253e-17
         vertex 5.479611e+01 3.167548e+01 0.000000e+00
      endloop
   endfacet
   facet normal 1.682329e-01 9.857473e-01 0.000000e+00
      outer loop
         vertex 5.504812e+01 3.163247e+01 1.000000e-01
         vertex 5.479611e+01 3.167548e+01 0.000000e+00
         vertex 5.479611e+01 3.167548e+01 1.000000e-01
      endloop
   endfacet
   facet normal 1.539292e-01 9.880819e-01 0.000000e+00
      outer loop
         vertex 5.479611e+01 3.167548e+01 1.000000e-01
         vertex 5.479611e+01 3.167548e+01 0.000000e+00
         vertex 5.454304e+01 3.171490e+01 0.000000e+00
      endloop
   endfacet
   facet normal 1.539292e-01 9.880819e-01 0.000000e+00
      outer loop
         vertex 5.479611e+01 3.167548e+01 1.000000e-01
         vertex 5.454304e+01 3.171490e+01 0.000000e+00
         vertex 5.454304e+01 3.171490e+01 1.000000e-01
      endloop
   endfacet
   facet normal 1.396444e-01 9.902017e-01 0.000000e+00
      outer loop
         vertex 5.454304e+01 3.171490e+01 1.000000e-01
         vertex 5.454304e+01 3.171490e+01 0.000000e+00
         vertex 5.428901e+01 3.175073e+01 -2.710505e-17
      endloop
   endfacet
   facet normal 1.396444e-01 9.902017e-01 0.000000e+00
      outer loop
         vertex 5.454304e+01 3.171490e+01 1.000000e-01
         vertex 5.428901e+01 3.175073e+01 -2.710505e-17
         vertex 5.428901e+01 3.175073e+01 1.000000e-01
      endloop
   endfacet
   facet normal 1.253390e-01 9.921140e-01 0.000000e+00
      outer loop
         vertex 5.428901e+01 3.175073e+01 1.000000e-01
         vertex 5.428901e+01 3.175073e+01 -2.710505e-17
         vertex 5.403409e+01 3.178293e+01 0.000000e+00
      endloop
   endfacet
   facet normal 1.253390e-01 9.921140e-01 0.000000e+00
      outer loop
         vertex 5.428901e+01 3.175073e+01 1.000000e-01
         vertex 5.403409e+01 3.178293e+01 0.000000e+00
         vertex 5.403409e+01 3.178293e+01 1.000000e-01
      endloop
   endfacet
   facet normal 1.110227e-01 9.938179e-01 0.000000e+00
      outer loop
         vertex 5.403409e+01 3.178293e+01 1.000000e-01
         vertex 5.403409e+01 3.178293e+01 0.000000e+00
         vertex 5.377838e+01 3.181150e+01 1.355253e-17
      endloop
   endfacet
   facet normal 1.110227e-01 9.938179e-01 0.000000e+00
      outer loop
         vertex 5.403409e+01 3.178293e+01 1.000000e-01
         vertex 5.377838e+01 3.181150e+01 1.355253e-17
         vertex 5.377838e+01 3.181150e+01 1.000000e-01
      endloop
   endfacet
   facet normal 9.672120e-02 9.953115e-01 0.000000e+00
      outer loop
         vertex 5.377838e+01 3.181150e+01 1.000000e-01
         vertex 5.377838e+01 3.181150e+01 1.355253e-17
         vertex 5.352200e+01 3.183641e+01 0.000000e+00
      endloop
   endfacet
   facet normal 9.672120e-02 9.953115e-01 0.000000e+00
      outer loop
         vertex 5.377838e+01 3.181150e+01 1.000000e-01
         vertex 5.352200e+01 3.183641e+01 0.000000e+00
         vertex 5.352200e+01 3.183641e+01 1.000000e-01
      endloop
   endfacet
   facet normal 8.240581e-02 9.965989e-01 0.000000e+00
      outer loop
         vertex 5.352200e+01 3.183641e+01 1.000000e-01
         vertex 5.352200e+01 3.183641e+01 0.000000e+00
         vertex 5.326502e+01 3.185766e+01 0.000000e+00
      endloop
   endfacet
   facet normal 8.240581e-02 9.965989e-01 0.000000e+00
      outer loop
         vertex 5.352200e+01 3.183641e+01 1.000000e-01
         vertex 5.326502e+01 3.185766e+01 0.000000e+00
         vertex 5.326502e+01 3.185766e+01 1.000000e-01
      endloop
   endfacet
   facet normal 6.808920e-02 9.976792e-01 0.000000e+00
      outer loop
         vertex 5.326502e+01 3.185766e+01 1.000000e-01
         vertex 5.326502e+01 3.185766e+01 0.000000e+00
         vertex 5.300754e+01 3.187523e+01 1.355253e-17
      endloop
   endfacet
   facet normal 6.808920e-02 9.976792e-01 0.000000e+00
      outer loop
         vertex 5.326502e+01 3.185766e+01 1.000000e-01
         vertex 5.300754e+01 3.187523e+01 1.355253e-17
         vertex 5.300754e+01 3.187523e+01 1.000000e-01
      endloop
   endfacet
   facet normal 5.377778e-02 9.985529e-01 0.000000e+00
      outer loop
         vertex 5.300754e+01 3.187523e+01 1.000000e-01
         vertex 5.300754e+01 3.187523e+01 1.355253e-17
         vertex 5.274967e+01 3.188912e+01 1.355253e-17
      endloop
   endfacet
   facet normal 5.377778e-02 9.985529e-01 0.000000e+00
      outer loop
         vertex 5.300754e+01 3.187523e+01 1.000000e-01
         vertex 5.274967e+01 3.188912e+01 1.355253e-17
         vertex 5.274967e+01 3.188912e+01 1.000000e-01
      endloop
   endfacet
   facet normal 3.946191e-02 9.992211e-01 0.000000e+00
      outer loop
         vertex 5.274967e+01 3.188912e+01 1.000000e-01
         vertex 5.274967e+01 3.188912e+01 1.355253e-17
         vertex 5.249149e+01 3.189932e+01 0.000000e+00
      endloop
   endfacet
   facet normal 3.946191e-02 9.992211e-01 0.000000e+00
      outer loop
         vertex 5.274967e+01 3.188912e+01 1.000000e-01
         vertex 5.249149e+01 3.189932e+01 0.000000e+00
         vertex 5.249149e+01 3.189932e+01 1.000000e-01
      endloop
   endfacet
   facet normal 2.515136e-02 9.996837e-01 0.000000e+00
      outer loop
         vertex 5.249149e+01 3.189932e+01 1.000000e-01
         vertex 5.249149e+01 3.189932e+01 0.000000e+00
         vertex 5.223311e+01 3.190582e+01 0.000000e+00
      endloop
   endfacet
   facet normal 2.515136e-02 9.996837e-01 0.000000e+00
      outer loop
         vertex 5.249149e+01 3.189932e+01 1.000000e-01
         vertex 5.223311e+01 3.190582e+01 0.000000e+00
         vertex 5.223311e+01 3.190582e+01 1.000000e-01
      endloop
   endfacet
   facet normal 1.083713e-02 9.999413e-01 0.000000e+00
      outer loop
         vertex 5.223311e+01 3.190582e+01 1.000000e-01
         vertex 5.223311e+01 3.190582e+01 0.000000e+00
         vertex 5.197462e+01 3.190862e+01 0.000000e+00
      endloop
   endfacet
   facet normal 1.083713e-02 9.999413e-01 0.000000e+00
      outer loop
         vertex 5.223311e+01 3.190582e+01 1.000000e-01
         vertex 5.197462e+01 3.190862e+01 0.000000e+00
         vertex 5.197462e+01 3.190862e+01 1.000000e-01
      endloop
   endfacet
   facet normal -3.487563e-03 9.999939e-01 0.000000e+00
      outer loop
         vertex 5.197462e+01 3.190862e+01 1.000000e-01
         vertex 5.197462e+01 3.190862e+01 0.000000e+00
         vertex 5.171613e+01 3.190772e+01 -1.355253e-17
      endloop
   endfacet
   facet normal -3.487563e-03 9.999939e-01 0.000000e+00
      outer loop
         vertex 5.197462e+01 3.190862e+01 1.000000e-01
         vertex 5.171613e+01 3.190772e+01 -1.355253e-17
         vertex 5.171613e+01 3.190772e+01 1.000000e-01
      endloop
   endfacet
   facet normal -1.780206e-02 9.998415e-01 0.000000e+00
      outer loop
         vertex 5.171613e+01 3.190772e+01 1.000000e-01
         vertex 5.171613e+01 3.190772e+01 -1.355253e-17
         vertex 5.145773e+01 3.190312e+01 0.000000e+00
      endloop
   endfacet
   facet normal -1.780206e-02 9.998415e-01 0.000000e+00
      outer loop
         vertex 5.171613e+01 3.190772e+01 1.000000e-01
         vertex 5.145773e+01 3.190312e+01 0.000000e+00
         vertex 5.145773e+01 3.190312e+01 1.000000e-01
      endloop
   endfacet
   facet normal -3.211536e-02 9.994842e-01 0.000000e+00
      outer loop
         vertex 5.145773e+01 3.190312e+01 1.000000e-01
         vertex 5.145773e+01 3.190312e+01 0.000000e+00
         vertex 5.119954e+01 3.189482e+01 0.000000e+00
      endloop
   endfacet
   facet normal -3.211536e-02 9.994842e-01 0.000000e+00
      outer loop
         vertex 5.145773e+01 3.190312e+01 1.000000e-01
         vertex 5.119954e+01 3.189482e+01 0.000000e+00
         vertex 5.119954e+01 3.189482e+01 1.000000e-01
      endloop
   endfacet
   facet normal -4.640715e-02 9.989226e-01 0.000000e+00
      outer loop
         vertex 5.119954e+01 3.189482e+01 1.000000e-01
         vertex 5.119954e+01 3.189482e+01 0.000000e+00
         vertex 5.094166e+01 3.188284e+01 0.000000e+00
      endloop
   endfacet
   facet normal -4.640715e-02 9.989226e-01 0.000000e+00
      outer loop
         vertex 5.119954e+01 3.189482e+01 1.000000e-01
         vertex 5.094166e+01 3.188284e+01 0.000000e+00
         vertex 5.094166e+01 3.188284e+01 1.000000e-01
      endloop
   endfacet
   facet normal -6.072571e-02 9.981545e-01 0.000000e+00
      outer loop
         vertex 5.094166e+01 3.188284e+01 1.000000e-01
         vertex 5.094166e+01 3.188284e+01 0.000000e+00
         vertex 5.068417e+01 3.186718e+01 0.000000e+00
      endloop
   endfacet
   facet normal -6.072571e-02 9.981545e-01 0.000000e+00
      outer loop
         vertex 5.094166e+01 3.188284e+01 1.000000e-01
         vertex 5.068417e+01 3.186718e+01 0.000000e+00
         vertex 5.068417e+01 3.186718e+01 1.000000e-01
      endloop
   endfacet
   facet normal -7.503610e-02 9.971808e-01 0.000000e+00
      outer loop
         vertex 5.068417e+01 3.186718e+01 1.000000e-01
         vertex 5.068417e+01 3.186718e+01 0.000000e+00
         vertex 5.042718e+01 3.184784e+01 0.000000e+00
      endloop
   endfacet
   facet normal -7.503610e-02 9.971808e-01 0.000000e+00
      outer loop
         vertex 5.068417e+01 3.186718e+01 1.000000e-01
         vertex 5.042718e+01 3.184784e+01 0.000000e+00
         vertex 5.042718e+01 3.184784e+01 1.000000e-01
      endloop
   endfacet
   facet normal -8.931829e-02 9.960031e-01 0.000000e+00
      outer loop
         vertex 5.042718e+01 3.184784e+01 1.000000e-01
         vertex 5.042718e+01 3.184784e+01 0.000000e+00
         vertex 5.017079e+01 3.182485e+01 0.000000e+00
      endloop
   endfacet
   facet normal -8.931829e-02 9.960031e-01 0.000000e+00
      outer loop
         vertex 5.042718e+01 3.184784e+01 1.000000e-01
         vertex 5.017079e+01 3.182485e+01 0.000000e+00
         vertex 5.017079e+01 3.182485e+01 1.000000e-01
      endloop
   endfacet
   facet normal -1.036204e-01 9.946169e-01 0.000000e+00
      outer loop
         vertex 5.017079e+01 3.182485e+01 1.000000e-01
         vertex 5.017079e+01 3.182485e+01 0.000000e+00
         vertex 4.991509e+01 3.179821e+01 0.000000e+00
      endloop
   endfacet
   facet normal -1.036204e-01 9.946169e-01 0.000000e+00
      outer loop
         vertex 5.017079e+01 3.182485e+01 1.000000e-01
         vertex 4.991509e+01 3.179821e+01 0.000000e+00
         vertex 4.991509e+01 3.179821e+01 1.000000e-01
      endloop
   endfacet
   facet normal -1.178920e-01 9.930264e-01 0.000000e+00
      outer loop
         vertex 4.991509e+01 3.179821e+01 1.000000e-01
         vertex 4.991509e+01 3.179821e+01 0.000000e+00
         vertex 4.966016e+01 3.176794e+01 -1.355253e-17
      endloop
   endfacet
   facet normal -1.178920e-01 9.930264e-01 0.000000e+00
      outer loop
         vertex 4.991509e+01 3.179821e+01 1.000000e-01
         vertex 4.966016e+01 3.176794e+01 -1.355253e-17
         vertex 4.966016e+01 3.176794e+01 1.000000e-01
      endloop
   endfacet
   facet normal -1.321847e-01 9.912251e-01 0.000000e+00
      outer loop
         vertex 4.966016e+01 3.176794e+01 1.000000e-01
         vertex 4.966016e+01 3.176794e+01 -1.355253e-17
         vertex 4.940612e+01 3.173406e+01 -1.355253e-17
      endloop
   endfacet
   facet normal -1.321847e-01 9.912251e-01 0.000000e+00
      outer loop
         vertex 4.966016e+01 3.176794e+01 1.000000e-01
         vertex 4.940612e+01 3.173406e+01 -1.355253e-17
         vertex 4.940612e+01 3.173406e+01 1.000000e-01
      endloop
   endfacet
   facet normal -1.464468e-01 9.892185e-01 0.000000e+00
      outer loop
         vertex 4.940612e+01 3.173406e+01 1.000000e-01
         vertex 4.940612e+01 3.173406e+01 -1.355253e-17
         vertex 4.915305e+01 3.169660e+01 0.000000e+00
      endloop
   endfacet
   facet normal -1.464468e-01 9.892185e-01 0.000000e+00
      outer loop
         vertex 4.940612e+01 3.173406e+01 1.000000e-01
         vertex 4.915305e+01 3.169660e+01 0.000000e+00
         vertex 4.915305e+01 3.169660e+01 1.000000e-01
      endloop
   endfacet
   facet normal -1.607282e-01 9.869987e-01 0.000000e+00
      outer loop
         vertex 4.915305e+01 3.169660e+01 1.000000e-01
         vertex 4.915305e+01 3.169660e+01 0.000000e+00
         vertex 4.890105e+01 3.165556e+01 -1.355253e-17
      endloop
   endfacet
   facet normal -1.607282e-01 9.869987e-01 0.000000e+00
      outer loop
         vertex 4.915305e+01 3.169660e+01 1.000000e-01
         vertex 4.890105e+01 3.165556e+01 -1.355253e-17
         vertex 4.890105e+01 3.165556e+01 1.000000e-01
      endloop
   endfacet
   facet normal -1.749738e-01 9.845731e-01 0.000000e+00
      outer loop
         vertex 4.890105e+01 3.165556e+01 1.000000e-01
         vertex 4.890105e+01 3.165556e+01 -1.355253e-17
         vertex 4.865019e+01 3.161098e+01 0.000000e+00
      endloop
   endfacet
   facet normal -1.749738e-01 9.845731e-01 0.000000e+00
      outer loop
         vertex 4.890105e+01 3.165556e+01 1.000000e-01
         vertex 4.865019e+01 3.161098e+01 0.000000e+00
         vertex 4.865019e+01 3.161098e+01 1.000000e-01
      endloop
   endfacet
   facet normal -1.892121e-01 9.819362e-01 0.000000e+00
      outer loop
         vertex 4.865019e+01 3.161098e+01 1.000000e-01
         vertex 4.865019e+01 3.161098e+01 0.000000e+00
         vertex 4.840059e+01 3.156288e+01 -1.355253e-17
      endloop
   endfacet
   facet normal -1.892121e-01 9.819362e-01 0.000000e+00
      outer loop
         vertex 4.865019e+01 3.161098e+01 1.000000e-01
         vertex 4.840059e+01 3.156288e+01 -1.355253e-17
         vertex 4.840059e+01 3.156288e+01 1.000000e-01
      endloop
   endfacet
   facet normal -2.034702e-01 9.790811e-01 0.000000e+00
      outer loop
         vertex 4.840059e+01 3.156288e+01 1.000000e-01
         vertex 4.840059e+01 3.156288e+01 -1.355253e-17
         vertex 4.815232e+01 3.151129e+01 1.355253e-17
      endloop
   endfacet
   facet normal -2.034702e-01 9.790811e-01 0.000000e+00
      outer loop
         vertex 4.840059e+01 3.156288e+01 1.000000e-01
         vertex 4.815232e+01 3.151129e+01 1.355253e-17
         vertex 4.815232e+01 3.151129e+01 1.000000e-01
      endloop
   endfacet
   facet normal -2.176868e-01 9.760187e-01 0.000000e+00
      outer loop
         vertex 4.815232e+01 3.151129e+01 1.000000e-01
         vertex 4.815232e+01 3.151129e+01 1.355253e-17
         vertex 4.790547e+01 3.145623e+01 0.000000e+00
      endloop
   endfacet
   facet normal -2.176868e-01 9.760187e-01 0.000000e+00
      outer loop
         vertex 4.815232e+01 3.151129e+01 1.000000e-01
         vertex 4.790547e+01 3.145623e+01 0.000000e+00
         vertex 4.790547e+01 3.145623e+01 1.000000e-01
      endloop
   endfacet
   facet normal -2.318901e-01 9.727420e-01 0.000000e+00
      outer loop
         vertex 4.790547e+01 3.145623e+01 1.000000e-01
         vertex 4.790547e+01 3.145623e+01 0.000000e+00
         vertex 4.766012e+01 3.139775e+01 0.000000e+00
      endloop
   endfacet
   facet normal -2.318901e-01 9.727420e-01 0.000000e+00
      outer loop
         vertex 4.790547e+01 3.145623e+01 1.000000e-01
         vertex 4.766012e+01 3.139775e+01 0.000000e+00
         vertex 4.766012e+01 3.139775e+01 1.000000e-01
      endloop
   endfacet
   facet normal -2.460962e-01 9.692454e-01 0.000000e+00
      outer loop
         vertex 4.766012e+01 3.139775e+01 1.000000e-01
         vertex 4.766012e+01 3.139775e+01 0.000000e+00
         vertex 4.741638e+01 3.133586e+01 -1.355253e-17
      endloop
   endfacet
   facet normal -2.460962e-01 9.692454e-01 0.000000e+00
      outer loop
         vertex 4.766012e+01 3.139775e+01 1.000000e-01
         vertex 4.741638e+01 3.133586e+01 -1.355253e-17
         vertex 4.741638e+01 3.133586e+01 1.000000e-01
      endloop
   endfacet
   facet normal -2.602873e-01 9.655312e-01 0.000000e+00
      outer loop
         vertex 4.741638e+01 3.133586e+01 1.000000e-01
         vertex 4.741638e+01 3.133586e+01 -1.355253e-17
         vertex 4.717431e+01 3.127060e+01 0.000000e+00
      endloop
   endfacet
   facet normal -2.602873e-01 9.655312e-01 0.000000e+00
      outer loop
         vertex 4.741638e+01 3.133586e+01 1.000000e-01
         vertex 4.717431e+01 3.127060e+01 0.000000e+00
         vertex 4.717431e+01 3.127060e+01 1.000000e-01
      endloop
   endfacet
   facet normal -2.744583e-01 9.615990e-01 0.000000e+00
      outer loop
         vertex 4.717431e+01 3.127060e+01 1.000000e-01
         vertex 4.717431e+01 3.127060e+01 0.000000e+00
         vertex 4.693400e+01 3.120201e+01 -1.355253e-17
      endloop
   endfacet
   facet normal -2.744583e-01 9.615990e-01 0.000000e+00
      outer loop
         vertex 4.717431e+01 3.127060e+01 1.000000e-01
         vertex 4.693400e+01 3.120201e+01 -1.355253e-17
         vertex 4.693400e+01 3.120201e+01 1.000000e-01
      endloop
   endfacet
   facet normal -2.886156e-01 9.574451e-01 0.000000e+00
      outer loop
         vertex 4.693400e+01 3.120201e+01 1.000000e-01
         vertex 4.693400e+01 3.120201e+01 -1.355253e-17
         vertex 4.669554e+01 3.113013e+01 -1.355253e-17
      endloop
   endfacet
   facet normal -2.886156e-01 9.574451e-01 0.000000e+00
      outer loop
         vertex 4.693400e+01 3.120201e+01 1.000000e-01
         vertex 4.669554e+01 3.113013e+01 -1.355253e-17
         vertex 4.669554e+01 3.113013e+01 1.000000e-01
      endloop
   endfacet
   facet normal -3.027458e-01 9.530713e-01 0.000000e+00
      outer loop
         vertex 4.669554e+01 3.113013e+01 1.000000e-01
         vertex 4.669554e+01 3.113013e+01 -1.355253e-17
         vertex 4.645900e+01 3.105499e+01 -1.355253e-17
      endloop
   endfacet
   facet normal -3.027458e-01 9.530713e-01 0.000000e+00
      outer loop
         vertex 4.669554e+01 3.113013e+01 1.000000e-01
         vertex 4.645900e+01 3.105499e+01 -1.355253e-17
         vertex 4.645900e+01 3.105499e+01 1.000000e-01
      endloop
   endfacet
   facet normal -3.168559e-01 9.484737e-01 0.000000e+00
      outer loop
         vertex 4.645900e+01 3.105499e+01 1.000000e-01
         vertex 4.645900e+01 3.105499e+01 -1.355253e-17
         vertex 4.622445e+01 3.097664e+01 1.355253e-17
      endloop
   endfacet
   facet normal -3.168559e-01 9.484737e-01 0.000000e+00
      outer loop
         vertex 4.645900e+01 3.105499e+01 1.000000e-01
         vertex 4.622445e+01 3.097664e+01 1.355253e-17
         vertex 4.622445e+01 3.097664e+01 1.000000e-01
      endloop
   endfacet
   facet normal -3.309559e-01 9.436462e-01 0.000000e+00
      outer loop
         vertex 4.622445e+01 3.097664e+01 1.000000e-01
         vertex 4.622445e+01 3.097664e+01 1.355253e-17
         vertex 4.599198e+01 3.089510e+01 1.355253e-17
      endloop
   endfacet
   facet normal -3.309559e-01 9.436462e-01 0.000000e+00
      outer loop
         vertex 4.622445e+01 3.097664e+01 1.000000e-01
         vertex 4.599198e+01 3.089510e+01 1.355253e-17
         vertex 4.599198e+01 3.089510e+01 1.000000e-01
      endloop
   endfacet
   facet normal -3.450236e-01 9.385940e-01 0.000000e+00
      outer loop
         vertex 4.599198e+01 3.089510e+01 1.000000e-01
         vertex 4.599198e+01 3.089510e+01 1.355253e-17
         vertex 4.576166e+01 3.081044e+01 0.000000e+00
      endloop
   endfacet
   facet normal -3.450236e-01 9.385940e-01 0.000000e+00
      outer loop
         vertex 4.599198e+01 3.089510e+01 1.000000e-01
         vertex 4.576166e+01 3.081044e+01 0.000000e+00
         vertex 4.576166e+01 3.081044e+01 1.000000e-01
      endloop
   endfacet
   facet normal -3.590705e-01 9.333104e-01 0.000000e+00
      outer loop
         vertex 4.576166e+01 3.081044e+01 1.000000e-01
         vertex 4.576166e+01 3.081044e+01 0.000000e+00
         vertex 4.553357e+01 3.072269e+01 1.355253e-17
      endloop
   endfacet
   facet normal -3.590705e-01 9.333104e-01 0.000000e+00
      outer loop
         vertex 4.576166e+01 3.081044e+01 1.000000e-01
         vertex 4.553357e+01 3.072269e+01 1.355253e-17
         vertex 4.553357e+01 3.072269e+01 1.000000e-01
      endloop
   endfacet
   facet normal -3.727276e-01 9.279408e-01 0.000000e+00
      outer loop
         vertex 4.553357e+01 3.072269e+01 1.000000e-01
         vertex 4.553357e+01 3.072269e+01 1.355253e-17
         vertex 4.531898e+01 3.063649e+01 0.000000e+00
      endloop
   endfacet
   facet normal -3.727276e-01 9.279408e-01 0.000000e+00
      outer loop
         vertex 4.553357e+01 3.072269e+01 1.000000e-01
         vertex 4.531898e+01 3.063649e+01 0.000000e+00
         vertex 4.531898e+01 3.063649e+01 1.000000e-01
      endloop
   endfacet
   facet normal -3.806936e-01 9.247012e-01 0.000000e+00
      outer loop
         vertex 4.531898e+01 3.063649e+01 1.000000e-01
         vertex 4.531898e+01 3.063649e+01 0.000000e+00
         vertex 4.527734e+01 3.061935e+01 0.000000e+00
      endloop
   endfacet
   facet normal -3.806936e-01 9.247012e-01 0.000000e+00
      outer loop
         vertex 4.531898e+01 3.063649e+01 1.000000e-01
         vertex 4.527734e+01 3.061935e+01 0.000000e+00
         vertex 4.527734e+01 3.061935e+01 1.000000e-01
      endloop
   endfacet
   facet normal -7.796834e-01 -6.261740e-01 -0.000000e+00
      outer loop
         vertex 4.568348e+01 3.011365e+01 1.000000e-01
         vertex 4.527734e+01 3.061935e+01 1.000000e-01
         vertex 4.568348e+01 3.011365e+01 -5.421011e-17
      endloop
   endfacet
   facet normal -7.796834e-01 -6.261740e-01 0.000000e+00
      outer loop
         vertex 4.568348e+01 3.011365e+01 -5.421011e-17
         vertex 4.527734e+01 3.061935e+01 1.000000e-01
         vertex 4.527734e+01 3.061935e+01 -5.421011e-17
      endloop
   endfacet
   facet normal 0.000000e+00 0.000000e+00 1.000000e+00
      outer loop
         vertex 4.531898e+01 3.063649e+01 1.000000e-01
         vertex 4.527734e+01 3.061935e+01 1.000000e-01
         vertex 4.568348e+01 3.011365e+01 1.000000e-01
      endloop
   endfacet
   facet normal 0.000000e+00 0.000000e+00 1.000000e+00
      outer loop
         vertex 4.613945e+01 3.016126e+01 1.000000e-01
         vertex 4.659622e+01 3.020524e+01 1.000000e-01
         vertex 4.622445e+01 3.097664e+01 1.000000e-01
      endloop
   endfacet
   facet normal 0.000000e+00 0.000000e+00 1.000000e+00
      outer loop
         vertex 4.622445e+01 3.097664e+01 1.000000e-01
         vertex 4.599198e+01 3.089510e+01 1.000000e-01
         vertex 4.613945e+01 3.016126e+01 1.000000e-01
      endloop
   endfacet
   facet normal 0.000000e+00 0.000000e+00 1.000000e+00
      outer loop
         vertex 4.613945e+01 3.016126e+01 1.000000e-01
         vertex 4.599198e+01 3.089510e+01 1.000000e-01
         vertex 4.576166e+01 3.081044e+01 1.000000e-01
      endloop
   endfacet
   facet normal 0.000000e+00 0.000000e+00 1.000000e+00
      outer loop
         vertex 4.613945e+01 3.016126e+01 1.000000e-01
         vertex 4.576166e+01 3.081044e+01 1.000000e-01
         vertex 4.568348e+01 3.011365e+01 1.000000e-01
      endloop
   endfacet
   facet normal 0.000000e+00 -0.000000e+00 1.000000e+00
      outer loop
         vertex 4.568348e+01 3.011365e+01 1.000000e-01
         vertex 4.576166e+01 3.081044e+01 1.000000e-01
         vertex 4.553357e+01 3.072269e+01 1.000000e-01
      endloop
   endfacet
   facet normal 0.000000e+00 0.000000e+00 1.000000e+00
      outer loop
         vertex 4.568348e+01 3.011365e+01 1.000000e-01
         vertex 4.553357e+01 3.072269e+01 1.000000e-01
         vertex 4.531898e+01 3.063649e+01 1.000000e-01
      endloop
   endfacet
   facet normal 0.000000e+00 0.000000e+00 1.000000e+00
      outer loop
         vertex 5.818712e+01 3.076006e+01 1.000000e-01
         vertex 5.795688e+01 3.084696e+01 1.000000e-01
         vertex 5.807258e+01 3.010670e+01 1.000000e-01
      endloop
   endfacet
   facet normal 0.000000e+00 0.000000e+00 1.000000e+00
      outer loop
         vertex 5.807258e+01 3.010670e+01 1.000000e-01
         vertex 5.795688e+01 3.084696e+01 1.000000e-01
         vertex 5.761694e+01 3.015480e+01 1.000000e-01
      endloop
   endfacet
   facet normal 0.000000e+00 0.000000e+00 1.000000e+00
      outer loop
         vertex 4.705361e+01 3.024555e+01 1.000000e-01
         vertex 4.669554e+01 3.113013e+01 1.000000e-01
         vertex 4.659622e+01 3.020524e+01 1.000000e-01
      endloop
   endfacet
   facet normal 0.000000e+00 -0.000000e+00 1.000000e+00
      outer loop
         vertex 4.659622e+01 3.020524e+01 1.000000e-01
         vertex 4.669554e+01 3.113013e+01 1.000000e-01
         vertex 4.645900e+01 3.105499e+01 1.000000e-01
      endloop
   endfacet
   facet normal 0.000000e+00 0.000000e+00 1.000000e+00
      outer loop
         vertex 4.659622e+01 3.020524e+01 1.000000e-01
         vertex 4.645900e+01 3.105499e+01 1.000000e-01
         vertex 4.622445e+01 3.097664e+01 1.000000e-01
      endloop
   endfacet
   facet normal 0.000000e+00 0.000000e+00 1.000000e+00
      outer loop
         vertex 5.795688e+01 3.084696e+01 1.000000e-01
         vertex 5.772447e+01 3.093070e+01 1.000000e-01
         vertex 5.761694e+01 3.015480e+01 1.000000e-01
      endloop
   endfacet
   facet normal 0.000000e+00 -0.000000e+00 1.000000e+00
      outer loop
         vertex 5.761694e+01 3.015480e+01 1.000000e-01
         vertex 5.772447e+01 3.093070e+01 1.000000e-01
         vertex 5.748998e+01 3.101124e+01 1.000000e-01
      endloop
   endfacet
   facet normal 0.000000e+00 0.000000e+00 1.000000e+00
      outer loop
         vertex 5.761694e+01 3.015480e+01 1.000000e-01
         vertex 5.748998e+01 3.101124e+01 1.000000e-01
         vertex 5.716060e+01 3.019926e+01 1.000000e-01
      endloop
   endfacet
   facet normal 0.000000e+00 0.000000e+00 1.000000e+00
      outer loop
         vertex 5.818712e+01 3.076006e+01 1.000000e-01
         vertex 5.807258e+01 3.010670e+01 1.000000e-01
         vertex 5.841513e+01 3.067005e+01 1.000000e-01
      endloop
   endfacet
   facet normal 0.000000e+00 0.000000e+00 1.000000e+00
      outer loop
         vertex 5.841513e+01 3.067005e+01 1.000000e-01
         vertex 5.807258e+01 3.010670e+01 1.000000e-01
         vertex 5.821181e+01 3.009126e+01 1.000000e-01
      endloop
   endfacet
   facet normal 0.000000e+00 0.000000e+00 1.000000e+00
      outer loop
         vertex 5.841513e+01 3.067005e+01 1.000000e-01
         vertex 5.821181e+01 3.009126e+01 1.000000e-01
         vertex 5.864040e+01 3.057714e+01 1.000000e-01
      endloop
   endfacet
   facet normal 0.000000e+00 0.000000e+00 1.000000e+00
      outer loop
         vertex 4.751156e+01 3.028220e+01 1.000000e-01
         vertex 4.717431e+01 3.127060e+01 1.000000e-01
         vertex 4.705361e+01 3.024555e+01 1.000000e-01
      endloop
   endfacet
   facet normal 0.000000e+00 -0.000000e+00 1.000000e+00
      outer loop
         vertex 4.705361e+01 3.024555e+01 1.000000e-01
         vertex 4.717431e+01 3.127060e+01 1.000000e-01
         vertex 4.693400e+01 3.120201e+01 1.000000e-01
      endloop
   endfacet
   facet normal 0.000000e+00 0.000000e+00 1.000000e+00
      outer loop
         vertex 4.705361e+01 3.024555e+01 1.000000e-01
         vertex 4.693400e+01 3.120201e+01 1.000000e-01
         vertex 4.669554e+01 3.113013e+01 1.000000e-01
      endloop
   endfacet
   facet normal 0.000000e+00 0.000000e+00 1.000000e+00
      outer loop
         vertex 5.748998e+01 3.101124e+01 1.000000e-01
         vertex 5.725349e+01 3.108854e+01 1.000000e-01
         vertex 5.716060e+01 3.019926e+01 1.000000e-01
      endloop
   endfacet
   facet normal 0.000000e+00 -0.000000e+00 1.000000e+00
      outer loop
         vertex 5.716060e+01 3.019926e+01 1.000000e-01
         vertex 5.725349e+01 3.108854e+01 1.000000e-01
         vertex 5.701506e+01 3.116256e+01 1.000000e-01
      endloop
   endfacet
   facet normal 0.000000e+00 0.000000e+00 1.000000e+00
      outer loop
         vertex 5.716060e+01 3.019926e+01 1.000000e-01
         vertex 5.701506e+01 3.116256e+01 1.000000e-01
         vertex 5.670361e+01 3.024006e+01 1.000000e-01
      endloop
   endfacet
   facet normal 0.000000e+00 0.000000e+00 1.000000e+00
      outer loop
         vertex 4.797001e+01 3.031517e+01 1.000000e-01
         vertex 4.766012e+01 3.139775e+01 1.000000e-01
         vertex 4.751156e+01 3.028220e+01 1.000000e-01
      endloop
   endfacet
   facet normal 0.000000e+00 -0.000000e+00 1.000000e+00
      outer loop
         vertex 4.751156e+01 3.028220e+01 1.000000e-01
         vertex 4.766012e+01 3.139775e+01 1.000000e-01
         vertex 4.741638e+01 3.133586e+01 1.000000e-01
      endloop
   endfacet
   facet normal 0.000000e+00 0.000000e+00 1.000000e+00
      outer loop
         vertex 4.751156e+01 3.028220e+01 1.000000e-01
         vertex 4.741638e+01 3.133586e+01 1.000000e-01
         vertex 4.717431e+01 3.127060e+01 1.000000e-01
      endloop
   endfacet
   facet normal 0.000000e+00 0.000000e+00 1.000000e+00
      outer loop
         vertex 5.701506e+01 3.116256e+01 1.000000e-01
         vertex 5.677478e+01 3.123326e+01 1.000000e-01
         vertex 5.670361e+01 3.024006e+01 1.000000e-01
      endloop
   endfacet
   facet normal 0.000000e+00 -0.000000e+00 1.000000e+00
      outer loop
         vertex 5.670361e+01 3.024006e+01 1.000000e-01
         vertex 5.677478e+01 3.123326e+01 1.000000e-01
         vertex 5.653274e+01 3.130060e+01 1.000000e-01
      endloop
   endfacet
   facet normal 0.000000e+00 0.000000e+00 1.000000e+00
      outer loop
         vertex 5.670361e+01 3.024006e+01 1.000000e-01
         vertex 5.653274e+01 3.130060e+01 1.000000e-01
         vertex 5.624603e+01 3.027720e+01 1.000000e-01
      endloop
   endfacet
   facet normal 0.000000e+00 0.000000e+00 1.000000e+00
      outer loop
         vertex 4.842891e+01 3.034446e+01 1.000000e-01
         vertex 4.815232e+01 3.151129e+01 1.000000e-01
         vertex 4.797001e+01 3.031517e+01 1.000000e-01
      endloop
   endfacet
   facet normal 0.000000e+00 -0.000000e+00 1.000000e+00
      outer loop
         vertex 4.797001e+01 3.031517e+01 1.000000e-01
         vertex 4.815232e+01 3.151129e+01 1.000000e-01
         vertex 4.790547e+01 3.145623e+01 1.000000e-01
      endloop
   endfacet
   facet normal 0.000000e+00 0.000000e+00 1.000000e+00
      outer loop
         vertex 4.797001e+01 3.031517e+01 1.000000e-01
         vertex 4.790547e+01 3.145623e+01 1.000000e-01
         vertex 4.766012e+01 3.139775e+01 1.000000e-01
      endloop
   endfacet
   facet normal 0.000000e+00 0.000000e+00 1.000000e+00
      outer loop
         vertex 5.653274e+01 3.130060e+01 1.000000e-01
         vertex 5.628901e+01 3.136456e+01 1.000000e-01
         vertex 5.624603e+01 3.027720e+01 1.000000e-01
      endloop
   endfacet
   facet normal 0.000000e+00 -0.000000e+00 1.000000e+00
      outer loop
         vertex 5.624603e+01 3.027720e+01 1.000000e-01
         vertex 5.628901e+01 3.136456e+01 1.000000e-01
         vertex 5.604368e+01 3.142510e+01 1.000000e-01
      endloop
   endfacet
   facet normal 0.000000e+00 0.000000e+00 1.000000e+00
      outer loop
         vertex 5.624603e+01 3.027720e+01 1.000000e-01
         vertex 5.604368e+01 3.142510e+01 1.000000e-01
         vertex 5.578790e+01 3.031068e+01 1.000000e-01
      endloop
   endfacet
   facet normal 0.000000e+00 0.000000e+00 1.000000e+00
      outer loop
         vertex 4.888821e+01 3.037007e+01 1.000000e-01
         vertex 4.865019e+01 3.161098e+01 1.000000e-01
         vertex 4.842891e+01 3.034446e+01 1.000000e-01
      endloop
   endfacet
   facet normal 0.000000e+00 -0.000000e+00 1.000000e+00
      outer loop
         vertex 4.842891e+01 3.034446e+01 1.000000e-01
         vertex 4.865019e+01 3.161098e+01 1.000000e-01
         vertex 4.840059e+01 3.156288e+01 1.000000e-01
      endloop
   endfacet
   facet normal 0.000000e+00 0.000000e+00 1.000000e+00
      outer loop
         vertex 4.842891e+01 3.034446e+01 1.000000e-01
         vertex 4.840059e+01 3.156288e+01 1.000000e-01
         vertex 4.815232e+01 3.151129e+01 1.000000e-01
      endloop
   endfacet
   facet normal 0.000000e+00 0.000000e+00 1.000000e+00
      outer loop
         vertex 5.604368e+01 3.142510e+01 1.000000e-01
         vertex 5.579684e+01 3.148219e+01 1.000000e-01
         vertex 5.578790e+01 3.031068e+01 1.000000e-01
      endloop
   endfacet
   facet normal 0.000000e+00 -0.000000e+00 1.000000e+00
      outer loop
         vertex 5.578790e+01 3.031068e+01 1.000000e-01
         vertex 5.579684e+01 3.148219e+01 1.000000e-01
         vertex 5.554857e+01 3.153580e+01 1.000000e-01
      endloop
   endfacet
   facet normal 0.000000e+00 0.000000e+00 1.000000e+00
      outer loop
         vertex 5.578790e+01 3.031068e+01 1.000000e-01
         vertex 5.554857e+01 3.153580e+01 1.000000e-01
         vertex 5.532928e+01 3.034048e+01 1.000000e-01
      endloop
   endfacet
   facet normal 0.000000e+00 -0.000000e+00 1.000000e+00
      outer loop
         vertex 5.532928e+01 3.034048e+01 1.000000e-01
         vertex 5.554857e+01 3.153580e+01 1.000000e-01
         vertex 5.529897e+01 3.158590e+01 1.000000e-01
      endloop
   endfacet
   facet normal 0.000000e+00 0.000000e+00 1.000000e+00
      outer loop
         vertex 5.532928e+01 3.034048e+01 1.000000e-01
         vertex 5.529897e+01 3.158590e+01 1.000000e-01
         vertex 5.487023e+01 3.036661e+01 1.000000e-01
      endloop
   endfacet
   facet normal 0.000000e+00 0.000000e+00 1.000000e+00
      outer loop
         vertex 4.934786e+01 3.039198e+01 1.000000e-01
         vertex 4.915305e+01 3.169660e+01 1.000000e-01
         vertex 4.888821e+01 3.037007e+01 1.000000e-01
      endloop
   endfacet
   facet normal 0.000000e+00 0.000000e+00 1.000000e+00
      outer loop
         vertex 4.888821e+01 3.037007e+01 1.000000e-01
         vertex 4.915305e+01 3.169660e+01 1.000000e-01
         vertex 4.890105e+01 3.165556e+01 1.000000e-01
      endloop
   endfacet
   facet normal 0.000000e+00 -0.000000e+00 1.000000e+00
      outer loop
         vertex 4.888821e+01 3.037007e+01 1.000000e-01
         vertex 4.890105e+01 3.165556e+01 1.000000e-01
         vertex 4.865019e+01 3.161098e+01 1.000000e-01
      endloop
   endfacet
   facet normal 0.000000e+00 0.000000e+00 1.000000e+00
      outer loop
         vertex 5.529897e+01 3.158590e+01 1.000000e-01
         vertex 5.504812e+01 3.163247e+01 1.000000e-01
         vertex 5.487023e+01 3.036661e+01 1.000000e-01
      endloop
   endfacet
   facet normal 0.000000e+00 -0.000000e+00 1.000000e+00
      outer loop
         vertex 5.487023e+01 3.036661e+01 1.000000e-01
         vertex 5.504812e+01 3.163247e+01 1.000000e-01
         vertex 5.479611e+01 3.167548e+01 1.000000e-01
      endloop
   endfacet
   facet normal 0.000000e+00 0.000000e+00 1.000000e+00
      outer loop
         vertex 5.487023e+01 3.036661e+01 1.000000e-01
         vertex 5.479611e+01 3.167548e+01 1.000000e-01
         vertex 5.441080e+01 3.038905e+01 1.000000e-01
      endloop
   endfacet
   facet normal 0.000000e+00 0.000000e+00 1.000000e+00
      outer loop
         vertex 5.479611e+01 3.167548e+01 1.000000e-01
         vertex 5.454304e+01 3.171490e+01 1.000000e-01
         vertex 5.441080e+01 3.038905e+01 1.000000e-01
      endloop
   endfacet
   facet normal 0.000000e+00 -0.000000e+00 1.000000e+00
      outer loop
         vertex 5.441080e+01 3.038905e+01 1.000000e-01
         vertex 5.454304e+01 3.171490e+01 1.000000e-01
         vertex 5.428901e+01 3.175073e+01 1.000000e-01
      endloop
   endfacet
   facet normal 0.000000e+00 0.000000e+00 1.000000e+00
      outer loop
         vertex 5.441080e+01 3.038905e+01 1.000000e-01
         vertex 5.428901e+01 3.175073e+01 1.000000e-01
         vertex 5.395104e+01 3.040780e+01 1.000000e-01
      endloop
   endfacet
   facet normal 0.000000e+00 0.000000e+00 1.000000e+00
      outer loop
         vertex 5.026795e+01 3.042474e+01 1.000000e-01
         vertex 4.991509e+01 3.179821e+01 1.000000e-01
         vertex 4.980779e+01 3.041021e+01 1.000000e-01
      endloop
   endfacet
   facet normal 0.000000e+00 -0.000000e+00 1.000000e+00
      outer loop
         vertex 4.980779e+01 3.041021e+01 1.000000e-01
         vertex 4.991509e+01 3.179821e+01 1.000000e-01
         vertex 4.966016e+01 3.176794e+01 1.000000e-01
      endloop
   endfacet
   facet normal 0.000000e+00 0.000000e+00 1.000000e+00
      outer loop
         vertex 4.980779e+01 3.041021e+01 1.000000e-01
         vertex 4.966016e+01 3.176794e+01 1.000000e-01
         vertex 4.934786e+01 3.039198e+01 1.000000e-01
      endloop
   endfacet
   facet normal 0.000000e+00 0.000000e+00 1.000000e+00
      outer loop
         vertex 4.934786e+01 3.039198e+01 1.000000e-01
         vertex 4.966016e+01 3.176794e+01 1.000000e-01
         vertex 4.940612e+01 3.173406e+01 1.000000e-01
      endloop
   endfacet
   facet normal 0.000000e+00 -0.000000e+00 1.000000e+00
      outer loop
         vertex 4.934786e+01 3.039198e+01 1.000000e-01
         vertex 4.940612e+01 3.173406e+01 1.000000e-01
         vertex 4.915305e+01 3.169660e+01 1.000000e-01
      endloop
   endfacet
   facet normal 0.000000e+00 0.000000e+00 1.000000e+00
      outer loop
         vertex 5.428901e+01 3.175073e+01 1.000000e-01
         vertex 5.403409e+01 3.178293e+01 1.000000e-01
         vertex 5.395104e+01 3.040780e+01 1.000000e-01
      endloop
   endfacet
   facet normal 0.000000e+00 -0.000000e+00 1.000000e+00
      outer loop
         vertex 5.395104e+01 3.040780e+01 1.000000e-01
         vertex 5.403409e+01 3.178293e+01 1.000000e-01
         vertex 5.377838e+01 3.181150e+01 1.000000e-01
      endloop
   endfacet
   facet normal 0.000000e+00 0.000000e+00 1.000000e+00
      outer loop
         vertex 5.395104e+01 3.040780e+01 1.000000e-01
         vertex 5.377838e+01 3.181150e+01 1.000000e-01
         vertex 5.349101e+01 3.042286e+01 1.000000e-01
      endloop
   endfacet
   facet normal 0.000000e+00 0.000000e+00 1.000000e+00
      outer loop
         vertex 5.072829e+01 3.043557e+01 1.000000e-01
         vertex 5.042718e+01 3.184784e+01 1.000000e-01
         vertex 5.026795e+01 3.042474e+01 1.000000e-01
      endloop
   endfacet
   facet normal 0.000000e+00 -0.000000e+00 1.000000e+00
      outer loop
         vertex 5.026795e+01 3.042474e+01 1.000000e-01
         vertex 5.042718e+01 3.184784e+01 1.000000e-01
         vertex 5.017079e+01 3.182485e+01 1.000000e-01
      endloop
   endfacet
   facet normal 0.000000e+00 0.000000e+00 1.000000e+00
      outer loop
         vertex 5.026795e+01 3.042474e+01 1.000000e-01
         vertex 5.017079e+01 3.182485e+01 1.000000e-01
         vertex 4.991509e+01 3.179821e+01 1.000000e-01
      endloop
   endfacet
   facet normal 0.000000e+00 0.000000e+00 1.000000e+00
      outer loop
         vertex 5.377838e+01 3.181150e+01 1.000000e-01
         vertex 5.352200e+01 3.183641e+01 1.000000e-01
         vertex 5.349101e+01 3.042286e+01 1.000000e-01
      endloop
   endfacet
   facet normal 0.000000e+00 -0.000000e+00 1.000000e+00
      outer loop
         vertex 5.349101e+01 3.042286e+01 1.000000e-01
         vertex 5.352200e+01 3.183641e+01 1.000000e-01
         vertex 5.326502e+01 3.185766e+01 1.000000e-01
      endloop
   endfacet
   facet normal 0.000000e+00 0.000000e+00 1.000000e+00
      outer loop
         vertex 5.349101e+01 3.042286e+01 1.000000e-01
         vertex 5.326502e+01 3.185766e+01 1.000000e-01
         vertex 5.303077e+01 3.043423e+01 1.000000e-01
      endloop
   endfacet
   facet normal 0.000000e+00 0.000000e+00 1.000000e+00
      outer loop
         vertex 5.118876e+01 3.044270e+01 1.000000e-01
         vertex 5.094166e+01 3.188284e+01 1.000000e-01
         vertex 5.072829e+01 3.043557e+01 1.000000e-01
      endloop
   endfacet
   facet normal 0.000000e+00 -0.000000e+00 1.000000e+00
      outer loop
         vertex 5.072829e+01 3.043557e+01 1.000000e-01
         vertex 5.094166e+01 3.188284e+01 1.000000e-01
         vertex 5.068417e+01 3.186718e+01 1.000000e-01
      endloop
   endfacet
   facet normal 0.000000e+00 0.000000e+00 1.000000e+00
      outer loop
         vertex 5.072829e+01 3.043557e+01 1.000000e-01
         vertex 5.068417e+01 3.186718e+01 1.000000e-01
         vertex 5.042718e+01 3.184784e+01 1.000000e-01
      endloop
   endfacet
   facet normal 0.000000e+00 0.000000e+00 1.000000e+00
      outer loop
         vertex 5.326502e+01 3.185766e+01 1.000000e-01
         vertex 5.300754e+01 3.187523e+01 1.000000e-01
         vertex 5.303077e+01 3.043423e+01 1.000000e-01
      endloop
   endfacet
   facet normal 0.000000e+00 0.000000e+00 1.000000e+00
      outer loop
         vertex 5.303077e+01 3.043423e+01 1.000000e-01
         vertex 5.300754e+01 3.187523e+01 1.000000e-01
         vertex 5.274967e+01 3.188912e+01 1.000000e-01
      endloop
   endfacet
   facet normal 0.000000e+00 0.000000e+00 1.000000e+00
      outer loop
         vertex 5.303077e+01 3.043423e+01 1.000000e-01
         vertex 5.274967e+01 3.188912e+01 1.000000e-01
         vertex 5.257037e+01 3.044190e+01 1.000000e-01
      endloop
   endfacet
   facet normal 0.000000e+00 -0.000000e+00 1.000000e+00
      outer loop
         vertex 5.257037e+01 3.044190e+01 1.000000e-01
         vertex 5.274967e+01 3.188912e+01 1.000000e-01
         vertex 5.249149e+01 3.189932e+01 1.000000e-01
      endloop
   endfacet
   facet normal 0.000000e+00 0.000000e+00 1.000000e+00
      outer loop
         vertex 5.257037e+01 3.044190e+01 1.000000e-01
         vertex 5.249149e+01 3.189932e+01 1.000000e-01
         vertex 5.210985e+01 3.044587e+01 1.000000e-01
      endloop
   endfacet
   facet normal 0.000000e+00 0.000000e+00 1.000000e+00
      outer loop
         vertex 5.164930e+01 3.044613e+01 1.000000e-01
         vertex 5.145773e+01 3.190312e+01 1.000000e-01
         vertex 5.118876e+01 3.044270e+01 1.000000e-01
      endloop
   endfacet
   facet normal 0.000000e+00 0.000000e+00 1.000000e+00
      outer loop
         vertex 5.118876e+01 3.044270e+01 1.000000e-01
         vertex 5.145773e+01 3.190312e+01 1.000000e-01
         vertex 5.119954e+01 3.189482e+01 1.000000e-01
      endloop
   endfacet
   facet normal 0.000000e+00 -0.000000e+00 1.000000e+00
      outer loop
         vertex 5.118876e+01 3.044270e+01 1.000000e-01
         vertex 5.119954e+01 3.189482e+01 1.000000e-01
         vertex 5.094166e+01 3.188284e+01 1.000000e-01
      endloop
   endfacet
   facet normal 0.000000e+00 0.000000e+00 1.000000e+00
      outer loop
         vertex 5.249149e+01 3.189932e+01 1.000000e-01
         vertex 5.223311e+01 3.190582e+01 1.000000e-01
         vertex 5.210985e+01 3.044587e+01 1.000000e-01
      endloop
   endfacet
   facet normal 0.000000e+00 -0.000000e+00 1.000000e+00
      outer loop
         vertex 5.210985e+01 3.044587e+01 1.000000e-01
         vertex 5.223311e+01 3.190582e+01 1.000000e-01
         vertex 5.197462e+01 3.190862e+01 1.000000e-01
      endloop
   endfacet
   facet normal 0.000000e+00 0.000000e+00 1.000000e+00
      outer loop
         vertex 5.210985e+01 3.044587e+01 1.000000e-01
         vertex 5.197462e+01 3.190862e+01 1.000000e-01
         vertex 5.164930e+01 3.044613e+01 1.000000e-01
      endloop
   endfacet
   facet normal 0.000000e+00 0.000000e+00 1.000000e+00
      outer loop
         vertex 5.164930e+01 3.044613e+01 1.000000e-01
         vertex 5.197462e+01 3.190862e+01 1.000000e-01
         vertex 5.171613e+01 3.190772e+01 1.000000e-01
      endloop
   endfacet
   facet normal 0.000000e+00 -0.000000e+00 1.000000e+00
      outer loop
         vertex 5.164930e+01 3.044613e+01 1.000000e-01
         vertex 5.171613e+01 3.190772e+01 1.000000e-01
         vertex 5.145773e+01 3.190312e+01 1.000000e-01
      endloop
   endfacet
   facet normal 0.000000e+00 0.000000e+00 -1.000000e+00
      outer loop
         vertex 4.568348e+01 3.011365e+01 0.000000e+00
         vertex 4.527734e+01 3.061935e+01 0.000000e+00
         vertex 4.531898e+01 3.063649e+01 0.000000e+00
      endloop
   endfacet
   facet normal 0.000000e+00 -0.000000e+00 -1.000000e+00
      outer loop
         vertex 4.622445e+01 3.097664e+01 0.000000e+00
         vertex 4.659622e+01 3.020524e+01 0.000000e+00
         vertex 4.613945e+01 3.016126e+01 0.000000e+00
      endloop
   endfacet
   facet normal 0.000000e+00 0.000000e+00 -1.000000e+00
      outer loop
         vertex 4.531898e+01 3.063649e+01 0.000000e+00
         vertex 4.553357e+01 3.072269e+01 0.000000e+00
         vertex 4.568348e+01 3.011365e+01 0.000000e+00
      endloop
   endfacet
   facet normal 0.000000e+00 0.000000e+00 -1.000000e+00
      outer loop
         vertex 4.568348e+01 3.011365e+01 0.000000e+00
         vertex 4.553357e+01 3.072269e+01 0.000000e+00
         vertex 4.576166e+01 3.081044e+01 0.000000e+00
      endloop
   endfacet
   facet normal 0.000000e+00 0.000000e+00 -1.000000e+00
      outer loop
         vertex 4.568348e+01 3.011365e+01 0.000000e+00
         vertex 4.576166e+01 3.081044e+01 0.000000e+00
         vertex 4.613945e+01 3.016126e+01 0.000000e+00
      endloop
   endfacet
   facet normal 0.000000e+00 0.000000e+00 -1.000000e+00
      outer loop
         vertex 4.613945e+01 3.016126e+01 0.000000e+00
         vertex 4.576166e+01 3.081044e+01 0.000000e+00
         vertex 4.599198e+01 3.089510e+01 0.000000e+00
      endloop
   endfacet
   facet normal 0.000000e+00 0.000000e+00 -1.000000e+00
      outer loop
         vertex 4.613945e+01 3.016126e+01 0.000000e+00
         vertex 4.599198e+01 3.089510e+01 0.000000e+00
         vertex 4.622445e+01 3.097664e+01 0.000000e+00
      endloop
   endfacet
   facet normal -0.000000e+00 0.000000e+00 -1.000000e+00
      outer loop
         vertex 5.864040e+01 3.057714e+01 0.000000e+00
         vertex 5.821181e+01 3.009126e+01 0.000000e+00
         vertex 5.841513e+01 3.067005e+01 0.000000e+00
      endloop
   endfacet
   facet normal 0.000000e+00 0.000000e+00 -1.000000e+00
      outer loop
         vertex 5.841513e+01 3.067005e+01 0.000000e+00
         vertex 5.821181e+01 3.009126e+01 0.000000e+00
         vertex 5.807258e+01 3.010670e+01 0.000000e+00
      endloop
   endfacet
   facet normal 0.000000e+00 0.000000e+00 -1.000000e+00
      outer loop
         vertex 4.622445e+01 3.097664e+01 0.000000e+00
         vertex 4.645900e+01 3.105499e+01 0.000000e+00
         vertex 4.659622e+01 3.020524e+01 0.000000e+00
      endloop
   endfacet
   facet normal 0.000000e+00 0.000000e+00 -1.000000e+00
      outer loop
         vertex 4.659622e+01 3.020524e+01 0.000000e+00
         vertex 4.645900e+01 3.105499e+01 0.000000e+00
         vertex 4.669554e+01 3.113013e+01 0.000000e+00
      endloop
   endfacet
   facet normal 0.000000e+00 0.000000e+00 -1.000000e+00
      outer loop
         vertex 4.659622e+01 3.020524e+01 0.000000e+00
         vertex 4.669554e+01 3.113013e+01 0.000000e+00
         vertex 4.705361e+01 3.024555e+01 0.000000e+00
      endloop
   endfacet
   facet normal 0.000000e+00 0.000000e+00 -1.000000e+00
      outer loop
         vertex 5.761694e+01 3.015480e+01 0.000000e+00
         vertex 5.795688e+01 3.084696e+01 0.000000e+00
         vertex 5.807258e+01 3.010670e+01 0.000000e+00
      endloop
   endfacet
   facet normal 0.000000e+00 0.000000e+00 -1.000000e+00
      outer loop
         vertex 5.807258e+01 3.010670e+01 0.000000e+00
         vertex 5.795688e+01 3.084696e+01 0.000000e+00
         vertex 5.818712e+01 3.076006e+01 0.000000e+00
      endloop
   endfacet
   facet normal 0.000000e+00 0.000000e+00 -1.000000e+00
      outer loop
         vertex 5.807258e+01 3.010670e+01 0.000000e+00
         vertex 5.818712e+01 3.076006e+01 0.000000e+00
         vertex 5.841513e+01 3.067005e+01 0.000000e+00
      endloop
   endfacet
   facet normal 0.000000e+00 0.000000e+00 -1.000000e+00
      outer loop
         vertex 5.716060e+01 3.019926e+01 0.000000e+00
         vertex 5.748998e+01 3.101124e+01 0.000000e+00
         vertex 5.761694e+01 3.015480e+01 0.000000e+00
      endloop
   endfacet
   facet normal 0.000000e+00 0.000000e+00 -1.000000e+00
      outer loop
         vertex 5.761694e+01 3.015480e+01 0.000000e+00
         vertex 5.748998e+01 3.101124e+01 0.000000e+00
         vertex 5.772447e+01 3.093070e+01 0.000000e+00
      endloop
   endfacet
   facet normal 0.000000e+00 0.000000e+00 -1.000000e+00
      outer loop
         vertex 5.761694e+01 3.015480e+01 0.000000e+00
         vertex 5.772447e+01 3.093070e+01 0.000000e+00
         vertex 5.795688e+01 3.084696e+01 0.000000e+00
      endloop
   endfacet
   facet normal 0.000000e+00 0.000000e+00 -1.000000e+00
      outer loop
         vertex 4.669554e+01 3.113013e+01 0.000000e+00
         vertex 4.693400e+01 3.120201e+01 0.000000e+00
         vertex 4.705361e+01 3.024555e+01 0.000000e+00
      endloop
   endfacet
   facet normal 0.000000e+00 0.000000e+00 -1.000000e+00
      outer loop
         vertex 4.705361e+01 3.024555e+01 0.000000e+00
         vertex 4.693400e+01 3.120201e+01 0.000000e+00
         vertex 4.717431e+01 3.127060e+01 0.000000e+00
      endloop
   endfacet
   facet normal 0.000000e+00 0.000000e+00 -1.000000e+00
      outer loop
         vertex 4.705361e+01 3.024555e+01 0.000000e+00
         vertex 4.717431e+01 3.127060e+01 0.000000e+00
         vertex 4.751156e+01 3.028220e+01 0.000000e+00
      endloop
   endfacet
   facet normal 0.000000e+00 0.000000e+00 -1.000000e+00
      outer loop
         vertex 5.670361e+01 3.024006e+01 0.000000e+00
         vertex 5.701506e+01 3.116256e+01 0.000000e+00
         vertex 5.716060e+01 3.019926e+01 0.000000e+00
      endloop
   endfacet
   facet normal 0.000000e+00 0.000000e+00 -1.000000e+00
      outer loop
         vertex 5.716060e+01 3.019926e+01 0.000000e+00
         vertex 5.701506e+01 3.116256e+01 0.000000e+00
         vertex 5.725349e+01 3.108854e+01 0.000000e+00
      endloop
   endfacet
   facet normal 0.000000e+00 0.000000e+00 -1.000000e+00
      outer loop
         vertex 5.716060e+01 3.019926e+01 0.000000e+00
         vertex 5.725349e+01 3.108854e+01 0.000000e+00
         vertex 5.748998e+01 3.101124e+01 0.000000e+00
      endloop
   endfacet
   facet normal 0.000000e+00 0.000000e+00 -1.000000e+00
      outer loop
         vertex 4.717431e+01 3.127060e+01 0.000000e+00
         vertex 4.741638e+01 3.133586e+01 0.000000e+00
         vertex 4.751156e+01 3.028220e+01 0.000000e+00
      endloop
   endfacet
   facet normal 0.000000e+00 0.000000e+00 -1.000000e+00
      outer loop
         vertex 4.751156e+01 3.028220e+01 0.000000e+00
         vertex 4.741638e+01 3.133586e+01 0.000000e+00
         vertex 4.766012e+01 3.139775e+01 0.000000e+00
      endloop
   endfacet
   facet normal 0.000000e+00 0.000000e+00 -1.000000e+00
      outer loop
         vertex 4.751156e+01 3.028220e+01 0.000000e+00
         vertex 4.766012e+01 3.139775e+01 0.000000e+00
         vertex 4.797001e+01 3.031517e+01 0.000000e+00
      endloop
   endfacet
   facet normal 0.000000e+00 0.000000e+00 -1.000000e+00
      outer loop
         vertex 5.624603e+01 3.027720e+01 0.000000e+00
         vertex 5.653274e+01 3.130060e+01 0.000000e+00
         vertex 5.670361e+01 3.024006e+01 0.000000e+00
      endloop
   endfacet
   facet normal 0.000000e+00 0.000000e+00 -1.000000e+00
      outer loop
         vertex 5.670361e+01 3.024006e+01 0.000000e+00
         vertex 5.653274e+01 3.130060e+01 0.000000e+00
         vertex 5.677478e+01 3.123326e+01 0.000000e+00
      endloop
   endfacet
   facet normal 0.000000e+00 0.000000e+00 -1.000000e+00
      outer loop
         vertex 5.670361e+01 3.024006e+01 0.000000e+00
         vertex 5.677478e+01 3.123326e+01 0.000000e+00
         vertex 5.701506e+01 3.116256e+01 0.000000e+00
      endloop
   endfacet
   facet normal 0.000000e+00 0.000000e+00 -1.000000e+00
      outer loop
         vertex 4.766012e+01 3.139775e+01 0.000000e+00
         vertex 4.790547e+01 3.145623e+01 0.000000e+00
         vertex 4.797001e+01 3.031517e+01 0.000000e+00
      endloop
   endfacet
   facet normal 0.000000e+00 0.000000e+00 -1.000000e+00
      outer loop
         vertex 4.797001e+01 3.031517e+01 0.000000e+00
         vertex 4.790547e+01 3.145623e+01 0.000000e+00
         vertex 4.815232e+01 3.151129e+01 0.000000e+00
      endloop
   endfacet
   facet normal 0.000000e+00 0.000000e+00 -1.000000e+00
      outer loop
         vertex 4.797001e+01 3.031517e+01 0.000000e+00
         vertex 4.815232e+01 3.151129e+01 0.000000e+00
         vertex 4.842891e+01 3.034446e+01 0.000000e+00
      endloop
   endfacet
   facet normal 0.000000e+00 0.000000e+00 -1.000000e+00
      outer loop
         vertex 5.578790e+01 3.031068e+01 0.000000e+00
         vertex 5.604368e+01 3.142510e+01 0.000000e+00
         vertex 5.624603e+01 3.027720e+01 0.000000e+00
      endloop
   endfacet
   facet normal 0.000000e+00 0.000000e+00 -1.000000e+00
      outer loop
         vertex 5.624603e+01 3.027720e+01 0.000000e+00
         vertex 5.604368e+01 3.142510e+01 0.000000e+00
         vertex 5.628901e+01 3.136456e+01 0.000000e+00
      endloop
   endfacet
   facet normal 0.000000e+00 0.000000e+00 -1.000000e+00
      outer loop
         vertex 5.624603e+01 3.027720e+01 0.000000e+00
         vertex 5.628901e+01 3.136456e+01 0.000000e+00
         vertex 5.653274e+01 3.130060e+01 0.000000e+00
      endloop
   endfacet
   facet normal 0.000000e+00 0.000000e+00 -1.000000e+00
      outer loop
         vertex 4.815232e+01 3.151129e+01 0.000000e+00
         vertex 4.840059e+01 3.156288e+01 0.000000e+00
         vertex 4.842891e+01 3.034446e+01 0.000000e+00
      endloop
   endfacet
   facet normal 0.000000e+00 0.000000e+00 -1.000000e+00
      outer loop
         vertex 4.842891e+01 3.034446e+01 0.000000e+00
         vertex 4.840059e+01 3.156288e+01 0.000000e+00
         vertex 4.865019e+01 3.161098e+01 0.000000e+00
      endloop
   endfacet
   facet normal 0.000000e+00 0.000000e+00 -1.000000e+00
      outer loop
         vertex 4.842891e+01 3.034446e+01 0.000000e+00
         vertex 4.865019e+01 3.161098e+01 0.000000e+00
         vertex 4.888821e+01 3.037007e+01 0.000000e+00
      endloop
   endfacet
   facet normal 0.000000e+00 0.000000e+00 -1.000000e+00
      outer loop
         vertex 5.532928e+01 3.034048e+01 0.000000e+00
         vertex 5.554857e+01 3.153580e+01 0.000000e+00
         vertex 5.578790e+01 3.031068e+01 0.000000e+00
      endloop
   endfacet
   facet normal 0.000000e+00 0.000000e+00 -1.000000e+00
      outer loop
         vertex 5.578790e+01 3.031068e+01 0.000000e+00
         vertex 5.554857e+01 3.153580e+01 0.000000e+00
         vertex 5.579684e+01 3.148219e+01 0.000000e+00
      endloop
   endfacet
   facet normal 0.000000e+00 0.000000e+00 -1.000000e+00
      outer loop
         vertex 5.578790e+01 3.031068e+01 0.000000e+00
         vertex 5.579684e+01 3.148219e+01 0.000000e+00
         vertex 5.604368e+01 3.142510e+01 0.000000e+00
      endloop
   endfacet
   facet normal 0.000000e+00 0.000000e+00 -1.000000e+00
      outer loop
         vertex 4.865019e+01 3.161098e+01 0.000000e+00
         vertex 4.890105e+01 3.165556e+01 0.000000e+00
         vertex 4.888821e+01 3.037007e+01 0.000000e+00
      endloop
   endfacet
   facet normal 0.000000e+00 0.000000e+00 -1.000000e+00
      outer loop
         vertex 4.888821e+01 3.037007e+01 0.000000e+00
         vertex 4.890105e+01 3.165556e+01 0.000000e+00
         vertex 4.915305e+01 3.169660e+01 0.000000e+00
      endloop
   endfacet
   facet normal 0.000000e+00 0.000000e+00 -1.000000e+00
      outer loop
         vertex 4.888821e+01 3.037007e+01 0.000000e+00
         vertex 4.915305e+01 3.169660e+01 0.000000e+00
         vertex 4.934786e+01 3.039198e+01 0.000000e+00
      endloop
   endfacet
   facet normal 0.000000e+00 0.000000e+00 -1.000000e+00
      outer loop
         vertex 4.934786e+01 3.039198e+01 0.000000e+00
         vertex 4.915305e+01 3.169660e+01 0.000000e+00
         vertex 4.940612e+01 3.173406e+01 0.000000e+00
      endloop
   endfacet
   facet normal 0.000000e+00 0.000000e+00 -1.000000e+00
      outer loop
         vertex 4.934786e+01 3.039198e+01 0.000000e+00
         vertex 4.940612e+01 3.173406e+01 0.000000e+00
         vertex 4.980779e+01 3.041021e+01 0.000000e+00
      endloop
   endfacet
   facet normal 0.000000e+00 0.000000e+00 -1.000000e+00
      outer loop
         vertex 5.441080e+01 3.038905e+01 0.000000e+00
         vertex 5.479611e+01 3.167548e+01 0.000000e+00
         vertex 5.487023e+01 3.036661e+01 0.000000e+00
      endloop
   endfacet
   facet normal 0.000000e+00 0.000000e+00 -1.000000e+00
      outer loop
         vertex 5.487023e+01 3.036661e+01 0.000000e+00
         vertex 5.479611e+01 3.167548e+01 0.000000e+00
         vertex 5.504812e+01 3.163247e+01 0.000000e+00
      endloop
   endfacet
   facet normal 0.000000e+00 0.000000e+00 -1.000000e+00
      outer loop
         vertex 5.487023e+01 3.036661e+01 0.000000e+00
         vertex 5.504812e+01 3.163247e+01 0.000000e+00
         vertex 5.532928e+01 3.034048e+01 0.000000e+00
      endloop
   endfacet
   facet normal 0.000000e+00 0.000000e+00 -1.000000e+00
      outer loop
         vertex 5.532928e+01 3.034048e+01 0.000000e+00
         vertex 5.504812e+01 3.163247e+01 0.000000e+00
         vertex 5.529897e+01 3.158590e+01 0.000000e+00
      endloop
   endfacet
   facet normal 0.000000e+00 0.000000e+00 -1.000000e+00
      outer loop
         vertex 5.532928e+01 3.034048e+01 0.000000e+00
         vertex 5.529897e+01 3.158590e+01 0.000000e+00
         vertex 5.554857e+01 3.153580e+01 0.000000e+00
      endloop
   endfacet
   facet normal 0.000000e+00 0.000000e+00 -1.000000e+00
      outer loop
         vertex 5.395104e+01 3.040780e+01 0.000000e+00
         vertex 5.428901e+01 3.175073e+01 0.000000e+00
         vertex 5.441080e+01 3.038905e+01 0.000000e+00
      endloop
   endfacet
   facet normal 0.000000e+00 0.000000e+00 -1.000000e+00
      outer loop
         vertex 5.441080e+01 3.038905e+01 0.000000e+00
         vertex 5.428901e+01 3.175073e+01 0.000000e+00
         vertex 5.454304e+01 3.171490e+01 0.000000e+00
      endloop
   endfacet
   facet normal 0.000000e+00 0.000000e+00 -1.000000e+00
      outer loop
         vertex 5.441080e+01 3.038905e+01 0.000000e+00
         vertex 5.454304e+01 3.171490e+01 0.000000e+00
         vertex 5.479611e+01 3.167548e+01 0.000000e+00
      endloop
   endfacet
   facet normal 0.000000e+00 0.000000e+00 -1.000000e+00
      outer loop
         vertex 4.940612e+01 3.173406e+01 0.000000e+00
         vertex 4.966016e+01 3.176794e+01 0.000000e+00
         vertex 4.980779e+01 3.041021e+01 0.000000e+00
      endloop
   endfacet
   facet normal 0.000000e+00 0.000000e+00 -1.000000e+00
      outer loop
         vertex 4.980779e+01 3.041021e+01 0.000000e+00
         vertex 4.966016e+01 3.176794e+01 0.000000e+00
         vertex 4.991509e+01 3.179821e+01 0.000000e+00
      endloop
   endfacet
   facet normal 0.000000e+00 0.000000e+00 -1.000000e+00
      outer loop
         vertex 4.980779e+01 3.041021e+01 0.000000e+00
         vertex 4.991509e+01 3.179821e+01 0.000000e+00
         vertex 5.026795e+01 3.042474e+01 0.000000e+00
      endloop
   endfacet
   facet normal 0.000000e+00 0.000000e+00 -1.000000e+00
      outer loop
         vertex 5.349101e+01 3.042286e+01 0.000000e+00
         vertex 5.377838e+01 3.181150e+01 0.000000e+00
         vertex 5.395104e+01 3.040780e+01 0.000000e+00
      endloop
   endfacet
   facet normal 0.000000e+00 0.000000e+00 -1.000000e+00
      outer loop
         vertex 5.395104e+01 3.040780e+01 0.000000e+00
         vertex 5.377838e+01 3.181150e+01 0.000000e+00
         vertex 5.403409e+01 3.178293e+01 0.000000e+00
      endloop
   endfacet
   facet normal 0.000000e+00 0.000000e+00 -1.000000e+00
      outer loop
         vertex 5.395104e+01 3.040780e+01 0.000000e+00
         vertex 5.403409e+01 3.178293e+01 0.000000e+00
         vertex 5.428901e+01 3.175073e+01 0.000000e+00
      endloop
   endfacet
   facet normal 0.000000e+00 0.000000e+00 -1.000000e+00
      outer loop
         vertex 4.991509e+01 3.179821e+01 0.000000e+00
         vertex 5.017079e+01 3.182485e+01 0.000000e+00
         vertex 5.026795e+01 3.042474e+01 0.000000e+00
      endloop
   endfacet
   facet normal 0.000000e+00 0.000000e+00 -1.000000e+00
      outer loop
         vertex 5.026795e+01 3.042474e+01 0.000000e+00
         vertex 5.017079e+01 3.182485e+01 0.000000e+00
         vertex 5.042718e+01 3.184784e+01 0.000000e+00
      endloop
   endfacet
   facet normal 0.000000e+00 0.000000e+00 -1.000000e+00
      outer loop
         vertex 5.026795e+01 3.042474e+01 0.000000e+00
         vertex 5.042718e+01 3.184784e+01 0.000000e+00
         vertex 5.072829e+01 3.043557e+01 0.000000e+00
      endloop
   endfacet
   facet normal 0.000000e+00 0.000000e+00 -1.000000e+00
      outer loop
         vertex 5.303077e+01 3.043423e+01 0.000000e+00
         vertex 5.326502e+01 3.185766e+01 0.000000e+00
         vertex 5.349101e+01 3.042286e+01 0.000000e+00
      endloop
   endfacet
   facet normal 0.000000e+00 0.000000e+00 -1.000000e+00
      outer loop
         vertex 5.349101e+01 3.042286e+01 0.000000e+00
         vertex 5.326502e+01 3.185766e+01 0.000000e+00
         vertex 5.352200e+01 3.183641e+01 0.000000e+00
      endloop
   endfacet
   facet normal 0.000000e+00 0.000000e+00 -1.000000e+00
      outer loop
         vertex 5.349101e+01 3.042286e+01 0.000000e+00
         vertex 5.352200e+01 3.183641e+01 0.000000e+00
         vertex 5.377838e+01 3.181150e+01 0.000000e+00
      endloop
   endfacet
   facet normal 0.000000e+00 0.000000e+00 -1.000000e+00
      outer loop
         vertex 5.042718e+01 3.184784e+01 0.000000e+00
         vertex 5.068417e+01 3.186718e+01 0.000000e+00
         vertex 5.072829e+01 3.043557e+01 0.000000e+00
      endloop
   endfacet
   facet normal 0.000000e+00 0.000000e+00 -1.000000e+00
      outer loop
         vertex 5.072829e+01 3.043557e+01 0.000000e+00
         vertex 5.068417e+01 3.186718e+01 0.000000e+00
         vertex 5.094166e+01 3.188284e+01 0.000000e+00
      endloop
   endfacet
   facet normal 0.000000e+00 0.000000e+00 -1.000000e+00
      outer loop
         vertex 5.072829e+01 3.043557e+01 0.000000e+00
         vertex 5.094166e+01 3.188284e+01 0.000000e+00
         vertex 5.118876e+01 3.044270e+01 0.000000e+00
      endloop
   endfacet
   facet normal 0.000000e+00 0.000000e+00 -1.000000e+00
      outer loop
         vertex 5.257037e+01 3.044190e+01 0.000000e+00
         vertex 5.274967e+01 3.188912e+01 0.000000e+00
         vertex 5.303077e+01 3.043423e+01 0.000000e+00
      endloop
   endfacet
   facet normal 0.000000e+00 0.000000e+00 -1.000000e+00
      outer loop
         vertex 5.303077e+01 3.043423e+01 0.000000e+00
         vertex 5.274967e+01 3.188912e+01 0.000000e+00
         vertex 5.300754e+01 3.187523e+01 0.000000e+00
      endloop
   endfacet
   facet normal 0.000000e+00 0.000000e+00 -1.000000e+00
      outer loop
         vertex 5.303077e+01 3.043423e+01 0.000000e+00
         vertex 5.300754e+01 3.187523e+01 0.000000e+00
         vertex 5.326502e+01 3.185766e+01 0.000000e+00
      endloop
   endfacet
   facet normal 0.000000e+00 0.000000e+00 -1.000000e+00
      outer loop
         vertex 5.094166e+01 3.188284e+01 0.000000e+00
         vertex 5.119954e+01 3.189482e+01 0.000000e+00
         vertex 5.118876e+01 3.044270e+01 0.000000e+00
      endloop
   endfacet
   facet normal 0.000000e+00 0.000000e+00 -1.000000e+00
      outer loop
         vertex 5.118876e+01 3.044270e+01 0.000000e+00
         vertex 5.119954e+01 3.189482e+01 0.000000e+00
         vertex 5.145773e+01 3.190312e+01 0.000000e+00
      endloop
   endfacet
   facet normal 0.000000e+00 0.000000e+00 -1.000000e+00
      outer loop
         vertex 5.118876e+01 3.044270e+01 0.000000e+00
         vertex 5.145773e+01 3.190312e+01 0.000000e+00
         vertex 5.164930e+01 3.044613e+01 0.000000e+00
      endloop
   endfacet
   facet normal 0.000000e+00 0.000000e+00 -1.000000e+00
      outer loop
         vertex 5.145773e+01 3.190312e+01 0.000000e+00
         vertex 5.171613e+01 3.190772e+01 0.000000e+00
         vertex 5.164930e+01 3.044613e+01 0.000000e+00
      endloop
   endfacet
   facet normal 0.000000e+00 0.000000e+00 -1.000000e+00
      outer loop
         vertex 5.164930e+01 3.044613e+01 0.000000e+00
         vertex 5.171613e+01 3.190772e+01 0.000000e+00
         vertex 5.197462e+01 3.190862e+01 0.000000e+00
      endloop
   endfacet
   facet normal 0.000000e+00 0.000000e+00 -1.000000e+00
      outer loop
         vertex 5.164930e+01 3.044613e+01 0.000000e+00
         vertex 5.197462e+01 3.190862e+01 0.000000e+00
         vertex 5.210985e+01 3.044587e+01 0.000000e+00
      endloop
   endfacet
   facet normal 0.000000e+00 0.000000e+00 -1.000000e+00
      outer loop
         vertex 5.210985e+01 3.044587e+01 0.000000e+00
         vertex 5.197462e+01 3.190862e+01 0.000000e+00
         vertex 5.223311e+01 3.190582e+01 0.000000e+00
      endloop
   endfacet
   facet normal 0.000000e+00 0.000000e+00 -1.000000e+00
      outer loop
         vertex 5.210985e+01 3.044587e+01 0.000000e+00
         vertex 5.223311e+01 3.190582e+01 0.000000e+00
         vertex 5.257037e+01 3.044190e+01 0.000000e+00
      endloop
   endfacet
   facet normal 0.000000e+00 0.000000e+00 -1.000000e+00
      outer loop
         vertex 5.257037e+01 3.044190e+01 0.000000e+00
         vertex 5.223311e+01 3.190582e+01 0.000000e+00
         vertex 5.249149e+01 3.189932e+01 0.000000e+00
      endloop
   endfacet
   facet normal 0.000000e+00 0.000000e+00 -1.000000e+00
      outer loop
         vertex 5.257037e+01 3.044190e+01 0.000000e+00
         vertex 5.249149e+01 3.189932e+01 0.000000e+00
         vertex 5.274967e+01 3.188912e+01 0.000000e+00
      endloop
   endfacet
endsolid