999
dxflib 3.12.2.0
  0
SECTION
  2
HEADER
  9
$ACADVER
  1
AC1015
  9
$HANDSEED
  5
FFFF
  9
$ANGBASE
 50
0.0
  9
$ANGDIR
 70
0
  9
$ATTMODE
 70
1
  9
$AUNITS
 70
0
  9
$AUPREC
 70
0
  9
$CECOLOR
 62
256
  9
$CELTSCALE
 40
1.0
  9
$CHAMFERA
 40
0.0
  9
$CHAMFERB
 40
0.0
  9
$CHAMFERC
 40
0.0
  9
$CHAMFERD
 40
0.0
  9
$CMLJUST
 70
0
  9
$CMLSCALE
 40
20.0
  9
$DIMADEC
 70
0
  9
$DIMALT
 70
0
  9
$DIMALTD
 70
3
  9
$DIMALTF
 40
0.03937007874016
  9
$DIMALTRND
 40
0.0
  9
$DIMALTTD
 70
3
  9
$DIMALTTZ
 70
0
  9
$DIMALTU
 70
2
  9
$DIMALTZ
 70
0
  9
$DIMAPOST
  1

  9
$DIMASZ
 40
2.5
  9
$DIMATFIT
 70
3
  9
$DIMAUNIT
 70
0
  9
$DIMAZIN
 70
0
  9
$DIMBLK
  1

  9
$DIMBLK1
  1

  9
$DIMBLK2
  1

  9
$DIMCEN
 40
2.5
  9
$DIMCLRD
 70
0
  9
$DIMCLRE
 70
0
  9
$DIMCLRT
 70
0
  9
$DIMDEC
 70
2
  9
$DIMDLE
 40
0.0
  9
$DIMDLI
 40
3.75
  9
$DIMDSEP
 70
44
  9
$DIMEXE
 40
1.25
  9
$DIMEXO
 40
0.625
  9
$DIMFRAC
 70
0
  9
$DIMGAP
 40
0.625
  9
$DIMJUST
 70
0
  9
$DIMLDRBLK
  1

  9
$DIMLFAC
 40
1.0
  9
$DIMLIM
 70
0
  9
$DIMLUNIT
 70
2
  9
$DIMLWD
 70
-2
  9
$DIMLWE
 70
-2
  9
$DIMPOST
  1

  9
$DIMRND
 40
0.0
  9
$DIMSAH
 70
0
  9
$DIMSCALE
 40
1.0
  9
$DIMSD1
 70
0
  9
$DIMSD2
 70
0
  9
$DIMSE1
 70
0
  9
$DIMSE2
 70
0
  9
$DIMSOXD
 70
0
  9
$DIMTAD
 70
1
  9
$DIMTDEC
 70
2
  9
$DIMTFAC
 40
1.0
  9
$DIMTIH
 70
1
  9
$DIMTIX
 70
0
  9
$DIMTM
 40
0.0
  9
$DIMTOFL
 70
0
  9
$DIMTOH
 70
1
  9
$DIMTOL
 70
0
  9
$DIMTOLJ
 70
0
  9
$DIMTP
 40
0.0
  9
$DIMTSZ
 40
0.0
  9
$DIMTVP
 40
0.0
  9
$DIMTXSTY
  7
Standard
  9
$DIMTXT
 40
2.5
  9
$DIMTZIN
 70
8
  9
$DIMUPT
 70
0
  9
$DIMZIN
 70
8
  9
$DISPSILH
 70
0
  9
$DWGCODEPAGE
  3
ANSI_1252
  9
$ELEVATION
 40
0.0
  9
$EXTMAX
 10
149.0192785122311
 20
198.18378876561681
 30
0.0
  9
$EXTMIN
 10
0.9999999999999982
 20
0.9542123913301807
 30
0.0
  9
$FILLETRAD
 40
0.0
  9
$FILLMODE
 70
1
  9
$INSBASE
 10
0.0
 20
0.0
 30
0.0
  9
$INSUNITS
 70
4
  9
$LIMCHECK
 70
0
  9
$LIMMAX
 10
420.0
 20
297.0
  9
$LIMMIN
 10
0.0
 20
0.0
  9
$LTSCALE
 40
1.0
  9
$LUNITS
 70
2
  9
$LUPREC
 70
4
  9
$MAXACTVP
 70
2
  9
$MEASUREMENT
 70
1
  9
$MIRRTEXT
 70
0
  9
$ORTHOMODE
 70
0
  9
$PDMODE
 70
0
  9
$PDSIZE
 40
0
  9
$PELEVATION
 40
0.0
  9
$PEXTMAX
 10
0.0
 20
0.0
 30
0.0
  9
$PEXTMIN
 10
0.0
 20
0.0
 30
0.0
  9
$PINSBASE
 10
0.0
 20
0.0
 30
0.0
  9
$PLIMCHECK
 70
0
  9
$PLIMMAX
 10
277.0
 20
202.5
  9
$PLIMMIN
 10
-20.0
 20
-7.5
  9
$PLINEGEN
 70
0
  9
$PLINEWID
 40
0.0
  9
$PROXYGRAPHICS
 70
1
  9
$PSLTSCALE
 70
1
  9
$PUCSNAME
  2

  9
$PUCSORG
 10
0.0
 20
0.0
 30
0.0
  9
$PUCSXDIR
 10
1.0
 20
0.0
 30
0.0
  9
$PUCSYDIR
 10
0.0
 20
1.0
 30
0.0
  9
$QTEXTMODE
 70
0
  9
$REGENMODE
 70
1
  9
$SHADEDGE
 70
3
  9
$SHADEDIF
 70
70
  9
$SKETCHINC
 40
1.0
  9
$SKPOLY
 70
0
  9
$SPLFRAME
 70
0
  9
$SPLINESEGS
 70
8
  9
$SPLINETYPE
 70
6
  9
$SURFTAB1
 70
6
  9
$SURFTAB2
 70
6
  9
$SURFTYPE
 70
6
  9
$SURFU
 70
6
  9
$SURFV
 70
6
  9
$TEXTSIZE
 40
2.5
  9
$TEXTSTYLE
  7
Standard
  9
$THICKNESS
 40
0.0
  9
$TILEMODE
 70
1
  9
$TRACEWID
 40
1.0
  9
$TREEDEPTH
 70
3020
  9
$UCSNAME
  2

  9
$UCSORG
 10
0.0
 20
0.0
 30
0.0
  9
$UCSXDIR
 10
1.0
 20
0.0
 30
0.0
  9
$UCSYDIR
 10
0.0
 20
1.0
 30
0.0
  9
$UNITMODE
 70
0
  9
$USERI1
 70
0
  9
$USERI2
 70
0
  9
$USERI3
 70
0
  9
$USERI4
 70
0
  9
$USERI5
 70
0
  9
$USERR1
 40
0.0
  9
$USERR2
 40
0.0
  9
$USERR3
 40
0.0
  9
$USERR4
 40
0.0
  9
$USERR5
 40
0.0
  9
$USRTIMER
 70
1
  9
$VISRETAIN
 70
1
  0
ENDSEC
  0
SECTION
  2
TABLES
  0
TABLE
  2
VPORT
  5
8
100
AcDbSymbolTable
 70
1
  0
VPORT
  5
30
100
AcDbSymbolTableRecord
100
AcDbViewportTableRecord
  2
*Active
 70
0
 10
0.0
 20
0.0
 11
1.0
 21
1.0
 12
286.30555555555549
 22
148.5
 13
0.0
 23
0.0
 14
10.0
 24
10.0
 15
10.0
 25
10.0
 16
0.0
 26
0.0
 36
1.0
 17
0.0
 27
0.0
 37
0.0
 40
297.0
 41
1.92798353909465
 42
50.0
 43
0.0
 44
0.0
 50
0.0
 51
0.0
 71
0
 72
100
 73
1
 74
3
 75
1
 76
1
 77
0
 78
0
281
0
 65
1
110
0.0
120
0.0
130
0.0
111
1.0
121
0.0
131
0.0
112
0.0
122
1.0
132
0.0
 79
0
146
0.0
  0
ENDTAB
  0
TABLE
  2
LTYPE
  5
5
100
AcDbSymbolTable
 70
50
  0
LTYPE
  5
16
100
AcDbSymbolTableRecord
100
AcDbLinetypeTableRecord
  2
Continuous
 70
0
  3
Solid line
 72
65
 73
0
 40
0.0
  0
LTYPE
  5
31
100
AcDbSymbolTableRecord
100
AcDbLinetypeTableRecord
  2
ACAD_ISO15W100
 70
0
  3
ISO double-dash triple-dot __ __ . . . __ __ . .
 72
65
 73
10
 40
39.000000000000007
 49
12.0
 74
0
 49
-3.0
 74
0
 49
12.0
 74
0
 49
-2.9500000000000002
 74
0
 49
0.1
 74
0
 49
-2.8999999999999999
 74
0
 49
0.1
 74
0
 49
-2.8999999999999999
 74
0
 49
0.1
 74
0
 49
-2.9500000000000002
 74
0
  0
LTYPE
  5
32
100
AcDbSymbolTableRecord
100
AcDbLinetypeTableRecord
  2
HOT_WATER_SUPPLY
 70
0
  3
Hot water supply ---- HW ---- HW ---- HW ----
 72
65
 73
3
 40
22.859999999999999
 49
12.699999999999999
 74
0
 49
-5.0800000000000001
 74
0
 49
-5.0800000000000001
 74
0
  0
LTYPE
  5
33
100
AcDbSymbolTableRecord
100
AcDbLinetypeTableRecord
  2
DIVIDE
 70
0
  3
Divide ____ . . ____ . . ____ . . ____ . . ____
 72
65
 73
6
 40
31.749999999999996
 49
12.699999999999999
 74
0
 49
-6.299999999999998
 74
0
 49
0.1
 74
0
 49
-6.25
 74
0
 49
0.1
 74
0
 49
-6.299999999999998
 74
0
  0
LTYPE
  5
34
100
AcDbSymbolTableRecord
100
AcDbLinetypeTableRecord
  2
ACAD_ISO10W100
 70
0
  3
ISO dash dot __ . __ . __ . __ . __ . __ . __ . 
 72
65
 73
4
 40
18.0
 49
12.0
 74
0
 49
-2.9500000000000002
 74
0
 49
0.1
 74
0
 49
-2.9500000000000002
 74
0
  0
LTYPE
  5
35
100
AcDbSymbolTableRecord
100
AcDbLinetypeTableRecord
  2
GAS_LINE
 70
0
  3
Gas line ----GAS----GAS----GAS----GAS----GAS----GAS--
 72
65
 73
3
 40
24.129999999999999
 49
12.699999999999999
 74
0
 49
-5.0800000000000001
 74
0
 49
-6.349999999999997
 74
0
  0
LTYPE
  5
36
100
AcDbSymbolTableRecord
100
AcDbLinetypeTableRecord
  2
ACAD_ISO04W100
 70
0
  3
ISO long-dash dot ____ . ____ . ____ . ____ . _
 72
65
 73
4
 40
30.0
 49
24.0
 74
0
 49
-2.9500000000000002
 74
0
 49
0.1
 74
0
 49
-2.9500000000000002
 74
0
  0
LTYPE
  5
14
100
AcDbSymbolTableRecord
100
AcDbLinetypeTableRecord
  2
ByBlock
 70
0
  3

 72
65
 73
0
 40
0.0
  0
LTYPE
  5
37
100
AcDbSymbolTableRecord
100
AcDbLinetypeTableRecord
  2
CENTER2
 70
0
  3
Center (.5x) ___ _ ___ _ ___ _ ___ _ ___ _ ___
 72
65
 73
4
 40
28.574999999999992
 49
19.050000000000001
 74
0
 49
-3.174999999999998
 74
0
 49
3.174999999999998
 74
0
 49
-3.174999999999998
 74
0
  0
LTYPE
  5
38
100
AcDbSymbolTableRecord
100
AcDbLinetypeTableRecord
  2
ACAD_ISO11W100
 70
0
  3
ISO double-dash dot __ __ . __ __ . __ __ . __ _
 72
65
 73
6
 40
33.0
 49
12.0
 74
0
 49
-3.0
 74
0
 49
12.0
 74
0
 49
-2.9500000000000002
 74
0
 49
0.1
 74
0
 49
-2.9500000000000002
 74
0
  0
LTYPE
  5
39
100
AcDbSymbolTableRecord
100
AcDbLinetypeTableRecord
  2
HIDDEN2
 70
0
  3
Hidden (.5x) _ _ _ _ _ _ _ _ _ _ _ _ _ _ _ _ _ 
 72
65
 73
2
 40
4.7624999999999975
 49
3.174999999999998
 74
0
 49
-1.587499999999999
 74
0
  0
LTYPE
  5
3A
100
AcDbSymbolTableRecord
100
AcDbLinetypeTableRecord
  2
BORDERX2
 70
0
  3
Border (2x) ____  ____  .  ____  ____  .  ___
 72
65
 73
6
 40
88.899999999999991
 49
25.399999999999999
 74
0
 49
-12.699999999999999
 74
0
 49
25.399999999999999
 74
0
 49
-12.65
 74
0
 49
0.1
 74
0
 49
-12.65
 74
0
  0
LTYPE
  5
3B
100
AcDbSymbolTableRecord
100
AcDbLinetypeTableRecord
  2
ACAD_ISO05W100
 70
0
  3
ISO long-dash double-dot ____ .. ____ .. ____ . 
 72
65
 73
6
 40
33.0
 49
24.0
 74
0
 49
-2.9500000000000002
 74
0
 49
0.1
 74
0
 49
-2.8999999999999999
 74
0
 49
0.1
 74
0
 49
-2.9500000000000002
 74
0
  0
LTYPE
  5
3C
100
AcDbSymbolTableRecord
100
AcDbLinetypeTableRecord
  2
DASHDOTX2
 70
0
  3
Dash dot (2x) ____  .  ____  .  ____  .  ___
 72
65
 73
4
 40
50.799999999999997
 49
25.399999999999999
 74
0
 49
-12.65
 74
0
 49
0.1
 74
0
 49
-12.65
 74
0
  0
LTYPE
  5
3D
100
AcDbSymbolTableRecord
100
AcDbLinetypeTableRecord
  2
HIDDENX2
 70
0
  3
Hidden (2x) ____ ____ ____ ____ ____ ____ ____ 
 72
65
 73
2
 40
19.049999999999997
 49
12.699999999999999
 74
0
 49
-6.349999999999997
 74
0
  0
LTYPE
  5
3E
100
AcDbSymbolTableRecord
100
AcDbLinetypeTableRecord
  2
CENTERX2
 70
0
  3
Center (2x) ________  __  ________  __  _____
 72
65
 73
4
 40
101.60000000000001
 49
63.5
 74
0
 49
-12.699999999999999
 74
0
 49
12.699999999999999
 74
0
 49
-12.699999999999999
 74
0
  0
LTYPE
  5
3F
100
AcDbSymbolTableRecord
100
AcDbLinetypeTableRecord
  2
BORDER2
 70
0
  3
Border (.5x) __.__.__.__.__.__.__.__.__.__.__.
 72
65
 73
6
 40
22.224999999999994
 49
6.349999999999997
 74
0
 49
-3.174999999999998
 74
0
 49
6.349999999999997
 74
0
 49
-3.125
 74
0
 49
0.1
 74
0
 49
-3.125
 74
0
  0
LTYPE
  5
40
100
AcDbSymbolTableRecord
100
AcDbLinetypeTableRecord
  2
DASHDOT2
 70
0
  3
Dash dot (.5x) _._._._._._._._._._._._._._._.
 72
65
 73
4
 40
12.699999999999998
 49
6.349999999999997
 74
0
 49
-3.125
 74
0
 49
0.1
 74
0
 49
-3.125
 74
0
  0
LTYPE
  5
41
100
AcDbSymbolTableRecord
100
AcDbLinetypeTableRecord
  2
ACAD_ISO12W100
 70
0
  3
ISO dash double-dot __ . . __ . . __ . . __ . . 
 72
65
 73
6
 40
21.0
 49
12.0
 74
0
 49
-2.9500000000000002
 74
0
 49
0.1
 74
0
 49
-2.8999999999999999
 74
0
 49
0.1
 74
0
 49
-2.9500000000000002
 74
0
  0
LTYPE
  5
42
100
AcDbSymbolTableRecord
100
AcDbLinetypeTableRecord
  2
ACAD_ISO07W100
 70
0
  3
ISO dot . . . . . . . . . . . . . . . . . . . . 
 72
65
 73
2
 40
3.0
 49
0.1
 74
0
 49
-2.8999999999999999
 74
0
  0
LTYPE
  5
43
100
AcDbSymbolTableRecord
100
AcDbLinetypeTableRecord
  2
ACAD_ISO06W100
 70
0
  3
ISO long-dash triple-dot ____ ... ____ ... ____
 72
65
 73
8
 40
36.000000000000007
 49
24.0
 74
0
 49
-2.9500000000000002
 74
0
 49
0.1
 74
0
 49
-2.8999999999999999
 74
0
 49
0.1
 74
0
 49
-2.8999999999999999
 74
0
 49
0.1
 74
0
 49
-2.9500000000000002
 74
0
  0
LTYPE
  5
44
100
AcDbSymbolTableRecord
100
AcDbLinetypeTableRecord
  2
CENTER
 70
0
  3
Center ____ _ ____ _ ____ _ ____ _ ____ _ ____
 72
65
 73
4
 40
50.799999999999983
 49
31.75
 74
0
 49
-6.349999999999997
 74
0
 49
6.349999999999997
 74
0
 49
-6.349999999999997
 74
0
  0
LTYPE
  5
45
100
AcDbSymbolTableRecord
100
AcDbLinetypeTableRecord
  2
HIDDEN
 70
0
  3
Hidden __ __ __ __ __ __ __ __ __ __ __ __ __ __
 72
65
 73
2
 40
9.524999999999995
 49
6.349999999999997
 74
0
 49
-3.174999999999998
 74
0
  0
LTYPE
  5
46
100
AcDbSymbolTableRecord
100
AcDbLinetypeTableRecord
  2
DOTX2
 70
0
  3
Dot (2x) .  .  .  .  .  .  .  .  .  .  .  .  .  .
 72
65
 73
2
 40
12.699999999999999
 49
0.1
 74
0
 49
-12.6
 74
0
  0
LTYPE
  5
47
100
AcDbSymbolTableRecord
100
AcDbLinetypeTableRecord
  2
PHANTOM
 70
0
  3
Phantom ______  __  __  ______  __  __  ______ 
 72
65
 73
6
 40
63.499999999999972
 49
31.75
 74
0
 49
-6.349999999999997
 74
0
 49
6.349999999999997
 74
0
 49
-6.349999999999997
 74
0
 49
6.349999999999997
 74
0
 49
-6.349999999999997
 74
0
  0
LTYPE
  5
48
100
AcDbSymbolTableRecord
100
AcDbLinetypeTableRecord
  2
ACAD_ISO08W100
 70
0
  3
ISO long-dash short-dash ____ __ ____ __ ____ _
 72
65
 73
4
 40
36.0
 49
24.0
 74
0
 49
-3.0
 74
0
 49
6.0
 74
0
 49
-3.0
 74
0
  0
LTYPE
  5
49
100
AcDbSymbolTableRecord
100
AcDbLinetypeTableRecord
  2
DASHEDX2
 70
0
  3
Dashed (2x) ____  ____  ____  ____  ____  ___
 72
65
 73
2
 40
38.099999999999994
 49
25.399999999999999
 74
0
 49
-12.699999999999999
 74
0
  0
LTYPE
  5
4A
100
AcDbSymbolTableRecord
100
AcDbLinetypeTableRecord
  2
DRAINAGE
 70
0
  3
Drainage ---->---->---->----
 72
65
 73
2
 40
10.16
 49
5.0800000000000001
 74
0
 49
5.0800000000000001
 74
0
  0
LTYPE
  5
4B
100
AcDbSymbolTableRecord
100
AcDbLinetypeTableRecord
  2
ACAD_ISO02W100
 70
0
  3
ISO dash __ __ __ __ __ __ __ __ __ __ __ __ __
 72
65
 73
2
 40
15.0
 49
12.0
 74
0
 49
-3.0
 74
0
  0
LTYPE
  5
4C
100
AcDbSymbolTableRecord
100
AcDbLinetypeTableRecord
  2
PHANTOM2
 70
0
  3
Phantom (.5x) ___ _ _ ___ _ _ ___ _ _ ___ _ _
 72
65
 73
6
 40
31.749999999999986
 49
15.875
 74
0
 49
-3.174999999999998
 74
0
 49
3.174999999999998
 74
0
 49
-3.174999999999998
 74
0
 49
3.174999999999998
 74
0
 49
-3.174999999999998
 74
0
  0
LTYPE
  5
4D
100
AcDbSymbolTableRecord
100
AcDbLinetypeTableRecord
  2
DASHED2
 70
0
  3
Dashed (.5x) _ _ _ _ _ _ _ _ _ _ _ _ _ _ _ _ _ 
 72
65
 73
2
 40
9.524999999999995
 49
6.349999999999997
 74
0
 49
-3.174999999999998
 74
0
  0
LTYPE
  5
4E
100
AcDbSymbolTableRecord
100
AcDbLinetypeTableRecord
  2
ACAD_ISO09W100
 70
0
  3
ISO long-dash double-short-dash ____ __ __ ____
 72
65
 73
6
 40
45.0
 49
24.0
 74
0
 49
-3.0
 74
0
 49
6.0
 74
0
 49
-3.0
 74
0
 49
6.0
 74
0
 49
-3.0
 74
0
  0
LTYPE
  5
4F
100
AcDbSymbolTableRecord
100
AcDbLinetypeTableRecord
  2
ACAD_ISO13W100
 70
0
  3
ISO double-dash double-dot __ __ . . __ __ . . _
 72
65
 73
8
 40
36.000000000000007
 49
12.0
 74
0
 49
-3.0
 74
0
 49
12.0
 74
0
 49
-2.9500000000000002
 74
0
 49
0.1
 74
0
 49
-2.8999999999999999
 74
0
 49
0.1
 74
0
 49
-2.9500000000000002
 74
0
  0
LTYPE
  5
50
100
AcDbSymbolTableRecord
100
AcDbLinetypeTableRecord
  2
TRACKS
 70
0
  3
Tracks -|-|-|-|-|-|-|-|-|-|-|-|-|-|-|-|-|-|-|-|-|-|-|-|-
 72
65
 73
2
 40
7.6200000000000001
 49
3.8100000000000001
 74
0
 49
3.8100000000000001
 74
0
  0
LTYPE
  5
51
100
AcDbSymbolTableRecord
100
AcDbLinetypeTableRecord
  2
DRAINAGE2
 70
0
  3
Drainage reversed----<----<----<----
 72
65
 73
2
 40
10.16
 49
5.0800000000000001
 74
0
 49
5.0800000000000001
 74
0
  0
LTYPE
  5
52
100
AcDbSymbolTableRecord
100
AcDbLinetypeTableRecord
  2
DOT2
 70
0
  3
Dot (.5x) ........................................
 72
65
 73
2
 40
3.1750000000000003
 49
0.1
 74
0
 49
-3.0750000000000002
 74
0
  0
LTYPE
  5
53
100
AcDbSymbolTableRecord
100
AcDbLinetypeTableRecord
  2
ZIGZAG
 70
0
  3
Zig zag /\/\/\/\/\/\/\/\/\/\/\/\/\/\/\/\/\/\/\/\/\/\/\/
 72
65
 73
4
 40
20.32254
 49
0.00254
 74
0
 49
-5.0800000000000001
 74
0
 49
-10.16
 74
0
 49
-5.0800000000000001
 74
0
  0
LTYPE
  5
54
100
AcDbSymbolTableRecord
100
AcDbLinetypeTableRecord
  2
DASHED
 70
0
  3
Dashed __ __ __ __ __ __ __ __ __ __ __ __ __ _
 72
65
 73
2
 40
19.049999999999997
 49
12.699999999999999
 74
0
 49
-6.349999999999997
 74
0
  0
LTYPE
  5
55
100
AcDbSymbolTableRecord
100
AcDbLinetypeTableRecord
  2
ACAD_ISO14W100
 70
0
  3
ISO dash triple-dot __ . . . __ . . . __ . . . _
 72
65
 73
8
 40
24.0
 49
12.0
 74
0
 49
-2.9500000000000002
 74
0
 49
0.1
 74
0
 49
-2.8999999999999999
 74
0
 49
0.1
 74
0
 49
-2.8999999999999999
 74
0
 49
0.1
 74
0
 49
-2.9500000000000002
 74
0
  0
LTYPE
  5
56
100
AcDbSymbolTableRecord
100
AcDbLinetypeTableRecord
  2
PHANTOMX2
 70
0
  3
Phantom (2x) ____________    ____    ____   _
 72
65
 73
6
 40
127.00000000000001
 49
63.5
 74
0
 49
-12.699999999999999
 74
0
 49
12.699999999999999
 74
0
 49
-12.699999999999999
 74
0
 49
12.699999999999999
 74
0
 49
-12.699999999999999
 74
0
  0
LTYPE
  5
57
100
AcDbSymbolTableRecord
100
AcDbLinetypeTableRecord
  2
DIVIDEX2
 70
0
  3
Divide (2x) ________  .  .  ________  .  .  _
 72
65
 73
6
 40
63.5
 49
25.399999999999999
 74
0
 49
-12.65
 74
0
 49
0.1
 74
0
 49
-12.6
 74
0
 49
0.1
 74
0
 49
-12.65
 74
0
  0
LTYPE
  5
58
100
AcDbSymbolTableRecord
100
AcDbLinetypeTableRecord
  2
BORDER
 70
0
  3
Border __ __ . __ __ . __ __ . __ __ . __ __ .
 72
65
 73
6
 40
44.449999999999996
 49
12.699999999999999
 74
0
 49
-6.349999999999997
 74
0
 49
12.699999999999999
 74
0
 49
-6.299999999999998
 74
0
 49
0.1
 74
0
 49
-6.299999999999998
 74
0
  0
LTYPE
  5
59
100
AcDbSymbolTableRecord
100
AcDbLinetypeTableRecord
  2
DIVIDE2
 70
0
  3
Divide (.5x) __..__..__..__..__..__..__..__.._
 72
65
 73
6
 40
15.874999999999998
 49
6.349999999999997
 74
0
 49
-3.125
 74
0
 49
0.1
 74
0
 49
-3.0750000000000002
 74
0
 49
0.1
 74
0
 49
-3.125
 74
0
  0
LTYPE
  5
5A
100
AcDbSymbolTableRecord
100
AcDbLinetypeTableRecord
  2
DOT
 70
0
  3
Dot . . . . . . . . . . . . . . . . . . . . . . . .
 72
65
 73
2
 40
6.3499999999999996
 49
0.1
 74
0
 49
-6.25
 74
0
  0
LTYPE
  5
5B
100
AcDbSymbolTableRecord
100
AcDbLinetypeTableRecord
  2
DASHDOT
 70
0
  3
Dash dot __ . __ . __ . __ . __ . __ . __ . __
 72
65
 73
4
 40
25.399999999999995
 49
12.699999999999999
 74
0
 49
-6.299999999999998
 74
0
 49
0.1
 74
0
 49
-6.299999999999998
 74
0
  0
LTYPE
  5
5C
100
AcDbSymbolTableRecord
100
AcDbLinetypeTableRecord
  2
FENCELINE1
 70
0
  3
Fenceline circle ----0-----0----0-----0----0-----0--
 72
65
 73
4
 40
36.829999999999998
 49
6.349999999999997
 74
0
 49
-2.54
 74
0
 49
-2.54
 74
0
 49
25.399999999999999
 74
0
  0
LTYPE
  5
5D
100
AcDbSymbolTableRecord
100
AcDbLinetypeTableRecord
  2
BATTING
 70
0
  3
Batting SSSSSSSSSSSSSSSSSSSSSSSSSSSSSSSSSSSSSSSSSSSSSSS
 72
65
 73
4
 40
10.16254
 49
0.00254
 74
0
 49
-2.54
 74
0
 49
-5.0800000000000001
 74
0
 49
-2.54
 74
0
  0
LTYPE
  5
5E
100
AcDbSymbolTableRecord
100
AcDbLinetypeTableRecord
  2
ACAD_ISO03W100
 70
0
  3
ISO dash space __    __    __    __    __    __
 72
65
 73
2
 40
30.0
 49
12.0
 74
0
 49
-18.0
 74
0
  0
LTYPE
  5
15
100
AcDbSymbolTableRecord
100
AcDbLinetypeTableRecord
  2
ByLayer
 70
0
  3

 72
65
 73
0
 40
0.0
  0
LTYPE
  5
5F
100
AcDbSymbolTableRecord
100
AcDbLinetypeTableRecord
  2
FENCELINE2
 70
0
  3
Fenceline square ----[]-----[]----[]-----[]----[]---
 72
65
 73
4
 40
36.829999999999998
 49
6.349999999999997
 74
0
 49
-2.54
 74
0
 49
-2.54
 74
0
 49
25.399999999999999
 74
0
  0
ENDTAB
  0
TABLE
  2
LAYER
  5
2
100
AcDbSymbolTable
 70
5
  0
LAYER
  5
60
100
AcDbSymbolTableRecord
100
AcDbLayerTableRecord
  2
grabado linea medio
 70
0
 62
3
420
65280
  6
Continuous
370
-3
390
F
  0
LAYER
  5
61
100
AcDbSymbolTableRecord
100
AcDbLayerTableRecord
  2
Grabado Superficie
 70
0
 62
30
420
16744192
  6
Continuous
370
25
390
F
  0
LAYER
  5
62
100
AcDbSymbolTableRecord
100
AcDbLayerTableRecord
  2
mesa de trabajo y auxiliares
 70
1
 62
-7
420
16777215
  6
Continuous
370
-3
390
F
  0
LAYER
  5
63
100
AcDbSymbolTableRecord
100
AcDbLayerTableRecord
  2
Corte exterior
 70
0
 62
1
420
16711680
  6
Continuous
370
-3
390
F
  0
LAYER
  5
10
100
AcDbSymbolTableRecord
100
AcDbLayerTableRecord
  2
0
 70
0
 62
7
420
16777215
  6
Continuous
370
-3
390
F
  0
ENDTAB
  0
TABLE
  2
STYLE
  5
3
100
AcDbSymbolTable
 70
1
  0
STYLE
  5
64
100
AcDbSymbolTableRecord
100
AcDbTextStyleTableRecord
  2
Standard
 70
0
 40
0.0
 41
1.0
 50
0.0
 71
0
 42
2.5
  3

  4

1001
ACAD
1000
txt
1071
0
  0
ENDTAB
  0
TABLE
  2
VIEW
  5
6
100
AcDbSymbolTable
 70
0
  0
ENDTAB
  0
TABLE
  2
UCS
  5
7
100
AcDbSymbolTable
 70
0
  0
ENDTAB
  0
TABLE
  2
APPID
  5
9
100
AcDbSymbolTable
 70
1
  0
APPID
  5
12
100
AcDbSymbolTableRecord
100
AcDbRegAppTableRecord
  2
ACAD
 70
0
  0
APPID
  5
65
100
AcDbSymbolTableRecord
100
AcDbRegAppTableRecord
  2
QCAD
 70
0
  0
ENDTAB
  0
TABLE
  2
DIMSTYLE
  5
A
100
AcDbSymbolTable
 70
1
100
AcDbDimStyleTable
 71
0
  0
DIMSTYLE
105
27
100
AcDbSymbolTableRecord
100
AcDbDimStyleTableRecord
  2
Standard
 41
2.5
 42
0.625
 43
3.75
 44
1.25
 70
0
 73
0
 74
0
 77
1
 78
8
140
2.5
141
2.5
143
0.03937007874016
147
0.625
171
3
172
1
271
2
272
2
274
3
278
44
283
0
284
8
340
64
  0
ENDTAB
  0
TABLE
  2
BLOCK_RECORD
  5
1
100
AcDbSymbolTable
 70
1
  0
BLOCK_RECORD
  5
1F
100
AcDbSymbolTableRecord
100
AcDbBlockTableRecord
  2
*Model_Space
340
22
  0
BLOCK_RECORD
  5
1B
100
AcDbSymbolTableRecord
100
AcDbBlockTableRecord
  2
*Paper_Space
340
1E
  0
BLOCK_RECORD
  5
23
100
AcDbSymbolTableRecord
100
AcDbBlockTableRecord
  2
*Paper_Space0
340
26
  0
ENDTAB
  0
ENDSEC
  0
SECTION
  2
BLOCKS
  0
BLOCK
  5
20
100
AcDbEntity
  8
0
100
AcDbBlockBegin
  2
*Model_Space
 70
0
 10
0.0
 20
0.0
 30
0.0
  3
*Model_Space
  1

  0
ENDBLK
  5
21
100
AcDbEntity
  8
0
100
AcDbBlockEnd
  0
BLOCK
  5
1C
100
AcDbEntity
 67
1
  8
0
100
AcDbBlockBegin
  2
*Paper_Space
 70
0
 10
0.0
 20
0.0
 30
0.0
  3
*Paper_Space
  1

  0
ENDBLK
  5
1D
100
AcDbEntity
 67
1
  8
0
100
AcDbBlockEnd
  0
BLOCK
  5
24
100
AcDbEntity
  8
0
100
AcDbBlockBegin
  2
*Paper_Space0
 70
0
 10
0.0
 20
0.0
 30
0.0
  3
*Paper_Space0
  1

  0
ENDBLK
  5
25
100
AcDbEntity
  8
0
100
AcDbBlockEnd
  0
ENDSEC
  0
SECTION
  2
ENTITIES
  0
LINE
  5
66
100
AcDbEntity
100
AcDbLine
  8
mesa de trabajo y auxiliares
 62
256
370
-1
 48
1.0
  6
ByLayer
 10
0.0
 20
200.0
 30
0.0
 11
0.0
 21
0.0
 31
0.0
  0
LINE
  5
67
100
AcDbEntity
100
AcDbLine
  8
mesa de trabajo y auxiliares
 62
256
370
-1
 48
1.0
  6
ByLayer
 10
150.0
 20
200.0
 30
0.0
 11
0.0
 21
200.0
 31
0.0
  0
LINE
  5
68
100
AcDbEntity
100
AcDbLine
  8
mesa de trabajo y auxiliares
 62
256
370
-1
 48
1.0
  6
ByLayer
 10
150.0
 20
0.0
 30
0.0
 11
150.0
 21
200.0
 31
0.0
  0
LINE
  5
69
100
AcDbEntity
100
AcDbLine
  8
mesa de trabajo y auxiliares
 62
256
370
-1
 48
1.0
  6
ByLayer
 10
0.0
 20
0.0
 30
0.0
 11
150.0
 21
0.0
 31
0.0
  0
LINE
  5
6A
100
AcDbEntity
100
AcDbLine
  8
mesa de trabajo y auxiliares
 62
256
370
-1
 48
1.0
  6
ACAD_ISO02W100
 10
1.0
 20
199.0
 30
0.0
 11
1.0
 21
1.0
 31
0.0
  0
LINE
  5
6B
100
AcDbEntity
100
AcDbLine
  8
mesa de trabajo y auxiliares
 62
256
370
-1
 48
1.0
  6
ByLayer
 10
149.0
 20
199.0
 30
0.0
 11
1.0
 21
199.0
 31
0.0
  0
LINE
  5
6C
100
AcDbEntity
100
AcDbLine
  8
mesa de trabajo y auxiliares
 62
256
370
-1
 48
1.0
  6
ACAD_ISO02W100
 10
149.0
 20
1.0
 30
0.0
 11
149.0
 21
199.0
 31
0.0
  0
LINE
  5
6D
100
AcDbEntity
100
AcDbLine
  8
mesa de trabajo y auxiliares
 62
256
370
-1
 48
1.0
  6
ACAD_ISO02W100
 10
1.0
 20
1.0
 30
0.0
 11
149.0
 21
1.0
 31
0.0
  0
LINE
  5
6E
100
AcDbEntity
100
AcDbLine
  8
Corte exterior
 62
256
370
-1
 48
1.0
  6
ByLayer
 10
67.05756148585489
 20
158.18378876560729
 30
0.0
 11
35.725491887181491
 21
158.18378876558299
 31
0.0
  0
LINE
  5
6F
100
AcDbEntity
100
AcDbLine
  8
Corte exterior
 62
256
370
-1
 48
1.0
  6
ByLayer
 10
79.999998929735312
 20
158.18378876561681
 30
0.0
 11
68.05756148585489
 21
158.18378876560729
 31
0.0
  0
LINE
  5
70
100
AcDbEntity
100
AcDbLine
  8
Corte exterior
 62
256
370
-1
 48
1.0
  6
ByLayer
 10
83.019277441958408
 20
113.6286633726087
 30
0.0
 11
83.019277441964434
 21
141.32231537189219
 31
0.0
  0
LWPOLYLINE
  5
71
  8
Corte exterior
 62
256
370
-1
 48
1.0
  6
ByLayer
100
AcDbEntity
100
AcDbPolyline
 90
4
 70
0
 10
82.999998929735312
 20
119.1837887656168
 30
0.0
 10
79.999998929735312
 20
119.1837887656168
 30
0.0
 10
79.999998929735312
 20
137.18378876561681
 30
0.0
 10
82.999998929735312
 20
137.18378876561681
 30
0.0
  0
LWPOLYLINE
  5
72
  8
Corte exterior
 62
256
370
-1
 48
1.0
  6
ByLayer
100
AcDbEntity
100
AcDbPolyline
 90
4
 70
0
 10
68.479901150266983
 20
98.183788765616839
 30
0.0
 10
79.999998929735312
 20
98.183788765616839
 30
0.0
 10
79.999998929735312
 20
109.1837887656168
 30
0.0
 10
82.999998929735312
 20
109.1837887656168
 30
0.0
  0
LINE
  5
73
100
AcDbEntity
100
AcDbLine
  8
Corte exterior
 62
256
370
-1
 48
1.0
  6
ByLayer
 10
46.737461399310959
 20
98.183788765616839
 30
0.0
 11
67.479901150266983
 21
98.183788765616839
 31
0.0
  0
LINE
  5
74
100
AcDbEntity
100
AcDbLine
  8
Corte exterior
 62
256
370
-1
 48
1.0
  6
ByLayer
 10
23.62535061078146
 20
98.183788765616839
 30
0.0
 11
45.737461399310952
 21
98.183788765616839
 31
0.0
  0
LINE
  5
75
100
AcDbEntity
100
AcDbLine
  8
Corte exterior
 62
256
370
-1
 48
1.0
  6
ByLayer
 10
82.996933655123655
 20
64.046113250630754
 30
0.0
 11
82.996933655109814
 21
20.807586488518918
 31
0.0
  0
ARC
  5
76
100
AcDbEntity
  8
Corte exterior
 62
256
370
-1
 48
1.0
  6
ByLayer
100
AcDbCircle
 10
88.046263334992176
 20
73.117422844392649
 30
0.0
 40
5.0494662195963516
100
AcDbArc
 50
44.911198268833679
 51
179.57864767526391
  0
ARC
  5
77
100
AcDbEntity
  8
Corte exterior
 62
256
370
-1
 48
1.0
  6
ByLayer
100
AcDbCircle
 10
95.163314043456538
 20
80.563243559843812
 30
0.0
 40
5.0000000000001732
100
AcDbArc
 50
224.91119826882368
 51
228.29432125281031
  0
ARC
  5
78
100
AcDbEntity
  8
Corte exterior
 62
256
370
-1
 48
1.0
  6
ByLayer
100
AcDbCircle
 10
143.9969347253714
 20
72.190184290950484
 30
0.0
 40
5.0000000000000968
100
AcDbArc
 50
360.0
 51
38.145068434411783
  0
LINE
  5
79
100
AcDbEntity
100
AcDbLine
  8
Corte exterior
 62
256
370
-1
 48
1.0
  6
ByLayer
 10
149.0
 20
18.19018429095334
 30
0.0
 11
149.00306634489289
 21
13.190184290953351
 31
0.0
  0
LWPOLYLINE
  5
7A
  8
Corte exterior
 62
256
370
-1
 48
1.0
  6
ByLayer
100
AcDbEntity
100
AcDbPolyline
 90
4
 70
1
 10
86.379971817754296
 20
65.032387533422323
 30
0.0
 42
0.4718704716119585
 10
92.487750556372376
 20
64.133272896772965
 30
0.0
 42
0.3332919814578803
 10
90.069442223315448
 20
71.388197895943691
 30
0.0
 42
0.441399706614611
 10
86.84503111257294
 20
71.264182083992011
 30
0.0
 42
0.1966106679659755
  0
LWPOLYLINE
  5
7B
  8
Corte exterior
 62
256
370
-1
 48
1.0
  6
ByLayer
100
AcDbEntity
100
AcDbPolyline
 90
3
 70
1
 10
115.8046503275734
 20
60.389677273289458
 30
0.0
 42
0.3293878202509383
 10
118.51150793302919
 20
70.268936110352271
 30
0.0
 42
0.3741661499466659
 10
114.1504783539575
 20
72.061326577475526
 30
0.0
 42
0.4538045496622863
  0
LWPOLYLINE
  5
7C
  8
Corte exterior
 62
256
370
-1
 48
1.0
  6
ByLayer
100
AcDbEntity
100
AcDbPolyline
 90
5
 70
1
 10
142.92829624799171
 20
53.031388675113469
 30
0.0
 42
-0.4735224208096878
 10
140.75176845130829
 20
60.454770464743653
 30
0.0
 42
0.1429821325529664
 10
141.9571516041444
 20
64.150969321582238
 30
0.0
 42
0.2617788241798207
 10
139.56557115887941
 20
71.017119632182045
 30
0.0
 42
0.4874892784437414
 10
135.93962661283231
 20
71.40285841367637
 30
0.0
 42
0.4264436621196164
  0
LWPOLYLINE
  5
7D
  8
Corte exterior
 62
256
370
-1
 48
1.0
  6
ByLayer
100
AcDbEntity
100
AcDbPolyline
 90
5
 70
1
 10
89.087915919346145
 20
131.69201752724109
 30
0.0
 42
0.4735224208096897
 10
91.264443716029646
 20
139.11539931687139
 30
0.0
 42
-0.1429821325529665
 10
90.059060563193455
 20
142.8115981737098
 30
0.0
 42
-0.2617788241798201
 10
92.450641008458504
 20
149.6777484843096
 30
0.0
 42
-0.4874892784437422
 10
96.076585554505556
 20
150.0634872658041
 30
0.0
 42
-0.4264436621196161
  0
LWPOLYLINE
  5
7E
  8
Corte exterior
 62
256
370
-1
 48
1.0
  6
ByLayer
100
AcDbEntity
100
AcDbPolyline
 90
3
 70
1
 10
117.8657338133803
 20
150.7219554296031
 30
0.0
 42
0.3741661499466654
 10
113.5047042343087
 20
148.92956496247999
 30
0.0
 42
0.329387820250938
 10
116.2115618397644
 20
139.05030612541719
 30
0.0
 42
0.4538045496622856
  0
LWPOLYLINE
  5
7F
  8
Corte exterior
 62
256
370
-1
 48
1.0
  6
ByLayer
100
AcDbEntity
100
AcDbPolyline
 90
4
 70
1
 10
145.1711810547649
 20
149.92481093611971
 30
0.0
 42
0.4413997066146173
 10
141.94676994402229
 20
150.04882674807141
 30
0.0
 42
0.3332919814578803
 10
139.52846161096551
 20
142.79390174890059
 30
0.0
 42
0.4718704716119597
 10
145.63624034958349
 20
143.6930163855499
 30
0.0
 42
0.1966106679659762
  0
LWPOLYLINE
  5
80
  8
Corte exterior
 62
256
370
-1
 48
1.0
  6
ByLayer
100
AcDbEntity
100
AcDbPolyline
 90
4
 70
1
 10
50.996933655106929
 20
93.183788765616839
 30
0.0
 10
50.996933655106929
 20
90.183788765616825
 30
0.0
 10
60.996933655106929
 20
90.183788765616825
 30
0.0
 10
60.996933655106929
 20
93.183788765616839
 30
0.0
  0
LWPOLYLINE
  5
81
  8
Corte exterior
 62
256
370
-1
 48
1.0
  6
ByLayer
100
AcDbEntity
100
AcDbPolyline
 90
4
 70
1
 10
22.996933655106911
 20
90.183788765616825
 30
0.0
 10
32.996933655106908
 20
90.183788765616825
 30
0.0
 10
32.996933655106908
 20
93.183788765616839
 30
0.0
 10
22.996933655106911
 20
93.183788765616839
 30
0.0
  0
LINE
  5
82
100
AcDbEntity
100
AcDbLine
  8
Corte exterior
 62
256
370
-1
 48
1.0
  6
ByLayer
 10
5.4000000000000048
 20
37.999999612388969
 30
0.0
 11
8.4000000000000057
 21
37.999999612388969
 31
0.0
  0
LINE
  5
83
100
AcDbEntity
100
AcDbLine
  8
Corte exterior
 62
256
370
-1
 48
1.0
  6
ByLayer
 10
75.596933655111812
 20
37.999999612387072
 30
0.0
 11
78.596933655111812
 21
37.999999612387072
 31
0.0
  0
LINE
  5
84
100
AcDbEntity
100
AcDbLine
  8
Corte exterior
 62
256
370
-1
 48
1.0
  6
ByLayer
 10
15.40000000000002
 20
37.999999612388983
 30
0.0
 11
18.40000000000002
 21
37.999999612388983
 31
0.0
  0
LINE
  5
85
100
AcDbEntity
100
AcDbLine
  8
Corte exterior
 62
256
370
-1
 48
1.0
  6
ByLayer
 10
15.4
 20
37.999999612388969
 30
0.0
 11
18.399999999999999
 21
37.999999612388969
 31
0.0
  0
LINE
  5
86
100
AcDbEntity
100
AcDbLine
  8
Corte exterior
 62
256
370
-1
 48
1.0
  6
ByLayer
 10
65.596933655111826
 20
37.999999612387072
 30
0.0
 11
68.596933655111826
 21
37.999999612387072
 31
0.0
  0
LINE
  5
87
100
AcDbEntity
100
AcDbLine
  8
Corte exterior
 62
256
370
-1
 48
1.0
  6
ByLayer
 10
5.400000000000019
 20
37.999999612388983
 30
0.0
 11
8.4000000000000217
 21
37.999999612388983
 31
0.0
  0
LINE
  5
88
100
AcDbEntity
100
AcDbLine
  8
Corte exterior
 62
256
370
-1
 48
1.0
  6
ByLayer
 10
101.0
 20
178.18378876561681
 30
0.0
 11
81.52006145526822
 21
178.18378876561681
 31
0.0
  0
LINE
  5
89
100
AcDbEntity
100
AcDbLine
  8
Corte exterior
 62
256
370
-1
 48
1.0
  6
ByLayer
 10
51.0
 20
173.18378876561681
 30
0.0
 11
51.0
 21
175.18378876561681
 31
0.0
  0
LINE
  5
8A
100
AcDbEntity
100
AcDbLine
  8
Corte exterior
 62
256
370
-1
 48
1.0
  6
ByLayer
 10
51.0
 20
193.18378876561681
 30
0.0
 11
51.0
 21
195.18378876561681
 31
0.0
  0
LINE
  5
8B
100
AcDbEntity
100
AcDbLine
  8
Corte exterior
 62
256
370
-1
 48
1.0
  6
ByLayer
 10
51.0
 20
160.18378876561681
 30
0.0
 11
51.0
 21
158.18378876561681
 31
0.0
  0
LWPOLYLINE
  5
8C
  8
Corte exterior
 62
256
370
-1
 48
1.0
  6
ByLayer
100
AcDbEntity
100
AcDbPolyline
 90
5
 70
0
 10
92.690748716731719
 20
158.17497761415819
 30
0.0
 42
0.0672161749646397
 10
91.099773988156016
 20
157.96174201026821
 30
0.0
 42
0.1872172123695706
 10
84.087030328327614
 20
153.5882894789863
 30
0.0
 42
0.167993384255817
 10
83.019277441966409
 20
150.5000160718412
 30
0.0
 10
83.019277441964675
 20
142.32231537189219
 30
0.0
  0
LWPOLYLINE
  5
8D
  8
Corte exterior
 62
256
370
-1
 48
1.0
  6
ByLayer
100
AcDbEntity
100
AcDbPolyline
 90
18
 70
0
 10
83.019277441958195
 20
112.6286633726087
 30
0.0
 10
83.019277441953051
 20
89.660621895614923
 30
0.0
 42
0.4138681267656445
 10
93.007482095105956
 20
79.660628852127729
 30
0.0
 10
139.00953790787051
 20
79.614845987427714
 30
0.0
 42
0.4144988869001926
 10
149.0192785122311
 20
89.614841243457946
 30
0.0
 10
149.0192785122112
 20
151.81518506255941
 30
0.0
 42
0.666081814874863
 10
140.39390744365329
 20
155.3430253414725
 30
0.0
 42
-0.014762731081887
 10
140.1794198879536
 20
155.1402141119778
 30
0.0
 42
-0.1812357870541776
 10
131.95277598403479
 20
151.95581666060869
 30
0.0
 42
-0.1067322421682088
 10
129.8850536415581
 20
152.37909245012639
 30
0.0
 42
0.0413431169954548
 10
120.5123697566476
 20
155.60976764710171
 30
0.0
 42
0.0844575517937216
 10
118.84065177351511
 20
155.7451078974689
 30
0.0
 42
0.2161539010494966
 10
112.7273844134064
 20
152.29753108607139
 30
0.0
 42
-0.0872451108744299
 10
111.478389432887
 20
151.0980025615832
 30
0.0
 42
-0.2841823292056624
 10
103.1052350539855
 20
150.78484021083011
 30
0.0
 42
-0.0974107642284768
 10
101.6424140848147
 20
152.04368066798659
 30
0.0
 42
0.0955351592573832
 10
95.218607846746707
 20
157.61341954058221
 30
0.0
 42
0.0672161749646398
 10
93.686037950100427
 20
158.09080777004181
 30
0.0
  0
LWPOLYLINE
  5
8E
  8
Corte exterior
 62
256
370
-1
 48
1.0
  6
ByLayer
100
AcDbEntity
100
AcDbPolyline
 90
4
 70
1
 10
114.8192785122317
 20
106.5952857752082
 30
0.0
 10
114.8192785122317
 20
101.5952857752082
 30
0.0
 10
111.8192785122317
 20
101.5952857752082
 30
0.0
 10
111.8192785122317
 20
106.5952857752082
 30
0.0
  0
LWPOLYLINE
  5
8F
  8
Corte exterior
 62
256
370
-1
 48
1.0
  6
ByLayer
100
AcDbEntity
100
AcDbPolyline
 90
4
 70
1
 10
117.19693365510609
 20
22.93465692308051
 30
0.0
 10
117.19693365510609
 20
27.93465692308051
 30
0.0
 10
120.19693365510609
 20
27.93465692308051
 30
0.0
 10
120.19693365510609
 20
22.93465692308051
 30
0.0
  0
LWPOLYLINE
  5
90
  8
Corte exterior
 62
256
370
-1
 48
1.0
  6
ByLayer
100
AcDbEntity
100
AcDbPolyline
 90
4
 70
1
 10
75.596933655111812
 20
47.999999612387057
 30
0.0
 10
75.596933655111812
 20
52.999999612387057
 30
0.0
 10
78.596933655111812
 20
52.999999612387057
 30
0.0
 10
78.596933655111812
 20
47.999999612387057
 30
0.0
  0
LWPOLYLINE
  5
91
  8
Corte exterior
 62
256
370
-1
 48
1.0
  6
ByLayer
100
AcDbEntity
100
AcDbPolyline
 90
4
 70
1
 10
5.400000000000019
 20
47.999999612388969
 30
0.0
 10
5.400000000000019
 20
52.999999612388969
 30
0.0
 10
8.4000000000000217
 20
52.999999612388969
 30
0.0
 10
8.4000000000000217
 20
47.999999612388969
 30
0.0
  0
LWPOLYLINE
  5
92
  8
Corte exterior
 62
256
370
-1
 48
1.0
  6
ByLayer
100
AcDbEntity
100
AcDbPolyline
 90
4
 70
1
 10
130.19693365510599
 20
27.93465692308051
 30
0.0
 10
130.19693365510599
 20
22.93465692308051
 30
0.0
 10
127.19693365510609
 20
22.93465692308051
 30
0.0
 10
127.19693365510609
 20
27.93465692308051
 30
0.0
  0
LWPOLYLINE
  5
93
  8
Corte exterior
 62
256
370
-1
 48
1.0
  6
ByLayer
100
AcDbEntity
100
AcDbPolyline
 90
4
 70
1
 10
101.8192785122317
 20
101.5952857752082
 30
0.0
 10
101.8192785122317
 20
106.5952857752082
 30
0.0
 10
104.8192785122317
 20
106.5952857752082
 30
0.0
 10
104.8192785122317
 20
101.5952857752082
 30
0.0
  0
LWPOLYLINE
  5
94
  8
Corte exterior
 62
256
370
-1
 48
1.0
  6
ByLayer
100
AcDbEntity
100
AcDbPolyline
 90
4
 70
1
 10
68.596933655111826
 20
52.999999612387057
 30
0.0
 10
68.596933655111826
 20
47.999999612387057
 30
0.0
 10
65.596933655111826
 20
47.999999612387057
 30
0.0
 10
65.596933655111826
 20
52.999999612387057
 30
0.0
  0
LWPOLYLINE
  5
95
  8
Corte exterior
 62
256
370
-1
 48
1.0
  6
ByLayer
100
AcDbEntity
100
AcDbPolyline
 90
4
 70
1
 10
15.40000000000002
 20
47.999999612388969
 30
0.0
 10
15.40000000000002
 20
52.999999612388969
 30
0.0
 10
18.40000000000002
 20
52.999999612388969
 30
0.0
 10
18.40000000000002
 20
47.999999612388969
 30
0.0
  0
LWPOLYLINE
  5
96
  8
Corte exterior
 62
256
370
-1
 48
1.0
  6
ByLayer
100
AcDbEntity
100
AcDbPolyline
 90
4
 70
1
 10
114.8192785122317
 20
86.595285775208225
 30
0.0
 10
111.8192785122317
 20
86.595285775208225
 30
0.0
 10
111.8192785122317
 20
91.595285775208268
 30
0.0
 10
114.8192785122317
 20
91.595285775208268
 30
0.0
  0
LWPOLYLINE
  5
97
  8
Corte exterior
 62
256
370
-1
 48
1.0
  6
ByLayer
100
AcDbEntity
100
AcDbPolyline
 90
4
 70
1
 10
120.19693365510609
 20
7.9346569230804889
 30
0.0
 10
117.19693365510609
 20
7.9346569230805102
 30
0.0
 10
117.19693365510609
 20
12.93465692308051
 30
0.0
 10
120.19693365510609
 20
12.93465692308051
 30
0.0
  0
LWPOLYLINE
  5
98
  8
Corte exterior
 62
256
370
-1
 48
1.0
  6
ByLayer
100
AcDbEntity
100
AcDbPolyline
 90
4
 70
1
 10
78.596933655111812
 20
32.999999612387072
 30
0.0
 10
75.596933655111812
 20
32.999999612387072
 30
0.0
 10
75.596933655111812
 20
37.999999612387072
 30
0.0
 10
78.596933655111812
 20
37.999999612387072
 30
0.0
  0
LWPOLYLINE
  5
99
  8
Corte exterior
 62
256
370
-1
 48
1.0
  6
ByLayer
100
AcDbEntity
100
AcDbPolyline
 90
4
 70
1
 10
8.4000000000000217
 20
32.999999612388983
 30
0.0
 10
5.400000000000019
 20
32.999999612388983
 30
0.0
 10
5.400000000000019
 20
37.999999612388983
 30
0.0
 10
8.4000000000000057
 20
37.999999612388969
 30
0.0
  0
LWPOLYLINE
  5
9A
  8
Corte exterior
 62
256
370
-1
 48
1.0
  6
ByLayer
100
AcDbEntity
100
AcDbPolyline
 90
4
 70
1
 10
130.19693365510599
 20
7.9346569230804889
 30
0.0
 10
127.19693365510609
 20
7.9346569230805102
 30
0.0
 10
127.19693365510609
 20
12.93465692308051
 30
0.0
 10
130.19693365510599
 20
12.93465692308051
 30
0.0
  0
LWPOLYLINE
  5
9B
  8
Corte exterior
 62
256
370
-1
 48
1.0
  6
ByLayer
100
AcDbEntity
100
AcDbPolyline
 90
4
 70
1
 10
104.8192785122317
 20
86.595285775208225
 30
0.0
 10
101.8192785122317
 20
86.595285775208225
 30
0.0
 10
101.8192785122317
 20
91.595285775208268
 30
0.0
 10
104.8192785122317
 20
91.595285775208268
 30
0.0
  0
LWPOLYLINE
  5
9C
  8
Corte exterior
 62
256
370
-1
 48
1.0
  6
ByLayer
100
AcDbEntity
100
AcDbPolyline
 90
4
 70
1
 10
68.596933655111826
 20
32.999999612387072
 30
0.0
 10
65.596933655111826
 20
32.999999612387072
 30
0.0
 10
65.596933655111826
 20
37.999999612387072
 30
0.0
 10
68.596933655111826
 20
37.999999612387072
 30
0.0
  0
LWPOLYLINE
  5
9D
  8
Corte exterior
 62
256
370
-1
 48
1.0
  6
ByLayer
100
AcDbEntity
100
AcDbPolyline
 90
4
 70
1
 10
18.40000000000002
 20
32.999999612388983
 30
0.0
 10
15.40000000000002
 20
32.999999612388983
 30
0.0
 10
15.40000000000002
 20
37.999999612388983
 30
0.0
 10
18.399999999999999
 20
37.999999612388969
 30
0.0
  0
LWPOLYLINE
  5
9E
  8
Corte exterior
 62
256
370
-1
 48
1.0
  6
ByLayer
100
AcDbEntity
100
AcDbPolyline
 90
10
 70
0
 10
24.038120763922009
 20
178.18378876561681
 30
0.0
 10
1.0
 20
178.18378876561681
 30
0.0
 10
1.0
 20
173.18378876561681
 30
0.0
 10
4.0
 20
173.18378876561681
 30
0.0
 10
4.0
 20
163.18378876561681
 30
0.0
 10
1.0
 20
163.18378876561681
 30
0.0
 10
1.0
 20
158.18378876561681
 30
0.0
 10
15.474923868865689
 20
158.1837887655677
 30
0.0
 10
17.965380864985359
 20
158.18378876557
 30
0.0
 10
34.725491887181498
 20
158.18378876558299
 30
0.0
  0
LWPOLYLINE
  5
9F
  8
Corte exterior
 62
256
370
-1
 48
1.0
  6
ByLayer
100
AcDbEntity
100
AcDbPolyline
 90
4
 70
0
 10
82.999998929735312
 20
147.18378876561681
 30
0.0
 10
79.999998929735312
 20
147.18378876561681
 30
0.0
 10
79.999998929735312
 20
158.18378876561681
 30
0.0
 10
92.690148687969383
 20
158.18378876561681
 30
0.0
  0
LWPOLYLINE
  5
A0
  8
Corte exterior
 62
256
370
-1
 48
1.0
  6
ByLayer
100
AcDbEntity
100
AcDbPolyline
 90
8
 70
0
 10
51.0
 20
183.18378876561681
 30
0.0
 10
54.0
 20
183.18378876561681
 30
0.0
 10
54.0
 20
193.18378876561681
 30
0.0
 10
51.0
 20
193.18378876561681
 30
0.0
 10
48.0
 20
193.18378876561681
 30
0.0
 10
48.0
 20
183.18378876561681
 30
0.0
 10
51.000000000000007
 20
183.18378876561681
 30
0.0
 10
51.0
 20
181.18378876561681
 30
0.0
  0
LWPOLYLINE
  5
A1
  8
Corte exterior
 62
256
370
-1
 48
1.0
  6
ByLayer
100
AcDbEntity
100
AcDbPolyline
 90
3
 70
0
 10
51.0
 20
180.18378876561681
 30
0.0
 10
51.0
 20
178.18378876561681
 30
0.0
 10
51.0
 20
176.18378876561681
 30
0.0
  0
LWPOLYLINE
  5
A2
  8
Corte exterior
 62
256
370
-1
 48
1.0
  6
ByLayer
100
AcDbEntity
100
AcDbPolyline
 90
8
 70
0
 10
51.0
 20
163.18378876561681
 30
0.0
 10
54.0
 20
163.18378876561681
 30
0.0
 10
54.0
 20
173.18378876561681
 30
0.0
 10
51.0
 20
173.18378876561681
 30
0.0
 10
48.0
 20
173.18378876561681
 30
0.0
 10
48.0
 20
163.18378876561681
 30
0.0
 10
51.000000000000007
 20
163.18378876561681
 30
0.0
 10
51.0
 20
161.18378876561681
 30
0.0
  0
LWPOLYLINE
  5
A3
  8
Corte exterior
 62
256
370
-1
 48
1.0
  6
ByLayer
100
AcDbEntity
100
AcDbPolyline
 90
7
 70
0
 10
51.0
 20
198.18378876561681
 30
0.0
 10
1.0
 20
198.18378876561681
 30
0.0
 10
1.0
 20
193.18378876561681
 30
0.0
 10
4.0
 20
193.18378876561681
 30
0.0
 10
4.0
 20
183.18378876561681
 30
0.0
 10
1.0
 20
183.18378876561681
 30
0.0
 10
1.0
 20
178.18378876561681
 30
0.0
  0
LWPOLYLINE
  5
A4
  8
Corte exterior
 62
256
370
-1
 48
1.0
  6
ByLayer
100
AcDbEntity
100
AcDbPolyline
 90
14
 70
0
 10
51.0
 20
196.18378876561681
 30
0.0
 10
51.0
 20
198.18378876561681
 30
0.0
 10
101.0
 20
198.18378876561681
 30
0.0
 10
101.0
 20
193.18378876561681
 30
0.0
 10
98.0
 20
193.18378876561681
 30
0.0
 10
98.0
 20
183.18378876561681
 30
0.0
 10
101.0
 20
183.18378876561681
 30
0.0
 10
101.0
 20
178.18378876561681
 30
0.0
 10
101.0
 20
173.18378876561681
 30
0.0
 10
98.0
 20
173.18378876561681
 30
0.0
 10
98.0
 20
163.18378876561681
 30
0.0
 10
101.0
 20
163.18378876561681
 30
0.0
 10
101.0
 20
158.18378876561681
 30
0.0
 10
93.690148687969383
 20
158.18378876561681
 30
0.0
  0
LWPOLYLINE
  5
A5
  8
Corte exterior
 62
256
370
-1
 48
1.0
  6
ByLayer
100
AcDbEntity
100
AcDbPolyline
 90
3
 70
0
 10
80.520061455268234
 20
178.18378876561681
 30
0.0
 10
51.0
 20
178.18378876561681
 30
0.0
 10
25.038120763922009
 20
178.18378876561681
 30
0.0
  0
LWPOLYLINE
  5
A6
  8
Corte exterior
 62
256
370
-1
 48
1.0
  6
ByLayer
100
AcDbEntity
100
AcDbPolyline
 90
4
 70
0
 10
77.99693365510673
 20
0.9999996123892191
 30
0.0
 42
0.4142135623730987
 10
82.99693365510673
 20
5.999999612389157
 30
0.0
 10
82.99693365510673
 20
11.30500946256713
 30
0.0
 10
82.996933655109501
 20
19.807586488518918
 30
0.0
  0
LWPOLYLINE
  5
A7
  8
Corte exterior
 62
256
370
-1
 48
1.0
  6
ByLayer
100
AcDbEntity
100
AcDbPolyline
 90
5
 70
0
 10
82.99693365510673
 20
10.954212391331801
 30
0.0
 42
0.4144988869001482
 10
93.006674259467388
 20
0.9542171352999702
 30
0.0
 10
139.00873007223191
 20
0.9999999999999975
 30
0.0
 42
0.4138681267655579
 10
148.9969347253847
 20
10.999993043490029
 30
0.0
 10
148.99693472537149
 20
71.839387219713515
 30
0.0
  0
LWPOLYLINE
  5
A8
  8
Corte exterior
 62
256
370
-1
 48
1.0
  6
ByLayer
100
AcDbEntity
100
AcDbPolyline
 90
12
 70
0
 10
147.92918183901031
 20
74.927660626858611
 30
0.0
 42
0.18721721236957
 10
140.1185229251669
 20
79.555510236151179
 30
0.0
 42
0.1738595791421592
 10
136.7976043205912
 20
78.952790688454527
 30
0.0
 42
0.0955351592573832
 10
130.37379808252319
 20
73.383051815858934
 30
0.0
 42
-0.0974107642284771
 10
128.9109771133522
 20
72.124211358702382
 30
0.0
 42
-0.2841823292056622
 10
120.5378227344509
 20
72.437373709455542
 30
0.0
 42
-0.0872451108744306
 10
119.2888277539315
 20
73.636902233943701
 30
0.0
 42
0.2161539010494962
 10
113.17556039382249
 20
77.084479045341169
 30
0.0
 42
0.0844575517937217
 10
111.5038424106902
 20
76.949138794973962
 30
0.0
 42
0.0413431169954549
 10
102.1311585257797
 20
73.718463597998777
 30
0.0
 42
-0.1067322421682086
 10
100.0634361833031
 20
73.295187808480947
 30
0.0
 42
-0.1812357870541775
 10
91.836792279384213
 20
76.479585259850182
 30
0.0
  0
LWPOLYLINE
  5
A9
  8
Corte exterior
 62
256
370
-1
 48
1.0
  6
ByLayer
100
AcDbEntity
100
AcDbPolyline
 90
5
 70
0
 10
82.996933655123954
 20
65.046113250630768
 30
0.0
 10
82.996933655126611
 20
73.505353281668732
 30
0.0
 10
82.993867310213844
 20
88.183788765616811
 30
0.0
 10
82.99693365510673
 20
93.183788765616839
 30
0.0
 42
0.4142135623730951
 10
77.99693365510673
 20
98.183788765616839
 30
0.0
  0
LWPOLYLINE
  5
AA
  8
Corte exterior
 62
256
370
-1
 48
1.0
  6
ByLayer
100
AcDbEntity
100
AcDbPolyline
 90
9
 70
0
 10
12.47384012409762
 20
98.183788765616839
 30
0.0
 10
6.0
 20
98.183788765616839
 30
0.0
 42
0.4142135623730951
 10
0.9999999999999992
 20
93.183788765616839
 30
0.0
 10
1.0
 20
85.183788765616825
 30
0.0
 10
1.0
 20
54.599999612388963
 30
0.0
 10
1.0
 20
31.399999612389031
 30
0.0
 10
1.0
 20
6.0
 30
0.0
 42
0.4142135623730951
 10
5.9999999999999991
 20
0.9999999999999982
 30
0.0
 10
77.996933655106787
 20
1.0
 30
0.0
  0
LWPOLYLINE
  5
AB
  8
Corte exterior
 62
256
370
-1
 48
1.0
  6
ByLayer
100
AcDbEntity
100
AcDbPolyline
 90
11
 70
0
 10
15.474923868865689
 20
158.1837887655677
 30
0.0
 42
0.2390881318594674
 10
13.40773147783846
 20
156.42535633542079
 30
0.0
 42
-0.364219591427097
 10
2.5570205712885228
 20
148.80655387495179
 30
0.0
 42
0.1700562922219356
 10
9.0648001718706794
 20
131.52599396014381
 30
0.0
 42
-0.2360679774995217
 10
1.0925498525463211
 20
125.4891715472118
 30
0.0
 42
0.1451126876393107
 10
6.4024882234154621
 20
115.5636173417179
 30
0.0
 42
-0.4142135623731086
 10
1.402541371712382
 20
115.54056347229179
 30
0.0
 42
0.1856776554371518
 10
8.4577962506383955
 20
103.5729664455688
 30
0.0
 42
-0.2135037451306591
 10
3.1350535372663848
 20
103.7199907326378
 30
0.0
 42
0.2741614411978559
 10
12.47492386888659
 20
98.183788765616882
 30
0.0
 10
22.62535061078146
 20
98.183788765616839
 30
0.0
  0
ENDSEC
  0
SECTION
  2
OBJECTS
  0
DICTIONARY
  5
C
100
AcDbDictionary
280
0
281
1
  3
ACAD_GROUP
350
D
  3
ACAD_LAYOUT
350
1A
  3
ACAD_MLINESTYLE
350
17
  3
ACAD_PLOTSETTINGS
350
19
  3
ACAD_PLOTSTYLENAME
350
E
  3
AcDbVariableDictionary
350
AC
  3
QCAD_OBJECTS
350
AD
  0
DICTIONARY
  5
D
100
AcDbDictionary
280
0
281
1
  0
ACDBDICTIONARYWDFLT
  5
E
100
AcDbDictionary
281
1
  3
Normal
350
F
100
AcDbDictionaryWithDefault
340
F
  0
ACDBPLACEHOLDER
  5
F
  0
DICTIONARY
  5
17
100
AcDbDictionary
280
0
281
1
  3
Standard
350
18
  0
MLINESTYLE
  5
18
100
AcDbMlineStyle
  2
STANDARD
 70
0
  3

 62
256
 51
90.0
 52
90.0
 71
2
 49
0.5
 62
256
  6
BYLAYER
 49
-0.5
 62
256
  6
BYLAYER
  0
DICTIONARY
  5
19
100
AcDbDictionary
280
0
281
1
  0
DICTIONARY
  5
1A
100
AcDbDictionary
281
1
  3
Layout1
350
1E
  3
Layout2
350
26
  3
Model
350
22
  0
LAYOUT
  5
1E
100
AcDbPlotSettings
  1

  2
none_device
  4

  6

 40
0.0
 41
0.0
 42
0.0
 43
0.0
 44
0.0
 45
0.0
 46
0.0
 47
0.0
 48
0.0
 49
0.0
140
0.0
141
0.0
142
1.0
143
1.0
 70
688
 72
0
 73
0
 74
5
  7

 75
16
147
1.0
148
0.0
149
0.0
100
AcDbLayout
  1
Layout1
 70
1
 71
1
 10
0.0
 20
0.0
 11
420.0
 21
297.0
 12
0.0
 22
0.0
 32
0.0
 14
100000000000000000000.0
 24
100000000000000000000.0
 34
100000000000000000000.0
 15
-100000000000000000000.0
 25
-100000000000000000000.0
 35
-100000000000000000000.0
146
0.0
 13
0.0
 23
0.0
 33
0.0
 16
1.0
 26
0.0
 36
0.0
 17
0.0
 27
1.0
 37
0.0
 76
0
330
1B
  0
LAYOUT
  5
22
100
AcDbPlotSettings
  1

  2
none_device
  4

  6

 40
0.0
 41
0.0
 42
0.0
 43
0.0
 44
0.0
 45
0.0
 46
0.0
 47
0.0
 48
0.0
 49
0.0
140
0.0
141
0.0
142
1.0
143
1.0
 70
1712
 72
0
 73
0
 74
0
  7

 75
0
147
1.0
148
0.0
149
0.0
100
AcDbLayout
  1
Model
 70
1
 71
0
 10
0.0
 20
0.0
 11
12.0
 21
9.0
 12
0.0
 22
0.0
 32
0.0
 14
0.0
 24
0.0
 34
0.0
 15
0.0
 25
0.0
 35
0.0
146
0.0
 13
0.0
 23
0.0
 33
0.0
 16
1.0
 26
0.0
 36
0.0
 17
0.0
 27
1.0
 37
0.0
 76
0
330
1F
  0
LAYOUT
  5
26
100
AcDbPlotSettings
  1

  2
none_device
  4

  6

 40
0.0
 41
0.0
 42
0.0
 43
0.0
 44
0.0
 45
0.0
 46
0.0
 47
0.0
 48
0.0
 49
0.0
140
0.0
141
0.0
142
1.0
143
1.0
 70
688
 72
0
 73
0
 74
5
  7

 75
16
147
1.0
148
0.0
149
0.0
100
AcDbLayout
  1
Layout2
 70
1
 71
2
 10
0.0
 20
0.0
 11
12.0
 21
9.0
 12
0.0
 22
0.0
 32
0.0
 14
0.0
 24
0.0
 34
0.0
 15
0.0
 25
0.0
 35
0.0
146
0.0
 13
0.0
 23
0.0
 33
0.0
 16
1.0
 26
0.0
 36
0.0
 17
0.0
 27
1.0
 37
0.0
 76
0
330
23
  0
DICTIONARY
  5
AC
100
AcDbDictionary
281
1
  3
DIMASSOC
350
AF
  3
HIDETEXT
350
AE
  0
DICTIONARYVAR
  5
AE
100
DictionaryVariables
280
0
  1
2
  0
DICTIONARYVAR
  5
AF
100
DictionaryVariables
280
0
  1
1
  0
DICTIONARY
  5
AD
100
AcDbDictionary
281
1
  3
ColorSettings/BackgroundColor
350
B0
  3
ColorSettings/ColorMode
350
B1
  3
Grid/DisplayGrid00
350
B2
  3
Grid/DisplayGrid01
350
B3
  3
Grid/DisplayGrid02
350
B4
  3
Grid/DisplayGrid03
350
B5
  3
Grid/GridSpacingX00
350
B6
  3
Grid/GridSpacingX01
350
B7
  3
Grid/GridSpacingX02
350
B8
  3
Grid/GridSpacingX03
350
B9
  3
Grid/GridSpacingY00
350
BA
  3
Grid/GridSpacingY01
350
BB
  3
Grid/GridSpacingY02
350
BC
  3
Grid/GridSpacingY03
350
BD
  3
Grid/IsometricGrid00
350
BE
  3
Grid/IsometricGrid01
350
BF
  3
Grid/IsometricGrid02
350
C0
  3
Grid/IsometricGrid03
350
C1
  3
Grid/IsometricProjection00
350
C2
  3
Grid/IsometricProjection01
350
C3
  3
Grid/IsometricProjection02
350
C4
  3
Grid/IsometricProjection03
350
C5
  3
Grid/MetaGridSpacingX00
350
C6
  3
Grid/MetaGridSpacingX01
350
C7
  3
Grid/MetaGridSpacingX02
350
C8
  3
Grid/MetaGridSpacingX03
350
C9
  3
Grid/MetaGridSpacingY00
350
CA
  3
Grid/MetaGridSpacingY01
350
CB
  3
Grid/MetaGridSpacingY02
350
CC
  3
Grid/MetaGridSpacingY03
350
CD
  3
MultiPageSettings/Columns
350
CE
  3
MultiPageSettings/GlueMarginsBottom
350
CF
  3
MultiPageSettings/GlueMarginsLeft
350
D0
  3
MultiPageSettings/GlueMarginsRight
350
D1
  3
MultiPageSettings/GlueMarginsTop
350
D2
  3
MultiPageSettings/PrintCropMarks
350
D3
  3
MultiPageSettings/Rows
350
D4
  3
PageSettings/OffsetX
350
D5
  3
PageSettings/OffsetY
350
D6
  3
PageSettings/PageOrientation
350
D7
  3
PageSettings/PaperHeight
350
D8
  3
PageSettings/PaperWidth
350
D9
  3
PageSettings/Scale
350
DA
  3
PageSettings/ShowPaperBorders
350
DB
  3
QCADVersion
350
DC
  3
UnitSettings/PaperUnit
350
DD
  3
ViewportCenter
350
DE
  3
ViewportHeight
350
DF
  3
ViewportWidth
350
E0
  0
XRECORD
  5
B0
330
AD
100
AcDbXrecord
280
1
1000
#ffffff
  0
XRECORD
  5
B1
330
AD
100
AcDbXrecord
280
1
1000
FullColor
  0
XRECORD
  5
B2
330
AD
100
AcDbXrecord
280
1
290
1
  0
XRECORD
  5
B3
330
AD
100
AcDbXrecord
280
1
290
1
  0
XRECORD
  5
B4
330
AD
100
AcDbXrecord
280
1
290
1
  0
XRECORD
  5
B5
330
AD
100
AcDbXrecord
280
1
290
1
  0
XRECORD
  5
B6
330
AD
100
AcDbXrecord
280
1
1000
auto
  0
XRECORD
  5
B7
330
AD
100
AcDbXrecord
280
1
1000
auto
  0
XRECORD
  5
B8
330
AD
100
AcDbXrecord
280
1
1000
auto
  0
XRECORD
  5
B9
330
AD
100
AcDbXrecord
280
1
1000
auto
  0
XRECORD
  5
BA
330
AD
100
AcDbXrecord
280
1
1000
auto
  0
XRECORD
  5
BB
330
AD
100
AcDbXrecord
280
1
1000
auto
  0
XRECORD
  5
BC
330
AD
100
AcDbXrecord
280
1
1000
auto
  0
XRECORD
  5
BD
330
AD
100
AcDbXrecord
280
1
1000
auto
  0
XRECORD
  5
BE
330
AD
100
AcDbXrecord
280
1
290
0
  0
XRECORD
  5
BF
330
AD
100
AcDbXrecord
280
1
290
0
  0
XRECORD
  5
C0
330
AD
100
AcDbXrecord
280
1
290
0
  0
XRECORD
  5
C1
330
AD
100
AcDbXrecord
280
1
290
0
  0
XRECORD
  5
C2
330
AD
100
AcDbXrecord
280
1
 90
0
  0
XRECORD
  5
C3
330
AD
100
AcDbXrecord
280
1
 90
0
  0
XRECORD
  5
C4
330
AD
100
AcDbXrecord
280
1
 90
0
  0
XRECORD
  5
C5
330
AD
100
AcDbXrecord
280
1
 90
0
  0
XRECORD
  5
C6
330
AD
100
AcDbXrecord
280
1
1000
auto
  0
XRECORD
  5
C7
330
AD
100
AcDbXrecord
280
1
1000
auto
  0
XRECORD
  5
C8
330
AD
100
AcDbXrecord
280
1
1000
auto
  0
XRECORD
  5
C9
330
AD
100
AcDbXrecord
280
1
1000
auto
  0
XRECORD
  5
CA
330
AD
100
AcDbXrecord
280
1
1000
auto
  0
XRECORD
  5
CB
330
AD
100
AcDbXrecord
280
1
1000
auto
  0
XRECORD
  5
CC
330
AD
100
AcDbXrecord
280
1
1000
auto
  0
XRECORD
  5
CD
330
AD
100
AcDbXrecord
280
1
1000
auto
  0
XRECORD
  5
CE
330
AD
100
AcDbXrecord
280
1
 90
1
  0
XRECORD
  5
CF
330
AD
100
AcDbXrecord
280
1
 40
10.0
  0
XRECORD
  5
D0
330
AD
100
AcDbXrecord
280
1
 40
10.0
  0
XRECORD
  5
D1
330
AD
100
AcDbXrecord
280
1
 40
10.0
  0
XRECORD
  5
D2
330
AD
100
AcDbXrecord
280
1
 40
10.0
  0
XRECORD
  5
D3
330
AD
100
AcDbXrecord
280
1
290
0
  0
XRECORD
  5
D4
330
AD
100
AcDbXrecord
280
1
 90
1
  0
XRECORD
  5
D5
330
AD
100
AcDbXrecord
280
1
 40
0.0
  0
XRECORD
  5
D6
330
AD
100
AcDbXrecord
280
1
 40
0.0
  0
XRECORD
  5
D7
330
AD
100
AcDbXrecord
280
1
1000
Portrait
  0
XRECORD
  5
D8
330
AD
100
AcDbXrecord
280
1
 40
279.39999999999998
  0
XRECORD
  5
D9
330
AD
100
AcDbXrecord
280
1
 40
215.90000000000001
  0
XRECORD
  5
DA
330
AD
100
AcDbXrecord
280
1
1000
1:1
  0
XRECORD
  5
DB
330
AD
100
AcDbXrecord
280
1
290
1
  0
XRECORD
  5
DC
330
AD
100
AcDbXrecord
280
1
1000
3.15.2
  0
XRECORD
  5
DD
330
AD
100
AcDbXrecord
280
1
 90
4
  0
XRECORD
  5
DF
330
AD
100
AcDbXrecord
280
1
 40
225.81357295027021
  0
XRECORD
  5
E0
330
AD
100
AcDbXrecord
280
1
 40
492.21642103843709
  0
ENDSEC
  0
EOF
