999
dxflib 3.12.2.0
  0
SECTION
  2
HEADER
  9
$ACADVER
  1
AC1015
  9
$HANDSEED
  5
FFFF
  9
$ANGBASE
 50
0.0
  9
$ANGDIR
 70
0
  9
$ATTMODE
 70
1
  9
$AUNITS
 70
0
  9
$AUPREC
 70
0
  9
$CECOLOR
 62
256
  9
$CELTSCALE
 40
1.0
  9
$CHAMFERA
 40
0.0
  9
$CHAMFERB
 40
0.0
  9
$CHAMFERC
 40
0.0
  9
$CHAMFERD
 40
0.0
  9
$CMLJUST
 70
0
  9
$CMLSCALE
 40
1.0
  9
$DIMADEC
 70
0
  9
$DIMALT
 70
0
  9
$DIMALTD
 70
2
  9
$DIMALTF
 40
25.399999999999999
  9
$DIMALTRND
 40
0.0
  9
$DIMALTTD
 70
2
  9
$DIMALTTZ
 70
0
  9
$DIMALTU
 70
2
  9
$DIMALTZ
 70
0
  9
$DIMAPOST
  1

  9
$DIMASZ
 40
2.5
  9
$DIMATFIT
 70
3
  9
$DIMAUNIT
 70
0
  9
$DIMAZIN
 70
2
  9
$DIMBLK
  1

  9
$DIMBLK1
  1

  9
$DIMBLK2
  1

  9
$DIMCEN
 40
0.09
  9
$DIMCLRD
 70
0
  9
$DIMCLRE
 70
0
  9
$DIMCLRT
 70
0
  9
$DIMDEC
 70
4
  9
$DIMDLE
 40
0.0
  9
$DIMDLI
 40
0.38
  9
$DIMDSEP
 70
46
  9
$DIMEXE
 40
1.25
  9
$DIMEXO
 40
0.625
  9
$DIMFRAC
 70
0
  9
$DIMGAP
 40
0.625
  9
$DIMJUST
 70
0
  9
$DIMLDRBLK
  1

  9
$DIMLFAC
 40
1.0
  9
$DIMLIM
 70
0
  9
$DIMLUNIT
 70
2
  9
$DIMLWD
 70
-2
  9
$DIMLWE
 70
-2
  9
$DIMPOST
  1

  9
$DIMRND
 40
0.0
  9
$DIMSAH
 70
0
  9
$DIMSCALE
 40
1.0
  9
$DIMSD1
 70
0
  9
$DIMSD2
 70
0
  9
$DIMSE1
 70
0
  9
$DIMSE2
 70
0
  9
$DIMSOXD
 70
0
  9
$DIMTAD
 70
0
  9
$DIMTDEC
 70
4
  9
$DIMTFAC
 40
1.0
  9
$DIMTIH
 70
1
  9
$DIMTIX
 70
0
  9
$DIMTM
 40
0.0
  9
$DIMTOFL
 70
0
  9
$DIMTOH
 70
1
  9
$DIMTOL
 70
0
  9
$DIMTOLJ
 70
1
  9
$DIMTP
 40
0.0
  9
$DIMTSZ
 40
0.0
  9
$DIMTVP
 40
0.0
  9
$DIMTXSTY
  7
Standard
  9
$DIMTXT
 40
2.5
  9
$DIMTZIN
 70
0
  9
$DIMUPT
 70
0
  9
$DIMZIN
 70
8
  9
$DISPSILH
 70
0
  9
$DWGCODEPAGE
  3
ANSI_1252
  9
$ELEVATION
 40
0.0
  9
$EXTMAX
 10
79.409953232323474
 20
166.30065533514991
 30
0.0
  9
$EXTMIN
 10
18.155330182903349
 20
8.2993446648501461
 30
0.0
  9
$FILLETRAD
 40
0.0
  9
$FILLMODE
 70
1
  9
$INSBASE
 10
0.0
 20
0.0
 30
0.0
  9
$INSUNITS
 70
4
  9
$LIMCHECK
 70
0
  9
$LIMMAX
 10
12.0
 20
9.0
  9
$LIMMIN
 10
0.0
 20
0.0
  9
$LTSCALE
 40
1.0
  9
$LUNITS
 70
2
  9
$LUPREC
 70
4
  9
$MAXACTVP
 70
64
  9
$MEASUREMENT
 70
1
  9
$MIRRTEXT
 70
0
  9
$ORTHOMODE
 70
0
  9
$PDMODE
 70
0
  9
$PDSIZE
 40
0
  9
$PELEVATION
 40
0.0
  9
$PEXTMAX
 10
-100000000000000000000.0
 20
-100000000000000000000.0
 30
-100000000000000000000.0
  9
$PEXTMIN
 10
100000000000000000000.0
 20
100000000000000000000.0
 30
100000000000000000000.0
  9
$PINSBASE
 10
0.0
 20
0.0
 30
0.0
  9
$PLIMCHECK
 70
0
  9
$PLIMMAX
 10
12.0
 20
9.0
  9
$PLIMMIN
 10
0.0
 20
0.0
  9
$PLINEGEN
 70
0
  9
$PLINEWID
 40
0.0
  9
$PROXYGRAPHICS
 70
1
  9
$PSLTSCALE
 70
1
  9
$PUCSNAME
  2

  9
$PUCSORG
 10
0.0
 20
0.0
 30
0.0
  9
$PUCSXDIR
 10
1.0
 20
0.0
 30
0.0
  9
$PUCSYDIR
 10
0.0
 20
1.0
 30
0.0
  9
$QTEXTMODE
 70
0
  9
$REGENMODE
 70
1
  9
$SHADEDGE
 70
3
  9
$SHADEDIF
 70
70
  9
$SKETCHINC
 40
0.1
  9
$SKPOLY
 70
0
  9
$SPLFRAME
 70
0
  9
$SPLINESEGS
 70
8
  9
$SPLINETYPE
 70
6
  9
$SURFTAB1
 70
6
  9
$SURFTAB2
 70
6
  9
$SURFTYPE
 70
6
  9
$SURFU
 70
6
  9
$SURFV
 70
6
  9
$TEXTSIZE
 40
2.5
  9
$TEXTSTYLE
  7
Standard
  9
$THICKNESS
 40
0.0
  9
$TILEMODE
 70
1
  9
$TRACEWID
 40
0.05
  9
$TREEDEPTH
 70
3020
  9
$UCSNAME
  2

  9
$UCSORG
 10
0.0
 20
0.0
 30
0.0
  9
$UCSXDIR
 10
1.0
 20
0.0
 30
0.0
  9
$UCSYDIR
 10
0.0
 20
1.0
 30
0.0
  9
$UNITMODE
 70
0
  9
$USERI1
 70
0
  9
$USERI2
 70
0
  9
$USERI3
 70
0
  9
$USERI4
 70
0
  9
$USERI5
 70
0
  9
$USERR1
 40
0.0
  9
$USERR2
 40
0.0
  9
$USERR3
 40
0.0
  9
$USERR4
 40
0.0
  9
$USERR5
 40
0.0
  9
$USRTIMER
 70
1
  9
$VISRETAIN
 70
1
  0
ENDSEC
  0
SECTION
  2
TABLES
  0
TABLE
  2
VPORT
  5
8
100
AcDbSymbolTable
 70
1
  0
VPORT
  5
30
100
AcDbSymbolTableRecord
100
AcDbViewportTableRecord
  2
*Active
 70
0
 10
0.0
 20
0.0
 11
1.0
 21
1.0
 12
286.30555555555549
 22
148.5
 13
0.0
 23
0.0
 14
10.0
 24
10.0
 15
10.0
 25
10.0
 16
0.0
 26
0.0
 36
1.0
 17
0.0
 27
0.0
 37
0.0
 40
297.0
 41
1.92798353909465
 42
50.0
 43
0.0
 44
0.0
 50
0.0
 51
0.0
 71
0
 72
100
 73
1
 74
3
 75
1
 76
1
 77
0
 78
0
281
0
 65
1
110
0.0
120
0.0
130
0.0
111
1.0
121
0.0
131
0.0
112
0.0
122
1.0
132
0.0
 79
0
146
0.0
  0
ENDTAB
  0
TABLE
  2
LTYPE
  5
5
100
AcDbSymbolTable
 70
50
  0
LTYPE
  5
16
100
AcDbSymbolTableRecord
100
AcDbLinetypeTableRecord
  2
Continuous
 70
0
  3
Solid line
 72
65
 73
0
 40
0.0
  0
LTYPE
  5
31
100
AcDbSymbolTableRecord
100
AcDbLinetypeTableRecord
  2
ACAD_ISO15W100
 70
0
  3
ISO double-dash triple-dot __ __ . . . __ __ . .
 72
65
 73
10
 40
39.000000000000007
 49
12.0
 74
0
 49
-3.0
 74
0
 49
12.0
 74
0
 49
-2.9500000000000002
 74
0
 49
0.1
 74
0
 49
-2.9000000000000004
 74
0
 49
0.1
 74
0
 49
-2.9000000000000004
 74
0
 49
0.1
 74
0
 49
-2.9500000000000002
 74
0
  0
LTYPE
  5
32
100
AcDbSymbolTableRecord
100
AcDbLinetypeTableRecord
  2
HOT_WATER_SUPPLY
 70
0
  3
Hot water supply ---- HW ---- HW ---- HW ----
 72
65
 73
3
 40
22.859999999999999
 49
12.699999999999999
 74
0
 49
-5.0800000000000001
 74
0
 49
-5.0800000000000001
 74
0
  0
LTYPE
  5
33
100
AcDbSymbolTableRecord
100
AcDbLinetypeTableRecord
  2
DIVIDE
 70
0
  3
Divide ____ . . ____ . . ____ . . ____ . . ____
 72
65
 73
6
 40
31.75
 49
12.699999999999999
 74
0
 49
-6.2999999999999989
 74
0
 49
0.1
 74
0
 49
-6.2499999999999991
 74
0
 49
0.1
 74
0
 49
-6.2999999999999989
 74
0
  0
LTYPE
  5
34
100
AcDbSymbolTableRecord
100
AcDbLinetypeTableRecord
  2
ACAD_ISO10W100
 70
0
  3
ISO dash dot __ . __ . __ . __ . __ . __ . __ . 
 72
65
 73
4
 40
18.0
 49
12.0
 74
0
 49
-2.9500000000000002
 74
0
 49
0.1
 74
0
 49
-2.9500000000000002
 74
0
  0
LTYPE
  5
35
100
AcDbSymbolTableRecord
100
AcDbLinetypeTableRecord
  2
GAS_LINE
 70
0
  3
Gas line ----GAS----GAS----GAS----GAS----GAS----GAS--
 72
65
 73
3
 40
24.129999999999999
 49
12.699999999999999
 74
0
 49
-5.0800000000000001
 74
0
 49
-6.3499999999999988
 74
0
  0
LTYPE
  5
36
100
AcDbSymbolTableRecord
100
AcDbLinetypeTableRecord
  2
ACAD_ISO04W100
 70
0
  3
ISO long-dash dot ____ . ____ . ____ . ____ . _
 72
65
 73
4
 40
30.0
 49
24.0
 74
0
 49
-2.9500000000000002
 74
0
 49
0.1
 74
0
 49
-2.9500000000000002
 74
0
  0
LTYPE
  5
37
100
AcDbSymbolTableRecord
100
AcDbLinetypeTableRecord
  2
CENTER2
 70
0
  3
Center (.5x) ___ _ ___ _ ___ _ ___ _ ___ _ ___
 72
65
 73
4
 40
28.574999999999996
 49
19.050000000000001
 74
0
 49
-3.1749999999999989
 74
0
 49
3.1749999999999989
 74
0
 49
-3.1749999999999989
 74
0
  0
LTYPE
  5
38
100
AcDbSymbolTableRecord
100
AcDbLinetypeTableRecord
  2
ACAD_ISO11W100
 70
0
  3
ISO double-dash dot __ __ . __ __ . __ __ . __ _
 72
65
 73
6
 40
33.0
 49
12.0
 74
0
 49
-3.0
 74
0
 49
12.0
 74
0
 49
-2.9500000000000002
 74
0
 49
0.1
 74
0
 49
-2.9500000000000002
 74
0
  0
LTYPE
  5
39
100
AcDbSymbolTableRecord
100
AcDbLinetypeTableRecord
  2
HIDDEN2
 70
0
  3
Hidden (.5x) _ _ _ _ _ _ _ _ _ _ _ _ _ _ _ _ _ 
 72
65
 73
2
 40
4.7624999999999975
 49
3.1749999999999989
 74
0
 49
-1.587499999999999
 74
0
  0
LTYPE
  5
3A
100
AcDbSymbolTableRecord
100
AcDbLinetypeTableRecord
  2
BORDERX2
 70
0
  3
Border (2x) ____  ____  .  ____  ____  .  ___
 72
65
 73
6
 40
88.899999999999977
 49
25.399999999999999
 74
0
 49
-12.699999999999999
 74
0
 49
25.399999999999999
 74
0
 49
-12.649999999999999
 74
0
 49
0.1
 74
0
 49
-12.649999999999999
 74
0
  0
LTYPE
  5
3B
100
AcDbSymbolTableRecord
100
AcDbLinetypeTableRecord
  2
ACAD_ISO05W100
 70
0
  3
ISO long-dash double-dot ____ .. ____ .. ____ . 
 72
65
 73
6
 40
33.000000000000007
 49
24.0
 74
0
 49
-2.9500000000000002
 74
0
 49
0.1
 74
0
 49
-2.9000000000000004
 74
0
 49
0.1
 74
0
 49
-2.9500000000000002
 74
0
  0
LTYPE
  5
3C
100
AcDbSymbolTableRecord
100
AcDbLinetypeTableRecord
  2
DASHDOTX2
 70
0
  3
Dash dot (2x) ____  .  ____  .  ____  .  ___
 72
65
 73
4
 40
50.799999999999997
 49
25.399999999999999
 74
0
 49
-12.649999999999999
 74
0
 49
0.1
 74
0
 49
-12.649999999999999
 74
0
  0
LTYPE
  5
3D
100
AcDbSymbolTableRecord
100
AcDbLinetypeTableRecord
  2
HIDDENX2
 70
0
  3
Hidden (2x) ____ ____ ____ ____ ____ ____ ____ 
 72
65
 73
2
 40
19.049999999999997
 49
12.699999999999999
 74
0
 49
-6.3499999999999988
 74
0
  0
LTYPE
  5
3E
100
AcDbSymbolTableRecord
100
AcDbLinetypeTableRecord
  2
CENTERX2
 70
0
  3
Center (2x) ________  __  ________  __  _____
 72
65
 73
4
 40
101.60000000000001
 49
63.5
 74
0
 49
-12.699999999999999
 74
0
 49
12.699999999999999
 74
0
 49
-12.699999999999999
 74
0
  0
LTYPE
  5
3F
100
AcDbSymbolTableRecord
100
AcDbLinetypeTableRecord
  2
BORDER2
 70
0
  3
Border (.5x) __.__.__.__.__.__.__.__.__.__.__.
 72
65
 73
6
 40
22.224999999999998
 49
6.3499999999999988
 74
0
 49
-3.1749999999999989
 74
0
 49
6.3499999999999988
 74
0
 49
-3.1249999999999991
 74
0
 49
0.1
 74
0
 49
-3.1249999999999991
 74
0
  0
LTYPE
  5
40
100
AcDbSymbolTableRecord
100
AcDbLinetypeTableRecord
  2
DASHDOT2
 70
0
  3
Dash dot (.5x) _._._._._._._._._._._._._._._.
 72
65
 73
4
 40
12.699999999999996
 49
6.3499999999999988
 74
0
 49
-3.1249999999999991
 74
0
 49
0.1
 74
0
 49
-3.1249999999999991
 74
0
  0
LTYPE
  5
41
100
AcDbSymbolTableRecord
100
AcDbLinetypeTableRecord
  2
ACAD_ISO12W100
 70
0
  3
ISO dash double-dot __ . . __ . . __ . . __ . . 
 72
65
 73
6
 40
21.0
 49
12.0
 74
0
 49
-2.9500000000000002
 74
0
 49
0.1
 74
0
 49
-2.9000000000000004
 74
0
 49
0.1
 74
0
 49
-2.9500000000000002
 74
0
  0
LTYPE
  5
42
100
AcDbSymbolTableRecord
100
AcDbLinetypeTableRecord
  2
ACAD_ISO07W100
 70
0
  3
ISO dot . . . . . . . . . . . . . . . . . . . . 
 72
65
 73
2
 40
3.0
 49
0.1
 74
0
 49
-2.8999999999999999
 74
0
  0
LTYPE
  5
43
100
AcDbSymbolTableRecord
100
AcDbLinetypeTableRecord
  2
ACAD_ISO06W100
 70
0
  3
ISO long-dash triple-dot ____ ... ____ ... ____
 72
65
 73
8
 40
36.000000000000007
 49
24.0
 74
0
 49
-2.9500000000000002
 74
0
 49
0.1
 74
0
 49
-2.9000000000000004
 74
0
 49
0.1
 74
0
 49
-2.9000000000000004
 74
0
 49
0.1
 74
0
 49
-2.9500000000000002
 74
0
  0
LTYPE
  5
44
100
AcDbSymbolTableRecord
100
AcDbLinetypeTableRecord
  2
CENTER
 70
0
  3
Center ____ _ ____ _ ____ _ ____ _ ____ _ ____
 72
65
 73
4
 40
50.800000000000004
 49
31.75
 74
0
 49
-6.3499999999999988
 74
0
 49
6.3499999999999988
 74
0
 49
-6.3499999999999988
 74
0
  0
LTYPE
  5
45
100
AcDbSymbolTableRecord
100
AcDbLinetypeTableRecord
  2
HIDDEN
 70
0
  3
Hidden __ __ __ __ __ __ __ __ __ __ __ __ __ __
 72
65
 73
2
 40
9.5249999999999986
 49
6.3499999999999988
 74
0
 49
-3.1749999999999989
 74
0
  0
LTYPE
  5
46
100
AcDbSymbolTableRecord
100
AcDbLinetypeTableRecord
  2
DOTX2
 70
0
  3
Dot (2x) .  .  .  .  .  .  .  .  .  .  .  .  .  .
 72
65
 73
2
 40
12.699999999999999
 49
0.1
 74
0
 49
-12.6
 74
0
  0
LTYPE
  5
47
100
AcDbSymbolTableRecord
100
AcDbLinetypeTableRecord
  2
PHANTOM
 70
0
  3
Phantom ______  __  __  ______  __  __  ______ 
 72
65
 73
6
 40
63.500000000000007
 49
31.75
 74
0
 49
-6.3499999999999988
 74
0
 49
6.3499999999999988
 74
0
 49
-6.3499999999999988
 74
0
 49
6.3499999999999988
 74
0
 49
-6.3499999999999988
 74
0
  0
LTYPE
  5
48
100
AcDbSymbolTableRecord
100
AcDbLinetypeTableRecord
  2
ACAD_ISO08W100
 70
0
  3
ISO long-dash short-dash ____ __ ____ __ ____ _
 72
65
 73
4
 40
36.0
 49
24.0
 74
0
 49
-3.0
 74
0
 49
6.0
 74
0
 49
-3.0
 74
0
  0
LTYPE
  5
49
100
AcDbSymbolTableRecord
100
AcDbLinetypeTableRecord
  2
DASHEDX2
 70
0
  3
Dashed (2x) ____  ____  ____  ____  ____  ___
 72
65
 73
2
 40
38.099999999999994
 49
25.399999999999999
 74
0
 49
-12.699999999999999
 74
0
  0
LTYPE
  5
4A
100
AcDbSymbolTableRecord
100
AcDbLinetypeTableRecord
  2
DRAINAGE
 70
0
  3
Drainage ---->---->---->----
 72
65
 73
2
 40
10.16
 49
5.0800000000000001
 74
0
 49
5.0800000000000001
 74
0
  0
LTYPE
  5
4B
100
AcDbSymbolTableRecord
100
AcDbLinetypeTableRecord
  2
ACAD_ISO02W100
 70
0
  3
ISO dash __ __ __ __ __ __ __ __ __ __ __ __ __
 72
65
 73
2
 40
15.0
 49
12.0
 74
0
 49
-3.0
 74
0
  0
LTYPE
  5
4C
100
AcDbSymbolTableRecord
100
AcDbLinetypeTableRecord
  2
PHANTOM2
 70
0
  3
Phantom (.5x) ___ _ _ ___ _ _ ___ _ _ ___ _ _
 72
65
 73
6
 40
31.749999999999986
 49
15.875
 74
0
 49
-3.1749999999999989
 74
0
 49
3.1749999999999989
 74
0
 49
-3.1749999999999989
 74
0
 49
3.1749999999999989
 74
0
 49
-3.1749999999999989
 74
0
  0
LTYPE
  5
4D
100
AcDbSymbolTableRecord
100
AcDbLinetypeTableRecord
  2
DASHED2
 70
0
  3
Dashed (.5x) _ _ _ _ _ _ _ _ _ _ _ _ _ _ _ _ _ 
 72
65
 73
2
 40
9.5249999999999986
 49
6.3499999999999988
 74
0
 49
-3.1749999999999989
 74
0
  0
LTYPE
  5
4E
100
AcDbSymbolTableRecord
100
AcDbLinetypeTableRecord
  2
ACAD_ISO09W100
 70
0
  3
ISO long-dash double-short-dash ____ __ __ ____
 72
65
 73
6
 40
45.0
 49
24.0
 74
0
 49
-3.0
 74
0
 49
6.0
 74
0
 49
-3.0
 74
0
 49
6.0
 74
0
 49
-3.0
 74
0
  0
LTYPE
  5
4F
100
AcDbSymbolTableRecord
100
AcDbLinetypeTableRecord
  2
ACAD_ISO13W100
 70
0
  3
ISO double-dash double-dot __ __ . . __ __ . . _
 72
65
 73
8
 40
36.000000000000007
 49
12.0
 74
0
 49
-3.0
 74
0
 49
12.0
 74
0
 49
-2.9500000000000002
 74
0
 49
0.1
 74
0
 49
-2.9000000000000004
 74
0
 49
0.1
 74
0
 49
-2.9500000000000002
 74
0
  0
LTYPE
  5
50
100
AcDbSymbolTableRecord
100
AcDbLinetypeTableRecord
  2
TRACKS
 70
0
  3
Tracks -|-|-|-|-|-|-|-|-|-|-|-|-|-|-|-|-|-|-|-|-|-|-|-|-
 72
65
 73
2
 40
7.6200000000000001
 49
3.8100000000000001
 74
0
 49
3.8100000000000001
 74
0
  0
LTYPE
  5
51
100
AcDbSymbolTableRecord
100
AcDbLinetypeTableRecord
  2
DRAINAGE2
 70
0
  3
Drainage reversed----<----<----<----
 72
65
 73
2
 40
10.16
 49
5.0800000000000001
 74
0
 49
5.0800000000000001
 74
0
  0
LTYPE
  5
52
100
AcDbSymbolTableRecord
100
AcDbLinetypeTableRecord
  2
DOT2
 70
0
  3
Dot (.5x) ........................................
 72
65
 73
2
 40
3.1749999999999989
 49
0.1
 74
0
 49
-3.0749999999999988
 74
0
  0
LTYPE
  5
53
100
AcDbSymbolTableRecord
100
AcDbLinetypeTableRecord
  2
ZIGZAG
 70
0
  3
Zig zag /\/\/\/\/\/\/\/\/\/\/\/\/\/\/\/\/\/\/\/\/\/\/\/
 72
65
 73
4
 40
20.32254
 49
0.00254
 74
0
 49
-5.0800000000000001
 74
0
 49
-10.16
 74
0
 49
-5.0800000000000001
 74
0
  0
LTYPE
  5
54
100
AcDbSymbolTableRecord
100
AcDbLinetypeTableRecord
  2
DASHED
 70
0
  3
Dashed __ __ __ __ __ __ __ __ __ __ __ __ __ _
 72
65
 73
2
 40
19.049999999999997
 49
12.699999999999999
 74
0
 49
-6.3499999999999988
 74
0
  0
LTYPE
  5
55
100
AcDbSymbolTableRecord
100
AcDbLinetypeTableRecord
  2
ACAD_ISO14W100
 70
0
  3
ISO dash triple-dot __ . . . __ . . . __ . . . _
 72
65
 73
8
 40
24.000000000000004
 49
12.0
 74
0
 49
-2.9500000000000002
 74
0
 49
0.1
 74
0
 49
-2.9000000000000004
 74
0
 49
0.1
 74
0
 49
-2.9000000000000004
 74
0
 49
0.1
 74
0
 49
-2.9500000000000002
 74
0
  0
LTYPE
  5
15
100
AcDbSymbolTableRecord
100
AcDbLinetypeTableRecord
  2
BYLAYER
 70
0
  3

 72
65
 73
0
 40
0.0
  0
LTYPE
  5
56
100
AcDbSymbolTableRecord
100
AcDbLinetypeTableRecord
  2
PHANTOMX2
 70
0
  3
Phantom (2x) ____________    ____    ____   _
 72
65
 73
6
 40
127.00000000000001
 49
63.5
 74
0
 49
-12.699999999999999
 74
0
 49
12.699999999999999
 74
0
 49
-12.699999999999999
 74
0
 49
12.699999999999999
 74
0
 49
-12.699999999999999
 74
0
  0
LTYPE
  5
14
100
AcDbSymbolTableRecord
100
AcDbLinetypeTableRecord
  2
BYBLOCK
 70
0
  3

 72
65
 73
0
 40
0.0
  0
LTYPE
  5
57
100
AcDbSymbolTableRecord
100
AcDbLinetypeTableRecord
  2
DIVIDEX2
 70
0
  3
Divide (2x) ________  .  .  ________  .  .  _
 72
65
 73
6
 40
63.5
 49
25.399999999999999
 74
0
 49
-12.649999999999999
 74
0
 49
0.1
 74
0
 49
-12.599999999999998
 74
0
 49
0.1
 74
0
 49
-12.649999999999999
 74
0
  0
LTYPE
  5
58
100
AcDbSymbolTableRecord
100
AcDbLinetypeTableRecord
  2
BORDER
 70
0
  3
Border __ __ . __ __ . __ __ . __ __ . __ __ .
 72
65
 73
6
 40
44.449999999999996
 49
12.699999999999999
 74
0
 49
-6.3499999999999988
 74
0
 49
12.699999999999999
 74
0
 49
-6.2999999999999989
 74
0
 49
0.1
 74
0
 49
-6.2999999999999989
 74
0
  0
LTYPE
  5
59
100
AcDbSymbolTableRecord
100
AcDbLinetypeTableRecord
  2
DIVIDE2
 70
0
  3
Divide (.5x) __..__..__..__..__..__..__..__.._
 72
65
 73
6
 40
15.874999999999996
 49
6.3499999999999988
 74
0
 49
-3.1249999999999991
 74
0
 49
0.1
 74
0
 49
-3.0749999999999993
 74
0
 49
0.1
 74
0
 49
-3.1249999999999991
 74
0
  0
LTYPE
  5
5A
100
AcDbSymbolTableRecord
100
AcDbLinetypeTableRecord
  2
DOT
 70
0
  3
Dot . . . . . . . . . . . . . . . . . . . . . . . .
 72
65
 73
2
 40
6.3499999999999988
 49
0.1
 74
0
 49
-6.2499999999999991
 74
0
  0
LTYPE
  5
5B
100
AcDbSymbolTableRecord
100
AcDbLinetypeTableRecord
  2
DASHDOT
 70
0
  3
Dash dot __ . __ . __ . __ . __ . __ . __ . __
 72
65
 73
4
 40
25.399999999999999
 49
12.699999999999999
 74
0
 49
-6.2999999999999989
 74
0
 49
0.1
 74
0
 49
-6.2999999999999989
 74
0
  0
LTYPE
  5
5C
100
AcDbSymbolTableRecord
100
AcDbLinetypeTableRecord
  2
FENCELINE1
 70
0
  3
Fenceline circle ----0-----0----0-----0----0-----0--
 72
65
 73
4
 40
36.829999999999998
 49
6.3499999999999988
 74
0
 49
-2.54
 74
0
 49
-2.54
 74
0
 49
25.399999999999999
 74
0
  0
LTYPE
  5
5D
100
AcDbSymbolTableRecord
100
AcDbLinetypeTableRecord
  2
BATTING
 70
0
  3
Batting SSSSSSSSSSSSSSSSSSSSSSSSSSSSSSSSSSSSSSSSSSSSSSS
 72
65
 73
4
 40
10.16254
 49
0.00254
 74
0
 49
-2.54
 74
0
 49
-5.0800000000000001
 74
0
 49
-2.54
 74
0
  0
LTYPE
  5
5E
100
AcDbSymbolTableRecord
100
AcDbLinetypeTableRecord
  2
ACAD_ISO03W100
 70
0
  3
ISO dash space __    __    __    __    __    __
 72
65
 73
2
 40
30.0
 49
12.0
 74
0
 49
-18.0
 74
0
  0
LTYPE
  5
5F
100
AcDbSymbolTableRecord
100
AcDbLinetypeTableRecord
  2
FENCELINE2
 70
0
  3
Fenceline square ----[]-----[]----[]-----[]----[]---
 72
65
 73
4
 40
36.829999999999998
 49
6.3499999999999988
 74
0
 49
-2.54
 74
0
 49
-2.54
 74
0
 49
25.399999999999999
 74
0
  0
ENDTAB
  0
TABLE
  2
LAYER
  5
2
100
AcDbSymbolTable
 70
3
  0
LAYER
  5
60
100
AcDbSymbolTableRecord
100
AcDbLayerTableRecord
  2
grabado linea medio
 70
1
 62
-3
420
65280
  6
Continuous
370
-3
390
F
  0
LAYER
  5
61
100
AcDbSymbolTableRecord
100
AcDbLayerTableRecord
  2
Corte exterior
 70
0
 62
1
420
16711680
  6
Continuous
370
-3
390
F
  0
LAYER
  5
10
100
AcDbSymbolTableRecord
100
AcDbLayerTableRecord
  2
0
 70
0
 62
7
420
16777215
  6
Continuous
370
25
390
F
  0
ENDTAB
  0
TABLE
  2
STYLE
  5
3
100
AcDbSymbolTable
 70
1
  0
STYLE
  5
62
100
AcDbSymbolTableRecord
100
AcDbTextStyleTableRecord
  2
Standard
 70
0
 40
0.0
 41
1.0
 50
0.0
 71
0
 42
2.5
  3

  4

1001
ACAD
1000
txt
1071
0
  0
ENDTAB
  0
TABLE
  2
VIEW
  5
6
100
AcDbSymbolTable
 70
0
  0
ENDTAB
  0
TABLE
  2
UCS
  5
7
100
AcDbSymbolTable
 70
0
  0
ENDTAB
  0
TABLE
  2
APPID
  5
9
100
AcDbSymbolTable
 70
1
  0
APPID
  5
12
100
AcDbSymbolTableRecord
100
AcDbRegAppTableRecord
  2
ACAD
 70
0
  0
APPID
  5
63
100
AcDbSymbolTableRecord
100
AcDbRegAppTableRecord
  2
QCAD
 70
0
  0
ENDTAB
  0
TABLE
  2
DIMSTYLE
  5
A
100
AcDbSymbolTable
 70
1
100
AcDbDimStyleTable
 71
0
  0
DIMSTYLE
105
27
100
AcDbSymbolTableRecord
100
AcDbDimStyleTableRecord
  2
Standard
 41
2.5
 42
0.625
 43
3.75
 44
1.25
 70
0
 73
0
 74
0
 77
1
 78
8
140
2.5
141
2.5
143
0.03937007874016
147
0.625
171
3
172
1
271
2
272
2
274
3
278
44
283
0
284
8
340
62
  0
ENDTAB
  0
TABLE
  2
BLOCK_RECORD
  5
1
100
AcDbSymbolTable
 70
1
  0
BLOCK_RECORD
  5
1F
100
AcDbSymbolTableRecord
100
AcDbBlockTableRecord
  2
*Model_Space
340
22
  0
BLOCK_RECORD
  5
1B
100
AcDbSymbolTableRecord
100
AcDbBlockTableRecord
  2
*Paper_Space
340
1E
  0
BLOCK_RECORD
  5
23
100
AcDbSymbolTableRecord
100
AcDbBlockTableRecord
  2
*Paper_Space0
340
26
  0
ENDTAB
  0
ENDSEC
  0
SECTION
  2
BLOCKS
  0
BLOCK
  5
20
100
AcDbEntity
  8
0
100
AcDbBlockBegin
  2
*Model_Space
 70
0
 10
0.0
 20
0.0
 30
0.0
  3
*Model_Space
  1

  0
ENDBLK
  5
21
100
AcDbEntity
  8
0
100
AcDbBlockEnd
  0
BLOCK
  5
1C
100
AcDbEntity
 67
1
  8
0
100
AcDbBlockBegin
  2
*Paper_Space
 70
0
 10
0.0
 20
0.0
 30
0.0
  3
*Paper_Space
  1

  0
ENDBLK
  5
1D
100
AcDbEntity
 67
1
  8
0
100
AcDbBlockEnd
  0
BLOCK
  5
24
100
AcDbEntity
  8
0
100
AcDbBlockBegin
  2
*Paper_Space0
 70
0
 10
0.0
 20
0.0
 30
0.0
  3
*Paper_Space0
  1

  0
ENDBLK
  5
25
100
AcDbEntity
  8
0
100
AcDbBlockEnd
  0
ENDSEC
  0
SECTION
  2
ENTITIES
  0
CIRCLE
  5
64
100
AcDbEntity
100
AcDbCircle
  8
Corte exterior
 62
256
370
-1
 48
1.0
  6
BYLAYER
 10
35.782641707613408
 20
134.13137944529359
 30
0.0
 40
8.0
  0
CIRCLE
  5
65
100
AcDbEntity
100
AcDbCircle
  8
Corte exterior
 62
256
370
-1
 48
1.0
  6
BYLAYER
 10
61.782641707613386
 20
134.13137944529359
 30
0.0
 40
8.0
  0
ARC
  5
66
100
AcDbEntity
  8
grabado linea medio
 62
256
370
-1
 48
1.0
  6
BYLAYER
100
AcDbCircle
 10
35.599274503773451
 20
61.86003501256819
 30
0.0
 40
2.3551554933576169
100
AcDbArc
 50
230.1535987600102
 51
241.2126677787445
  0
ARC
  5
67
100
AcDbEntity
  8
grabado linea medio
 62
256
370
-1
 48
1.0
  6
BYLAYER
100
AcDbCircle
 10
40.770497635320503
 20
67.098876900582681
 30
0.0
 40
9.7101268941246524
100
AcDbArc
 50
205.42176232457822
 51
226.53061402700931
  0
ARC
  5
68
100
AcDbEntity
  8
grabado linea medio
 62
256
370
-1
 48
1.0
  6
BYLAYER
100
AcDbCircle
 10
40.770497635320723
 20
67.098876900582709
 30
0.0
 40
9.7101268941248566
100
AcDbArc
 50
184.3129106221466
 51
205.42176232457783
  0
ARC
  5
69
100
AcDbEntity
  8
grabado linea medio
 62
256
370
-1
 48
1.0
  6
BYLAYER
100
AcDbCircle
 10
33.443015255452401
 20
66.398942237692594
 30
0.0
 40
2.355342408383994
100
AcDbArc
 50
168.8558564053412
 51
180.73709750359711
  0
ARC
  5
6A
100
AcDbEntity
  8
grabado linea medio
 62
256
370
-1
 48
1.0
  6
BYLAYER
100
AcDbCircle
 10
32.713806682130851
 20
66.58263488468782
 30
0.0
 40
1.604861016288714
100
AcDbArc
 50
161.46327915798341
 51
170.25866909098431
  0
ARC
  5
6B
100
AcDbEntity
  8
grabado linea medio
 62
256
370
-1
 48
1.0
  6
BYLAYER
100
AcDbCircle
 10
32.36042769325325
 20
66.721487075765594
 30
0.0
 40
1.225824487308411
100
AcDbArc
 50
154.73193618073529
 51
162.36564390491969
  0
ARC
  5
6C
100
AcDbEntity
  8
grabado linea medio
 62
256
370
-1
 48
1.0
  6
BYLAYER
100
AcDbCircle
 10
32.155047356555329
 20
66.831669327450413
 30
0.0
 40
0.9931352652035487
100
AcDbArc
 50
148.152067225351
 51
155.42267918529399
  0
ARC
  5
6D
100
AcDbEntity
  8
grabado linea medio
 62
256
370
-1
 48
1.0
  6
BYLAYER
100
AcDbCircle
 10
32.024344333416167
 20
66.923218531840149
 30
0.0
 40
0.8338483461551179
100
AcDbArc
 50
141.22569628812019
 51
148.75667889158689
  0
ARC
  5
6E
100
AcDbEntity
  8
grabado linea medio
 62
256
370
-1
 48
1.0
  6
BYLAYER
100
AcDbCircle
 10
31.927981450904209
 20
67.011686506924889
 30
0.0
 40
0.703371444299209
100
AcDbArc
 50
132.96353107827619
 51
141.92818538014507
  0
ARC
  5
6F
100
AcDbEntity
  8
grabado linea medio
 62
256
370
-1
 48
1.0
  6
BYLAYER
100
AcDbCircle
 10
31.8978968081923
 20
67.055402710876479
 30
0.0
 40
0.6509232755248979
100
AcDbArc
 50
115.42176232456792
 51
133.64822490170619
  0
ARC
  5
70
100
AcDbEntity
  8
grabado linea medio
 62
256
370
-1
 48
1.0
  6
BYLAYER
100
AcDbCircle
 10
31.897896808192399
 20
67.05540271087645
 30
0.0
 40
0.6509232755249811
100
AcDbArc
 50
97.195299747435925
 51
115.4217623245746
  0
ARC
  5
71
100
AcDbEntity
  8
grabado linea medio
 62
256
370
-1
 48
1.0
  6
BYLAYER
100
AcDbCircle
 10
31.91279875888161
 20
67.004470166460152
 30
0.0
 40
0.7033714442994079
100
AcDbArc
 50
88.915339269030923
 51
97.879993570899714
  0
ARC
  5
72
100
AcDbEntity
  8
grabado linea medio
 62
256
370
-1
 48
1.0
  6
BYLAYER
100
AcDbCircle
 10
31.920551563614751
 20
66.873885780869074
 30
0.0
 40
0.8338483461546498
100
AcDbArc
 50
82.086845757574537
 51
89.617828361041205
  0
ARC
  5
73
100
AcDbEntity
  8
grabado linea medio
 62
256
370
-1
 48
1.0
  6
BYLAYER
100
AcDbCircle
 10
31.909009875351959
 20
66.714727600072962
 30
0.0
 40
0.9931352652036464
100
AcDbArc
 50
75.420845463873263
 51
82.691457423816288
  0
ARC
  5
74
100
AcDbEntity
  8
grabado linea medio
 62
256
370
-1
 48
1.0
  6
BYLAYER
100
AcDbCircle
 10
31.864762430972711
 20
66.485897149838593
 30
0.0
 40
1.225824487308685
100
AcDbArc
 50
68.477880744214687
 51
76.111588468399063
  0
ARC
  5
75
100
AcDbEntity
  8
grabado linea medio
 62
256
370
-1
 48
1.0
  6
BYLAYER
100
AcDbCircle
 10
31.749294023409501
 20
66.124201576736198
 30
0.0
 40
1.6048610162886749
100
AcDbArc
 50
60.584855558174489
 51
69.380245491175415
  0
ARC
  5
76
100
AcDbEntity
  8
grabado linea medio
 62
256
370
-1
 48
1.0
  6
BYLAYER
100
AcDbCircle
 10
31.431282002521019
 20
65.442764502211958
 30
0.0
 40
2.3553424083838652
100
AcDbArc
 50
61.165496164327877
 51
61.987668243849413
  0
ARC
  5
77
100
AcDbEntity
  8
grabado linea medio
 62
256
370
-1
 48
1.0
  6
BYLAYER
100
AcDbCircle
 10
80.271314656454365
 20
65.455217690563344
 30
0.0
 40
2.35530000391956
100
AcDbArc
 50
118.64877932403539
 51
119.47095140355668
  0
ARC
  5
78
100
AcDbEntity
  8
grabado linea medio
 62
256
370
-1
 48
1.0
  6
BYLAYER
100
AcDbCircle
 10
79.930293428191504
 20
66.124201576736255
 30
0.0
 40
1.604861016288611
100
AcDbArc
 50
110.61975450882481
 51
119.4151444418261
  0
ARC
  5
79
100
AcDbEntity
  8
grabado linea medio
 62
256
370
-1
 48
1.0
  6
BYLAYER
100
AcDbCircle
 10
79.814825020628348
 20
66.485897149838465
 30
0.0
 40
1.2258244873088131
100
AcDbArc
 50
103.88841153160099
 51
111.5221192557847
  0
ARC
  5
7A
100
AcDbEntity
  8
grabado linea medio
 62
256
370
-1
 48
1.0
  6
BYLAYER
100
AcDbCircle
 10
79.770577576249053
 20
66.714727600073061
 30
0.0
 40
0.9931352652035234
100
AcDbArc
 50
97.308542576183342
 51
104.57915453612711
  0
ARC
  5
7B
100
AcDbEntity
  8
grabado linea medio
 62
256
370
-1
 48
1.0
  6
BYLAYER
100
AcDbCircle
 10
79.759035887985547
 20
66.873885780868832
 30
0.0
 40
0.8338483461547807
100
AcDbArc
 50
90.382171638906755
 51
97.913154242372514
  0
ARC
  5
7C
100
AcDbEntity
  8
grabado linea medio
 62
256
370
-1
 48
1.0
  6
BYLAYER
100
AcDbCircle
 10
79.766788692720027
 20
67.004470166460294
 30
0.0
 40
0.7033714442991687
100
AcDbArc
 50
82.120006429151317
 51
91.084660731020662
  0
ARC
  5
7D
100
AcDbEntity
  8
grabado linea medio
 62
256
370
-1
 48
1.0
  6
BYLAYER
100
AcDbCircle
 10
79.781690643408623
 20
67.05540271087645
 30
0.0
 40
0.6509232755249788
100
AcDbArc
 50
64.578237675425214
 51
82.804700252563478
  0
ARC
  5
7E
100
AcDbEntity
  8
grabado linea medio
 62
256
370
-1
 48
1.0
  6
BYLAYER
100
AcDbCircle
 10
79.781690643408695
 20
67.05540271087645
 30
0.0
 40
0.6509232755249303
100
AcDbArc
 50
46.351775098294617
 51
64.578237675432561
  0
ARC
  5
7F
100
AcDbEntity
  8
grabado linea medio
 62
256
370
-1
 48
1.0
  6
BYLAYER
100
AcDbCircle
 10
79.75160600069681
 20
67.01168650692496
 30
0.0
 40
0.7033714442991274
100
AcDbArc
 50
38.07181461985126
 51
47.036468921720569
  0
ARC
  5
80
100
AcDbEntity
  8
grabado linea medio
 62
256
370
-1
 48
1.0
  6
BYLAYER
100
AcDbCircle
 10
79.655243118184742
 20
66.92321853183995
 30
0.0
 40
0.8338483461552787
100
AcDbArc
 50
31.243321108420972
 51
38.774303711886738
  0
ARC
  5
81
100
AcDbEntity
  8
grabado linea medio
 62
256
370
-1
 48
1.0
  6
BYLAYER
100
AcDbCircle
 10
79.524540095045793
 20
66.831669327450385
 30
0.0
 40
0.9931352652034791
100
AcDbArc
 50
24.577320814709811
 51
31.847932774653678
  0
ARC
  5
82
100
AcDbEntity
  8
grabado linea medio
 62
256
370
-1
 48
1.0
  6
BYLAYER
100
AcDbCircle
 10
79.319159758347681
 20
66.721487075765623
 30
0.0
 40
1.2258244873084889
100
AcDbArc
 50
17.634356095077671
 51
25.26806381926141
  0
ARC
  5
83
100
AcDbEntity
  8
grabado linea medio
 62
256
370
-1
 48
1.0
  6
BYLAYER
100
AcDbCircle
 10
78.965780769470214
 20
66.582634884687849
 30
0.0
 40
1.6048610162886501
100
AcDbArc
 50
9.74133090901495
 51
18.536720842016159
  0
ARC
  5
84
100
AcDbEntity
  8
grabado linea medio
 62
256
370
-1
 48
1.0
  6
BYLAYER
100
AcDbCircle
 10
78.2365721961486
 20
66.398942237692594
 30
0.0
 40
2.3553424083839971
100
AcDbArc
 50
359.26290249640289
 51
11.144143594658351
  0
ARC
  5
85
100
AcDbEntity
  8
grabado linea medio
 62
256
370
-1
 48
1.0
  6
BYLAYER
100
AcDbCircle
 10
70.9090898162803
 20
67.098876900582681
 30
0.0
 40
9.7101268941248602
100
AcDbArc
 50
334.57823767542237
 51
355.68708937785351
  0
ARC
  5
86
100
AcDbEntity
  8
grabado linea medio
 62
256
370
-1
 48
1.0
  6
BYLAYER
100
AcDbCircle
 10
70.909089816280613
 20
67.098876900582752
 30
0.0
 40
9.7101268941245902
100
AcDbArc
 50
313.4693859729901
 51
334.57823767542129
  0
ARC
  5
87
100
AcDbEntity
  8
grabado linea medio
 62
256
370
-1
 48
1.0
  6
BYLAYER
100
AcDbCircle
 10
76.078704883233655
 20
61.858935429619123
 30
0.0
 40
2.355342408383978
100
AcDbArc
 50
298.83450383570539
 51
309.89357285443992
  0
ARC
  5
88
100
AcDbEntity
  8
grabado linea medio
 62
256
370
-1
 48
1.0
  6
BYLAYER
100
AcDbCircle
 10
65.748310923104839
 20
56.40862040227951
 30
0.0
 40
25.652114194056921
100
AcDbArc
 50
64.07315223927958
 51
99.925472058234448
  0
ARC
  5
89
100
AcDbEntity
  8
grabado linea medio
 62
256
370
-1
 48
1.0
  6
BYLAYER
100
AcDbCircle
 10
45.825698311687752
 20
56.408620402279603
 30
0.0
 40
25.652114194056921
100
AcDbArc
 50
79.847326304856992
 51
115.9268477607208
  0
ARC
  5
8A
100
AcDbEntity
  8
grabado linea medio
 62
256
370
-1
 48
1.0
  6
BYLAYER
100
AcDbCircle
 10
38.677255722417293
 20
17.2381999684231
 30
0.0
 40
62.37347680288142
100
AcDbArc
 50
78.970108610971181
 51
93.738803962193771
  0
LINE
  5
8B
100
AcDbEntity
100
AcDbLine
  8
grabado linea medio
 62
256
370
-1
 48
1.0
  6
BYLAYER
 10
50.338536268972653
 20
81.609336183237843
 30
0.0
 11
50.610617128441802
 21
78.45948298366865
 31
0.0
  0
ARC
  5
8C
100
AcDbEntity
  8
grabado linea medio
 62
256
370
-1
 48
1.0
  6
BYLAYER
100
AcDbCircle
 10
72.42166634230648
 20
17.322037883266361
 30
0.0
 40
62.373476802881498
100
AcDbArc
 50
85.726492977879929
 51
100.4951883291024
  0
LINE
  5
8D
100
AcDbEntity
100
AcDbLine
  8
grabado linea medio
 62
256
370
-1
 48
1.0
  6
BYLAYER
 10
56.952929871442592
 20
41.754991416433839
 30
0.0
 11
64.940913252272111
 21
44.069339125587369
 31
0.0
  0
ARC
  5
8E
100
AcDbEntity
  8
grabado linea medio
 62
256
370
-1
 48
1.0
  6
BYLAYER
100
AcDbCircle
 10
55.839793725800533
 20
45.596986721124487
 30
0.0
 40
4.0
100
AcDbArc
 50
253.84218269643119
 51
286.15781730356878
  0
LINE
  5
8F
100
AcDbEntity
100
AcDbLine
  8
grabado linea medio
 62
256
370
-1
 48
1.0
  6
BYLAYER
 10
46.632504071062968
 20
44.100099654424021
 30
0.0
 11
54.726657580158466
 21
41.754991416433839
 31
0.0
  0
LINE
  5
90
100
AcDbEntity
100
AcDbLine
  8
grabado linea medio
 62
256
370
-1
 48
1.0
  6
BYLAYER
 10
61.06015344145478
 20
78.652019401960615
 30
0.0
 11
61.326732068457183
 21
81.676794120557403
 31
0.0
  0
LINE
  5
91
100
AcDbEntity
100
AcDbLine
  8
grabado linea medio
 62
256
370
-1
 48
1.0
  6
BYLAYER
 10
55.839793725800497
 20
63.735062179553481
 30
0.0
 11
54.120233000638102
 21
59.33590000976271
 31
0.0
  0
ARC
  5
92
100
AcDbEntity
  8
grabado linea medio
 62
256
370
-1
 48
1.0
  6
BYLAYER
100
AcDbCircle
 10
54.80467223740041
 20
58.990046566224898
 30
0.0
 40
0.7668583136581928
100
AcDbArc
 50
153.19211016550821
 51
219.97761876156969
  0
ARC
  5
93
100
AcDbEntity
  8
grabado linea medio
 62
256
370
-1
 48
1.0
  6
BYLAYER
100
AcDbCircle
 10
56.810932078409458
 20
61.517602332279402
 30
0.0
 40
3.9812368100354081
100
AcDbArc
 50
229.3428543808572
 51
280.26171559163367
  0
LINE
  5
94
100
AcDbEntity
100
AcDbLine
  8
grabado linea medio
 62
256
370
-1
 48
1.0
  6
BYLAYER
 10
36.032598227114782
 20
-16.583217446379908
 30
0.0
 11
75.605602185651804
 21
-16.58321744637994
 31
0.0
  0
ARC
  5
95
100
AcDbEntity
  8
grabado linea medio
 62
256
370
-1
 48
1.0
  6
BYLAYER
100
AcDbCircle
 10
55.515842357526068
 20
40.47703935302367
 30
0.0
 40
14.44627820228088
100
AcDbArc
 50
60.770009060280898
 51
118.39977432353319
  0
ARC
  5
96
100
AcDbEntity
  8
grabado linea medio
 62
256
370
-1
 48
1.0
  6
BYLAYER
100
AcDbCircle
 10
60.390619355114417
 20
49.839090342776153
 30
0.0
 40
3.9088182766110822
100
AcDbArc
 50
343.44388238495469
 51
56.109624980790812
  0
ARC
  5
97
100
AcDbEntity
  8
grabado linea medio
 62
256
370
-1
 48
1.0
  6
BYLAYER
100
AcDbCircle
 10
51.167338492597267
 20
50.047222695911429
 30
0.0
 40
4.0257405233978334
100
AcDbArc
 50
128.7981988417327
 51
200.27190251610719
  0
ARC
  5
98
100
AcDbEntity
  8
grabado linea medio
 62
256
370
-1
 48
1.0
  6
BYLAYER
100
AcDbCircle
 10
55.301596670237942
 20
23.439261739310389
 30
0.0
 40
27.891075494870972
100
AcDbArc
 50
71.179374375990406
 51
107.01062513322628
  0
LINE
  5
99
100
AcDbEntity
100
AcDbLine
  8
grabado linea medio
 62
256
370
-1
 48
1.0
  6
BYLAYER
 10
49.913073297596931
 20
53.79259164193742
 30
0.0
 11
50.106538683247862
 21
50.842244510760679
 31
0.0
  0
LINE
  5
9A
100
AcDbEntity
100
AcDbLine
  8
grabado linea medio
 62
256
370
-1
 48
1.0
  6
BYLAYER
 10
52.714995386941432
 20
54.649202566346553
 30
0.0
 11
52.752439199581957
 21
51.213600407411747
 31
0.0
  0
LINE
  5
9B
100
AcDbEntity
100
AcDbLine
  8
grabado linea medio
 62
256
370
-1
 48
1.0
  6
BYLAYER
 10
55.427348234377249
 20
54.923046506831398
 30
0.0
 11
55.59287199608908
 21
51.328816252517349
 31
0.0
  0
LINE
  5
9C
100
AcDbEntity
100
AcDbLine
  8
grabado linea medio
 62
256
370
-1
 48
1.0
  6
BYLAYER
 10
58.2937759576375
 20
54.653711699208003
 30
0.0
 11
58.340930951395862
 21
51.16424216108836
 31
0.0
  0
LINE
  5
9D
100
AcDbEntity
100
AcDbLine
  8
grabado linea medio
 62
256
370
-1
 48
1.0
  6
BYLAYER
 10
61.116765329144677
 20
53.793368267694213
 30
0.0
 11
61.158453241644771
 21
50.70846274268709
 31
0.0
  0
ARC
  5
9E
100
AcDbEntity
  8
grabado linea medio
 62
256
370
-1
 48
1.0
  6
BYLAYER
100
AcDbCircle
 10
55.715292893256212
 20
59.923698032384742
 30
0.0
 40
14.012019862233711
100
AcDbArc
 50
233.55254057743116
 51
306.94597908531074
  0
ARC
  5
9F
100
AcDbEntity
  8
grabado linea medio
 62
256
370
-1
 48
1.0
  6
BYLAYER
100
AcDbCircle
 10
55.255756861281561
 20
-75.832683714278204
 30
0.0
 40
125.14414462513029
100
AcDbArc
 50
86.789671379105627
 51
92.830342767624515
  0
LINE
  5
A0
100
AcDbEntity
100
AcDbLine
  8
grabado linea medio
 62
256
370
-1
 48
1.0
  6
BYLAYER
 10
49.076300201272481
 20
49.158800993051422
 30
0.0
 11
48.500763121929701
 21
50.48849010739508
 31
0.0
  0
LINE
  5
A1
100
AcDbEntity
100
AcDbLine
  8
grabado linea medio
 62
256
370
-1
 48
1.0
  6
BYLAYER
 10
51.449483422185843
 20
49.253563397314281
 30
0.0
 11
51.387388601230882
 21
51.054313205007709
 31
0.0
  0
LINE
  5
A2
100
AcDbEntity
100
AcDbLine
  8
grabado linea medio
 62
256
370
-1
 48
1.0
  6
BYLAYER
 10
54.580447900084657
 20
49.3096388299453
 30
0.0
 11
54.498442506096893
 21
51.318770982645631
 31
0.0
  0
LINE
  5
A3
100
AcDbEntity
100
AcDbLine
  8
grabado linea medio
 62
256
370
-1
 48
1.0
  6
BYLAYER
 10
57.42932855532478
 20
49.292583598308973
 30
0.0
 11
57.605910498409841
 21
51.23498497224476
 31
0.0
  0
LINE
  5
A4
100
AcDbEntity
100
AcDbLine
  8
grabado linea medio
 62
256
370
-1
 48
1.0
  6
BYLAYER
 10
59.822350852005528
 20
49.228114113336183
 30
0.0
 11
59.994529998465602
 21
50.932687663290892
 31
0.0
  0
LINE
  5
A5
100
AcDbEntity
100
AcDbLine
  8
grabado linea medio
 62
256
370
-1
 48
1.0
  6
BYLAYER
 10
62.26401560601871
 20
49.115070340456057
 30
0.0
 11
62.825593222116431
 21
50.296319808799552
 31
0.0
  0
LINE
  5
A6
100
AcDbEntity
100
AcDbLine
  8
grabado linea medio
 62
256
370
-1
 48
1.0
  6
BYLAYER
 10
48.638655736944003
 20
53.183800372841823
 30
0.0
 11
49.015452928084137
 21
50.612713656826728
 31
0.0
  0
LINE
  5
A7
100
AcDbEntity
100
AcDbLine
  8
grabado linea medio
 62
256
370
-1
 48
1.0
  6
BYLAYER
 10
51.505486748636457
 20
54.355511955869531
 30
0.0
 11
51.505486748636457
 21
51.070795206052892
 31
0.0
  0
LINE
  5
A8
100
AcDbEntity
100
AcDbLine
  8
grabado linea medio
 62
256
370
-1
 48
1.0
  6
BYLAYER
 10
53.996748670457279
 20
54.843225634274653
 30
0.0
 11
54.004668227919673
 21
51.300167483311213
 31
0.0
  0
LINE
  5
A9
100
AcDbEntity
100
AcDbLine
  8
grabado linea medio
 62
256
370
-1
 48
1.0
  6
BYLAYER
 10
53.996748670457279
 20
54.843225634274653
 30
0.0
 11
53.996748670457279
 21
54.843225634274653
 31
0.0
  0
LINE
  5
AA
100
AcDbEntity
100
AcDbLine
  8
grabado linea medio
 62
256
370
-1
 48
1.0
  6
BYLAYER
 10
57.140094472834583
 20
54.831716603439702
 30
0.0
 11
56.916937508129692
 21
51.283520864631569
 31
0.0
  0
LINE
  5
AB
100
AcDbEntity
100
AcDbLine
  8
grabado linea medio
 62
256
370
-1
 48
1.0
  6
BYLAYER
 10
59.6083342439643
 20
54.331513866953571
 30
0.0
 11
59.540930723612
 21
51.006273529573299
 31
0.0
  0
LINE
  5
AC
100
AcDbEntity
100
AcDbLine
  8
grabado linea medio
 62
256
370
-1
 48
1.0
  6
BYLAYER
 10
62.385064025511682
 20
53.185648544189043
 30
0.0
 11
62.297164314637719
 21
50.438782579377531
 31
0.0
  0
LINE
  5
AD
100
AcDbEntity
100
AcDbLine
  8
grabado linea medio
 62
256
370
-1
 48
1.0
  6
BYLAYER
 10
63.710140652927812
 20
51.902979553206833
 30
0.0
 11
63.675060284008133
 21
50.043720000463878
 31
0.0
  0
LINE
  5
AE
100
AcDbEntity
100
AcDbLine
  8
grabado linea medio
 62
256
370
-1
 48
1.0
  6
BYLAYER
 10
47.558411197603647
 20
51.831103448982539
 30
0.0
 11
47.841008352585582
 21
50.314002932763771
 31
0.0
  0
LINE
  5
AF
100
AcDbEntity
100
AcDbLine
  8
grabado linea medio
 62
256
370
-1
 48
1.0
  6
BYLAYER
 10
50.641432414424493
 20
54.076123204676641
 30
0.0
 11
50.788683714596793
 21
50.962810001033453
 31
0.0
  0
LINE
  5
B0
100
AcDbEntity
100
AcDbLine
  8
grabado linea medio
 62
256
370
-1
 48
1.0
  6
BYLAYER
 10
54.838941295544032
 20
54.907450256736141
 30
0.0
 11
54.891577467683923
 21
51.327323280301883
 31
0.0
  0
LINE
  5
B1
100
AcDbEntity
100
AcDbLine
  8
grabado linea medio
 62
256
370
-1
 48
1.0
  6
BYLAYER
 10
56.173246742279041
 20
54.908351607028983
 30
0.0
 11
56.084079219660808
 21
51.319358821645679
 31
0.0
  0
LINE
  5
B2
100
AcDbEntity
100
AcDbLine
  8
grabado linea medio
 62
256
370
-1
 48
1.0
  6
BYLAYER
 10
80.088920835497078
 20
71.189972010284819
 30
0.0
 11
78.339251633639392
 21
71.320850009849693
 31
0.0
  0
LINE
  5
B3
100
AcDbEntity
100
AcDbLine
  8
grabado linea medio
 62
256
370
-1
 48
1.0
  6
BYLAYER
 10
31.617994810876279
 20
71.360658464112717
 30
0.0
 11
33.34033581796163
 21
71.320850009849693
 31
0.0
  0
ARC
  5
B4
100
AcDbEntity
  8
grabado linea medio
 62
256
370
-1
 48
1.0
  6
BYLAYER
100
AcDbCircle
 10
68.58169837542971
 20
74.764051319826748
 30
0.0
 40
10.347245084940541
100
AcDbArc
 50
340.56331231517157
 51
41.418671061439781
  0
ARC
  5
B5
100
AcDbEntity
  8
grabado linea medio
 62
256
370
-1
 48
1.0
  6
BYLAYER
100
AcDbCircle
 10
43.097889076171292
 20
74.764051319826748
 30
0.0
 40
10.347245084940541
100
AcDbArc
 50
138.5813289385602
 51
199.4366876848284
  0
ARC
  5
B6
100
AcDbEntity
  8
grabado linea medio
 62
256
370
-1
 48
1.0
  6
BYLAYER
100
AcDbCircle
 10
63.089044458131092
 20
82.569469108438113
 30
0.0
 40
13.286742921430189
100
AcDbArc
 50
355.85605330602641
 51
48.014208799254355
  0
ARC
  5
B7
100
AcDbEntity
  8
grabado linea medio
 62
256
370
-1
 48
1.0
  6
BYLAYER
100
AcDbCircle
 10
48.742036877057352
 20
82.508461031216541
 30
0.0
 40
13.433624010042159
100
AcDbArc
 50
131.6795728751205
 51
183.83772836834851
  0
ARC
  5
B8
100
AcDbEntity
  8
grabado linea medio
 62
256
370
-1
 48
1.0
  6
BYLAYER
100
AcDbCircle
 10
56.205567146983462
 20
197.1158162500052
 30
0.0
 40
105.8517234522828
100
AcDbArc
 50
261.08901636593657
 51
278.56880873296342
  0
LINE
  5
B9
100
AcDbEntity
100
AcDbLine
  8
grabado linea medio
 62
256
370
-1
 48
1.0
  6
BYLAYER
 10
73.897565100729807
 20
40.456272370301718
 30
0.0
 11
71.841051182628334
 21
35.109336183237829
 31
0.0
  0
LINE
  5
BA
100
AcDbEntity
100
AcDbLine
  8
grabado linea medio
 62
256
370
-1
 48
1.0
  6
BYLAYER
 10
37.779764711830637
 20
40.462142231807107
 30
0.0
 11
39.838536268972661
 21
35.109336183237801
 31
0.0
  0
ARC
  5
BB
100
AcDbEntity
  8
grabado linea medio
 62
256
370
-1
 48
1.0
  6
BYLAYER
100
AcDbCircle
 10
55.839793725800469
 20
63.083943249965458
 30
0.0
 40
32.227610534097892
100
AcDbArc
 50
240.2307796111628
 51
299.7692203888372
  0
LINE
  5
BC
100
AcDbEntity
100
AcDbLine
  8
grabado linea medio
 62
256
370
-1
 48
1.0
  6
BYLAYER
 10
44.338536268972653
 20
34.609336183237829
 30
0.0
 11
44.684464932179779
 21
33.284770495050211
 31
0.0
  0
LINE
  5
BD
100
AcDbEntity
100
AcDbLine
  8
grabado linea medio
 62
256
370
-1
 48
1.0
  6
BYLAYER
 10
46.338536268972653
 20
34.609336183237829
 30
0.0
 11
46.028788859124177
 21
33.135401169834168
 31
0.0
  0
LINE
  5
BE
100
AcDbEntity
100
AcDbLine
  8
grabado linea medio
 62
256
370
-1
 48
1.0
  6
BYLAYER
 10
48.007932418236742
 20
34.21832877765047
 30
0.0
 11
48.338536268972661
 21
32.609336183237829
 31
0.0
  0
LINE
  5
BF
100
AcDbEntity
100
AcDbLine
  8
grabado linea medio
 62
256
370
-1
 48
1.0
  6
BYLAYER
 10
49.987075977349292
 20
33.956932458522388
 30
0.0
 11
49.837706652133242
 21
32.575266200274001
 31
0.0
  0
LINE
  5
C0
100
AcDbEntity
100
AcDbLine
  8
grabado linea medio
 62
256
370
-1
 48
1.0
  6
BYLAYER
 10
50.845949597341537
 20
34.965175403730683
 30
0.0
 11
51.338536268972653
 21
33.609336183237829
 31
0.0
  0
LINE
  5
C1
100
AcDbEntity
100
AcDbLine
  8
grabado linea medio
 62
256
370
-1
 48
1.0
  6
BYLAYER
 10
52.338536268972653
 20
34.609336183237829
 30
0.0
 11
52.003561867765853
 21
32.799320188098072
 31
0.0
  0
LINE
  5
C2
100
AcDbEntity
100
AcDbLine
  8
grabado linea medio
 62
256
370
-1
 48
1.0
  6
BYLAYER
 10
53.161174138190177
 20
32.986031844618132
 30
0.0
 11
53.795993770358372
 21
31.60436558636972
 31
0.0
  0
LINE
  5
C3
100
AcDbEntity
100
AcDbLine
  8
grabado linea medio
 62
256
370
-1
 48
1.0
  6
BYLAYER
 10
54.766894384262628
 20
33.882247795914381
 30
0.0
 11
54.338536268972653
 21
32.609336183237829
 31
0.0
  0
LINE
  5
C4
100
AcDbEntity
100
AcDbLine
  8
grabado linea medio
 62
256
370
-1
 48
1.0
  6
BYLAYER
 10
56.559326286855153
 20
32.911347182010111
 30
0.0
 11
56.970091931199249
 21
31.679050248977759
 31
0.0
  0
LINE
  5
C5
100
AcDbEntity
100
AcDbLine
  8
grabado linea medio
 62
256
370
-1
 48
1.0
  6
BYLAYER
 10
55.338536268972653
 20
32.609336183237829
 30
0.0
 11
55.338536268972653
 21
31.609336183237829
 31
0.0
  0
LINE
  5
C6
100
AcDbEntity
100
AcDbLine
  8
grabado linea medio
 62
256
370
-1
 48
1.0
  6
BYLAYER
 10
57.338536268972653
 20
34.609336183237829
 30
0.0
 11
57.604911563367452
 21
33.210085832442182
 31
0.0
  0
LINE
  5
C7
100
AcDbEntity
100
AcDbLine
  8
grabado linea medio
 62
256
370
-1
 48
1.0
  6
BYLAYER
 10
58.277073526839636
 20
34.068959452434427
 30
0.0
 11
58.725181502487757
 21
32.388554543753962
 31
0.0
  0
LINE
  5
C8
100
AcDbEntity
100
AcDbLine
  8
grabado linea medio
 62
256
370
-1
 48
1.0
  6
BYLAYER
 10
59.338536268972653
 20
34.609336183237829
 30
0.0
 11
59.882793772912102
 21
33.172743501138171
 31
0.0
  0
LINE
  5
C9
100
AcDbEntity
100
AcDbLine
  8
grabado linea medio
 62
256
370
-1
 48
1.0
  6
BYLAYER
 10
60.81635205551234
 20
34.442382765474527
 30
0.0
 11
60.928379049424379
 21
32.463239206361983
 31
0.0
  0
LINE
  5
CA
100
AcDbEntity
100
AcDbLine
  8
grabado linea medio
 62
256
370
-1
 48
1.0
  6
BYLAYER
 10
61.712568006808603
 20
35.039860066338711
 30
0.0
 11
62.048648988544699
 21
33.994274789826413
 31
0.0
  0
LINE
  5
CB
100
AcDbEntity
100
AcDbLine
  8
Corte exterior
 62
256
370
-1
 48
1.0
  6
BYLAYER
 10
32.782641707613379
 20
94.287370200255538
 30
0.0
 11
49.282641707613379
 21
94.287370200255538
 31
0.0
  0
LINE
  5
CC
100
AcDbEntity
100
AcDbLine
  8
grabado linea medio
 62
256
370
-1
 48
1.0
  6
BYLAYER
 10
63.338536268972661
 20
34.609336183237829
 30
0.0
 11
63.280945921577043
 21
33.023374175922129
 31
0.0
  0
LINE
  5
CD
100
AcDbEntity
100
AcDbLine
  8
grabado linea medio
 62
256
370
-1
 48
1.0
  6
BYLAYER
 10
64.338536268972661
 20
35.609336183237829
 30
0.0
 11
64.550585185913405
 21
34.106301783738431
 31
0.0
  0
LINE
  5
CE
100
AcDbEntity
100
AcDbLine
  8
Corte exterior
 62
256
370
-1
 48
1.0
  6
BYLAYER
 10
64.782641707613394
 20
62.287370200255559
 30
0.0
 11
59.724341616603951
 21
62.287370200255559
 31
0.0
  0
LINE
  5
CF
100
AcDbEntity
100
AcDbLine
  8
Corte exterior
 62
256
370
-1
 48
1.0
  6
BYLAYER
 10
38.78138425078555
 20
62.287370200255552
 30
0.0
 11
32.782641707613351
 21
62.287370200255559
 31
0.0
  0
LINE
  5
D0
100
AcDbEntity
100
AcDbLine
  8
grabado linea medio
 62
256
370
-1
 48
1.0
  6
BYLAYER
 10
65.820224450249754
 20
35.114544728946733
 30
0.0
 11
65.338536268972661
 21
33.609336183237829
 31
0.0
  0
LINE
  5
D1
100
AcDbEntity
100
AcDbLine
  8
Corte exterior
 62
256
370
-1
 48
1.0
  6
BYLAYER
 10
32.782641707613351
 20
62.287370200255552
 30
0.0
 11
32.782641707613394
 21
74.087370200255435
 31
0.0
  0
LINE
  5
D2
100
AcDbEntity
100
AcDbLine
  8
grabado linea medio
 62
256
370
-1
 48
1.0
  6
BYLAYER
 10
67.052521383282112
 20
35.114544728946733
 30
0.0
 11
66.940494389370102
 21
33.620851476786299
 31
0.0
  0
LINE
  5
D3
100
AcDbEntity
100
AcDbLine
  8
Corte exterior
 62
256
370
-1
 48
1.0
  6
BYLAYER
 10
59.724341616603951
 20
62.287370200255559
 30
0.0
 11
38.78138425078555
 21
62.287370200255552
 31
0.0
  0
LINE
  5
D4
100
AcDbEntity
100
AcDbLine
  8
grabado linea medio
 62
256
370
-1
 48
1.0
  6
BYLAYER
 10
68.338536268972661
 20
35.609336183237829
 30
0.0
 11
68.32216064761846
 21
34.031617121130431
 31
0.0
  0
LINE
  5
D5
100
AcDbEntity
100
AcDbLine
  8
Corte exterior
 62
256
370
-1
 48
1.0
  6
BYLAYER
 10
64.782641707613408
 20
74.087370200255435
 30
0.0
 11
64.782641707613408
 21
62.287370200255552
 31
0.0
  0
LINE
  5
D6
100
AcDbEntity
100
AcDbLine
  8
grabado linea medio
 62
256
370
-1
 48
1.0
  6
BYLAYER
 10
42.331898060027122
 20
35.189229391554747
 30
0.0
 11
43.004060023499321
 21
34.21832877765047
 31
0.0
  0
LINE
  5
D7
100
AcDbEntity
100
AcDbLine
  8
Corte exterior
 62
256
370
-1
 48
1.0
  6
BYLAYER
 10
49.282641707613379
 20
94.287370200255538
 30
0.0
 11
64.782641707613408
 21
94.287370200255538
 31
0.0
  0
LINE
  5
D8
100
AcDbEntity
100
AcDbLine
  8
grabado linea medio
 62
256
370
-1
 48
1.0
  6
BYLAYER
 10
44.983203582611878
 20
35.487968041986832
 30
0.0
 11
45.338536268972653
 21
34.609336183237829
 31
0.0
  0
LINE
  5
D9
100
AcDbEntity
100
AcDbLine
  8
grabado linea medio
 62
256
370
-1
 48
1.0
  6
BYLAYER
 10
47.338536268972653
 20
35.609336183237829
 30
0.0
 11
47.149058798244489
 21
34.106301783738431
 31
0.0
  0
LINE
  5
DA
100
AcDbEntity
100
AcDbLine
  8
grabado linea medio
 62
256
370
-1
 48
1.0
  6
BYLAYER
 10
48.904148369532997
 20
35.301256385466772
 30
0.0
 11
48.941490700837001
 21
33.807563133306353
 31
0.0
  0
LINE
  5
DB
100
AcDbEntity
100
AcDbLine
  8
grabado linea medio
 62
256
370
-1
 48
1.0
  6
BYLAYER
 10
62.338536268972653
 20
33.609336183237829
 30
0.0
 11
61.825839745097433
 21
32.071144727669882
 31
0.0
  0
LINE
  5
DC
100
AcDbEntity
100
AcDbLine
  8
grabado linea medio
 62
256
370
-1
 48
1.0
  6
BYLAYER
 10
59.678655695116817
 20
32.600161087810022
 30
0.0
 11
59.338536268972653
 21
31.609336183237829
 31
0.0
  0
ARC
  5
DD
100
AcDbEntity
  8
grabado linea medio
 62
256
370
-1
 48
1.0
  6
BYLAYER
100
AcDbCircle
 10
94.670706060675926
 20
36.718603295116182
 30
0.0
 40
19.596624558729541
100
AcDbArc
 50
170.35829289083
 51
245.02934188961163
  0
ARC
  5
DE
100
AcDbEntity
  8
grabado linea medio
 62
256
370
-1
 48
1.0
  6
BYLAYER
100
AcDbCircle
 10
17.76062561691479
 20
36.352364164455082
 30
0.0
 40
18.923106258981768
100
AcDbArc
 50
293.4184643307492
 51
11.116336206448562
  0
LINE
  5
DF
100
AcDbEntity
100
AcDbLine
  8
grabado linea medio
 62
256
370
-1
 48
1.0
  6
BYLAYER
 10
36.032598227114789
 20
-20.557304121594179
 30
0.0
 11
75.605602185651861
 21
-20.557304121594179
 31
0.0
  0
LWPOLYLINE
  5
E0
  8
Corte exterior
 62
256
370
-1
 48
1.0
  6
BYLAYER
100
AcDbEntity
100
AcDbPolyline
 90
73
 70
1
 10
49.288699197278028
 20
37.132515429120652
 30
0.0
 10
48.750184625392293
 20
37.154934424297352
 30
0.0
 42
0.3131376549537519
 10
43.934067492686182
 20
34.099630941750391
 30
0.0
 10
40.546451667203833
 20
26.054454645808871
 30
0.0
 42
0.2325853296792726
 10
40.804482137343633
 20
21.649022531537149
 30
0.0
 10
45.051445710205769
 20
14.154380932368641
 30
0.0
 10
45.247841242170232
 20
8.2993446648501461
 30
0.0
 10
39.782641707613422
 20
8.2993446648501461
 30
0.0
 10
39.782641707613351
 20
12.29934466485016
 30
0.0
 10
36.532641707613372
 20
12.29934466485015
 30
0.0
 10
36.532641707613372
 20
8.2993446648501532
 30
0.0
 10
25.33853626897265
 20
8.2993446648501461
 30
0.0
 42
-0.4142135623730951
 10
24.33853626897265
 20
9.2993446648501461
 30
0.0
 10
24.33853626897265
 20
12.31658520923289
 30
0.0
 42
-0.3755426545767644
 10
25.205124256831098
 20
13.30764587085574
 30
0.0
 10
31.121103749731319
 20
14.104027725669241
 30
0.0
 42
0.5507262066101221
 10
31.826003560503612
 20
15.64027944331092
 30
0.0
 10
26.124731440171232
 20
24.40682792454384
 30
0.0
 42
-0.226602834131074
 10
26.189496091994108
 20
32.137682152664048
 30
0.0
 10
28.975446208927679
 20
43.442695878405843
 30
0.0
 10
28.975446208927679
 20
47.416782553620131
 30
0.0
 42
0.0755959167574738
 10
22.28138425078555
 20
58.299344664850132
 30
0.0
 42
-0.1712927295533253
 10
18.28138425078556
 20
72.299344664850153
 30
0.0
 10
18.155330182903349
 20
95.919411600294097
 30
0.0
 42
-0.4797417252173874
 10
29.271539469143459
 20
104.00077208033019
 30
0.0
 42
-0.1102630918049477
 10
38.619433470607262
 20
105.1695681082557
 30
0.0
 10
39.575352052875871
 20
108.100099654424
 30
0.0
 10
32.295730102586802
 20
110.20921475656461
 30
0.0
 42
-0.2883123194068053
 10
30.220260429705501
 20
112.3727684024807
 30
0.0
 10
28.357017741823771
 20
119.941041467719
 30
0.0
 42
-0.2301835131608624
 10
21.634359665547041
 20
134.36530840344719
 30
0.0
 42
-0.2012089818646555
 10
22.59725892743166
 20
135.6017460675948
 30
0.0
 42
-0.3161567482153473
 10
24.560842792689179
 20
135.3606584641127
 30
0.0
 10
23.76209810500162
 20
138.718014730628
 30
0.0
 42
-0.8610909881342932
 10
72.556572419088511
 20
150.4586117118692
 30
0.0
 42
-0.0210891044244974
 10
73.553416956263732
 20
147.48294654243699
 30
0.0
 42
-0.127644517070419
 10
73.868757307138296
 20
138.71801473062791
 30
0.0
 10
73.031768817309967
 20
135.18997201028481
 30
0.0
 42
-0.3130826485714067
 10
75.725836219867205
 20
135.49786697136199
 30
0.0
 42
-0.1025857906095324
 10
76.161144088700681
 20
133.32977835932121
 30
0.0
 42
-0.1478805620257257
 10
72.512791627508179
 20
123.1694217044534
 30
0.0
 42
-0.0485405500280717
 10
70.089273357991829
 20
120.4904549944868
 30
0.0
 42
-0.0142694844480737
 10
69.282094838033856
 20
119.7968332083353
 30
0.0
 10
68.810651949201201
 20
118.0442908245186
 30
0.0
 10
67.345022985521283
 20
112.3727684024807
 30
0.0
 42
-0.2677521533066739
 10
65.269553312642302
 20
110.2092147565652
 30
0.0
 10
57.883761234085007
 20
108.0693391255874
 30
0.0
 10
58.831113111643319
 20
105.18520840318421
 30
0.0
 42
-0.1102630918049479
 10
68.293743946083353
 20
104.00077208033019
 30
0.0
 42
-0.4797417252173873
 10
79.409953232323474
 20
95.919411600294097
 30
0.0
 10
79.387397979762028
 20
91.574082601053732
 30
0.0
 10
79.310768553960884
 20
77.334142745007483
 30
0.0
 10
79.283899164441195
 20
72.299344664850139
 30
0.0
 42
-0.1712927295533245
 10
75.283899164441252
 20
58.299344664850167
 30
0.0
 42
0.0755959167574738
 10
68.548450167464694
 20
47.416782553620109
 30
0.0
 10
68.548450167464694
 20
43.442695878405871
 30
0.0
 10
68.18198413930196
 20
25.363705155709159
 30
0.0
 42
-0.0450632308891473
 10
68.082947630414779
 20
24.46973607020724
 30
0.0
 10
66.241795418792449
 20
15.40560210529725
 30
0.0
 42
0.3456990083382991
 10
66.79598570204459
 20
14.301723478806149
 30
0.0
 10
70.970499008578003
 20
12.33724662867281
 30
0.0
 42
-0.2905215400837863
 10
71.54470197224812
 20
11.43242792647181
 30
0.0
 10
71.54470197224812
 20
9.2993446648501461
 30
0.0
 42
-0.4142135623730951
 10
70.54470197224812
 20
8.2993446648501461
 30
0.0
 10
61.032641707613386
 20
8.2993446648501461
 30
0.0
 10
61.032641707613386
 20
12.299344664850141
 30
0.0
 10
57.782641707613386
 20
12.299344664850141
 30
0.0
 10
57.782641707613386
 20
8.2993446648501461
 30
0.0
 10
53.561400751952696
 20
8.2993446648501461
 30
0.0
 10
53.561400751952696
 20
14.31494612183557
 30
0.0
 10
55.115354268041308
 20
20.672028687652631
 30
0.0
 42
0.0886886629060568
 10
55.225855600422427
 20
22.428486431845041
 30
0.0
 10
54.048219828819761
 20
32.706034984013812
 30
0.0
 42
0.3693133864144577
  0
LWPOLYLINE
  5
E1
  8
Corte exterior
 62
256
370
-1
 48
1.0
  6
BYLAYER
100
AcDbEntity
100
AcDbPolyline
 90
4
 70
1
 10
40.382641707613402
 20
33.19934466485013
 30
0.0
 10
32.182641707613392
 20
33.19934466485013
 30
0.0
 10
32.182641707613392
 20
36.19934466485013
 30
0.0
 10
40.382641707613402
 20
36.19934466485013
 30
0.0
  0
LWPOLYLINE
  5
E2
  8
Corte exterior
 62
256
370
-1
 48
1.0
  6
BYLAYER
100
AcDbEntity
100
AcDbPolyline
 90
4
 70
1
 10
65.382641707613416
 20
33.19934466485013
 30
0.0
 10
65.382641707613416
 20
36.19934466485013
 30
0.0
 10
57.182641707613413
 20
36.19934466485013
 30
0.0
 10
57.182641707613413
 20
33.19934466485013
 30
0.0
  0
LINE
  5
E3
100
AcDbEntity
100
AcDbLine
  8
Corte exterior
 62
256
370
-1
 48
1.0
  6
BYLAYER
 10
32.782641707613394
 20
97.287370200255538
 30
0.0
 11
19.982641707613396
 21
97.287370200255538
 31
0.0
  0
LINE
  5
E4
100
AcDbEntity
100
AcDbLine
  8
Corte exterior
 62
256
370
-1
 48
1.0
  6
BYLAYER
 10
64.782641707613408
 20
97.287370200255538
 30
0.0
 11
77.582641707613391
 21
97.287370200255538
 31
0.0
  0
LINE
  5
E5
100
AcDbEntity
100
AcDbLine
  8
Corte exterior
 62
256
370
-1
 48
1.0
  6
BYLAYER
 10
19.982641707613396
 20
97.287370200255538
 30
0.0
 11
19.982641707613368
 21
74.087370200255492
 31
0.0
  0
LINE
  5
E6
100
AcDbEntity
100
AcDbLine
  8
Corte exterior
 62
256
370
-1
 48
1.0
  6
BYLAYER
 10
77.582641707613391
 20
97.287370200255538
 30
0.0
 11
77.582641707613391
 21
74.087370200255464
 31
0.0
  0
LINE
  5
E7
100
AcDbEntity
100
AcDbLine
  8
Corte exterior
 62
256
370
-1
 48
1.0
  6
BYLAYER
 10
19.982641707613368
 20
74.087370200255492
 30
0.0
 11
32.782641707613394
 21
74.087370200255435
 31
0.0
  0
LINE
  5
E8
100
AcDbEntity
100
AcDbLine
  8
Corte exterior
 62
256
370
-1
 48
1.0
  6
BYLAYER
 10
77.582641707613391
 20
74.087370200255464
 30
0.0
 11
64.782641707613408
 21
74.087370200255435
 31
0.0
  0
LINE
  5
E9
100
AcDbEntity
100
AcDbLine
  8
Corte exterior
 62
256
370
-1
 48
1.0
  6
BYLAYER
 10
32.782641707613394
 20
97.287370200255538
 30
0.0
 11
32.782641707613379
 21
94.287370200255538
 31
0.0
  0
LINE
  5
EA
100
AcDbEntity
100
AcDbLine
  8
Corte exterior
 62
256
370
-1
 48
1.0
  6
BYLAYER
 10
64.782641707613408
 20
97.287370200255538
 30
0.0
 11
64.782641707613408
 21
94.287370200255538
 31
0.0
  0
ENDSEC
  0
SECTION
  2
OBJECTS
  0
DICTIONARY
  5
C
100
AcDbDictionary
280
0
281
1
  3
ACAD_GROUP
350
D
  3
ACAD_LAYOUT
350
1A
  3
ACAD_MLINESTYLE
350
17
  3
ACAD_PLOTSETTINGS
350
19
  3
ACAD_PLOTSTYLENAME
350
E
  3
AcDbVariableDictionary
350
EB
  3
QCAD_OBJECTS
350
EC
  0
DICTIONARY
  5
D
100
AcDbDictionary
280
0
281
1
  0
ACDBDICTIONARYWDFLT
  5
E
100
AcDbDictionary
281
1
  3
Normal
350
F
100
AcDbDictionaryWithDefault
340
F
  0
ACDBPLACEHOLDER
  5
F
  0
DICTIONARY
  5
17
100
AcDbDictionary
280
0
281
1
  3
Standard
350
18
  0
MLINESTYLE
  5
18
100
AcDbMlineStyle
  2
STANDARD
 70
0
  3

 62
256
 51
90.0
 52
90.0
 71
2
 49
0.5
 62
256
  6
BYLAYER
 49
-0.5
 62
256
  6
BYLAYER
  0
DICTIONARY
  5
19
100
AcDbDictionary
280
0
281
1
  0
DICTIONARY
  5
1A
100
AcDbDictionary
281
1
  3
Layout1
350
1E
  3
Layout2
350
26
  3
Model
350
22
  0
LAYOUT
  5
1E
100
AcDbPlotSettings
  1

  2
none_device
  4

  6

 40
0.0
 41
0.0
 42
0.0
 43
0.0
 44
0.0
 45
0.0
 46
0.0
 47
0.0
 48
0.0
 49
0.0
140
0.0
141
0.0
142
1.0
143
1.0
 70
688
 72
0
 73
0
 74
5
  7

 75
16
147
1.0
148
0.0
149
0.0
100
AcDbLayout
  1
Layout1
 70
1
 71
1
 10
0.0
 20
0.0
 11
420.0
 21
297.0
 12
0.0
 22
0.0
 32
0.0
 14
100000000000000000000.0
 24
100000000000000000000.0
 34
100000000000000000000.0
 15
-100000000000000000000.0
 25
-100000000000000000000.0
 35
-100000000000000000000.0
146
0.0
 13
0.0
 23
0.0
 33
0.0
 16
1.0
 26
0.0
 36
0.0
 17
0.0
 27
1.0
 37
0.0
 76
0
330
1B
  0
LAYOUT
  5
22
100
AcDbPlotSettings
  1

  2
none_device
  4

  6

 40
0.0
 41
0.0
 42
0.0
 43
0.0
 44
0.0
 45
0.0
 46
0.0
 47
0.0
 48
0.0
 49
0.0
140
0.0
141
0.0
142
1.0
143
1.0
 70
1712
 72
0
 73
0
 74
0
  7

 75
0
147
1.0
148
0.0
149
0.0
100
AcDbLayout
  1
Model
 70
1
 71
0
 10
0.0
 20
0.0
 11
12.0
 21
9.0
 12
0.0
 22
0.0
 32
0.0
 14
0.0
 24
0.0
 34
0.0
 15
0.0
 25
0.0
 35
0.0
146
0.0
 13
0.0
 23
0.0
 33
0.0
 16
1.0
 26
0.0
 36
0.0
 17
0.0
 27
1.0
 37
0.0
 76
0
330
1F
  0
LAYOUT
  5
26
100
AcDbPlotSettings
  1

  2
none_device
  4

  6

 40
0.0
 41
0.0
 42
0.0
 43
0.0
 44
0.0
 45
0.0
 46
0.0
 47
0.0
 48
0.0
 49
0.0
140
0.0
141
0.0
142
1.0
143
1.0
 70
688
 72
0
 73
0
 74
5
  7

 75
16
147
1.0
148
0.0
149
0.0
100
AcDbLayout
  1
Layout2
 70
1
 71
2
 10
0.0
 20
0.0
 11
12.0
 21
9.0
 12
0.0
 22
0.0
 32
0.0
 14
0.0
 24
0.0
 34
0.0
 15
0.0
 25
0.0
 35
0.0
146
0.0
 13
0.0
 23
0.0
 33
0.0
 16
1.0
 26
0.0
 36
0.0
 17
0.0
 27
1.0
 37
0.0
 76
0
330
23
  0
DICTIONARY
  5
EB
100
AcDbDictionary
281
1
  3
DIMASSOC
350
EE
  3
HIDETEXT
350
ED
  0
DICTIONARYVAR
  5
ED
100
DictionaryVariables
280
0
  1
2
  0
DICTIONARYVAR
  5
EE
100
DictionaryVariables
280
0
  1
1
  0
DICTIONARY
  5
EC
100
AcDbDictionary
281
1
  3
2485609691312
350
EF
  3
2485609691328
350
F0
  3
2485609691344
350
F1
  3
2485609691360
350
F2
  3
2485609691376
350
F3
  3
ColorSettings/BackgroundColor
350
F4
  3
ColorSettings/ColorMode
350
F5
  3
Grid/DisplayGrid00
350
F6
  3
Grid/DisplayGrid01
350
F7
  3
Grid/DisplayGrid02
350
F8
  3
Grid/DisplayGrid03
350
F9
  3
Grid/GridSpacingX00
350
FA
  3
Grid/GridSpacingX01
350
FB
  3
Grid/GridSpacingX02
350
FC
  3
Grid/GridSpacingX03
350
FD
  3
Grid/GridSpacingY00
350
FE
  3
Grid/GridSpacingY01
350
FF
  3
Grid/GridSpacingY02
350
100
  3
Grid/GridSpacingY03
350
101
  3
Grid/IsometricGrid00
350
102
  3
Grid/IsometricGrid01
350
103
  3
Grid/IsometricGrid02
350
104
  3
Grid/IsometricGrid03
350
105
  3
Grid/IsometricProjection00
350
106
  3
Grid/IsometricProjection01
350
107
  3
Grid/IsometricProjection02
350
108
  3
Grid/IsometricProjection03
350
109
  3
Grid/MetaGridSpacingX00
350
10A
  3
Grid/MetaGridSpacingX01
350
10B
  3
Grid/MetaGridSpacingX02
350
10C
  3
Grid/MetaGridSpacingX03
350
10D
  3
Grid/MetaGridSpacingY00
350
10E
  3
Grid/MetaGridSpacingY01
350
10F
  3
Grid/MetaGridSpacingY02
350
110
  3
Grid/MetaGridSpacingY03
350
111
  3
MultiPageSettings/Columns
350
112
  3
MultiPageSettings/GlueMarginsBottom
350
113
  3
MultiPageSettings/GlueMarginsLeft
350
114
  3
MultiPageSettings/GlueMarginsRight
350
115
  3
MultiPageSettings/GlueMarginsTop
350
116
  3
MultiPageSettings/PrintCropMarks
350
117
  3
MultiPageSettings/Rows
350
118
  3
PageSettings/OffsetX
350
119
  3
PageSettings/OffsetY
350
11A
  3
PageSettings/PageOrientation
350
11B
  3
PageSettings/PaperHeight
350
11C
  3
PageSettings/PaperWidth
350
11D
  3
PageSettings/Scale
350
11E
  3
PageSettings/ShowPaperBorders
350
11F
  3
QCADVersion
350
120
  3
UnitSettings/PaperUnit
350
121
  3
ViewportCenter
350
122
  3
ViewportHeight
350
123
  3
ViewportWidth
350
124
  0
XRECORD
  5
EF
330
EC
100
AcDbXrecord
280
1
 90
0
  0
XRECORD
  5
F0
330
EC
100
AcDbXrecord
280
1
 90
0
  0
XRECORD
  5
F1
330
EC
100
AcDbXrecord
280
1
 90
0
  0
XRECORD
  5
F2
330
EC
100
AcDbXrecord
280
1
 90
0
  0
XRECORD
  5
F3
330
EC
100
AcDbXrecord
280
1
 90
1
  0
XRECORD
  5
F4
330
EC
100
AcDbXrecord
280
1
1000
Blanca
  0
XRECORD
  5
F5
330
EC
100
AcDbXrecord
280
1
1000
FullColor
  0
XRECORD
  5
F6
330
EC
100
AcDbXrecord
280
1
290
1
  0
XRECORD
  5
F7
330
EC
100
AcDbXrecord
280
1
290
1
  0
XRECORD
  5
F8
330
EC
100
AcDbXrecord
280
1
290
1
  0
XRECORD
  5
F9
330
EC
100
AcDbXrecord
280
1
290
1
  0
XRECORD
  5
FA
330
EC
100
AcDbXrecord
280
1
1000
auto
  0
XRECORD
  5
FB
330
EC
100
AcDbXrecord
280
1
1000
auto
  0
XRECORD
  5
FC
330
EC
100
AcDbXrecord
280
1
1000
auto
  0
XRECORD
  5
FD
330
EC
100
AcDbXrecord
280
1
1000
auto
  0
XRECORD
  5
FE
330
EC
100
AcDbXrecord
280
1
1000
auto
  0
XRECORD
  5
FF
330
EC
100
AcDbXrecord
280
1
1000
auto
  0
XRECORD
  5
100
330
EC
100
AcDbXrecord
280
1
1000
auto
  0
XRECORD
  5
101
330
EC
100
AcDbXrecord
280
1
1000
auto
  0
XRECORD
  5
102
330
EC
100
AcDbXrecord
280
1
290
0
  0
XRECORD
  5
103
330
EC
100
AcDbXrecord
280
1
290
0
  0
XRECORD
  5
104
330
EC
100
AcDbXrecord
280
1
290
0
  0
XRECORD
  5
105
330
EC
100
AcDbXrecord
280
1
290
0
  0
XRECORD
  5
106
330
EC
100
AcDbXrecord
280
1
 90
0
  0
XRECORD
  5
107
330
EC
100
AcDbXrecord
280
1
 90
0
  0
XRECORD
  5
108
330
EC
100
AcDbXrecord
280
1
 90
0
  0
XRECORD
  5
109
330
EC
100
AcDbXrecord
280
1
 90
0
  0
XRECORD
  5
10A
330
EC
100
AcDbXrecord
280
1
1000
auto
  0
XRECORD
  5
10B
330
EC
100
AcDbXrecord
280
1
1000
auto
  0
XRECORD
  5
10C
330
EC
100
AcDbXrecord
280
1
1000
auto
  0
XRECORD
  5
10D
330
EC
100
AcDbXrecord
280
1
1000
auto
  0
XRECORD
  5
10E
330
EC
100
AcDbXrecord
280
1
1000
auto
  0
XRECORD
  5
10F
330
EC
100
AcDbXrecord
280
1
1000
auto
  0
XRECORD
  5
110
330
EC
100
AcDbXrecord
280
1
1000
auto
  0
XRECORD
  5
111
330
EC
100
AcDbXrecord
280
1
1000
auto
  0
XRECORD
  5
112
330
EC
100
AcDbXrecord
280
1
 90
1
  0
XRECORD
  5
113
330
EC
100
AcDbXrecord
280
1
 40
10.0
  0
XRECORD
  5
114
330
EC
100
AcDbXrecord
280
1
 40
10.0
  0
XRECORD
  5
115
330
EC
100
AcDbXrecord
280
1
 40
10.0
  0
XRECORD
  5
116
330
EC
100
AcDbXrecord
280
1
 40
10.0
  0
XRECORD
  5
117
330
EC
100
AcDbXrecord
280
1
290
0
  0
XRECORD
  5
118
330
EC
100
AcDbXrecord
280
1
 90
1
  0
XRECORD
  5
119
330
EC
100
AcDbXrecord
280
1
 40
0.0
  0
XRECORD
  5
11A
330
EC
100
AcDbXrecord
280
1
 40
0.0
  0
XRECORD
  5
11B
330
EC
100
AcDbXrecord
280
1
1000
Portrait
  0
XRECORD
  5
11C
330
EC
100
AcDbXrecord
280
1
 40
297.0
  0
XRECORD
  5
11D
330
EC
100
AcDbXrecord
280
1
 40
210.0
  0
XRECORD
  5
11E
330
EC
100
AcDbXrecord
280
1
1000
1:1
  0
XRECORD
  5
11F
330
EC
100
AcDbXrecord
280
1
290
1
  0
XRECORD
  5
120
330
EC
100
AcDbXrecord
280
1
1000
3.15.2
  0
XRECORD
  5
121
330
EC
100
AcDbXrecord
280
1
 90
4
  0
XRECORD
  5
123
330
EC
100
AcDbXrecord
280
1
 40
356.62545743477716
  0
XRECORD
  5
124
330
EC
100
AcDbXrecord
280
1
 40
840.82424923646658
  0
ENDSEC
  0
EOF
