999
dxflib 3.12.2.0
  0
SECTION
  2
HEADER
  9
$ACADVER
  1
AC1015
  9
$HANDSEED
  5
FFFF
  9
$ANGBASE
 50
0.0
  9
$ATTMODE
 70
1
  9
$AUNITS
 70
0
  9
$AUPREC
 70
0
  9
$CELTSCALE
 40
1.0
  9
$CHAMFERA
 40
0.0
  9
$CHAMFERB
 40
0.0
  9
$CHAMFERC
 40
0.0
  9
$CHAMFERD
 40
0.0
  9
$CMLJUST
 70
0
  9
$CMLSCALE
 40
1.0
  9
$DIMADEC
 70
0
  9
$DIMALTD
 70
3
  9
$DIMALTF
 40
0.03937007874016
  9
$DIMALTRND
 40
0.0
  9
$DIMALTTD
 70
2
  9
$DIMALTTZ
 70
0
  9
$DIMALTU
 70
2
  9
$DIMALTZ
 70
0
  9
$DIMAPOST
  1

  9
$DIMASZ
 40
2.5
  9
$DIMATFIT
 70
3
  9
$DIMAUNIT
 70
0
  9
$DIMAZIN
 70
0
  9
$DIMCEN
 40
2.5
  9
$DIMDEC
 70
4
  9
$DIMDLE
 40
0.0
  9
$DIMDLI
 40
3.75
  9
$DIMDSEP
 70
46
  9
$DIMEXE
 40
1.25
  9
$DIMEXO
 40
0.625
  9
$DIMFRAC
 70
0
  9
$DIMGAP
 40
0.625
  9
$DIMJUST
 70
0
  9
$DIMLFAC
 40
1.0
  9
$DIMLUNIT
 70
2
  9
$DIMLWD
 70
-2
  9
$DIMLWE
 70
-2
  9
$DIMPOST
  1

  9
$DIMRND
 40
0.0
  9
$DIMSCALE
 40
1.0
  9
$DIMTAD
 70
1
  9
$DIMTDEC
 70
4
  9
$DIMTFAC
 40
1.0
  9
$DIMTM
 40
0.0
  9
$DIMTOLJ
 70
1
  9
$DIMTP
 40
0.0
  9
$DIMTSZ
 40
0.0
  9
$DIMTVP
 40
0.0
  9
$DIMTXT
 40
2.5
  9
$DIMTZIN
 70
0
  9
$DIMZIN
 70
8
  9
$DWGCODEPAGE
  3
ANSI_1252
  9
$ELEVATION
 40
0.0
  9
$EXTMAX
 10
149.0
 20
158.9309810720562
 30
0.0
  9
$EXTMIN
 10
0.0
 20
-0.0000000000000568
 30
0.0
  9
$FILLETRAD
 40
5.0
  9
$INSBASE
 10
0.0
 20
0.0
 30
0.0
  9
$INSUNITS
 70
0
  9
$LIMMAX
 10
420.0
 20
297.0
  9
$LIMMIN
 10
0.0
 20
0.0
  9
$LTSCALE
 40
1.0
  9
$LUNITS
 70
2
  9
$LUPREC
 70
4
  9
$MAXACTVP
 70
2
  9
$MEASUREMENT
 70
0
  9
$PDMODE
 70
0
  9
$PDSIZE
 40
0.0
  9
$PELEVATION
 40
0.0
  9
$PEXTMAX
 10
9.9287257582933517
 20
7.5991666710079731
 30
0.0000000349246037
  9
$PEXTMIN
 10
1.049636599258094
 20
0.3333892899584683
 30
-0.0015258207003583
  9
$PINSBASE
 10
0.0
 20
0.0
 30
0.0
  9
$PLIMMAX
 10
10.75
 20
8.25
  9
$PLIMMIN
 10
-0.25
 20
-0.25
  9
$PLINEWID
 40
0.0
  9
$PROXYGRAPHICS
 70
1
  9
$PUCSORG
 10
0.0
 20
0.0
 30
0.0
  9
$PUCSXDIR
 10
1.0
 20
0.0
 30
0.0
  9
$PUCSYDIR
 10
0.0
 20
1.0
 30
0.0
  9
$SHADEDGE
 70
3
  9
$SHADEDIF
 70
70
  9
$SKETCHINC
 40
1.0
  9
$SPLINESEGS
 70
8
  9
$SPLINETYPE
 70
6
  9
$SURFTAB1
 70
6
  9
$SURFTAB2
 70
6
  9
$SURFTYPE
 70
6
  9
$SURFU
 70
6
  9
$SURFV
 70
6
  9
$TEXTSIZE
 40
2.5
  9
$THICKNESS
 40
0.0
  9
$TRACEWID
 40
1.0
  9
$TREEDEPTH
 70
3020
  9
$UCSORG
 10
0.0
 20
0.0
 30
0.0
  9
$UCSXDIR
 10
1.0
 20
0.0
 30
0.0
  9
$UCSYDIR
 10
0.0
 20
1.0
 30
0.0
  9
$UNITMODE
 70
0
  9
$USERI1
 70
0
  9
$USERI2
 70
0
  9
$USERI3
 70
0
  9
$USERI4
 70
0
  9
$USERI5
 70
0
  9
$USERR1
 40
0.0
  9
$USERR2
 40
0.0
  9
$USERR3
 40
0.0
  9
$USERR4
 40
0.0
  9
$USERR5
 40
0.0
  0
ENDSEC
  0
SECTION
  2
TABLES
  0
TABLE
  2
VPORT
  5
8
100
AcDbSymbolTable
 70
1
  0
VPORT
  5
30
100
AcDbSymbolTableRecord
100
AcDbViewportTableRecord
  2
*Active
 70
0
 10
0.0
 20
0.0
 11
1.0
 21
1.0
 12
286.30555555555549
 22
148.5
 13
0.0
 23
0.0
 14
10.0
 24
10.0
 15
10.0
 25
10.0
 16
0.0
 26
0.0
 36
1.0
 17
0.0
 27
0.0
 37
0.0
 40
297.0
 41
1.92798353909465
 42
50.0
 43
0.0
 44
0.0
 50
0.0
 51
0.0
 71
0
 72
100
 73
1
 74
3
 75
1
 76
1
 77
0
 78
0
281
0
 65
1
110
0.0
120
0.0
130
0.0
111
1.0
121
0.0
131
0.0
112
0.0
122
1.0
132
0.0
 79
0
146
0.0
  0
ENDTAB
  0
TABLE
  2
LTYPE
  5
5
100
AcDbSymbolTable
 70
50
  0
LTYPE
  5
16
100
AcDbSymbolTableRecord
100
AcDbLinetypeTableRecord
  2
Continuous
 70
0
  3
Solid line
 72
65
 73
0
 40
0.0
  0
LTYPE
  5
31
100
AcDbSymbolTableRecord
100
AcDbLinetypeTableRecord
  2
ACAD_ISO15W100
 70
0
  3
ISO double-dash triple-dot __ __ . . . __ __ . .
 72
65
 73
10
 40
39.000000000000007
 49
12.0
 74
0
 49
-3.0
 74
0
 49
12.0
 74
0
 49
-2.9500000000000002
 74
0
 49
0.1
 74
0
 49
-2.8999999999999999
 74
0
 49
0.1
 74
0
 49
-2.8999999999999999
 74
0
 49
0.1
 74
0
 49
-2.9500000000000002
 74
0
  0
LTYPE
  5
32
100
AcDbSymbolTableRecord
100
AcDbLinetypeTableRecord
  2
HOT_WATER_SUPPLY
 70
0
  3
Hot water supply ---- HW ---- HW ---- HW ----
 72
65
 73
3
 40
22.859999999999999
 49
12.699999999999999
 74
0
 49
-5.0800000000000001
 74
0
 49
-5.0800000000000001
 74
0
  0
LTYPE
  5
33
100
AcDbSymbolTableRecord
100
AcDbLinetypeTableRecord
  2
DIVIDE
 70
0
  3
Divide ____ . . ____ . . ____ . . ____ . . ____
 72
65
 73
6
 40
31.749999999999989
 49
12.699999999999999
 74
0
 49
-6.2999999999999972
 74
0
 49
0.1
 74
0
 49
-6.249999999999992
 74
0
 49
0.1
 74
0
 49
-6.2999999999999972
 74
0
  0
LTYPE
  5
34
100
AcDbSymbolTableRecord
100
AcDbLinetypeTableRecord
  2
ACAD_ISO10W100
 70
0
  3
ISO dash dot __ . __ . __ . __ . __ . __ . __ . 
 72
65
 73
4
 40
18.0
 49
12.0
 74
0
 49
-2.9500000000000002
 74
0
 49
0.1
 74
0
 49
-2.9500000000000002
 74
0
  0
LTYPE
  5
35
100
AcDbSymbolTableRecord
100
AcDbLinetypeTableRecord
  2
GAS_LINE
 70
0
  3
Gas line ----GAS----GAS----GAS----GAS----GAS----GAS--
 72
65
 73
3
 40
24.129999999999999
 49
12.699999999999999
 74
0
 49
-5.0800000000000001
 74
0
 49
-6.349999999999997
 74
0
  0
LTYPE
  5
36
100
AcDbSymbolTableRecord
100
AcDbLinetypeTableRecord
  2
ACAD_ISO04W100
 70
0
  3
ISO long-dash dot ____ . ____ . ____ . ____ . _
 72
65
 73
4
 40
30.0
 49
24.0
 74
0
 49
-2.9500000000000002
 74
0
 49
0.1
 74
0
 49
-2.9500000000000002
 74
0
  0
LTYPE
  5
14
100
AcDbSymbolTableRecord
100
AcDbLinetypeTableRecord
  2
ByBlock
 70
0
  3

 72
65
 73
0
 40
0.0
  0
LTYPE
  5
37
100
AcDbSymbolTableRecord
100
AcDbLinetypeTableRecord
  2
CENTER2
 70
0
  3
Center (.5x) ___ _ ___ _ ___ _ ___ _ ___ _ ___
 72
65
 73
4
 40
28.574999999999992
 49
19.050000000000001
 74
0
 49
-3.174999999999998
 74
0
 49
3.174999999999998
 74
0
 49
-3.174999999999998
 74
0
  0
LTYPE
  5
38
100
AcDbSymbolTableRecord
100
AcDbLinetypeTableRecord
  2
ACAD_ISO11W100
 70
0
  3
ISO double-dash dot __ __ . __ __ . __ __ . __ _
 72
65
 73
6
 40
33.0
 49
12.0
 74
0
 49
-3.0
 74
0
 49
12.0
 74
0
 49
-2.9500000000000002
 74
0
 49
0.1
 74
0
 49
-2.9500000000000002
 74
0
  0
LTYPE
  5
39
100
AcDbSymbolTableRecord
100
AcDbLinetypeTableRecord
  2
HIDDEN2
 70
0
  3
Hidden (.5x) _ _ _ _ _ _ _ _ _ _ _ _ _ _ _ _ _ 
 72
65
 73
2
 40
4.7624999999999975
 49
3.174999999999998
 74
0
 49
-1.587499999999999
 74
0
  0
LTYPE
  5
3A
100
AcDbSymbolTableRecord
100
AcDbLinetypeTableRecord
  2
BORDERX2
 70
0
  3
Border (2x) ____  ____  .  ____  ____  .  ___
 72
65
 73
6
 40
88.899999999999991
 49
25.399999999999999
 74
0
 49
-12.699999999999999
 74
0
 49
25.399999999999999
 74
0
 49
-12.65
 74
0
 49
0.1
 74
0
 49
-12.65
 74
0
  0
LTYPE
  5
3B
100
AcDbSymbolTableRecord
100
AcDbLinetypeTableRecord
  2
ACAD_ISO05W100
 70
0
  3
ISO long-dash double-dot ____ .. ____ .. ____ . 
 72
65
 73
6
 40
33.0
 49
24.0
 74
0
 49
-2.9500000000000002
 74
0
 49
0.1
 74
0
 49
-2.8999999999999999
 74
0
 49
0.1
 74
0
 49
-2.9500000000000002
 74
0
  0
LTYPE
  5
3C
100
AcDbSymbolTableRecord
100
AcDbLinetypeTableRecord
  2
DASHDOTX2
 70
0
  3
Dash dot (2x) ____  .  ____  .  ____  .  ___
 72
65
 73
4
 40
50.799999999999997
 49
25.399999999999999
 74
0
 49
-12.65
 74
0
 49
0.1
 74
0
 49
-12.65
 74
0
  0
LTYPE
  5
3D
100
AcDbSymbolTableRecord
100
AcDbLinetypeTableRecord
  2
HIDDENX2
 70
0
  3
Hidden (2x) ____ ____ ____ ____ ____ ____ ____ 
 72
65
 73
2
 40
19.049999999999997
 49
12.699999999999999
 74
0
 49
-6.349999999999997
 74
0
  0
LTYPE
  5
3E
100
AcDbSymbolTableRecord
100
AcDbLinetypeTableRecord
  2
CENTERX2
 70
0
  3
Center (2x) ________  __  ________  __  _____
 72
65
 73
4
 40
101.60000000000001
 49
63.5
 74
0
 49
-12.699999999999999
 74
0
 49
12.699999999999999
 74
0
 49
-12.699999999999999
 74
0
  0
LTYPE
  5
3F
100
AcDbSymbolTableRecord
100
AcDbLinetypeTableRecord
  2
BORDER2
 70
0
  3
Border (.5x) __.__.__.__.__.__.__.__.__.__.__.
 72
65
 73
6
 40
22.224999999999987
 49
6.349999999999997
 74
0
 49
-3.174999999999998
 74
0
 49
6.349999999999997
 74
0
 49
-3.124999999999996
 74
0
 49
0.1
 74
0
 49
-3.124999999999996
 74
0
  0
LTYPE
  5
40
100
AcDbSymbolTableRecord
100
AcDbLinetypeTableRecord
  2
DASHDOT2
 70
0
  3
Dash dot (.5x) _._._._._._._._._._._._._._._.
 72
65
 73
4
 40
12.699999999999989
 49
6.349999999999997
 74
0
 49
-3.124999999999996
 74
0
 49
0.1
 74
0
 49
-3.124999999999996
 74
0
  0
LTYPE
  5
41
100
AcDbSymbolTableRecord
100
AcDbLinetypeTableRecord
  2
ACAD_ISO12W100
 70
0
  3
ISO dash double-dot __ . . __ . . __ . . __ . . 
 72
65
 73
6
 40
21.0
 49
12.0
 74
0
 49
-2.9500000000000002
 74
0
 49
0.1
 74
0
 49
-2.8999999999999999
 74
0
 49
0.1
 74
0
 49
-2.9500000000000002
 74
0
  0
LTYPE
  5
42
100
AcDbSymbolTableRecord
100
AcDbLinetypeTableRecord
  2
ACAD_ISO07W100
 70
0
  3
ISO dot . . . . . . . . . . . . . . . . . . . . 
 72
65
 73
2
 40
3.0
 49
0.1
 74
0
 49
-2.8999999999999999
 74
0
  0
LTYPE
  5
43
100
AcDbSymbolTableRecord
100
AcDbLinetypeTableRecord
  2
ACAD_ISO06W100
 70
0
  3
ISO long-dash triple-dot ____ ... ____ ... ____
 72
65
 73
8
 40
36.000000000000007
 49
24.0
 74
0
 49
-2.9500000000000002
 74
0
 49
0.1
 74
0
 49
-2.8999999999999999
 74
0
 49
0.1
 74
0
 49
-2.8999999999999999
 74
0
 49
0.1
 74
0
 49
-2.9500000000000002
 74
0
  0
LTYPE
  5
44
100
AcDbSymbolTableRecord
100
AcDbLinetypeTableRecord
  2
CENTER
 70
0
  3
Center ____ _ ____ _ ____ _ ____ _ ____ _ ____
 72
65
 73
4
 40
50.799999999999983
 49
31.75
 74
0
 49
-6.349999999999997
 74
0
 49
6.349999999999997
 74
0
 49
-6.349999999999997
 74
0
  0
LTYPE
  5
45
100
AcDbSymbolTableRecord
100
AcDbLinetypeTableRecord
  2
HIDDEN
 70
0
  3
Hidden __ __ __ __ __ __ __ __ __ __ __ __ __ __
 72
65
 73
2
 40
9.524999999999995
 49
6.349999999999997
 74
0
 49
-3.174999999999998
 74
0
  0
LTYPE
  5
46
100
AcDbSymbolTableRecord
100
AcDbLinetypeTableRecord
  2
DOTX2
 70
0
  3
Dot (2x) .  .  .  .  .  .  .  .  .  .  .  .  .  .
 72
65
 73
2
 40
12.699999999999999
 49
0.1
 74
0
 49
-12.6
 74
0
  0
LTYPE
  5
47
100
AcDbSymbolTableRecord
100
AcDbLinetypeTableRecord
  2
PHANTOM
 70
0
  3
Phantom ______  __  __  ______  __  __  ______ 
 72
65
 73
6
 40
63.499999999999972
 49
31.75
 74
0
 49
-6.349999999999997
 74
0
 49
6.349999999999997
 74
0
 49
-6.349999999999997
 74
0
 49
6.349999999999997
 74
0
 49
-6.349999999999997
 74
0
  0
LTYPE
  5
48
100
AcDbSymbolTableRecord
100
AcDbLinetypeTableRecord
  2
ACAD_ISO08W100
 70
0
  3
ISO long-dash short-dash ____ __ ____ __ ____ _
 72
65
 73
4
 40
36.0
 49
24.0
 74
0
 49
-3.0
 74
0
 49
6.0
 74
0
 49
-3.0
 74
0
  0
LTYPE
  5
49
100
AcDbSymbolTableRecord
100
AcDbLinetypeTableRecord
  2
DASHEDX2
 70
0
  3
Dashed (2x) ____  ____  ____  ____  ____  ___
 72
65
 73
2
 40
38.099999999999994
 49
25.399999999999999
 74
0
 49
-12.699999999999999
 74
0
  0
LTYPE
  5
4A
100
AcDbSymbolTableRecord
100
AcDbLinetypeTableRecord
  2
DRAINAGE
 70
0
  3
Drainage ---->---->---->----
 72
65
 73
2
 40
10.16
 49
5.0800000000000001
 74
0
 49
5.0800000000000001
 74
0
  0
LTYPE
  5
4B
100
AcDbSymbolTableRecord
100
AcDbLinetypeTableRecord
  2
ACAD_ISO02W100
 70
0
  3
ISO dash __ __ __ __ __ __ __ __ __ __ __ __ __
 72
65
 73
2
 40
15.0
 49
12.0
 74
0
 49
-3.0
 74
0
  0
LTYPE
  5
4C
100
AcDbSymbolTableRecord
100
AcDbLinetypeTableRecord
  2
PHANTOM2
 70
0
  3
Phantom (.5x) ___ _ _ ___ _ _ ___ _ _ ___ _ _
 72
65
 73
6
 40
31.749999999999986
 49
15.875
 74
0
 49
-3.174999999999998
 74
0
 49
3.174999999999998
 74
0
 49
-3.174999999999998
 74
0
 49
3.174999999999998
 74
0
 49
-3.174999999999998
 74
0
  0
LTYPE
  5
4D
100
AcDbSymbolTableRecord
100
AcDbLinetypeTableRecord
  2
DASHED2
 70
0
  3
Dashed (.5x) _ _ _ _ _ _ _ _ _ _ _ _ _ _ _ _ _ 
 72
65
 73
2
 40
9.524999999999995
 49
6.349999999999997
 74
0
 49
-3.174999999999998
 74
0
  0
LTYPE
  5
4E
100
AcDbSymbolTableRecord
100
AcDbLinetypeTableRecord
  2
ACAD_ISO09W100
 70
0
  3
ISO long-dash double-short-dash ____ __ __ ____
 72
65
 73
6
 40
45.0
 49
24.0
 74
0
 49
-3.0
 74
0
 49
6.0
 74
0
 49
-3.0
 74
0
 49
6.0
 74
0
 49
-3.0
 74
0
  0
LTYPE
  5
4F
100
AcDbSymbolTableRecord
100
AcDbLinetypeTableRecord
  2
ACAD_ISO13W100
 70
0
  3
ISO double-dash double-dot __ __ . . __ __ . . _
 72
65
 73
8
 40
36.000000000000007
 49
12.0
 74
0
 49
-3.0
 74
0
 49
12.0
 74
0
 49
-2.9500000000000002
 74
0
 49
0.1
 74
0
 49
-2.8999999999999999
 74
0
 49
0.1
 74
0
 49
-2.9500000000000002
 74
0
  0
LTYPE
  5
50
100
AcDbSymbolTableRecord
100
AcDbLinetypeTableRecord
  2
TRACKS
 70
0
  3
Tracks -|-|-|-|-|-|-|-|-|-|-|-|-|-|-|-|-|-|-|-|-|-|-|-|-
 72
65
 73
2
 40
7.6200000000000001
 49
3.8100000000000001
 74
0
 49
3.8100000000000001
 74
0
  0
LTYPE
  5
51
100
AcDbSymbolTableRecord
100
AcDbLinetypeTableRecord
  2
DRAINAGE2
 70
0
  3
Drainage reversed----<----<----<----
 72
65
 73
2
 40
10.16
 49
5.0800000000000001
 74
0
 49
5.0800000000000001
 74
0
  0
LTYPE
  5
52
100
AcDbSymbolTableRecord
100
AcDbLinetypeTableRecord
  2
DOT2
 70
0
  3
Dot (.5x) ........................................
 72
65
 73
2
 40
3.174999999999998
 49
0.1
 74
0
 49
-3.074999999999998
 74
0
  0
LTYPE
  5
53
100
AcDbSymbolTableRecord
100
AcDbLinetypeTableRecord
  2
ZIGZAG
 70
0
  3
Zig zag /\/\/\/\/\/\/\/\/\/\/\/\/\/\/\/\/\/\/\/\/\/\/\/
 72
65
 73
4
 40
20.32254
 49
0.00254
 74
0
 49
-5.0800000000000001
 74
0
 49
-10.16
 74
0
 49
-5.0800000000000001
 74
0
  0
LTYPE
  5
54
100
AcDbSymbolTableRecord
100
AcDbLinetypeTableRecord
  2
DASHED
 70
0
  3
Dashed __ __ __ __ __ __ __ __ __ __ __ __ __ _
 72
65
 73
2
 40
19.049999999999997
 49
12.699999999999999
 74
0
 49
-6.349999999999997
 74
0
  0
LTYPE
  5
55
100
AcDbSymbolTableRecord
100
AcDbLinetypeTableRecord
  2
ACAD_ISO14W100
 70
0
  3
ISO dash triple-dot __ . . . __ . . . __ . . . _
 72
65
 73
8
 40
24.0
 49
12.0
 74
0
 49
-2.9500000000000002
 74
0
 49
0.1
 74
0
 49
-2.8999999999999999
 74
0
 49
0.1
 74
0
 49
-2.8999999999999999
 74
0
 49
0.1
 74
0
 49
-2.9500000000000002
 74
0
  0
LTYPE
  5
56
100
AcDbSymbolTableRecord
100
AcDbLinetypeTableRecord
  2
PHANTOMX2
 70
0
  3
Phantom (2x) ____________    ____    ____   _
 72
65
 73
6
 40
127.00000000000001
 49
63.5
 74
0
 49
-12.699999999999999
 74
0
 49
12.699999999999999
 74
0
 49
-12.699999999999999
 74
0
 49
12.699999999999999
 74
0
 49
-12.699999999999999
 74
0
  0
LTYPE
  5
57
100
AcDbSymbolTableRecord
100
AcDbLinetypeTableRecord
  2
DIVIDEX2
 70
0
  3
Divide (2x) ________  .  .  ________  .  .  _
 72
65
 73
6
 40
63.5
 49
25.399999999999999
 74
0
 49
-12.65
 74
0
 49
0.1
 74
0
 49
-12.6
 74
0
 49
0.1
 74
0
 49
-12.65
 74
0
  0
LTYPE
  5
58
100
AcDbSymbolTableRecord
100
AcDbLinetypeTableRecord
  2
BORDER
 70
0
  3
Border __ __ . __ __ . __ __ . __ __ . __ __ .
 72
65
 73
6
 40
44.449999999999996
 49
12.699999999999999
 74
0
 49
-6.349999999999997
 74
0
 49
12.699999999999999
 74
0
 49
-6.2999999999999972
 74
0
 49
0.1
 74
0
 49
-6.2999999999999972
 74
0
  0
LTYPE
  5
59
100
AcDbSymbolTableRecord
100
AcDbLinetypeTableRecord
  2
DIVIDE2
 70
0
  3
Divide (.5x) __..__..__..__..__..__..__..__.._
 72
65
 73
6
 40
15.874999999999986
 49
6.349999999999997
 74
0
 49
-3.124999999999996
 74
0
 49
0.1
 74
0
 49
-3.074999999999998
 74
0
 49
0.1
 74
0
 49
-3.124999999999996
 74
0
  0
LTYPE
  5
5A
100
AcDbSymbolTableRecord
100
AcDbLinetypeTableRecord
  2
DOT
 70
0
  3
Dot . . . . . . . . . . . . . . . . . . . . . . . .
 72
65
 73
2
 40
6.3499999999999917
 49
0.1
 74
0
 49
-6.249999999999992
 74
0
  0
LTYPE
  5
5B
100
AcDbSymbolTableRecord
100
AcDbLinetypeTableRecord
  2
DASHDOT
 70
0
  3
Dash dot __ . __ . __ . __ . __ . __ . __ . __
 72
65
 73
4
 40
25.399999999999995
 49
12.699999999999999
 74
0
 49
-6.2999999999999972
 74
0
 49
0.1
 74
0
 49
-6.2999999999999972
 74
0
  0
LTYPE
  5
5C
100
AcDbSymbolTableRecord
100
AcDbLinetypeTableRecord
  2
FENCELINE1
 70
0
  3
Fenceline circle ----0-----0----0-----0----0-----0--
 72
65
 73
4
 40
36.829999999999998
 49
6.349999999999997
 74
0
 49
-2.54
 74
0
 49
-2.54
 74
0
 49
25.399999999999999
 74
0
  0
LTYPE
  5
5D
100
AcDbSymbolTableRecord
100
AcDbLinetypeTableRecord
  2
BATTING
 70
0
  3
Batting SSSSSSSSSSSSSSSSSSSSSSSSSSSSSSSSSSSSSSSSSSSSSSS
 72
65
 73
4
 40
10.16254
 49
0.00254
 74
0
 49
-2.54
 74
0
 49
-5.0800000000000001
 74
0
 49
-2.54
 74
0
  0
LTYPE
  5
5E
100
AcDbSymbolTableRecord
100
AcDbLinetypeTableRecord
  2
ACAD_ISO03W100
 70
0
  3
ISO dash space __    __    __    __    __    __
 72
65
 73
2
 40
30.0
 49
12.0
 74
0
 49
-18.0
 74
0
  0
LTYPE
  5
15
100
AcDbSymbolTableRecord
100
AcDbLinetypeTableRecord
  2
ByLayer
 70
0
  3

 72
65
 73
0
 40
0.0
  0
LTYPE
  5
5F
100
AcDbSymbolTableRecord
100
AcDbLinetypeTableRecord
  2
FENCELINE2
 70
0
  3
Fenceline square ----[]-----[]----[]-----[]----[]---
 72
65
 73
4
 40
36.829999999999998
 49
6.349999999999997
 74
0
 49
-2.54
 74
0
 49
-2.54
 74
0
 49
25.399999999999999
 74
0
  0
ENDTAB
  0
TABLE
  2
LAYER
  5
2
100
AcDbSymbolTable
 70
4
  0
LAYER
  5
60
100
AcDbSymbolTableRecord
100
AcDbLayerTableRecord
  2
grabado linea medio
 70
0
 62
3
420
65280
  6
Continuous
370
-3
390
F
  0
LAYER
  5
61
100
AcDbSymbolTableRecord
100
AcDbLayerTableRecord
  2
mesa de trabajo y auxiliares
 70
1
 62
-7
420
16777215
  6
Continuous
370
-3
390
F
  0
LAYER
  5
62
100
AcDbSymbolTableRecord
100
AcDbLayerTableRecord
  2
Corte exterior
 70
0
 62
1
420
16711680
  6
Continuous
370
-3
390
F
  0
LAYER
  5
10
100
AcDbSymbolTableRecord
100
AcDbLayerTableRecord
  2
0
 70
0
 62
7
420
16777215
  6
Continuous
370
-3
390
F
  0
ENDTAB
  0
TABLE
  2
STYLE
  5
3
100
AcDbSymbolTable
 70
1
  0
STYLE
  5
63
100
AcDbSymbolTableRecord
100
AcDbTextStyleTableRecord
  2
Standard
 70
0
 40
0.0
 41
1.0
 50
0.0
 71
0
 42
2.5
  3

  4

1001
ACAD
1000
txt
1071
0
  0
ENDTAB
  0
TABLE
  2
VIEW
  5
6
100
AcDbSymbolTable
 70
0
  0
ENDTAB
  0
TABLE
  2
UCS
  5
7
100
AcDbSymbolTable
 70
0
  0
ENDTAB
  0
TABLE
  2
APPID
  5
9
100
AcDbSymbolTable
 70
1
  0
APPID
  5
12
100
AcDbSymbolTableRecord
100
AcDbRegAppTableRecord
  2
ACAD
 70
0
  0
APPID
  5
64
100
AcDbSymbolTableRecord
100
AcDbRegAppTableRecord
  2
QCAD
 70
0
  0
ENDTAB
  0
TABLE
  2
DIMSTYLE
  5
A
100
AcDbSymbolTable
 70
1
100
AcDbDimStyleTable
 71
0
  0
DIMSTYLE
105
27
100
AcDbSymbolTableRecord
100
AcDbDimStyleTableRecord
  2
Standard
 41
2.5
 42
0.625
 43
3.75
 44
1.25
 70
0
 73
0
 74
0
 77
1
 78
8
140
2.5
141
2.5
143
0.03937007874016
147
0.625
171
3
172
1
271
2
272
2
274
3
278
44
283
0
284
8
340
63
  0
ENDTAB
  0
TABLE
  2
BLOCK_RECORD
  5
1
100
AcDbSymbolTable
 70
1
  0
BLOCK_RECORD
  5
1F
100
AcDbSymbolTableRecord
100
AcDbBlockTableRecord
  2
*Model_Space
340
22
  0
BLOCK_RECORD
  5
1B
100
AcDbSymbolTableRecord
100
AcDbBlockTableRecord
  2
*Paper_Space
340
1E
  0
BLOCK_RECORD
  5
23
100
AcDbSymbolTableRecord
100
AcDbBlockTableRecord
  2
*Paper_Space0
340
26
  0
BLOCK_RECORD
  5
65
100
AcDbSymbolTableRecord
100
AcDbBlockTableRecord
  2
A$C32B96BB9
340
0
  0
BLOCK_RECORD
  5
66
100
AcDbSymbolTableRecord
100
AcDbBlockTableRecord
  2
$PAPER_SPACE
340
0
  0
BLOCK_RECORD
  5
67
100
AcDbSymbolTableRecord
100
AcDbBlockTableRecord
  2
$MODEL_SPACE
340
0
  0
ENDTAB
  0
ENDSEC
  0
SECTION
  2
BLOCKS
  0
BLOCK
  5
20
100
AcDbEntity
  8
0
100
AcDbBlockBegin
  2
*Model_Space
 70
0
 10
0.0
 20
0.0
 30
0.0
  3
*Model_Space
  1

  0
ENDBLK
  5
21
100
AcDbEntity
  8
0
100
AcDbBlockEnd
  0
BLOCK
  5
1C
100
AcDbEntity
 67
1
  8
0
100
AcDbBlockBegin
  2
*Paper_Space
 70
0
 10
0.0
 20
0.0
 30
0.0
  3
*Paper_Space
  1

  0
ENDBLK
  5
1D
100
AcDbEntity
 67
1
  8
0
100
AcDbBlockEnd
  0
BLOCK
  5
24
100
AcDbEntity
  8
0
100
AcDbBlockBegin
  2
*Paper_Space0
 70
0
 10
0.0
 20
0.0
 30
0.0
  3
*Paper_Space0
  1

  0
ENDBLK
  5
25
100
AcDbEntity
  8
0
100
AcDbBlockEnd
  0
BLOCK
  5
68
100
AcDbEntity
  8
0
100
AcDbBlockBegin
  2
A$C32B96BB9
 70
0
 10
0.0
 20
0.0
 30
0.0
  3
A$C32B96BB9
  1

  0
ENDBLK
  5
69
100
AcDbEntity
  8
0
100
AcDbBlockEnd
  0
BLOCK
  5
6A
100
AcDbEntity
  8
0
100
AcDbBlockBegin
  2
$PAPER_SPACE
 70
0
 10
0.0
 20
0.0
 30
0.0
  3
$PAPER_SPACE
  1

  0
ENDBLK
  5
6B
100
AcDbEntity
  8
0
100
AcDbBlockEnd
  0
BLOCK
  5
6C
100
AcDbEntity
  8
0
100
AcDbBlockBegin
  2
$MODEL_SPACE
 70
0
 10
0.0
 20
0.0
 30
0.0
  3
$MODEL_SPACE
  1

  0
ENDBLK
  5
6D
100
AcDbEntity
  8
0
100
AcDbBlockEnd
  0
ENDSEC
  0
SECTION
  2
ENTITIES
  0
CIRCLE
  5
6E
100
AcDbEntity
100
AcDbCircle
  8
mesa de trabajo y auxiliares
 62
256
370
-1
 48
1.0
  6
ByLayer
 10
73.699972905966703
 20
14.2653064035401
 30
0.0
 40
6.0
  0
CIRCLE
  5
6F
100
AcDbEntity
100
AcDbCircle
  8
Corte exterior
 62
256
370
-1
 48
1.0
  6
ByLayer
 10
20.501257456827851
 20
109.5220432620557
 30
0.0
 40
8.0
  0
CIRCLE
  5
70
100
AcDbEntity
100
AcDbCircle
  8
Corte exterior
 62
256
370
-1
 48
1.0
  6
ByLayer
 10
46.501257456827837
 20
109.5220432620557
 30
0.0
 40
8.0
  0
LINE
  5
71
100
AcDbEntity
100
AcDbLine
  8
Corte exterior
 62
256
370
-1
 48
1.0
  6
ByLayer
 10
65.999992566793367
 20
93.396511393877702
 30
0.0
 11
65.999984894470984
 21
58.712046137659073
 31
0.0
  0
LINE
  5
72
100
AcDbEntity
100
AcDbLine
  8
Corte exterior
 62
256
370
-1
 48
1.0
  6
ByLayer
 10
65.999984673267534
 20
57.712046137659129
 30
0.0
 11
65.99998250051442
 21
47.88962513807995
 31
0.0
  0
CIRCLE
  5
73
100
AcDbEntity
100
AcDbCircle
  8
Corte exterior
 62
256
370
-1
 48
1.0
  6
ByLayer
 10
107.49998645298329
 20
27.00765320177009
 30
0.0
 40
5.0
  0
LWPOLYLINE
  5
74
  8
mesa de trabajo y auxiliares
 62
256
370
-1
 48
1.0
  6
ByLayer
100
AcDbEntity
100
AcDbPolyline
 90
4
 70
129
 10
0.0
 20
0.0
 30
0.0
 10
150.0
 20
0.0
 30
0.0
 10
150.0
 20
160.0
 30
0.0
 10
0.0
 20
160.0
 30
0.0
  0
LWPOLYLINE
  5
75
  8
mesa de trabajo y auxiliares
 62
256
370
-1
 48
1.0
  6
ACAD_ISO02W100
100
AcDbEntity
100
AcDbPolyline
 90
4
 70
129
 10
1.0
 20
1.0
 30
0.0
 10
149.0
 20
1.0
 30
0.0
 10
149.0
 20
159.0
 30
0.0
 10
1.0
 20
159.0
 30
0.0
  0
LWPOLYLINE
  5
76
  8
grabado linea medio
 62
256
370
-1
 48
1.0
  6
ByLayer
100
AcDbEntity
100
AcDbPolyline
 90
16
 70
128
 10
10.228683340335611
 20
106.8967469114891
 30
0.0
 42
0.0035874178407905
 10
10.198959590526449
 20
106.9128341868511
 30
0.0
 42
0.0383959801004057
 10
9.9759326123198431
 20
107.0169160789348
 30
0.0
 42
0.0333206568715902
 10
9.8204629017957732
 20
107.0665485357123
 30
0.0
 42
0.0317346761228351
 10
9.6968128211026396
 20
107.0904579413979
 30
0.0
 42
0.0328719430011415
 10
9.5875771497873412
 20
107.0983793945036
 30
0.0
 42
0.0391356451616042
 10
9.4778311979226277
 20
107.0918637691377
 30
0.0
 42
0.1604110235762597
 10
9.1100745330445925
 20
106.9170688580738
 30
0.0
 42
0.0391356451616042
 10
9.0357241266673416
 20
106.83608340014381
 30
0.0
 42
0.0328719430011415
 10
8.9728907947590208
 20
106.7463774710849
 30
0.0
 42
0.0317346761228351
 10
8.9133530702218167
 20
106.63539881776551
 30
0.0
 42
0.0333206568715902
 10
8.8536694258593922
 20
106.4835038729786
 30
0.0
 42
0.0383959801004056
 10
8.7935488108976276
 20
106.2448418003229
 30
0.0
 42
0.0518881866542454
 10
8.7493314829618782
 20
105.75930593224921
 30
0.0
 42
0.186321740040379
 10
11.751715481669381
 20
99.442493163919423
 30
0.0
 42
0.0482917795591489
 10
12.126589753754541
 20
99.186609533579571
 30
0.0
  0
LWPOLYLINE
  5
77
  8
grabado linea medio
 62
256
370
-1
 48
1.0
  6
ByLayer
100
AcDbEntity
100
AcDbPolyline
 90
16
 70
128
 10
54.876106221049483
 20
99.186280653866888
 30
0.0
 42
0.0482917795591497
 10
55.250799431986309
 20
99.442493163919465
 30
0.0
 42
0.1863218059664889
 10
58.253183430693817
 20
105.75930593224921
 30
0.0
 42
0.0518881866542453
 10
58.208966102758069
 20
106.2448418003229
 30
0.0
 42
0.038395980100407
 10
58.148845487796308
 20
106.4835038729786
 30
0.0
 42
0.0333206568715874
 10
58.089161843433892
 20
106.63539881776551
 30
0.0
 42
0.0317346761228386
 10
58.029624118896677
 20
106.7463774710849
 30
0.0
 42
0.0328719430011379
 10
57.966790786988341
 20
106.83608340014381
 30
0.0
 42
0.0391356451616066
 10
57.892440380611099
 20
106.9170688580738
 30
0.0
 42
0.1604110000989014
 10
57.524683715733062
 20
107.0918637691377
 30
0.0
 42
0.0391356451616066
 10
57.414937763868373
 20
107.0983793945035
 30
0.0
 42
0.0328719430011379
 10
57.305702092553062
 20
107.0904579413979
 30
0.0
 42
0.0317346761228386
 10
57.18205201185993
 20
107.0665485357123
 30
0.0
 42
0.0333206568715874
 10
57.026582301335857
 20
107.0169160789348
 30
0.0
 42
0.038395980100407
 10
56.803555323129252
 20
106.9128341868511
 30
0.0
 42
0.0035874178407896
 10
56.774012634468441
 20
106.89641803177641
 30
0.0
  0
ARC
  5
78
100
AcDbEntity
  8
grabado linea medio
 62
256
370
-1
 48
1.0
  6
ByLayer
100
AcDbCircle
 10
44.546478296014122
 20
113.81176788194971
 30
0.0
 40
22.437301543966651
100
AcDbArc
 50
73.056148718964906
 51
82.619710725302411
  0
LINE
  5
79
100
AcDbEntity
100
AcDbLine
  8
grabado linea medio
 62
256
370
-1
 48
1.0
  6
ByLayer
 10
43.549728860857748
 20
80.575872219946305
 30
0.0
 11
44.495077188200987
 21
77.69865676172634
 31
0.0
  0
LINE
  5
7A
100
AcDbEntity
100
AcDbLine
  8
grabado linea medio
 62
256
370
-1
 48
1.0
  6
ByLayer
 10
23.338049219819929
 20
80.560231925012459
 30
0.0
 11
22.397154942175199
 21
77.681556845861309
 31
0.0
  0
LINE
  5
7B
100
AcDbEntity
100
AcDbLine
  8
grabado linea medio
 62
256
370
-1
 48
1.0
  6
ByLayer
 10
12.92199097792744
 20
78.932254445455413
 30
0.0
 11
9.007621803462003
 21
78.320458244367458
 31
0.0
  0
LINE
  5
7C
100
AcDbEntity
100
AcDbLine
  8
grabado linea medio
 62
256
370
-1
 48
1.0
  6
ByLayer
 10
29.9084784121554
 20
81.730928519970206
 30
0.0
 11
31.143814146002679
 21
75.440357186469882
 31
0.0
  0
LINE
  5
7D
100
AcDbEntity
100
AcDbLine
  8
grabado linea medio
 62
256
370
-1
 48
1.0
  6
ByLayer
 10
36.977495710756827
 20
81.736398699460693
 30
0.0
 11
35.751897048232657
 21
75.443923034383062
 31
0.0
  0
ARC
  5
7E
100
AcDbEntity
  8
grabado linea medio
 62
256
370
-1
 48
1.0
  6
ByLayer
100
AcDbCircle
 10
53.671388962175882
 20
100.9136133327294
 30
0.0
 40
22.236839597620818
100
AcDbArc
 50
92.165844347088466
 51
101.7741262348531
  0
LINE
  5
7F
100
AcDbEntity
100
AcDbLine
  8
grabado linea medio
 62
256
370
-1
 48
1.0
  6
ByLayer
 10
53.294709113100389
 20
50.854645714069989
 30
0.0
 11
49.535855863204958
 21
51.234790189252848
 31
0.0
  0
LINE
  5
80
100
AcDbEntity
100
AcDbLine
  8
grabado linea medio
 62
256
370
-1
 48
1.0
  6
ByLayer
 10
14.0
 20
49.999999999999957
 30
0.0
 11
17.518177322951441
 21
51.115634076675462
 31
0.0
  0
LINE
  5
81
100
AcDbEntity
100
AcDbLine
  8
grabado linea medio
 62
256
370
-1
 48
1.0
  6
ByLayer
 10
53.0
 20
37.999999999999993
 30
0.0
 11
53.0
 21
32.999999999999972
 31
0.0
  0
ARC
  5
82
100
AcDbEntity
  8
grabado linea medio
 62
256
370
-1
 48
1.0
  6
ByLayer
100
AcDbCircle
 10
35.250628728413929
 20
81.996227629516483
 30
0.0
 40
8.1927206716918342
100
AcDbArc
 50
77.670845927465578
 51
121.2537984885856
  0
LINE
  5
83
100
AcDbEntity
100
AcDbLine
  8
grabado linea medio
 62
256
370
-1
 48
1.0
  6
ByLayer
 10
55.855473946707107
 20
44.148714947919828
 30
0.0
 11
65.382162395276211
 21
44.178945218466552
 31
0.0
  0
LINE
  5
84
100
AcDbEntity
100
AcDbLine
  8
grabado linea medio
 62
256
370
-1
 48
1.0
  6
ByLayer
 10
11.098079270477101
 20
44.159889221438888
 30
0.0
 11
1.555009348281658
 21
44.166957434946518
 31
0.0
  0
LINE
  5
85
100
AcDbEntity
100
AcDbLine
  8
grabado linea medio
 62
256
370
-1
 48
1.0
  6
ByLayer
 10
56.62375762982618
 20
41.636378342861512
 30
0.0
 11
64.702703731597254
 21
41.636378342861413
 31
0.0
  0
LINE
  5
86
100
AcDbEntity
100
AcDbLine
  8
grabado linea medio
 62
256
370
-1
 48
1.0
  6
ByLayer
 10
10.37875728382938
 20
41.636378342861448
 30
0.0
 11
2.2283398944960862
 21
41.636378342861548
 31
0.0
  0
LINE
  5
87
100
AcDbEntity
100
AcDbLine
  8
grabado linea medio
 62
256
370
-1
 48
1.0
  6
ByLayer
 10
53.762718880930422
 20
10.278844596863291
 30
0.0
 11
37.044435461232098
 21
10.000697444864739
 31
0.0
  0
LINE
  5
88
100
AcDbEntity
100
AcDbLine
  8
grabado linea medio
 62
256
370
-1
 48
1.0
  6
ByLayer
 10
13.23979603272522
 20
10.27884459686331
 30
0.0
 11
29.958079452423551
 21
10.0006974448647
 31
0.0
  0
LINE
  5
89
100
AcDbEntity
100
AcDbLine
  8
grabado linea medio
 62
256
370
-1
 48
1.0
  6
ByLayer
 10
60.000001887513392
 20
69.445986165200466
 30
0.0
 11
60.002514913655681
 21
77.415937296931261
 31
0.0
  0
LINE
  5
8A
100
AcDbEntity
100
AcDbLine
  8
grabado linea medio
 62
256
370
-1
 48
1.0
  6
ByLayer
 10
7.0
 20
69.461022627320673
 30
0.0
 11
6.9981551998705971
 21
77.447014460948907
 31
0.0
  0
LINE
  5
8B
100
AcDbEntity
100
AcDbLine
  8
grabado linea medio
 62
256
370
-1
 48
1.0
  6
ByLayer
 10
53.0
 20
39.310757882206943
 30
0.0
 11
49.501257456827823
 21
39.300000000000011
 31
0.0
  0
LINE
  5
8C
100
AcDbEntity
100
AcDbLine
  8
grabado linea medio
 62
256
370
-1
 48
1.0
  6
ByLayer
 10
53.0
 20
42.298717770679673
 30
0.0
 11
49.501257456827823
 21
42.299999999999983
 31
0.0
  0
LINE
  5
8D
100
AcDbEntity
100
AcDbLine
  8
grabado linea medio
 62
256
370
-1
 48
1.0
  6
ByLayer
 10
13.915452031629069
 20
39.360835603105201
 30
0.0
 11
17.501257456827819
 21
39.299999999999962
 31
0.0
  0
LINE
  5
8E
100
AcDbEntity
100
AcDbLine
  8
grabado linea medio
 62
256
370
-1
 48
1.0
  6
ByLayer
 10
14.0
 20
42.29999999999999
 30
0.0
 11
17.501257456827819
 21
42.300000000000033
 31
0.0
  0
LINE
  5
8F
100
AcDbEntity
100
AcDbLine
  8
Corte exterior
 62
256
370
-1
 48
1.0
  6
ByLayer
 10
0.0
 20
-0.0000000000000568
 30
0.0
 11
0.0
 21
-0.0000000000000568
 31
0.0
  0
LWPOLYLINE
  5
90
  8
grabado linea medio
 62
256
370
-1
 48
1.0
  6
ByLayer
100
AcDbEntity
100
AcDbPolyline
 90
194
 70
128
 10
8.1409867277796124
 20
115.3756611404375
 30
0.0
 10
9.2794585419036153
 20
110.7513222808749
 30
0.0
 10
9.2671397642473092
 20
110.7582654619176
 30
0.0
 10
9.2548428900293036
 20
110.76514908781419
 30
0.0
 10
9.2425679192496037
 20
110.7719731585651
 30
0.0
 10
9.2303148519082079
 20
110.7787376741699
 30
0.0
 10
9.2180836880051231
 20
110.78544263462869
 30
0.0
 10
9.2058744275403388
 20
110.7920880399414
 30
0.0
 10
9.1936870705138567
 20
110.7986738901083
 30
0.0
 10
9.1815216169256821
 20
110.8052001851291
 30
0.0
 10
9.1693780667758116
 20
110.811666925004
 30
0.0
 10
9.1572564200642432
 20
110.8180741097329
 30
0.0
 10
9.1451566767909842
 20
110.8244217393158
 30
0.0
 10
9.1330788369560292
 20
110.8307098137527
 30
0.0
 10
9.1210229005593746
 20
110.83693833304361
 30
0.0
 10
9.1089888676010222
 20
110.8431072971886
 30
0.0
 10
9.0969767380809827
 20
110.84921670618751
 30
0.0
 10
9.0849865119992455
 20
110.8552665600406
 30
0.0
 10
9.0730181893558104
 20
110.86125685874759
 30
0.0
 10
9.0610717701506793
 20
110.8671876023086
 30
0.0
 10
9.0491472543838558
 20
110.8730587907236
 30
0.0
 10
9.0372446420553363
 20
110.87887042399269
 30
0.0
 10
9.0253639331651172
 20
110.8846225021158
 30
0.0
 10
9.0135051277132128
 20
110.8903150250929
 30
0.0
 10
9.001668225699607
 20
110.89594799292399
 30
0.0
 10
8.9898532271243017
 20
110.9015214056091
 30
0.0
 10
8.9780601319873075
 20
110.9070352631483
 30
0.0
 10
8.9662889402886137
 20
110.91248956554151
 30
0.0
 10
8.9545396520282257
 20
110.9178843127887
 30
0.0
 10
8.9428122672061452
 20
110.9232195048899
 30
0.0
 10
8.9311067858223652
 20
110.9284951418451
 30
0.0
 10
8.9194232078768927
 20
110.9337112236544
 30
0.0
 10
8.9077615333697224
 20
110.9388677503177
 30
0.0
 10
8.8961217623008597
 20
110.9439647218349
 30
0.0
 10
8.8845038946702992
 20
110.9490021382062
 30
0.0
 10
8.8729079304780445
 20
110.9539799994315
 30
0.0
 10
8.8613338697240902
 20
110.9588983055109
 30
0.0
 10
8.849781712408447
 20
110.96375705644429
 30
0.0
 10
8.8382514585311061
 20
110.96855625223159
 30
0.0
 10
8.8267431080920673
 20
110.973295892873
 30
0.0
 10
8.8152566610913361
 20
110.97797597836841
 30
0.0
 10
8.8037921175289071
 20
110.9825965087178
 30
0.0
 10
8.7923494774047857
 20
110.98715748392119
 30
0.0
 10
8.7809287407189665
 20
110.9916589039788
 30
0.0
 10
8.7695299074714512
 20
110.9961007688903
 30
0.0
 10
8.7581529776622471
 20
111.0004830786558
 30
0.0
 10
8.7467979512913416
 20
111.0048058332753
 30
0.0
 10
8.7354648283587384
 20
111.0090690327489
 30
0.0
 10
8.7241536088644445
 20
111.0132726770764
 30
0.0
 10
8.7128642928084545
 20
111.01741676625799
 30
0.0
 10
8.7015968801907704
 20
111.02150130029359
 30
0.0
 10
8.6903513710113884
 20
111.0255262791832
 30
0.0
 10
8.6791277652703105
 20
111.0294917029269
 30
0.0
 10
8.6679260629675383
 20
111.0333975715245
 30
0.0
 10
8.6567462641030701
 20
111.03724388497621
 30
0.0
 10
8.6455883686769095
 20
111.0410306432819
 30
0.0
 10
8.6344523766890511
 20
111.0447578464416
 30
0.0
 10
8.6233382881394967
 20
111.0484254944553
 30
0.0
 10
8.612246103028248
 20
111.052033587323
 30
0.0
 10
8.6011758213553051
 20
111.05558212504479
 30
0.0
 10
8.5901274431206645
 20
111.0590711076206
 30
0.0
 10
8.5791009683243296
 20
111.0625005350504
 30
0.0
 10
8.5680963969663004
 20
111.0658704073342
 30
0.0
 10
8.5571137290465735
 20
111.0691807244721
 30
0.0
 10
8.5461529645651524
 20
111.0724314864639
 30
0.0
 10
8.5352141035220335
 20
111.0756226933098
 30
0.0
 10
8.5242971459172239
 20
111.0787543450097
 30
0.0
 10
8.5134020917507165
 20
111.08182644156361
 30
0.0
 10
8.5025289410225149
 20
111.0848389829715
 30
0.0
 10
8.4916776937326102
 20
111.08779196923339
 30
0.0
 10
8.4808483498810219
 20
111.0906854003494
 30
0.0
 10
8.4700409094677305
 20
111.0935192763194
 30
0.0
 10
8.4592553724927502
 20
111.0962935971434
 30
0.0
 10
8.4484917389560668
 20
111.09900836282139
 30
0.0
 10
8.4377500088576962
 20
111.10166357335341
 30
0.0
 10
8.4270301821976261
 20
111.10425922873949
 30
0.0
 10
8.41633225897586
 20
111.1067953289796
 30
0.0
 10
8.4056562391923961
 20
111.1092718740737
 30
0.0
 10
8.3950021228472416
 20
111.1116888640218
 30
0.0
 10
8.3843699099403892
 20
111.11404629882379
 30
0.0
 10
8.3737596004718409
 20
111.11634417848011
 30
0.0
 10
8.3631711944416036
 20
111.11858250299019
 30
0.0
 10
8.3526046918496633
 20
111.1207612723544
 30
0.0
 10
8.3420600926960304
 20
111.1228804865726
 30
0.0
 10
8.3315373969807016
 20
111.1249401456448
 30
0.0
 10
8.321036604703675
 20
111.12694024957111
 30
0.0
 10
8.3105577158649542
 20
111.1288807983513
 30
0.0
 10
8.3001007304645444
 20
111.13076179198561
 30
0.0
 10
8.2896656485024334
 20
111.1325832304739
 30
0.0
 10
8.2792524699786245
 20
111.1343451138162
 30
0.0
 10
8.2688611948931232
 20
111.1360474420125
 30
0.0
 10
8.2584918232459295
 20
111.1376902150629
 30
0.0
 10
8.2481443550370361
 20
111.1392734329673
 30
0.0
 10
8.2378187902664504
 20
111.1407970957256
 30
0.0
 10
8.2275151289341686
 20
111.14226120333799
 30
0.0
 10
8.2172333710401926
 20
111.14366575580451
 30
0.0
 10
8.2069735165845188
 20
111.14501075312479
 30
0.0
 10
8.1967355655671472
 20
111.1462961952994
 30
0.0
 10
8.1865195179880832
 20
111.1475220823278
 30
0.0
 10
8.1763253738473267
 20
111.1486884142103
 30
0.0
 10
8.1661531331448707
 20
111.1497951909469
 30
0.0
 10
8.1560027958807204
 20
111.1508424125374
 30
0.0
 10
8.1458743620548741
 20
111.151830078982
 30
0.0
 10
8.1357678316673336
 20
111.15275819028039
 30
0.0
 10
8.1256832047180971
 20
111.1536267464331
 30
0.0
 10
8.1156204812071664
 20
111.15443574743971
 30
0.0
 10
8.1055796611345396
 20
111.1551851933003
 30
0.0
 10
8.0955607445002151
 20
111.15587508401499
 30
0.0
 10
8.0855637313041981
 20
111.1565054195837
 30
0.0
 10
8.0755886215464887
 20
111.1570762000063
 30
0.0
 10
8.0656354152270744
 20
111.157587425283
 30
0.0
 10
8.0557041123459747
 20
111.1580390954137
 30
0.0
 10
8.0457947129031702
 20
111.1584312103985
 30
0.0
 10
8.0359072168986803
 20
111.1587637702372
 30
0.0
 10
8.026041624332489
 20
111.15903677493
 30
0.0
 10
8.0161979352046036
 20
111.15925022447681
 30
0.0
 10
8.0063761495150239
 20
111.1594041188776
 30
0.0
 10
7.9965762672637473
 20
111.1594984581324
 30
0.0
 10
7.9867982884507738
 20
111.1595332422413
 30
0.0
 10
7.9770422130761078
 20
111.15950847120411
 30
0.0
 10
7.9673080411397459
 20
111.15942414502101
 30
0.0
 10
7.9575957726416888
 20
111.1592802636919
 30
0.0
 10
7.9479054075819349
 20
111.15907682721679
 30
0.0
 10
7.9382369459604858
 20
111.15881383559579
 30
0.0
 10
7.9285903877773443
 20
111.1584912888287
 30
0.0
 10
7.9189657330325041
 20
111.15810918691569
 30
0.0
 10
7.909362981725967
 20
111.1576675298567
 30
0.0
 10
7.8997821338577392
 20
111.1571663176517
 30
0.0
 10
7.8902231894278119
 20
111.1566055503007
 30
0.0
 10
7.8806861484361921
 20
111.1559852278038
 30
0.0
 10
7.8711710108828772
 20
111.1553053501608
 30
0.0
 10
7.8616777767678654
 20
111.1545659173719
 30
0.0
 10
7.852206446091154
 20
111.153766929437
 30
0.0
 10
7.8427570188527582
 20
111.1529083863561
 30
0.0
 10
7.8333294950526593
 20
111.1519902881293
 30
0.0
 10
7.8239238746908679
 20
111.1510126347564
 30
0.0
 10
7.8145401577673779
 20
111.1499754262376
 30
0.0
 10
7.8051783442821909
 20
111.1488786625728
 30
0.0
 10
7.795838434235316
 20
111.147722343762
 30
0.0
 10
7.7865204276267379
 20
111.1465064698052
 30
0.0
 10
7.7772243244564709
 20
111.1452310407025
 30
0.0
 10
7.7679501247245071
 20
111.1438960564537
 30
0.0
 10
7.7586978284308419
 20
111.142501517059
 30
0.0
 10
7.7494674355754869
 20
111.1410474225184
 30
0.0
 10
7.7402589461584359
 20
111.1395337728317
 30
0.0
 10
7.7310723601796889
 20
111.137960567999
 30
0.0
 10
7.7219076776392468
 20
111.1363278080204
 30
0.0
 10
7.7127648985371122
 20
111.1346354928957
 30
0.0
 10
7.7036440228732781
 20
111.1328836226251
 30
0.0
 10
7.6945450506477471
 20
111.1310721972085
 30
0.0
 10
7.6854679818605263
 20
111.129201216646
 30
0.0
 10
7.6764128165116059
 20
111.1272706809374
 30
0.0
 10
7.667379554600994
 20
111.12528059008289
 30
0.0
 10
7.6583681961286851
 20
111.12323094408239
 30
0.0
 10
7.6493787410946759
 20
111.1211217429359
 30
0.0
 10
7.640411189498975
 20
111.11895298664339
 30
0.0
 10
7.6314655413415791
 20
111.11672467520491
 30
0.0
 10
7.6225417966224889
 20
111.1144368086205
 30
0.0
 10
7.6136399553417053
 20
111.1120893868901
 30
0.0
 10
7.6047600174992223
 20
111.1096824100137
 30
0.0
 10
7.5959019830950458
 20
111.10721587799129
 30
0.0
 10
7.587065852129169
 20
111.1046897908229
 30
0.0
 10
7.5782516246016032
 20
111.1021041485086
 30
0.0
 10
7.5694593005123423
 20
111.09945895104821
 30
0.0
 10
7.5606888798613818
 20
111.0967541984419
 30
0.0
 10
7.5519403626487289
 20
111.0939898906897
 30
0.0
 10
7.5432137488743791
 20
111.0911660277914
 30
0.0
 10
7.5345090385383324
 20
111.0882826097471
 30
0.0
 10
7.5258262316405933
 20
111.0853396365569
 30
0.0
 10
7.5171653281811581
 20
111.0823371082207
 30
0.0
 10
7.5085263281600252
 20
111.07927502473849
 30
0.0
 10
7.4999092315771989
 20
111.07615338611031
 30
0.0
 10
7.4913140384326784
 20
111.0729721923361
 30
0.0
 10
7.4827407487264619
 20
111.069731443416
 30
0.0
 10
7.4741893624585449
 20
111.0664311393498
 30
0.0
 10
7.46565987962894
 20
111.06307128013771
 30
0.0
 10
7.4571523002376372
 20
111.0596518657796
 30
0.0
 10
7.4486666242846358
 20
111.0561728962756
 30
0.0
 10
7.4402028517699419
 20
111.0526343716255
 30
0.0
 10
7.4317609826935529
 20
111.04903629182949
 30
0.0
 10
7.4233410170554679
 20
111.04537865688739
 30
0.0
 10
7.4149429548556869
 20
111.0416614667995
 30
0.0
 10
7.4065667960942143
 20
111.0378847215655
 30
0.0
 10
7.3982125407710431
 20
111.0340484211855
 30
0.0
 10
7.3898801888861749
 20
111.03015256565961
 30
0.0
 10
7.3815697404396161
 20
111.0261971549877
 30
0.0
 10
7.373281195431356
 20
111.0221821891697
 30
0.0
 10
7.3650145538614051
 20
111.0181076682058
 30
0.0
 10
7.356769815729753
 20
111.01397359209599
 30
0.0
 10
7.3485469810364119
 20
111.00977996084011
 30
0.0
 10
7.3403460497813739
 20
111.00552677443829
 30
0.0
 10
7.3321670219646409
 20
111.0012140328905
 30
0.0
 10
7.32400989758621
 20
110.9968417361967
 30
0.0
 10
7.315874676646092
 20
110.9924098843569
 30
0.0
  0
CIRCLE
  5
91
100
AcDbEntity
100
AcDbCircle
  8
grabado linea medio
 62
256
370
-1
 48
1.0
  6
ByLayer
 10
53.037933598149714
 20
68.964275991086794
 30
0.0
 40
3.8007282860895031
  0
LWPOLYLINE
  5
92
  8
grabado linea medio
 62
256
370
-1
 48
1.0
  6
ByLayer
100
AcDbEntity
100
AcDbPolyline
 90
513
 70
128
 10
33.898549121319412
 20
99.334903441665006
 30
0.0
 10
33.88322963621944
 20
99.297178239571721
 30
0.0
 10
33.868027268052451
 20
99.259744995549369
 30
0.0
 10
33.852941666914361
 20
99.222602487318923
 30
0.0
 10
33.837972482901002
 20
99.185749492601261
 30
0.0
 10
33.823119366108308
 20
99.149184789117285
 30
0.0
 10
33.808381966632162
 20
99.112907154587973
 30
0.0
 10
33.79375993456847
 20
99.076915366734184
 30
0.0
 10
33.779252920013072
 20
99.041208203276966
 30
0.0
 10
33.764860573061888
 20
99.005784441937067
 30
0.0
 10
33.750582543810808
 20
98.970642860435547
 30
0.0
 10
33.736418482355752
 20
98.935782236493282
 30
0.0
 10
33.722368038792531
 20
98.901201347831119
 30
0.0
 10
33.70843086321711
 20
98.866898972170176
 30
0.0
 10
33.694606605725347
 20
98.832873887231173
 30
0.0
 10
33.680894916413138
 20
98.799124870735156
 30
0.0
 10
33.667295445376361
 20
98.765650700403
 30
0.0
 10
33.653807842710918
 20
98.732450153955625
 30
0.0
 10
33.640431758512698
 20
98.699522009113991
 30
0.0
 10
33.6271668428776
 20
98.666865043598989
 30
0.0
 10
33.614012745901462
 20
98.634478035131565
 30
0.0
 10
33.600969117680251
 20
98.602359761432595
 30
0.0
 10
33.588035608309802
 20
98.570509000223041
 30
0.0
 10
33.575211867886011
 20
98.538924529223848
 30
0.0
 10
33.562497546504801
 20
98.507605126155866
 30
0.0
 10
33.549892294262023
 20
98.476549568740126
 30
0.0
 10
33.53739576125357
 20
98.445756634697403
 30
0.0
 10
33.525007597575367
 20
98.415225101748774
 30
0.0
 10
33.512727453323258
 20
98.384953747615072
 30
0.0
 10
33.500554978593179
 20
98.354941350017242
 30
0.0
 10
33.488489823480968
 20
98.32518668667619
 30
0.0
 10
33.476531638082562
 20
98.295688535312877
 30
0.0
 10
33.46468007249382
 20
98.266445673648207
 30
0.0
 10
33.452934776810643
 20
98.237456879403084
 30
0.0
 10
33.44129540112894
 20
98.208720930298441
 30
0.0
 10
33.429761595544562
 20
98.180236604055267
 30
0.0
 10
33.418333010153411
 20
98.152002678394354
 30
0.0
 10
33.407009295051388
 20
98.124017931036747
 30
0.0
 10
33.395790100334381
 20
98.096281139703294
 30
0.0
 10
33.384675076098269
 20
98.068791082114956
 30
0.0
 10
33.373663872438946
 20
98.041546535992637
 30
0.0
 10
33.362756139452308
 20
98.014546279057271
 30
0.0
 10
33.351951527234263
 20
97.987789089029789
 30
0.0
 10
33.341249685880641
 20
97.961273743631097
 30
0.0
 10
33.3306502654874
 20
97.934999020582126
 30
0.0
 10
33.32015291615037
 20
97.908963697603767
 30
0.0
 10
33.309757287965482
 20
97.883166552416995
 30
0.0
 10
33.299463031028623
 20
97.857606362742729
 30
0.0
 10
33.289269795435658
 20
97.832281906301858
 30
0.0
 10
33.279177231282503
 20
97.807191960815317
 30
0.0
 10
33.269184988665032
 20
97.782335304004036
 30
0.0
 10
33.259292717679124
 20
97.757710713588921
 30
0.0
 10
33.249500068420687
 20
97.733316967290961
 30
0.0
 10
33.23980669098561
 20
97.709152842831003
 30
0.0
 10
33.2302122354698
 20
97.685217117929994
 30
0.0
 10
33.220716351969088
 20
97.661508570308854
 30
0.0
 10
33.211318690579432
 20
97.638025977688528
 30
0.0
 10
33.20201890139667
 20
97.614768117789879
 30
0.0
 10
33.192816634516717
 20
97.591733768333924
 30
0.0
 10
33.183711540035468
 20
97.568921707041497
 30
0.0
 10
33.174703268048802
 20
97.546330711633573
 30
0.0
 10
33.165791468652593
 20
97.523959559831084
 30
0.0
 10
33.15697579194277
 20
97.501807029354865
 30
0.0
 10
33.148255888015171
 20
97.47987189792596
 30
0.0
 10
33.139631406965741
 20
97.458152943265233
 30
0.0
 10
33.131101998890323
 20
97.436648943093587
 30
0.0
 10
33.122667313884833
 20
97.415358675132012
 30
0.0
 10
33.114327002045158
 20
97.394280917101383
 30
0.0
 10
33.106080713467172
 20
97.373414446722606
 30
0.0
 10
33.097928098246797
 20
97.35275804171664
 30
0.0
 10
33.089868806479892
 20
97.332310479804406
 30
0.0
 10
33.081902488262337
 20
97.312070538706763
 30
0.0
 10
33.074028793690061
 20
97.292036996144731
 30
0.0
 10
33.066247372858932
 20
97.272208629839184
 30
0.0
 10
33.058557875864857
 20
97.252584217511057
 30
0.0
 10
33.05095995280368
 20
97.233162536881252
 30
0.0
 10
33.043453253771332
 20
97.213942365670704
 30
0.0
 10
33.0360374288637
 20
97.194922481600344
 30
0.0
 10
33.028712128176643
 20
97.176101662391147
 30
0.0
 10
33.02147700180609
 20
97.157478685763877
 30
0.0
 10
33.014331699847922
 20
97.13905232943965
 30
0.0
 10
33.007275872397997
 20
97.120821371139243
 30
0.0
 10
33.000309169552231
 20
97.102784588583674
 30
0.0
 10
32.993431241406519
 20
97.084940759493804
 30
0.0
 10
32.986641738056733
 20
97.067288661590553
 30
0.0
 10
32.979940309598781
 20
97.049827072594923
 30
0.0
 10
32.973326606128531
 20
97.032554770227705
 30
0.0
 10
32.966800277741903
 20
97.015470532210003
 30
0.0
 10
32.960360974534751
 20
96.998573136262607
 30
0.0
 10
32.954008346602983
 20
96.981861360106436
 30
0.0
 10
32.947742044042478
 20
96.965333981462507
 30
0.0
 10
32.94156171694916
 20
96.948989778051654
 30
0.0
 10
32.935467015418872
 20
96.932827527594796
 30
0.0
 10
32.929457589547532
 20
96.916846007812964
 30
0.0
 10
32.923533089431011
 20
96.901043996426949
 30
0.0
 10
32.91769316516524
 20
96.885420271157756
 30
0.0
 10
32.911937466846062
 20
96.869973609726273
 30
0.0
 10
32.906265644569388
 20
96.854702789853491
 30
0.0
 10
32.900677348431088
 20
96.8396065892602
 30
0.0
 10
32.895172228527073
 20
96.824683785667446
 30
0.0
 10
32.88974993495323
 20
96.809933156796134
 30
0.0
 10
32.884410117805452
 20
96.795353480367126
 30
0.0
 10
32.879152427179612
 20
96.780943534101382
 30
0.0
 10
32.873976513171613
 20
96.766702095719793
 30
0.0
 10
32.868882025877333
 20
96.752627942943363
 30
0.0
 10
32.86386861539269
 20
96.738719853492952
 30
0.0
 10
32.858935931813519
 20
96.724976605089495
 30
0.0
 10
32.854083625235774
 20
96.711396975453937
 30
0.0
 10
32.849311345755289
 20
96.697979742307155
 30
0.0
 10
32.84461874346799
 20
96.68472368337008
 30
0.0
 10
32.840005468469762
 20
96.67162757636369
 30
0.0
 10
32.835471170856479
 20
96.658690199008845
 30
0.0
 10
32.83101550072405
 20
96.645910329026506
 30
0.0
 10
32.826638108168353
 20
96.633286744137607
 30
0.0
 10
32.822338643285271
 20
96.620818222063008
 30
0.0
 10
32.818116756170703
 20
96.608503540523685
 30
0.0
 10
32.81397209692053
 20
96.596341477240557
 30
0.0
 10
32.809904315630661
 20
96.584330809934514
 30
0.0
 10
32.805913062396968
 20
96.572470316326516
 30
0.0
 10
32.80199798731536
 20
96.560758774137483
 30
0.0
 10
32.798158740481689
 20
96.549194961088304
 30
0.0
 10
32.794394971991871
 20
96.537777654899983
 30
0.0
 10
32.790706331941813
 20
96.52650563329334
 30
0.0
 10
32.787092470427368
 20
96.515377673989335
 30
0.0
 10
32.783553037544451
 20
96.504392554708957
 30
0.0
 10
32.780087683388928
 20
96.493549053173041
 30
0.0
 10
32.776696058056721
 20
96.482845947102561
 30
0.0
 10
32.773377811643677
 20
96.472282014218408
 30
0.0
 10
32.770132594245737
 20
96.461856032241514
 30
0.0
 10
32.766960055958762
 20
96.451566778892797
 30
0.0
 10
32.763859846878631
 20
96.441413031893234
 30
0.0
 10
32.760831617101267
 20
96.431393568963685
 30
0.0
 10
32.757875016722501
 20
96.421507167825084
 30
0.0
 10
32.75498969583829
 20
96.411752606198377
 30
0.0
 10
32.75217530454448
 20
96.402128661804483
 30
0.0
 10
32.749431492936978
 20
96.392634112364263
 30
0.0
 10
32.746757911111679
 20
96.383267735598778
 30
0.0
 10
32.744154209164464
 20
96.374028309228763
 30
0.0
 10
32.741620037191211
 20
96.364914610975305
 30
0.0
 10
32.739155045287831
 20
96.355925418559281
 30
0.0
 10
32.736758883550202
 20
96.347059509701566
 30
0.0
 10
32.734431202074212
 20
96.338315662123136
 30
0.0
 10
32.73217165095577
 20
96.329692653544896
 30
0.0
 10
32.72997988029072
 20
96.321189261687792
 30
0.0
 10
32.727855540175
 20
96.312804264272629
 30
0.0
 10
32.725798280704481
 20
96.304536439020495
 30
0.0
 10
32.723807751975038
 20
96.296384563652211
 30
0.0
 10
32.721883604082613
 20
96.288347415888779
 30
0.0
 10
32.72002548712301
 20
96.280423773451048
 30
0.0
 10
32.7182330511922
 20
96.272612414059964
 30
0.0
 10
32.716505946386022
 20
96.264912115436459
 30
0.0
 10
32.71484382280039
 20
96.257321655301453
 30
0.0
 10
32.71324633053117
 20
96.249839811375864
 30
0.0
 10
32.711713119674293
 20
96.242465361380638
 30
0.0
 10
32.71024384032561
 20
96.235197083036667
 30
0.0
 10
32.708838142581023
 20
96.228033754064896
 30
0.0
 10
32.707495676536432
 20
96.220974152186201
 30
0.0
 10
32.706216092287711
 20
96.214017055121545
 30
0.0
 10
32.704999039930748
 20
96.207161240591915
 30
0.0
 10
32.703844169561449
 20
96.200405486318076
 30
0.0
 10
32.70275113127569
 20
96.193748570021143
 30
0.0
 10
32.701719575169371
 20
96.187189269421864
 30
0.0
 10
32.700749151338378
 20
96.180726362241288
 30
0.0
 10
32.699839509878601
 20
96.174358626200231
 30
0.0
 10
32.698990300885917
 20
96.168084839019684
 30
0.0
 10
32.69820117445623
 20
96.161903778420594
 30
0.0
 10
32.69747178068544
 20
96.155814222123809
 30
0.0
 10
32.696801769669413
 20
96.149814947850302
 30
0.0
 10
32.696190791504037
 20
96.143904733321023
 30
0.0
 10
32.69563849628522
 20
96.138082356256845
 30
0.0
 10
32.69514453410887
 20
96.132346594378674
 30
0.0
 10
32.694708555070797
 20
96.126696225407485
 30
0.0
 10
32.69433020926698
 20
96.121130027064183
 30
0.0
 10
32.69400914679327
 20
96.115646777069685
 30
0.0
 10
32.693745017745549
 20
96.11024525314491
 30
0.0
 10
32.693537472219731
 20
96.104924233010806
 30
0.0
 10
32.69338616031169
 20
96.099682494388233
 30
0.0
 10
32.693290732117319
 20
96.094518814998224
 30
0.0
 10
32.693250837732492
 20
96.089431972561584
 30
0.0
 10
32.693266127253132
 20
96.084420744799289
 30
0.0
 10
32.69333625077509
 20
96.079483909432284
 30
0.0
 10
32.693460858394289
 20
96.074620244181475
 30
0.0
 10
32.693639600206602
 20
96.069828526767793
 30
0.0
 10
32.69387212630793
 20
96.065107534912144
 30
0.0
 10
32.694158086794133
 20
96.060456046335432
 30
0.0
 10
32.694497131761132
 20
96.055872838758603
 30
0.0
 10
32.694888911304808
 20
96.05135668990259
 30
0.0
 10
32.695333075521049
 20
96.046906377488341
 30
0.0
 10
32.695829274505741
 20
96.042520679236716
 30
0.0
 10
32.696377158354771
 20
96.038198372868706
 30
0.0
 10
32.696976377164049
 20
96.033938236105143
 30
0.0
 10
32.697626581029454
 20
96.029739046667046
 30
0.0
 10
32.698327420046851
 20
96.025599582275262
 30
0.0
 10
32.699078544312172
 20
96.021518620650696
 30
0.0
 10
32.699879603921268
 20
96.017494939514435
 30
0.0
 10
32.700730248970054
 20
96.013527316587286
 30
0.0
 10
32.701630129554403
 20
96.009614529590124
 30
0.0
 10
32.70257889577023
 20
96.005755356243924
 30
0.0
 10
32.703576197713382
 20
96.001948574269633
 30
0.0
 10
32.7046216854798
 20
95.998192961388156
 30
0.0
 10
32.705715009165331
 20
95.994487295320354
 30
0.0
 10
32.706855818865883
 20
95.990830353787288
 30
0.0
 10
32.70804376467737
 20
95.987220914509777
 30
0.0
 10
32.70927849669561
 20
95.983657755208725
 30
0.0
 10
32.710559665016568
 20
95.980139653605136
 30
0.0
 10
32.711886919736088
 20
95.976665387419885
 30
0.0
 10
32.713259910950093
 20
95.973233734373906
 30
0.0
 10
32.714678288754442
 20
95.969843472188089
 30
0.0
 10
32.71614170324505
 20
95.966493378583436
 30
0.0
 10
32.717649804517777
 20
95.963182231280797
 30
0.0
 10
32.719202242668551
 20
95.959908808001146
 30
0.0
 10
32.72079866779324
 20
95.956671886465344
 30
0.0
 10
32.722438729987708
 20
95.953470244394396
 30
0.0
 10
32.724122079347893
 20
95.950302659509205
 30
0.0
 10
32.725848365969647
 20
95.947167909530634
 30
0.0
 10
32.727617239948891
 20
95.944064772179644
 30
0.0
 10
32.729428351381493
 20
95.940992025177167
 30
0.0
 10
32.731281350363361
 20
95.937948446244107
 30
0.0
 10
32.733175886990338
 20
95.934932813101355
 30
0.0
 10
32.73511161135837
 20
95.931943903469943
 30
0.0
 10
32.737088173563322
 20
95.928980495070675
 30
0.0
 10
32.739105223701088
 20
95.926041365624528
 30
0.0
 10
32.741162411867549
 20
95.923125292852461
 30
0.0
 10
32.743259388158613
 20
95.920231054475366
 30
0.0
 10
32.74539580267016
 20
95.917357428214089
 30
0.0
 10
32.747571305498028
 20
95.914503191789649
 30
0.0
 10
32.749785546738217
 20
95.911667122922992
 30
0.0
 10
32.752038176486529
 20
95.908847999334967
 30
0.0
 10
32.754328844838867
 20
95.906044598746547
 30
0.0
 10
32.756657201891173
 20
95.903255698878553
 30
0.0
 10
32.75902289773925
 20
95.900480077452045
 30
0.0
 10
32.761425582479077
 20
95.897716512187884
 30
0.0
 10
32.763864906206493
 20
95.894963780807004
 30
0.0
 10
32.766340519017383
 20
95.892220661030279
 30
0.0
 10
32.76885207100765
 20
95.889485930578729
 30
0.0
 10
32.771399212273181
 20
95.886758367173186
 30
0.0
 10
32.773981592909877
 20
95.884036748534584
 30
0.0
 10
32.776598863013611
 20
95.881319852383939
 30
0.0
 10
32.779250672680291
 20
95.878606456442071
 30
0.0
 10
32.781936672005791
 20
95.875895338429942
 30
0.0
 10
32.784656511085998
 20
95.873185276068483
 30
0.0
 10
32.787409840016821
 20
95.870475047078571
 30
0.0
 10
32.790196308894132
 20
95.867763429181196
 30
0.0
 10
32.793015567813796
 20
95.865049200097232
 30
0.0
 10
32.795867266871788
 20
95.862331137547628
 30
0.0
 10
32.79875105616393
 20
95.859608019253272
 30
0.0
 10
32.801666585786087
 20
95.856878622935213
 30
0.0
 10
32.804613505834219
 20
95.854141726314197
 30
0.0
 10
32.807591466404169
 20
95.851396107111185
 30
0.0
 10
32.810600117591861
 20
95.848640543047196
 30
0.0
 10
32.813639109493138
 20
95.845873811843077
 30
0.0
 10
32.816708092203932
 20
95.84309469121979
 30
0.0
 10
32.819806715820107
 20
95.840301958898209
 30
0.0
 10
32.822934630437551
 20
95.837494392599339
 30
0.0
 10
32.826091486152173
 20
95.834670770044056
 30
0.0
 10
32.829276933059852
 20
95.831829868953207
 30
0.0
 10
32.83249062125649
 20
95.828970467047867
 30
0.0
 10
32.835732286681882
 20
95.826091593332279
 30
0.0
 10
32.839002008651441
 20
95.823193281944839
 30
0.0
 10
32.842299952324581
 20
95.820275818307437
 30
0.0
 10
32.845626282860607
 20
95.817339487841764
 30
0.0
 10
32.848981165418927
 20
95.814384575969655
 30
0.0
 10
32.85236476515886
 20
95.811411368112886
 30
0.0
 10
32.855777247239793
 20
95.808420149693276
 30
0.0
 10
32.859218776821052
 20
95.805411206132646
 30
0.0
 10
32.862689519062023
 20
95.802384822852716
 30
0.0
 10
32.866189639122069
 20
95.799341285275446
 30
0.0
 10
32.869719302160497
 20
95.796280878822486
 30
0.0
 10
32.873278673336713
 20
95.793203888915684
 30
0.0
 10
32.87686791781006
 20
95.790110600976874
 30
0.0
 10
32.880487200739907
 20
95.787001300427804
 30
0.0
 10
32.884136687285597
 20
95.783876272690321
 30
0.0
 10
32.887816542606487
 20
95.780735803186204
 30
0.0
 10
32.891526931861961
 20
95.777580177337285
 30
0.0
 10
32.895268020211333
 20
95.774409680565313
 30
0.0
 10
32.899039972813988
 20
95.771224598292093
 30
0.0
 10
32.902842954829303
 20
95.768025215939517
 30
0.0
 10
32.9066771314166
 20
95.764811818929275
 30
0.0
 10
32.91054266773525
 20
95.761584692683186
 30
0.0
 10
32.914439728944629
 20
95.758344122623114
 30
0.0
 10
32.918368480204052
 20
95.755090394170836
 30
0.0
 10
32.92232908667291
 20
95.751823792748056
 30
0.0
 10
32.926321713510553
 20
95.748544603776764
 30
0.0
 10
32.930346525876352
 20
95.745253112678583
 30
0.0
 10
32.934403688929628
 20
95.741949604875444
 30
0.0
 10
32.938493367829778
 20
95.738634365789068
 30
0.0
 10
32.94261572773614
 20
95.735307680841274
 30
0.0
 10
32.946770933808089
 20
95.731969835453839
 30
0.0
 10
32.95095915120497
 20
95.728621115048696
 30
0.0
 10
32.955180545086129
 20
95.72526180504741
 30
0.0
 10
32.95943528061094
 20
95.721892190871969
 30
0.0
 10
32.963723522938771
 20
95.718512557944166
 30
0.0
 10
32.96804543722893
 20
95.71512319168572
 30
0.0
 10
32.972401188640852
 20
95.711724377518507
 30
0.0
 10
32.976790942333842
 20
95.708316400864263
 30
0.0
 10
32.981214863467258
 20
95.704899547144763
 30
0.0
 10
32.985673117200491
 20
95.70147410178194
 30
0.0
 10
32.990165868692863
 20
95.69804035019753
 30
0.0
 10
32.99469328310375
 20
95.694598577813267
 30
0.0
 10
32.999255525592503
 20
95.691149070050983
 30
0.0
 10
33.003852761318477
 20
95.687692112332627
 30
0.0
 10
33.008485155441051
 20
95.684227990079762
 30
0.0
 10
33.013152873119573
 20
95.680756988714279
 30
0.0
 10
33.017856079513372
 20
95.677279393658125
 30
0.0
 10
33.022594939781861
 20
95.673795490332921
 30
0.0
 10
33.027369619084347
 20
95.670305564160515
 30
0.0
 10
33.032180282580207
 20
95.666809900562725
 30
0.0
 10
33.037027095428812
 20
95.663308784961359
 30
0.0
 10
33.041910222789511
 20
95.659802502778234
 30
0.0
 10
33.04682982982164
 20
95.656291339435114
 30
0.0
 10
33.051786081684611
 20
95.65277558035379
 30
0.0
 10
33.05677914353771
 20
95.649255510956081
 30
0.0
 10
33.061809180540322
 20
95.645731416663793
 30
0.0
 10
33.066876357851839
 20
95.642203582898716
 30
0.0
 10
33.071980840631603
 20
95.638672295082699
 30
0.0
 10
33.077122794038942
 20
95.63513783863749
 30
0.0
 10
33.082302383233248
 20
95.631600498984923
 30
0.0
 10
33.08751977337387
 20
95.628060561546732
 30
0.0
 10
33.092775129620136
 20
95.624518311744808
 30
0.0
 10
33.098068617131453
 20
95.620974035000884
 30
0.0
 10
33.103400401067162
 20
95.617428016736795
 30
0.0
 10
33.108770646586592
 20
95.613880542374361
 30
0.0
 10
33.114179518849127
 20
95.610331897335314
 30
0.0
 10
33.119627183014138
 20
95.606782367041546
 30
0.0
 10
33.125113804240947
 20
95.603232236914806
 30
0.0
 10
33.130639547688951
 20
95.599681792376884
 30
0.0
 10
33.136204578517479
 20
95.596131318849601
 30
0.0
 10
33.141809061885887
 20
95.592581101754746
 30
0.0
 10
33.14745316295356
 20
95.589031426514182
 30
0.0
 10
33.153137046879841
 20
95.585482578549602
 30
0.0
 10
33.158860878824072
 20
95.581934843282852
 30
0.0
 10
33.16462482394563
 20
95.578388506135809
 30
0.0
 10
33.170429047403893
 20
95.574843852530151
 30
0.0
 10
33.17627371435816
 20
95.571301167887782
 30
0.0
 10
33.182158989967832
 20
95.567760737630437
 30
0.0
 10
33.188085039392263
 20
95.564222847179934
 30
0.0
 10
33.194052027790804
 20
95.56068778195808
 30
0.0
 10
33.200060120322817
 20
95.557155827386694
 30
0.0
 10
33.206109482147667
 20
95.553627268887539
 30
0.0
 10
33.212200278424689
 20
95.550102391882476
 30
0.0
 10
33.218332674313253
 20
95.546581481793197
 30
0.0
 10
33.224506834972729
 20
95.543064824041636
 30
0.0
 10
33.230722925562461
 20
95.539552704049498
 30
0.0
 10
33.236981111241811
 20
95.536045407238632
 30
0.0
 10
33.243281557170143
 20
95.532543219030799
 30
0.0
 10
33.249624428506799
 20
95.529046424847849
 30
0.0
 10
33.25600989041115
 20
95.525555310111585
 30
0.0
 10
33.262438108042538
 20
95.522070160243715
 30
0.0
 10
33.268909246560341
 20
95.518591260666156
 30
0.0
 10
33.275423471123908
 20
95.515118896800601
 30
0.0
 10
33.281980946892617
 20
95.511653354069054
 30
0.0
 10
33.288581839025781
 20
95.508194917893064
 30
0.0
 10
33.295226312682793
 20
95.504743873694551
 30
0.0
 10
33.301914533023002
 20
95.501300506895348
 30
0.0
 10
33.308646665205757
 20
95.497865102917117
 30
0.0
 10
33.315422874390443
 20
95.494437947181936
 30
0.0
 10
33.322243325736387
 20
95.491019325111282
 30
0.0
 10
33.329108184402962
 20
95.48760952212713
 30
0.0
 10
33.336017615549522
 20
95.484208823651244
 30
0.0
 10
33.342971784335411
 20
95.480817515105443
 30
0.0
 10
33.349970855920041
 20
95.477435881911561
 30
0.0
 10
33.357014995462691
 20
95.474064209491317
 30
0.0
 10
33.364104368122767
 20
95.470702783266546
 30
0.0
 10
33.371239139059632
 20
95.467351888659039
 30
0.0
 10
33.378419473432608
 20
95.4640118110907
 30
0.0
 10
33.3856455364011
 20
95.460682835983206
 30
0.0
 10
33.39291749312445
 20
95.457365248758407
 30
0.0
 10
33.400235508761973
 20
95.454059334838036
 30
0.0
 10
33.407599748473082
 20
95.450765379643997
 30
0.0
 10
33.415010377417111
 20
95.447483668598039
 30
0.0
 10
33.422467560753411
 20
95.444214487121997
 30
0.0
 10
33.429971463641351
 20
95.440958120637575
 30
0.0
 10
33.437522251240303
 20
95.437714854566707
 30
0.0
 10
33.445120088709587
 20
95.434484974331127
 30
0.0
 10
33.452765141208602
 20
95.431268765352627
 30
0.0
 10
33.460457573896683
 20
95.428066513053054
 30
0.0
 10
33.468197551933187
 20
95.424878502854142
 30
0.0
 10
33.475985240477492
 20
95.421705020177725
 30
0.0
 10
33.483820804688932
 20
95.418546350445624
 30
0.0
 10
33.491704409726871
 20
95.415402779079642
 30
0.0
 10
33.499636220750681
 20
95.412274591501557
 30
0.0
 10
33.50761640291968
 20
95.409162073133146
 30
0.0
 10
33.515645121393277
 20
95.406065509396214
 30
0.0
 10
33.52372254133082
 20
95.402985185712666
 30
0.0
 10
33.531848827891629
 20
95.399921387504179
 30
0.0
 10
33.540024146235091
 20
95.396874400192644
 30
0.0
 10
33.548248661520567
 20
95.393844509199766
 30
0.0
 10
33.556522538907402
 20
95.390831999947395
 30
0.0
 10
33.564845943554957
 20
95.387837157857362
 30
0.0
 10
33.573219040622597
 20
95.384860268351474
 30
0.0
 10
33.581641995269692
 20
95.381901616851451
 30
0.0
 10
33.59011497265557
 20
95.378961488779169
 30
0.0
 10
33.598638137939602
 20
95.376040169556404
 30
0.0
 10
33.607211656281159
 20
95.373137944604935
 30
0.0
 10
33.615835692839568
 20
95.370255099346565
 30
0.0
 10
33.624510412774207
 20
95.367391919203143
 30
0.0
 10
33.633235981244447
 20
95.364548689596461
 30
0.0
 10
33.642012563409622
 20
95.36172569594828
 30
0.0
 10
33.65084032442909
 20
95.358923223680463
 30
0.0
 10
33.65971942946225
 20
95.356141558214716
 30
0.0
 10
33.668650043668393
 20
95.353380984972915
 30
0.0
 10
33.677632332206919
 20
95.350641789376866
 30
0.0
 10
33.686666460237191
 20
95.347924256848302
 30
0.0
 10
33.695752592918552
 20
95.345228672809085
 30
0.0
 10
33.704890895410358
 20
95.342555322681008
 30
0.0
 10
33.714081532871973
 20
95.339904491885875
 30
0.0
 10
33.723324670462752
 20
95.337276465845434
 30
0.0
 10
33.732620473342052
 20
95.334671529981591
 30
0.0
 10
33.741969106669231
 20
95.332089969716051
 30
0.0
 10
33.751370735603658
 20
95.329532070470634
 30
0.0
 10
33.760825525304682
 20
95.326998117667202
 30
0.0
 10
33.770333640931653
 20
95.324488396727446
 30
0.0
 10
33.779895247643928
 20
95.322003193073229
 30
0.0
 10
33.789510510600891
 20
95.319542792126427
 30
0.0
 10
33.799179594961871
 20
95.317107479308703
 30
0.0
 10
33.808902665886251
 20
95.314697540041976
 30
0.0
 10
33.818679888533381
 20
95.312313259747924
 30
0.0
 10
33.828511428062583
 20
95.309954923848508
 30
0.0
 10
33.83839744963327
 20
95.307622817765406
 30
0.0
 10
33.848338118404762
 20
95.305317226920437
 30
0.0
 10
33.858333599536429
 20
95.303038436735406
 30
0.0
 10
33.86838405818763
 20
95.300786732632176
 30
0.0
 10
33.87848965951774
 20
95.298562400032438
 30
0.0
 10
33.888650568686081
 20
95.296365724358125
 30
0.0
 10
33.898866950852039
 20
95.294196991030915
 30
0.0
 10
33.909138971174961
 20
95.292056485472685
 30
0.0
 10
33.919466794814198
 20
95.289944493105196
 30
0.0
 10
33.92985058692912
 20
95.287861299350283
 30
0.0
 10
33.940290512679091
 20
95.285807189629722
 30
0.0
 10
33.950786737223453
 20
95.283782449365276
 30
0.0
 10
33.961339425721562
 20
95.281787363978907
 30
0.0
 10
33.971948743332803
 20
95.279822218892235
 30
0.0
 10
33.982614855216497
 20
95.277887299527137
 30
0.0
 10
33.993337926532021
 20
95.275982891305347
 30
0.0
 10
34.00411812243874
 20
95.274109279648826
 30
0.0
 10
34.014955608096002
 20
95.27226674997921
 30
0.0
 10
34.025850548663158
 20
95.270455587718416
 30
0.0
 10
34.036803109299591
 20
95.268676078288081
 30
0.0
 10
34.047813455164608
 20
95.266928507110237
 30
0.0
 10
34.058881751417651
 20
95.265213159606517
 30
0.0
 10
34.070008163217992
 20
95.263530321198786
 30
0.0
 10
34.081192855725028
 20
95.261880277308848
 30
0.0
 10
34.092435994098118
 20
95.260263313358436
 30
0.0
 10
34.103737743496623
 20
95.258679714769443
 30
0.0
 10
34.115098269079887
 20
95.257129766963558
 30
0.0
 10
34.126517736007273
 20
95.255613755362745
 30
0.0
 10
34.137996309438137
 20
95.254131965388723
 30
0.0
 10
34.14953415453185
 20
95.252684682463226
 30
0.0
 10
34.161131436447747
 20
95.25127219200813
 30
0.0
 10
34.172788320345212
 20
95.249894779445199
 30
0.0
 10
34.184504971383589
 20
95.24855273019628
 30
0.0
 10
34.196281554722233
 20
95.247246329683193
 30
0.0
 10
34.208118235520509
 20
95.245975863327644
 30
0.0
 10
34.220015178937771
 20
95.244741616551508
 30
0.0
 10
34.231972550133378
 20
95.243543874776549
 30
0.0
 10
34.243990514266677
 20
95.242382923424586
 30
0.0
 10
34.256069236497048
 20
95.241259047917424
 30
0.0
 10
34.268208881983831
 20
95.240172533676855
 30
0.0
 10
34.280409615886398
 20
95.239123666124684
 30
0.0
 10
34.292671603364077
 20
95.238112730682715
 30
0.0
 10
34.304995009576281
 20
95.237140012772713
 30
0.0
 10
34.317379999682331
 20
95.236205797816567
 30
0.0
 10
34.329826738841561
 20
95.235310371235997
 30
0.0
 10
34.342335392213371
 20
95.234454018452823
 30
0.0
 10
34.354906124957111
 20
95.233637024888836
 30
0.0
 10
34.367539102232129
 20
95.232859675965884
 30
0.0
 10
34.38023448919779
 20
95.232122257105715
 30
0.0
 10
34.392992451013441
 20
95.231425053730206
 30
0.0
 10
34.405813152838448
 20
95.230768351261062
 30
0.0
 10
34.418696759832173
 20
95.230152435120146
 30
0.0
 10
34.431643437153959
 20
95.229577590729193
 30
0.0
 10
34.444653349963183
 20
95.229044103510134
 30
0.0
 10
34.457726663419201
 20
95.228552258884633
 30
0.0
 10
34.470863542681343
 20
95.228102342274553
 30
0.0
 10
34.484064152908999
 20
95.227694639101699
 30
0.0
 10
34.49732865926152
 20
95.22732943478789
 30
0.0
 10
34.51065722689826
 20
95.227007014754903
 30
0.0
 10
34.524050020978571
 20
95.226727664424473
 30
0.0
 10
34.5375072066618
 20
95.226491669218504
 30
0.0
 10
34.551028949107341
 20
95.226299314558716
 30
0.0
 10
34.564615413474527
 20
95.226150885867042
 30
0.0
 10
34.578266764922731
 20
95.226046668565118
 30
0.0
 10
34.591983168611293
 20
95.225986948074819
 30
0.0
 10
34.60576478969957
 20
95.225972009817966
 30
0.0
 10
34.619611793346927
 20
95.226002139216405
 30
0.0
 10
34.633524344712747
 20
95.226077621691786
 30
0.0
 10
34.647502608956337
 20
95.226198742666014
 30
0.0
 10
34.66154675123709
 20
95.22636578756088
 30
0.0
 10
34.67565693671439
 20
95.226579041798203
 30
0.0
 10
34.689833330547522
 20
95.226838790799718
 30
0.0
 10
34.704076097895893
 20
95.227145319987315
 30
0.0
 10
34.718385403918838
 20
95.227498914782714
 30
0.0
 10
34.732761413775769
 20
95.227899860607792
 30
0.0
 10
34.747204292625959
 20
95.228348442884268
 30
0.0
 10
34.761714205628827
 20
95.228844947033991
 30
0.0
 10
34.776291317943709
 20
95.229389658478809
 30
0.0
 10
34.790935794729968
 20
95.229982862640384
 30
0.0
 10
34.805647801146968
 20
95.230624844940664
 30
0.0
 10
34.820427502354057
 20
95.231315890801426
 30
0.0
 10
34.835275063510601
 20
95.232056285644362
 30
0.0
 10
34.850190649775961
 20
95.232846314891361
 30
0.0
 10
34.865174426309473
 20
95.233686263964202
 30
0.0
 10
34.880226558270493
 20
95.234576418284689
 30
0.0
 10
34.895347210818407
 20
95.235517063274713
 30
0.0
 10
34.910536549112571
 20
95.236508484355838
 30
0.0
 10
34.925794738312327
 20
95.237550966950124
 30
0.0
 10
34.941121943577038
 20
95.238644796479306
 30
0.0
 10
34.956518330066046
 20
95.239790258365062
 30
0.0
 10
34.97198406293878
 20
95.240987638029296
 30
0.0
 10
34.987519307354482
 20
95.242237220893784
 30
0.0
 10
35.003124228472601
 20
95.243539292380305
 30
0.0
 10
35.018798991452449
 20
95.244894137910762
 30
0.0
 10
35.034543761453413
 20
95.246302042906834
 30
0.0
  0
LWPOLYLINE
  5
93
  8
Corte exterior
 62
256
370
-1
 48
1.0
  6
ByLayer
100
AcDbEntity
100
AcDbPolyline
 90
12
 70
0
 10
65.819202001874103
 20
58.712009445428272
 30
0.0
 42
0.0922370494229298
 10
64.046057918072478
 20
67.242194528887737
 30
0.0
 42
0.028861372452017
 10
63.901101375335323
 20
72.168241443081982
 30
0.0
 42
0.2156998418642369
 10
58.371035161182753
 20
78.282869491177308
 30
0.0
 10
43.549728860857748
 20
80.575872219946376
 30
0.0
 10
42.602376983299443
 20
83.460002942349547
 30
0.0
 10
49.988169061856738
 20
85.599878573327388
 30
0.0
 42
0.2677521533066749
 10
52.063638734735733
 20
87.763432219242844
 30
0.0
 10
53.529267698415651
 20
93.434954641280768
 30
0.0
 10
64.460975011873927
 20
91.709558442484493
 30
0.0
 10
58.196412859852337
 20
96.407980056500605
 30
0.0
 10
65.500305901163671
 20
93.937965271664339
 30
0.0
  0
LWPOLYLINE
  5
94
  8
Corte exterior
 62
256
370
-1
 48
1.0
  6
ByLayer
100
AcDbEntity
100
AcDbPolyline
 90
18
 70
0
 10
33.000610768941712
 20
46.69860008162788
 30
0.0
 10
26.500610768941709
 20
46.69860008162788
 30
0.0
 10
26.500610768941709
 20
49.0986000816279
 30
0.0
 10
30.500610768941709
 20
49.0986000816279
 30
0.0
 10
30.500610768941709
 20
52.515916787150367
 30
0.0
 10
21.250610768941701
 20
52.515916787150367
 30
0.0
 10
21.250610768941701
 20
38.515916787150381
 30
0.0
 10
24.50061076894168
 20
38.515916787150381
 30
0.0
 10
24.50061076894168
 20
42.515916787150381
 30
0.0
 10
42.500610768941641
 20
42.515916787150381
 30
0.0
 10
42.500610768941641
 20
38.515916787150381
 30
0.0
 10
45.750610768941662
 20
38.515916787150381
 30
0.0
 10
45.750610768941662
 20
52.515916787150367
 30
0.0
 10
36.486996170963991
 20
52.515916787150367
 30
0.0
 10
36.486996170963991
 20
49.0986000816279
 30
0.0
 10
40.500610768941712
 20
49.0986000816279
 30
0.0
 10
40.500610768941712
 20
46.69860008162788
 30
0.0
 10
34.000610768941712
 20
46.69860008162788
 30
0.0
  0
LWPOLYLINE
  5
95
  8
Corte exterior
 62
256
370
-1
 48
1.0
  6
ByLayer
100
AcDbEntity
100
AcDbPolyline
 90
4
 70
1
 10
50.101257456827838
 20
25.899999999999999
 30
0.0
 10
50.101257456827852
 20
28.899999999999999
 30
0.0
 10
41.901257456827842
 20
28.899999999999999
 30
0.0
 10
41.901257456827828
 20
25.899999999999999
 30
0.0
  0
LWPOLYLINE
  5
96
  8
Corte exterior
 62
256
370
-1
 48
1.0
  6
ByLayer
100
AcDbEntity
100
AcDbPolyline
 90
4
 70
1
 10
25.101257456827842
 20
25.899999999999999
 30
0.0
 10
16.901257456827839
 20
25.899999999999999
 30
0.0
 10
16.901257456827839
 20
28.899999999999999
 30
0.0
 10
25.101257456827842
 20
28.899999999999999
 30
0.0
  0
LINE
  5
97
100
AcDbEntity
100
AcDbLine
  8
Corte exterior
 62
256
370
-1
 48
1.0
  6
ByLayer
 10
112.0089305045333
 20
124.21730488987779
 30
0.0
 11
112.0089305045333
 21
136.01730488987781
 31
0.0
  0
LINE
  5
98
100
AcDbEntity
100
AcDbLine
  8
Corte exterior
 62
256
370
-1
 48
1.0
  6
ByLayer
 10
112.0089305045333
 20
124.21807272692951
 30
0.0
 11
88.80893050454101
 21
124.21936710453321
 31
0.0
  0
LWPOLYLINE
  5
99
  8
Corte exterior
 62
256
370
-1
 48
1.0
  6
ByLayer
100
AcDbEntity
100
AcDbPolyline
 90
6
 70
0
 10
34.001257456827837
 20
65.678034017017666
 30
0.0
 10
49.501257456827851
 20
65.678034017017666
 30
0.0
 10
49.501257456827851
 20
33.678034017017687
 30
0.0
 10
17.501257456827808
 20
33.678034017017687
 30
0.0
 10
17.50125745682784
 20
65.678034017017666
 30
0.0
 10
33.001257456827837
 20
65.678034017017666
 30
0.0
  0
LWPOLYLINE
  5
9A
  8
Corte exterior
 62
256
370
-1
 48
1.0
  6
ByLayer
100
AcDbEntity
100
AcDbPolyline
 90
3
 70
0
 10
65.656297566972171
 20
47.910160721150639
 30
0.0
 42
0.0611577877067726
 10
65.0
 20
52.0
 30
0.0
 42
0.0607995088909917
 10
65.819202001874061
 20
57.71208290754749
 30
0.0
  0
LWPOLYLINE
  5
9B
  8
grabado linea medio
 62
256
370
-1
 48
1.0
  6
ByLayer
100
AcDbEntity
100
AcDbPolyline
 90
3
 70
0
 10
12.1520139628922
 20
58.38487434597215
 30
0.0
 42
0.0619662742328612
 10
11.68488314724307
 20
62.372829760993042
 30
0.0
 10
3.8442535108980671
 20
74.105006735688733
 30
0.0
  0
LWPOLYLINE
  5
9C
  8
grabado linea medio
 62
256
370
-1
 48
1.0
  6
ByLayer
100
AcDbEntity
100
AcDbPolyline
 90
4
 70
0
 10
60.415138675690329
 20
110.86989466412361
 30
0.0
 42
-0.1785697642102213
 10
60.879759837915117
 20
108.7204421760833
 30
0.0
 42
-0.2127112449389352
 10
54.000710587248307
 20
95.187497025097485
 30
0.0
 10
53.529267698415651
 20
93.434954641280768
 30
0.0
  0
LWPOLYLINE
  5
9D
  8
grabado linea medio
 62
256
370
-1
 48
1.0
  6
ByLayer
100
AcDbEntity
100
AcDbPolyline
 90
18
 70
0
 10
60.444451969081641
 20
110.8885307881241
 30
0.0
 42
0.3130826485714065
 10
57.75038456652441
 20
110.580635827047
 30
0.0
 10
59.367442129928499
 20
117.1729006834793
 30
0.0
 42
0.1329116931790619
 10
59.223368262238552
 20
120.6141230749608
 30
0.0
 42
0.0686828444350337
 10
56.124616892232893
 20
125.6612114543442
 30
0.0
 42
-0.1726647125347447
 10
52.19976300521818
 20
120.997321004303
 30
0.0
 42
0.1059011424628839
 10
53.243211320108543
 20
128.53530466556819
 30
0.0
 42
0.0956508373232062
 10
51.942740682514838
 20
129.49061332816251
 30
0.0
 42
-0.272572437040939
 10
47.445042672204792
 20
121.4059713221081
 30
0.0
 42
0.170023130873721
 10
49.596936867515602
 20
130.8530096175885
 30
0.0
 42
0.1079901629491461
 10
41.59847593107466
 20
132.84385889551851
 30
0.0
 42
0.2839285139547271
 10
31.181887577577989
 20
116.4305190464316
 30
0.0
 42
-0.1210208781633997
 10
27.351314566241101
 20
133.10541068968371
 30
0.0
 42
0.1031485027428562
 10
18.33351263264322
 20
130.48312653020901
 30
0.0
 42
0.3536593410679796
 10
21.664659200781038
 20
123.6832045053103
 30
0.0
 42
-0.2927566259548776
 10
14.03925149090192
 20
127.7791842899057
 30
0.0
 42
0.0752710718188098
 10
8.7236763000665132
 20
122.4629807614491
 30
0.0
 42
0.2144765190881213
 10
7.5728585540200619
 20
117.9246584570986
 30
0.0
  0
LWPOLYLINE
  5
9E
  8
grabado linea medio
 62
256
370
-1
 48
1.0
  6
ByLayer
100
AcDbEntity
100
AcDbPolyline
 90
4
 70
0
 10
11.721017938170959
 20
122.9306844346799
 30
0.0
 10
12.82190432273428
 20
116.85014680043081
 30
0.0
 42
-0.0645299368792064
 10
28.822524051750801
 20
117.8695901483443
 30
0.0
 42
0.1670348572162965
 10
11.722169630148811
 20
122.9049078714764
 30
0.0
  0
LWPOLYLINE
  5
9F
  8
grabado linea medio
 62
256
370
-1
 48
1.0
  6
ByLayer
100
AcDbEntity
100
AcDbPolyline
 90
5
 70
0
 10
48.032263231141457
 20
122.4303811318842
 30
0.0
 42
0.0991424637349954
 10
38.074412645096267
 20
117.9127612953925
 30
0.0
 42
-0.0645299368792062
 10
54.08384925581732
 20
117.0426832187228
 30
0.0
 10
55.127942947820891
 20
123.1332297554103
 30
0.0
 42
0.0246090416216614
 10
54.700565255462308
 20
123.1556181486302
 30
0.0
  0
LWPOLYLINE
  5
A0
  8
grabado linea medio
 62
256
370
-1
 48
1.0
  6
ByLayer
100
AcDbEntity
100
AcDbPolyline
 90
4
 70
0
 10
24.293967802090329
 20
83.490763471186199
 30
0.0
 10
32.38812131118582
 20
81.145655233196024
 30
0.0
 42
0.1419455256465451
 10
34.614393602469931
 20
81.145655233196024
 30
0.0
 10
42.60237698329945
 20
83.460002942349547
 30
0.0
  0
LWPOLYLINE
  5
A1
  8
grabado linea medio
 62
256
370
-1
 48
1.0
  6
ByLayer
100
AcDbEntity
100
AcDbPolyline
 90
5
 70
0
 10
16.04213290263543
 20
79.429370855561814
 30
0.0
 10
19.882962409068831
 20
70.471988866578215
 30
0.0
 10
33.501257456827851
 20
66.954723829868954
 30
0.0
 10
47.12281090866847
 20
70.471988866578215
 30
0.0
 10
50.960382011020251
 20
79.429370855561814
 30
0.0
  0
LWPOLYLINE
  5
A2
  8
grabado linea medio
 62
256
370
-1
 48
1.0
  6
ByLayer
100
AcDbEntity
100
AcDbPolyline
 90
8
 70
0
 10
33.397194463072431
 20
74.784000233450911
 30
0.0
 42
0.1540014110108101
 10
17.782976996990651
 20
75.366017989773937
 30
0.0
 10
20.9501160929739
 20
70.89403423723337
 30
0.0
 42
0.2432800356408044
 10
21.766184991057202
 20
70.471988866578215
 30
0.0
 10
45.236329922598493
 20
70.471988866578215
 30
0.0
 42
0.2432800356408045
 10
46.052398820681773
 20
70.89403423723337
 30
0.0
 10
49.216492526396287
 20
75.361717914725375
 30
0.0
 42
0.1631772700924621
 10
33.499535239536279
 20
74.784079427261403
 30
0.0
  0
LINE
  5
A3
100
AcDbEntity
100
AcDbLine
  8
Corte exterior
 62
256
370
-1
 48
1.0
  6
ByLayer
 10
89.499976663787095
 20
7.5033818004270998
 30
0.0
 11
91.499976663787066
 21
7.50338180042709
 31
0.0
  0
LINE
  5
A4
100
AcDbEntity
100
AcDbLine
  8
Corte exterior
 62
256
370
-1
 48
1.0
  6
ByLayer
 10
92.499976663787095
 20
7.50338180042709
 30
0.0
 11
94.499976663787081
 21
7.5033818004270838
 31
0.0
  0
LINE
  5
A5
100
AcDbEntity
100
AcDbLine
  8
Corte exterior
 62
256
370
-1
 48
1.0
  6
ByLayer
 10
120.5
 20
7.5033711826576628
 30
0.0
 11
122.5
 21
7.5033711826576734
 31
0.0
  0
LINE
  5
A6
100
AcDbEntity
100
AcDbLine
  8
Corte exterior
 62
256
370
-1
 48
1.0
  6
ByLayer
 10
123.5
 20
7.5033711826576734
 30
0.0
 11
125.5
 21
7.5033711826576788
 31
0.0
  0
LWPOLYLINE
  5
A7
  8
grabado linea medio
 62
256
370
-1
 48
1.0
  6
ByLayer
100
AcDbEntity
100
AcDbPolyline
 90
6
 70
0
 10
23.554550755797631
 20
33.678034017017687
 30
0.0
 42
-0.0475089079706954
 10
24.471729155630609
 20
31.46983784250671
 30
0.0
 42
0.0539492683357262
 10
26.00125745682784
 20
27.998008724186789
 30
0.0
 42
0.1115343162901529
 10
30.0
 20
24.0
 30
0.0
 10
28.000000000000011
 20
23.0
 30
0.0
 42
-0.0871589131035372
 10
24.77941271076126
 20
25.900000000000009
 30
0.0
  0
LWPOLYLINE
  5
A8
  8
grabado linea medio
 62
256
370
-1
 48
1.0
  6
ByLayer
100
AcDbEntity
100
AcDbPolyline
 90
4
 70
0
 10
20.867267861678538
 20
33.67803401701768
 30
0.0
 42
-0.0192505185677517
 10
22.17722391722992
 20
31.385208573261831
 30
0.0
 42
-0.0621074253375843
 10
22.349968469704852
 20
30.921382059171119
 30
0.0
 42
0.0413143441090517
 10
23.00873519445064
 20
28.900000000000041
 30
0.0
  0
LWPOLYLINE
  5
A9
  8
grabado linea medio
 62
256
370
-1
 48
1.0
  6
ByLayer
100
AcDbEntity
100
AcDbPolyline
 90
3
 70
0
 10
18.485618536672241
 20
28.899999999999991
 30
0.0
 42
0.034401708049514
 10
17.0
 20
31.0
 30
0.0
 42
-0.2089953834482705
 10
16.480771130781569
 20
39.309138582734228
 30
0.0
  0
LINE
  5
AA
100
AcDbEntity
100
AcDbLine
  8
Corte exterior
 62
256
370
-1
 48
1.0
  6
ByLayer
 10
101.99997666378709
 20
18.501009432475719
 30
0.0
 11
101.99997666378709
 21
16.502195616451409
 31
0.0
  0
LINE
  5
AB
100
AcDbEntity
100
AcDbLine
  8
Corte exterior
 62
256
370
-1
 48
1.0
  6
ByLayer
 10
133.0
 20
18.501009432475719
 30
0.0
 11
133.0
 21
16.50219030756671
 31
0.0
  0
LWPOLYLINE
  5
AC
  8
grabado linea medio
 62
256
370
-1
 48
1.0
  6
ByLayer
100
AcDbEntity
100
AcDbPolyline
 90
4
 70
0
 10
22.431148155614771
 20
25.899999999999991
 30
0.0
 42
-0.0666747875367903
 10
23.0
 20
23.000000000000011
 30
0.0
 10
21.0
 20
21.999999999999989
 30
0.0
 42
0.0555021390342642
 10
19.96253131708001
 20
25.899999999999999
 30
0.0
  0
LWPOLYLINE
  5
AD
  8
grabado linea medio
 62
256
370
-1
 48
1.0
  6
ByLayer
100
AcDbEntity
100
AcDbPolyline
 90
3
 70
0
 10
17.860853713302149
 20
33.67803401701773
 30
0.0
 42
0.1767310653278009
 10
18.999999999999961
 20
31.0
 30
0.0
 42
-0.0618477774233825
 10
20.91222609163211
 20
28.899999999999999
 30
0.0
  0
LWPOLYLINE
  5
AE
  8
grabado linea medio
 62
256
370
-1
 48
1.0
  6
ByLayer
100
AcDbEntity
100
AcDbPolyline
 90
3
 70
0
 10
63.138194668348532
 20
74.078258033981214
 30
0.0
 10
55.23102867909693
 20
62.406526839684552
 30
0.0
 42
0.0578164362949711
 10
54.788491217393371
 20
58.592229365145819
 30
0.0
  0
LINE
  5
AF
100
AcDbEntity
100
AcDbLine
  8
Corte exterior
 62
256
370
-1
 48
1.0
  6
ByLayer
 10
89.499976663787095
 20
27.503381800427089
 30
0.0
 11
91.499976663787066
 21
27.503381800427089
 31
0.0
  0
LINE
  5
B0
100
AcDbEntity
100
AcDbLine
  8
Corte exterior
 62
256
370
-1
 48
1.0
  6
ByLayer
 10
92.499976663787095
 20
27.503381800427089
 30
0.0
 11
94.499976663787081
 21
27.503381800427078
 31
0.0
  0
LINE
  5
B1
100
AcDbEntity
100
AcDbLine
  8
Corte exterior
 62
256
370
-1
 48
1.0
  6
ByLayer
 10
120.5
 20
27.503371182657691
 30
0.0
 11
122.5
 21
27.503371182657691
 31
0.0
  0
LINE
  5
B2
100
AcDbEntity
100
AcDbLine
  8
Corte exterior
 62
256
370
-1
 48
1.0
  6
ByLayer
 10
123.5
 20
27.503371182657691
 30
0.0
 11
125.5
 21
27.503371182657691
 31
0.0
  0
LWPOLYLINE
  5
B3
  8
mesa de trabajo y auxiliares
 62
256
370
-1
 48
1.0
  6
ByLayer
100
AcDbEntity
100
AcDbPolyline
 90
4
 70
0
 10
66.0
 20
55.799999999999983
 30
0.0
 10
119.2
 20
55.799999999999983
 30
0.0
 10
119.2
 20
113.0
 30
0.0
 10
66.499987098086578
 20
113.0000194266069
 30
0.0
  0
LINE
  5
B4
100
AcDbEntity
100
AcDbLine
  8
Corte exterior
 62
256
370
-1
 48
1.0
  6
ByLayer
 10
81.999976663787095
 20
16.45725493251684
 30
0.0
 11
81.999976663787095
 21
18.41112806460659
 31
0.0
  0
LINE
  5
B5
100
AcDbEntity
100
AcDbLine
  8
Corte exterior
 62
256
370
-1
 48
1.0
  6
ByLayer
 10
113.0
 20
16.457249623632119
 30
0.0
 11
113.0
 21
18.41112806460659
 31
0.0
  0
LWPOLYLINE
  5
B6
  8
mesa de trabajo y auxiliares
 62
256
370
-1
 48
1.0
  6
ByLayer
100
AcDbEntity
100
AcDbPolyline
 90
4
 70
0
 10
147.48466248480449
 20
132.94685990338161
 30
0.0
 10
122.4846624848044
 20
132.94685990338161
 30
0.0
 10
122.4846624848044
 20
35.946859903381608
 30
0.0
 10
147.48466248480449
 20
35.946859903381608
 30
0.0
  0
LWPOLYLINE
  5
B7
  8
mesa de trabajo y auxiliares
 62
256
370
-1
 48
1.0
  6
ByLayer
100
AcDbEntity
100
AcDbPolyline
 90
4
 70
0
 10
83.599999999999966
 20
113.0
 30
0.0
 10
83.599999999999966
 20
66.299999999999983
 30
0.0
 10
101.59999999999999
 20
66.299999999999983
 30
0.0
 10
101.59999999999999
 20
113.0
 30
0.0
  0
LWPOLYLINE
  5
B8
  8
mesa de trabajo y auxiliares
 62
256
370
-1
 48
1.0
  6
ByLayer
100
AcDbEntity
100
AcDbPolyline
 90
8
 70
1
 10
65.999972905966686
 20
24.015306403540109
 30
0.0
 10
65.999972905966672
 20
4.5153064035401362
 30
0.0
 10
81.399972905966692
 20
4.51530640354013
 30
0.0
 10
81.399972905966692
 20
24.015306403540109
 30
0.0
 10
78.699972905966703
 20
24.015306403540109
 30
0.0
 10
78.699972905966675
 20
40.71530640354009
 30
0.0
 10
68.699972905966703
 20
40.71530640354009
 30
0.0
 10
68.699972905966689
 20
24.015306403540109
 30
0.0
  0
LWPOLYLINE
  5
B9
  8
Corte exterior
 62
256
370
-1
 48
1.0
  6
ByLayer
100
AcDbEntity
100
AcDbPolyline
 90
6
 70
0
 10
65.20421825920603
 20
122.36588447354821
 30
0.0
 42
-0.2417024954300024
 10
77.888900137717471
 20
127.1559193644752
 30
0.0
 42
0.2271890047627556
 10
65.949775276397375
 20
119.4902602127939
 30
0.0
 42
-0.3325433048243398
 10
72.935507379591343
 20
119.18012610681549
 30
0.0
 42
0.3940296917134638
 10
62.372787627866771
 20
103.5426202851914
 30
0.0
 10
65.800949846274307
 20
94.246903226230941
 30
0.0
  0
LWPOLYLINE
  5
BA
  8
Corte exterior
 62
256
370
-1
 48
1.0
  6
ByLayer
100
AcDbEntity
100
AcDbPolyline
 90
4
 70
0
 10
88.808930504533237
 20
124.21730488987779
 30
0.0
 10
88.808930504533137
 20
136.01730488987781
 30
0.0
 10
78.00936475617489
 20
136.01730488987781
 30
0.0
 10
78.00936475617506
 20
115.2081800437871
 30
0.0
  0
LWPOLYLINE
  5
BB
  8
Corte exterior
 62
256
370
-1
 48
1.0
  6
ByLayer
100
AcDbEntity
100
AcDbPolyline
 90
5
 70
0
 10
119.5
 20
7.5033711826576628
 30
0.0
 10
117.5
 20
7.5033711826576592
 30
0.0
 10
117.5
 20
13.503371182657689
 30
0.0
 10
113.0
 20
13.503371182657659
 30
0.0
 10
113.0
 20
15.457249623632119
 30
0.0
  0
LWPOLYLINE
  5
BC
  8
Corte exterior
 62
256
370
-1
 48
1.0
  6
ByLayer
100
AcDbEntity
100
AcDbPolyline
 90
5
 70
0
 10
88.499976663787095
 20
7.5033818004270998
 30
0.0
 10
86.499976663787095
 20
7.503381800427106
 30
0.0
 10
86.499976663787095
 20
13.503381800427119
 30
0.0
 10
81.999976663787095
 20
13.503381800427089
 30
0.0
 10
81.999976663787095
 20
15.45725493251684
 30
0.0
  0
LWPOLYLINE
  5
BD
  8
Corte exterior
 62
256
370
-1
 48
1.0
  6
ByLayer
100
AcDbEntity
100
AcDbPolyline
 90
5
 70
0
 10
113.0
 20
19.411128064606569
 30
0.0
 10
113.0
 20
21.503371182657691
 30
0.0
 10
117.5
 20
21.503371182657691
 30
0.0
 10
117.5
 20
27.503371182657691
 30
0.0
 10
119.5
 20
27.503371182657691
 30
0.0
  0
LWPOLYLINE
  5
BE
  8
Corte exterior
 62
256
370
-1
 48
1.0
  6
ByLayer
100
AcDbEntity
100
AcDbPolyline
 90
5
 70
0
 10
81.999976663787095
 20
19.411128064606569
 30
0.0
 10
81.999976663787095
 20
21.503381800427089
 30
0.0
 10
86.499976663787095
 20
21.503381800427078
 30
0.0
 10
86.499976663787095
 20
27.503381800427089
 30
0.0
 10
88.499976663787095
 20
27.503381800427089
 30
0.0
  0
LWPOLYLINE
  5
BF
  8
Corte exterior
 62
256
370
-1
 48
1.0
  6
ByLayer
100
AcDbEntity
100
AcDbPolyline
 90
5
 70
0
 10
126.5
 20
27.503371182657691
 30
0.0
 10
128.5
 20
27.503371182657691
 30
0.0
 10
128.5
 20
21.503371182657691
 30
0.0
 10
133.0
 20
21.503371182657691
 30
0.0
 10
133.0
 20
19.501009432475719
 30
0.0
  0
LWPOLYLINE
  5
C0
  8
Corte exterior
 62
256
370
-1
 48
1.0
  6
ByLayer
100
AcDbEntity
100
AcDbPolyline
 90
5
 70
0
 10
95.499976663787081
 20
27.503381800427078
 30
0.0
 10
97.499976663787095
 20
27.503381800427078
 30
0.0
 10
97.499976663787095
 20
21.503381800427132
 30
0.0
 10
101.99997666378709
 20
21.503381800427078
 30
0.0
 10
101.99997666378709
 20
19.501009432475719
 30
0.0
  0
LWPOLYLINE
  5
C1
  8
Corte exterior
 62
256
370
-1
 48
1.0
  6
ByLayer
100
AcDbEntity
100
AcDbPolyline
 90
5
 70
0
 10
133.0
 20
15.50219030756671
 30
0.0
 10
133.0
 20
13.5033711826577
 30
0.0
 10
128.5
 20
13.503371182657689
 30
0.0
 10
128.5
 20
7.5033711826576859
 30
0.0
 10
126.5
 20
7.5033711826576788
 30
0.0
  0
LWPOLYLINE
  5
C2
  8
Corte exterior
 62
256
370
-1
 48
1.0
  6
ByLayer
100
AcDbEntity
100
AcDbPolyline
 90
5
 70
0
 10
101.99997666378709
 20
15.502195616451409
 30
0.0
 10
101.99997666378709
 20
13.50338180042711
 30
0.0
 10
97.499976663787095
 20
13.50338180042708
 30
0.0
 10
97.499976663787095
 20
7.5033818004270758
 30
0.0
 10
95.499976663787081
 20
7.5033818004270838
 30
0.0
  0
LINE
  5
C3
100
AcDbEntity
100
AcDbLine
  8
Corte exterior
 62
256
370
-1
 48
1.0
  6
ByLayer
 10
140.32829397773909
 20
136.01729204828669
 30
0.0
 11
148.7736048261433
 21
136.01728822103911
 31
0.0
  0
LINE
  5
C4
100
AcDbEntity
100
AcDbLine
  8
Corte exterior
 62
256
370
-1
 48
1.0
  6
ByLayer
 10
130.88298312933509
 20
136.0172963287354
 30
0.0
 11
139.32829397773921
 21
136.0172925014879
 31
0.0
  0
LINE
  5
C5
100
AcDbEntity
100
AcDbLine
  8
Corte exterior
 62
256
370
-1
 48
1.0
  6
ByLayer
 10
111.99236143252701
 20
136.01730488987781
 30
0.0
 11
129.8829831293352
 21
136.01729678218149
 31
0.0
  0
LWPOLYLINE
  5
C6
  8
Corte exterior
 62
256
370
-1
 48
1.0
  6
ByLayer
100
AcDbEntity
100
AcDbPolyline
 90
3
 70
0
 10
78.00936475617506
 20
115.21024225844251
 30
0.0
 10
65.999997394039099
 20
115.21916528999721
 30
0.0
 10
65.999992787996803
 20
94.396511393877617
 30
0.0
  0
LWPOLYLINE
  5
C7
  8
Corte exterior
 62
256
370
-1
 48
1.0
  6
ByLayer
100
AcDbEntity
100
AcDbPolyline
 90
25
 70
0
 10
65.999982279310984
 20
46.889625138080092
 30
0.0
 10
65.999972905966686
 20
4.5153064035401371
 30
0.0
 10
90.899986452983157
 20
4.501186549701087
 30
0.0
 10
90.899986452983285
 20
1.007653201770039
 30
0.0
 10
99.099986452983302
 20
1.0076532017700821
 30
0.0
 10
99.099986452983302
 20
4.5076532017700961
 30
0.0
 10
115.8999864529833
 20
4.5076532017700668
 30
0.0
 10
115.8999864529833
 20
1.007653201770067
 30
0.0
 10
124.0999864529833
 20
1.007653201770053
 30
0.0
 10
124.0999864529833
 20
4.5076532017700668
 30
0.0
 10
149.0
 20
4.5
 30
0.0
 10
148.7736048261433
 20
136.017288221039
 30
0.0
 10
148.77360482614341
 20
139.51728822103911
 30
0.0
 10
138.77360482614341
 20
139.51728822103911
 30
0.0
 10
138.77360482614341
 20
141.517288221039
 30
0.0
 10
148.77360482614341
 20
141.51728822103911
 30
0.0
 10
148.77360482614341
 20
145.01728822103911
 30
0.0
 10
121.42227748521211
 20
145.017288221039
 30
0.0
 42
-0.2894172524150822
 10
118.1756353745524
 20
146.82427871025939
 30
0.0
 42
0.100772259091334
 10
114.3180432545558
 20
151.40093857317169
 30
0.0
 42
0.287617704539719
 10
77.483278013702446
 20
155.4492265856467
 30
0.0
 42
1.1565665699248799
 10
80.155715185731736
 20
151.59024804805719
 30
0.0
 42
-0.3243482677841776
 10
110.4419753346904
 20
148.4453358292588
 30
0.0
 42
-0.0941957372955439
 10
113.8420812983082
 20
143.99313276031049
 30
0.0
 42
0.2641223020405492
 10
125.75482112572639
 20
136.017288221039
 30
0.0
  0
LWPOLYLINE
  5
C8
  8
Corte exterior
 62
256
370
-1
 48
1.0
  6
ByLayer
100
AcDbEntity
100
AcDbPolyline
 90
80
 70
0
 10
65.247333943985609
 20
122.36104491524181
 30
0.0
 42
0.2340604785541348
 10
51.112808114506429
 20
135.1043980017499
 30
0.0
 42
0.4362754249680336
 10
25.77197173000814
 20
158.7905456513254
 30
0.0
 42
-0.4905645185422358
 10
23.612921830626071
 20
137.09234203367461
 30
0.0
 42
0.1888195639801515
 10
12.03690928138862
 20
146.6511492014659
 30
0.0
 42
0.2388667405030012
 10
1.112034263988217
 20
142.01125594354659
 30
0.0
 42
-0.4443002514638015
 10
13.01686740026102
 20
130.94293828820619
 30
0.0
 42
0.2702892192986874
 10
1.027328194772458
 20
126.829313546172
 30
0.0
 42
-0.1727882906958654
 10
7.5728585540200566
 20
117.9246584570986
 30
0.0
 42
-0.04251012167139
 10
8.1409867277796177
 20
115.3756611404375
 30
0.0
 42
0.2935999404647587
 10
1.0070219209146281
 20
119.8995367698968
 30
0.0
 42
-0.1547419552017078
 10
7.3158746766460938
 20
110.9924098843569
 30
0.0
 42
0.2012089818646555
 10
6.3529754147614828
 20
109.7559722202094
 30
0.0
 42
0.2301835131608624
 10
13.075633491038211
 20
95.331705284481203
 30
0.0
 10
14.93887617891996
 20
87.763432219242844
 30
0.0
 42
0.2883123194068053
 10
17.014345851801249
 20
85.599878573326706
 30
0.0
 10
24.293967802090329
 20
83.490763471186199
 30
0.0
 10
23.338049219821691
 20
80.560231925017817
 30
0.0
 10
12.92199097792744
 20
78.932254445455484
 30
0.0
 10
4.669757205008195
 20
87.509516124694017
 30
0.0
 10
2.2335385903332501
 20
85.421328740686945
 30
0.0
 10
9.007621803462003
 20
78.320458244367487
 30
0.0
 10
8.5203094313328904
 20
78.244293773229558
 30
0.0
 42
0.2234421886562029
 10
3.0286612471837202
 20
72.210645259577973
 30
0.0
 42
0.0259539892453792
 10
2.83079966222496
 20
67.11708678079475
 30
0.0
 42
0.1657176266539589
 10
1.9000107993751301
 20
51.83841339543882
 30
0.0
 42
0.1625640721857846
 10
2.3580279353916822
 20
41.205612801782962
 30
0.0
 42
0.1181618258355113
 10
3.1788842137694751
 20
35.698238467861657
 30
0.0
 42
0.1924850731523236
 10
3.7266321071633852
 20
35.143963229678839
 30
0.0
 42
0.2635218677507712
 10
9.985003200772244
 20
34.983946094024581
 30
0.0
 42
0.411221349205279
 10
10.075744231208519
 20
35.833223987087152
 30
0.0
 42
0.0465031177632319
 10
8.8013608330936091
 20
36.705108700894733
 30
0.0
 42
-0.30396432281801
 10
8.5066001070942487
 20
37.58998212034713
 30
0.0
 10
9.0020715754249991
 20
38.934250231967461
 30
0.0
 42
0.159849107987286
 10
9.9809985229624392
 20
36.418534141186413
 30
0.0
 42
0.4375401694016933
 10
10.992913589807699
 20
36.46940680556726
 30
0.0
 42
0.0871200676245274
 10
10.27547391753369
 20
41.319016814989382
 30
0.0
 42
0.1527451242542612
 10
10.917055419479849
 20
52.284414169984252
 30
0.0
 42
0.0965823657947025
 10
12.1520139628922
 20
58.38487434597215
 30
0.0
 10
12.432586948894979
 20
52.567797184174317
 30
0.0
 10
14.0
 20
50.0
 30
0.0
 10
14.0
 20
43.0
 30
0.0
 10
13.23979603272522
 20
10.278844596863349
 30
0.0
 10
1.37866398022252
 20
2.8153821036124631
 30
0.0
 42
0.6588565315060185
 10
1.6641763051044081
 20
1.000000000000381
 30
0.0
 10
21.251257456827801
 20
1.0000000000000191
 30
0.0
 10
21.251257456827808
 20
5.0000000000000124
 30
0.0
 10
24.501257456827801
 20
5.0000000000000284
 30
0.0
 10
24.501257456827862
 20
1.0000000000000051
 30
0.0
 42
0.2891445514653334
 10
28.112209627584871
 20
2.898901950419404
 30
0.0
 10
33.501257456827851
 20
23.632712687269692
 30
0.0
 10
38.89030528607077
 20
2.898901950419384
 30
0.0
 42
0.2891445514653327
 10
42.501257456827823
 20
0.9999999999999965
 30
0.0
 10
42.501257456827837
 20
5.0
 30
0.0
 10
45.751257456827837
 20
5.0
 30
0.0
 10
45.751257456827837
 20
1.0
 30
0.0
 10
65.338338608549932
 20
1.0
 30
0.0
 42
0.658856531506004
 10
65.623850933433118
 20
2.8153821036123992
 30
0.0
 10
53.762718880930422
 20
10.27884459686334
 30
0.0
 10
53.0
 20
33.0
 30
0.0
 10
57.773030600271589
 20
27.202566468974432
 30
0.0
 10
60.0
 20
30.0
 30
0.0
 10
53.0
 20
38.0
 30
0.0
 10
53.0
 20
48.0
 30
0.0
 10
53.294709113100389
 20
50.854645714069989
 30
0.0
 10
54.569927964760723
 20
52.567797184174303
 30
0.0
 10
54.788491217393357
 20
58.592229365145798
 30
0.0
 42
0.1002392314317898
 10
56.101106755766537
 20
52.110602932427327
 30
0.0
 42
0.1617017677658266
 10
56.681158806879608
 20
41.379639986835301
 30
0.0
 42
0.0860268426149192
 10
55.958418805692141
 20
36.508850302352258
 30
0.0
 42
0.3550568073776542
 10
56.936455175540289
 20
36.40767412616114
 30
0.0
 42
0.1607491496402538
 10
57.951860973435437
 20
39.00261241022784
 30
0.0
 10
58.403233608499669
 20
37.790299174500987
 30
0.0
 42
-0.3642097642061422
 10
57.929966905807973
 20
36.594310610961649
 30
0.0
 42
0.0507176173361634
 10
56.906707813187751
 20
35.8990790098077
 30
0.0
 42
0.44705194891422
 10
57.0
 20
34.999999999999979
 30
0.0
 42
0.2501501386726713
 10
63.361050119098323
 20
35.264778692428457
 30
0.0
 42
0.16697642519322
 10
63.78364534749285
 20
35.758376534406473
 30
0.0
 42
0.1174509297651408
 10
64.585343532294758
 20
41.313605278067833
 30
0.0
 42
0.084438428136881
 10
65.66382737720869
 20
46.910333318236951
 30
0.0
  0
ENDSEC
  0
SECTION
  2
OBJECTS
  0
DICTIONARY
  5
C
100
AcDbDictionary
280
0
281
1
  3
ACAD_GROUP
350
D
  3
ACAD_LAYOUT
350
1A
  3
ACAD_MLINESTYLE
350
17
  3
ACAD_PLOTSETTINGS
350
19
  3
ACAD_PLOTSTYLENAME
350
E
  3
AcDbVariableDictionary
350
C9
  3
QCAD_OBJECTS
350
CA
  0
DICTIONARY
  5
D
100
AcDbDictionary
280
0
281
1
  0
ACDBDICTIONARYWDFLT
  5
E
100
AcDbDictionary
281
1
  3
Normal
350
F
100
AcDbDictionaryWithDefault
340
F
  0
ACDBPLACEHOLDER
  5
F
  0
DICTIONARY
  5
17
100
AcDbDictionary
280
0
281
1
  3
Standard
350
18
  0
MLINESTYLE
  5
18
100
AcDbMlineStyle
  2
STANDARD
 70
0
  3

 62
256
 51
90.0
 52
90.0
 71
2
 49
0.5
 62
256
  6
BYLAYER
 49
-0.5
 62
256
  6
BYLAYER
  0
DICTIONARY
  5
19
100
AcDbDictionary
280
0
281
1
  0
DICTIONARY
  5
1A
100
AcDbDictionary
281
1
  3
Layout1
350
1E
  3
Layout2
350
26
  3
Model
350
22
  0
LAYOUT
  5
1E
100
AcDbPlotSettings
  1

  2
none_device
  4

  6

 40
0.0
 41
0.0
 42
0.0
 43
0.0
 44
0.0
 45
0.0
 46
0.0
 47
0.0
 48
0.0
 49
0.0
140
0.0
141
0.0
142
1.0
143
1.0
 70
688
 72
0
 73
0
 74
5
  7

 75
16
147
1.0
148
0.0
149
0.0
100
AcDbLayout
  1
Layout1
 70
1
 71
1
 10
0.0
 20
0.0
 11
420.0
 21
297.0
 12
0.0
 22
0.0
 32
0.0
 14
100000000000000000000.0
 24
100000000000000000000.0
 34
100000000000000000000.0
 15
-100000000000000000000.0
 25
-100000000000000000000.0
 35
-100000000000000000000.0
146
0.0
 13
0.0
 23
0.0
 33
0.0
 16
1.0
 26
0.0
 36
0.0
 17
0.0
 27
1.0
 37
0.0
 76
0
330
1B
  0
LAYOUT
  5
22
100
AcDbPlotSettings
  1

  2
none_device
  4

  6

 40
0.0
 41
0.0
 42
0.0
 43
0.0
 44
0.0
 45
0.0
 46
0.0
 47
0.0
 48
0.0
 49
0.0
140
0.0
141
0.0
142
1.0
143
1.0
 70
1712
 72
0
 73
0
 74
0
  7

 75
0
147
1.0
148
0.0
149
0.0
100
AcDbLayout
  1
Model
 70
1
 71
0
 10
0.0
 20
0.0
 11
12.0
 21
9.0
 12
0.0
 22
0.0
 32
0.0
 14
0.0
 24
0.0
 34
0.0
 15
0.0
 25
0.0
 35
0.0
146
0.0
 13
0.0
 23
0.0
 33
0.0
 16
1.0
 26
0.0
 36
0.0
 17
0.0
 27
1.0
 37
0.0
 76
0
330
1F
  0
LAYOUT
  5
26
100
AcDbPlotSettings
  1

  2
none_device
  4

  6

 40
0.0
 41
0.0
 42
0.0
 43
0.0
 44
0.0
 45
0.0
 46
0.0
 47
0.0
 48
0.0
 49
0.0
140
0.0
141
0.0
142
1.0
143
1.0
 70
688
 72
0
 73
0
 74
5
  7

 75
16
147
1.0
148
0.0
149
0.0
100
AcDbLayout
  1
Layout2
 70
1
 71
2
 10
0.0
 20
0.0
 11
12.0
 21
9.0
 12
0.0
 22
0.0
 32
0.0
 14
0.0
 24
0.0
 34
0.0
 15
0.0
 25
0.0
 35
0.0
146
0.0
 13
0.0
 23
0.0
 33
0.0
 16
1.0
 26
0.0
 36
0.0
 17
0.0
 27
1.0
 37
0.0
 76
0
330
23
  0
DICTIONARY
  5
C9
100
AcDbDictionary
281
1
  3
DIMASSOC
350
CC
  3
HIDETEXT
350
CB
  0
DICTIONARYVAR
  5
CB
100
DictionaryVariables
280
0
  1
2
  0
DICTIONARYVAR
  5
CC
100
DictionaryVariables
280
0
  1
1
  0
DICTIONARY
  5
CA
100
AcDbDictionary
281
1
  3
ACAD_CIP_PREVIOUS_PRODUCT_INFO
350
CD
  3
ColorSettings/BackgroundColor
350
CE
  3
ColorSettings/ColorMode
350
CF
  3
DimensionSettings/AngularFormat
350
D0
  3
DimensionSettings/AngularPrecision
350
D1
  3
DimensionSettings/DimensionFont
350
D2
  3
DimensionSettings/KeepProportions
350
D3
  3
DimensionSettings/LinearFormat
350
D4
  3
DimensionSettings/LinearPrecision
350
D5
  3
Grid/DisplayGrid00
350
D6
  3
Grid/DisplayGrid01
350
D7
  3
Grid/DisplayGrid02
350
D8
  3
Grid/DisplayGrid03
350
D9
  3
Grid/GridSpacingX00
350
DA
  3
Grid/GridSpacingX01
350
DB
  3
Grid/GridSpacingX02
350
DC
  3
Grid/GridSpacingX03
350
DD
  3
Grid/GridSpacingY00
350
DE
  3
Grid/GridSpacingY01
350
DF
  3
Grid/GridSpacingY02
350
E0
  3
Grid/GridSpacingY03
350
E1
  3
Grid/IsometricGrid00
350
E2
  3
Grid/IsometricGrid01
350
E3
  3
Grid/IsometricGrid02
350
E4
  3
Grid/IsometricGrid03
350
E5
  3
Grid/IsometricProjection00
350
E6
  3
Grid/IsometricProjection01
350
E7
  3
Grid/IsometricProjection02
350
E8
  3
Grid/IsometricProjection03
350
E9
  3
Grid/MetaGridSpacingX00
350
EA
  3
Grid/MetaGridSpacingX01
350
EB
  3
Grid/MetaGridSpacingX02
350
EC
  3
Grid/MetaGridSpacingX03
350
ED
  3
Grid/MetaGridSpacingY00
350
EE
  3
Grid/MetaGridSpacingY01
350
EF
  3
Grid/MetaGridSpacingY02
350
F0
  3
Grid/MetaGridSpacingY03
350
F1
  3
MultiPageSettings/Columns
350
F2
  3
MultiPageSettings/GlueMarginsBottom
350
F3
  3
MultiPageSettings/GlueMarginsLeft
350
F4
  3
MultiPageSettings/GlueMarginsRight
350
F5
  3
MultiPageSettings/GlueMarginsTop
350
F6
  3
MultiPageSettings/PrintCropMarks
350
F7
  3
MultiPageSettings/Rows
350
F8
  3
PageSettings/OffsetX
350
F9
  3
PageSettings/OffsetY
350
FA
  3
PageSettings/PageOrientation
350
FB
  3
PageSettings/PaperHeight
350
FC
  3
PageSettings/PaperSizeName
350
FD
  3
PageSettings/PaperWidth
350
FE
  3
PageSettings/Scale
350
FF
  3
PageSettings/ShowPaperBorders
350
100
  3
QCADVersion
350
101
  3
UnitSettings/PaperUnit
350
102
  3
ViewportCenter
350
103
  3
ViewportHeight
350
104
  3
ViewportWidth
350
105
  0
XRECORD
  5
CE
330
CA
100
AcDbXrecord
280
1
1000
#ffffff
  0
XRECORD
  5
CF
330
CA
100
AcDbXrecord
280
1
1000
FullColor
  0
XRECORD
  5
D0
330
CA
100
AcDbXrecord
280
1
 40
0.0
  0
XRECORD
  5
D1
330
CA
100
AcDbXrecord
280
1
 40
0.0
  0
XRECORD
  5
D2
330
CA
100
AcDbXrecord
280
1
1000
Standard
  0
XRECORD
  5
D3
330
CA
100
AcDbXrecord
280
1
290
1
  0
XRECORD
  5
D4
330
CA
100
AcDbXrecord
280
1
 40
2.0
  0
XRECORD
  5
D5
330
CA
100
AcDbXrecord
280
1
 40
2.0
  0
XRECORD
  5
D6
330
CA
100
AcDbXrecord
280
1
290
0
  0
XRECORD
  5
D7
330
CA
100
AcDbXrecord
280
1
290
1
  0
XRECORD
  5
D8
330
CA
100
AcDbXrecord
280
1
290
1
  0
XRECORD
  5
D9
330
CA
100
AcDbXrecord
280
1
290
1
  0
XRECORD
  5
DA
330
CA
100
AcDbXrecord
280
1
1000
auto
  0
XRECORD
  5
DB
330
CA
100
AcDbXrecord
280
1
1000
auto
  0
XRECORD
  5
DC
330
CA
100
AcDbXrecord
280
1
1000
auto
  0
XRECORD
  5
DD
330
CA
100
AcDbXrecord
280
1
1000
auto
  0
XRECORD
  5
DE
330
CA
100
AcDbXrecord
280
1
1000
auto
  0
XRECORD
  5
DF
330
CA
100
AcDbXrecord
280
1
1000
auto
  0
XRECORD
  5
E0
330
CA
100
AcDbXrecord
280
1
1000
auto
  0
XRECORD
  5
E1
330
CA
100
AcDbXrecord
280
1
1000
auto
  0
XRECORD
  5
E2
330
CA
100
AcDbXrecord
280
1
290
0
  0
XRECORD
  5
E3
330
CA
100
AcDbXrecord
280
1
290
0
  0
XRECORD
  5
E4
330
CA
100
AcDbXrecord
280
1
290
0
  0
XRECORD
  5
E5
330
CA
100
AcDbXrecord
280
1
290
0
  0
XRECORD
  5
E6
330
CA
100
AcDbXrecord
280
1
 90
0
  0
XRECORD
  5
E7
330
CA
100
AcDbXrecord
280
1
 90
0
  0
XRECORD
  5
E8
330
CA
100
AcDbXrecord
280
1
 90
0
  0
XRECORD
  5
E9
330
CA
100
AcDbXrecord
280
1
 90
0
  0
XRECORD
  5
EA
330
CA
100
AcDbXrecord
280
1
1000
auto
  0
XRECORD
  5
EB
330
CA
100
AcDbXrecord
280
1
1000
auto
  0
XRECORD
  5
EC
330
CA
100
AcDbXrecord
280
1
1000
auto
  0
XRECORD
  5
ED
330
CA
100
AcDbXrecord
280
1
1000
auto
  0
XRECORD
  5
EE
330
CA
100
AcDbXrecord
280
1
1000
auto
  0
XRECORD
  5
EF
330
CA
100
AcDbXrecord
280
1
1000
auto
  0
XRECORD
  5
F0
330
CA
100
AcDbXrecord
280
1
1000
auto
  0
XRECORD
  5
F1
330
CA
100
AcDbXrecord
280
1
1000
auto
  0
XRECORD
  5
F2
330
CA
100
AcDbXrecord
280
1
 90
1
  0
XRECORD
  5
F3
330
CA
100
AcDbXrecord
280
1
 40
10.0
  0
XRECORD
  5
F4
330
CA
100
AcDbXrecord
280
1
 40
10.0
  0
XRECORD
  5
F5
330
CA
100
AcDbXrecord
280
1
 40
10.0
  0
XRECORD
  5
F6
330
CA
100
AcDbXrecord
280
1
 40
10.0
  0
XRECORD
  5
F7
330
CA
100
AcDbXrecord
280
1
290
0
  0
XRECORD
  5
F8
330
CA
100
AcDbXrecord
280
1
 90
1
  0
XRECORD
  5
F9
330
CA
100
AcDbXrecord
280
1
 40
0.0
  0
XRECORD
  5
FA
330
CA
100
AcDbXrecord
280
1
 40
0.0
  0
XRECORD
  5
FB
330
CA
100
AcDbXrecord
280
1
1000
Portrait
  0
XRECORD
  5
FC
330
CA
100
AcDbXrecord
280
1
 40
279.39999999999998
  0
XRECORD
  5
FD
330
CA
100
AcDbXrecord
280
1
1000
ANSI A (Letter)
  0
XRECORD
  5
FE
330
CA
100
AcDbXrecord
280
1
 40
215.90000000000001
  0
XRECORD
  5
FF
330
CA
100
AcDbXrecord
280
1
1000
1:1
  0
XRECORD
  5
100
330
CA
100
AcDbXrecord
280
1
290
1
  0
XRECORD
  5
101
330
CA
100
AcDbXrecord
280
1
1000
3.15.2
  0
XRECORD
  5
102
330
CA
100
AcDbXrecord
280
1
 90
4
  0
XRECORD
  5
104
330
CA
100
AcDbXrecord
280
1
 40
181.96445658974554
  0
XRECORD
  5
105
330
CA
100
AcDbXrecord
280
1
 40
397.55778743531755
  0
ENDSEC
  0
EOF
