<?xml version="1.0" encoding="UTF-8" standalone="no"?>
<!-- Created with Inkscape (http://www.inkscape.org/) -->

<svg
   xmlns:dc="http://purl.org/dc/elements/1.1/"
   xmlns:cc="http://creativecommons.org/ns#"
   xmlns:rdf="http://www.w3.org/1999/02/22-rdf-syntax-ns#"
   xmlns:svg="http://www.w3.org/2000/svg"
   xmlns="http://www.w3.org/2000/svg"
   xmlns:sodipodi="http://sodipodi.sourceforge.net/DTD/sodipodi-0.dtd"
   xmlns:inkscape="http://www.inkscape.org/namespaces/inkscape"
   width="210mm"
   height="297mm"
   viewBox="0 0 744.09448819 1052.3622047"
   id="svg2"
   version="1.1"
   inkscape:version="0.91 r13725"
   sodipodi:docname="DYOR_WALK_face.svg">
  <defs
     id="defs4">
    <marker
       orient="auto"
       id="DistanceX"
       style="overflow:visible"
       refX="0.0"
       refY="0.0">
      <path
         id="path4143"
         d="M 3,-3 L -3,3 M 0,-5 L  0,5"
         style="stroke:#000000; stroke-width:0.5" />
    </marker>
    <pattern
       id="Hatch"
       x="0"
       y="0"
       patternUnits="userSpaceOnUse"
       width="8"
       height="8">
      <path
         id="path4146"
         d="M8 4 l-4,4"
         stroke-width="0.25"
         stroke="#000000"
         linecap="square" />
      <path
         id="path4148"
         d="M6 2 l-4,4"
         stroke-width="0.25"
         stroke="#000000"
         linecap="square" />
      <path
         id="path4150"
         d="M4 0 l-4,4"
         stroke-width="0.25"
         stroke="#000000"
         linecap="square" />
    </pattern>
    <symbol
       id="*Model_Space" />
    <symbol
       id="*Paper_Space" />
    <symbol
       id="*Paper_Space0" />
    <marker
       orient="auto"
       id="DistanceX-8"
       style="overflow:visible"
       refX="0.0"
       refY="0.0">
      <path
         id="path4331"
         d="M 3,-3 L -3,3 M 0,-5 L  0,5"
         style="stroke:#000000; stroke-width:0.5" />
    </marker>
    <pattern
       id="Hatch-8"
       x="0"
       y="0"
       patternUnits="userSpaceOnUse"
       width="8"
       height="8">
      <path
         id="path4334"
         d="M8 4 l-4,4"
         stroke-width="0.25"
         stroke="#000000"
         linecap="square" />
      <path
         id="path4336"
         d="M6 2 l-4,4"
         stroke-width="0.25"
         stroke="#000000"
         linecap="square" />
      <path
         id="path4338"
         d="M4 0 l-4,4"
         stroke-width="0.25"
         stroke="#000000"
         linecap="square" />
    </pattern>
    <symbol
       id="*Model_Space-1" />
    <symbol
       id="*Paper_Space-2" />
    <symbol
       id="*Paper_Space0-0" />
    <marker
       orient="auto"
       id="DistanceX-0"
       style="overflow:visible"
       refX="0.0"
       refY="0.0">
      <path
         id="path4463"
         d="M 3,-3 L -3,3 M 0,-5 L  0,5"
         style="stroke:#000000; stroke-width:0.5" />
    </marker>
    <pattern
       id="Hatch-4"
       x="0"
       y="0"
       patternUnits="userSpaceOnUse"
       width="8"
       height="8">
      <path
         id="path4466"
         d="M8 4 l-4,4"
         stroke-width="0.25"
         stroke="#000000"
         linecap="square" />
      <path
         id="path4468"
         d="M6 2 l-4,4"
         stroke-width="0.25"
         stroke="#000000"
         linecap="square" />
      <path
         id="path4470"
         d="M4 0 l-4,4"
         stroke-width="0.25"
         stroke="#000000"
         linecap="square" />
    </pattern>
    <symbol
       id="*Model_Space-5" />
    <symbol
       id="*Paper_Space-0" />
    <symbol
       id="*Paper_Space0-8" />
  </defs>
  <sodipodi:namedview
     id="base"
     pagecolor="#ffffff"
     bordercolor="#666666"
     borderopacity="1.0"
     inkscape:pageopacity="0.0"
     inkscape:pageshadow="2"
     inkscape:zoom="0.49497475"
     inkscape:cx="472.27777"
     inkscape:cy="591.97597"
     inkscape:document-units="px"
     inkscape:current-layer="layer1"
     showgrid="false"
     inkscape:window-width="1920"
     inkscape:window-height="1057"
     inkscape:window-x="-8"
     inkscape:window-y="-8"
     inkscape:window-maximized="1" />
  <metadata
     id="metadata7">
    <rdf:RDF>
      <cc:Work
         rdf:about="">
        <dc:format>image/svg+xml</dc:format>
        <dc:type
           rdf:resource="http://purl.org/dc/dcmitype/StillImage" />
        <dc:title></dc:title>
      </cc:Work>
    </rdf:RDF>
  </metadata>
  <g
     inkscape:label="Capa 1"
     inkscape:groupmode="layer"
     id="layer1">
    <g
       inkscape:label="0"
       id="g4203"
       transform="translate(135.74803,-480.78745)" />
    <g
       id="g4500"
       transform="translate(141.01831,-440.088)">
      <g
         id="g4475"
         inkscape:label="Corte exterior">
        <path
           id="path4477"
           d="m 166.53543,933.30709 a 28.346457,28.346457 0 1 0 -56.69291,0 28.346457,28.346457 0 1 0 56.69291,0 z"
           style="fill:none;stroke:#ff0000"
           inkscape:connector-curvature="0" />
        <path
           id="path4479"
           d="m 205.51181,998.85827 a 21.259843,21.259843 0 1 0 -42.51968,0 21.259843,21.259843 0 1 0 42.51968,0 z"
           style="fill:none;stroke:#ff0000"
           inkscape:connector-curvature="0" />
        <path
           id="path4481"
           d="m 258.66142,933.30709 a 28.34646,28.34646 0 1 0 -56.69292,0 28.34646,28.34646 0 1 0 56.69292,0 z"
           style="fill:none;stroke:#ff0000"
           inkscape:connector-curvature="0" />
        <path
           id="path4483"
           d="m 250.68898,1035 0,10.6299 -35.43307,0 0,-10.6299 -62.00788,0 0,10.6299 -35.43307,0 0,-10.6299 -31.003936,0 0.624479,-135.43765 a 37.717456,37.717456 0 0 1 31.265287,-38.89306 23.099536,23.099536 0 0 0 0,24.80315 68.562763,68.562763 0 0 1 42.51968,-24.80315 12.527482,12.527482 0 0 0 0,17.71654 70.162118,70.162118 0 0 1 31.88977,-17.71654 39.615378,39.615378 0 0 0 21.25984,28.34646 98.967991,98.967991 0 0 1 56.69291,-28.34646 36.523573,36.523573 0 0 0 7.58837,39.74993 10.629921,10.629921 0 0 1 3.04155,7.44392 l 0,127.13686 -31.00393,0 z"
           style="fill:none;stroke:#ff0000"
           inkscape:connector-curvature="0" />
      </g>
      <g
         id="g4485"
         inkscape:label="0" />
    </g>
  </g>
</svg>
